<?xml version="1.0" encoding="utf-8"?>
<!-- Generator: Adobe Illustrator 25.0.1, SVG Export Plug-In . SVG Version: 6.00 Build 0)  -->
<svg version="1.1" id="Layer_1" xmlns="http://www.w3.org/2000/svg" xmlns:xlink="http://www.w3.org/1999/xlink" x="0px" y="0px"
	 viewBox="0 0 880 520" style="enable-background:new 0 0 880 520;" xml:space="preserve">
<style type="text/css">
	.st0{fill:#FFFFFF;}
	.st1{fill-rule:evenodd;clip-rule:evenodd;fill:#BFBFBF;}
	.st2{fill:none;stroke:#000000;stroke-width:0.24;stroke-miterlimit:2;}
	.st3{fill-rule:evenodd;clip-rule:evenodd;fill:#9A9A9A;}
	.st4{fill-rule:evenodd;clip-rule:evenodd;}
	.st5{fill:none;stroke:#FFFFFF;stroke-width:0.24;stroke-linecap:round;stroke-linejoin:round;}
	.st6{fill-rule:evenodd;clip-rule:evenodd;fill:#FFFFFF;}
	.st7{fill:none;stroke:#000000;stroke-width:0.24;stroke-linecap:round;stroke-linejoin:round;}
	.st8{fill:#B3B3B3;}
	.st9{fill:none;stroke:#595959;stroke-width:0.24;stroke-linecap:round;stroke-linejoin:round;}
	.st10{fill:none;stroke:#595959;stroke-width:1.2;stroke-linecap:round;stroke-linejoin:round;}
	.st11{clip-path:url(#SVGID_2_);}
	.st12{clip-path:url(#SVGID_4_);}
	.st13{clip-path:url(#SVGID_6_);}
	.st14{clip-path:url(#SVGID_8_);}
	.st15{clip-path:url(#SVGID_10_);}
	.st16{clip-path:url(#SVGID_12_);}
	.st17{fill-rule:evenodd;clip-rule:evenodd;fill:#B3B3B3;}
</style>
<rect class="st0" width="880" height="520"/>
<rect x="15.5" y="9.4" class="st0" width="848.9" height="501.2"/>
<polygon class="st1" points="45,96.4 864,96.4 859.6,100.8 49.6,100.8 "/>
<path class="st2" d="M49.6,100.9h810 M45,96.4h819"/>
<polygon class="st1" points="864,96.4 864,510.4 859.6,505.8 859.6,100.8 "/>
<path class="st2" d="M859.7,100.9v405 M864.1,96.4v414"/>
<polygon class="st1" points="864,510.4 45,510.4 49.6,505.8 859.6,505.8 "/>
<path class="st2" d="M859.7,505.9h-810 M864.1,510.4H45"/>
<polygon class="st1" points="45,510.4 45,96.4 49.6,100.8 49.6,505.8 "/>
<path class="st2" d="M49.6,505.9v-405 M45,510.4v-414"/>
<path class="st3" d="M859.7,81.1L859.7,81.1z M49.7,81.1L49.7,81.1z"/>
<path class="st2" d="M49.6,81.1L49.6,81.1z"/>
<path class="st2" d="M859.7,81.1L859.7,81.1z"/>
<line class="st2" x1="454.6" y1="93" x2="55.2" y2="93"/>
<line class="st2" x1="454.6" y1="93" x2="854" y2="93"/>
<polygon class="st4" points="55.7,95.1 49.6,93 55.7,91 "/>
<polygon class="st4" points="853.5,91 859.6,93 853.5,95.1 "/>
<rect x="439.9" y="78" class="st0" width="29.3" height="12"/>
<path d="M450,70v1.9h-0.4c-1.5-0.1-2.9,0.5-4,1.5c-1.1,1.1-1.7,2.5-1.8,4c1-1,2.3-1.6,3.7-1.5c1.4-0.1,2.7,0.5,3.6,1.6
	c0.9,1.1,1.4,2.6,1.3,4c0.1,1.5-0.4,3-1.4,4.2c-2,2.1-5.4,2.2-7.5,0.1c-0.1-0.1-0.3-0.3-0.4-0.4c-1.1-1.4-1.6-3.1-1.5-4.8v-0.8
	c0-3.2,0.7-5.6,2-7.2c1.5-1.7,3.7-2.7,6-2.6L450,70z M447.1,77.7c-0.7,0-1.4,0.2-2,0.7c-0.6,0.4-1,0.9-1.3,1.6v0.8
	c-0.1,1.2,0.2,2.4,0.9,3.4c0.5,0.8,1.4,1.3,2.4,1.3c0.9,0.1,1.8-0.3,2.3-1c0.6-0.8,0.9-1.9,0.8-2.9c0.1-1-0.2-2-0.8-2.8
	C448.8,78.1,447.9,77.7,447.1,77.7L447.1,77.7z"/>
<path d="M465.6,79.8c0.1,2-0.3,4-1.3,5.7c-0.9,1.3-2.4,1.9-4,1.8c-1.6,0.1-3.1-0.5-4.1-1.8c-0.9-1.2-1.3-3-1.3-5.4v-2.9
	c0-2.5,0.4-4.4,1.3-5.6c0.9-1.3,2.4-1.9,4-1.8c1.6-0.1,3.1,0.5,4.1,1.8c0.9,1.1,1.3,2.9,1.3,5.4V79.8z M463.5,76.8
	c0.1-1.4-0.2-2.8-0.8-4c-0.5-0.8-1.5-1.3-2.5-1.2c-1-0.1-1.9,0.4-2.4,1.2c-0.6,1.2-0.9,2.6-0.8,3.9v3.4c-0.1,1.4,0.2,2.8,0.8,4.1
	c0.5,0.9,1.5,1.4,2.5,1.4c0.9,0,1.8-0.5,2.3-1.3c0.6-0.8,0.8-2.1,0.9-3.9V76.8z"/>
<path d="M469.9,70.4l-0.2,4.3h-1.5v-5.6h1.7V70.4z"/>
<path d="M477.2,80.7h-5.7V79h5.7V80.7z"/>
<path d="M489.9,79.8c0.1,2-0.3,4-1.3,5.7c-0.9,1.3-2.4,1.9-4,1.8c-1.6,0.1-3.1-0.6-4.1-1.8c-1-1.6-1.4-3.5-1.3-5.4v-2.9
	c0-2.5,0.4-4.4,1.3-5.6c1-1.3,2.5-2,4.1-1.8c1.6-0.1,3.1,0.6,4,1.8c0.9,1.1,1.3,2.9,1.3,5.4V79.8z M487.8,76.8
	c0.1-1.4-0.2-2.8-0.8-4c-0.5-0.8-1.4-1.3-2.4-1.2c-1-0.1-2,0.4-2.5,1.2c-0.6,1.2-0.8,2.6-0.8,3.9v3.4c-0.1,1.4,0.2,2.8,0.8,4.1
	c0.5,0.9,1.5,1.4,2.5,1.4c1,0,1.9-0.5,2.4-1.3c0.6-1.2,0.8-2.6,0.8-3.9V76.8z"/>
<path d="M494.5,70.7l-0.3,4.2H493v-5.8h1.6L494.5,70.7z M497.8,70.7l-0.4,4.2h-1.3v-5.8h1.7V70.7z"/>
<path class="st3" d="M27.5,100.9L27.5,100.9z M27.5,505.9L27.5,505.9z"/>
<path class="st2" d="M27.5,505.9L27.5,505.9z"/>
<path class="st2" d="M27.5,100.9L27.5,100.9z"/>
<line class="st2" x1="39.5" y1="303.4" x2="39.5" y2="500.2"/>
<line class="st2" x1="39.5" y1="303.4" x2="39.5" y2="106.5"/>
<polygon class="st4" points="41.5,499.7 39.5,505.8 37.5,499.7 "/>
<polygon class="st4" points="37.5,107 39.5,100.8 41.5,107 "/>
<rect x="24.5" y="288.6" class="st0" width="12" height="29.4"/>
<path d="M23.9,313.6V312c0.1-0.9-0.2-1.7-0.8-2.4c-0.5-0.6-1.3-0.9-2.1-0.9c-1.5-0.2-2.8,0.9-3,2.4c0,0.2,0,0.4,0,0.6
	c0,0.8,0.3,1.6,0.8,2.2c0.5,0.6,1.3,0.9,2.1,0.9v2.1c-1.3,0-2.5-0.5-3.3-1.4c-0.9-1-1.4-2.4-1.4-3.8c-0.1-1.4,0.4-2.7,1.3-3.8
	c0.9-1,2.3-1.5,3.6-1.4c0.8,0,1.5,0.3,2.1,0.8c0.7,0.5,1.3,1.1,1.6,1.9c0.3-0.8,0.7-1.5,1.4-2.1c0.7-0.6,1.7-0.9,2.6-0.8
	c1.4-0.1,2.7,0.5,3.6,1.5c0.9,1.1,1.4,2.5,1.4,3.9c0,1.4-0.4,2.8-1.3,3.9c-0.9,1-2.2,1.5-3.5,1.5v-2.2c0.8,0,1.6-0.3,2.2-0.9
	c0.6-0.6,0.8-1.5,0.8-2.3c0.1-0.9-0.2-1.7-0.8-2.4c-0.7-0.6-1.5-0.9-2.4-0.8c-0.9,0-1.7,0.3-2.3,0.9c-0.6,0.7-0.8,1.7-0.8,2.6v1.6
	L23.9,313.6z"/>
<path d="M26.2,292.5c2-0.1,4,0.3,5.7,1.3c1.3,1,2,2.5,1.9,4.1c0.1,1.6-0.6,3.1-1.9,4c-1.6,1-3.5,1.5-5.4,1.4h-2.9
	c-2.5,0-4.3-0.4-5.5-1.3c-2.3-1.9-2.5-5.4-0.6-7.6c0.1-0.2,0.3-0.3,0.5-0.5c1.2-0.9,3-1.3,5.4-1.4H26.2z M23.3,294.7
	c-1.4-0.1-2.8,0.2-4,0.8c-0.9,0.5-1.4,1.4-1.3,2.4c0,1,0.4,2,1.3,2.5c1.2,0.6,2.5,0.8,3.8,0.7h3.5c1.4,0.1,2.8-0.2,4.1-0.8
	c1.3-0.9,1.7-2.7,0.8-4c-0.2-0.3-0.5-0.6-0.8-0.8c-1.2-0.6-2.6-0.9-3.9-0.8H23.3z"/>
<path d="M16.8,288.1l4.3,0.3v1.5h-5.6v-1.8H16.8z"/>
<path d="M27.2,280.8v5.7h-1.8v-5.7H27.2z"/>
<path d="M26.2,268.3c2-0.1,4,0.3,5.7,1.3c1.3,1,2,2.5,1.9,4.1c0.1,1.6-0.6,3.1-1.9,4c-1.6,1-3.5,1.5-5.4,1.4h-2.9
	c-2.5,0-4.3-0.4-5.5-1.3c-2.3-1.9-2.5-5.4-0.6-7.6c0.1-0.2,0.3-0.3,0.5-0.5c1.2-0.9,3-1.3,5.4-1.4H26.2z M23.3,270.5
	c-1.4-0.1-2.8,0.2-4,0.8c-1.3,0.9-1.7,2.7-0.8,4c0.2,0.3,0.5,0.6,0.8,0.8c1.2,0.6,2.5,0.9,3.8,0.8h3.5c1.4,0.1,2.8-0.2,4.1-0.8
	c1.3-0.9,1.7-2.7,0.8-4c-0.2-0.3-0.5-0.6-0.8-0.8c-1.2-0.6-2.6-0.9-3.9-0.8H23.3z"/>
<path d="M17.1,260.5l4.2,0.3v1.3h-5.8v-1.6L17.1,260.5z M17.1,263.7l4.2,0.3v1.3h-5.8v-1.6L17.1,263.7z"/>
<rect x="859.5" y="376.5" class="st0" width="4.8" height="67.6"/>
<rect x="859.5" y="376.5" class="st5" width="4.8" height="67.6"/>
<path class="st6" d="M864,376.5h-4.4v2.3h4.4V376.5z M864,444.1h-4.4v-2.3h4.4V444.1z"/>
<path class="st7" d="M863,378.8h1v-2.3 M864,376.5h-4.4v2.3h1.1 M863,441.8h1v2.3 M864,444.1h-4.4v-2.3h1.1"/>
<path class="st6" d="M860.8,378.8v2.3h2.3v-2.3H860.8z M860.8,441.8v-2.3h2.3v2.3H860.8z"/>
<rect x="860.8" y="439.5" class="st7" width="2.3" height="2.3"/>
<rect x="860.8" y="378.8" class="st7" width="2.3" height="2.3"/>
<line class="st7" x1="862" y1="439.5" x2="862" y2="381"/>
<path class="st7" d="M864,376.5h-4.4 M864,444.1h-4.4"/>
<rect x="512.5" y="96.3" class="st0" width="67.4" height="4.7"/>
<rect x="512.5" y="96.3" class="st5" width="67.4" height="4.7"/>
<path class="st6" d="M580,100.9v-4.5h-2.2v4.5H580z M512.6,100.9v-4.5h2.2v4.5H512.6z"/>
<path class="st7" d="M577.8,99.8v1.1h2.2 M580,100.9v-4.5h-2.2v1.1 M514.8,99.8v1.1h-2.2 M512.6,100.9v-4.5h2.2v1.1"/>
<path class="st6" d="M577.8,97.5h-2.2v2.3h2.2V97.5z M514.8,97.5h2.2v2.3h-2.2V97.5z"/>
<rect x="514.8" y="97.5" class="st7" width="2.2" height="2.3"/>
<rect x="575.5" y="97.5" class="st7" width="2.3" height="2.3"/>
<line class="st7" x1="517" y1="98.6" x2="575.5" y2="98.6"/>
<path class="st7" d="M580,100.9v-4.5 M512.6,100.9v-4.5"/>
<rect x="859.5" y="150.4" class="st0" width="4.8" height="67.4"/>
<rect x="859.5" y="150.4" class="st5" width="4.8" height="67.4"/>
<path class="st6" d="M859.7,217.9h4.4v-2.3h-4.4V217.9z M859.7,150.4h4.4v2.2h-4.4V150.4z"/>
<path class="st7" d="M860.8,215.6h-1.1v2.3 M859.7,217.9h4.4v-2.3h-1 M860.8,152.6h-1.1v-2.2 M859.7,150.4h4.4v2.2h-1"/>
<path class="st6" d="M863,215.6v-2.2h-2.3v2.2H863z M863,152.6v2.3h-2.3v-2.3H863z"/>
<rect x="860.8" y="152.6" class="st7" width="2.3" height="2.3"/>
<rect x="860.8" y="213.4" class="st7" width="2.3" height="2.2"/>
<line class="st7" x1="862" y1="154.8" x2="862" y2="213.4"/>
<path class="st7" d="M859.7,217.9h4.4 M859.7,150.4h4.4"/>
<rect x="625.6" y="96.3" class="st0" width="67.4" height="4.7"/>
<rect x="625.6" y="96.3" class="st5" width="67.4" height="4.7"/>
<path class="st6" d="M625.7,96.4v4.5h2.3v-4.5H625.7z M693.1,96.4v4.5H691v-4.5H693.1z"/>
<path class="st7" d="M628,97.5v-1.1h-2.3 M625.7,96.4v4.5h2.3v-1.1 M691,97.5v-1.1h2.1 M693,96.4v4.5H691v-1.1"/>
<path class="st6" d="M628,99.8h2.1v-2.3H628V99.8z M691,99.8h-2.3v-2.3h2.3V99.8z"/>
<rect x="688.6" y="97.5" class="st7" width="2.3" height="2.3"/>
<rect x="628" y="97.5" class="st7" width="2.2" height="2.3"/>
<line class="st7" x1="688.6" y1="98.6" x2="630" y2="98.6"/>
<path class="st7" d="M625.7,96.4v4.5 M693.1,96.4v4.5"/>
<rect x="101.9" y="96.3" class="st0" width="67.4" height="4.7"/>
<rect x="101.9" y="96.3" class="st5" width="67.4" height="4.7"/>
<path class="st6" d="M169.4,100.9v-4.5h-2.2v4.5H169.4z M101.9,100.9v-4.5h2.3v4.5H101.9z"/>
<path class="st7" d="M167.2,99.8v1.1h2.2 M169.4,100.9v-4.5h-2.2v1.1 M104.2,99.8v1.1h-2.3 M101.9,100.9v-4.5h2.3v1.1"/>
<path class="st6" d="M167.2,97.5h-2.3v2.3h2.3V97.5z M104.2,97.5h2.2v2.3h-2.2V97.5z"/>
<rect x="104.2" y="97.5" class="st7" width="2.2" height="2.3"/>
<rect x="164.9" y="97.5" class="st7" width="2.3" height="2.3"/>
<line class="st7" x1="106.3" y1="98.6" x2="164.9" y2="98.6"/>
<path class="st7" d="M169.4,100.9v-4.5 M101.9,100.9v-4.5"/>
<rect x="738.6" y="96.3" class="st0" width="67.6" height="4.7"/>
<rect x="738.6" y="96.3" class="st5" width="67.6" height="4.7"/>
<path class="st6" d="M738.7,96.4v4.5h2.3v-4.5H738.7z M806.2,96.4v4.5H804v-4.5H806.2z"/>
<path class="st7" d="M741,97.5v-1.1h-2.3 M738.7,96.4v4.5h2.3v-1.1 M804,97.5v-1.1h2.3 M806.2,96.4v4.5H804v-1.1"/>
<path class="st6" d="M741,99.8h2.3v-2.3H741V99.8z M804,99.8h-2.3v-2.3h2.3V99.8z"/>
<rect x="801.6" y="97.5" class="st7" width="2.3" height="2.3"/>
<rect x="741" y="97.5" class="st7" width="2.3" height="2.3"/>
<line class="st7" x1="801.6" y1="98.6" x2="743.2" y2="98.6"/>
<path class="st7" d="M738.7,96.4v4.5 M806.2,96.4v4.5"/>
<rect x="328" y="96.3" class="st0" width="67.6" height="4.7"/>
<rect x="328" y="96.3" class="st5" width="67.6" height="4.7"/>
<path class="st6" d="M328,96.4v4.5h2.3v-4.5H328z M395.6,96.4v4.5h-2.3v-4.5H395.6z"/>
<path class="st7" d="M330.4,97.5v-1.1h-2.3 M328.1,96.4v4.5h2.3v-1.1 M393.4,97.5v-1.1h2.3 M395.6,96.4v4.5h-2.3v-1.1"/>
<path class="st6" d="M330.4,99.8h2.3v-2.3h-2.3V99.8z M393.4,99.8h-2.3v-2.3h2.3V99.8z"/>
<rect x="391" y="97.5" class="st7" width="2.3" height="2.3"/>
<rect x="330.3" y="97.5" class="st7" width="2.3" height="2.3"/>
<line class="st7" x1="391" y1="98.6" x2="332.5" y2="98.6"/>
<path class="st7" d="M328,96.4v4.5 M395.6,96.4v4.5"/>
<rect x="513" y="505.7" class="st0" width="67.6" height="4.8"/>
<rect x="513" y="505.7" class="st5" width="67.6" height="4.8"/>
<path class="st6" d="M580.7,510.4v-4.5h-2.3v4.5H580.7z M513.1,510.4v-4.5h2.3v4.5H513.1z"/>
<path class="st7" d="M578.3,509.2v1.2h2.3 M580.6,510.4v-4.5h-2.3v1.2 M515.3,509.2v1.2H513 M513,510.4v-4.5h2.3v1.2"/>
<path class="st6" d="M578.3,507.1H576v2.1h2.3V507.1z M515.3,507.1h2.3v2.1h-2.3V507.1z"/>
<rect x="515.3" y="507" class="st7" width="2.3" height="2.2"/>
<rect x="576" y="507" class="st7" width="2.3" height="2.2"/>
<line class="st7" x1="517.7" y1="508.1" x2="576" y2="508.1"/>
<path class="st7" d="M580.7,510.4v-4.5 M513.1,510.4v-4.5"/>
<rect x="328.6" y="505.7" class="st0" width="67.4" height="4.8"/>
<rect x="328.6" y="505.7" class="st5" width="67.4" height="4.8"/>
<path class="st6" d="M328.6,505.9v4.5h2.3v-4.5L328.6,505.9z M396,505.9v4.5h-2.1v-4.5L396,505.9z"/>
<path class="st7" d="M331,507.1v-1.2h-2.3 M328.7,505.9v4.5h2.3v-1.2 M394,507.1v-1.2h2.1 M396.1,505.9v4.5H394v-1.2"/>
<path class="st6" d="M331,509.2h2.1v-2.1H331V509.2z M394,509.2h-2.3v-2.1h2.3V509.2z"/>
<rect x="391.6" y="507" class="st7" width="2.3" height="2.2"/>
<rect x="330.9" y="507" class="st7" width="2.2" height="2.2"/>
<line class="st7" x1="391.6" y1="508.1" x2="333" y2="508.1"/>
<path class="st7" d="M328.6,505.9v4.5 M396,505.9v4.5"/>
<rect x="102.5" y="505.7" class="st0" width="67.4" height="4.8"/>
<rect x="102.5" y="505.7" class="st5" width="67.4" height="4.8"/>
<path class="st6" d="M170,510.4v-4.5h-2.3v4.5H170z M102.5,510.4v-4.5h2.2v4.5H102.5z"/>
<path class="st7" d="M167.7,509.2v1.2h2.3 M170,510.4v-4.5h-2.3v1.2 M104.7,509.2v1.2h-2.2 M102.5,510.4v-4.5h2.2v1.2"/>
<path class="st6" d="M167.7,507.1h-2.2v2.1h2.2V507.1z M104.7,507.1h2.3v2.1h-2.3V507.1z"/>
<rect x="104.7" y="507" class="st7" width="2.3" height="2.2"/>
<rect x="165.5" y="507" class="st7" width="2.2" height="2.2"/>
<line class="st7" x1="106.9" y1="508.1" x2="165.5" y2="508.1"/>
<path class="st7" d="M170,510.4v-4.5 M102.5,510.4v-4.5"/>
<rect x="739.2" y="505.7" class="st0" width="67.4" height="4.8"/>
<rect x="739.2" y="505.7" class="st5" width="67.4" height="4.8"/>
<path class="st6" d="M739.2,505.9v4.5h2.3v-4.5L739.2,505.9z M806.8,505.9v4.5h-2.2v-4.5L806.8,505.9z"/>
<path class="st7" d="M741.5,507.1v-1.2h-2.3 M739.2,505.9v4.5h2.3v-1.2 M804.5,507.1v-1.2h2.2 M806.8,505.9v4.5h-2.2v-1.2"/>
<path class="st6" d="M741.5,509.2h2.2v-2.1h-2.2V509.2z M804.5,509.2h-2.3v-2.1h2.3V509.2z"/>
<rect x="802.2" y="507" class="st7" width="2.3" height="2.2"/>
<rect x="741.5" y="507" class="st7" width="2.2" height="2.2"/>
<line class="st7" x1="802.2" y1="508.1" x2="743.8" y2="508.1"/>
<path class="st7" d="M739.2,505.9v4.5 M806.8,505.9v4.5"/>
<rect x="859.5" y="263.4" class="st0" width="4.8" height="67.4"/>
<rect x="859.5" y="263.4" class="st5" width="4.8" height="67.4"/>
<path class="st6" d="M864,263.5h-4.4v2.3h4.4V263.5z M864,330.9h-4.4v-2.1h4.4V330.9z"/>
<path class="st7" d="M863,265.8h1v-2.3 M864,263.5h-4.4v2.3h1.1 M863,328.8h1v2.1 M864,330.9h-4.4v-2.1h1.1"/>
<path class="st6" d="M860.8,265.8v2.1h2.3v-2.1H860.8z M860.8,328.8v-2.3h2.3v2.3H860.8z"/>
<rect x="860.8" y="326.4" class="st7" width="2.3" height="2.3"/>
<rect x="860.8" y="265.7" class="st7" width="2.3" height="2.2"/>
<line class="st7" x1="862" y1="326.4" x2="862" y2="267.9"/>
<path class="st7" d="M864,263.5h-4.4 M864,330.9h-4.4"/>
<rect x="214.9" y="96.3" class="st0" width="67.6" height="4.7"/>
<rect x="214.9" y="96.3" class="st5" width="67.6" height="4.7"/>
<path class="st6" d="M215,96.4v4.5h2.2v-4.5H215z M282.5,96.4v4.5h-2.3v-4.5H282.5z"/>
<path class="st7" d="M217.2,97.5v-1.1H215 M215,96.4v4.5h2.2v-1.1 M280.2,97.5v-1.1h2.3 M282.5,96.4v4.5h-2.3v-1.1"/>
<path class="st6" d="M217.2,99.8h2.3v-2.3h-2.3V99.8z M280.2,99.8H278v-2.3h2.2V99.8z"/>
<rect x="277.9" y="97.5" class="st7" width="2.3" height="2.3"/>
<rect x="217.2" y="97.5" class="st7" width="2.3" height="2.3"/>
<line class="st7" x1="277.9" y1="98.6" x2="219.5" y2="98.6"/>
<path class="st7" d="M215,96.4v4.5 M282.5,96.4v4.5"/>
<rect x="626.2" y="505.7" class="st0" width="67.4" height="4.8"/>
<rect x="626.2" y="505.7" class="st5" width="67.4" height="4.8"/>
<path class="st6" d="M626.2,505.9v4.5h2.2v-4.5L626.2,505.9z M693.7,505.9v4.5h-2.2v-4.5L693.7,505.9z"/>
<path class="st7" d="M628.5,507.1v-1.2h-2.2 M626.2,505.9v4.5h2.2v-1.2 M691.5,507.1v-1.2h2.2 M693.7,505.9v4.5h-2.2v-1.2"/>
<path class="st6" d="M628.5,509.2h2.2v-2.1h-2.2V509.2z M691.5,509.2h-2.2v-2.1h2.2V509.2z"/>
<rect x="689.2" y="507" class="st7" width="2.2" height="2.2"/>
<rect x="628.3" y="507" class="st7" width="2.3" height="2.2"/>
<line class="st7" x1="689.2" y1="508.1" x2="630.6" y2="508.1"/>
<path class="st7" d="M626.2,505.9v4.5 M693.7,505.9v4.5"/>
<rect x="215.5" y="505.7" class="st0" width="67.4" height="4.8"/>
<rect x="215.5" y="505.7" class="st5" width="67.4" height="4.8"/>
<path class="st6" d="M215.6,505.9v4.5h2.2v-4.5L215.6,505.9z M283,505.9v4.5h-2.2v-4.5L283,505.9z"/>
<path class="st7" d="M217.8,507.1v-1.2h-2.2 M215.6,505.9v4.5h2.2v-1.2 M280.9,507.1v-1.2h2.2 M283.1,505.9v4.5h-2.2v-1.2"/>
<path class="st6" d="M217.8,509.2h2.2v-2.1h-2.2V509.2z M280.9,509.2h-2.2v-2.1h2.2V509.2z"/>
<rect x="278.5" y="507" class="st7" width="2.3" height="2.2"/>
<rect x="217.8" y="507" class="st7" width="2.2" height="2.2"/>
<line class="st7" x1="278.5" y1="508.1" x2="220" y2="508.1"/>
<path class="st7" d="M215.6,505.9v4.5 M283,505.9v4.5"/>
<rect x="418.6" y="96.3" class="st0" width="72" height="4.7"/>
<rect x="418.6" y="96.3" class="st5" width="72" height="4.7"/>
<path class="st6" d="M418.6,96.4v4.5h2.3v-4.5H418.6z M490.6,96.4v4.5h-2.3v-4.5H490.6z"/>
<path class="st7" d="M421,97.5v-1.1h-2.3 M418.7,96.4v4.5h2.3v-1.7 M488.4,97.5v-1.1h2.3 M490.6,96.4v4.5h-2.3v-1.7"/>
<path class="st6" d="M421,99.2h0.5v-1.7H421V99.2z M488.4,99.2h-0.5v-1.7h0.5V99.2z"/>
<path class="st7" d="M421,99.2h0.5v-1.7H421 M488.4,99.2h-0.5v-1.7h0.5"/>
<path class="st7" d="M418.6,96.4v4.5 M490.6,96.4v4.5"/>
<path class="st7" d="M454.6,100.9c0,18.6-15.1,33.7-33.7,33.7l0,0"/>
<path class="st7" d="M454.6,100.9c0,18.6,15.1,33.7,33.7,33.7l0,0"/>
<rect x="420.9" y="100.8" class="st0" width="1.7" height="33.7"/>
<rect x="420.9" y="100.8" class="st7" width="1.7" height="33.7"/>
<rect x="486.6" y="100.8" class="st0" width="1.7" height="33.7"/>
<rect x="486.6" y="100.8" class="st7" width="1.7" height="33.7"/>
<rect x="420.9" y="505.7" class="st0" width="67.4" height="4.8"/>
<rect x="420.9" y="505.7" class="st5" width="67.4" height="4.8"/>
<path class="st6" d="M488.4,510.4v-4.5h-2.3v4.5H488.4z M421,510.4v-4.5h2.1v4.5H421z"/>
<path class="st7" d="M486,509.2v1.2h2.3 M488.3,510.4v-4.5H486v1.2 M423,509.2v1.2h-2.1 M420.9,510.4v-4.5h2.1v1.2"/>
<path class="st6" d="M486,507.1h-2.1v2.1h2.1V507.1z M423,507.1h2.3v2.1H423V507.1z"/>
<rect x="423" y="507" class="st7" width="2.3" height="2.2"/>
<rect x="483.9" y="507" class="st7" width="2.2" height="2.2"/>
<line class="st7" x1="425.3" y1="508.1" x2="483.9" y2="508.1"/>
<path class="st7" d="M488.4,510.4v-4.5 M421,510.4v-4.5"/>
<rect x="399.3" y="100.8" class="st8" width="4.4" height="218.3"/>
<path class="st2" d="M401.5,319.2h2.3V100.9h-2.3 M401.5,319.2h-2.1V100.9h2.1"/>
<path class="st6" d="M302,218.6h-11.9v42H302V218.6z M314,218.6h-12v42h12V218.6z M325.8,218.6H314v42h11.8V218.6z M337.8,218.6h-12
	v42h12V218.6z M349.7,218.6h-11.9v42h11.9L349.7,218.6z M361.7,218.6h-12v42h12L361.7,218.6z M373.6,218.6h-11.9v42h11.9
	L373.6,218.6z"/>
<rect x="361.8" y="218.6" class="st9" width="11.9" height="42"/>
<rect x="349.8" y="218.6" class="st9" width="12" height="42"/>
<rect x="337.8" y="218.6" class="st9" width="11.9" height="42"/>
<rect x="325.8" y="218.6" class="st9" width="12" height="42"/>
<rect x="313.9" y="218.6" class="st9" width="11.9" height="42"/>
<rect x="301.9" y="218.6" class="st9" width="12" height="42"/>
<rect x="290.1" y="218.6" class="st9" width="11.9" height="42"/>
<path class="st6" d="M399.5,218.6h-2.3c0,1.2-1,2.2-2.2,2.3h-63.2v2.1h63.2c2.4,0.1,4.4-1.9,4.5-4.3
	C399.5,218.7,399.5,218.6,399.5,218.6z M399.5,260.6h-2.3c0-1.2-1-2.2-2.2-2.2h0h-63.2v-2.2h63.2
	C397.5,256.2,399.5,258.2,399.5,260.6z M331.8,220.9h-50.7c-1.3,0-2.3-1-2.3-2.3h-2.3c0.1,2.5,2.1,4.5,4.6,4.4c0,0,0,0,0,0h50.7
	L331.8,220.9z M331.8,258.4h-50.7c-1.2-0.1-2.2,0.9-2.3,2.1c0,0,0,0.1,0,0.1h-2.3c0.1-2.5,2.1-4.5,4.6-4.4c0,0,0,0,0,0h50.7
	L331.8,258.4z"/>
<path class="st9" d="M331.9,223h63.2c2.4,0.1,4.4-1.9,4.5-4.3c0,0,0-0.1,0-0.1 M399.6,218.6h-2.3c0,1.2-1,2.2-2.2,2.3h-63.2
	 M331.9,256.2h63.2c2.4,0,4.4,2,4.5,4.4 M399.6,260.6h-2.3c0-1.2-1-2.2-2.2-2.2h0h-63.2 M331.9,220.9h-50.7c-1.3,0-2.3-1-2.3-2.3
	h-2.3c0.1,2.5,2.1,4.5,4.6,4.4c0,0,0,0,0,0h50.7 M331.9,258.4h-50.7c-1.2-0.1-2.2,0.9-2.3,2.1c0,0,0,0.1,0,0.1h-2.3
	c0.1-2.5,2.1-4.5,4.6-4.4c0,0,0,0,0,0h50.7"/>
<path d="M322,228.4V240c0,1.5-0.6,2.9-1.6,4c-1.1,1.1-2.5,1.7-4,1.7h-0.6c-1.6,0.1-3.2-0.4-4.5-1.5c-1.2-1.1-1.8-2.6-1.7-4.2v-11.6
	h2.2V240c0,1.1,0.4,2.1,1.1,2.9c0.8,0.7,1.8,1.1,2.9,1c1.1,0,2.1-0.3,2.9-1c0.7-0.8,1.1-1.8,1-2.9v-11.6H322z"/>
<path d="M336,239.3c0.1,1.7-0.4,3.3-1.4,4.7c-0.8,1.1-2.2,1.8-3.6,1.7c-1.3,0-2.6-0.5-3.6-1.4v6.1h-2.2v-17.6h2v1.4
	c0.9-1.1,2.3-1.7,3.7-1.6c1.4-0.1,2.8,0.6,3.6,1.7c1,1.4,1.5,3.1,1.4,4.8L336,239.3z M333.8,239c0.1-1.2-0.3-2.3-0.9-3.3
	c-0.6-0.8-1.5-1.3-2.5-1.3c-1.3,0-2.4,0.7-3,1.8v6c0.6,1.1,1.7,1.8,3,1.8c1,0,1.9-0.5,2.5-1.3C333.5,241.6,333.9,240.3,333.8,239z"
	/>
<line class="st9" x1="373.6" y1="239.6" x2="348.3" y2="239.6"/>
<path class="st10" d="M372.2,238.2l2.8,2.8 M351.2,233.8l-2.9,5.8l2.9,5.9"/>
<path d="M134.4,233h-5.5v15.2h-2.2V233h-5.5v-1.9h13.2V233z"/>
<path d="M136.1,241.7c0-1.1,0.2-2.3,0.7-3.3c0.4-0.9,1.1-1.7,2-2.3c0.9-0.5,1.9-0.8,3-0.8c1.6-0.1,3.1,0.6,4.2,1.8
	c1.1,1.3,1.7,3,1.6,4.7v0.2c0,1.1-0.2,2.3-0.7,3.3c-0.4,0.9-1.1,1.7-2,2.3c-0.9,0.6-2,0.9-3.1,0.8c-1.6,0.1-3.1-0.6-4.1-1.8
	c-1.1-1.3-1.7-3-1.6-4.7L136.1,241.7z M138.2,242c0,1.2,0.3,2.4,1,3.4c0.6,0.8,1.6,1.3,2.6,1.3c1,0,2-0.5,2.7-1.3
	c0.7-1.1,1-2.4,0.9-3.7c0.1-1.2-0.3-2.4-1-3.3c-0.6-0.9-1.6-1.4-2.6-1.3c-1,0-2,0.4-2.6,1.2C138.6,239.4,138.2,240.7,138.2,242z"/>
<path d="M165.9,240.7h-7.1v7.5h-2.3v-17.1h10.6v1.9h-8.3v5.8h7.1V240.7z"/>
<path d="M169.4,232.2c0-0.3,0.2-0.7,0.4-0.9c0.2-0.3,0.6-0.4,0.9-0.4c0.4,0,0.7,0.1,1,0.4c0.2,0.2,0.3,0.6,0.3,0.9
	c0,0.3-0.1,0.6-0.3,0.8c-0.3,0.3-0.6,0.4-1,0.4c-0.3,0-0.7-0.1-0.9-0.4C169.6,232.8,169.5,232.5,169.4,232.2z M171.8,248.2h-2.2
	v-12.7h2.2V248.2z"/>
<path d="M181.4,237.5h-1.1c-1.3-0.1-2.4,0.6-2.9,1.8v9h-2.1v-12.8h2.1v1.5c0.6-1.1,1.8-1.7,3-1.7h1V237.5z"/>
<path d="M190.8,244.8c0-0.5-0.2-1-0.7-1.3c-0.7-0.5-1.5-0.8-2.3-0.9c-0.9-0.1-1.8-0.4-2.6-0.8c-0.6-0.3-1.1-0.7-1.4-1.2
	c-0.3-0.5-0.5-1-0.5-1.6c0-1,0.5-2,1.3-2.6c0.9-0.8,2.2-1.2,3.4-1.1c1.3,0,2.5,0.4,3.5,1.1c0.9,0.7,1.3,1.7,1.3,2.8h-2.1
	c0-0.6-0.3-1.1-0.8-1.5c-0.5-0.4-1.2-0.6-1.9-0.6c-0.7-0.1-1.3,0.1-1.9,0.5c-0.4,0.3-0.6,0.8-0.6,1.3c0,0.5,0.2,0.9,0.6,1.2
	c0.7,0.4,1.4,0.6,2.2,0.8c0.9,0.2,1.8,0.4,2.7,0.8c0.6,0.4,1.1,0.8,1.5,1.3c0.3,0.5,0.5,1.1,0.5,1.7c0,1.1-0.5,2.1-1.4,2.7
	c-1,0.7-2.3,1.1-3.5,1c-0.9,0-1.9-0.1-2.7-0.5c-0.7-0.4-1.4-0.9-1.9-1.5c-0.4-0.6-0.6-1.4-0.6-2.1h2.1c0.1,0.7,0.4,1.3,0.9,1.7
	c0.6,0.5,1.4,0.7,2.2,0.7c0.7,0,1.3-0.2,1.9-0.5C190.5,245.9,190.8,245.4,190.8,244.8z"/>
<path d="M198.7,232.4v3.1h2.4v1.7h-2.4v7.9c0,0.4,0.1,0.8,0.3,1.1c0.3,0.3,0.7,0.5,1.1,0.4h1v1.7c-0.5,0.2-1.1,0.2-1.6,0.2
	c-0.8,0.1-1.6-0.2-2.2-0.8c-0.5-0.7-0.8-1.6-0.8-2.5v-7.9h-2.3v-1.7h2.3v-3.1L198.7,232.4z"/>
<path d="M219.3,240.7h-7.2v7.5h-2.2v-17.1h10.5v1.9h-8.3v5.8h7.2V240.7z"/>
<path d="M225.1,248.2H223v-18h2.1V248.2z"/>
<path d="M228,241.7c0-1.1,0.3-2.3,0.8-3.3c0.4-1,1.1-1.8,2-2.3c0.9-0.5,1.9-0.8,3-0.8c1.6-0.1,3.1,0.6,4.2,1.8
	c1.1,1.3,1.6,3,1.6,4.7v0.2c0,1.1-0.3,2.3-0.7,3.3c-0.4,1-1.2,1.8-2.1,2.3c-0.9,0.6-1.9,0.9-3,0.8c-1.6,0.1-3.1-0.6-4.2-1.8
	c-1.1-1.3-1.7-3-1.6-4.7V241.7z M230.2,242c-0.1,1.2,0.3,2.4,1,3.4c1.1,1.4,3.2,1.7,4.6,0.6c0.2-0.2,0.4-0.4,0.6-0.6
	c0.7-1.1,1.1-2.4,1-3.7c0.1-1.2-0.3-2.4-1-3.3c-0.6-0.9-1.6-1.4-2.6-1.3c-1,0-2,0.4-2.6,1.2C230.5,239.4,230.2,240.7,230.2,242z"/>
<path d="M241.8,241.7c0-1.1,0.2-2.3,0.7-3.3c0.4-0.9,1.1-1.7,2-2.3c0.9-0.5,1.9-0.8,3-0.8c1.6-0.1,3.1,0.6,4.2,1.8
	c1.1,1.3,1.7,3,1.6,4.7v0.2c0,1.1-0.2,2.3-0.7,3.3c-0.4,1-1.1,1.8-2,2.3c-0.9,0.6-2,0.9-3.1,0.8c-1.6,0.1-3.1-0.6-4.1-1.8
	c-1.1-1.3-1.7-3-1.6-4.7L241.8,241.7z M243.9,242c0,1.2,0.3,2.4,1,3.4c0.6,0.8,1.6,1.3,2.6,1.3c1,0,2-0.5,2.7-1.3
	c0.7-1.1,1-2.4,0.9-3.7c0.1-1.2-0.3-2.4-1-3.3c-0.6-0.9-1.6-1.4-2.6-1.3c-1,0-2,0.4-2.6,1.2C244.3,239.4,243.9,240.7,243.9,242
	L243.9,242z"/>
<path d="M262,237.5h-1.1c-1.3-0.1-2.4,0.6-2.9,1.8v9h-2.1v-12.8h2.1v1.5c0.6-1.1,1.8-1.7,3-1.7h1V237.5z"/>
<path d="M616,163.8c0,1.5-0.3,3-0.9,4.4c-0.5,1.2-1.3,2.2-2.4,2.9c-1.1,0.6-2.3,0.9-3.6,0.9c-1.2,0-2.4-0.3-3.5-0.9
	c-1.1-0.7-1.9-1.7-2.5-2.9c-0.5-1.3-0.8-2.8-0.9-4.2v-1.3c0-1.5,0.3-3,0.9-4.3c0.5-1.2,1.4-2.2,2.4-2.9c1.1-0.7,2.3-1,3.6-1
	c1.3-0.1,2.5,0.3,3.6,1c1.1,0.7,2,1.7,2.4,2.9c0.6,1.3,0.9,2.8,0.9,4.3V163.8z M613.7,162.7c0.1-1.6-0.3-3.2-1.2-4.6
	c-0.8-1.1-2.1-1.7-3.4-1.7c-1.3,0-2.6,0.6-3.4,1.7c-0.9,1.3-1.3,2.9-1.2,4.5v1.2c-0.1,1.6,0.3,3.2,1.2,4.6c1.4,1.9,4.1,2.3,6,0.9
	c0.3-0.2,0.6-0.5,0.8-0.8c0.9-1.3,1.3-2.9,1.2-4.5L613.7,162.7z"/>
<path d="M620,171.8v-11h-2v-1.7h2v-1.3c-0.1-1.1,0.3-2.3,1.1-3.1c0.8-0.8,2-1.2,3.1-1.1c0.5,0,1,0,1.5,0.2v1.7h-1.2
	c-0.6,0-1.2,0.2-1.6,0.6c-0.4,0.5-0.7,1.1-0.6,1.8v1.3h2.7v1.7h-2.7v11L620,171.8z"/>
<path d="M628.5,171.8v-11h-2.1v-1.7h2.1v-1.3c-0.1-1.1,0.3-2.2,1-3.1c0.8-0.8,2-1.2,3.1-1.1c0.5,0,1,0,1.5,0.2v1.7h-1.3
	c-0.6,0-1.2,0.2-1.6,0.6c-0.4,0.5-0.7,1.1-0.6,1.8v1.3h2.7v1.7h-2.7v11L628.5,171.8z"/>
<path d="M635.5,155.8c0-0.3,0.1-0.7,0.3-0.9c0.3-0.3,0.6-0.4,1-0.4c0.7,0,1.3,0.6,1.3,1.3c0,0.3-0.1,0.6-0.4,0.8
	c-0.2,0.3-0.6,0.4-0.9,0.4c-0.4,0-0.7-0.1-1-0.4C635.6,156.4,635.5,156.1,635.5,155.8z M638,171.8h-2.2v-12.7h2.2V171.8z"/>
<path d="M646.5,170.3c0.7,0,1.4-0.2,2-0.7c0.6-0.4,0.9-1.1,1-1.8h2c0,0.8-0.2,1.5-0.7,2.1c-0.9,1.4-2.6,2.2-4.3,2.1
	c-1.6,0.1-3.1-0.5-4.1-1.7c-1.1-1.3-1.6-3-1.5-4.7v-0.4c0-1.1,0.2-2.2,0.6-3.3c0.4-0.9,1.1-1.7,2-2.2c0.9-0.5,1.9-0.8,3-0.8
	c1.3-0.1,2.6,0.4,3.5,1.3c1,0.8,1.6,2,1.5,3.3h-2c-0.1-0.7-0.4-1.5-0.9-2c-0.6-0.5-1.3-0.8-2.1-0.8c-1,0-2,0.4-2.6,1.2
	c-0.7,1-1,2.2-0.9,3.4v0.4c-0.1,1.2,0.2,2.4,0.9,3.4C644.5,169.9,645.4,170.3,646.5,170.3z"/>
<path d="M659.2,172c-1.6,0.1-3.1-0.5-4.2-1.7c-1.1-1.2-1.7-2.8-1.6-4.5v-0.4c0-1.1,0.2-2.3,0.7-3.3c0.5-0.9,1.2-1.8,2-2.4
	c0.8-0.5,1.8-0.8,2.8-0.8c1.5-0.1,2.9,0.5,3.9,1.6c1,1.4,1.4,3,1.3,4.7v0.9h-8.5c0,1.1,0.3,2.1,1,3c0.7,0.8,1.7,1.2,2.7,1.2
	c0.7,0,1.4-0.2,2-0.5c0.5-0.3,1-0.7,1.4-1.2l1.3,1C662.9,171.2,661.1,172.1,659.2,172z M658.9,160.7c-0.8,0-1.6,0.3-2.2,0.9
	c-0.6,0.8-1,1.7-1.1,2.7h6.4v-0.2c0-0.9-0.3-1.8-0.9-2.5C660.5,161,659.7,160.7,658.9,160.7L658.9,160.7z"/>
<path d="M635.7,360.8h8.1v1.8h-10.4v-17.1h2.3L635.7,360.8z"/>
<path d="M646,346.6c0-0.7,0.6-1.3,1.3-1.3c0.4,0,0.7,0.1,1,0.4c0.2,0.2,0.3,0.6,0.3,0.9c0,0.3-0.1,0.6-0.3,0.8
	c-0.3,0.3-0.6,0.4-1,0.4c-0.3,0-0.7-0.1-0.9-0.4C646.1,347.2,645.9,346.9,646,346.6z M648.4,362.6h-2.2v-12.7h2.2V362.6z"/>
<path d="M662.5,356.4c0.1,1.7-0.4,3.3-1.4,4.7c-0.8,1.1-2.1,1.8-3.5,1.7c-1.5,0.1-2.9-0.5-3.8-1.7v1.5h-2v-18h2.2v6.7
	c0.9-1.1,2.2-1.7,3.6-1.6c1.4-0.1,2.8,0.6,3.7,1.7c0.9,1.4,1.4,3.1,1.3,4.8L662.5,356.4z M660.3,356.2c0.1-1.2-0.2-2.4-0.8-3.5
	c-0.6-0.8-1.5-1.3-2.5-1.2c-1.3,0-2.6,0.8-3.1,2v5.5c0.6,1.2,1.8,2,3.1,2c1,0.1,1.9-0.4,2.4-1.2
	C660.1,358.7,660.4,357.5,660.3,356.2z"/>
<path d="M671.5,351.9h-1c-1.3-0.1-2.5,0.6-2.9,1.8v9h-2.2v-12.8h2.1v1.5c0.7-1.1,1.8-1.7,3.1-1.7c0.4,0,0.7,0,0.9,0.2L671.5,351.9z"
	/>
<path d="M681.2,362.6c-0.2-0.4-0.3-0.8-0.3-1.3c-1,1-2.3,1.5-3.7,1.5c-1.1,0-2.2-0.3-3-1c-0.8-0.7-1.2-1.7-1.2-2.7
	c-0.1-1.2,0.5-2.4,1.5-3.1c1.3-0.8,2.7-1.2,4.2-1.1h2.1v-1c0-0.7-0.2-1.3-0.7-1.8c-0.5-0.5-1.3-0.7-2-0.7c-0.7,0-1.3,0.2-1.9,0.6
	c-0.5,0.3-0.8,0.8-0.8,1.4h-2.2c0.1-0.7,0.3-1.3,0.7-1.8c0.5-0.6,1.1-1.1,1.8-1.4c0.8-0.3,1.7-0.5,2.6-0.5c1.2-0.1,2.4,0.3,3.4,1.1
	c0.9,0.8,1.3,1.9,1.3,3v5.8c-0.1,1,0.1,1.9,0.4,2.8v0.2H681.2z M677.6,361c0.7,0,1.3-0.2,1.9-0.6c0.5-0.3,1-0.8,1.3-1.3v-2.6h-1.7
	c-2.6,0-4,0.7-4,2.3c0,0.6,0.3,1.2,0.7,1.6C676.3,360.8,676.9,361,677.6,361L677.6,361z"/>
<path d="M692.5,351.9h-1c-1.3-0.1-2.5,0.6-2.9,1.8v9h-2.2v-12.8h2.1v1.5c0.6-1.1,1.8-1.7,3-1.7c0.4,0,0.7,0,0.9,0.2L692.5,351.9z"/>
<path d="M698.7,359.4l3-9.5h2.3l-5.1,14.7c-0.8,2.1-2.1,3.1-3.8,3.1h-0.4l-0.8-0.2v-1.7h0.6c0.6,0,1.2-0.1,1.7-0.4
	c0.5-0.4,0.8-1,1-1.6l0.5-1.3l-4.5-12.6h2.3L698.7,359.4z"/>
<g>
	<defs>
		<path id="SVGID_1_" d="M375.2,270.1H387v42.3h-11.8V270.1z M363.4,270.1h11.9v42.3h-11.9V270.1z M351.4,270.1h12v42.3h-12V270.1z
			 M339.5,270.1h11.9v42.3h-11.9V270.1z M327.5,270.1h12v42.3h-12V270.1z M315.6,270.1h11.9v42.3h-11.9L315.6,270.1z M303.6,270.1
			h12v42.3h-12V270.1z"/>
	</defs>
	<clipPath id="SVGID_2_">
		<use xlink:href="#SVGID_1_"  style="overflow:visible;"/>
	</clipPath>
	<g class="st11">
		<g>
			<defs>
				<rect id="SVGID_3_" x="303.5" y="270" width="83.8" height="42.6"/>
			</defs>
			<clipPath id="SVGID_4_">
				<use xlink:href="#SVGID_3_"  style="overflow:visible;"/>
			</clipPath>
			<g class="st12">
				<g>
					<defs>
						<rect id="SVGID_5_" x="303.5" y="270" width="83.8" height="42.6"/>
					</defs>
					<clipPath id="SVGID_6_">
						<use xlink:href="#SVGID_5_"  style="overflow:visible;"/>
					</clipPath>
				</g>
			</g>
		</g>
	</g>
</g>
<rect x="303.5" y="270" class="st9" width="12" height="42.4"/>
<rect x="315.5" y="270" class="st9" width="11.9" height="42.4"/>
<rect x="327.4" y="270" class="st9" width="12" height="42.4"/>
<rect x="339.4" y="270" class="st9" width="11.9" height="42.4"/>
<rect x="351.3" y="270" class="st9" width="12" height="42.4"/>
<rect x="363.3" y="270" class="st9" width="11.9" height="42.4"/>
<rect x="375.1" y="270" class="st9" width="11.9" height="42.4"/>
<g>
	<defs>
		<path id="SVGID_7_" d="M277.8,270.1h2.2c0,1.3,1,2.3,2.3,2.3h63.1v2.2h-63.1c-2.4,0.1-4.4-1.9-4.5-4.3
			C277.7,270.2,277.7,270.2,277.8,270.1z M277.8,312.4h2.2c0-1.2,1-2.2,2.2-2.2c0,0,0.1,0,0.1,0h63.1v-2.3h-63.1
			c-2.4-0.1-4.4,1.9-4.5,4.3C277.7,312.3,277.7,312.3,277.8,312.4L277.8,312.4z M345.4,272.4h50.7c1.2,0.1,2.2-0.9,2.3-2.1
			c0-0.1,0-0.1,0-0.2h2.3c0,2.5-2,4.5-4.5,4.5c0,0-0.1,0-0.1,0h-50.7V272.4z M345.4,310.2h50.7c1.2-0.1,2.2,0.7,2.3,1.9
			c0,0.1,0,0.2,0,0.3h2.3c0-2.5-2-4.5-4.5-4.5c0,0-0.1,0-0.1,0h-50.7V310.2z"/>
	</defs>
	<clipPath id="SVGID_8_">
		<use xlink:href="#SVGID_7_"  style="overflow:visible;"/>
	</clipPath>
	<g class="st14">
		<g>
			<defs>
				<rect id="SVGID_9_" x="277.6" y="270" width="123.1" height="42.6"/>
			</defs>
			<clipPath id="SVGID_10_">
				<use xlink:href="#SVGID_9_"  style="overflow:visible;"/>
			</clipPath>
			<g class="st15">
				<g>
					<defs>
						<rect id="SVGID_11_" x="277.6" y="270" width="123.1" height="42.6"/>
					</defs>
					<clipPath id="SVGID_12_">
						<use xlink:href="#SVGID_11_"  style="overflow:visible;"/>
					</clipPath>
				</g>
			</g>
		</g>
	</g>
</g>
<path class="st9" d="M345.4,274.6h-63.1c-2.4,0.1-4.4-1.9-4.5-4.3c0-0.1,0-0.1,0-0.2 M277.8,270.1h2.2c0,1.3,1,2.3,2.3,2.3h63.1
	 M345.4,307.9h-63.1c-2.4-0.1-4.4,1.9-4.5,4.3c0,0.1,0,0.1,0,0.2 M277.8,312.4h2.2c0-1.2,1-2.2,2.2-2.2c0,0,0.1,0,0.1,0h63.1
	 M345.4,272.4h50.7c1.2,0.1,2.2-0.9,2.3-2.1c0-0.1,0-0.1,0-0.2h2.3c0,2.5-2,4.5-4.5,4.5c0,0-0.1,0-0.1,0h-50.7 M345.4,310.2h50.7
	c1.2-0.1,2.2,0.7,2.3,1.9c0,0.1,0,0.2,0,0.3h2.3c0-2.5-2-4.5-4.5-4.5c0,0-0.1,0-0.1,0h-50.7"/>
<path d="M353.5,279.5v11.6c0.1,1.5-0.5,2.9-1.5,4c-1.1,1.1-2.6,1.7-4.1,1.7h-0.6c-1.6,0.1-3.2-0.4-4.5-1.5c-1.1-1.1-1.7-2.6-1.7-4.1
	v-11.7h2.3v11.6c-0.1,1.1,0.3,2.1,1,2.9c1.7,1.3,4.1,1.3,5.8,0c0.7-0.8,1.1-1.8,1-2.9v-11.6H353.5z"/>
<path d="M367.4,290.4c0.1,1.7-0.4,3.3-1.3,4.7c-0.8,1.1-2.2,1.8-3.6,1.7c-1.4,0.1-2.7-0.4-3.6-1.4v6.1h-2.2v-17.6h2v1.4
	c1.8-2,4.9-2.1,6.9-0.3c0.1,0.1,0.3,0.3,0.4,0.4c0.9,1.4,1.4,3.1,1.3,4.8L367.4,290.4z M365.1,290.2c0.1-1.2-0.2-2.4-0.9-3.4
	c-0.5-0.9-1.5-1.3-2.5-1.3c-1.2,0-2.4,0.7-2.9,1.8v6c0.5,1.1,1.7,1.8,2.9,1.8c1,0,2-0.4,2.5-1.3
	C364.9,292.7,365.2,291.5,365.1,290.2z"/>
<line class="st9" x1="303.5" y1="291.2" x2="328.8" y2="291.2"/>
<path class="st10" d="M305,289.8l-2.9,3 M326,285.4l2.8,5.8l-2.8,5.9"/>
<path d="M152.3,287.4h-7.1v7.5h-2.3v-17h10.6v1.8h-8.3v5.8h7.1V287.4z"/>
<path d="M162,284.2h-1.1c-1.3-0.1-2.4,0.6-2.9,1.8v9h-2.1v-12.8h2.1v1.5c0.6-1.1,1.8-1.7,3-1.7l1,0.2V284.2z"/>
<path d="M163.4,288.5c0-1.2,0.3-2.3,0.8-3.4c0.4-1,1.1-1.8,2-2.3c0.9-0.5,1.9-0.8,3-0.8c1.6-0.1,3.1,0.6,4.2,1.8
	c1.1,1.4,1.7,3.1,1.6,4.8l0,0c0,1.1-0.2,2.3-0.7,3.3c-0.4,1-1.2,1.8-2.1,2.3c-0.9,0.6-1.9,0.9-3,0.9c-1.6,0.1-3.1-0.6-4.2-1.8
	C164,291.9,163.4,290.2,163.4,288.5z M165.6,288.7c-0.1,1.2,0.3,2.4,1,3.4c1.1,1.4,3.2,1.7,4.6,0.6c0.2-0.2,0.4-0.4,0.6-0.6
	c0.7-1.1,1.1-2.3,1-3.6c0.1-1.2-0.3-2.4-1-3.4c-0.6-0.9-1.6-1.3-2.6-1.3c-1-0.1-2,0.4-2.6,1.3C165.9,286.1,165.5,287.4,165.6,288.7
	L165.6,288.7z"/>
<path d="M179.8,282.2v1.5c1-1.1,2.3-1.7,3.8-1.7c1.5-0.2,2.9,0.6,3.6,2c0.4-0.6,1-1.1,1.7-1.4c0.7-0.4,1.6-0.6,2.4-0.6
	c2.7,0,4.2,1.5,4.2,4.4v8.5h-2.2v-8.3c0-0.7-0.2-1.5-0.6-2.1c-0.6-0.5-1.3-0.8-2.1-0.7c-0.7,0-1.5,0.3-2,0.8
	c-0.5,0.5-0.8,1.2-0.9,1.9v8.4h-2.2v-8.3c0-1.8-0.9-2.8-2.7-2.8c-1.3,0-2.4,0.7-2.9,1.9v9.2h-2.2v-12.7H179.8z"/>
<path d="M217.5,289.5c-0.2,3.3-3,5.9-6.3,5.7c-0.1,0-0.2,0-0.2,0c-1.9,0-3.6-0.8-4.8-2.2c-1.3-1.6-2-3.7-1.9-5.8v-1.7
	c0-1.4,0.3-2.8,0.9-4.1c0.5-1.1,1.4-2.1,2.4-2.8c1.1-0.7,2.3-1.1,3.6-1c1.6-0.1,3.2,0.5,4.4,1.5c1.1,1.1,1.8,2.6,1.9,4.2h-2.3
	c-0.1-1.1-0.5-2.1-1.3-2.9c-0.7-0.6-1.7-1-2.7-0.9c-1.3-0.1-2.6,0.5-3.4,1.6c-0.9,1.3-1.3,2.9-1.2,4.5v1.7c-0.1,1.6,0.3,3.1,1.2,4.4
	c0.7,1.1,1.9,1.7,3.2,1.6c1,0.1,2-0.2,2.9-0.8c0.8-0.8,1.2-1.9,1.3-3H217.5z"/>
<path d="M225.4,295.2c-1.6,0-3.1-0.6-4.2-1.7c-1.1-1.3-1.7-2.9-1.6-4.6v-0.4c0-1.1,0.2-2.3,0.7-3.3c0.5-0.9,1.2-1.8,2-2.4
	c0.8-0.5,1.8-0.8,2.8-0.8c1.5-0.1,2.9,0.5,3.9,1.6c1,1.4,1.4,3,1.3,4.7v0.9h-8.5c-0.1,1.1,0.3,2.2,1.1,3c0.6,0.8,1.6,1.2,2.6,1.2
	c0.7,0,1.4-0.2,2-0.5c0.5-0.3,1-0.7,1.4-1.2l1.3,1C229.2,294.3,227.4,295.3,225.4,295.2z M225.1,283.8c-0.8,0-1.6,0.3-2.2,0.9
	c-0.6,0.8-1,1.7-1.1,2.7h6.4c0-0.9-0.3-1.8-0.9-2.6C226.8,284.2,226,283.8,225.1,283.8z"/>
<path d="M235.3,294.9h-2.2v-18h2.2V294.9z"/>
<path d="M241.1,294.9h-2.2v-18h2.2V294.9z"/>
<path d="M252.4,294.9c-0.1-0.4-0.2-0.9-0.3-1.3c-0.9,1-2.2,1.6-3.6,1.6c-1.1,0-2.2-0.4-3.1-1.1c-0.8-0.7-1.2-1.7-1.2-2.7
	c0-1.2,0.5-2.4,1.5-3.1c1.3-0.8,2.7-1.2,4.2-1.1h2.1v-1c0-0.7-0.2-1.3-0.6-1.8c-0.6-0.4-1.3-0.6-2-0.6c-0.7,0-1.4,0.2-2,0.5
	c-0.5,0.3-0.8,0.9-0.8,1.5h-2.2c0-0.7,0.3-1.4,0.7-1.9c0.5-0.6,1.1-1,1.8-1.4c0.8-0.3,1.7-0.5,2.6-0.5c1.2-0.1,2.4,0.3,3.4,1.1
	c0.9,0.8,1.3,1.9,1.3,3v5.9c0,0.9,0.2,1.8,0.5,2.7v0.2L252.4,294.9z M248.8,293.3c0.7,0,1.3-0.2,1.9-0.6c0.6-0.3,1-0.7,1.3-1.3v-2.6
	h-1.7c-2.6,0-3.9,0.7-3.9,2.3c0,0.6,0.2,1.2,0.6,1.6C247.6,293.1,248.2,293.3,248.8,293.3L248.8,293.3z"/>
<path d="M263.9,284.2h-1.1c-1.3-0.1-2.4,0.6-2.9,1.8v9h-2.2v-12.8h2.1v1.5c0.6-1.1,1.8-1.7,3-1.7l1,0.2L263.9,284.2z"/>
<path d="M157.5,401.9c-0.6,0.8-1.4,1.5-2.4,1.9c-1.2,0.4-2.4,0.6-3.6,0.6c-1.3,0.1-2.6-0.3-3.7-1c-1.1-0.7-2-1.6-2.5-2.8
	c-0.6-1.3-0.9-2.7-0.9-4.2V395c-0.1-2.2,0.5-4.3,1.8-6c1.2-1.4,3.1-2.2,5-2.1c1.5-0.1,3.1,0.4,4.3,1.3c1.2,1,1.9,2.4,2,3.9h-2.2
	c-0.5-2.3-1.8-3.4-4.1-3.4c-1.3-0.1-2.6,0.5-3.4,1.6c-0.9,1.4-1.3,3-1.2,4.6v1.4c0,1.6,0.4,3.2,1.3,4.6c0.9,1.1,2.2,1.7,3.6,1.7
	c0.7,0,1.5-0.1,2.2-0.3c0.6-0.2,1.2-0.5,1.6-1v-3.8h-4v-1.8h6.2L157.5,401.9z"/>
<path d="M168.7,404.2c-0.1-0.5-0.2-0.9-0.3-1.4c-1.7,1.9-4.7,2.1-6.7,0.5c-1.5-1.4-1.6-3.7-0.2-5.2c0.2-0.2,0.3-0.3,0.5-0.5
	c1.3-0.8,2.8-1.2,4.3-1.1h2.1v-1c0.1-0.7-0.2-1.3-0.7-1.8c-0.5-0.5-1.3-0.8-2-0.7c-0.7,0-1.4,0.2-2,0.6c-0.5,0.3-0.7,0.8-0.7,1.4
	h-2.2c0-0.7,0.3-1.3,0.7-1.8c0.4-0.6,1.1-1.1,1.8-1.4c1.9-0.9,4.2-0.8,6,0.5c0.8,0.8,1.3,1.9,1.2,3.1v5.8c0,1,0.1,1.9,0.5,2.8v0.2
	H168.7z M165.1,402.5c0.7,0,1.4-0.2,2-0.5c0.6-0.3,1-0.8,1.3-1.4V398h-1.7c-2.7,0-4,0.8-4,2.3c0,0.6,0.2,1.2,0.7,1.6
	C163.9,402.3,164.5,402.5,165.1,402.5L165.1,402.5z"/>
<path d="M178.1,401.2l3.1-9.7h2.3l-4.6,12.7h-1.6l-4.6-12.7h2.2L178.1,401.2z"/>
<path d="M185.5,388.1c0-0.7,0.5-1.2,1.2-1.2c0,0,0.1,0,0.1,0c0.4,0,0.7,0.1,1,0.3c0.2,0.3,0.3,0.6,0.3,0.9c0,0.3-0.1,0.7-0.3,0.9
	c-0.3,0.2-0.6,0.3-1,0.3c-0.3,0-0.7-0.1-0.9-0.3C185.7,388.8,185.5,388.4,185.5,388.1z M187.9,404.2h-2.2v-12.7h2.2V404.2z"/>
<path d="M193.4,391.5v1.6c0.9-1.2,2.3-1.9,3.8-1.9c2.7,0,4.1,1.6,4.1,4.6v8.4h-2.2v-8.4c0-0.7-0.2-1.5-0.6-2.1
	c-0.5-0.4-1.2-0.6-1.9-0.6c-0.7,0-1.3,0.2-1.9,0.5c-0.5,0.4-0.9,0.9-1.2,1.5v9.1h-2.2v-12.7H193.4z"/>
<path d="M204.7,391.9l-1.2-0.8c0.7-1,1.1-2.1,1.1-3.3v-1.6h2.1v1.5c0,0.8-0.2,1.6-0.5,2.3C205.9,390.7,205.4,391.4,204.7,391.9z"/>
<path d="M216.7,400.8c0-0.6-0.2-1.1-0.7-1.4c-0.7-0.4-1.5-0.7-2.3-0.8c-0.9-0.1-1.8-0.5-2.6-0.9c-0.5-0.3-1-0.6-1.4-1.1
	c-0.3-0.5-0.5-1-0.5-1.6c0-1,0.5-2,1.3-2.7c1-0.7,2.2-1.1,3.4-1.1c1.3-0.1,2.5,0.4,3.5,1.2c0.9,0.7,1.4,1.7,1.3,2.8h-2.1
	c0-0.6-0.3-1.2-0.8-1.5c-0.5-0.5-1.2-0.7-1.9-0.7c-0.6,0-1.3,0.1-1.8,0.5c-0.5,0.3-0.7,0.8-0.7,1.4c0,0.5,0.2,0.9,0.6,1.2
	c0.7,0.3,1.4,0.6,2.2,0.7l2.7,0.9c0.6,0.3,1.1,0.7,1.5,1.2c0.9,1.5,0.5,3.5-0.9,4.5c-1,0.7-2.3,1.1-3.5,1c-0.9,0-1.8-0.2-2.7-0.5
	c-0.8-0.4-1.4-0.9-1.9-1.6c-0.4-0.6-0.6-1.3-0.6-2h2.1c0.1,0.7,0.4,1.3,0.9,1.7c0.7,0.4,1.4,0.6,2.2,0.6c0.7,0.1,1.4-0.1,1.9-0.5
	C216.4,401.8,216.7,401.3,216.7,400.8z"/>
<path d="M230.3,397.5v6.7H228v-17.1h6.3c1.6-0.1,3.1,0.4,4.4,1.4c1.1,1,1.7,2.4,1.6,3.8c0.1,1.5-0.5,2.9-1.6,3.8
	c-1.2,1-2.8,1.5-4.4,1.4L230.3,397.5z M230.3,395.6h4c1,0.1,2-0.2,2.8-0.8c0.6-0.7,1-1.6,0.9-2.5c0-0.9-0.3-1.8-0.9-2.4
	c-0.8-0.6-1.7-1-2.7-1h-4.1V395.6z"/>
<path d="M247.9,404.4c-1.6,0-3.1-0.6-4.2-1.7c-1.1-1.2-1.7-2.9-1.6-4.5v-0.4c0-1.2,0.2-2.3,0.7-3.4c0.4-1,1.2-1.8,2.1-2.3
	c2.1-1.4,4.9-1.1,6.6,0.8c1,1.3,1.5,2.9,1.4,4.6v0.9h-8.6c0,1.1,0.4,2.2,1.1,3.1c0.7,0.7,1.6,1.1,2.6,1.1c0.7,0,1.4-0.1,2-0.4
	c0.5-0.4,1-0.8,1.4-1.3l1.3,1C251.7,403.6,249.9,404.5,247.9,404.4z M247.7,393c-0.8,0-1.7,0.3-2.2,1c-0.7,0.7-1.1,1.7-1.1,2.7h6.3
	v-0.2c0-0.9-0.3-1.8-0.9-2.6C249.3,393.3,248.6,393,247.7,393z"/>
<path d="M261.6,393.4h-1.1c-1.3-0.1-2.5,0.7-2.9,1.9v9h-2.2v-12.8h2.1v1.4c0.6-1.1,1.8-1.7,3-1.7l1,0.2L261.6,393.4z"/>
<path d="M271,400.8c0-0.5-0.3-1.1-0.7-1.4c-0.7-0.4-1.5-0.7-2.3-0.8c-0.9-0.1-1.8-0.4-2.6-0.9c-0.6-0.3-1.1-0.6-1.5-1.1
	c-0.3-0.5-0.4-1-0.4-1.6c0-1.1,0.4-2.1,1.3-2.7c1-0.7,2.2-1.1,3.4-1.1c1.3-0.1,2.5,0.4,3.5,1.2c0.9,0.7,1.4,1.7,1.3,2.8h-2.2
	c0-0.6-0.2-1.1-0.7-1.5c-0.5-0.5-1.2-0.7-1.9-0.7c-0.7,0-1.3,0.2-1.9,0.5c-0.4,0.4-0.6,0.9-0.6,1.4c0,0.5,0.2,0.9,0.6,1.2
	c0.7,0.3,1.4,0.6,2.2,0.7l2.6,0.9c0.6,0.2,1.1,0.7,1.5,1.2c0.4,0.5,0.5,1.1,0.5,1.7c0.1,1.1-0.4,2.1-1.3,2.8c-1.1,0.7-2.3,1.1-3.6,1
	c-0.9,0-1.8-0.2-2.7-0.5c-0.7-0.4-1.3-0.9-1.8-1.6c-0.4-0.6-0.7-1.3-0.7-2h2.2c0,0.7,0.4,1.3,0.9,1.7c0.6,0.4,1.4,0.6,2.1,0.6
	c0.7,0.1,1.4-0.1,2-0.5C270.7,401.8,271,401.3,271,400.8z"/>
<path d="M275.5,397.7c0-1.2,0.2-2.3,0.7-3.4c0.5-0.9,1.2-1.6,2-2.2c0.9-0.6,1.9-0.9,3-0.9c1.6-0.1,3.1,0.6,4.2,1.8
	c1.1,1.3,1.7,3.1,1.6,4.8v0.2c0,1.1-0.2,2.3-0.7,3.3c-0.5,0.9-1.2,1.7-2,2.3c-0.9,0.5-2,0.8-3.1,0.8c-1.6,0.1-3.1-0.6-4.1-1.8
	c-1.1-1.3-1.7-3-1.6-4.7V397.7z M277.6,398c0,1.2,0.3,2.3,1,3.3c0.6,0.9,1.6,1.3,2.6,1.3c1.1,0,2.1-0.4,2.7-1.3
	c0.7-1.1,1-2.3,0.9-3.6c0.1-1.2-0.3-2.4-1-3.4c-0.6-0.8-1.6-1.3-2.6-1.3c-1,0-2,0.5-2.6,1.3C277.9,395.4,277.5,396.7,277.6,398
	L277.6,398z"/>
<path d="M291.8,391.5v1.6c0.9-1.2,2.3-1.9,3.8-1.9c2.7,0,4,1.6,4,4.6v8.4h-2.1v-8.4c0.1-0.8-0.2-1.5-0.7-2.1
	c-0.5-0.5-1.2-0.7-1.9-0.6c-0.6,0-1.3,0.2-1.8,0.5c-0.6,0.4-1,0.9-1.3,1.5v9.1h-2v-12.7H291.8z"/>
<path d="M310.6,404.2c-0.1-0.5-0.2-0.9-0.3-1.4c-0.9,1-2.2,1.6-3.6,1.6c-1.1,0-2.2-0.4-3.1-1.1c-1.5-1.4-1.6-3.7-0.2-5.2
	c0.2-0.2,0.3-0.3,0.5-0.5c1.3-0.8,2.8-1.2,4.3-1.1h2.1v-1c0-0.7-0.2-1.3-0.7-1.8c-0.5-0.5-1.3-0.8-2-0.7c-0.7,0-1.4,0.2-2,0.6
	c-0.5,0.3-0.7,0.8-0.7,1.4h-2.2c0-0.7,0.3-1.3,0.7-1.8c0.4-0.6,1.1-1.1,1.8-1.4c1.9-0.9,4.2-0.8,6,0.5c0.8,0.8,1.3,1.9,1.2,3.1v5.8
	c0,1,0.1,1.9,0.5,2.8v0.2H310.6z M307,402.5c0.7,0,1.3-0.2,1.9-0.5c0.6-0.3,1.1-0.8,1.4-1.4V398h-1.7c-2.7,0-4,0.8-4,2.3
	c0,0.6,0.2,1.2,0.7,1.6C305.8,402.3,306.4,402.5,307,402.5L307,402.5z"/>
<path d="M318.2,404.2h-2.1v-18h2.1V404.2z"/>
<path d="M340.6,398.7c-0.2,3.3-3,5.9-6.3,5.7c-0.1,0-0.2,0-0.2,0c-1.9,0.1-3.6-0.7-4.8-2.2c-1.3-1.7-1.9-3.7-1.8-5.8v-1.6
	c-0.1-1.4,0.2-2.9,0.8-4.2c0.5-1.1,1.4-2.1,2.4-2.8c1.1-0.6,2.3-0.9,3.6-0.9c3.2-0.3,6,2.1,6.3,5.3c0,0.1,0,0.3,0,0.4h-2.3
	c-0.1-1.1-0.5-2.2-1.2-3c-1.9-1.4-4.6-1.1-6.2,0.7c-0.9,1.3-1.3,2.9-1.2,4.5v1.7c-0.1,1.6,0.3,3.1,1.2,4.4c0.7,1.1,1.9,1.7,3.2,1.7
	c1,0.1,2.1-0.2,2.9-0.9c0.8-0.8,1.3-1.9,1.3-3L340.6,398.7z"/>
<path d="M345.5,393c0.9-1.2,2.3-1.8,3.8-1.8c2.6,0,4,1.6,4,4.6v8.4h-2.1v-8.4c0-0.8-0.3-1.5-0.7-2.1c-0.5-0.5-1.2-0.7-1.9-0.6
	c-0.6,0-1.3,0.2-1.8,0.5c-0.6,0.4-1,0.9-1.3,1.5v9.1h-2.1v-18h2.1V393z"/>
<path d="M364.5,404.2c-0.1-0.5-0.2-0.9-0.3-1.4c-0.9,1-2.2,1.6-3.6,1.6c-1.1,0-2.2-0.4-3.1-1.1c-1.5-1.4-1.6-3.7-0.2-5.2
	c0.2-0.2,0.3-0.3,0.5-0.5c1.2-0.8,2.7-1.2,4.2-1.1h2.2v-1c0-0.7-0.2-1.3-0.7-1.8c-0.5-0.5-1.3-0.8-2-0.7c-0.7,0-1.4,0.2-2,0.6
	c-0.5,0.3-0.8,0.8-0.8,1.4h-2.1c0-0.6,0.2-1.3,0.6-1.8c0.5-0.6,1.2-1.1,1.9-1.4c0.8-0.4,1.6-0.6,2.5-0.6c1.2-0.1,2.4,0.3,3.4,1.1
	c0.9,0.8,1.4,1.9,1.3,3.1v5.8c0,1,0.1,1.9,0.5,2.8v0.2H364.5z M360.9,402.5c0.7,0,1.3-0.2,1.9-0.5c0.6-0.3,1.1-0.8,1.4-1.4V398h-1.7
	c-2.7,0-4,0.8-4,2.3c0,0.6,0.2,1.2,0.7,1.6C359.6,402.3,360.2,402.5,360.9,402.5L360.9,402.5z"/>
<path d="M371.8,391.5v1.4c1-1.1,2.3-1.7,3.8-1.7c1.5-0.2,3,0.7,3.6,2.1c0.4-0.6,1-1.1,1.7-1.5c0.7-0.4,1.6-0.6,2.4-0.6
	c2.7,0,4.2,1.5,4.2,4.5v8.5h-2.2v-8.4c0.1-0.7-0.1-1.4-0.6-2c-0.6-0.5-1.3-0.8-2.1-0.7c-0.7,0-1.4,0.2-2,0.7
	c-0.5,0.5-0.8,1.2-0.9,1.9v8.5h-2.2v-8.4c0.2-1.3-0.7-2.5-2.1-2.7c-0.2,0-0.4,0-0.6,0c-1.3-0.1-2.4,0.6-2.9,1.8v9.3h-2.2v-12.7
	H371.8z"/>
<path d="M401.2,398c0.1,1.6-0.4,3.3-1.3,4.6c-0.8,1.2-2.2,1.8-3.6,1.8c-1.4,0.1-2.8-0.6-3.7-1.7v1.5h-2v-18h2.1v6.7
	c0.8-1.1,2.2-1.8,3.6-1.7c1.4,0,2.8,0.6,3.6,1.8c1,1.4,1.4,3.1,1.3,4.8V398z M399.1,397.7c0.1-1.2-0.2-2.4-0.9-3.4
	c-0.6-0.8-1.5-1.3-2.5-1.2c-1.3-0.1-2.6,0.7-3,2v5.5c0.5,1.2,1.8,2,3.1,2c1,0,1.9-0.5,2.4-1.3C398.9,400.2,399.2,399,399.1,397.7
	L399.1,397.7z"/>
<path d="M409.4,404.4c-1.6,0-3.1-0.6-4.2-1.7c-1.1-1.2-1.7-2.8-1.6-4.5v-0.4c0-1.2,0.2-2.3,0.7-3.4c0.4-0.9,1.1-1.7,2-2.3
	c0.8-0.6,1.8-0.9,2.8-0.9c1.5-0.1,2.9,0.6,3.9,1.7c1,1.3,1.5,2.9,1.4,4.6v0.9h-8.6c0,1.1,0.4,2.2,1.1,3.1c0.7,0.7,1.6,1.1,2.6,1.1
	c0.7,0,1.4-0.1,2-0.4c0.5-0.4,1-0.8,1.4-1.3l1.3,1C413.1,403.5,411.3,404.5,409.4,404.4z M409.1,393c-0.8,0-1.7,0.4-2.2,1
	c-0.6,0.8-1,1.7-1.1,2.7h6.4v-0.2c0-0.9-0.3-1.8-0.9-2.6C410.7,393.3,409.9,393,409.1,393L409.1,393z"/>
<path d="M423,393.4h-1c-1.3-0.1-2.5,0.7-2.9,1.9v9h-2.2v-12.8h2.1v1.4c0.6-1.1,1.8-1.7,3-1.7l0.9,0.2L423,393.4z"/>
<path d="M432.4,400.8c0-0.5-0.2-1-0.6-1.4c-0.7-0.4-1.5-0.7-2.3-0.8c-0.9-0.1-1.8-0.4-2.6-0.9c-0.6-0.2-1.1-0.6-1.5-1.1
	c-0.3-0.5-0.4-1-0.4-1.6c0-1.1,0.4-2.1,1.3-2.7c1-0.7,2.2-1.1,3.4-1.1c1.2-0.1,2.5,0.4,3.4,1.2c0.9,0.7,1.4,1.7,1.4,2.8h-2.2
	c0-0.6-0.2-1.1-0.7-1.5c-0.5-0.5-1.2-0.7-1.9-0.7c-0.7,0-1.3,0.1-1.9,0.5c-0.4,0.3-0.7,0.9-0.7,1.4c0,0.5,0.3,1,0.7,1.2
	c0.7,0.3,1.4,0.6,2.2,0.7l2.6,0.9c0.6,0.2,1.1,0.7,1.5,1.2c0.3,0.5,0.5,1.1,0.5,1.7c0.1,1.1-0.5,2.2-1.4,2.8c-1,0.7-2.3,1.1-3.5,1
	c-0.9,0-1.8-0.2-2.7-0.5c-0.8-0.3-1.4-0.9-1.8-1.6c-0.5-0.6-0.7-1.3-0.7-2h2.2c0,0.7,0.3,1.3,0.9,1.7c0.6,0.4,1.4,0.6,2.1,0.6
	c0.7,0.1,1.4-0.1,2-0.5C432.1,401.8,432.4,401.3,432.4,400.8z"/>
<polygon class="st17" points="274.6,314.6 506.8,314.6 511.2,319.1 270,319.1 "/>
<path class="st2" d="M270,319.2h241.2 M274.6,314.6h232.2"/>
<polygon class="st17" points="270,319.1 270.5,210.8 274.9,215.3 274.6,314.6 "/>
<path class="st2" d="M274.6,314.6l0.4-99.2 M270,319.2l0.5-108.4"/>
<polygon class="st17" points="506.8,314.6 506.8,100.8 511.2,100.8 511.2,319.1 "/>
<path class="st2" d="M511.2,319.2V100.9h-2.1 M506.9,314.6V100.9h2.3"/>
<rect x="506.8" y="151.6" class="st0" width="4.8" height="55.1"/>
<rect x="506.8" y="151.6" class="st5" width="4.8" height="55.1"/>
<path class="st6" d="M506.9,151.6h4.4v2.3h-4.4V151.6z M506.9,206.7h4.4v-2.1h-4.4V206.7z"/>
<path class="st7" d="M508,153.9h-1.1v-2.3 M506.9,151.6h4.4v2.3h-1.6 M507.9,204.6h-1.1v2.1 M506.8,206.7h4.4v-2.1h-1.6"/>
<path class="st6" d="M509.6,153.9v0.5h-1.7v-0.5H509.6z M509.6,204.6V204h-1.7v0.6H509.6z"/>
<path class="st7" d="M509.6,153.9v0.5h-1.7v-0.5 M509.6,204.6V204h-1.7v0.6"/>
<path class="st7" d="M506.9,151.6h4.4 M506.9,206.7h4.4"/>
<path class="st7" d="M511.2,153.9c28,0,50.7,22.7,50.7,50.7l0,0c0,5-0.7,9.9-2.2,14.6"/>
<polygon class="st6" points="560.2,217.5 511.8,202.8 511.2,204.5 559.8,219.2 "/>
<polygon class="st7" points="560.2,217.5 511.8,202.8 511.2,204.5 559.8,219.2 "/>
<path d="M86,142.9c-0.6,0.9-1.5,1.5-2.5,1.9c-1.2,0.4-2.4,0.6-3.6,0.6c-1.3,0-2.6-0.3-3.7-1c-1.1-0.7-2-1.6-2.5-2.8
	c-0.6-1.3-0.9-2.7-0.9-4.2v-1.5c-0.1-2.1,0.5-4.2,1.8-5.9c1.3-1.4,3.2-2.2,5.1-2.1c3.1-0.3,5.9,1.9,6.3,5c0,0.1,0,0.1,0,0.2h-2.3
	c-0.2-2-1.9-3.6-4-3.4c0,0,0,0,0,0c-1.4-0.1-2.7,0.5-3.5,1.6c-0.8,1.4-1.2,3-1.1,4.6v1.4c-0.1,1.6,0.4,3.2,1.3,4.5
	c0.8,1.1,2.1,1.8,3.5,1.7l2.2-0.2c0.6-0.1,1.2-0.5,1.6-1v-3.8h-3.9v-1.8H86V142.9z"/>
<path d="M97,145.1c-0.2-0.4-0.3-0.9-0.3-1.3c-0.9,1-2.2,1.6-3.6,1.6c-1.1,0-2.2-0.4-3-1.1c-1.5-1.4-1.6-3.7-0.2-5.2
	c0.2-0.2,0.3-0.3,0.5-0.5c1.2-0.8,2.7-1.2,4.2-1.1h2.1v-1c0.1-0.7-0.2-1.3-0.7-1.8c-0.5-0.5-1.3-0.8-2-0.7c-0.7,0-1.4,0.2-1.9,0.6
	c-0.5,0.3-0.8,0.8-0.8,1.4h-2.2c0-0.7,0.2-1.3,0.7-1.8c0.4-0.6,1.1-1.1,1.8-1.4c0.8-0.4,1.7-0.6,2.6-0.6c1.2-0.1,2.4,0.3,3.4,1.1
	c0.8,0.8,1.2,1.9,1.3,3v5.9c0,1,0.1,1.9,0.4,2.8H97V145.1z M93.4,143.5c0.7,0,1.4-0.2,2-0.5c0.6-0.3,1-0.8,1.3-1.4V139H95
	c-2.6,0-4,0.8-4,2.3c0,0.6,0.2,1.2,0.7,1.6C92.2,143.3,92.8,143.5,93.4,143.5z"/>
<path d="M106.3,142.2l3.2-9.7h2.2l-4.6,12.6h-1.6l-4.6-12.6h2.2L106.3,142.2z"/>
<path d="M113.6,129.1c0-0.3,0.1-0.6,0.3-0.9c0.6-0.4,1.4-0.4,2,0c0.2,0.3,0.3,0.6,0.3,0.9c0,0.3-0.1,0.7-0.3,0.9
	c-0.6,0.4-1.4,0.4-2,0C113.7,129.8,113.6,129.4,113.6,129.1z M116,145.1h-2.2v-12.6h2.2V145.1z"/>
<path d="M121.3,132.5v1.6c0.9-1.2,2.3-1.9,3.8-1.9c2.7,0,4,1.5,4.1,4.6v8.3H127v-8.3c0.1-0.7-0.2-1.5-0.6-2.1
	c-0.5-0.4-1.2-0.6-1.9-0.6c-0.7,0-1.3,0.2-1.9,0.5c-0.5,0.4-0.9,0.9-1.2,1.5v9h-2.2v-12.6H121.3z"/>
<path d="M132.5,132.9l-1.2-0.9c0.7-0.9,1.1-2,1.1-3.2v-1.7h2.2v1.6c0,0.8-0.2,1.6-0.6,2.3C133.7,131.7,133.2,132.4,132.5,132.9z"/>
<path d="M144.4,141.8c0-0.5-0.2-1.1-0.6-1.4c-0.7-0.4-1.6-0.7-2.4-0.8c-0.9-0.2-1.8-0.5-2.6-0.9c-0.5-0.3-1-0.6-1.4-1.1
	c-0.3-0.5-0.5-1.1-0.5-1.7c0-1,0.5-2,1.4-2.6c0.9-0.7,2.1-1.1,3.3-1.1c1.3-0.1,2.5,0.3,3.5,1.1c0.9,0.7,1.4,1.8,1.4,2.9h-2.2
	c0-0.6-0.3-1.2-0.8-1.5c-0.5-0.5-1.2-0.7-1.9-0.7c-0.6,0-1.3,0.1-1.8,0.5c-0.5,0.3-0.7,0.8-0.7,1.4c0,0.5,0.2,0.9,0.6,1.2
	c0.7,0.3,1.5,0.6,2.3,0.7l2.6,0.9c0.6,0.2,1.1,0.7,1.5,1.2c0.9,1.5,0.5,3.5-0.9,4.5c-1,0.7-2.3,1-3.5,1c-0.9,0-1.9-0.2-2.7-0.6
	c-0.8-0.3-1.4-0.8-1.8-1.5c-0.5-0.6-0.7-1.3-0.7-2.1h2.2c0,0.7,0.3,1.4,0.9,1.8c0.6,0.4,1.4,0.6,2.1,0.6c0.7,0,1.4-0.2,2-0.5
	C144.2,142.8,144.5,142.3,144.4,141.8z"/>
<path d="M157.7,138.5v6.6h-2.3v-17h6.3c1.6-0.1,3.1,0.4,4.4,1.4c1,1,1.6,2.4,1.6,3.8c0.1,1.5-0.5,2.9-1.6,3.8
	c-1.2,1-2.8,1.5-4.4,1.4H157.7z M157.7,136.6h4c1,0,2-0.2,2.8-0.8c0.6-0.7,1-1.6,0.9-2.5c0-0.9-0.3-1.8-0.9-2.4
	c-0.7-0.6-1.7-1-2.7-1h-4.1V136.6z"/>
<path d="M175.3,145.4c-1.6,0-3.1-0.6-4.2-1.7c-1.1-1.2-1.7-2.9-1.6-4.5v-0.4c0-1.2,0.2-2.3,0.7-3.4c0.4-0.9,1.1-1.7,2-2.3
	c0.8-0.6,1.9-0.9,2.9-0.9c1.5-0.1,2.9,0.6,3.8,1.7c1,1.3,1.5,2.9,1.4,4.6v0.9h-8.6c0,1.1,0.4,2.2,1.1,3.1c0.7,0.7,1.6,1.1,2.6,1.1
	c0.7,0.1,1.4-0.1,2-0.5c0.5-0.3,1-0.7,1.4-1.2l1.3,1C179.1,144.5,177.3,145.5,175.3,145.4z M175.1,134c-0.9,0-1.7,0.3-2.2,1
	c-0.6,0.7-1.1,1.6-1.2,2.6h6.4c0-0.9-0.3-1.8-0.9-2.6C176.7,134.4,176,134,175.1,134L175.1,134z"/>
<path d="M189,134.4h-1.1c-1.3-0.1-2.4,0.6-2.9,1.8v9h-2.2v-12.7h2.1v1.4c0.6-1.1,1.8-1.7,3-1.7l1,0.2L189,134.4z"/>
<path d="M198.4,141.8c0-0.6-0.3-1.1-0.7-1.4c-0.7-0.4-1.5-0.7-2.3-0.8c-0.9-0.2-1.8-0.5-2.6-0.9c-0.6-0.2-1.1-0.6-1.5-1.1
	c-0.3-0.5-0.4-1.1-0.4-1.7c0-1,0.5-2,1.3-2.6c1-0.7,2.2-1.1,3.4-1.1c1.3,0,2.5,0.4,3.5,1.1c0.9,0.7,1.3,1.8,1.3,2.9h-2.2
	c0-0.6-0.2-1.1-0.7-1.5c-0.5-0.5-1.2-0.7-1.9-0.7c-0.7,0-1.3,0.2-1.9,0.5c-0.4,0.3-0.7,0.9-0.7,1.4c0,0.5,0.3,0.9,0.7,1.2
	c0.7,0.3,1.4,0.6,2.2,0.7l2.6,0.9c0.6,0.2,1.1,0.7,1.5,1.2c0.4,0.5,0.5,1.1,0.5,1.7c0.1,1.1-0.4,2.1-1.3,2.8c-1.1,0.7-2.3,1-3.6,1
	c-0.9,0-1.9-0.2-2.7-0.6c-1.4-0.6-2.4-2-2.5-3.6h2.2c0,0.7,0.3,1.4,0.9,1.8c0.6,0.4,1.4,0.6,2.1,0.6c0.7,0,1.4-0.1,2-0.5
	C198.1,142.8,198.4,142.3,198.4,141.8z"/>
<path d="M202.7,138.7c0-1.2,0.3-2.3,0.8-3.4c0.4-0.9,1.1-1.7,2-2.3c0.9-0.5,1.9-0.8,3-0.8c1.6-0.1,3.1,0.6,4.2,1.8
	c1.1,1.3,1.7,3.1,1.6,4.8l0,0c0,1.2-0.2,2.3-0.7,3.4c-0.5,0.9-1.2,1.7-2,2.3c-0.9,0.5-2,0.8-3.1,0.8c-1.6,0.1-3.1-0.6-4.2-1.8
	C203.3,142.1,202.7,140.4,202.7,138.7z M204.9,138.9c-0.1,1.2,0.3,2.4,1,3.4c0.6,0.9,1.6,1.3,2.6,1.3c1,0.1,2-0.4,2.6-1.3
	c0.7-1,1.1-2.3,1-3.6c0.1-1.2-0.3-2.4-1-3.4c-0.6-0.9-1.6-1.4-2.6-1.3c-1,0-2,0.4-2.6,1.3C205.3,136.4,204.9,137.6,204.9,138.9
	L204.9,138.9z"/>
<path d="M219.1,132.5v1.6c0.9-1.2,2.3-2,3.8-1.9c2.7,0,4,1.5,4,4.6v8.3h-2.1v-8.3c0-0.8-0.2-1.5-0.7-2.1c-0.5-0.5-1.2-0.7-1.9-0.6
	c-0.6,0-1.3,0.2-1.8,0.5c-0.6,0.4-1,0.9-1.3,1.5v9H217v-12.6H219.1z"/>
<path d="M238,145.1c-0.2-0.4-0.3-0.9-0.3-1.3c-0.9,1-2.2,1.6-3.6,1.6c-1.1,0-2.2-0.4-3.1-1.1c-1.5-1.4-1.6-3.7-0.2-5.2
	c0.2-0.2,0.3-0.3,0.5-0.5c1.3-0.8,2.8-1.2,4.3-1.1h2.1v-1c0-0.7-0.2-1.3-0.7-1.8c-0.5-0.5-1.3-0.8-2-0.7c-0.7,0-1.4,0.2-2,0.6
	c-0.5,0.3-0.7,0.8-0.7,1.4h-2.2c0-0.6,0.2-1.3,0.6-1.8c0.5-0.6,1.2-1.1,1.9-1.4c0.8-0.4,1.6-0.6,2.5-0.6c1.2-0.1,2.4,0.3,3.4,1.1
	c0.9,0.8,1.3,1.9,1.3,3v5.9c0,1,0.2,1.9,0.5,2.8H238V145.1z M234.4,143.5c0.7,0,1.3-0.2,1.9-0.5c0.6-0.3,1.1-0.8,1.4-1.4V139H236
	c-2.7,0-4,0.8-4,2.3c0,0.6,0.2,1.2,0.7,1.6C233.2,143.3,233.8,143.5,234.4,143.5z"/>
<path d="M245.6,145.1h-2.2v-18h2.2V145.1z"/>
<path d="M268,139.7c-0.2,3.3-3,5.9-6.3,5.7c-0.1,0-0.2,0-0.2,0c-1.9,0.1-3.6-0.7-4.8-2.2c-1.3-1.6-2-3.7-1.9-5.8v-1.6
	c0-1.5,0.3-2.9,0.9-4.2c0.5-1.1,1.4-2.1,2.4-2.8c1.1-0.6,2.3-0.9,3.6-0.9c3.2-0.3,6,2.1,6.3,5.3c0,0.1,0,0.3,0,0.4h-2.3
	c-0.1-1.1-0.5-2.2-1.2-3c-1.9-1.4-4.6-1.1-6.2,0.7c-0.9,1.3-1.3,2.9-1.2,4.5v1.7c-0.1,1.6,0.3,3.1,1.2,4.4c0.7,1.1,1.9,1.7,3.2,1.6
	c1,0.1,2.1-0.2,2.9-0.8c0.8-0.8,1.2-1.9,1.3-3L268,139.7z"/>
<path d="M272.9,134c0.9-1.2,2.3-1.8,3.8-1.8c2.6,0,4,1.5,4,4.6v8.3h-2.2v-8.3c0.1-0.7-0.2-1.5-0.6-2.1c-0.5-0.5-1.2-0.7-1.9-0.6
	c-0.6,0-1.3,0.2-1.8,0.5c-0.6,0.4-1,0.9-1.3,1.5v9h-2.2v-18h2.2V134z"/>
<path d="M291.9,145.1c-0.2-0.4-0.3-0.9-0.3-1.3c-0.9,1-2.2,1.6-3.6,1.6c-1.1,0-2.2-0.4-3.1-1.1c-1.5-1.4-1.6-3.7-0.2-5.2
	c0.2-0.2,0.3-0.3,0.5-0.5c1.2-0.8,2.7-1.2,4.2-1.1h2.1v-1c0.1-0.7-0.2-1.3-0.6-1.8c-0.5-0.5-1.3-0.7-2-0.7c-0.7,0-1.4,0.2-2,0.6
	c-0.5,0.3-0.8,0.8-0.8,1.4H284c0-0.6,0.2-1.3,0.6-1.8c0.5-0.6,1.2-1.1,1.9-1.4c0.8-0.4,1.6-0.6,2.5-0.6c1.2-0.1,2.4,0.3,3.4,1.1
	c0.9,0.8,1.3,1.9,1.3,3v5.9c0,1,0.2,1.9,0.5,2.8h-2.3V145.1z M288.2,143.5c0.7,0,1.3-0.2,1.9-0.5c0.6-0.3,1-0.8,1.3-1.4V139h-1.7
	c-2.6,0-3.9,0.8-3.9,2.3c0,0.6,0.2,1.2,0.6,1.6C287,143.3,287.6,143.5,288.2,143.5z"/>
<path d="M299.1,132.5v1.4c1-1.1,2.3-1.7,3.8-1.7c1.5-0.2,3,0.7,3.6,2.1c0.4-0.6,1-1.1,1.7-1.5c0.7-0.4,1.6-0.6,2.4-0.6
	c2.7,0,4.2,1.5,4.2,4.5v8.4h-2.2v-8.3c0-0.7-0.2-1.5-0.6-2.1c-0.6-0.5-1.3-0.7-2.1-0.6c-0.7,0-1.4,0.2-2,0.7
	c-0.5,0.5-0.8,1.2-0.9,1.9v8.4h-2.2v-8.3c0.2-1.3-0.7-2.5-2.1-2.7c-0.2,0-0.4,0-0.6,0c-1.3-0.1-2.4,0.6-2.9,1.8v9.2H297v-12.6H299.1
	z"/>
<path d="M328.6,138.9c0.1,1.7-0.4,3.3-1.3,4.7c-0.8,1.2-2.2,1.8-3.6,1.8c-1.4,0.1-2.8-0.6-3.7-1.7v1.4h-2v-18h2.1v6.8
	c0.9-1.1,2.3-1.8,3.7-1.7c1.4,0,2.8,0.6,3.6,1.8c1,1.4,1.4,3.1,1.3,4.8L328.6,138.9z M326.4,138.7c0.1-1.2-0.2-2.4-0.8-3.4
	c-0.6-0.8-1.5-1.3-2.5-1.2c-1.4-0.1-2.6,0.7-3.1,2v5.5c0.6,1.2,1.8,2,3.2,1.9c0.9,0,1.8-0.4,2.4-1.2
	C326.3,141.2,326.6,140,326.4,138.7L326.4,138.7z"/>
<path d="M336.8,145.4c-1.6,0-3.1-0.6-4.2-1.7c-1.1-1.2-1.7-2.8-1.6-4.5v-0.4c0-1.2,0.2-2.3,0.7-3.4c0.4-0.9,1.1-1.7,2-2.3
	c0.8-0.6,1.8-0.9,2.8-0.9c1.5-0.1,2.9,0.6,3.9,1.7c1,1.3,1.4,3,1.3,4.6v0.9h-8.5c0,1.1,0.4,2.2,1.1,3.1c0.7,0.7,1.6,1.1,2.6,1.1
	c0.7,0.1,1.4-0.1,2-0.5c0.5-0.3,1-0.7,1.4-1.2l1.3,1C340.5,144.5,338.7,145.5,336.8,145.4z M336.5,134c-0.8,0-1.7,0.4-2.2,1
	c-0.6,0.7-1,1.6-1.1,2.6h6.4c0-0.9-0.3-1.8-0.9-2.6C338.1,134.4,337.3,134,336.5,134L336.5,134z"/>
<path d="M350.4,134.4h-1c-1.3-0.1-2.5,0.6-2.9,1.8v9h-2.2v-12.7h2.1v1.4c0.7-1.1,1.8-1.7,3.1-1.7l0.9,0.2V134.4z"/>
<path d="M359.8,141.8c0-0.5-0.2-1.1-0.6-1.4c-0.7-0.4-1.5-0.7-2.3-0.8c-0.9-0.2-1.8-0.5-2.7-0.9c-0.5-0.3-1-0.6-1.4-1.1
	c-0.3-0.5-0.4-1.1-0.4-1.7c0-1,0.5-2,1.3-2.6c0.9-0.7,2.1-1.1,3.3-1.1c1.3-0.1,2.5,0.3,3.5,1.1c0.9,0.7,1.4,1.8,1.4,2.9h-2.2
	c0-0.6-0.3-1.2-0.8-1.5c-0.5-0.5-1.2-0.7-1.9-0.7c-0.6,0-1.3,0.2-1.8,0.5c-0.5,0.3-0.7,0.8-0.7,1.4c0,0.5,0.2,0.9,0.6,1.2
	c0.7,0.3,1.5,0.6,2.3,0.7l2.6,0.9c0.6,0.2,1.1,0.7,1.5,1.2c0.9,1.5,0.5,3.5-0.9,4.5c-1,0.7-2.3,1-3.5,1c-0.9,0-1.9-0.2-2.7-0.6
	c-0.8-0.3-1.4-0.8-1.8-1.5c-0.5-0.6-0.7-1.3-0.7-2.1h2.2c0,0.7,0.3,1.4,0.9,1.8c0.6,0.4,1.4,0.6,2.1,0.6c0.7,0,1.4-0.2,2-0.5
	C359.5,142.8,359.8,142.3,359.8,141.8z"/>
<rect x="511.2" y="314.6" class="st8" width="348.4" height="4.6"/>
<rect x="510.9" y="314.6" class="st8" width="0.4" height="4.6"/>
<path class="st2" d="M511.2,319.2h348.4v-2.3 M511.2,314.6h348.4v2.3"/>
<rect x="641.3" y="314.4" class="st0" width="85.6" height="4.8"/>
<rect x="641.3" y="314.4" class="st5" width="85.6" height="4.8"/>
<path class="st6" d="M727,314.6v1h-2.3v-1H727z M641.4,314.6v1h2.3v-1H641.4z M641.4,319.2v-1h2.3v1H641.4z M727,319.2v-1h-2.3v1
	H727z"/>
<rect x="724.6" y="318.2" class="st7" width="2.3" height="1"/>
<rect x="641.3" y="318.2" class="st7" width="2.3" height="1"/>
<rect x="641.3" y="314.6" class="st7" width="2.3" height="1"/>
<rect x="724.6" y="314.6" class="st7" width="2.3" height="1"/>
<path class="st7" d="M641.3,319.2v-4.6 M726.9,319.2v-4.6"/>
<rect x="623.3" y="316" class="st0" width="40.6" height="1.7"/>
<rect x="623.3" y="316" class="st7" width="40.6" height="1.7"/>
<rect x="704.3" y="316" class="st0" width="40.6" height="1.7"/>
<rect x="704.3" y="316" class="st7" width="40.6" height="1.7"/>
<rect x="399.1" y="267.8" class="st0" width="4.7" height="45"/>
<rect x="399.1" y="267.8" class="st5" width="4.7" height="45"/>
<path class="st6" d="M399.4,267.8h4.4v2.3h-4.4V267.8z M399.4,312.8h4.4v-2.2h-4.4V312.8z"/>
<path class="st7" d="M400.5,270.1h-1.1v-2.3 M399.4,267.8h4.4v2.3H402 M400.4,310.6h-1.1v2.2 M399.3,312.8h4.4v-2.2H402"/>
<path class="st6" d="M402,270.1v0.6h-1.6v-0.6H402z M402,310.6V310h-1.6v0.6H402z"/>
<path class="st7" d="M402,270.1v0.6h-1.6v-0.6 M402,310.6V310h-1.6v0.6"/>
<path class="st7" d="M399.4,267.8h4.4 M399.4,312.8h4.4"/>
<path class="st7" d="M403.8,270.1c22.4-0.1,40.5,18,40.6,40.4c0,0,0,0.1,0,0.1c0,0.5,0,1.1-0.1,1.6"/>
<polygon class="st6" points="444.3,310.5 403.8,308.9 403.8,310.6 444.1,312.2 "/>
<polygon class="st7" points="444.3,310.5 403.8,308.9 403.8,310.6 444.1,312.2 "/>
<polygon class="st17" points="274.8,262.5 399.3,262.8 399.3,267.4 274.8,266.9 "/>
<polygon class="st17" points="274.8,266.9 274.8,262.5 274.3,262.4 274.3,266.9 "/>
<rect x="399.3" y="262.8" class="st8" width="0.4" height="4.6"/>
<path class="st2" d="M274.8,267l124.6,0.4 M274.9,262.5l124.5,0.4"/>
<rect x="399.1" y="216.8" class="st0" width="4.7" height="45"/>
<rect x="399.1" y="216.8" class="st5" width="4.7" height="45"/>
<path class="st6" d="M403.8,261.8h-4.4v-2.3h4.4V261.8z M403.8,216.8h-4.4v2.3h4.4V216.8z"/>
<rect x="399.3" y="216.8" class="st7" width="4.4" height="2.3"/>
<rect x="399.3" y="259.5" class="st7" width="4.4" height="2.3"/>
<path class="st7" d="M403.8,261.8h-4.4 M403.8,216.8h-4.4"/>
<polygon class="st17" points="270.5,210.8 399.3,210.8 399.3,215.3 274.9,215.3 "/>
<rect x="399.3" y="210.8" class="st8" width="0.4" height="4.6"/>
<path class="st2" d="M275,215.4h124.3 M270.5,210.8h128.8"/>
<rect x="399.1" y="151.6" class="st0" width="4.7" height="48.2"/>
<rect x="399.1" y="151.6" class="st5" width="4.7" height="48.2"/>
<path class="st6" d="M403.8,151.6h-4.4v2.3h4.4V151.6z M403.8,199.9h-4.4v-2.3h4.4V199.9z"/>
<path class="st7" d="M402.6,153.9h1.1v-2.3 M403.8,151.6h-4.4v2.3h1.7 M402.7,197.6h1.1v2.3 M403.8,199.9h-4.4v-2.3h1.7"/>
<path class="st6" d="M401,153.9v0.5h1.6v-0.5H401z M401,197.6v-0.5h1.6v0.5H401z"/>
<path class="st7" d="M401,153.9v0.5h1.6v-0.5 M401,197.6v-0.5h1.6v0.5"/>
<path class="st7" d="M403.8,151.6h-4.4 M403.8,199.9h-4.4"/>
<path class="st7" d="M399.4,153.9c-12.3,0-24.1,5.2-32.4,14.3"/>
<polygon class="st6" points="367.9,167 400.3,196.4 399.3,197.6 366.9,168.2 "/>
<polygon class="st7" points="367.9,167 400.3,196.4 399.3,197.6 366.9,168.2 "/>
<path d="M31.8,25.2c-0.6,0.8-1.4,1.5-2.4,1.9c-1.2,0.4-2.4,0.6-3.6,0.6c-1.3,0-2.7-0.3-3.8-1C21,26,20.1,25,19.5,23.9
	c-0.5-1.3-0.8-2.8-0.9-4.2v-1.5c-0.1-2.1,0.5-4.2,1.8-5.9c1.3-1.5,3.2-2.3,5.1-2.2c1.6-0.1,3.1,0.4,4.3,1.4c1.1,1,1.8,2.4,2,3.9
	h-2.3c-0.1-2-1.8-3.5-3.8-3.4c-0.1,0-0.2,0-0.2,0c-1.3-0.1-2.6,0.5-3.4,1.6c-0.9,1.4-1.3,3-1.2,4.6v1.4c-0.1,1.6,0.4,3.2,1.3,4.5
	c0.8,1.1,2.2,1.8,3.6,1.7l2.2-0.2c0.6-0.2,1.1-0.5,1.5-1v-3.8h-3.9v-1.9h6.2V25.2z"/>
<path d="M41.3,16.7h-1c-1.3-0.1-2.5,0.6-2.9,1.8v9h-2.2V14.8h2.1v1.4c0.7-1.1,1.8-1.7,3.1-1.7l0.9,0.2V16.7z"/>
<path d="M42.8,21c0-1.2,0.2-2.3,0.7-3.4c0.5-0.9,1.2-1.7,2-2.3c0.9-0.5,1.9-0.8,3-0.8c1.6-0.1,3.1,0.6,4.2,1.8
	c1.1,1.3,1.7,3.1,1.6,4.8l0,0c0,1.2-0.2,2.3-0.7,3.4c-0.5,0.9-1.2,1.7-2,2.3c-0.9,0.5-2,0.8-3.1,0.8c-1.6,0.1-3.1-0.6-4.1-1.8
	C43.3,24.5,42.7,22.7,42.8,21z M44.9,21.2c-0.1,1.2,0.3,2.4,1,3.4c0.6,0.8,1.6,1.3,2.6,1.3c1.1,0,2.1-0.4,2.7-1.3
	c0.7-1.1,1-2.3,0.9-3.6c0.1-1.2-0.3-2.4-0.9-3.4c-0.6-0.9-1.6-1.3-2.7-1.3c-1,0-2,0.5-2.6,1.3C45.3,18.7,44.9,19.9,44.9,21.2z"/>
<path d="M64.9,26.2c-0.9,1-2.3,1.6-3.7,1.5c-1.2,0.1-2.3-0.4-3.1-1.2c-0.8-1-1.2-2.2-1.1-3.5v-8.2h2.2V23c0,1.9,0.8,2.8,2.3,2.8
	c1.5,0,2.8-0.6,3.3-1.8v-9.2H67v12.6h-2L64.9,26.2z"/>
<path d="M72.2,14.8v1.6c0.9-1.2,2.3-1.9,3.8-1.9c2.7,0,4,1.5,4.1,4.6v8.3H78v-8.3c0.1-0.7-0.2-1.5-0.6-2.1c-0.6-0.5-1.3-0.7-2-0.6
	c-0.6,0-1.3,0.2-1.8,0.5c-0.5,0.4-0.9,0.9-1.2,1.5v9h-2.2V14.8H72.2z"/>
<path d="M83,21c-0.1-1.7,0.4-3.3,1.4-4.7c0.8-1.2,2.2-1.8,3.6-1.8c1.4-0.1,2.7,0.5,3.5,1.6V9.4h2.2v18h-2v-1.3
	c-0.9,1-2.2,1.6-3.6,1.6c-1.4,0-2.8-0.6-3.6-1.8c-1-1.4-1.5-3-1.4-4.7L83,21z M85.2,21.2c-0.1,1.2,0.2,2.4,0.9,3.4
	c0.5,0.8,1.4,1.3,2.4,1.2c1.3,0.1,2.5-0.6,3-1.8v-5.8c-0.5-1.2-1.7-1.9-3-1.8c-1-0.1-1.9,0.4-2.4,1.2C85.5,18.7,85.2,19.9,85.2,21.2
	z"/>
<path d="M112.7,19.9h-7.2v7.5h-2.2v-17h10.6v1.8h-8.4v5.9h7.2V19.9z"/>
<path d="M118.6,27.4h-2.2v-18h2.2V27.4z"/>
<path d="M121.5,21c0-1.2,0.2-2.3,0.7-3.4c0.5-0.9,1.2-1.7,2-2.3c0.9-0.5,1.9-0.8,3-0.8c1.6-0.1,3.1,0.6,4.2,1.8
	c1.1,1.3,1.7,3.1,1.6,4.8l0,0c0,1.2-0.2,2.3-0.7,3.4c-0.5,0.9-1.2,1.7-2,2.3c-0.9,0.5-2,0.8-3.1,0.8c-1.6,0.1-3.1-0.6-4.1-1.8
	C122,24.5,121.4,22.7,121.5,21z M123.6,21.2c-0.1,1.2,0.3,2.4,1,3.4c0.6,0.8,1.6,1.3,2.6,1.3c1.1,0,2.1-0.4,2.7-1.3
	c0.7-1.1,1-2.3,0.9-3.6c0.1-1.2-0.3-2.4-0.9-3.4c-0.6-0.9-1.6-1.3-2.7-1.3c-1,0-2,0.5-2.6,1.3C124,18.7,123.6,19.9,123.6,21.2z"/>
<path d="M135.2,21c0-1.2,0.2-2.3,0.7-3.4c0.5-0.9,1.2-1.7,2.1-2.3c0.9-0.5,1.9-0.8,3-0.8c1.6-0.1,3.1,0.6,4.1,1.8
	c1.1,1.3,1.7,3.1,1.6,4.8l0,0c0,1.2-0.2,2.3-0.7,3.4c-0.4,0.9-1.1,1.7-2,2.3c-0.9,0.5-1.9,0.8-3,0.8c-1.6,0.1-3.1-0.6-4.2-1.8
	C135.7,24.5,135.1,22.7,135.2,21L135.2,21z M137.4,21.2c-0.1,1.2,0.3,2.4,1,3.4c1,1.4,3,1.8,4.5,0.7c0.3-0.2,0.5-0.5,0.7-0.7
	c0.7-1,1.1-2.3,1-3.6c0-1.2-0.3-2.4-1-3.4c-0.6-0.9-1.6-1.3-2.6-1.3c-1-0.1-2,0.4-2.6,1.3C137.7,18.6,137.4,19.9,137.4,21.2z"/>
<path d="M155.4,16.7h-1c-1.3-0.1-2.5,0.6-2.9,1.8v9h-2.2V14.8h2.1v1.4c0.7-1.1,1.8-1.7,3.1-1.7l0.9,0.2L155.4,16.7z"/>
</svg>
