<?xml version="1.0" encoding="utf-8"?>
<!-- Generator: Adobe Illustrator 25.0.1, SVG Export Plug-In . SVG Version: 6.00 Build 0)  -->
<svg version="1.1" id="Layer_1" xmlns="http://www.w3.org/2000/svg" xmlns:xlink="http://www.w3.org/1999/xlink" x="0px" y="0px"
	 viewBox="0 0 880 600" style="enable-background:new 0 0 880 600;" xml:space="preserve">
<style type="text/css">
	.st0{fill:#FFFFFF;}
	.st1{fill-rule:evenodd;clip-rule:evenodd;fill:#BFBFBF;}
	.st2{fill:none;stroke:#000000;stroke-width:0.24;stroke-miterlimit:2;}
	.st3{fill-rule:evenodd;clip-rule:evenodd;fill:#9A9A9A;}
	.st4{fill-rule:evenodd;clip-rule:evenodd;}
	.st5{fill:none;stroke:#FFFFFF;stroke-width:0.24;stroke-linecap:round;stroke-linejoin:round;}
	.st6{fill-rule:evenodd;clip-rule:evenodd;fill:#FFFFFF;}
	.st7{fill:none;stroke:#000000;stroke-width:0.24;stroke-linecap:round;stroke-linejoin:round;}
	.st8{clip-path:url(#SVGID_2_);}
	.st9{clip-path:url(#SVGID_4_);}
	.st10{clip-path:url(#SVGID_6_);}
	.st11{fill:none;stroke:#595959;stroke-width:0.24;stroke-linecap:round;stroke-linejoin:round;}
	.st12{clip-path:url(#SVGID_8_);}
	.st13{clip-path:url(#SVGID_10_);}
	.st14{clip-path:url(#SVGID_12_);}
	.st15{clip-path:url(#SVGID_14_);}
	.st16{clip-path:url(#SVGID_16_);}
	.st17{clip-path:url(#SVGID_18_);}
	.st18{clip-path:url(#SVGID_20_);}
	.st19{clip-path:url(#SVGID_22_);}
	.st20{clip-path:url(#SVGID_24_);}
	.st21{fill-rule:evenodd;clip-rule:evenodd;fill:#B3B3B3;}
	.st22{fill:#B3B3B3;}
	.st23{fill:#F8F8F8;}
</style>
<rect class="st0" width="880" height="600"/>
<polygon class="st1" points="43,102 862,102 857.6,106.5 47.6,106.5 "/>
<path class="st2" d="M47.6,106.5h810 M43,102.1h819"/>
<polygon class="st1" points="862,102 862,516 857.6,511.5 857.6,106.5 "/>
<path class="st2" d="M857.6,106.5v405 M862,102.1v414"/>
<polygon class="st1" points="862,516 43,516 47.6,511.5 857.6,511.5 "/>
<path class="st2" d="M857.6,511.5h-810 M862,516.1H43"/>
<polygon class="st1" points="43,516 43,102 47.6,106.5 47.6,511.5 "/>
<path class="st2" d="M47.6,511.5v-405 M43,516.1v-414"/>
<path class="st3" d="M857.6,86.7L857.6,86.7z M47.6,86.7L47.6,86.7z"/>
<path class="st2" d="M47.6,86.7L47.6,86.7z"/>
<path class="st2" d="M857.6,86.7L857.6,86.7z"/>
<line class="st2" x1="452.6" y1="98.7" x2="53.2" y2="98.7"/>
<line class="st2" x1="452.6" y1="98.7" x2="851.9" y2="98.7"/>
<polygon class="st4" points="53.7,100.7 47.6,98.7 53.7,96.6 "/>
<polygon class="st4" points="851.5,96.6 857.6,98.7 851.5,100.7 "/>
<rect x="437.9" y="83.7" class="st0" width="29.3" height="12"/>
<path d="M447.9,75.6v1.9h-0.4c-1.5-0.1-2.9,0.5-4,1.5c-1.1,1.1-1.7,2.6-1.8,4.1c0.9-1.1,2.3-1.7,3.7-1.6c1.4-0.1,2.7,0.5,3.6,1.6
	c0.9,1.1,1.4,2.6,1.3,4c0.1,1.6-0.4,3.1-1.4,4.3c-1,1-2.4,1.6-3.9,1.5c-1.5,0-3-0.6-4-1.8c-1-1.4-1.6-3.1-1.5-4.9v-0.8
	c0-3.2,0.7-5.6,2-7.2c1.5-1.7,3.7-2.7,6-2.6H447.9z M445,83.3c-0.7,0-1.4,0.2-2,0.7c-0.6,0.4-1.1,1-1.3,1.7v0.8
	c-0.1,1.2,0.3,2.4,0.9,3.4c0.6,0.7,1.5,1.2,2.4,1.2c0.9,0.1,1.8-0.3,2.3-1c0.6-0.8,0.9-1.9,0.8-2.9c0.1-1-0.2-2-0.8-2.8
	C446.8,83.7,445.9,83.3,445,83.3L445,83.3z"/>
<path d="M463.6,85.4c0,2.6-0.4,4.5-1.3,5.7c-0.9,1.3-2.4,1.9-4,1.8c-1.6,0.1-3.1-0.5-4.1-1.8c-0.9-1.2-1.3-3-1.3-5.4v-2.9
	c-0.1-2,0.3-3.9,1.3-5.6c0.9-1.3,2.4-1.9,4-1.8c1.6-0.1,3.1,0.5,4.1,1.8c0.9,1.1,1.3,3,1.3,5.4V85.4z M461.5,82.5
	c0.1-1.4-0.2-2.8-0.8-4c-0.5-0.9-1.5-1.4-2.5-1.3c-1-0.1-1.9,0.4-2.4,1.2c-0.6,1.2-0.9,2.6-0.8,3.9v3.5c-0.1,1.4,0.2,2.8,0.8,4.1
	c0.6,0.8,1.5,1.3,2.5,1.3c1,0,1.8-0.5,2.3-1.3c0.6-0.8,0.8-2.1,0.9-3.9V82.5z"/>
<path d="M467.8,76l-0.2,4.3h-1.5v-5.6h1.7V76z"/>
<path d="M475.2,86.3h-5.7v-1.7h5.7V86.3z"/>
<path d="M487.8,85.4c0,2.6-0.4,4.5-1.3,5.7c-0.9,1.3-2.4,1.9-4,1.8c-1.6,0.1-3.1-0.6-4.1-1.8c-1-1.6-1.4-3.5-1.3-5.4v-2.9
	c-0.1-2,0.3-3.9,1.3-5.6c1-1.3,2.5-2,4.1-1.8c1.6-0.1,3.1,0.6,4,1.8c0.9,1.1,1.3,3,1.3,5.4V85.4z M485.7,82.5c0.1-1.4-0.2-2.8-0.8-4
	c-0.5-0.9-1.4-1.4-2.4-1.3c-1-0.1-2,0.4-2.5,1.2c-0.5,1.2-0.8,2.6-0.8,3.9v3.5c-0.1,1.4,0.2,2.8,0.8,4.1c0.6,0.8,1.5,1.3,2.5,1.3
	c1,0,1.9-0.5,2.4-1.3c0.6-1.2,0.8-2.6,0.8-3.9V82.5z"/>
<path d="M492.5,76.3l-0.3,4.2h-1.3v-5.8h1.6L492.5,76.3z M495.7,76.3l-0.4,4.2H494v-5.8h1.7V76.3z"/>
<path class="st3" d="M25.5,106.5L25.5,106.5z M25.5,511.5L25.5,511.5z"/>
<path class="st2" d="M25.5,511.5L25.5,511.5z"/>
<path class="st2" d="M25.5,106.5L25.5,106.5z"/>
<line class="st2" x1="37.5" y1="309" x2="37.5" y2="505.8"/>
<line class="st2" x1="37.5" y1="309" x2="37.5" y2="112.1"/>
<polygon class="st4" points="39.5,505.3 37.5,511.5 35.5,505.3 "/>
<polygon class="st4" points="35.5,112.6 37.5,106.5 39.5,112.6 "/>
<rect x="22.5" y="294.3" class="st0" width="12" height="29.4"/>
<path d="M21.9,319.3v-1.7c0.1-0.9-0.2-1.7-0.8-2.4c-0.5-0.6-1.3-0.9-2.1-0.9c-1.5-0.2-2.8,0.9-3,2.4c0,0.2,0,0.4,0,0.6
	c0,0.8,0.3,1.7,0.8,2.3c0.6,0.5,1.3,0.8,2.1,0.8v2.2c-1.3,0-2.5-0.5-3.3-1.5c-0.9-1-1.4-2.4-1.4-3.8c-0.1-1.4,0.4-2.7,1.3-3.8
	c1-0.9,2.3-1.4,3.6-1.3c0.8,0,1.5,0.2,2.1,0.7c0.7,0.5,1.2,1.1,1.6,1.9c0.3-0.8,0.7-1.5,1.4-2.1c0.8-0.5,1.7-0.8,2.6-0.8
	c1.4-0.1,2.7,0.5,3.6,1.5c0.9,1.1,1.4,2.5,1.4,3.9c0,1.4-0.4,2.8-1.3,3.9c-0.9,1-2.2,1.5-3.5,1.5v-2.2c0.8,0,1.6-0.3,2.2-0.8
	c1.1-1.4,1.1-3.4,0-4.8c-0.7-0.5-1.5-0.8-2.4-0.8c-0.9,0-1.7,0.3-2.3,0.9c-0.6,0.7-0.8,1.7-0.8,2.6v1.7L21.9,319.3z"/>
<path d="M24.2,298.2c2.6,0,4.5,0.4,5.7,1.3c1.3,0.9,2,2.4,1.9,4c0.1,1.6-0.6,3.1-1.9,4.1c-1.6,1-3.5,1.4-5.4,1.3h-2.9
	c-2.5,0-4.3-0.4-5.5-1.3c-1.3-0.9-2.1-2.5-1.9-4.1c-0.1-1.6,0.6-3.1,1.8-4c1.2-0.9,3-1.3,5.4-1.3H24.2z M21.3,300.3
	c-1.4-0.1-2.8,0.2-4,0.8c-0.9,0.5-1.4,1.4-1.3,2.4c-0.1,1,0.4,2,1.3,2.5c1.2,0.6,2.5,0.8,3.8,0.8h3.5c1.4,0.1,2.8-0.2,4.1-0.8
	c0.9-0.5,1.3-1.5,1.3-2.5c0-1-0.5-1.9-1.3-2.4c-1.2-0.6-2.6-0.9-3.9-0.8H21.3z"/>
<path d="M14.8,293.8l4.3,0.2v1.5h-5.6v-1.7H14.8z"/>
<path d="M25.2,286.4v5.7h-1.8v-5.7H25.2z"/>
<path d="M24.2,273.9c2-0.1,4,0.3,5.7,1.3c1.3,1,2,2.5,1.9,4.1c0.1,1.6-0.6,3.1-1.9,4.1c-1.6,1-3.5,1.4-5.4,1.3h-2.9
	c-2.5,0-4.3-0.4-5.5-1.3c-1.3-0.9-2-2.5-1.9-4.1c-0.1-1.6,0.6-3.1,1.8-4c1.2-0.9,3-1.3,5.4-1.4H24.2z M21.3,276.1
	c-1.4-0.1-2.8,0.2-4,0.8c-0.9,0.5-1.4,1.4-1.3,2.4c-0.1,1,0.4,2,1.3,2.5c1.2,0.6,2.5,0.8,3.8,0.7h3.5c1.4,0.1,2.8-0.2,4.1-0.8
	c0.9-0.5,1.4-1.4,1.3-2.4c0.1-1-0.4-1.9-1.3-2.4c-1.2-0.6-2.6-0.9-3.9-0.8L21.3,276.1z"/>
<path d="M15.1,266.1l4.2,0.4v1.3h-5.8v-1.6L15.1,266.1z M15.1,269.3l4.2,0.3v1.3h-5.8v-1.6L15.1,269.3z"/>
<rect x="857.5" y="382.1" class="st0" width="4.8" height="67.6"/>
<rect x="857.5" y="382.1" class="st5" width="4.8" height="67.6"/>
<path class="st6" d="M862,382.1h-4.4v2.3h4.4V382.1z M862,449.7h-4.4v-2.3h4.4V449.7z"/>
<path class="st7" d="M861,384.4h1v-2.3 M862,382.1h-4.4v2.3h1.1 M861,447.4h1v2.3 M862,449.7h-4.4v-2.3h1.1"/>
<path class="st6" d="M858.7,384.4v2.3h2.3v-2.3H858.7z M858.7,447.4v-2.3h2.3v2.3H858.7z"/>
<rect x="858.7" y="445.1" class="st7" width="2.3" height="2.3"/>
<rect x="858.7" y="384.4" class="st7" width="2.3" height="2.3"/>
<line class="st7" x1="859.9" y1="445.1" x2="859.9" y2="386.7"/>
<path class="st7" d="M862,382.1h-4.4 M862,449.7h-4.4"/>
<rect x="510.5" y="101.9" class="st0" width="67.4" height="4.7"/>
<rect x="510.5" y="101.9" class="st5" width="67.4" height="4.7"/>
<path class="st6" d="M578,106.5v-4.4h-2.2v4.4H578z M510.6,106.5v-4.4h2.2v4.4H510.6z"/>
<path class="st7" d="M575.8,105.4v1.1h2.2 M578,106.5v-4.4h-2.2v1 M512.8,105.4v1.1h-2.2 M510.6,106.5v-4.4h2.2v1"/>
<path class="st6" d="M575.8,103.1h-2.2v2.3h2.2V103.1z M512.8,103.1h2.2v2.3h-2.2V103.1z"/>
<rect x="512.8" y="103.1" class="st7" width="2.2" height="2.3"/>
<rect x="573.5" y="103.1" class="st7" width="2.3" height="2.3"/>
<line class="st7" x1="515" y1="104.2" x2="573.5" y2="104.2"/>
<path class="st7" d="M578,106.5v-4.4 M510.6,106.5v-4.4"/>
<rect x="857.5" y="156" class="st0" width="4.8" height="67.4"/>
<rect x="857.5" y="156" class="st5" width="4.8" height="67.4"/>
<path class="st6" d="M857.6,223.5h4.4v-2.3h-4.4V223.5z M857.6,156.1h4.4v2.1h-4.4V156.1z"/>
<path class="st7" d="M858.7,221.2h-1.1v2.3 M857.6,223.5h4.4v-2.3h-1 M858.7,158.2h-1.1v-2.1 M857.6,156.1h4.4v2.1h-1"/>
<path class="st6" d="M861,221.2v-2.1h-2.3v2.1H861z M861,158.2v2.3h-2.3v-2.3H861z"/>
<rect x="858.7" y="158.2" class="st7" width="2.3" height="2.3"/>
<rect x="858.7" y="219" class="st7" width="2.3" height="2.2"/>
<line class="st7" x1="859.9" y1="160.5" x2="859.9" y2="219"/>
<path class="st7" d="M857.6,223.5h4.4 M857.6,156.1h4.4"/>
<rect x="623.6" y="101.9" class="st0" width="67.4" height="4.7"/>
<rect x="623.6" y="101.9" class="st5" width="67.4" height="4.7"/>
<path class="st6" d="M623.6,102.1v4.4h2.3v-4.4H623.6z M691,102.1v4.4h-2.1v-4.4H691z"/>
<path class="st7" d="M625.9,103.1v-1h-2.3 M623.6,102.1v4.4h2.3v-1.1 M688.9,103.1v-1h2.1 M691,102.1v4.4h-2.1v-1.1"/>
<path class="st6" d="M625.9,105.4h2.1v-2.3h-2.1V105.4z M688.9,105.4h-2.3v-2.3h2.3V105.4z"/>
<rect x="686.6" y="103.1" class="st7" width="2.3" height="2.3"/>
<rect x="625.9" y="103.1" class="st7" width="2.2" height="2.3"/>
<line class="st7" x1="686.6" y1="104.2" x2="628" y2="104.2"/>
<path class="st7" d="M623.6,102.1v4.4 M691,102.1v4.4"/>
<rect x="99.9" y="101.9" class="st0" width="67.4" height="4.7"/>
<rect x="99.9" y="101.9" class="st5" width="67.4" height="4.7"/>
<path class="st6" d="M167.4,106.5v-4.4h-2.2v4.4H167.4z M99.9,106.5v-4.4h2.3v4.4H99.9z"/>
<path class="st7" d="M165.2,105.4v1.1h2.2 M167.4,106.5v-4.4h-2.2v1 M102.2,105.4v1.1h-2.3 M99.9,106.5v-4.4h2.3v1"/>
<path class="st6" d="M165.2,103.1h-2.3v2.3h2.3V103.1z M102.2,103.1h2.2v2.3h-2.2V103.1z"/>
<rect x="102.2" y="103.1" class="st7" width="2.2" height="2.3"/>
<rect x="162.9" y="103.1" class="st7" width="2.3" height="2.3"/>
<line class="st7" x1="104.3" y1="104.2" x2="162.9" y2="104.2"/>
<path class="st7" d="M167.4,106.5v-4.4 M99.9,106.5v-4.4"/>
<rect x="736.6" y="101.9" class="st0" width="67.6" height="4.7"/>
<rect x="736.6" y="101.9" class="st5" width="67.6" height="4.7"/>
<path class="st6" d="M736.6,102.1v4.4h2.3v-4.4H736.6z M804.2,102.1v4.4h-2.3v-4.4H804.2z"/>
<path class="st7" d="M738.9,103.1v-1h-2.3 M736.6,102.1v4.4h2.3v-1.1 M801.9,103.1v-1h2.3 M804.2,102.1v4.4h-2.3v-1.1"/>
<path class="st6" d="M738.9,105.4h2.3v-2.3h-2.3V105.4z M801.9,105.4h-2.3v-2.3h2.3V105.4z"/>
<rect x="799.6" y="103.1" class="st7" width="2.3" height="2.3"/>
<rect x="738.9" y="103.1" class="st7" width="2.3" height="2.3"/>
<line class="st7" x1="799.6" y1="104.2" x2="741.2" y2="104.2"/>
<path class="st7" d="M736.6,102.1v4.4 M804.2,102.1v4.4"/>
<rect x="326" y="101.9" class="st0" width="67.6" height="4.7"/>
<rect x="326" y="101.9" class="st5" width="67.6" height="4.7"/>
<path class="st6" d="M326,102.1v4.4h2.3v-4.4H326z M393.6,102.1v4.4h-2.3v-4.4H393.6z"/>
<path class="st7" d="M328.3,103.1v-1H326 M326,102.1v4.4h2.3v-1.1 M391.3,103.1v-1h2.3 M393.6,102.1v4.4h-2.3v-1.1"/>
<path class="st6" d="M328.3,105.4h2.3v-2.3h-2.3V105.4z M391.3,105.4H389v-2.3h2.3V105.4z"/>
<rect x="389" y="103.1" class="st7" width="2.3" height="2.3"/>
<rect x="328.3" y="103.1" class="st7" width="2.3" height="2.3"/>
<line class="st7" x1="389" y1="104.2" x2="330.5" y2="104.2"/>
<path class="st7" d="M326,102.1v4.4 M393.6,102.1v4.4"/>
<rect x="511" y="511.3" class="st0" width="67.6" height="4.8"/>
<rect x="511" y="511.3" class="st5" width="67.6" height="4.8"/>
<path class="st6" d="M578.6,516.1v-4.6h-2.3v4.6H578.6z M511,516.1v-4.6h2.3v4.6H511z"/>
<path class="st7" d="M576.3,514.9v1.2h2.3 M578.6,516.1v-4.6h-2.3v1.2 M513.3,514.9v1.2H511 M511,516.1v-4.6h2.3v1.2"/>
<path class="st6" d="M576.3,512.7H574v2.2h2.3V512.7z M513.3,512.7h2.3v2.2h-2.3V512.7z"/>
<rect x="513.3" y="512.7" class="st7" width="2.3" height="2.2"/>
<rect x="574" y="512.7" class="st7" width="2.3" height="2.2"/>
<line class="st7" x1="515.6" y1="513.7" x2="574" y2="513.7"/>
<path class="st7" d="M578.6,516.1v-4.6 M511,516.1v-4.6"/>
<rect x="326.6" y="511.3" class="st0" width="67.4" height="4.8"/>
<rect x="326.6" y="511.3" class="st5" width="67.4" height="4.8"/>
<path class="st6" d="M326.6,511.5v4.6h2.3v-4.6H326.6z M394,511.5v4.6h-2.1v-4.6H394z"/>
<path class="st7" d="M328.9,512.7v-1.2h-2.3 M326.6,511.5v4.6h2.3v-1.2 M391.9,512.7v-1.2h2.1 M394,511.5v4.6h-2.1v-1.2"/>
<path class="st6" d="M328.9,514.9h2.1v-2.2h-2.1V514.9z M391.9,514.9h-2.3v-2.2h2.3V514.9z"/>
<rect x="389.6" y="512.7" class="st7" width="2.3" height="2.2"/>
<rect x="328.9" y="512.7" class="st7" width="2.2" height="2.2"/>
<line class="st7" x1="389.6" y1="513.7" x2="331" y2="513.7"/>
<path class="st7" d="M326.6,511.5v4.6 M394,511.5v4.6"/>
<rect x="100.5" y="511.3" class="st0" width="67.4" height="4.8"/>
<rect x="100.5" y="511.3" class="st5" width="67.4" height="4.8"/>
<path class="st6" d="M168,516.1v-4.6h-2.3v4.6H168z M100.5,516.1v-4.6h2.2v4.6H100.5z"/>
<path class="st7" d="M165.7,514.9v1.2h2.3 M168,516.1v-4.6h-2.3v1.2 M102.7,514.9v1.2h-2.2 M100.5,516.1v-4.6h2.2v1.2"/>
<path class="st6" d="M165.7,512.7h-2.2v2.2h2.2V512.7z M102.7,512.7h2.3v2.2h-2.3V512.7z"/>
<rect x="102.7" y="512.7" class="st7" width="2.3" height="2.2"/>
<rect x="163.5" y="512.7" class="st7" width="2.2" height="2.2"/>
<line class="st7" x1="104.9" y1="513.7" x2="163.5" y2="513.7"/>
<path class="st7" d="M168,516.1v-4.6 M100.5,516.1v-4.6"/>
<rect x="737.2" y="511.3" class="st0" width="67.4" height="4.8"/>
<rect x="737.2" y="511.3" class="st5" width="67.4" height="4.8"/>
<path class="st6" d="M737.2,511.5v4.6h2.3v-4.6H737.2z M804.7,511.5v4.6h-2.2v-4.6H804.7z"/>
<path class="st7" d="M739.5,512.7v-1.2h-2.3 M737.2,511.5v4.6h2.3v-1.2 M802.5,512.7v-1.2h2.2 M804.7,511.5v4.6h-2.2v-1.2"/>
<path class="st6" d="M739.5,514.9h2.2v-2.2h-2.2V514.9z M802.5,514.9h-2.3v-2.2h2.3V514.9z"/>
<rect x="800.2" y="512.7" class="st7" width="2.3" height="2.2"/>
<rect x="739.5" y="512.7" class="st7" width="2.2" height="2.2"/>
<line class="st7" x1="800.2" y1="513.7" x2="741.7" y2="513.7"/>
<path class="st7" d="M737.2,511.5v4.6 M804.7,511.5v4.6"/>
<rect x="857.5" y="269.1" class="st0" width="4.8" height="67.4"/>
<rect x="857.5" y="269.1" class="st5" width="4.8" height="67.4"/>
<path class="st6" d="M862,269.1h-4.4v2.3h4.4V269.1z M862,336.5h-4.4v-2.1h4.4V336.5z"/>
<path class="st7" d="M861,271.4h1v-2.3 M862,269.1h-4.4v2.3h1.1 M861,334.4h1v2.1 M862,336.5h-4.4v-2.1h1.1"/>
<path class="st6" d="M858.7,271.4v2.1h2.3v-2.1H858.7z M858.7,334.4v-2.3h2.3v2.3H858.7z"/>
<rect x="858.7" y="332.1" class="st7" width="2.3" height="2.3"/>
<rect x="858.7" y="271.3" class="st7" width="2.3" height="2.2"/>
<line class="st7" x1="859.9" y1="332.1" x2="859.9" y2="273.5"/>
<path class="st7" d="M862,269.1h-4.4 M862,336.5h-4.4"/>
<rect x="212.9" y="101.9" class="st0" width="67.6" height="4.7"/>
<rect x="212.9" y="101.9" class="st5" width="67.6" height="4.7"/>
<path class="st6" d="M213,102.1v4.4h2.2v-4.4H213z M280.5,102.1v4.4h-2.3v-4.4H280.5z"/>
<path class="st7" d="M215.2,103.1v-1H213 M213,102.1v4.4h2.2v-1.1 M278.2,103.1v-1h2.3 M280.5,102.1v4.4h-2.3v-1.1"/>
<path class="st6" d="M215.2,105.4h2.3v-2.3h-2.3V105.4z M278.2,105.4H276v-2.3h2.2V105.4z"/>
<rect x="275.9" y="103.1" class="st7" width="2.3" height="2.3"/>
<rect x="215.2" y="103.1" class="st7" width="2.3" height="2.3"/>
<line class="st7" x1="275.9" y1="104.2" x2="217.5" y2="104.2"/>
<path class="st7" d="M213,102.1v4.4 M280.5,102.1v4.4"/>
<rect x="624.2" y="511.3" class="st0" width="67.4" height="4.8"/>
<rect x="624.2" y="511.3" class="st5" width="67.4" height="4.8"/>
<path class="st6" d="M624.2,511.5v4.6h2.2v-4.6H624.2z M691.6,511.5v4.6h-2.2v-4.6H691.6z"/>
<path class="st7" d="M626.4,512.7v-1.2h-2.2 M624.2,511.5v4.6h2.2v-1.2 M689.4,512.7v-1.2h2.2 M691.6,511.5v4.6h-2.2v-1.2"/>
<path class="st6" d="M626.4,514.9h2.2v-2.2h-2.2V514.9z M689.4,514.9h-2.2v-2.2h2.2V514.9z"/>
<rect x="687.2" y="512.7" class="st7" width="2.2" height="2.2"/>
<rect x="626.3" y="512.7" class="st7" width="2.3" height="2.2"/>
<line class="st7" x1="687.2" y1="513.7" x2="628.6" y2="513.7"/>
<path class="st7" d="M624.2,511.5v4.6 M691.6,511.5v4.6"/>
<rect x="213.5" y="511.3" class="st0" width="67.4" height="4.8"/>
<rect x="213.5" y="511.3" class="st5" width="67.4" height="4.8"/>
<path class="st6" d="M213.6,511.5v4.6h2.2v-4.6H213.6z M281,511.5v4.6h-2.2v-4.6H281z"/>
<path class="st7" d="M215.8,512.7v-1.2h-2.2 M213.6,511.5v4.6h2.2v-1.2 M278.8,512.7v-1.2h2.2 M281,511.5v4.6h-2.2v-1.2"/>
<path class="st6" d="M215.8,514.9h2.2v-2.2h-2.2V514.9z M278.8,514.9h-2.2v-2.2h2.2V514.9z"/>
<rect x="276.5" y="512.7" class="st7" width="2.3" height="2.2"/>
<rect x="215.8" y="512.7" class="st7" width="2.2" height="2.2"/>
<line class="st7" x1="276.5" y1="513.7" x2="218" y2="513.7"/>
<path class="st7" d="M213.6,511.5v4.6 M281,511.5v4.6"/>
<rect x="414.8" y="511.3" class="st0" width="72" height="4.8"/>
<rect x="414.8" y="511.3" class="st5" width="72" height="4.8"/>
<path class="st6" d="M414.8,516.1v-4.6h2.3v4.6H414.8z M486.8,516.1v-4.6h-2.3v4.6H486.8z"/>
<path class="st7" d="M417.1,514.9v1.2h-2.3 M414.8,516.1v-4.6h2.3v1.7 M484.5,514.9v1.2h2.3 M486.8,516.1v-4.6h-2.3v1.7"/>
<path class="st6" d="M417.1,513.2h0.5v1.7h-0.5V513.2z M484.5,513.2H484v1.7h0.5V513.2z"/>
<path class="st7" d="M417.1,513.2h0.5v1.7h-0.5 M484.5,513.2H484v1.7h0.5"/>
<path class="st7" d="M414.8,516.1v-4.6 M486.8,516.1v-4.6"/>
<path class="st7" d="M450.8,511.5c0-18.6-15.1-33.7-33.7-33.7c0,0,0,0,0,0"/>
<path class="st7" d="M450.8,511.5c0-18.6,15.1-33.7,33.7-33.7c0,0,0,0,0,0"/>
<rect x="417.1" y="477.7" class="st0" width="1.7" height="33.7"/>
<rect x="417.1" y="477.7" class="st7" width="1.7" height="33.7"/>
<rect x="482.8" y="477.7" class="st0" width="1.7" height="33.7"/>
<rect x="482.8" y="477.7" class="st7" width="1.7" height="33.7"/>
<rect x="418.9" y="101.9" class="st0" width="67.4" height="4.7"/>
<rect x="418.9" y="101.9" class="st5" width="67.4" height="4.7"/>
<path class="st6" d="M486.3,106.5v-4.4H484v4.4H486.3z M418.9,106.5v-4.4h2.1v4.4H418.9z"/>
<path class="st7" d="M484,105.4v1.1h2.3 M486.3,106.5v-4.4H484v1 M421,105.4v1.1h-2.1 M418.9,106.5v-4.4h2.1v1"/>
<path class="st6" d="M484,103.1h-2.1v2.3h2.1V103.1z M421,103.1h2.3v2.3H421V103.1z"/>
<rect x="421" y="103.1" class="st7" width="2.3" height="2.3"/>
<rect x="481.9" y="103.1" class="st7" width="2.2" height="2.3"/>
<line class="st7" x1="423.3" y1="104.2" x2="481.9" y2="104.2"/>
<path class="st7" d="M486.3,106.5v-4.4 M418.9,106.5v-4.4"/>
<g>
	<defs>
		<path id="SVGID_1_" d="M300,224.2h-11.9v42H300V224.2z M312,224.2h-12v42h12V224.2z M323.8,224.2H312v42h11.8V224.2z M335.8,224.2
			h-12v42h12V224.2z M347.7,224.2h-11.9v42h11.9L347.7,224.2z M359.7,224.2h-12v42h12L359.7,224.2z M371.6,224.2h-11.9v42h11.9
			L371.6,224.2z"/>
	</defs>
	<clipPath id="SVGID_2_">
		<use xlink:href="#SVGID_1_"  style="overflow:visible;"/>
	</clipPath>
	<g class="st8">
		<g>
			<defs>
				<rect id="SVGID_3_" x="288" y="224.1" width="83.8" height="42.2"/>
			</defs>
			<clipPath id="SVGID_4_">
				<use xlink:href="#SVGID_3_"  style="overflow:visible;"/>
			</clipPath>
			<g class="st9">
				<g>
					<defs>
						<rect id="SVGID_5_" x="288" y="224.1" width="83.8" height="42.2"/>
					</defs>
					<clipPath id="SVGID_6_">
						<use xlink:href="#SVGID_5_"  style="overflow:visible;"/>
					</clipPath>
				</g>
			</g>
		</g>
	</g>
</g>
<rect x="359.7" y="224.2" class="st11" width="11.9" height="42"/>
<rect x="347.7" y="224.2" class="st11" width="12" height="42"/>
<rect x="335.8" y="224.2" class="st11" width="11.9" height="42"/>
<rect x="323.8" y="224.2" class="st11" width="12" height="42"/>
<rect x="311.9" y="224.2" class="st11" width="11.9" height="42"/>
<rect x="299.9" y="224.2" class="st11" width="12" height="42"/>
<rect x="288.1" y="224.2" class="st11" width="11.9" height="42"/>
<g>
	<defs>
		<path id="SVGID_7_" d="M397.5,224.2h-2.3c0,1.2-1,2.2-2.2,2.3h-63.2v2.2H393C395.5,228.7,397.5,226.7,397.5,224.2z M397.5,266.2
			h-2.3c0-1.2-0.9-2.1-2.1-2.1c0,0-0.1,0-0.1,0h-63.2v-2.3H393C395.4,261.8,397.4,263.8,397.5,266.2z M329.8,226.5h-50.7
			c-1.3,0-2.3-1-2.3-2.3h-2.3c0.1,2.5,2.1,4.5,4.6,4.5h50.7L329.8,226.5z M329.8,264.1h-50.7c-1.2-0.1-2.2,0.9-2.3,2.1c0,0,0,0,0,0
			h-2.3c0.1-2.5,2.1-4.5,4.6-4.4c0,0,0,0,0,0h50.7L329.8,264.1z"/>
	</defs>
	<clipPath id="SVGID_8_">
		<use xlink:href="#SVGID_7_"  style="overflow:visible;"/>
	</clipPath>
	<g class="st12">
		<g>
			<defs>
				<rect id="SVGID_9_" x="274.4" y="224.1" width="123.2" height="42.2"/>
			</defs>
			<clipPath id="SVGID_10_">
				<use xlink:href="#SVGID_9_"  style="overflow:visible;"/>
			</clipPath>
			<g class="st13">
				<g>
					<defs>
						<rect id="SVGID_11_" x="274.4" y="224.1" width="123.2" height="42.2"/>
					</defs>
					<clipPath id="SVGID_12_">
						<use xlink:href="#SVGID_11_"  style="overflow:visible;"/>
					</clipPath>
				</g>
			</g>
		</g>
	</g>
</g>
<path class="st11" d="M329.8,228.7H393c2.5,0,4.5-2,4.5-4.5 M397.5,224.2h-2.3c0,1.2-1,2.2-2.2,2.3h-63.2 M329.8,261.8H393
	c2.4,0,4.4,2,4.5,4.4 M397.5,266.2h-2.3c0-1.2-0.9-2.1-2.1-2.1c0,0-0.1,0-0.1,0h-63.2 M329.8,226.5h-50.7c-1.3,0-2.3-1-2.3-2.3h-2.3
	c0.1,2.5,2.1,4.5,4.6,4.5h50.7 M329.8,264.1h-50.7c-1.2-0.1-2.2,0.9-2.3,2.1c0,0,0,0,0,0h-2.3c0.1-2.5,2.1-4.5,4.6-4.4c0,0,0,0,0,0
	h50.7"/>
<path d="M325.5,236.8v11.6c0.1,1.5-0.5,2.9-1.5,3.9c-1.1,1.1-2.6,1.7-4.1,1.7h-0.6c-1.6,0.1-3.3-0.5-4.5-1.6
	c-1.1-1.1-1.8-2.6-1.7-4.1v-11.5h2.3v11.5c-0.1,1.1,0.3,2.1,1,2.9c1.4,1.6,3.9,1.8,5.5,0.3c0.9-0.8,1.4-2,1.3-3.2v-11.5H325.5z"/>
<path d="M339.4,247.6c0,1.7-0.4,3.3-1.3,4.7c-0.8,1.2-2.2,1.8-3.6,1.8c-1.4,0.1-2.8-0.5-3.7-1.5v6.1h-2.1v-17.6h1.9l0.2,1.4
	c0.9-1.1,2.2-1.6,3.6-1.6c1.4-0.1,2.8,0.6,3.6,1.7c1,1.4,1.5,3.1,1.4,4.8V247.6z M337.2,247.4c0.1-1.2-0.2-2.4-0.9-3.4
	c-0.6-0.8-1.5-1.3-2.5-1.3c-1.3,0-2.4,0.7-3,1.8v6c0.6,1.1,1.7,1.8,3,1.8c1,0,1.9-0.5,2.5-1.3C337,249.9,337.3,248.7,337.2,247.4
	L337.2,247.4z"/>
<line class="st11" x1="371.6" y1="245.2" x2="346.3" y2="245.2"/>
<path class="st11" d="M370.2,243.8l2.8,2.9 M349.2,239.5l-2.9,5.7l2.9,5.9"/>
<path d="M424.5,243.6h-7.1v7.5h-2.3V234h10.6v1.9h-8.3v5.8h7.1L424.5,243.6z"/>
<path d="M434.2,240.4h-1.1c-1.3-0.1-2.4,0.6-2.9,1.8v9H428v-12.8h2.1v1.5c0.6-1.1,1.8-1.7,3-1.7c0.3,0,0.7,0,1,0.2L434.2,240.4z"/>
<path d="M435.6,244.6c0-1.1,0.2-2.3,0.7-3.3c0.4-1,1.2-1.8,2.1-2.3c0.9-0.5,1.9-0.8,3-0.8c1.6-0.1,3.1,0.6,4.1,1.8
	c1.1,1.3,1.7,3.1,1.6,4.8l0,0c0,1.1-0.2,2.3-0.7,3.3c-0.4,1-1.1,1.8-2,2.3c-0.9,0.6-1.9,0.8-3,0.8c-1.6,0.1-3.1-0.6-4.2-1.8
	c-1.1-1.3-1.7-3-1.6-4.7V244.6z M437.8,244.9c-0.1,1.2,0.3,2.4,1,3.4c1.1,1.4,3.2,1.7,4.6,0.6c0.2-0.2,0.4-0.4,0.6-0.6
	c0.7-1.1,1.1-2.4,1-3.7c0-1.2-0.3-2.3-1-3.3c-0.6-0.8-1.6-1.3-2.6-1.3c-1-0.1-2,0.4-2.6,1.3C438,242.3,437.7,243.6,437.8,244.9
	L437.8,244.9z"/>
<path d="M452,238.4v1.4c0.9-1.1,2.4-1.7,3.8-1.6c1.5-0.1,2.9,0.7,3.6,2c0.4-0.6,1-1.1,1.6-1.4c0.7-0.4,1.6-0.6,2.4-0.6
	c2.8,0,4.2,1.5,4.3,4.4v8.5h-2.2v-8.4c0-0.7-0.2-1.4-0.6-2c-0.6-0.5-1.3-0.8-2.1-0.7c-0.7,0-1.5,0.3-2,0.8c-0.5,0.5-0.8,1.2-0.9,1.9
	v8.4h-2.2v-8.3c0-1.8-0.9-2.8-2.7-2.8c-1.3-0.1-2.4,0.6-2.9,1.8v9.3h-2.2v-12.7H452z"/>
<path d="M489.7,248.9c-0.6,0.8-1.4,1.4-2.4,1.8c-1.2,0.4-2.4,0.6-3.6,0.6c-1.3,0-2.6-0.3-3.7-0.9c-1.1-0.7-1.9-1.7-2.5-2.8
	c-0.6-1.3-0.9-2.7-0.9-4.2v-1.5c-0.1-2.2,0.5-4.3,1.8-6c1.2-1.4,3.1-2.2,5-2.1c1.6-0.1,3.1,0.4,4.3,1.4c1.1,1,1.9,2.3,2,3.8h-2.2
	c-0.3-2-2.1-3.5-4.1-3.4c-1.3,0-2.6,0.5-3.4,1.6c-0.9,1.4-1.3,3-1.2,4.6v1.4c-0.1,1.6,0.4,3.2,1.3,4.6c0.9,1.1,2.2,1.7,3.6,1.7
	c0.7,0,1.5-0.1,2.2-0.3c0.6-0.2,1.1-0.5,1.6-0.9v-3.8h-4v-1.9h6.2V248.9z"/>
<path d="M499.2,240.4h-1c-1.3-0.1-2.4,0.6-2.9,1.8v9h-2.2v-12.8h2.1v1.5c0.6-1.1,1.8-1.7,3-1.7c0.4,0,0.7,0,0.9,0.2L499.2,240.4z"/>
<path d="M500.7,244.6c0-1.1,0.2-2.3,0.7-3.3c0.4-1,1.2-1.8,2.1-2.3c0.9-0.5,1.9-0.8,2.9-0.8c1.6-0.1,3.2,0.6,4.2,1.8
	c1.1,1.3,1.7,3.1,1.6,4.8l0,0c0,1.1-0.2,2.3-0.7,3.3c-0.4,1-1.1,1.8-2,2.3c-0.9,0.6-1.9,0.8-3,0.8c-1.6,0.1-3.1-0.6-4.2-1.8
	c-1.1-1.3-1.7-3-1.6-4.7V244.6z M502.9,244.9c-0.1,1.2,0.3,2.4,0.9,3.4c0.7,0.8,1.7,1.3,2.7,1.3c1,0,2-0.5,2.6-1.3
	c0.7-1.1,1-2.4,1-3.7c0-1.2-0.3-2.3-1-3.3c-0.6-0.9-1.6-1.3-2.7-1.3c-1,0-1.9,0.5-2.5,1.3C503.1,242.3,502.8,243.6,502.9,244.9
	L502.9,244.9z"/>
<path d="M522.8,249.9c-1,1-2.3,1.5-3.7,1.4c-1.1,0.1-2.3-0.3-3.1-1.1c-0.7-1-1.1-2.2-1.1-3.5v-8.3h2.2v8.2c0,1.9,0.8,2.9,2.4,2.9
	c1.4,0.1,2.7-0.6,3.3-1.9v-9.2h2.1v12.7h-2L522.8,249.9z"/>
<path d="M530.2,238.4v1.6c0.9-1.2,2.3-1.8,3.8-1.8c2.7,0,4.1,1.5,4.1,4.5v8.4h-2.2v-8.4c0.1-0.7-0.1-1.4-0.6-2
	c-0.5-0.5-1.2-0.7-1.9-0.7c-0.7,0-1.3,0.2-1.9,0.6c-0.5,0.4-0.9,0.9-1.2,1.5v9h-2.2v-12.7H530.2z"/>
<path d="M540.9,244.7c-0.1-1.7,0.4-3.3,1.4-4.7c1.6-2,4.6-2.4,6.6-0.8c0.2,0.1,0.3,0.3,0.5,0.5v-6.6h2.2v18h-2v-1.4
	c-1.7,1.9-4.7,2.1-6.6,0.4c-0.2-0.2-0.4-0.4-0.6-0.6c-1-1.4-1.5-3-1.4-4.7L540.9,244.7z M543.1,244.9c-0.1,1.2,0.2,2.4,0.9,3.4
	c0.6,0.8,1.5,1.2,2.4,1.2c1.3,0.1,2.5-0.7,3-1.9v-5.8c-0.5-1.1-1.7-1.8-2.9-1.8c-1,0-2,0.4-2.5,1.3
	C543.3,242.4,543,243.6,543.1,244.9z"/>
<path d="M570.6,243.6h-7.1v7.5h-2.3V234h10.6v1.9h-8.3v5.8h7.1V243.6z"/>
<path d="M576.5,251.1h-2.2v-18h2.2V251.1z"/>
<path d="M579.4,244.6c0-1.1,0.2-2.3,0.7-3.3c0.4-1,1.2-1.8,2.1-2.3c0.9-0.5,1.9-0.8,2.9-0.8c1.6-0.1,3.2,0.6,4.2,1.8
	c1.1,1.3,1.7,3.1,1.6,4.8l0,0c0,1.1-0.2,2.3-0.7,3.3c-0.4,1-1.1,1.8-2,2.3c-0.9,0.6-1.9,0.8-3,0.8c-1.6,0.1-3.1-0.6-4.2-1.8
	c-1.1-1.3-1.7-3-1.6-4.7V244.6z M581.6,244.9c-0.1,1.2,0.3,2.4,0.9,3.4c0.7,0.8,1.7,1.3,2.7,1.3c1,0,2-0.5,2.6-1.3
	c0.7-1.1,1-2.4,1-3.7c0-1.2-0.3-2.3-1-3.3c-0.6-0.9-1.6-1.3-2.7-1.3c-1,0-1.9,0.5-2.5,1.3C581.8,242.3,581.5,243.6,581.6,244.9
	L581.6,244.9z"/>
<path d="M593.1,244.6c0-1.1,0.3-2.3,0.8-3.3c0.4-1,1.1-1.8,2-2.3c0.9-0.5,1.9-0.8,3-0.8c1.6-0.1,3.1,0.6,4.2,1.8
	c1.1,1.4,1.7,3.1,1.6,4.8l0,0c0,1.1-0.3,2.3-0.7,3.3c-0.4,1-1.2,1.8-2.1,2.3c-0.9,0.6-1.9,0.9-3,0.8c-1.6,0.1-3.1-0.6-4.2-1.8
	c-1.1-1.3-1.7-3-1.6-4.7V244.6z M595.3,244.9c-0.1,1.2,0.3,2.4,1,3.4c1,1.4,3,1.8,4.5,0.7c0.3-0.2,0.5-0.5,0.7-0.7
	c0.7-1.1,1.1-2.4,1-3.7c0.1-1.2-0.3-2.4-1-3.3c-1-1.4-3-1.8-4.5-0.7c-0.3,0.2-0.5,0.5-0.7,0.7C595.5,242.3,595.2,243.6,595.3,244.9
	L595.3,244.9z"/>
<path d="M613.3,240.4h-1c-1.3-0.1-2.4,0.6-2.9,1.8v9h-2.2v-12.8h2.1v1.5c0.6-1.1,1.8-1.7,3-1.7c0.4,0,0.7,0,0.9,0.2L613.3,240.4z"/>
<g>
	<defs>
		<path id="SVGID_13_" d="M373.2,275.7H385v42.4h-11.8V275.7z M361.3,275.7h11.9v42.4h-11.9V275.7z M349.3,275.7h12v42.4h-12V275.7z
			 M337.4,275.7h11.9v42.4h-11.9V275.7z M325.4,275.7h12v42.4h-12V275.7z M313.5,275.7h11.9v42.4h-11.9L313.5,275.7z M301.5,275.7
			h12v42.4h-12V275.7z"/>
	</defs>
	<clipPath id="SVGID_14_">
		<use xlink:href="#SVGID_13_"  style="overflow:visible;"/>
	</clipPath>
	<g class="st15">
		<g>
			<defs>
				<rect id="SVGID_15_" x="301.4" y="275.6" width="83.8" height="42.6"/>
			</defs>
			<clipPath id="SVGID_16_">
				<use xlink:href="#SVGID_15_"  style="overflow:visible;"/>
			</clipPath>
			<g class="st16">
				<g>
					<defs>
						<rect id="SVGID_17_" x="301.4" y="275.6" width="83.8" height="42.6"/>
					</defs>
					<clipPath id="SVGID_18_">
						<use xlink:href="#SVGID_17_"  style="overflow:visible;"/>
					</clipPath>
				</g>
			</g>
		</g>
	</g>
</g>
<rect x="301.5" y="275.7" class="st11" width="12" height="42.4"/>
<rect x="313.5" y="275.7" class="st11" width="11.9" height="42.4"/>
<rect x="325.4" y="275.7" class="st11" width="12" height="42.4"/>
<rect x="337.4" y="275.7" class="st11" width="11.9" height="42.4"/>
<rect x="349.3" y="275.7" class="st11" width="12" height="42.4"/>
<rect x="361.3" y="275.7" class="st11" width="11.9" height="42.4"/>
<rect x="373.1" y="275.7" class="st11" width="11.9" height="42.4"/>
<g>
	<defs>
		<path id="SVGID_19_" d="M275.7,275.7h2.2c0,1.3,1,2.3,2.3,2.3h63.1v2.3h-63.1c-2.5,0-4.5-2-4.5-4.5
			C275.7,275.8,275.7,275.7,275.7,275.7z M275.7,318.1h2.2c0-1.3,1-2.3,2.3-2.3h63.1v-2.3h-63.1c-2.4-0.1-4.4,1.9-4.5,4.3
			C275.7,317.9,275.7,318,275.7,318.1z M343.3,278H394c1.2,0.1,2.2-0.9,2.3-2.1c0-0.1,0-0.1,0-0.2h2.3c0,2.5-2.1,4.6-4.6,4.6l0,0
			h-50.7V278z M343.3,315.8H394c1.2-0.1,2.2,0.9,2.3,2.1c0,0.1,0,0.1,0,0.2h2.3c0.1-2.5-1.9-4.5-4.4-4.6c-0.1,0-0.1,0-0.2,0h-50.7
			V315.8z"/>
	</defs>
	<clipPath id="SVGID_20_">
		<use xlink:href="#SVGID_19_"  style="overflow:visible;"/>
	</clipPath>
	<g class="st18">
		<g>
			<defs>
				<rect id="SVGID_21_" x="275.6" y="275.6" width="123.1" height="42.6"/>
			</defs>
			<clipPath id="SVGID_22_">
				<use xlink:href="#SVGID_21_"  style="overflow:visible;"/>
			</clipPath>
			<g class="st19">
				<g>
					<defs>
						<rect id="SVGID_23_" x="275.6" y="275.6" width="123.1" height="42.6"/>
					</defs>
					<clipPath id="SVGID_24_">
						<use xlink:href="#SVGID_23_"  style="overflow:visible;"/>
					</clipPath>
				</g>
			</g>
		</g>
	</g>
</g>
<path class="st11" d="M343.3,280.3h-63.1c-2.5,0-4.5-2-4.5-4.5c0,0,0-0.1,0-0.1 M275.7,275.7h2.2c0,1.3,1,2.3,2.3,2.3h63.1
	 M343.3,313.5h-63.1c-2.4-0.1-4.4,1.9-4.5,4.3c0,0.1,0,0.2,0,0.3 M275.7,318.1h2.2c0-1.3,1-2.3,2.3-2.3h63.1 M343.3,278H394
	c1.2,0.1,2.2-0.9,2.3-2.1c0-0.1,0-0.1,0-0.2h2.3c0,2.5-2.1,4.6-4.6,4.6l0,0h-50.7 M343.3,315.8H394c1.2-0.1,2.2,0.9,2.3,2.1
	c0,0.1,0,0.1,0,0.2h2.3c0.1-2.5-1.9-4.5-4.4-4.6c-0.1,0-0.1,0-0.2,0h-50.7"/>
<path d="M354.3,285.2v11.6c0.1,1.5-0.5,2.9-1.5,3.9c-1.1,1.1-2.6,1.7-4.1,1.7h-0.6c-1.7,0.1-3.3-0.5-4.5-1.6c-1.2-1-1.8-2.5-1.7-4.1
	v-11.5h2.3v11.5c0,2.2,1.7,3.9,3.9,3.9c2.2,0,3.9-1.7,3.9-3.9c0,0,0,0,0,0v-11.5H354.3z"/>
<path d="M368.2,296c0.1,1.7-0.4,3.3-1.3,4.7c-0.8,1.2-2.2,1.8-3.6,1.8c-1.4,0.1-2.8-0.5-3.7-1.5v6.1h-2.1v-17.6h1.9l0.2,1.5
	c0.8-1.1,2.2-1.8,3.6-1.7c1.4-0.1,2.8,0.6,3.6,1.7c1,1.4,1.5,3.1,1.4,4.8V296z M366,295.8c0.1-1.2-0.2-2.4-0.9-3.4
	c-0.6-0.8-1.5-1.2-2.5-1.2c-1.2-0.1-2.4,0.6-3,1.7v6.1c0.6,1.1,1.8,1.7,3,1.7c1,0,1.9-0.4,2.5-1.2
	C365.8,298.4,366.1,297.1,366,295.8z"/>
<line class="st11" x1="301.5" y1="296.8" x2="326.8" y2="296.8"/>
<path class="st11" d="M303,295.4l-2.9,3 M324,291.1l2.8,5.7l-2.8,5.9"/>
<path d="M426.9,287.5h-5.5v15.2h-2.2v-15.2h-5.5v-1.9h13.2V287.5z"/>
<path d="M428.6,296.2c0-1.1,0.2-2.3,0.7-3.3c0.4-0.9,1.1-1.7,2-2.3c0.9-0.5,1.9-0.8,3-0.8c1.6-0.1,3.1,0.6,4.2,1.8
	c1.1,1.3,1.7,3.1,1.6,4.8l0,0c0,1.1-0.2,2.3-0.7,3.3c-0.4,0.9-1.1,1.7-2,2.3c-0.9,0.6-2,0.9-3.1,0.8c-1.6,0.1-3.1-0.6-4.1-1.8
	C429.1,299.7,428.5,298,428.6,296.2L428.6,296.2z M430.7,296.5c0,1.2,0.3,2.4,1,3.4c0.6,0.8,1.6,1.3,2.6,1.3c1,0,2-0.5,2.7-1.3
	c0.7-1.1,1-2.4,0.9-3.7c0.1-1.2-0.3-2.4-1-3.3c-0.6-0.9-1.6-1.4-2.6-1.3c-1,0-2,0.4-2.6,1.3C431,294,430.6,295.2,430.7,296.5z"/>
<path d="M454,295.1c-1.5-0.4-2.9-1.1-4.2-2c-1.7-1.7-1.7-4.4-0.1-6.1c0.1-0.1,0.2-0.2,0.4-0.3c1.2-0.9,2.7-1.4,4.2-1.3
	c1.1,0,2.1,0.2,3.1,0.7c1.8,0.8,2.9,2.6,2.9,4.5h-2.2c0-0.9-0.3-1.8-1-2.5c-0.8-0.6-1.8-1-2.8-0.9c-0.9,0-1.9,0.2-2.6,0.8
	c-0.6,0.5-0.9,1.2-0.9,2c0,0.7,0.3,1.4,0.9,1.8c0.9,0.6,1.9,1.1,3,1.3c1.2,0.3,2.3,0.7,3.3,1.3c0.7,0.4,1.3,1,1.8,1.7
	c0.4,0.7,0.6,1.5,0.6,2.3c0,1.3-0.6,2.6-1.7,3.3c-1.3,0.9-2.8,1.3-4.3,1.2c-1.1,0-2.2-0.2-3.3-0.6c-0.9-0.4-1.7-1.1-2.3-1.9
	c-0.6-0.7-0.8-1.7-0.8-2.6h2.2c0,0.9,0.4,1.8,1.2,2.4c0.9,0.6,1.9,1,3,0.9c1,0.1,2-0.2,2.8-0.7c0.6-0.5,0.9-1.2,0.9-2
	c0-0.7-0.3-1.5-0.9-1.9C456.2,295.8,455.2,295.3,454,295.1z"/>
<path d="M468.2,302.9c-1.6,0.1-3.1-0.5-4.2-1.7c-1.1-1.2-1.7-2.8-1.6-4.5v-0.4c0-1.1,0.2-2.3,0.7-3.3c0.4-1,1.1-1.8,2-2.4
	c0.8-0.5,1.8-0.8,2.8-0.8c1.4-0.1,2.9,0.5,3.8,1.6c1,1.3,1.5,3,1.4,4.7v0.9h-8.6c0,1.1,0.4,2.1,1.1,3c0.7,0.8,1.7,1.2,2.7,1.2
	c0.7,0,1.3-0.2,1.9-0.5c0.6-0.3,1-0.7,1.4-1.2l1.3,1C471.9,302.1,470.1,303,468.2,302.9z M467.9,291.6c-0.8,0-1.6,0.3-2.2,0.9
	c-0.6,0.8-1,1.7-1.1,2.7h6.3V295c0-0.9-0.2-1.8-0.8-2.5C469.5,291.9,468.7,291.6,467.9,291.6z"/>
<path d="M480.8,301.2c0.7,0,1.4-0.3,2-0.7c0.6-0.4,0.9-1.1,0.9-1.8h2.1c0,0.8-0.3,1.5-0.8,2.1c-0.5,0.7-1.1,1.2-1.8,1.6
	c-0.8,0.3-1.6,0.5-2.4,0.5c-1.6,0.1-3.1-0.5-4.2-1.7c-1.1-1.3-1.6-3-1.5-4.7v-0.4c0-1.1,0.2-2.3,0.7-3.3c0.4-0.9,1.1-1.7,1.9-2.2
	c0.9-0.5,1.9-0.8,3-0.8c1.3-0.1,2.6,0.4,3.6,1.3c0.9,0.9,1.5,2,1.5,3.3h-2.1c-0.1-1.6-1.4-2.9-3-2.8c0,0,0,0,0,0
	c-1-0.1-1.9,0.4-2.5,1.2c-0.7,1-1,2.2-0.9,3.4v0.4c-0.1,1.2,0.2,2.4,0.9,3.4C478.8,300.8,479.8,301.3,480.8,301.2z"/>
<path d="M487.6,296.2c0-1.1,0.3-2.3,0.7-3.3c0.4-1,1.2-1.8,2.1-2.3c0.9-0.5,1.9-0.8,3-0.8c1.6-0.1,3.1,0.6,4.2,1.8
	c1.1,1.4,1.7,3.1,1.6,4.8l0,0c0,1.1-0.3,2.3-0.8,3.3c-0.4,1-1.1,1.8-2,2.3c-0.9,0.6-1.9,0.8-3,0.8c-1.6,0.1-3.1-0.6-4.2-1.8
	C488.1,299.7,487.5,298,487.6,296.2L487.6,296.2z M489.8,296.5c-0.1,1.2,0.3,2.4,1,3.4c1.1,1.4,3.2,1.7,4.6,0.6
	c0.2-0.2,0.4-0.4,0.6-0.6c0.7-1.1,1.1-2.4,1-3.7c0.1-1.2-0.3-2.4-1-3.3c-0.6-0.9-1.6-1.3-2.6-1.3c-1-0.1-2,0.4-2.6,1.3
	C490,293.9,489.7,295.2,489.8,296.5z"/>
<path d="M504,290v1.6c0.9-1.2,2.3-1.8,3.8-1.8c2.7,0,4.1,1.5,4.1,4.5v8.4h-2.2v-8.4c0.1-0.7-0.1-1.4-0.6-2c-0.5-0.5-1.2-0.7-1.9-0.7
	c-0.7,0-1.3,0.2-1.9,0.6c-0.5,0.4-0.9,0.9-1.2,1.5v9h-2.2V290H504z"/>
<path d="M514.5,296.3c-0.1-1.7,0.4-3.3,1.4-4.7c1.6-2,4.6-2.4,6.6-0.8c0.2,0.1,0.3,0.3,0.5,0.5v-6.6h2.2v18h-2v-1.4
	c-0.9,1.1-2.2,1.7-3.6,1.6c-1.4,0-2.8-0.6-3.6-1.8c-1-1.4-1.5-3-1.4-4.7L514.5,296.3z M516.7,296.5c-0.1,1.2,0.2,2.4,0.9,3.4
	c0.6,0.8,1.5,1.2,2.4,1.2c1.3,0.1,2.5-0.7,3-1.9v-5.8c-0.5-1.1-1.7-1.8-2.9-1.8c-1,0-2,0.4-2.5,1.3
	C516.9,294,516.6,295.2,516.7,296.5z"/>
<path d="M544.2,295.2h-7.1v7.5h-2.3v-17.1h10.6v1.9h-8.3v5.8h7.1V295.2z"/>
<path d="M550.1,302.7h-2.2v-18h2.2V302.7z"/>
<path d="M553,296.2c0-1.1,0.2-2.3,0.7-3.3c0.4-1,1.2-1.8,2.1-2.3c0.9-0.5,1.9-0.8,2.9-0.8c1.6-0.1,3.2,0.6,4.2,1.8
	c1.1,1.3,1.7,3.1,1.6,4.8l0,0c0,1.1-0.2,2.3-0.7,3.3c-0.4,1-1.1,1.8-2,2.3c-0.9,0.6-1.9,0.8-3,0.8c-1.6,0.1-3.1-0.6-4.2-1.8
	C553.5,299.7,552.9,298,553,296.2L553,296.2z M555.2,296.5c-0.1,1.2,0.3,2.4,0.9,3.4c0.7,0.8,1.7,1.3,2.7,1.3c1,0,2-0.5,2.6-1.3
	c0.7-1.1,1-2.4,1-3.7c0-1.2-0.3-2.3-1-3.3c-0.6-0.9-1.6-1.3-2.7-1.3c-1,0-2,0.5-2.6,1.3C555.4,294,555.1,295.2,555.2,296.5z"/>
<path d="M566.7,296.2c0-1.1,0.3-2.3,0.8-3.3c0.4-1,1.1-1.8,2-2.3c0.9-0.5,1.9-0.8,3-0.8c1.6-0.1,3.1,0.6,4.2,1.8
	c1.1,1.4,1.7,3.1,1.6,4.8l0,0c0,1.1-0.3,2.3-0.7,3.3c-0.9,1.9-2.9,3.2-5.1,3.1c-1.6,0.1-3.1-0.6-4.2-1.8c-1.1-1.3-1.7-3-1.6-4.7
	V296.2z M568.9,296.5c-0.1,1.2,0.3,2.4,1,3.4c1.1,1.4,3.2,1.7,4.6,0.6c0.2-0.2,0.4-0.4,0.6-0.6c0.7-1.1,1.1-2.4,1-3.7
	c0.1-1.2-0.3-2.4-1-3.3c-0.6-0.9-1.6-1.3-2.6-1.3c-1-0.1-2,0.4-2.6,1.3C569.1,293.9,568.8,295.2,568.9,296.5z"/>
<path d="M587.2,292h-1.1c-1.3-0.1-2.4,0.6-2.9,1.8v9H581V290h2.1v1.5c0.6-1.1,1.8-1.7,3-1.7c0.3,0,0.7,0,1,0.2L587.2,292z"/>
<polygon class="st21" points="205,212.4 401.8,212.4 397.3,217 209.6,217 "/>
<path class="st2" d="M209.6,217h187.7 M205,212.5h196.8"/>
<polygon class="st21" points="401.8,212.4 401.8,329.4 397.3,325 397.3,217 "/>
<path class="st2" d="M397.3,217v108 M401.8,212.5v117"/>
<polygon class="st21" points="401.8,329.4 205,329.4 209.6,325 397.3,325 "/>
<path class="st2" d="M397.3,325H209.6 M401.8,329.5H205"/>
<polygon class="st21" points="205,329.4 205,212.4 209.6,217 209.6,325 "/>
<path class="st2" d="M209.6,325V217 M205,329.5v-117"/>
<rect x="277.1" y="269.2" class="st22" width="120.1" height="4.4"/>
<rect x="397.3" y="269.2" class="st22" width="0.5" height="4.4"/>
<path class="st2" d="M397.3,269.2H277.2v2.3 M397.3,273.7H277.2v-2.2"/>
<rect x="214" y="212.3" class="st0" width="51.8" height="4.8"/>
<rect x="214" y="212.3" class="st5" width="51.8" height="4.8"/>
<path class="st6" d="M214,217v-4.5h2.3v4.5H214z M265.9,217v-4.5h-2.3v4.5H265.9z"/>
<path class="st7" d="M216.3,215.8v1.2H214 M214,217v-4.5h2.3v1.6 M263.6,215.8v1.2h2.3 M265.9,217v-4.5h-2.3v1.6"/>
<path class="st6" d="M216.3,214.1h0.6v1.7h-0.6V214.1z M263.6,214.1H263v1.7h0.6V214.1z"/>
<path class="st7" d="M216.3,214.1h0.6v1.7h-0.6 M263.6,214.1H263v1.7h0.6"/>
<path class="st7" d="M214,217v-4.5 M265.9,217v-4.5"/>
<path class="st7" d="M216.3,212.5c0.1-3.5,0.5-7,1.2-10.5"/>
<polygon class="st6" points="217.1,203.7 263.2,214.1 263.6,212.4 217.5,202 "/>
<polygon class="st7" points="217.1,203.7 263.2,214.1 263.6,212.4 217.5,202 "/>
<rect x="214" y="324.9" class="st0" width="51.8" height="4.8"/>
<rect x="214" y="324.9" class="st5" width="51.8" height="4.8"/>
<path class="st6" d="M214,325v4.5h2.3V325H214z M265.9,325v4.5h-2.3V325H265.9z"/>
<path class="st7" d="M216.3,326.1V325H214 M214,325v4.5h2.3v-1.7 M263.6,326.1V325h2.3 M265.9,325v4.5h-2.3v-1.7"/>
<path class="st6" d="M216.3,327.8h0.6v-1.7h-0.6V327.8z M263.6,327.8H263v-1.7h0.6V327.8z"/>
<path class="st7" d="M216.3,327.8h0.6v-1.7h-0.6 M263.6,327.8H263v-1.7h0.6"/>
<path class="st7" d="M214,325v4.5 M265.9,325v4.5"/>
<path class="st7" d="M216.3,329.5c0,5.8,1.1,11.5,3.1,16.9"/>
<polygon class="st6" points="218.8,344.8 263,327.9 263.6,329.4 219.4,346.3 "/>
<polygon class="st7" points="218.8,344.8 263,327.9 263.6,329.4 219.4,346.3 "/>
<rect x="290.6" y="516" class="st23" width="317.3" height="61.8"/>
<path d="M294.1,516.2h-3.6V516h3.5v0.2H294.1z M299.8,516.2h-3.7V516h3.6l0.2,0.2H299.8z M305.6,516.2h-3.7V516h3.6v0.2H305.6z
	 M311.4,516.2h-3.8l0.2-0.2h3.6L311.4,516.2L311.4,516.2z M317.1,516.2h-3.7V516h3.6v0.2H317.1z M322.9,516.2h-3.7V516h3.6v0.2
	H322.9z M328.6,516.2h-3.7V516h3.6l0.2,0.2H328.6z M334.4,516.2h-3.7V516h3.6L334.4,516.2L334.4,516.2z M340.2,516.2h-3.8l0.2-0.2
	h3.6L340.2,516.2L340.2,516.2z M345.9,516.2h-3.7V516h3.6v0.2H345.9z M351.7,516.2H348V516h3.7L351.7,516.2L351.7,516.2z
	 M357.4,516.2h-3.7V516h3.6l0.2,0.2H357.4z M363.2,516.2h-3.7V516h3.6v0.2H363.2z M369,516.2h-3.8l0.2-0.2h3.6L369,516.2L369,516.2z
	 M374.7,516.2H371V516h3.7L374.7,516.2L374.7,516.2z M380.5,516.2h-3.7V516h3.6v0.2H380.5z M386.2,516.2h-3.7V516h3.6l0.2,0.2H386.2
	z M392,516.2h-3.7V516h3.6v0.2H392z M397.8,516.2H394l0.2-0.2h3.6L397.8,516.2L397.8,516.2z M403.5,516.2h-3.7V516h3.6v0.2H403.5z
	 M409.3,516.2h-3.7V516h3.6v0.2H409.3z M415,516.2h-3.7V516h3.6l0.2,0.2H415z M420.8,516.2h-3.7V516h3.6v0.2H420.8z M426.6,516.2
	h-3.8l0.2-0.2h3.6L426.6,516.2L426.6,516.2z M432.3,516.2h-3.7V516h3.6v0.2H432.3z M438.1,516.2h-3.7V516h3.6v0.2H438.1z
	 M443.8,516.2h-3.7V516h3.6l0.2,0.2H443.8z M449.6,516.2h-3.7V516h3.6v0.2H449.6z M455.4,516.2h-3.8l0.2-0.2h3.6L455.4,516.2
	L455.4,516.2z M461.1,516.2h-3.7V516h3.6v0.2H461.1z M466.9,516.2h-3.7V516h3.6v0.2H466.9z M472.6,516.2h-3.7V516h3.6l0.2,0.2H472.6
	z M478.4,516.2h-3.7V516h3.6L478.4,516.2L478.4,516.2z M484.2,516.2h-3.8l0.2-0.2h3.6L484.2,516.2L484.2,516.2z M489.9,516.2h-3.7
	V516h3.6v0.2H489.9z M495.7,516.2H492V516h3.7L495.7,516.2L495.7,516.2z M501.4,516.2h-3.7V516h3.6l0.2,0.2H501.4z M507.2,516.2
	h-3.7V516h3.6v0.2H507.2z M513,516.2h-3.8l0.2-0.2h3.6V516.2z M518.7,516.2H515V516h3.7L518.7,516.2L518.7,516.2z M524.5,516.2h-3.7
	V516h3.6v0.2H524.5z M530.2,516.2h-3.7V516h3.6L530.2,516.2L530.2,516.2z M536,516.2h-3.7V516h3.6v0.2H536z M541.8,516.2H538
	l0.2-0.2h3.6V516.2z M547.5,516.2h-3.7V516h3.6v0.2H547.5z M553.3,516.2h-3.7V516h3.6v0.2H553.3z M559,516.2h-3.7V516h3.6L559,516.2
	L559,516.2z M564.8,516.2h-3.7V516h3.6v0.2H564.8z M570.6,516.2h-3.8l0.2-0.2h3.6V516.2z M576.3,516.2h-3.7V516h3.6v0.2H576.3z
	 M582.1,516.2h-3.7V516h3.6v0.2H582.1z M587.8,516.2h-3.7V516h3.6L587.8,516.2L587.8,516.2z M593.6,516.2h-3.7V516h3.6v0.2H593.6z
	 M599.4,516.2h-3.8l0.2-0.2h3.6V516.2z M605.1,516.2h-3.7V516h3.6v0.2H605.1z M607.8,519.1v-3h-0.6v-0.2h0.6V519.1h-0.2H607.8z
	 M607.8,524.8v-3.6h0.2v3.6H607.8z M607.8,530.6V527h0.2v3.6L607.8,530.6L607.8,530.6z M607.8,536.3v-3.6h0.2v3.6H607.8z
	 M607.8,542.1v-3.6h0.2v3.6H607.8z M607.8,547.9L607.8,547.9h-0.2H607.8z M607.8,553.6V550h0.2v3.6L607.8,553.6L607.8,553.6z
	 M607.8,559.4v-3.6h0.2v3.6H607.8z M607.8,565.1v-3.6h0.2v3.6H607.8z M607.8,570.9v-3.6h0.2v3.6H607.8z M607.8,576.7L607.8,576.7
	h-0.2H607.8z M603.3,577.7h3.6v0.2h-3.8L603.3,577.7z M597.6,577.7h3.6v0.2h-3.9L597.6,577.7z M591.8,577.7h3.6v0.2h-3.7
	L591.8,577.7z M586,577.7h3.6l0.2,0.2h-3.9L586,577.7z M580.3,577.7h3.6v0.2h-3.8L580.3,577.7z M574.5,577.7h3.6v0.2h-3.8
	L574.5,577.7z M568.8,577.7h3.6v0.2h-3.9L568.8,577.7z M563,577.7h3.6v0.2h-3.8L563,577.7z M557.2,577.7h3.6l0.2,0.2h-3.9
	L557.2,577.7z M551.5,577.7h3.6v0.2h-3.8L551.5,577.7z M545.7,577.7h3.6v0.2h-3.8L545.7,577.7z M540,577.7h3.6v0.2h-3.9L540,577.7z
	 M534.2,577.7h3.6v0.2H534L534.2,577.7z M528.4,577.7h3.6l0.2,0.2h-3.9L528.4,577.7z M522.7,577.7h3.6v0.2h-3.8L522.7,577.7z
	 M516.9,577.7h3.6v0.2h-3.8L516.9,577.7z M511.2,577.7h3.6v0.2h-3.9L511.2,577.7z M505.4,577.7h3.6v0.2h-3.8L505.4,577.7z
	 M499.6,577.7h3.6l0.2,0.2h-3.9L499.6,577.7z M493.9,577.7h3.6v0.2h-3.8L493.9,577.7z M488.1,577.7h3.6v0.2h-3.8L488.1,577.7z
	 M482.4,577.7h3.6v0.2h-3.9L482.4,577.7z M476.6,577.7h3.6v0.2h-3.8L476.6,577.7z M470.8,577.7h3.6l0.2,0.2h-3.9L470.8,577.7z
	 M465.1,577.7h3.6v0.2h-3.8L465.1,577.7z M459.3,577.7h3.6v0.2h-3.8L459.3,577.7z M453.6,577.7h3.6v0.2h-3.9L453.6,577.7z
	 M447.8,577.7h3.6v0.2h-3.7L447.8,577.7z M442,577.7h3.6l0.2,0.2h-3.9L442,577.7z M436.3,577.7h3.6v0.2h-3.8L436.3,577.7z
	 M430.5,577.7h3.6v0.2h-3.8L430.5,577.7z M424.8,577.7h3.6v0.2h-3.9L424.8,577.7z M419,577.7h3.6v0.2h-3.8L419,577.7z M413.2,577.7
	h3.6l0.2,0.2h-3.9L413.2,577.7z M407.5,577.7h3.6v0.2h-3.8L407.5,577.7z M401.7,577.7h3.6v0.2h-3.8L401.7,577.7z M396,577.7h3.6v0.2
	h-3.9L396,577.7z M390.2,577.7h3.6v0.2H390L390.2,577.7z M384.4,577.7h3.6l0.2,0.2h-3.9L384.4,577.7z M378.7,577.7h3.6v0.2h-3.8
	L378.7,577.7z M372.9,577.7h3.6v0.2h-3.8L372.9,577.7z M367.2,577.7h3.6v0.2h-3.9L367.2,577.7z M361.4,577.7h3.6v0.2h-3.8
	L361.4,577.7z M355.6,577.7h3.6l0.2,0.2h-3.9L355.6,577.7z M349.9,577.7h3.6v0.2h-3.8L349.9,577.7z M344.1,577.7h3.6v0.2h-3.8
	L344.1,577.7z M338.4,577.7h3.6v0.2h-3.9L338.4,577.7z M332.6,577.7h3.6v0.2h-3.8L332.6,577.7z M326.8,577.7h3.6l0.2,0.2h-3.9
	L326.8,577.7z M321.1,577.7h3.6v0.2h-3.8L321.1,577.7z M315.3,577.7h3.6v0.2h-3.8L315.3,577.7z M309.6,577.7h3.6v0.2h-3.9
	L309.6,577.7z M303.8,577.7h3.6v0.2h-3.7L303.8,577.7z M298,577.7h3.6l0.2,0.2h-3.9L298,577.7z M292.3,577.7h3.6v0.2h-3.8
	L292.3,577.7z M290.7,573.9v3.6h-0.2v-3.6H290.7z M290.7,568.1L290.7,568.1h0.2H290.7z M290.7,562.4v3.6h-0.2v-3.6H290.7z
	 M290.7,556.6v3.6h-0.2v-3.6H290.7z M290.7,550.9v3.6h-0.2v-3.6H290.7z M290.7,545.1v3.6h-0.2v-3.6H290.7z M290.7,539.3L290.7,539.3
	h0.2H290.7z M290.7,533.6v3.6h-0.2v-3.6H290.7z M290.7,527.8v3.6h-0.2v-3.6H290.7z M290.7,522.1v3.6h-0.2v-3.6H290.7z M290.7,516.3
	v3.6h-0.2v-3.6H290.7L290.7,516.3z"/>
<path d="M41.4,29h-7.2v7.5h-2.3v-17h10.6v1.8h-8.3v5.9h7.2V29z"/>
<path d="M44.9,20.5c0-0.3,0.1-0.6,0.3-0.9c0.3-0.3,0.6-0.4,1-0.4c0.3,0,0.7,0.2,0.9,0.4c0.2,0.3,0.4,0.6,0.4,0.9
	c0,0.3-0.2,0.7-0.4,0.9c-0.2,0.2-0.6,0.3-0.9,0.3c-0.4,0-0.7-0.1-1-0.3C45,21.1,44.9,20.8,44.9,20.5z M47.2,36.5h-2.1V23.9h2.1V36.5
	z"/>
<path d="M56.8,25.8h-1c-1.3-0.1-2.5,0.6-2.9,1.8v9h-2.2V23.9h2.1v1.4c0.7-1.1,1.8-1.7,3.1-1.7l0.9,0.2V25.8z"/>
<path d="M66.2,33.2c0-0.5-0.2-1.1-0.6-1.4c-0.7-0.4-1.5-0.7-2.3-0.8c-0.9-0.2-1.8-0.5-2.7-0.9c-0.5-0.3-1-0.6-1.4-1.1
	c-0.3-0.5-0.5-1.1-0.5-1.7c0-1,0.5-2,1.4-2.6c0.9-0.7,2.1-1.1,3.3-1.1c1.3-0.1,2.5,0.3,3.5,1.1c0.9,0.7,1.4,1.8,1.4,2.9h-2.2
	c0-0.6-0.3-1.2-0.8-1.5c-0.5-0.5-1.2-0.7-1.9-0.7c-0.6,0-1.3,0.1-1.8,0.5c-0.5,0.3-0.7,0.8-0.7,1.4c0,0.5,0.2,0.9,0.6,1.2
	c0.7,0.3,1.5,0.6,2.3,0.7l2.6,0.9c1.2,0.5,2,1.6,2,2.9c0,1.1-0.5,2.1-1.4,2.8c-1,0.7-2.3,1-3.5,1c-0.9,0-1.9-0.2-2.7-0.6
	c-0.8-0.3-1.4-0.8-1.8-1.5c-0.5-0.6-0.7-1.3-0.7-2.1h2.2c0,0.7,0.3,1.4,0.9,1.8c0.6,0.4,1.4,0.6,2.1,0.6c0.7,0,1.4-0.2,2-0.5
	C65.9,34.2,66.2,33.7,66.2,33.2z"/>
<path d="M74.1,20.8v3.1h2.4v1.6h-2.4v7.9c0,0.4,0.1,0.9,0.4,1.2c0.3,0.2,0.6,0.3,1,0.3h1.1v1.7l-1.7,0.3c-0.8,0.1-1.6-0.3-2.2-0.9
	c-0.5-0.7-0.8-1.6-0.7-2.5v-8h-2.3v-1.6H72v-3.1H74.1z"/>
<path d="M94.7,29h-7.2v7.5h-2.2v-17h10.6v1.8h-8.4v5.9h7.2V29z"/>
<path d="M100.6,36.5h-2.2v-18h2.2V36.5z"/>
<path d="M103.5,30.1c0-1.2,0.2-2.3,0.7-3.4c0.5-0.9,1.2-1.7,2-2.3c0.9-0.5,1.9-0.8,3-0.8c1.6-0.1,3.1,0.6,4.2,1.8
	c1.1,1.3,1.7,3.1,1.6,4.8l0,0c0,1.2-0.2,2.3-0.7,3.4c-0.5,0.9-1.2,1.7-2,2.3c-0.9,0.5-2,0.8-3.1,0.8c-1.6,0.1-3.1-0.6-4.1-1.8
	C104,33.6,103.4,31.8,103.5,30.1z M105.6,30.3c-0.1,1.2,0.3,2.4,1,3.4c0.6,0.8,1.6,1.3,2.6,1.3c1.1,0,2.1-0.4,2.7-1.3
	c0.7-1.1,1-2.3,0.9-3.6c0.1-1.2-0.3-2.4-0.9-3.4c-0.6-0.9-1.6-1.3-2.7-1.3c-1,0-2,0.5-2.6,1.3C105.9,27.8,105.6,29,105.6,30.3z"/>
<path d="M117.2,30.1c0-1.2,0.2-2.3,0.7-3.4c0.5-0.9,1.2-1.7,2.1-2.3c0.9-0.5,1.9-0.8,3-0.8c1.6-0.1,3.1,0.6,4.1,1.8
	c1.1,1.3,1.7,3.1,1.6,4.8l0,0c0,1.2-0.2,2.3-0.7,3.4c-0.4,0.9-1.1,1.7-2,2.3c-0.9,0.5-1.9,0.8-3,0.8c-1.6,0.1-3.1-0.6-4.2-1.8
	C117.7,33.6,117.1,31.8,117.2,30.1L117.2,30.1z M119.4,30.3c-0.1,1.2,0.3,2.4,1,3.4c1,1.4,3,1.8,4.5,0.7c0.3-0.2,0.5-0.5,0.7-0.7
	c0.7-1,1.1-2.3,1-3.6c0-1.2-0.3-2.4-1-3.4c-0.6-0.8-1.6-1.3-2.6-1.3c-1-0.1-2,0.4-2.6,1.3C119.7,27.7,119.3,29,119.4,30.3z"/>
<path d="M137.4,25.8h-1c-1.3-0.1-2.5,0.6-2.9,1.8v9h-2.2V23.9h2.1v1.4c0.7-1.1,1.8-1.7,3.1-1.7l0.9,0.2L137.4,25.8z"/>
</svg>
