<?xml version="1.0" encoding="utf-8"?>
<!-- Generator: Adobe Illustrator 25.0.1, SVG Export Plug-In . SVG Version: 6.00 Build 0)  -->
<svg version="1.1" id="Layer_1" xmlns="http://www.w3.org/2000/svg" xmlns:xlink="http://www.w3.org/1999/xlink" x="0px" y="0px"
	 viewBox="0 0 880 600" style="enable-background:new 0 0 880 600;" xml:space="preserve">
<style type="text/css">
	.st0{fill:#FFFFFF;}
	.st1{fill-rule:evenodd;clip-rule:evenodd;fill:#BFBFBF;}
	.st2{fill:none;stroke:#000000;stroke-width:0.24;stroke-miterlimit:2;}
	.st3{fill-rule:evenodd;clip-rule:evenodd;fill:#9A9A9A;}
	.st4{fill-rule:evenodd;clip-rule:evenodd;}
	.st5{fill:none;stroke:#FFFFFF;stroke-width:0.24;stroke-linecap:round;stroke-linejoin:round;}
	.st6{fill-rule:evenodd;clip-rule:evenodd;fill:#FFFFFF;}
	.st7{fill:none;stroke:#000000;stroke-width:0.24;stroke-linecap:round;stroke-linejoin:round;}
	.st8{clip-path:url(#SVGID_2_);}
	.st9{clip-path:url(#SVGID_4_);}
	.st10{clip-path:url(#SVGID_6_);}
	.st11{fill:none;stroke:#595959;stroke-width:0.24;stroke-linecap:round;stroke-linejoin:round;}
	.st12{clip-path:url(#SVGID_8_);}
	.st13{clip-path:url(#SVGID_10_);}
	.st14{clip-path:url(#SVGID_12_);}
	.st15{clip-path:url(#SVGID_14_);}
	.st16{clip-path:url(#SVGID_16_);}
	.st17{clip-path:url(#SVGID_18_);}
	.st18{clip-path:url(#SVGID_20_);}
	.st19{clip-path:url(#SVGID_22_);}
	.st20{clip-path:url(#SVGID_24_);}
	.st21{fill-rule:evenodd;clip-rule:evenodd;fill:#B3B3B3;}
	.st22{fill:#B3B3B3;}
	.st23{fill:#F8F8F8;}
	.st24{fill-rule:evenodd;clip-rule:evenodd;fill:#A5A5A5;}
	.st25{fill-rule:evenodd;clip-rule:evenodd;fill:#D8D8D8;}
	.st26{fill-rule:evenodd;clip-rule:evenodd;fill:#808080;}
</style>
<rect class="st0" width="880" height="600"/>
<polygon class="st1" points="44,101 863,101 858.6,105.5 48.6,105.5 "/>
<path class="st2" d="M48.6,105.5h810 M44,101.1h819"/>
<polygon class="st1" points="863,101 863,515 858.6,510.5 858.6,105.5 "/>
<path class="st2" d="M858.6,105.5v405 M863,101.1v414"/>
<polygon class="st1" points="863,515 44,515 48.6,510.5 858.6,510.5 "/>
<path class="st2" d="M858.6,510.5h-810 M863,515.1H44"/>
<polygon class="st1" points="44,515 44,101 48.6,105.5 48.6,510.5 "/>
<path class="st2" d="M48.6,510.5v-405 M44,515.1v-414"/>
<path class="st3" d="M858.6,85.7L858.6,85.7z M48.6,85.7L48.6,85.7z"/>
<path class="st2" d="M48.6,85.7L48.6,85.7z"/>
<path class="st2" d="M858.6,85.7L858.6,85.7z"/>
<line class="st2" x1="453.6" y1="97.7" x2="54.2" y2="97.7"/>
<line class="st2" x1="453.6" y1="97.7" x2="852.9" y2="97.7"/>
<polygon class="st4" points="54.7,99.7 48.6,97.7 54.7,95.6 "/>
<polygon class="st4" points="852.5,95.6 858.6,97.7 852.5,99.7 "/>
<rect x="438.9" y="82.7" class="st0" width="29.3" height="12"/>
<path d="M448.9,74.6v1.9h-0.4c-1.5-0.1-2.9,0.5-4,1.5c-1.1,1.1-1.7,2.6-1.8,4.1c0.9-1.1,2.3-1.7,3.7-1.6c1.4-0.1,2.7,0.5,3.6,1.6
	c0.9,1.1,1.4,2.6,1.3,4c0.1,1.6-0.4,3.1-1.4,4.3c-1,1-2.4,1.6-3.9,1.5c-1.5,0-3-0.6-4-1.8c-1-1.4-1.6-3.1-1.5-4.9v-0.8
	c0-3.2,0.7-5.6,2-7.2c1.5-1.7,3.7-2.7,6-2.6H448.9z M446,82.3c-0.7,0-1.4,0.2-2,0.7c-0.6,0.4-1.1,1-1.3,1.7v0.8
	c-0.1,1.2,0.3,2.4,0.9,3.4c0.6,0.7,1.5,1.2,2.4,1.2c0.9,0.1,1.8-0.3,2.3-1c0.6-0.8,0.9-1.9,0.8-2.9c0.1-1-0.2-2-0.8-2.8
	C447.8,82.7,446.9,82.3,446,82.3L446,82.3z"/>
<path d="M464.6,84.4c0,2.6-0.4,4.5-1.3,5.7c-0.9,1.3-2.4,1.9-4,1.8c-1.6,0.1-3.1-0.5-4.1-1.8c-0.9-1.2-1.3-3-1.3-5.4v-2.9
	c-0.1-2,0.3-3.9,1.3-5.6c0.9-1.3,2.4-1.9,4-1.8c1.6-0.1,3.1,0.5,4.1,1.8c0.9,1.1,1.3,3,1.3,5.4V84.4z M462.5,81.5
	c0.1-1.4-0.2-2.8-0.8-4c-0.5-0.9-1.5-1.4-2.5-1.3c-1-0.1-1.9,0.4-2.4,1.2c-0.6,1.2-0.9,2.6-0.8,3.9v3.5c-0.1,1.4,0.2,2.8,0.8,4.1
	c0.6,0.8,1.5,1.3,2.5,1.3c1,0,1.8-0.5,2.3-1.3c0.6-0.8,0.8-2.1,0.9-3.9V81.5z"/>
<path d="M468.8,75l-0.2,4.3h-1.5v-5.6h1.7V75z"/>
<path d="M476.2,85.3h-5.7v-1.7h5.7V85.3z"/>
<path d="M488.8,84.4c0,2.6-0.4,4.5-1.3,5.7c-0.9,1.3-2.4,1.9-4,1.8c-1.6,0.1-3.1-0.6-4.1-1.8c-1-1.6-1.4-3.5-1.3-5.4v-2.9
	c-0.1-2,0.3-3.9,1.3-5.6c1-1.3,2.5-2,4.1-1.8c1.6-0.1,3.1,0.6,4,1.8c0.9,1.1,1.3,3,1.3,5.4V84.4z M486.7,81.5c0.1-1.4-0.2-2.8-0.8-4
	c-0.5-0.9-1.4-1.4-2.4-1.3c-1-0.1-2,0.4-2.5,1.2c-0.5,1.2-0.8,2.6-0.8,3.9v3.5c-0.1,1.4,0.2,2.8,0.8,4.1c0.6,0.8,1.5,1.3,2.5,1.3
	c1,0,1.9-0.5,2.4-1.3c0.6-1.2,0.8-2.6,0.8-3.9V81.5z"/>
<path d="M493.5,75.3l-0.3,4.2h-1.3v-5.8h1.6L493.5,75.3z M496.7,75.3l-0.4,4.2H495v-5.8h1.7V75.3z"/>
<path class="st3" d="M26.5,105.5L26.5,105.5z M26.5,510.5L26.5,510.5z"/>
<path class="st2" d="M26.5,510.5L26.5,510.5z"/>
<path class="st2" d="M26.5,105.5L26.5,105.5z"/>
<line class="st2" x1="38.5" y1="308" x2="38.5" y2="504.8"/>
<line class="st2" x1="38.5" y1="308" x2="38.5" y2="111.1"/>
<polygon class="st4" points="40.5,504.3 38.5,510.5 36.5,504.3 "/>
<polygon class="st4" points="36.5,111.6 38.5,105.5 40.5,111.6 "/>
<rect x="23.5" y="293.3" class="st0" width="12" height="29.4"/>
<path d="M22.9,318.3v-1.7c0.1-0.9-0.2-1.7-0.8-2.4c-0.5-0.6-1.3-0.9-2.1-0.9c-1.5-0.2-2.8,0.9-3,2.4c0,0.2,0,0.4,0,0.6
	c0,0.8,0.3,1.7,0.8,2.3c0.6,0.5,1.3,0.8,2.1,0.8v2.2c-1.3,0-2.5-0.5-3.3-1.5c-0.9-1-1.4-2.4-1.4-3.8c-0.1-1.4,0.4-2.7,1.3-3.8
	c1-0.9,2.3-1.4,3.6-1.3c0.8,0,1.5,0.2,2.1,0.7c0.7,0.5,1.2,1.1,1.6,1.9c0.3-0.8,0.7-1.5,1.4-2.1c0.8-0.5,1.7-0.8,2.6-0.8
	c1.4-0.1,2.7,0.5,3.6,1.5c0.9,1.1,1.4,2.5,1.4,3.9c0,1.4-0.4,2.8-1.3,3.9c-0.9,1-2.2,1.5-3.5,1.5v-2.2c0.8,0,1.6-0.3,2.2-0.8
	c1.1-1.4,1.1-3.4,0-4.8c-0.7-0.5-1.5-0.8-2.4-0.8c-0.9,0-1.7,0.3-2.3,0.9c-0.6,0.7-0.8,1.7-0.8,2.6v1.7L22.9,318.3z"/>
<path d="M25.2,297.2c2.6,0,4.5,0.4,5.7,1.3c1.3,0.9,2,2.4,1.9,4c0.1,1.6-0.6,3.1-1.9,4.1c-1.6,1-3.5,1.4-5.4,1.3h-2.9
	c-2.5,0-4.3-0.4-5.5-1.3c-1.3-0.9-2.1-2.5-1.9-4.1c-0.1-1.6,0.6-3.1,1.8-4c1.2-0.9,3-1.3,5.4-1.3H25.2z M22.3,299.3
	c-1.4-0.1-2.8,0.2-4,0.8c-0.9,0.5-1.4,1.4-1.3,2.4c-0.1,1,0.4,2,1.3,2.5c1.2,0.6,2.5,0.8,3.8,0.8h3.5c1.4,0.1,2.8-0.2,4.1-0.8
	c0.9-0.5,1.3-1.5,1.3-2.5c0-1-0.5-1.9-1.3-2.4c-1.2-0.6-2.6-0.9-3.9-0.8H22.3z"/>
<path d="M15.8,292.8l4.3,0.2v1.5h-5.6v-1.7H15.8z"/>
<path d="M26.2,285.4v5.7h-1.8v-5.7H26.2z"/>
<path d="M25.2,272.9c2-0.1,4,0.3,5.7,1.3c1.3,1,2,2.5,1.9,4.1c0.1,1.6-0.6,3.1-1.9,4.1c-1.6,1-3.5,1.4-5.4,1.3h-2.9
	c-2.5,0-4.3-0.4-5.5-1.3c-1.3-0.9-2-2.5-1.9-4.1c-0.1-1.6,0.6-3.1,1.8-4c1.2-0.9,3-1.3,5.4-1.4H25.2z M22.3,275.1
	c-1.4-0.1-2.8,0.2-4,0.8c-0.9,0.5-1.4,1.4-1.3,2.4c-0.1,1,0.4,2,1.3,2.5c1.2,0.6,2.5,0.8,3.8,0.7h3.5c1.4,0.1,2.8-0.2,4.1-0.8
	c0.9-0.5,1.4-1.4,1.3-2.4c0.1-1-0.4-1.9-1.3-2.4c-1.2-0.6-2.6-0.9-3.9-0.8L22.3,275.1z"/>
<path d="M16.1,265.1l4.2,0.4v1.3h-5.8v-1.6L16.1,265.1z M16.1,268.3l4.2,0.3v1.3h-5.8v-1.6L16.1,268.3z"/>
<rect x="858.5" y="381.1" class="st0" width="4.8" height="67.6"/>
<rect x="858.5" y="381.1" class="st5" width="4.8" height="67.6"/>
<path class="st6" d="M863,381.1h-4.4v2.3h4.4V381.1z M863,448.7h-4.4v-2.3h4.4V448.7z"/>
<path class="st7" d="M862,383.4h1v-2.3 M863,381.1h-4.4v2.3h1.1 M862,446.4h1v2.3 M863,448.7h-4.4v-2.3h1.1"/>
<path class="st6" d="M859.7,383.4v2.3h2.3v-2.3H859.7z M859.7,446.4v-2.3h2.3v2.3H859.7z"/>
<rect x="859.7" y="444.1" class="st7" width="2.3" height="2.3"/>
<rect x="859.7" y="383.4" class="st7" width="2.3" height="2.3"/>
<line class="st7" x1="860.9" y1="444.1" x2="860.9" y2="385.7"/>
<path class="st7" d="M863,381.1h-4.4 M863,448.7h-4.4"/>
<rect x="511.5" y="100.9" class="st0" width="67.4" height="4.7"/>
<rect x="511.5" y="100.9" class="st5" width="67.4" height="4.7"/>
<path class="st6" d="M579,105.5v-4.4h-2.2v4.4H579z M511.6,105.5v-4.4h2.2v4.4H511.6z"/>
<path class="st7" d="M576.8,104.4v1.1h2.2 M579,105.5v-4.4h-2.2v1 M513.8,104.4v1.1h-2.2 M511.6,105.5v-4.4h2.2v1"/>
<path class="st6" d="M576.8,102.1h-2.2v2.3h2.2V102.1z M513.8,102.1h2.2v2.3h-2.2V102.1z"/>
<rect x="513.8" y="102.1" class="st7" width="2.2" height="2.3"/>
<rect x="574.5" y="102.1" class="st7" width="2.3" height="2.3"/>
<line class="st7" x1="516" y1="103.2" x2="574.5" y2="103.2"/>
<path class="st7" d="M579,105.5v-4.4 M511.6,105.5v-4.4"/>
<rect x="858.5" y="155" class="st0" width="4.8" height="67.4"/>
<rect x="858.5" y="155" class="st5" width="4.8" height="67.4"/>
<path class="st6" d="M858.6,222.5h4.4v-2.3h-4.4V222.5z M858.6,155.1h4.4v2.1h-4.4V155.1z"/>
<path class="st7" d="M859.7,220.2h-1.1v2.3 M858.6,222.5h4.4v-2.3h-1 M859.7,157.2h-1.1v-2.1 M858.6,155.1h4.4v2.1h-1"/>
<path class="st6" d="M862,220.2v-2.1h-2.3v2.1H862z M862,157.2v2.3h-2.3v-2.3H862z"/>
<rect x="859.7" y="157.2" class="st7" width="2.3" height="2.3"/>
<rect x="859.7" y="218" class="st7" width="2.3" height="2.2"/>
<line class="st7" x1="860.9" y1="159.5" x2="860.9" y2="218"/>
<path class="st7" d="M858.6,222.5h4.4 M858.6,155.1h4.4"/>
<rect x="624.6" y="100.9" class="st0" width="67.4" height="4.7"/>
<rect x="624.6" y="100.9" class="st5" width="67.4" height="4.7"/>
<path class="st6" d="M624.6,101.1v4.4h2.3v-4.4H624.6z M692,101.1v4.4h-2.1v-4.4H692z"/>
<path class="st7" d="M626.9,102.1v-1h-2.3 M624.6,101.1v4.4h2.3v-1.1 M689.9,102.1v-1h2.1 M692,101.1v4.4h-2.1v-1.1"/>
<path class="st6" d="M626.9,104.4h2.1v-2.3h-2.1V104.4z M689.9,104.4h-2.3v-2.3h2.3V104.4z"/>
<rect x="687.6" y="102.1" class="st7" width="2.3" height="2.3"/>
<rect x="626.9" y="102.1" class="st7" width="2.2" height="2.3"/>
<line class="st7" x1="687.6" y1="103.2" x2="629" y2="103.2"/>
<path class="st7" d="M624.6,101.1v4.4 M692,101.1v4.4"/>
<rect x="100.9" y="100.9" class="st0" width="67.4" height="4.7"/>
<rect x="100.9" y="100.9" class="st5" width="67.4" height="4.7"/>
<path class="st6" d="M168.4,105.5v-4.4h-2.2v4.4H168.4z M100.9,105.5v-4.4h2.3v4.4H100.9z"/>
<path class="st7" d="M166.2,104.4v1.1h2.2 M168.4,105.5v-4.4h-2.2v1 M103.2,104.4v1.1h-2.3 M100.9,105.5v-4.4h2.3v1"/>
<path class="st6" d="M166.2,102.1h-2.3v2.3h2.3V102.1z M103.2,102.1h2.2v2.3h-2.2V102.1z"/>
<rect x="103.2" y="102.1" class="st7" width="2.2" height="2.3"/>
<rect x="163.9" y="102.1" class="st7" width="2.3" height="2.3"/>
<line class="st7" x1="105.3" y1="103.2" x2="163.9" y2="103.2"/>
<path class="st7" d="M168.4,105.5v-4.4 M100.9,105.5v-4.4"/>
<rect x="737.6" y="100.9" class="st0" width="67.6" height="4.7"/>
<rect x="737.6" y="100.9" class="st5" width="67.6" height="4.7"/>
<path class="st6" d="M737.6,101.1v4.4h2.3v-4.4H737.6z M805.2,101.1v4.4h-2.3v-4.4H805.2z"/>
<path class="st7" d="M739.9,102.1v-1h-2.3 M737.6,101.1v4.4h2.3v-1.1 M802.9,102.1v-1h2.3 M805.2,101.1v4.4h-2.3v-1.1"/>
<path class="st6" d="M739.9,104.4h2.3v-2.3h-2.3V104.4z M802.9,104.4h-2.3v-2.3h2.3V104.4z"/>
<rect x="800.6" y="102.1" class="st7" width="2.3" height="2.3"/>
<rect x="739.9" y="102.1" class="st7" width="2.3" height="2.3"/>
<line class="st7" x1="800.6" y1="103.2" x2="742.2" y2="103.2"/>
<path class="st7" d="M737.6,101.1v4.4 M805.2,101.1v4.4"/>
<rect x="327" y="100.9" class="st0" width="67.6" height="4.7"/>
<rect x="327" y="100.9" class="st5" width="67.6" height="4.7"/>
<path class="st6" d="M327,101.1v4.4h2.3v-4.4H327z M394.6,101.1v4.4h-2.3v-4.4H394.6z"/>
<path class="st7" d="M329.3,102.1v-1H327 M327,101.1v4.4h2.3v-1.1 M392.3,102.1v-1h2.3 M394.6,101.1v4.4h-2.3v-1.1"/>
<path class="st6" d="M329.3,104.4h2.3v-2.3h-2.3V104.4z M392.3,104.4H390v-2.3h2.3V104.4z"/>
<rect x="390" y="102.1" class="st7" width="2.3" height="2.3"/>
<rect x="329.3" y="102.1" class="st7" width="2.3" height="2.3"/>
<line class="st7" x1="390" y1="103.2" x2="331.5" y2="103.2"/>
<path class="st7" d="M327,101.1v4.4 M394.6,101.1v4.4"/>
<rect x="512" y="510.3" class="st0" width="67.6" height="4.8"/>
<rect x="512" y="510.3" class="st5" width="67.6" height="4.8"/>
<path class="st6" d="M579.6,515.1v-4.6h-2.3v4.6H579.6z M512,515.1v-4.6h2.3v4.6H512z"/>
<path class="st7" d="M577.3,513.9v1.2h2.3 M579.6,515.1v-4.6h-2.3v1.2 M514.3,513.9v1.2H512 M512,515.1v-4.6h2.3v1.2"/>
<path class="st6" d="M577.3,511.7H575v2.2h2.3V511.7z M514.3,511.7h2.3v2.2h-2.3V511.7z"/>
<rect x="514.3" y="511.7" class="st7" width="2.3" height="2.2"/>
<rect x="575" y="511.7" class="st7" width="2.3" height="2.2"/>
<line class="st7" x1="516.6" y1="512.7" x2="575" y2="512.7"/>
<path class="st7" d="M579.6,515.1v-4.6 M512,515.1v-4.6"/>
<rect x="327.6" y="510.3" class="st0" width="67.4" height="4.8"/>
<rect x="327.6" y="510.3" class="st5" width="67.4" height="4.8"/>
<path class="st6" d="M327.6,510.5v4.6h2.3v-4.6H327.6z M395,510.5v4.6h-2.1v-4.6H395z"/>
<path class="st7" d="M329.9,511.7v-1.2h-2.3 M327.6,510.5v4.6h2.3v-1.2 M392.9,511.7v-1.2h2.1 M395,510.5v4.6h-2.1v-1.2"/>
<path class="st6" d="M329.9,513.9h2.1v-2.2h-2.1V513.9z M392.9,513.9h-2.3v-2.2h2.3V513.9z"/>
<rect x="390.6" y="511.7" class="st7" width="2.3" height="2.2"/>
<rect x="329.9" y="511.7" class="st7" width="2.2" height="2.2"/>
<line class="st7" x1="390.6" y1="512.7" x2="332" y2="512.7"/>
<path class="st7" d="M327.6,510.5v4.6 M395,510.5v4.6"/>
<rect x="101.5" y="510.3" class="st0" width="67.4" height="4.8"/>
<rect x="101.5" y="510.3" class="st5" width="67.4" height="4.8"/>
<path class="st6" d="M169,515.1v-4.6h-2.3v4.6H169z M101.5,515.1v-4.6h2.2v4.6H101.5z"/>
<path class="st7" d="M166.7,513.9v1.2h2.3 M169,515.1v-4.6h-2.3v1.2 M103.7,513.9v1.2h-2.2 M101.5,515.1v-4.6h2.2v1.2"/>
<path class="st6" d="M166.7,511.7h-2.2v2.2h2.2V511.7z M103.7,511.7h2.3v2.2h-2.3V511.7z"/>
<rect x="103.7" y="511.7" class="st7" width="2.3" height="2.2"/>
<rect x="164.5" y="511.7" class="st7" width="2.2" height="2.2"/>
<line class="st7" x1="105.9" y1="512.7" x2="164.5" y2="512.7"/>
<path class="st7" d="M169,515.1v-4.6 M101.5,515.1v-4.6"/>
<rect x="738.2" y="510.3" class="st0" width="67.4" height="4.8"/>
<rect x="738.2" y="510.3" class="st5" width="67.4" height="4.8"/>
<path class="st6" d="M738.2,510.5v4.6h2.3v-4.6H738.2z M805.7,510.5v4.6h-2.2v-4.6H805.7z"/>
<path class="st7" d="M740.5,511.7v-1.2h-2.3 M738.2,510.5v4.6h2.3v-1.2 M803.5,511.7v-1.2h2.2 M805.7,510.5v4.6h-2.2v-1.2"/>
<path class="st6" d="M740.5,513.9h2.2v-2.2h-2.2V513.9z M803.5,513.9h-2.3v-2.2h2.3V513.9z"/>
<rect x="801.2" y="511.7" class="st7" width="2.3" height="2.2"/>
<rect x="740.5" y="511.7" class="st7" width="2.2" height="2.2"/>
<line class="st7" x1="801.2" y1="512.7" x2="742.7" y2="512.7"/>
<path class="st7" d="M738.2,510.5v4.6 M805.7,510.5v4.6"/>
<rect x="858.5" y="268.1" class="st0" width="4.8" height="67.4"/>
<rect x="858.5" y="268.1" class="st5" width="4.8" height="67.4"/>
<path class="st6" d="M863,268.1h-4.4v2.3h4.4V268.1z M863,335.5h-4.4v-2.1h4.4V335.5z"/>
<path class="st7" d="M862,270.4h1v-2.3 M863,268.1h-4.4v2.3h1.1 M862,333.4h1v2.1 M863,335.5h-4.4v-2.1h1.1"/>
<path class="st6" d="M859.7,270.4v2.1h2.3v-2.1H859.7z M859.7,333.4v-2.3h2.3v2.3H859.7z"/>
<rect x="859.7" y="331.1" class="st7" width="2.3" height="2.3"/>
<rect x="859.7" y="270.3" class="st7" width="2.3" height="2.2"/>
<line class="st7" x1="860.9" y1="331.1" x2="860.9" y2="272.5"/>
<path class="st7" d="M863,268.1h-4.4 M863,335.5h-4.4"/>
<rect x="213.9" y="100.9" class="st0" width="67.6" height="4.7"/>
<rect x="213.9" y="100.9" class="st5" width="67.6" height="4.7"/>
<path class="st6" d="M214,101.1v4.4h2.2v-4.4H214z M281.5,101.1v4.4h-2.3v-4.4H281.5z"/>
<path class="st7" d="M216.2,102.1v-1H214 M214,101.1v4.4h2.2v-1.1 M279.2,102.1v-1h2.3 M281.5,101.1v4.4h-2.3v-1.1"/>
<path class="st6" d="M216.2,104.4h2.3v-2.3h-2.3V104.4z M279.2,104.4H277v-2.3h2.2V104.4z"/>
<rect x="276.9" y="102.1" class="st7" width="2.3" height="2.3"/>
<rect x="216.2" y="102.1" class="st7" width="2.3" height="2.3"/>
<line class="st7" x1="276.9" y1="103.2" x2="218.5" y2="103.2"/>
<path class="st7" d="M214,101.1v4.4 M281.5,101.1v4.4"/>
<rect x="625.2" y="510.3" class="st0" width="67.4" height="4.8"/>
<rect x="625.2" y="510.3" class="st5" width="67.4" height="4.8"/>
<path class="st6" d="M625.2,510.5v4.6h2.2v-4.6H625.2z M692.6,510.5v4.6h-2.2v-4.6H692.6z"/>
<path class="st7" d="M627.4,511.7v-1.2h-2.2 M625.2,510.5v4.6h2.2v-1.2 M690.4,511.7v-1.2h2.2 M692.6,510.5v4.6h-2.2v-1.2"/>
<path class="st6" d="M627.4,513.9h2.2v-2.2h-2.2V513.9z M690.4,513.9h-2.2v-2.2h2.2V513.9z"/>
<rect x="688.2" y="511.7" class="st7" width="2.2" height="2.2"/>
<rect x="627.3" y="511.7" class="st7" width="2.3" height="2.2"/>
<line class="st7" x1="688.2" y1="512.7" x2="629.6" y2="512.7"/>
<path class="st7" d="M625.2,510.5v4.6 M692.6,510.5v4.6"/>
<rect x="214.5" y="510.3" class="st0" width="67.4" height="4.8"/>
<rect x="214.5" y="510.3" class="st5" width="67.4" height="4.8"/>
<path class="st6" d="M214.6,510.5v4.6h2.2v-4.6H214.6z M282,510.5v4.6h-2.2v-4.6H282z"/>
<path class="st7" d="M216.8,511.7v-1.2h-2.2 M214.6,510.5v4.6h2.2v-1.2 M279.8,511.7v-1.2h2.2 M282,510.5v4.6h-2.2v-1.2"/>
<path class="st6" d="M216.8,513.9h2.2v-2.2h-2.2V513.9z M279.8,513.9h-2.2v-2.2h2.2V513.9z"/>
<rect x="277.5" y="511.7" class="st7" width="2.3" height="2.2"/>
<rect x="216.8" y="511.7" class="st7" width="2.2" height="2.2"/>
<line class="st7" x1="277.5" y1="512.7" x2="219" y2="512.7"/>
<path class="st7" d="M214.6,510.5v4.6 M282,510.5v4.6"/>
<rect x="415.8" y="510.3" class="st0" width="72" height="4.8"/>
<rect x="415.8" y="510.3" class="st5" width="72" height="4.8"/>
<path class="st6" d="M415.8,515.1v-4.6h2.3v4.6H415.8z M487.8,515.1v-4.6h-2.3v4.6H487.8z"/>
<path class="st7" d="M418.1,513.9v1.2h-2.3 M415.8,515.1v-4.6h2.3v1.7 M485.5,513.9v1.2h2.3 M487.8,515.1v-4.6h-2.3v1.7"/>
<path class="st6" d="M418.1,512.2h0.5v1.7h-0.5V512.2z M485.5,512.2H485v1.7h0.5V512.2z"/>
<path class="st7" d="M418.1,512.2h0.5v1.7h-0.5 M485.5,512.2H485v1.7h0.5"/>
<path class="st7" d="M415.8,515.1v-4.6 M487.8,515.1v-4.6"/>
<path class="st7" d="M451.8,510.5c0-18.6-15.1-33.7-33.7-33.7c0,0,0,0,0,0"/>
<path class="st7" d="M451.8,510.5c0-18.6,15.1-33.7,33.7-33.7c0,0,0,0,0,0"/>
<rect x="418.1" y="476.7" class="st0" width="1.7" height="33.7"/>
<rect x="418.1" y="476.7" class="st7" width="1.7" height="33.7"/>
<rect x="483.8" y="476.7" class="st0" width="1.7" height="33.7"/>
<rect x="483.8" y="476.7" class="st7" width="1.7" height="33.7"/>
<rect x="419.9" y="100.9" class="st0" width="67.4" height="4.7"/>
<rect x="419.9" y="100.9" class="st5" width="67.4" height="4.7"/>
<path class="st6" d="M487.3,105.5v-4.4H485v4.4H487.3z M419.9,105.5v-4.4h2.1v4.4H419.9z"/>
<path class="st7" d="M485,104.4v1.1h2.3 M487.3,105.5v-4.4H485v1 M422,104.4v1.1h-2.1 M419.9,105.5v-4.4h2.1v1"/>
<path class="st6" d="M485,102.1h-2.1v2.3h2.1V102.1z M422,102.1h2.3v2.3H422V102.1z"/>
<rect x="422" y="102.1" class="st7" width="2.3" height="2.3"/>
<rect x="482.9" y="102.1" class="st7" width="2.2" height="2.3"/>
<line class="st7" x1="424.3" y1="103.2" x2="482.9" y2="103.2"/>
<path class="st7" d="M487.3,105.5v-4.4 M419.9,105.5v-4.4"/>
<g>
	<defs>
		<path id="SVGID_1_" d="M301,223.2h-11.9v42H301V223.2z M313,223.2h-12v42h12V223.2z M324.8,223.2H313v42h11.8V223.2z M336.8,223.2
			h-12v42h12V223.2z M348.7,223.2h-11.9v42h11.9L348.7,223.2z M360.7,223.2h-12v42h12L360.7,223.2z M372.6,223.2h-11.9v42h11.9
			L372.6,223.2z"/>
	</defs>
	<clipPath id="SVGID_2_">
		<use xlink:href="#SVGID_1_"  style="overflow:visible;"/>
	</clipPath>
	<g class="st8">
		<g>
			<defs>
				<rect id="SVGID_3_" x="289" y="223.1" width="83.8" height="42.2"/>
			</defs>
			<clipPath id="SVGID_4_">
				<use xlink:href="#SVGID_3_"  style="overflow:visible;"/>
			</clipPath>
			<g class="st9">
				<g>
					<defs>
						<rect id="SVGID_5_" x="289" y="223.1" width="83.8" height="42.2"/>
					</defs>
					<clipPath id="SVGID_6_">
						<use xlink:href="#SVGID_5_"  style="overflow:visible;"/>
					</clipPath>
				</g>
			</g>
		</g>
	</g>
</g>
<rect x="360.7" y="223.2" class="st11" width="11.9" height="42"/>
<rect x="348.7" y="223.2" class="st11" width="12" height="42"/>
<rect x="336.8" y="223.2" class="st11" width="11.9" height="42"/>
<rect x="324.8" y="223.2" class="st11" width="12" height="42"/>
<rect x="312.9" y="223.2" class="st11" width="11.9" height="42"/>
<rect x="300.9" y="223.2" class="st11" width="12" height="42"/>
<rect x="289.1" y="223.2" class="st11" width="11.9" height="42"/>
<g>
	<defs>
		<path id="SVGID_7_" d="M398.5,223.2h-2.3c0,1.2-1,2.2-2.2,2.3h-63.2v2.2H394C396.5,227.7,398.5,225.7,398.5,223.2z M398.5,265.2
			h-2.3c0-1.2-0.9-2.1-2.1-2.1c0,0-0.1,0-0.1,0h-63.2v-2.3H394C396.4,260.8,398.4,262.8,398.5,265.2z M330.8,225.5h-50.7
			c-1.3,0-2.3-1-2.3-2.3h-2.3c0.1,2.5,2.1,4.5,4.6,4.5h50.7L330.8,225.5z M330.8,263.1h-50.7c-1.2-0.1-2.2,0.9-2.3,2.1c0,0,0,0,0,0
			h-2.3c0.1-2.5,2.1-4.5,4.6-4.4c0,0,0,0,0,0h50.7L330.8,263.1z"/>
	</defs>
	<clipPath id="SVGID_8_">
		<use xlink:href="#SVGID_7_"  style="overflow:visible;"/>
	</clipPath>
	<g class="st12">
		<g>
			<defs>
				<rect id="SVGID_9_" x="275.4" y="223.1" width="123.2" height="42.2"/>
			</defs>
			<clipPath id="SVGID_10_">
				<use xlink:href="#SVGID_9_"  style="overflow:visible;"/>
			</clipPath>
			<g class="st13">
				<g>
					<defs>
						<rect id="SVGID_11_" x="275.4" y="223.1" width="123.2" height="42.2"/>
					</defs>
					<clipPath id="SVGID_12_">
						<use xlink:href="#SVGID_11_"  style="overflow:visible;"/>
					</clipPath>
				</g>
			</g>
		</g>
	</g>
</g>
<path class="st11" d="M330.8,227.7H394c2.5,0,4.5-2,4.5-4.5 M398.5,223.2h-2.3c0,1.2-1,2.2-2.2,2.3h-63.2 M330.8,260.8H394
	c2.4,0,4.4,2,4.5,4.4 M398.5,265.2h-2.3c0-1.2-0.9-2.1-2.1-2.1c0,0-0.1,0-0.1,0h-63.2 M330.8,225.5h-50.7c-1.3,0-2.3-1-2.3-2.3h-2.3
	c0.1,2.5,2.1,4.5,4.6,4.5h50.7 M330.8,263.1h-50.7c-1.2-0.1-2.2,0.9-2.3,2.1c0,0,0,0,0,0h-2.3c0.1-2.5,2.1-4.5,4.6-4.4c0,0,0,0,0,0
	h50.7"/>
<path d="M316.8,235.8v11.6c0,1.5-0.6,2.8-1.6,3.9c-1.1,1.1-2.5,1.7-4,1.7h-0.6c-1.6,0.1-3.3-0.5-4.5-1.6c-1.1-1.1-1.8-2.6-1.7-4.1
	v-11.5h2.2v11.5c0,1.1,0.4,2.1,1.1,2.9c0.8,0.7,1.8,1.1,2.9,1c1.1,0.1,2.1-0.3,2.9-1c0.7-0.8,1.1-1.8,1-2.9v-11.5H316.8z"/>
<path d="M330.7,246.6c0.1,1.7-0.4,3.3-1.4,4.7c-0.8,1.2-2.2,1.9-3.6,1.8c-1.4,0.1-2.7-0.5-3.6-1.5v6.1h-2.2v-17.6h2v1.4
	c0.9-1.1,2.3-1.6,3.7-1.6c1.4,0,2.7,0.6,3.6,1.7c1,1.4,1.5,3.1,1.4,4.8L330.7,246.6z M328.5,246.4c0.1-1.2-0.2-2.4-0.9-3.4
	c-0.6-0.8-1.5-1.3-2.5-1.3c-1.3,0-2.4,0.7-3,1.8v6c0.6,1.1,1.7,1.8,3,1.8c1,0,1.9-0.5,2.5-1.3C328.3,248.9,328.6,247.7,328.5,246.4
	L328.5,246.4z"/>
<line class="st11" x1="372.6" y1="244.2" x2="347.3" y2="244.2"/>
<path class="st11" d="M371.2,242.8l2.8,2.9 M350.2,238.5l-2.9,5.7l2.9,5.9"/>
<g>
	<defs>
		<path id="SVGID_13_" d="M374.2,274.7H386v42.4h-11.8V274.7z M362.3,274.7h11.9v42.4h-11.9V274.7z M350.3,274.7h12v42.4h-12V274.7z
			 M338.4,274.7h11.9v42.4h-11.9V274.7z M326.4,274.7h12v42.4h-12V274.7z M314.5,274.7h11.9v42.4h-11.9L314.5,274.7z M302.5,274.7
			h12v42.4h-12V274.7z"/>
	</defs>
	<clipPath id="SVGID_14_">
		<use xlink:href="#SVGID_13_"  style="overflow:visible;"/>
	</clipPath>
	<g class="st15">
		<g>
			<defs>
				<rect id="SVGID_15_" x="302.4" y="274.6" width="83.8" height="42.6"/>
			</defs>
			<clipPath id="SVGID_16_">
				<use xlink:href="#SVGID_15_"  style="overflow:visible;"/>
			</clipPath>
			<g class="st16">
				<g>
					<defs>
						<rect id="SVGID_17_" x="302.4" y="274.6" width="83.8" height="42.6"/>
					</defs>
					<clipPath id="SVGID_18_">
						<use xlink:href="#SVGID_17_"  style="overflow:visible;"/>
					</clipPath>
				</g>
			</g>
		</g>
	</g>
</g>
<rect x="302.5" y="274.7" class="st11" width="12" height="42.4"/>
<rect x="314.5" y="274.7" class="st11" width="11.9" height="42.4"/>
<rect x="326.4" y="274.7" class="st11" width="12" height="42.4"/>
<rect x="338.4" y="274.7" class="st11" width="11.9" height="42.4"/>
<rect x="350.3" y="274.7" class="st11" width="12" height="42.4"/>
<rect x="362.3" y="274.7" class="st11" width="11.9" height="42.4"/>
<rect x="374.1" y="274.7" class="st11" width="11.9" height="42.4"/>
<g>
	<defs>
		<path id="SVGID_19_" d="M276.7,274.7h2.2c0,1.3,1,2.3,2.3,2.3h63.1v2.3h-63.1c-2.5,0-4.5-2-4.5-4.5
			C276.7,274.8,276.7,274.7,276.7,274.7z M276.7,317.1h2.2c0-1.3,1-2.3,2.3-2.3h63.1v-2.3h-63.1c-2.4-0.1-4.4,1.9-4.5,4.3
			C276.7,316.9,276.7,317,276.7,317.1z M344.3,277H395c1.2,0.1,2.2-0.9,2.3-2.1c0-0.1,0-0.1,0-0.2h2.3c0,2.5-2.1,4.6-4.6,4.6l0,0
			h-50.7V277z M344.3,314.8H395c1.2-0.1,2.2,0.9,2.3,2.1c0,0.1,0,0.1,0,0.2h2.3c0.1-2.5-1.9-4.5-4.4-4.6c-0.1,0-0.1,0-0.2,0h-50.7
			V314.8z"/>
	</defs>
	<clipPath id="SVGID_20_">
		<use xlink:href="#SVGID_19_"  style="overflow:visible;"/>
	</clipPath>
	<g class="st18">
		<g>
			<defs>
				<rect id="SVGID_21_" x="276.6" y="274.6" width="123.1" height="42.6"/>
			</defs>
			<clipPath id="SVGID_22_">
				<use xlink:href="#SVGID_21_"  style="overflow:visible;"/>
			</clipPath>
			<g class="st19">
				<g>
					<defs>
						<rect id="SVGID_23_" x="276.6" y="274.6" width="123.1" height="42.6"/>
					</defs>
					<clipPath id="SVGID_24_">
						<use xlink:href="#SVGID_23_"  style="overflow:visible;"/>
					</clipPath>
				</g>
			</g>
		</g>
	</g>
</g>
<path class="st11" d="M344.3,279.3h-63.1c-2.5,0-4.5-2-4.5-4.5c0,0,0-0.1,0-0.1 M276.7,274.7h2.2c0,1.3,1,2.3,2.3,2.3h63.1
	 M344.3,312.5h-63.1c-2.4-0.1-4.4,1.9-4.5,4.3c0,0.1,0,0.2,0,0.3 M276.7,317.1h2.2c0-1.3,1-2.3,2.3-2.3h63.1 M344.3,277H395
	c1.2,0.1,2.2-0.9,2.3-2.1c0-0.1,0-0.1,0-0.2h2.3c0,2.5-2.1,4.6-4.6,4.6l0,0h-50.7 M344.3,314.8H395c1.2-0.1,2.2,0.9,2.3,2.1
	c0,0.1,0,0.1,0,0.2h2.3c0.1-2.5-1.9-4.5-4.4-4.6c-0.1,0-0.1,0-0.2,0h-50.7"/>
<path d="M350.8,285.4V297c0.1,1.5-0.5,2.9-1.5,3.9c-1.1,1.1-2.6,1.7-4.1,1.7h-0.6c-1.6,0.1-3.2-0.5-4.4-1.6c-1.2-1-1.8-2.5-1.7-4.1
	v-11.5h2.2v11.5c0,1.1,0.3,2.1,1,2.9c0.8,0.7,1.8,1.1,2.9,1c1.1,0.1,2.2-0.3,3-1c0.7-0.8,1-1.8,1-2.9v-11.5H350.8z"/>
<path d="M364.7,296.2c0.1,1.7-0.4,3.3-1.3,4.7c-0.8,1.2-2.2,1.8-3.6,1.8c-1.4,0.1-2.7-0.5-3.6-1.5v6.1H354v-17.6h2v1.5
	c0.9-1.1,2.3-1.8,3.7-1.7c1.4,0,2.7,0.6,3.6,1.7c1,1.4,1.5,3.1,1.4,4.8V296.2z M362.6,296c0.1-1.2-0.2-2.4-0.9-3.4
	c-0.6-0.8-1.6-1.2-2.6-1.2c-1.2-0.1-2.4,0.6-2.9,1.7v6.1c0.6,1.1,1.8,1.8,3,1.7c0.9,0,1.8-0.4,2.4-1.2
	C362.3,298.6,362.7,297.3,362.6,296z"/>
<line class="st11" x1="302.5" y1="295.8" x2="327.8" y2="295.8"/>
<path class="st11" d="M304,294.4l-2.9,3 M325,290.1l2.8,5.7l-2.8,5.9"/>
<polygon class="st21" points="266.9,211.4 471.6,211.4 467,216 271.3,216 "/>
<path class="st2" d="M271.3,216H467 M266.9,211.5h204.7"/>
<polygon class="st21" points="471.6,211.4 471.6,328.4 467,324 467,216 "/>
<path class="st2" d="M467,216v108 M471.6,211.5v117"/>
<polygon class="st21" points="471.6,328.4 266.9,328.4 271.3,324 467,324 "/>
<path class="st2" d="M467,324H271.3 M471.6,328.5H266.9"/>
<polygon class="st21" points="266.9,328.4 266.9,211.4 271.3,216 271.3,324 "/>
<path class="st2" d="M271.3,324V216 M266.9,328.5v-117"/>
<rect x="271.3" y="268.2" class="st22" width="128.3" height="4.4"/>
<rect x="270.8" y="268.2" class="st22" width="0.5" height="4.4"/>
<path class="st2" d="M399.6,270.5v-2.3H271.3 M399.6,270.5v2.2H271.3"/>
<rect x="466.9" y="230.4" class="st0" width="4.8" height="85.4"/>
<rect x="466.9" y="230.4" class="st5" width="4.8" height="85.4"/>
<path class="st6" d="M467,230.4h4.6v2.3H467V230.4z M467,315.9h4.6v-2.2H467V315.9z"/>
<path class="st7" d="M468.2,232.7H467v-2.3 M467,230.4h4.6v2.3h-1.7 M468.2,313.7H467v2.2 M467,315.9h4.6v-2.2h-1.7"/>
<path class="st6" d="M469.9,232.7v0.5h-1.7v-0.5H469.9z M469.9,313.7v-0.6h-1.7v0.6H469.9z"/>
<path class="st7" d="M469.9,232.7v0.5h-1.7v-0.5 M469.9,313.7v-0.6h-1.7v0.6"/>
<path class="st7" d="M467,230.4h4.6 M467,315.9h4.6"/>
<path class="st7" d="M471.6,273.1c22.3,0,40.4-18.1,40.4-40.4"/>
<path class="st7" d="M471.6,273.1c22.4,0.1,40.5,18.2,40.4,40.6c0,0,0,0,0,0"/>
<rect x="471.6" y="232.7" class="st0" width="40.4" height="1.7"/>
<rect x="471.6" y="232.7" class="st7" width="40.4" height="1.7"/>
<rect x="471.6" y="312" class="st0" width="40.4" height="1.7"/>
<rect x="471.6" y="312" class="st7" width="40.4" height="1.7"/>
<polygon class="st21" points="44,238.2 167.9,238.2 163.3,242.7 48.6,242.7 "/>
<path class="st2" d="M48.6,242.8h114.7 M44,238.2h123.9"/>
<polygon class="st21" points="167.9,238.2 167.9,328.2 163.3,323.7 163.3,242.7 "/>
<path class="st2" d="M163.3,242.8v81 M167.9,238.2v90"/>
<polygon class="st21" points="167.9,328.2 44,328.2 48.6,323.7 163.3,323.7 "/>
<path class="st2" d="M163.3,323.8H48.6 M167.9,328.2H44"/>
<polygon class="st21" points="44,328.2 44,238.2 48.6,242.7 48.6,323.7 "/>
<path class="st2" d="M48.6,323.8v-81 M44,328.2v-90"/>
<path class="st6" d="M122.9,306.9c-0.1-9.3-7.6-16.8-16.9-16.8H72.2c-9.3-0.7-17.4,6.2-18.1,15.6s6.2,17.4,15.6,18.1
	c0.9,0.1,1.7,0.1,2.6,0H106C115.3,323.8,122.9,316.2,122.9,306.9C122.9,306.9,122.9,306.9,122.9,306.9z"/>
<path class="st7" d="M122.9,306.9c-0.1-9.3-7.6-16.8-16.9-16.8H72.2c-9.3-0.7-17.4,6.2-18.1,15.6s6.2,17.4,15.6,18.1
	c0.9,0.1,1.7,0.1,2.6,0H106C115.3,323.8,122.9,316.2,122.9,306.9C122.9,306.9,122.9,306.9,122.9,306.9z"/>
<path class="st6" d="M120.6,306.5c0.1-7.1-5.2-13.1-12.2-13.9H70.2c-7.1,0.8-12.4,6.8-12.4,13.9v1.3c-0.1,7.1,5.3,13.2,12.4,13.9
	l1.4,0.2h35.3l1.5-0.2c7.1-0.8,12.3-6.8,12.2-13.9C120.6,307.8,120.6,306.5,120.6,306.5z"/>
<path class="st7" d="M120.6,306.5c0.1-7.1-5.2-13.1-12.2-13.9H70.2c-7.1,0.8-12.4,6.8-12.4,13.9v1.3c-0.1,7.1,5.3,13.2,12.4,13.9
	l1.4,0.2h35.3l1.5-0.2c7.1-0.8,12.3-6.8,12.2-13.9C120.6,307.8,120.6,306.5,120.6,306.5z M64.3,308.3c-0.6,0-1.1-0.5-1.1-1.1l0,0
	c-0.1-0.6,0.4-1.1,1-1.2c0,0,0.1,0,0.1,0 M64.3,306c0.7,0,1.2,0.5,1.2,1.2l0,0c-0.1,0.6-0.6,1.1-1.2,1.1"/>
<path class="st6" d="M61,306.9c0-0.3-0.3-0.5-0.6-0.5h-4.5c-0.3,0-0.6,0.2-0.6,0.5c0,0.3,0.3,0.6,0.6,0.6h0h4.5
	C60.7,307.5,61,307.2,61,306.9L61,306.9z"/>
<path class="st7" d="M61,306.9c0-0.3-0.3-0.5-0.6-0.5h-4.5c-0.3,0-0.6,0.2-0.6,0.5c0,0.3,0.3,0.6,0.6,0.6h0h4.5
	C60.7,307.5,61,307.2,61,306.9L61,306.9z M57,302.7v1.6 M56.2,303.5h1.6 M57,311.1v-1.7 M56.2,310.2h1.6"/>
<path class="st6" d="M69.1,245.5H58.7v18.2h10.8v-0.2h-0.4c5.5,0,10-4,9.9-9.1C78.9,249.3,74.5,245.7,69.1,245.5z"/>
<path class="st7" d="M69,245.5c-5.5,0-10,4.1-10,9s4.5,9,10,9 M69.1,245.5H58.7v18.2h10.8v-0.2h-0.4c5.5,0,10-4,9.9-9.1
	C78.9,249.3,74.5,245.7,69.1,245.5z"/>
<rect x="48.6" y="242.7" class="st0" width="9.7" height="23.6"/>
<path class="st7" d="M58.3,266.4v-23.6h-9.7v23.6H58.3 M57.8,265.8v-22.4H49 M49,243.4v22.4h8.8"/>
<rect x="58.3" y="259.4" class="st0" width="1.1" height="3.5"/>
<rect x="58.3" y="259.4" class="st7" width="1.1" height="3.5"/>
<path class="st6" d="M69,260.2c-3.6,0-6.5-2.5-6.5-5.7s2.9-5.5,6.5-5.5c3.6,0,6.5,2.5,6.5,5.5S72.6,260.2,69,260.2z"/>
<path class="st7" d="M69,260.2c-3.6,0-6.5-2.5-6.5-5.7s2.9-5.5,6.5-5.5c3.6,0,6.5,2.5,6.5,5.5S72.6,260.2,69,260.2"/>
<path class="st6" d="M133.1,318.7h20c2.3-2.6,3.5-5.9,3.5-9.4c0-7.8-6-14.2-13.6-14.2s-13.4,6.4-13.4,14.2
	C129.6,312.8,130.8,316.1,133.1,318.7z"/>
<path class="st7" d="M133.1,318.7h20c2.3-2.6,3.5-5.9,3.5-9.4c0-7.8-6-14.2-13.6-14.2s-13.4,6.4-13.4,14.2
	C129.6,312.8,130.8,316.1,133.1,318.7z"/>
<path class="st6" d="M153,307.3c-1.9,4.6-7.9,7-13.4,5.4c-2.8-0.8-5.2-2.8-6.4-5.4c-0.4-0.9-0.6-1.8-0.6-2.8c0-2.1,0.9-4.1,2.4-5.6
	c-2.4,2.2-4,5.2-4.4,8.4v1.7c0,2,0.4,3.9,1.2,5.7l1.4,1.5c0.9,1,2.2,1.6,3.5,1.6h12.8c1.3,0,2.6-0.6,3.5-1.6l1.4-1.5
	c0.8-1.8,1.2-3.7,1.2-5.7v-1.7c-0.4-3.2-2-6.2-4.4-8.4c1.5,1.5,2.4,3.5,2.4,5.6C153.6,305.5,153.4,306.4,153,307.3z"/>
<path class="st7" d="M153,307.3c-1.9,4.6-7.9,7-13.4,5.4c-2.8-0.8-5.2-2.8-6.4-5.4c-0.4-0.9-0.6-1.8-0.6-2.8c0-2.1,0.9-4.1,2.4-5.6
	c-2.4,2.2-4,5.2-4.4,8.4v1.7c0,2,0.4,3.9,1.2,5.7l1.4,1.5c0.9,1,2.2,1.6,3.5,1.6h12.8c1.3,0,2.6-0.6,3.5-1.6l1.4-1.5
	c0.8-1.8,1.2-3.7,1.2-5.7v-1.7c-0.4-3.2-2-6.2-4.4-8.4c1.5,1.5,2.4,3.5,2.4,5.6C153.6,305.5,153.4,306.4,153,307.3z"/>
<path class="st6" d="M153,307.3c0.4-0.9,0.6-1.8,0.6-2.8c0-2.1-0.9-4.1-2.4-5.6c-4.6-4.1-11.6-4.1-16.2,0c-1.5,1.5-2.4,3.5-2.4,5.6
	c0,1,0.2,1.9,0.6,2.8c1.9,4.6,7.9,7,13.4,5.4C149.4,311.9,151.8,309.9,153,307.3z"/>
<path class="st7" d="M144.2,307.5c0,0.6-0.4,1-1.2,1c-0.5,0.1-0.9-0.3-1-0.8c0-0.1,0-0.1,0-0.2c-0.1-0.5,0.3-1,0.9-1.1
	c0,0,0.1,0,0.1,0c0.6-0.1,1.1,0.4,1.2,1C144.2,307.4,144.2,307.5,144.2,307.5z M153,307.3c0.4-0.9,0.6-1.8,0.6-2.8
	c0-2.1-0.9-4.1-2.4-5.6c-4.6-4.1-11.6-4.1-16.2,0c-1.5,1.5-2.4,3.5-2.4,5.6c0,1,0.2,1.9,0.6,2.8c1.9,4.6,7.9,7,13.4,5.4
	C149.4,311.9,151.8,309.9,153,307.3z"/>
<rect x="142.5" y="310.8" class="st0" width="1.1" height="5.6"/>
<path class="st7" d="M143.6,310.8h-1v5.7h1V310.8 M140.2,315.5h-2 M139.2,316.6v-2.1 M148,315.5h-2.1 M146.9,316.6v-2.1"/>
<rect x="163.2" y="249.5" class="st0" width="4.8" height="38.3"/>
<rect x="163.2" y="249.5" class="st5" width="4.8" height="38.3"/>
<path class="st6" d="M163.3,287.8h1v-2.3h-1V287.8z M167.9,287.8h-1v-2.3h1V287.8z M167.9,249.5h-4.6v2.3h4.6V249.5z"/>
<rect x="163.3" y="249.5" class="st7" width="4.6" height="2.3"/>
<rect x="166.9" y="285.5" class="st7" width="1" height="2.3"/>
<rect x="163.3" y="285.5" class="st7" width="1" height="2.3"/>
<path class="st7" d="M167.9,287.8h-4.6 M167.9,249.5h-4.6"/>
<rect x="164.7" y="268.7" class="st0" width="1.7" height="33.7"/>
<rect x="164.7" y="268.7" class="st7" width="1.7" height="33.7"/>
<rect x="287" y="328.4" class="st22" width="4.6" height="182"/>
<rect x="287" y="328.1" class="st22" width="4.6" height="0.4"/>
<path class="st2" d="M289.3,510.5h2.3v-182 M289.3,510.5H287v-182"/>
<rect x="314" y="105.5" class="st22" width="4.6" height="106"/>
<rect x="314" y="211.4" class="st22" width="4.6" height="0.5"/>
<path class="st2" d="M318.6,211.5v-106h-2.3 M314,211.5v-106h2.3"/>
<rect x="291.6" y="515" class="st23" width="317.3" height="61.8"/>
<path d="M295.1,515.2h-3.6V515h3.5v0.2H295.1z M300.8,515.2h-3.7V515h3.6l0.2,0.2H300.8z M306.6,515.2h-3.7V515h3.6v0.2H306.6z
	 M312.4,515.2h-3.8l0.2-0.2h3.6L312.4,515.2L312.4,515.2z M318.1,515.2h-3.7V515h3.6v0.2H318.1z M323.9,515.2h-3.7V515h3.6v0.2
	H323.9z M329.6,515.2h-3.7V515h3.6l0.2,0.2H329.6z M335.4,515.2h-3.7V515h3.6L335.4,515.2L335.4,515.2z M341.2,515.2h-3.8l0.2-0.2
	h3.6L341.2,515.2L341.2,515.2z M346.9,515.2h-3.7V515h3.6v0.2H346.9z M352.7,515.2H349V515h3.7L352.7,515.2L352.7,515.2z
	 M358.4,515.2h-3.7V515h3.6l0.2,0.2H358.4z M364.2,515.2h-3.7V515h3.6v0.2H364.2z M370,515.2h-3.8l0.2-0.2h3.6L370,515.2L370,515.2z
	 M375.7,515.2H372V515h3.7L375.7,515.2L375.7,515.2z M381.5,515.2h-3.7V515h3.6v0.2H381.5z M387.2,515.2h-3.7V515h3.6l0.2,0.2H387.2
	z M393,515.2h-3.7V515h3.6v0.2H393z M398.8,515.2H395l0.2-0.2h3.6L398.8,515.2L398.8,515.2z M404.5,515.2h-3.7V515h3.6v0.2H404.5z
	 M410.3,515.2h-3.7V515h3.6v0.2H410.3z M416,515.2h-3.7V515h3.6l0.2,0.2H416z M421.8,515.2h-3.7V515h3.6v0.2H421.8z M427.6,515.2
	h-3.8l0.2-0.2h3.6L427.6,515.2L427.6,515.2z M433.3,515.2h-3.7V515h3.6v0.2H433.3z M439.1,515.2h-3.7V515h3.6v0.2H439.1z
	 M444.8,515.2h-3.7V515h3.6l0.2,0.2H444.8z M450.6,515.2h-3.7V515h3.6v0.2H450.6z M456.4,515.2h-3.8l0.2-0.2h3.6L456.4,515.2
	L456.4,515.2z M462.1,515.2h-3.7V515h3.6v0.2H462.1z M467.9,515.2h-3.7V515h3.6v0.2H467.9z M473.6,515.2h-3.7V515h3.6l0.2,0.2H473.6
	z M479.4,515.2h-3.7V515h3.6L479.4,515.2L479.4,515.2z M485.2,515.2h-3.8l0.2-0.2h3.6L485.2,515.2L485.2,515.2z M490.9,515.2h-3.7
	V515h3.6v0.2H490.9z M496.7,515.2H493V515h3.7L496.7,515.2L496.7,515.2z M502.4,515.2h-3.7V515h3.6l0.2,0.2H502.4z M508.2,515.2
	h-3.7V515h3.6v0.2H508.2z M514,515.2h-3.8l0.2-0.2h3.6V515.2z M519.7,515.2H516V515h3.7L519.7,515.2L519.7,515.2z M525.5,515.2h-3.7
	V515h3.6v0.2H525.5z M531.2,515.2h-3.7V515h3.6L531.2,515.2L531.2,515.2z M537,515.2h-3.7V515h3.6v0.2H537z M542.8,515.2H539
	l0.2-0.2h3.6V515.2z M548.5,515.2h-3.7V515h3.6v0.2H548.5z M554.3,515.2h-3.7V515h3.6v0.2H554.3z M560,515.2h-3.7V515h3.6L560,515.2
	L560,515.2z M565.8,515.2h-3.7V515h3.6v0.2H565.8z M571.6,515.2h-3.8l0.2-0.2h3.6V515.2z M577.3,515.2h-3.7V515h3.6v0.2H577.3z
	 M583.1,515.2h-3.7V515h3.6v0.2H583.1z M588.8,515.2h-3.7V515h3.6L588.8,515.2L588.8,515.2z M594.6,515.2h-3.7V515h3.6v0.2H594.6z
	 M600.4,515.2h-3.8l0.2-0.2h3.6V515.2z M606.1,515.2h-3.7V515h3.6v0.2H606.1z M608.8,518.1v-3h-0.6v-0.2h0.6V518.1h-0.2H608.8z
	 M608.8,523.8v-3.6h0.2v3.6H608.8z M608.8,529.6V526h0.2v3.6L608.8,529.6L608.8,529.6z M608.8,535.3v-3.6h0.2v3.6H608.8z
	 M608.8,541.1v-3.6h0.2v3.6H608.8z M608.8,546.9L608.8,546.9h-0.2H608.8z M608.8,552.6V549h0.2v3.6L608.8,552.6L608.8,552.6z
	 M608.8,558.4v-3.6h0.2v3.6H608.8z M608.8,564.1v-3.6h0.2v3.6H608.8z M608.8,569.9v-3.6h0.2v3.6H608.8z M608.8,575.7L608.8,575.7
	h-0.2H608.8z M604.3,576.7h3.6v0.2h-3.8L604.3,576.7z M598.6,576.7h3.6v0.2h-3.9L598.6,576.7z M592.8,576.7h3.6v0.2h-3.7
	L592.8,576.7z M587,576.7h3.6l0.2,0.2h-3.9L587,576.7z M581.3,576.7h3.6v0.2h-3.8L581.3,576.7z M575.5,576.7h3.6v0.2h-3.8
	L575.5,576.7z M569.8,576.7h3.6v0.2h-3.9L569.8,576.7z M564,576.7h3.6v0.2h-3.8L564,576.7z M558.2,576.7h3.6l0.2,0.2h-3.9
	L558.2,576.7z M552.5,576.7h3.6v0.2h-3.8L552.5,576.7z M546.7,576.7h3.6v0.2h-3.8L546.7,576.7z M541,576.7h3.6v0.2h-3.9L541,576.7z
	 M535.2,576.7h3.6v0.2H535L535.2,576.7z M529.4,576.7h3.6l0.2,0.2h-3.9L529.4,576.7z M523.7,576.7h3.6v0.2h-3.8L523.7,576.7z
	 M517.9,576.7h3.6v0.2h-3.8L517.9,576.7z M512.2,576.7h3.6v0.2h-3.9L512.2,576.7z M506.4,576.7h3.6v0.2h-3.8L506.4,576.7z
	 M500.6,576.7h3.6l0.2,0.2h-3.9L500.6,576.7z M494.9,576.7h3.6v0.2h-3.8L494.9,576.7z M489.1,576.7h3.6v0.2h-3.8L489.1,576.7z
	 M483.4,576.7h3.6v0.2h-3.9L483.4,576.7z M477.6,576.7h3.6v0.2h-3.8L477.6,576.7z M471.8,576.7h3.6l0.2,0.2h-3.9L471.8,576.7z
	 M466.1,576.7h3.6v0.2h-3.8L466.1,576.7z M460.3,576.7h3.6v0.2h-3.8L460.3,576.7z M454.6,576.7h3.6v0.2h-3.9L454.6,576.7z
	 M448.8,576.7h3.6v0.2h-3.7L448.8,576.7z M443,576.7h3.6l0.2,0.2h-3.9L443,576.7z M437.3,576.7h3.6v0.2h-3.8L437.3,576.7z
	 M431.5,576.7h3.6v0.2h-3.8L431.5,576.7z M425.8,576.7h3.6v0.2h-3.9L425.8,576.7z M420,576.7h3.6v0.2h-3.8L420,576.7z M414.2,576.7
	h3.6l0.2,0.2h-3.9L414.2,576.7z M408.5,576.7h3.6v0.2h-3.8L408.5,576.7z M402.7,576.7h3.6v0.2h-3.8L402.7,576.7z M397,576.7h3.6v0.2
	h-3.9L397,576.7z M391.2,576.7h3.6v0.2H391L391.2,576.7z M385.4,576.7h3.6l0.2,0.2h-3.9L385.4,576.7z M379.7,576.7h3.6v0.2h-3.8
	L379.7,576.7z M373.9,576.7h3.6v0.2h-3.8L373.9,576.7z M368.2,576.7h3.6v0.2h-3.9L368.2,576.7z M362.4,576.7h3.6v0.2h-3.8
	L362.4,576.7z M356.6,576.7h3.6l0.2,0.2h-3.9L356.6,576.7z M350.9,576.7h3.6v0.2h-3.8L350.9,576.7z M345.1,576.7h3.6v0.2h-3.8
	L345.1,576.7z M339.4,576.7h3.6v0.2h-3.9L339.4,576.7z M333.6,576.7h3.6v0.2h-3.8L333.6,576.7z M327.8,576.7h3.6l0.2,0.2h-3.9
	L327.8,576.7z M322.1,576.7h3.6v0.2h-3.8L322.1,576.7z M316.3,576.7h3.6v0.2h-3.8L316.3,576.7z M310.6,576.7h3.6v0.2h-3.9
	L310.6,576.7z M304.8,576.7h3.6v0.2h-3.7L304.8,576.7z M299,576.7h3.6l0.2,0.2h-3.9L299,576.7z M293.3,576.7h3.6v0.2h-3.8
	L293.3,576.7z M291.7,572.9v3.6h-0.2v-3.6H291.7z M291.7,567.1L291.7,567.1h0.2H291.7z M291.7,561.4v3.6h-0.2v-3.6H291.7z
	 M291.7,555.6v3.6h-0.2v-3.6H291.7z M291.7,549.9v3.6h-0.2v-3.6H291.7z M291.7,544.1v3.6h-0.2v-3.6H291.7z M291.7,538.3L291.7,538.3
	h0.2H291.7z M291.7,532.6v3.6h-0.2v-3.6H291.7z M291.7,526.8v3.6h-0.2v-3.6H291.7z M291.7,521.1v3.6h-0.2v-3.6H291.7z M291.7,515.3
	v3.6h-0.2v-3.6H291.7z"/>
<polygon class="st21" points="696.6,103.2 697.2,512.7 692.6,512.7 692,103.2 "/>
<path class="st2" d="M694.3,103.2H692l0.6,409.6h2.3 M694.3,103.2h2.3l0.6,409.6h-2.3"/>
<polygon class="st21" points="696.7,235.1 858.6,234.8 858.6,239.4 696.8,239.6 "/>
<polygon class="st21" points="696.8,239.6 696.7,235.1 696.3,235.1 696.3,239.6 "/>
<path class="st2" d="M696.8,239.7l161.8-0.3v-2.3 M696.7,235.1l161.9-0.2v2.2"/>
<polygon class="st21" points="696.9,367.1 858.7,366.8 858.7,371.4 696.9,371.5 "/>
<rect x="696.5" y="367.1" class="st22" width="0.5" height="4.4"/>
<path class="st2" d="M697,371.5h161.7v-2.3 M697,367.2l161.7-0.2v2.2"/>
<rect x="286.9" y="368.7" class="st0" width="4.8" height="85.4"/>
<rect x="286.9" y="368.7" class="st5" width="4.8" height="85.4"/>
<path class="st6" d="M291.6,454.2H287v-2.1h4.6V454.2z M291.6,368.8H287v2.3h4.6V368.8z"/>
<rect x="287" y="368.7" class="st7" width="4.6" height="2.3"/>
<rect x="287" y="452" class="st7" width="4.6" height="2.2"/>
<path class="st7" d="M291.6,454.2H287 M291.6,368.8H287"/>
<rect x="167.9" y="238.2" class="st22" width="99" height="4.6"/>
<rect x="167.4" y="238.2" class="st22" width="0.5" height="4.6"/>
<rect x="266.9" y="238.2" class="st22" width="0.4" height="4.6"/>
<path class="st2" d="M167.9,242.8h99 M167.9,238.2h99"/>
<rect x="208.3" y="238.1" class="st0" width="48.4" height="4.8"/>
<rect x="208.3" y="238.1" class="st5" width="48.4" height="4.8"/>
<path class="st6" d="M208.3,242.8v-4.6h2.3v4.6H208.3z M256.7,242.8v-4.6h-2.2v4.6H256.7z"/>
<path class="st7" d="M210.6,241.7v1.1h-2.3 M208.3,242.8v-4.6h2.3v1.8 M254.5,241.7v1.1h2.2 M256.7,242.8v-4.6h-2.2v1.8"/>
<path class="st6" d="M210.6,240h0.6v1.7h-0.6V240z M254.5,240h-0.6v1.7h0.6V240z"/>
<path class="st7" d="M210.6,240h0.6v1.7h-0.6 M254.5,240h-0.6v1.7h0.6"/>
<path class="st7" d="M208.3,242.8v-4.6 M256.7,242.8v-4.6"/>
<path class="st7" d="M210.6,238.2c0.1-24.2,19.7-43.8,43.9-43.8"/>
<rect x="252.8" y="194.4" class="st0" width="1.7" height="43.8"/>
<rect x="252.8" y="194.4" class="st7" width="1.7" height="43.8"/>
<polygon class="st6" points="692,183.1 692.1,231.5 696.9,231.5 696.8,183.1 "/>
<polygon class="st5" points="692,183.1 692.1,231.5 696.9,231.5 696.8,183.1 "/>
<path class="st6" d="M692.2,183.1h4.5v2.3h-4.5V183.1z M692.3,231.5h4.4v-2.3h-4.4V231.5z"/>
<path class="st7" d="M693.4,185.4h-1.2v-2.3 M692.2,183.1h4.5v2.3H695 M693.4,229.2h-1.1v2.3 M692.3,231.5h4.4v-2.3H695"/>
<path class="st6" d="M695,185.4v0.5h-1.6v-0.5H695z M695,229.2v-0.5h-1.6v0.5H695z"/>
<path class="st7" d="M695,185.4v0.5h-1.6v-0.5 M695,229.2v-0.5h-1.6v0.5"/>
<path class="st7" d="M692.2,183.1h4.5 M692.3,231.5h4.4"/>
<path class="st7" d="M696.7,185.4c24.1-0.1,43.8,19.4,43.9,43.5c0,0.1,0,0.2,0,0.3"/>
<rect x="696.7" y="227.5" class="st0" width="43.9" height="1.7"/>
<rect x="696.7" y="227.5" class="st7" width="43.9" height="1.7"/>
<rect x="692.3" y="312.5" class="st0" width="4.8" height="48.4"/>
<rect x="692.3" y="312.5" class="st5" width="4.8" height="48.4"/>
<path class="st6" d="M692.4,312.5h4.4v2.3h-4.4V312.5z M692.4,360.9h4.6v-2.2h-4.6V360.9z"/>
<path class="st7" d="M693.5,314.8h-1.1v-2.3 M692.4,312.5h4.4v2.3h-1.6 M693.6,358.7h-1.2v2.2 M692.4,360.9h4.6v-2.2h-1.7"/>
<path class="st6" d="M695.2,314.8v0.6h-1.7v-0.6H695.2z M695.3,358.7v-0.6h-1.7v0.6H695.3z"/>
<path class="st7" d="M695.2,314.8v0.6h-1.7v-0.6 M695.3,358.7v-0.6h-1.7v0.6"/>
<path class="st7" d="M692.4,312.5h4.4 M692.4,360.9h4.6"/>
<path class="st7" d="M696.8,314.8c24.3-0.1,44,19.5,44.1,43.8"/>
<polygon class="st6" points="740.7,356.9 696.9,357 696.9,358.7 740.9,358.5 "/>
<polygon class="st7" points="740.7,356.9 696.9,357 696.9,358.7 740.9,358.5 "/>
<polygon class="st6" points="692.4,422.7 692.3,374.4 697.1,374.4 697.2,422.7 "/>
<polygon class="st5" points="692.4,422.7 692.3,374.4 697.1,374.4 697.2,422.7 "/>
<path class="st6" d="M692.5,422.8h4.6v-2.3h-4.6V422.8z M692.5,374.4h4.5v2.3h-4.5V374.4z"/>
<path class="st7" d="M693.6,420.5h-1.1v2.3 M692.5,422.8h4.6v-2.3h-1.7 M693.6,376.7h-1.1v-2.3 M692.5,374.4h4.5v2.3h-1.7"/>
<path class="st6" d="M695.4,420.5v-0.6h-1.8v0.6H695.4z M695.3,376.7v0.5h-1.7v-0.5H695.3z"/>
<path class="st7" d="M695.4,420.5v-0.6h-1.8v0.6 M695.3,376.7v0.5h-1.7v-0.5"/>
<path class="st7" d="M692.5,422.8h4.6 M692.5,374.4h4.5"/>
<path class="st7" d="M697.1,420.5c23.6-0.1,42.9-18.8,43.8-42.4"/>
<polygon class="st6" points="740.7,379.8 696.9,378.3 696.9,376.7 740.9,378.1 "/>
<polygon class="st7" points="740.7,379.8 696.9,378.3 696.9,376.7 740.9,378.1 "/>
<path d="M30.8,27.9c-1.5-0.3-3-1-4.2-2c-0.9-0.7-1.4-1.8-1.4-3c0-1.3,0.6-2.5,1.7-3.3c1.1-1,2.6-1.5,4.1-1.4c1.1,0,2.2,0.2,3.2,0.7
	c0.9,0.4,1.6,1.1,2.1,1.9c0.5,0.8,0.8,1.7,0.8,2.6h-2.3c0-0.9-0.3-1.8-1-2.4C33,20.3,32,20,31,20.1c-0.9-0.1-1.8,0.2-2.6,0.7
	c-0.6,0.5-0.9,1.3-0.9,2.1c0,0.7,0.3,1.3,0.9,1.7c0.9,0.6,1.9,1.1,3,1.3c1.2,0.3,2.3,0.8,3.3,1.4c0.7,0.4,1.3,0.9,1.8,1.6
	c0.4,0.7,0.6,1.5,0.6,2.3c0.1,1.3-0.5,2.5-1.6,3.3c-1.2,0.9-2.8,1.4-4.3,1.3c-1.1,0-2.3-0.2-3.3-0.7c-0.9-0.4-1.8-1-2.4-1.8
	c-0.5-0.8-0.8-1.7-0.8-2.7H27c-0.1,0.9,0.4,1.8,1.1,2.4c0.9,0.6,2,1,3.1,0.9c1,0.1,1.9-0.2,2.7-0.7c1.1-1,1.2-2.7,0.2-3.8
	c0,0-0.1-0.1-0.1-0.1C33,28.7,31.9,28.2,30.8,27.9z"/>
<path d="M44.9,35.8c-1.6,0-3.1-0.6-4.2-1.7c-1.1-1.2-1.7-2.8-1.6-4.5v-0.4c0-1.2,0.2-2.3,0.7-3.4c0.4-0.9,1.1-1.7,2-2.3
	c0.8-0.6,1.8-0.9,2.8-0.9c1.5-0.1,2.9,0.6,3.9,1.7c1,1.3,1.5,2.9,1.4,4.6v0.9h-8.6c0,1.1,0.4,2.2,1.1,3.1C43.1,33.6,44,34,45,34
	c0.7,0.1,1.4-0.1,2-0.5c0.5-0.3,1-0.7,1.4-1.2l1.3,1C48.7,34.9,46.8,35.9,44.9,35.8z M44.6,24.4c-0.8,0-1.7,0.4-2.2,1
	c-0.6,0.7-1,1.6-1.1,2.6h6.4c0-0.9-0.3-1.8-0.9-2.6C46.3,24.8,45.4,24.4,44.6,24.4z"/>
<path d="M57.5,34c0.7,0,1.4-0.2,2-0.7c0.6-0.4,0.9-1.1,1-1.8h2c0,0.8-0.3,1.5-0.7,2.1c-0.5,0.7-1.1,1.2-1.9,1.6
	c-0.7,0.4-1.6,0.6-2.4,0.6c-1.5,0.1-3-0.6-4.1-1.7c-1.1-1.4-1.7-3.1-1.6-4.8V29c0-1.1,0.2-2.3,0.7-3.3c0.9-1.9,2.9-3.2,5-3.1
	c1.3,0,2.5,0.4,3.5,1.3c1,0.8,1.5,2,1.5,3.3h-2c-0.1-0.7-0.4-1.5-0.9-2c-0.6-0.5-1.3-0.8-2.1-0.8c-1,0-2,0.4-2.6,1.2
	c-0.7,1-1,2.2-0.9,3.4v0.5c-0.1,1.2,0.3,2.3,0.9,3.3C55.5,33.6,56.5,34,57.5,34z"/>
<path d="M64.3,29.1c0-1.2,0.3-2.3,0.8-3.4c0.4-0.9,1.1-1.7,2-2.3c0.9-0.5,1.9-0.8,3-0.8c1.6-0.1,3.1,0.6,4.2,1.8
	c1.1,1.3,1.7,3.1,1.6,4.8l0,0c0,1.2-0.2,2.3-0.7,3.4c-0.5,0.9-1.2,1.7-2,2.3c-0.9,0.5-2,0.8-3.1,0.8c-1.6,0.1-3.1-0.5-4.2-1.7
	c-1.1-1.4-1.7-3.1-1.6-4.8V29.1z M66.5,29.3c-0.1,1.2,0.3,2.4,1,3.4c0.6,0.9,1.6,1.3,2.6,1.3c1.1,0,2.1-0.4,2.7-1.3
	c0.7-1.1,1-2.3,0.9-3.6c0.1-1.2-0.3-2.4-1-3.4c-0.6-0.9-1.6-1.4-2.6-1.3c-1,0-2,0.4-2.6,1.3C66.8,26.8,66.5,28,66.5,29.3z"/>
<path d="M80.7,22.9v1.6c0.9-1.2,2.3-2,3.8-1.9c2.7,0,4,1.5,4,4.6v8.3h-2v-8.3c0-0.8-0.2-1.5-0.7-2.1c-0.5-0.5-1.2-0.7-1.9-0.6
	c-0.6,0-1.3,0.2-1.8,0.5c-0.6,0.4-1,0.9-1.3,1.5v9h-2.1V22.9H80.7z"/>
<path d="M91.3,29.1c-0.1-1.7,0.4-3.3,1.3-4.7c0.9-1.1,2.3-1.8,3.7-1.8c1.4,0,2.7,0.5,3.5,1.6v-6.7h2.2v18h-2v-1.3
	c-0.9,1.1-2.3,1.6-3.7,1.6c-1.5,0-2.8-0.6-3.7-1.8c-0.9-1.4-1.4-3-1.3-4.7V29.1z M93.4,29.3c-0.1,1.2,0.2,2.4,0.9,3.4
	c0.6,0.8,1.5,1.3,2.5,1.2c1.3,0,2.4-0.7,3-1.8v-5.8c-0.6-1.1-1.7-1.8-3-1.8c-1-0.1-1.9,0.4-2.5,1.2C93.6,26.8,93.3,28,93.4,29.3z"/>
<path d="M121,28h-7.2v7.5h-2.3v-17h10.6v1.8h-8.3v5.9h7.2V28z"/>
<path d="M126.8,35.5h-2.1v-18h2.1V35.5z"/>
<path d="M129.7,29.1c0-1.2,0.3-2.3,0.8-3.4c0.4-1,1.1-1.8,2-2.3c0.9-0.5,1.9-0.8,3-0.8c1.6-0.1,3.1,0.6,4.2,1.8
	c1.1,1.4,1.7,3.1,1.6,4.8l0,0c0,1.2-0.2,2.3-0.7,3.4c-0.5,0.9-1.2,1.7-2.1,2.3c-0.9,0.5-1.9,0.8-3,0.8c-1.6,0.1-3.1-0.6-4.2-1.8
	C130.2,32.5,129.6,30.8,129.7,29.1z M131.9,29.3c-0.1,1.2,0.3,2.4,1,3.4c1,1.4,3,1.8,4.5,0.7c0.3-0.2,0.5-0.5,0.7-0.7
	c0.7-1,1.1-2.3,1-3.6c0.1-1.2-0.3-2.4-1-3.4c-0.6-0.9-1.6-1.3-2.6-1.3c-1-0.1-2,0.4-2.6,1.3C132.2,26.7,131.8,28,131.9,29.3z"/>
<path d="M143.5,29.1c0-1.2,0.2-2.3,0.7-3.4c0.5-0.9,1.2-1.7,2-2.3c0.9-0.5,1.9-0.8,3-0.8c1.6-0.1,3.1,0.6,4.2,1.8
	c1.1,1.3,1.7,3.1,1.6,4.8l0,0c0,1.2-0.2,2.3-0.7,3.4c-0.5,0.9-1.2,1.7-2,2.3c-0.9,0.5-2,0.8-3.1,0.8c-1.6,0.1-3.1-0.6-4.1-1.8
	C144,32.6,143.4,30.8,143.5,29.1L143.5,29.1z M145.6,29.3c-0.1,1.2,0.3,2.4,1,3.4c0.6,0.9,1.6,1.3,2.6,1.3c1.1,0,2.1-0.4,2.7-1.3
	c0.7-1.1,1-2.3,0.9-3.6c0.1-1.2-0.3-2.4-1-3.4c-0.6-0.9-1.6-1.4-2.6-1.3c-1,0-2,0.4-2.6,1.3C145.9,26.8,145.6,28,145.6,29.3
	L145.6,29.3z"/>
<path d="M163.9,24.8h-1.1c-1.3-0.1-2.4,0.6-2.9,1.8v9h-2.1V22.9h2.1v1.4c0.6-1.1,1.8-1.7,3-1.7c0.3,0,0.7,0.1,1,0.2V24.8z"/>
<path d="M96.6,421.5l-2.1,2.1v5.8h-2.3v-17.1h2.3v8.5l7.6-8.5h2.7l-6.7,7.6l7.2,9.5h-2.7L96.6,421.5z"/>
<path d="M106.9,413.3c0-0.3,0.2-0.6,0.4-0.8c0.2-0.3,0.6-0.4,0.9-0.4c0.4,0,0.7,0.1,1,0.4c0.2,0.2,0.3,0.5,0.3,0.8
	c0,0.3-0.1,0.7-0.3,0.9c-0.3,0.3-0.6,0.4-1,0.4c-0.3,0-0.7-0.1-0.9-0.4C107.1,414,106.9,413.6,106.9,413.3z M109.3,429.4h-2.2v-12.7
	h2.2V429.4z"/>
<path d="M115.7,413.6v3.1h2.4v1.7h-2.4v7.9c0,0.4,0.1,0.8,0.3,1.1c0.3,0.3,0.7,0.5,1.1,0.4l1-0.2v1.8l-1.6,0.2
	c-0.8,0.1-1.6-0.3-2.2-0.9c-0.6-0.7-0.9-1.6-0.8-2.5v-7.8h-2.3v-1.7h2.3v-3.1H115.7z"/>
<path d="M125.6,427.9c0.7,0,1.5-0.3,2-0.8c0.6-0.4,0.9-1,1-1.7h2c-0.1,0.7-0.3,1.5-0.7,2.1c-0.5,0.6-1.2,1.1-1.9,1.5
	c-0.7,0.4-1.6,0.6-2.4,0.6c-1.5,0.1-3-0.6-4.1-1.7c-1.1-1.3-1.7-3-1.6-4.7v-0.4c0-1.1,0.3-2.3,0.7-3.3c0.9-1.9,2.9-3.1,5-3
	c1.3-0.1,2.5,0.4,3.5,1.2c1,0.8,1.5,2.1,1.5,3.4h-2c-0.1-0.8-0.4-1.6-1-2.1c-0.5-0.5-1.3-0.7-2-0.7c-1,0-1.9,0.4-2.6,1.1
	c-0.7,1-1,2.3-0.9,3.5v0.4c-0.1,1.2,0.2,2.4,0.9,3.4C123.6,427.5,124.6,427.9,125.6,427.9z"/>
<path d="M135.4,418.2c1-1.1,2.3-1.7,3.8-1.7c2.6,0,4,1.5,4,4.5v8.4H141V421c0.1-0.7-0.1-1.4-0.6-2c-0.5-0.5-1.2-0.8-1.9-0.7
	c-0.7,0-1.3,0.2-1.9,0.6c-0.5,0.4-1,0.9-1.2,1.5v9h-2.2v-18h2.2L135.4,418.2z"/>
<path d="M151.6,429.6c-1.6,0.1-3.1-0.5-4.2-1.7c-1.1-1.2-1.7-2.8-1.6-4.5V423c0-1.2,0.2-2.3,0.7-3.4c0.5-0.9,1.2-1.7,2-2.3
	c0.8-0.5,1.8-0.8,2.8-0.8c1.5-0.1,2.9,0.5,3.9,1.6c1,1.4,1.4,3,1.3,4.7v0.9h-8.6c0,1.1,0.4,2.1,1.1,3c0.7,0.8,1.7,1.2,2.7,1.2
	c1.4,0,2.6-0.7,3.4-1.8l1.3,1.1C155.3,428.8,153.5,429.7,151.6,429.6z M151.3,418.3c-0.8,0-1.6,0.3-2.2,0.9c-0.6,0.8-1,1.7-1.1,2.7
	h6.4v-0.2c0-0.9-0.3-1.8-0.9-2.5C152.9,418.6,152.1,418.3,151.3,418.3L151.3,418.3z"/>
<path d="M161.1,416.7v1.6c0.9-1.2,2.3-1.8,3.8-1.8c2.7,0,4,1.5,4.1,4.5v8.4h-2.2V421c0.1-0.7-0.1-1.4-0.6-2
	c-0.5-0.5-1.2-0.8-1.9-0.7c-1.4,0-2.6,0.8-3.1,2.1v9H159v-12.7H161.1z"/>
<path d="M186.1,429.4c-0.2-0.4-0.3-0.8-0.3-1.3c-1,1-2.3,1.5-3.7,1.5c-1.1,0-2.2-0.3-3-1c-0.8-0.7-1.2-1.7-1.2-2.7
	c-0.1-1.2,0.5-2.4,1.5-3.1c1.3-0.8,2.7-1.2,4.2-1.1h2.1v-1c0.1-0.7-0.2-1.3-0.7-1.8c-0.5-0.5-1.3-0.8-2-0.7c-0.7,0-1.3,0.2-1.9,0.6
	c-0.5,0.3-0.8,0.8-0.8,1.4h-2.2c0-0.7,0.3-1.3,0.7-1.8c0.5-0.6,1.1-1.1,1.8-1.4c0.8-0.4,1.7-0.5,2.6-0.5c1.2-0.1,2.5,0.3,3.4,1.1
	c0.9,0.8,1.3,1.9,1.3,3v5.8c-0.1,1,0.1,1.9,0.4,2.8v0.2H186.1z M182.5,427.7c0.7,0,1.3-0.1,1.9-0.5c0.6-0.3,1-0.8,1.3-1.4v-2.6H184
	c-2.6,0-4,0.8-4,2.4c0,0.6,0.3,1.2,0.7,1.6C181.2,427.5,181.9,427.7,182.5,427.7L182.5,427.7z"/>
<path d="M193.4,416.7v1.6c0.9-1.2,2.3-1.8,3.8-1.8c2.7,0,4.1,1.5,4.1,4.5v8.4h-2.2V421c0.1-0.7-0.1-1.4-0.6-2
	c-0.5-0.5-1.2-0.8-1.9-0.7c-0.7,0-1.3,0.2-1.9,0.6c-0.5,0.4-1,0.9-1.2,1.5v9h-2.2v-12.7H193.4z"/>
<path d="M204.1,422.9c-0.1-1.7,0.4-3.3,1.4-4.7c0.9-1.1,2.2-1.7,3.6-1.7c1.4-0.1,2.7,0.5,3.6,1.5v-6.6h2.1v18h-2V428
	c-1.7,1.9-4.7,2.1-6.6,0.4c-0.2-0.2-0.4-0.4-0.6-0.6c-1-1.4-1.5-3-1.4-4.7L204.1,422.9z M206.3,423.2c-0.1,1.2,0.3,2.4,0.9,3.4
	c0.6,0.8,1.5,1.2,2.4,1.2c1.3,0,2.5-0.7,3.1-1.9v-5.8c-0.6-1.1-1.7-1.8-3-1.8c-1-0.1-1.9,0.4-2.5,1.2
	C206.5,420.6,206.2,421.9,206.3,423.2L206.3,423.2z"/>
<path d="M226.7,422.7v6.7h-2.3v-17.1h6.3c1.6-0.1,3.2,0.4,4.4,1.5c1.1,0.9,1.7,2.3,1.6,3.7c0.1,1.5-0.5,2.9-1.6,3.9
	c-1.3,1-2.8,1.4-4.4,1.3L226.7,422.7z M226.7,420.9h4c1,0.1,2-0.3,2.8-0.9c0.6-0.6,0.9-1.5,0.9-2.4c0.1-0.9-0.3-1.8-0.9-2.5
	c-0.7-0.6-1.7-1-2.7-0.9h-4.1V420.9z"/>
<path d="M246.9,429.4c-0.1-0.4-0.2-0.9-0.3-1.3c-0.9,1-2.2,1.5-3.6,1.5c-1.1,0.1-2.2-0.3-3.1-1c-0.8-0.7-1.2-1.7-1.2-2.7
	c-0.1-1.2,0.5-2.4,1.5-3.1c1.3-0.8,2.8-1.2,4.3-1.1h2.1v-1c0-0.7-0.2-1.3-0.7-1.8c-0.5-0.5-1.3-0.8-2-0.7c-0.7,0-1.4,0.2-2,0.6
	c-0.5,0.3-0.8,0.8-0.8,1.4H239c0-0.6,0.2-1.3,0.6-1.8c0.5-0.6,1.2-1.1,1.9-1.4c0.8-0.4,1.6-0.5,2.5-0.5c1.2-0.1,2.5,0.3,3.4,1.1
	c0.9,0.7,1.4,1.8,1.3,3v5.8c0,1,0.1,1.9,0.5,2.8v0.2H246.9z M243.3,427.7c0.7,0,1.3-0.1,1.9-0.5c0.6-0.3,1.1-0.8,1.4-1.4v-2.6h-1.7
	c-2.7,0-4,0.8-4,2.4c0,0.6,0.2,1.2,0.7,1.6C242.1,427.5,242.7,427.7,243.3,427.7L243.3,427.7z"/>
<path d="M254.2,416.7v1.6c0.9-1.2,2.3-1.9,3.8-1.8c2.6,0,4,1.5,4,4.5v8.4h-2.1V421c0-0.7-0.3-1.4-0.7-2c-0.5-0.5-1.2-0.8-1.9-0.7
	c-1.3,0.1-2.5,0.9-3.1,2.1v9h-2.1v-12.7H254.2z"/>
<path d="M268.4,413.6v3.1h2.4v1.7h-2.4v7.9c0,0.4,0.1,0.8,0.3,1.1c0.3,0.3,0.7,0.4,1.1,0.4l1.1-0.2v1.8l-1.7,0.2
	c-0.8,0.1-1.6-0.3-2.2-0.9c-0.5-0.7-0.8-1.6-0.7-2.5v-7.8H264v-1.7h2.3v-3.1H268.4z"/>
<path d="M279.4,418.7h-1.1c-1.3-0.1-2.4,0.6-2.9,1.8v9h-2.2v-12.8h2.1v1.5c0.6-1.1,1.8-1.8,3-1.7h1L279.4,418.7z"/>
<path d="M285.5,426.2l3-9.5h2.3l-5.1,14.6c-0.8,2.2-2,3.2-3.8,3.2h-0.4l-0.8-0.2v-1.7h0.6c0.6,0,1.2-0.1,1.7-0.4
	c0.5-0.4,0.9-1,1-1.7l0.5-1.3l-4.5-12.5h2.4L285.5,426.2z"/>
<path class="st24" d="M388.9,361.6h9v-2.7h-9V361.6z M397.9,361.6h9v-2.7h-9V361.6z M406.9,361.6h9v-2.7h-9V361.6z M415.9,361.6h9
	v-2.7h-9V361.6z M424.9,361.6h9v-2.7h-9V361.6z M433.9,361.6h9v-2.7h-9V361.6z M442.9,361.6h9v-2.7h-9V361.6z M451.9,361.6h9v-2.7
	h-9V361.6z M460.9,361.6h9v-2.7h-9V361.6z M388.9,358.9h4.5v-2.7h-4.5V358.9z M456.4,358.9h9v-2.7h-9V358.9z M465.4,358.9h4.5v-2.7
	h-4.5V358.9z M447.4,358.9h9v-2.7h-9V358.9z M438.4,358.9h9v-2.7h-9V358.9z M429.4,358.9h9v-2.7h-9V358.9z M420.4,358.9h9v-2.7h-9
	V358.9z M411.4,358.9h9v-2.7h-9V358.9z M402.4,358.9h9v-2.7h-9V358.9z M393.4,358.9h9v-2.7h-9V358.9z M406.9,356.2h9v-2.8h-9V356.2z
	 M415.9,356.2h9v-2.8h-9V356.2z M424.9,356.2h9v-2.8h-9V356.2z M433.9,356.2h9v-2.8h-9V356.2z M442.9,356.2h9v-2.8h-9V356.2z
	 M447.4,353.4h9v-2.7h-9V353.4z M438.4,353.4h9v-2.7h-9V353.4z M429.4,353.4h9v-2.7h-9V353.4z M420.4,353.4h9v-2.7h-9V353.4z
	 M411.4,353.4h9v-2.7h-9V353.4z M402.4,353.4h9v-2.7h-9V353.4z M406.9,350.7h9v-2.8h-9V350.7z M415.9,350.7h9v-2.8h-9V350.7z
	 M424.9,350.7h9v-2.8h-9V350.7z M433.9,350.7h9v-2.8h-9V350.7z M442.9,350.7h9v-2.8h-9V350.7z M438.4,347.9h9v-2.6h-9V347.9z
	 M429.4,347.9h9v-2.6h-9V347.9z M420.4,347.9h9v-2.6h-9V347.9z M411.4,347.9h9v-2.6h-9V347.9z M415.9,345.3h9v-2.8h-9V345.3z
	 M424.9,345.3h9v-2.8h-9V345.3z M433.9,345.3h9v-2.8h-9V345.3z M406.9,345.3h9v-2.8h-9V345.3z M442.9,345.3h9v-2.8h-9V345.3z
	 M438.4,342.5h9v-2.8h-9V342.5z M429.4,342.5h9v-2.8h-9V342.5z M420.4,342.5h9v-2.8h-9V342.5z M411.4,342.5h9v-2.8h-9V342.5z
	 M415.9,339.7h9V337h-9V339.7z M424.9,339.7h9V337h-9V339.7z M433.9,339.7h9V337h-9V339.7z M393.4,364.3h9v-2.7h-9V364.3z
	 M402.4,364.3h9v-2.7h-9V364.3z M411.4,364.3h9v-2.7h-9V364.3z M420.4,364.3h9v-2.7h-9V364.3z M429.4,364.3h9v-2.7h-9V364.3z
	 M438.4,364.3h9v-2.7h-9V364.3z M447.4,364.3h9v-2.7h-9V364.3z M456.4,364.3h9v-2.7h-9V364.3z M451.9,367.1h9v-2.8h-9V367.1z
	 M460.9,367.1h9v-2.8h-9V367.1z M442.9,367.1h9v-2.8h-9V367.1z M433.9,367.1h9v-2.8h-9V367.1z M424.9,367.1h9v-2.8h-9V367.1z
	 M415.9,367.1h9v-2.8h-9V367.1z M406.9,367.1h9v-2.8h-9V367.1z M397.9,367.1h9v-2.8h-9V367.1z M388.9,367.1h9v-2.8h-9V367.1z
	 M465.4,364.3h4.5v-2.7h-4.5V364.3z M388.9,364.3h4.5v-2.7h-4.5V364.3z"/>
<rect x="388.9" y="361.5" class="st7" width="4.4" height="2.8"/>
<rect x="465.3" y="361.5" class="st7" width="4.6" height="2.8"/>
<rect x="388.9" y="364.3" class="st7" width="9" height="2.8"/>
<rect x="397.9" y="364.3" class="st7" width="9" height="2.8"/>
<rect x="406.9" y="364.3" class="st7" width="9" height="2.8"/>
<rect x="415.9" y="364.3" class="st7" width="9" height="2.8"/>
<rect x="424.9" y="364.3" class="st7" width="9" height="2.8"/>
<rect x="433.9" y="364.3" class="st7" width="9" height="2.8"/>
<rect x="442.9" y="364.3" class="st7" width="9" height="2.8"/>
<rect x="460.9" y="364.3" class="st7" width="9" height="2.8"/>
<rect x="451.9" y="364.3" class="st7" width="9" height="2.8"/>
<rect x="456.3" y="361.5" class="st7" width="9" height="2.8"/>
<rect x="447.3" y="361.5" class="st7" width="9" height="2.8"/>
<rect x="438.3" y="361.5" class="st7" width="9" height="2.8"/>
<rect x="429.3" y="361.5" class="st7" width="9" height="2.8"/>
<rect x="420.3" y="361.5" class="st7" width="9" height="2.8"/>
<rect x="411.3" y="361.5" class="st7" width="9" height="2.8"/>
<rect x="402.3" y="361.5" class="st7" width="9" height="2.8"/>
<rect x="393.3" y="361.5" class="st7" width="9" height="2.8"/>
<rect x="433.9" y="336.9" class="st7" width="9" height="2.8"/>
<rect x="424.9" y="336.9" class="st7" width="9" height="2.8"/>
<rect x="415.9" y="336.9" class="st7" width="9" height="2.8"/>
<rect x="411.3" y="339.7" class="st7" width="9" height="2.8"/>
<rect x="420.3" y="339.7" class="st7" width="9" height="2.8"/>
<rect x="429.3" y="339.7" class="st7" width="9" height="2.8"/>
<rect x="438.3" y="339.7" class="st7" width="9" height="2.8"/>
<rect x="442.9" y="342.5" class="st7" width="9" height="2.8"/>
<rect x="406.9" y="342.5" class="st7" width="9" height="2.8"/>
<rect x="433.9" y="342.5" class="st7" width="9" height="2.8"/>
<rect x="424.9" y="342.5" class="st7" width="9" height="2.8"/>
<rect x="415.9" y="342.5" class="st7" width="9" height="2.8"/>
<rect x="411.3" y="345.2" class="st7" width="9" height="2.6"/>
<rect x="420.3" y="345.2" class="st7" width="9" height="2.6"/>
<rect x="429.3" y="345.2" class="st7" width="9" height="2.6"/>
<rect x="438.3" y="345.2" class="st7" width="9" height="2.6"/>
<rect x="442.9" y="347.9" class="st7" width="9" height="2.8"/>
<rect x="433.9" y="347.9" class="st7" width="9" height="2.8"/>
<rect x="424.9" y="347.9" class="st7" width="9" height="2.8"/>
<rect x="415.9" y="347.9" class="st7" width="9" height="2.8"/>
<rect x="406.9" y="347.9" class="st7" width="9" height="2.8"/>
<rect x="402.3" y="350.6" class="st7" width="9" height="2.8"/>
<rect x="411.3" y="350.6" class="st7" width="9" height="2.8"/>
<rect x="420.3" y="350.6" class="st7" width="9" height="2.8"/>
<rect x="429.3" y="350.6" class="st7" width="9" height="2.8"/>
<rect x="438.3" y="350.6" class="st7" width="9" height="2.8"/>
<rect x="447.3" y="350.6" class="st7" width="9" height="2.8"/>
<rect x="442.9" y="353.4" class="st7" width="9" height="2.8"/>
<rect x="433.9" y="353.4" class="st7" width="9" height="2.8"/>
<rect x="424.9" y="353.4" class="st7" width="9" height="2.8"/>
<rect x="415.9" y="353.4" class="st7" width="9" height="2.8"/>
<rect x="406.9" y="353.4" class="st7" width="9" height="2.8"/>
<rect x="393.3" y="356.1" class="st7" width="9" height="2.8"/>
<rect x="402.3" y="356.1" class="st7" width="9" height="2.8"/>
<rect x="411.3" y="356.1" class="st7" width="9" height="2.8"/>
<rect x="420.3" y="356.1" class="st7" width="9" height="2.8"/>
<rect x="429.3" y="356.1" class="st7" width="9" height="2.8"/>
<rect x="438.3" y="356.1" class="st7" width="9" height="2.8"/>
<rect x="447.3" y="356.1" class="st7" width="9" height="2.8"/>
<rect x="465.3" y="356.1" class="st7" width="4.6" height="2.8"/>
<rect x="456.3" y="356.1" class="st7" width="9" height="2.8"/>
<rect x="388.9" y="356.1" class="st7" width="4.4" height="2.8"/>
<rect x="460.9" y="358.9" class="st7" width="9" height="2.6"/>
<rect x="451.9" y="358.9" class="st7" width="9" height="2.6"/>
<rect x="442.9" y="358.9" class="st7" width="9" height="2.6"/>
<rect x="433.9" y="358.9" class="st7" width="9" height="2.6"/>
<rect x="424.9" y="358.9" class="st7" width="9" height="2.6"/>
<rect x="415.9" y="358.9" class="st7" width="9" height="2.6"/>
<rect x="406.9" y="358.9" class="st7" width="9" height="2.6"/>
<rect x="397.9" y="358.9" class="st7" width="9" height="2.6"/>
<rect x="388.9" y="358.9" class="st7" width="9" height="2.6"/>
<polygon class="st1" points="408.3,352.4 402.3,351.1 414.3,334.2 444.2,334.2 456.3,351.1 450.3,352.4 450.3,356.1 469.9,356.1 
	469.9,328.8 388.9,328.8 388.9,356.1 408.3,356.1 "/>
<polygon class="st7" points="408.3,352.4 402.3,351.1 414.3,334.2 444.2,334.2 456.3,351.1 450.3,352.4 450.3,356.1 469.9,356.1 
	469.9,328.8 388.9,328.8 388.9,356.1 408.3,356.1 "/>
<polygon class="st25" points="450.3,352.4 456.3,351.1 444.2,334.2 414.3,334.2 402.3,351.1 408.3,352.4 418.2,337.9 440.6,337.9 
	"/>
<polygon class="st7" points="450.3,352.4 456.3,351.1 444.2,334.2 414.3,334.2 402.3,351.1 408.3,352.4 418.2,337.9 440.6,337.9 "/>
<polygon class="st24" points="89,510.5 48.6,510.5 48.6,470 75.6,470 89,483.5 "/>
<polygon class="st7" points="89,510.5 48.6,510.5 48.6,470 75.6,470 89,483.5 "/>
<path d="M82.3,479.8h0.4v0.5h-0.6v-0.5H82.3z M78.6,479.8h0.2L79,480l-0.2,0.3h-0.4l-0.2-0.3l0.2-0.2H78.6z M74.9,479.8h0.2v0.5
	h-0.5v-0.5H74.9z M71.2,479.8h0.2v0.5h-0.6v-0.5H71.2z M67.3,479.8h0.4v0.5h-0.6v-0.5H67.3z M63.6,479.8h0.2L64,480l-0.2,0.3h-0.4
	l-0.2-0.3l0.2-0.2H63.6z M59.9,479.8h0.2v0.5h-0.5v-0.5H59.9z M56.2,479.8h0.2v0.5h-0.6v-0.5H56.2z M52.3,479.8h0.3v0.5h-0.5v-0.5
	H52.3z M48.6,479.8h0.2L49,480l-0.2,0.3h-0.4l-0.2-0.3l0.2-0.2H48.6z M86.2,489.9h0.2v0.6h-0.6V490L86.2,489.9z M82.3,489.9h0.4v0.6
	h-0.6V490L82.3,489.9z M78.6,489.9h0.2l0.2,0.2l-0.2,0.4h-0.4l-0.2-0.4l0.2-0.2H78.6z M74.9,489.9h0.2v0.6h-0.5V490L74.9,489.9z
	 M71.2,489.9h0.2v0.6h-0.6V490L71.2,489.9z M67.3,489.9h0.4v0.6h-0.6V490L67.3,489.9z M63.6,489.9h0.2l0.2,0.2l-0.2,0.4h-0.4
	l-0.2-0.4l0.2-0.2H63.6z M59.9,489.9h0.2v0.6h-0.5V490L59.9,489.9z M56.2,489.9h0.2v0.6h-0.6V490L56.2,489.9z M52.3,489.9h0.3v0.6
	h-0.5V490L52.3,489.9z M48.6,489.9h0.2l0.2,0.2l-0.2,0.4h-0.4l-0.2-0.4l0.2-0.2H48.6z M86.2,500.1h0.2v0.5h-0.6v-0.5H86.2z
	 M82.3,500.1h0.4v0.5h-0.6v-0.5H82.3z M78.6,500.1h0.2l0.2,0.2l-0.2,0.3h-0.4l-0.2-0.3l0.2-0.2H78.6z M74.9,500.1h0.2v0.5h-0.5v-0.5
	H74.9z M71.2,500.1h0.2v0.5h-0.6v-0.5H71.2z M67.3,500.1h0.4v0.5h-0.6v-0.5H67.3z M63.6,500.1h0.2l0.2,0.2l-0.2,0.3h-0.4l-0.2-0.3
	l0.2-0.2H63.6z M59.9,500.1h0.2v0.5h-0.5v-0.5H59.9z M56.2,500.1h0.2v0.5h-0.6v-0.5H56.2z M52.3,500.1h0.3v0.5h-0.5v-0.5H52.3z
	 M48.6,500.1h0.2l0.2,0.2l-0.2,0.3h-0.4l-0.2-0.3l0.2-0.2H48.6z M58.3,473.1L58.3,473.1v-0.4h0.6v0.6h-0.6V473.1z M58.3,476.8
	L58.3,476.8v-0.3h0.6v0.5h-0.6V476.8z M58.3,480.5L58.3,480.5v-0.2l0.3-0.2l0.3,0.2v0.4l-0.3,0.2l-0.3-0.2V480.5z M58.3,484.2
	L58.3,484.2V484h0.6v0.6h-0.6V484.2z M58.3,488.1L58.3,488.1v-0.4h0.6v0.6h-0.6V488.1z M58.3,491.8L58.3,491.8v-0.3h0.6v0.5h-0.6
	V491.8z M58.3,495.5L58.3,495.5v-0.2l0.3-0.2l0.3,0.2v0.4l-0.3,0.2l-0.3-0.2V495.5z M58.3,499.2L58.3,499.2V499h0.6v0.6h-0.6V499.2z
	 M58.3,503.1L58.3,503.1v-0.4h0.6v0.6h-0.6V503.1z M58.3,506.8L58.3,506.8v-0.3h0.6v0.5h-0.6V506.8z M58.3,510.5L58.3,510.5v-0.2
	l0.3-0.2l0.3,0.2v0.4l-0.3,0.2l-0.3-0.2V510.5z M68.5,473.1L68.5,473.1v-0.4H69v0.6h-0.5V473.1z M68.5,476.8L68.5,476.8v-0.3H69v0.5
	h-0.5V476.8z M68.5,480.5L68.5,480.5v-0.2l0.3-0.2l0.2,0.2v0.4l-0.2,0.2l-0.3-0.2V480.5z M68.5,484.2L68.5,484.2V484H69v0.6h-0.5
	V484.2z M68.5,488.1L68.5,488.1v-0.4H69v0.6h-0.5V488.1z M68.5,491.8L68.5,491.8v-0.3H69v0.5h-0.5V491.8z M68.5,495.5L68.5,495.5
	v-0.2l0.3-0.2l0.2,0.2v0.4l-0.2,0.2l-0.3-0.2V495.5z M68.5,499.2L68.5,499.2V499H69v0.6h-0.5V499.2z M68.5,503.1L68.5,503.1v-0.4H69
	v0.6h-0.5V503.1z M68.5,506.8L68.5,506.8v-0.3H69v0.5h-0.5V506.8z M68.5,510.5L68.5,510.5v-0.2l0.3-0.2l0.2,0.2v0.4l-0.2,0.2
	l-0.3-0.2V510.5z M78.6,476.8L78.6,476.8v-0.3h0.5v0.5h-0.4L78.6,476.8z M78.6,480.5L78.6,480.5v-0.2l0.3-0.2l0.2,0.2v0.4l-0.2,0.2
	l-0.3-0.2V480.5z M78.6,484.2L78.6,484.2V484h0.5v0.6h-0.4L78.6,484.2z M78.6,488.1L78.6,488.1v-0.4h0.5v0.6h-0.4L78.6,488.1z
	 M78.6,491.8L78.6,491.8v-0.3h0.5v0.5h-0.4L78.6,491.8z M78.6,495.5L78.6,495.5v-0.2l0.3-0.2l0.2,0.2v0.4l-0.2,0.2l-0.3-0.2V495.5z
	 M78.6,499.2L78.6,499.2V499h0.5v0.6h-0.4L78.6,499.2z M78.6,503.1L78.6,503.1v-0.4h0.5v0.6h-0.4L78.6,503.1z M78.6,506.8
	L78.6,506.8v-0.3h0.5v0.5h-0.4L78.6,506.8z M78.6,510.5L78.6,510.5v-0.2l0.3-0.2l0.2,0.2v0.4l-0.2,0.2l-0.3-0.2V510.5z"/>
<polygon class="st26" points="80.7,487.9 71.3,478.3 56.9,492.6 66.5,502.2 "/>
<polygon class="st7" points="80.7,487.9 71.3,478.3 56.9,492.6 66.5,502.2 "/>
<circle cx="66.5" cy="492.6" r="3.4"/>
<path class="st7" d="M66.5,496c-1.9,0.3-3.6-0.9-3.9-2.8c-0.3-1.9,0.9-3.6,2.8-3.9c0.4-0.1,0.8-0.1,1.2,0c1.9,0.3,3.1,2.1,2.8,3.9
	C69,494.6,67.9,495.8,66.5,496"/>
<path d="M422.1,242.7h-5.4v15.2h-2.3v-15.2h-5.5v-1.8h13.2L422.1,242.7z"/>
<path d="M423.8,251.5c0-1.2,0.2-2.3,0.7-3.4c0.5-0.9,1.2-1.7,2.1-2.3c0.9-0.5,1.9-0.8,3-0.8c1.6-0.1,3.1,0.6,4.1,1.8
	c1.1,1.3,1.7,3.1,1.6,4.8l0,0c0,1.2-0.2,2.3-0.7,3.4c-0.4,0.9-1.1,1.7-2,2.2c-0.9,0.6-1.9,0.9-3,0.9c-1.6,0.1-3.1-0.6-4.2-1.8
	C424.3,255,423.7,253.2,423.8,251.5L423.8,251.5z M426,251.7c-0.1,1.2,0.3,2.4,1,3.4c1,1.4,3,1.8,4.5,0.7c0.3-0.2,0.5-0.5,0.7-0.7
	c0.7-1.1,1.1-2.3,1-3.6c0-1.2-0.3-2.4-1-3.4c-0.6-0.8-1.6-1.3-2.6-1.3c-1-0.1-2,0.4-2.6,1.3C426.2,249.1,425.9,250.4,426,251.7
	L426,251.7z"/>
<path d="M456,242.7h-5.4v15.2h-2.3v-15.2h-5.5v-1.8H456L456,242.7z"/>
<path d="M460.4,246.8c0.9-1.2,2.3-1.8,3.8-1.8c2.7,0,4,1.5,4,4.6v8.3h-2.1v-8.4c0.1-0.7-0.1-1.4-0.6-2c-0.6-0.4-1.3-0.6-2-0.6
	c-0.6-0.1-1.3,0.1-1.8,0.5c-0.5,0.4-1,0.9-1.3,1.5v9h-2.1v-18h2.1V246.8z"/>
<path d="M471.4,241.9c0-0.3,0.1-0.7,0.3-0.9c0.3-0.3,0.6-0.4,1-0.4c0.7,0,1.3,0.6,1.3,1.3c0,0.3-0.2,0.6-0.4,0.9
	c-0.2,0.2-0.6,0.3-0.9,0.3c-0.4,0-0.7-0.1-1-0.3C471.5,242.5,471.4,242.2,471.4,241.9z M473.7,257.9h-2.1v-12.7h2.1V257.9z"/>
<path d="M483.3,247.2h-1c-1.3-0.1-2.5,0.6-2.9,1.8v9h-2.2v-12.8h2.1v1.5c0.7-1.1,1.8-1.7,3.1-1.7l0.9,0.2V247.2z"/>
<path d="M484.8,251.5c-0.1-1.7,0.4-3.3,1.4-4.7c1.6-2,4.6-2.4,6.6-0.8c0.2,0.1,0.3,0.3,0.5,0.5v-6.6h2.2v18h-2v-1.3
	c-0.9,1.1-2.2,1.6-3.6,1.6c-1.4,0-2.8-0.6-3.6-1.8c-1-1.4-1.5-3.1-1.4-4.8L484.8,251.5z M487,251.7c-0.1,1.2,0.2,2.4,0.9,3.4
	c0.6,0.8,1.5,1.2,2.4,1.2c1.3,0.1,2.5-0.6,3-1.8v-5.9c-0.5-1.1-1.7-1.8-2.9-1.7c-1-0.1-1.9,0.4-2.5,1.2
	C487.2,249.2,486.9,250.4,487,251.7L487,251.7z"/>
<path d="M514.5,250.4h-7.1v7.5h-2.3v-17h10.6v1.8h-8.3v5.9h7.1V250.4z"/>
<path d="M520.4,257.9h-2.2v-18h2.2V257.9z"/>
<path d="M523.3,251.5c0-1.2,0.2-2.3,0.7-3.4c0.5-0.9,1.2-1.7,2.1-2.3c0.9-0.5,1.9-0.8,2.9-0.8c1.6-0.1,3.2,0.6,4.2,1.8
	c1.1,1.3,1.7,3.1,1.6,4.8l0,0c0,1.2-0.2,2.3-0.7,3.4c-1.4,2.8-4.9,3.9-7.7,2.4c-0.6-0.3-1.1-0.7-1.5-1.1
	C523.8,255,523.2,253.2,523.3,251.5L523.3,251.5z M525.5,251.7c-0.1,1.2,0.2,2.4,0.9,3.4c0.6,0.9,1.6,1.3,2.7,1.3c1,0,2-0.4,2.6-1.3
	c0.7-1.1,1-2.3,1-3.6c0-1.2-0.3-2.4-1-3.4c-0.6-0.9-1.6-1.3-2.7-1.3c-1,0-1.9,0.5-2.5,1.3C525.7,249.1,525.4,250.4,525.5,251.7z"/>
<path d="M537,251.5c0-1.2,0.3-2.3,0.8-3.4c0.4-1,1.1-1.8,2-2.3c0.9-0.5,1.9-0.8,3-0.8c1.6-0.1,3.1,0.6,4.2,1.8
	c1.1,1.4,1.7,3.1,1.6,4.8l0,0c0,1.2-0.2,2.3-0.7,3.4c-0.5,0.9-1.2,1.7-2.1,2.2c-0.9,0.6-1.9,0.9-3,0.9c-1.6,0.1-3.1-0.6-4.2-1.8
	C537.5,254.9,536.9,253.2,537,251.5L537,251.5z M539.2,251.7c-0.1,1.2,0.3,2.4,1,3.4c1,1.4,3,1.8,4.5,0.7c0.3-0.2,0.5-0.5,0.7-0.7
	c0.7-1.1,1.1-2.3,1-3.6c0.1-1.2-0.3-2.4-1-3.4c-0.6-0.9-1.6-1.3-2.6-1.3c-1-0.1-2,0.4-2.6,1.3C539.4,249.1,539.1,250.4,539.2,251.7z
	"/>
<path d="M557.5,247.2h-1.1c-1.3-0.1-2.4,0.6-2.9,1.8v9h-2.2v-12.8h2.1v1.5c0.6-1.1,1.8-1.7,3-1.7l1,0.2L557.5,247.2z"/>
<path d="M417.8,294.9h-7.1v7.5h-2.3v-17H419v1.8h-8.3v5.9h7.1V294.9z"/>
<path d="M427.5,291.7h-1.1c-1.3-0.1-2.4,0.6-2.9,1.8v9h-2.1v-12.8h2.1v1.5c0.6-1.1,1.8-1.7,3-1.7l1,0.2V291.7z"/>
<path d="M428.9,296c0-1.2,0.3-2.3,0.8-3.4c0.4-1,1.1-1.8,2-2.3c0.9-0.5,1.9-0.8,3-0.8c1.6-0.1,3.1,0.6,4.2,1.8
	c1.1,1.4,1.7,3.1,1.6,4.8l0,0c0,1.1-0.2,2.3-0.7,3.3c-0.4,1-1.2,1.8-2.1,2.3c-0.9,0.6-1.9,0.9-3,0.9c-1.6,0.1-3.1-0.6-4.2-1.8
	C429.4,299.4,428.8,297.7,428.9,296L428.9,296z M431.1,296.2c-0.1,1.2,0.3,2.4,1,3.4c1,1.4,3,1.8,4.5,0.7c0.3-0.2,0.5-0.5,0.7-0.7
	c0.7-1.1,1.1-2.3,1-3.6c0.1-1.2-0.3-2.4-1-3.4c-0.6-0.9-1.6-1.3-2.6-1.3c-1-0.1-2,0.4-2.6,1.3C431.3,293.6,431,294.9,431.1,296.2
	L431.1,296.2z"/>
<path d="M445.3,289.7v1.5c1-1.1,2.3-1.7,3.8-1.7c1.5-0.2,3,0.7,3.6,2.1c0.4-0.6,1-1.2,1.7-1.5c0.7-0.4,1.6-0.6,2.4-0.6
	c2.7,0,4.2,1.5,4.2,4.4v8.5h-2.2v-8.3c0-0.7-0.2-1.5-0.6-2.1c-0.6-0.5-1.3-0.7-2.1-0.6c-0.7,0-1.4,0.2-2,0.7
	c-0.5,0.5-0.8,1.2-0.9,1.9v8.4H451v-8.3c0.2-1.3-0.7-2.5-2.1-2.7c-0.2,0-0.4,0-0.6,0c-1.3-0.1-2.4,0.6-2.9,1.8v9.2h-2.2v-12.7H445.3
	z"/>
<path d="M479.8,294.9h-7.1v7.5h-2.3v-17H481v1.8h-8.3v5.9h7.1V294.9z"/>
<path d="M483.4,286.4c0-0.3,0.1-0.7,0.3-0.9c0.2-0.2,0.6-0.4,0.9-0.4c0.4,0,0.7,0.1,1,0.4c0.2,0.2,0.3,0.6,0.3,0.9
	c0,0.3-0.1,0.6-0.3,0.9c-0.3,0.2-0.6,0.3-1,0.3c-0.3,0-0.7-0.1-0.9-0.3C483.5,287,483.4,286.7,483.4,286.4z M485.7,302.4h-2.2v-12.7
	h2.2V302.4z"/>
<path d="M495.3,291.7h-1.1c-1.2-0.1-2.4,0.7-2.9,1.8v9h-2.1v-12.8h2.1v1.5c0.6-1.1,1.8-1.7,3-1.7c0.3,0,0.7,0.1,1,0.2V291.7z"/>
<path d="M504.7,299.1c0-0.6-0.2-1.1-0.7-1.4c-0.7-0.4-1.5-0.7-2.3-0.8l-2.6-0.9c-0.6-0.3-1.1-0.7-1.4-1.2c-0.3-0.5-0.5-1-0.5-1.6
	c0-1,0.5-2,1.3-2.6c1-0.7,2.2-1.1,3.4-1.1c1.3-0.1,2.5,0.3,3.5,1.1c0.9,0.7,1.4,1.8,1.4,2.9h-2.2c0-0.6-0.3-1.2-0.8-1.6
	c-0.5-0.4-1.2-0.6-1.9-0.6c-0.6,0-1.3,0.1-1.8,0.5c-0.5,0.3-0.7,0.8-0.7,1.4c0,0.5,0.2,0.9,0.6,1.1c0.7,0.4,1.5,0.7,2.3,0.8
	c0.9,0.2,1.8,0.5,2.6,0.9c1.2,0.5,2,1.6,2,2.9c0,1.1-0.5,2.1-1.4,2.7c-1,0.7-2.2,1.1-3.5,1.1c-0.9,0-1.9-0.2-2.7-0.6
	c-0.8-0.3-1.4-0.8-1.8-1.5c-0.5-0.6-0.7-1.3-0.7-2.1h2.2c0,0.7,0.3,1.4,0.8,1.8c0.7,0.4,1.4,0.6,2.2,0.6c0.7,0,1.4-0.2,2-0.5
	C504.4,300.1,504.7,299.6,504.7,299.1z"/>
<path d="M512.6,286.7v3h2.4v1.7h-2.4v7.9c0,0.4,0.1,0.8,0.3,1.1c0.3,0.3,0.7,0.5,1.1,0.4h1v1.7c-0.5,0.2-1.1,0.3-1.6,0.3
	c-0.8,0.1-1.6-0.3-2.2-0.9c-0.6-0.7-0.8-1.6-0.8-2.5v-7.9h-2.3v-1.7h2.3v-3L512.6,286.7z"/>
<path d="M533.2,294.9H526v7.5h-2.2v-17h10.5v1.8H526v5.9h7.2V294.9z"/>
<path d="M539.1,302.4h-2.2v-18h2.2V302.4z"/>
<path d="M541.9,296c0-1.2,0.3-2.3,0.8-3.4c0.4-0.9,1.1-1.7,2-2.3c0.9-0.5,1.9-0.8,3-0.8c1.6-0.1,3.1,0.6,4.2,1.8
	c1.1,1.3,1.7,3.1,1.6,4.8l0,0c0.1,1.1-0.2,2.3-0.7,3.3c-0.4,0.9-1.1,1.7-2,2.3c-0.9,0.6-2,0.9-3.1,0.9c-1.6,0.1-3.1-0.6-4.2-1.8
	C542.4,299.4,541.8,297.7,541.9,296z M544.1,296.2c0,1.2,0.3,2.4,1,3.4c0.6,0.9,1.6,1.3,2.6,1.3c1.1,0,2.1-0.4,2.7-1.3
	c0.6-1.1,1-2.3,0.9-3.6c0.1-1.2-0.3-2.4-1-3.4c-0.6-0.9-1.6-1.4-2.6-1.3c-1,0-2,0.4-2.6,1.3C544.4,293.7,544,294.9,544.1,296.2z"/>
<path d="M555.7,296c0-1.2,0.2-2.3,0.7-3.4c0.5-0.9,1.2-1.7,2.1-2.3c0.9-0.5,1.9-0.8,2.9-0.8c1.6-0.1,3.2,0.6,4.2,1.8
	c1.1,1.3,1.7,3.1,1.6,4.8l0,0c0.1,1.1-0.2,2.3-0.7,3.3c-0.4,1-1.1,1.8-2,2.3c-0.9,0.6-1.9,0.9-3,0.9c-1.6,0.1-3.2-0.6-4.2-1.8
	C556.2,299.5,555.6,297.7,555.7,296z M557.9,296.2c-0.1,1.2,0.2,2.4,0.9,3.4c0.6,0.9,1.6,1.3,2.7,1.3c1,0,2-0.4,2.6-1.3
	c0.7-1.1,1-2.3,1-3.6c0-1.2-0.3-2.4-1-3.4c-0.6-0.9-1.6-1.3-2.7-1.3c-1,0-2,0.5-2.6,1.3C558.1,293.7,557.8,294.9,557.9,296.2z"/>
<path d="M575.9,291.7h-1.1c-1.2-0.1-2.4,0.7-2.9,1.8v9h-2.1v-12.8h2.1v1.5c0.6-1.1,1.8-1.7,3-1.7c0.3,0,0.7,0.1,1,0.2V291.7z"/>
</svg>
