<?xml version="1.0" encoding="utf-8"?>
<!-- Generator: Adobe Illustrator 25.0.1, SVG Export Plug-In . SVG Version: 6.00 Build 0)  -->
<svg version="1.1" xmlns="http://www.w3.org/2000/svg" xmlns:xlink="http://www.w3.org/1999/xlink" x="0px" y="0px"
	 viewBox="0 0 880 580" style="enable-background:new 0 0 880 580;" xml:space="preserve">
<style type="text/css">
	.st0{fill:#FFFFFF;}
	.st1{fill-rule:evenodd;clip-rule:evenodd;fill:#BFBFBF;}
	.st2{fill:none;stroke:#000000;stroke-width:0.24;stroke-miterlimit:2;}
	.st3{fill-rule:evenodd;clip-rule:evenodd;fill:#9A9A9A;}
	.st4{fill-rule:evenodd;clip-rule:evenodd;}
	.st5{fill:none;stroke:#FFFFFF;stroke-width:0.24;stroke-linecap:round;stroke-linejoin:round;}
	.st6{fill-rule:evenodd;clip-rule:evenodd;fill:#FFFFFF;}
	.st7{fill:none;stroke:#000000;stroke-width:0.24;stroke-linecap:round;stroke-linejoin:round;}
	.st8{clip-path:url(#SVGID_2_);}
	.st9{clip-path:url(#SVGID_4_);}
	.st10{clip-path:url(#SVGID_6_);}
	.st11{fill:none;stroke:#595959;stroke-width:0.24;stroke-linecap:round;stroke-linejoin:round;}
	.st12{clip-path:url(#SVGID_8_);}
	.st13{clip-path:url(#SVGID_10_);}
	.st14{clip-path:url(#SVGID_12_);}
	.st15{fill-rule:evenodd;clip-rule:evenodd;fill:#B3B3B3;}
	.st16{fill:#F8F8F8;}
	.st17{fill:#B3B3B3;}
	.st18{fill-rule:evenodd;clip-rule:evenodd;fill:#A5A5A5;}
	.st19{fill-rule:evenodd;clip-rule:evenodd;fill:#D8D8D8;}
	.st20{fill-rule:evenodd;clip-rule:evenodd;fill:#808080;}
</style>
<g id="Layer_2">
	<rect class="st0" width="880" height="580"/>
</g>
<g id="Layer_1">
	<polygon class="st1" points="42,94.5 861,94.5 856.6,99 46.6,99 	"/>
	<path class="st2" d="M46.6,99h810 M42,94.6h819"/>
	<polygon class="st1" points="861,94.5 861,508.5 856.6,504 856.6,99 	"/>
	<path class="st2" d="M856.6,99v405 M861,94.6v414"/>
	<polygon class="st1" points="861,508.5 42,508.5 46.6,504 856.6,504 	"/>
	<path class="st2" d="M856.6,504h-810 M861,508.6H42"/>
	<polygon class="st1" points="42,508.5 42,94.5 46.6,99 46.6,504 	"/>
	<path class="st2" d="M46.6,504V99 M42,508.6v-414"/>
	<path class="st3" d="M856.6,79.2L856.6,79.2z M46.6,79.2L46.6,79.2z"/>
	<path class="st2" d="M46.6,79.2L46.6,79.2z"/>
	<path class="st2" d="M856.6,79.2L856.6,79.2z"/>
	<line class="st2" x1="451.6" y1="91.2" x2="52.2" y2="91.2"/>
	<line class="st2" x1="451.6" y1="91.2" x2="850.9" y2="91.2"/>
	<polygon class="st4" points="52.7,93.2 46.6,91.2 52.7,89.1 	"/>
	<polygon class="st4" points="850.5,89.1 856.6,91.2 850.5,93.2 	"/>
	<rect x="436.9" y="76.2" class="st0" width="29.3" height="12"/>
	<path d="M446.9,68.1V70h-0.4c-1.5-0.1-2.9,0.5-4,1.5c-1.1,1.1-1.7,2.6-1.8,4.1c0.9-1.1,2.3-1.7,3.7-1.6c1.4-0.1,2.7,0.5,3.6,1.6
		c0.9,1.1,1.4,2.6,1.3,4c0.1,1.6-0.4,3.1-1.4,4.3c-1,1-2.4,1.6-3.9,1.5c-1.5,0-3-0.6-4-1.8c-1-1.4-1.6-3.1-1.5-4.9v-0.8
		c0-3.2,0.7-5.6,2-7.2c1.5-1.7,3.7-2.7,6-2.6H446.9z M444,75.8c-0.7,0-1.4,0.2-2,0.7c-0.6,0.4-1.1,1-1.3,1.7V79
		c-0.1,1.2,0.3,2.4,0.9,3.4c0.6,0.7,1.5,1.2,2.4,1.2c0.9,0.1,1.8-0.3,2.3-1c0.6-0.8,0.9-1.9,0.8-2.9c0.1-1-0.2-2-0.8-2.8
		C445.8,76.2,444.9,75.8,444,75.8L444,75.8z"/>
	<path d="M462.6,77.9c0,2.6-0.4,4.5-1.3,5.7c-0.9,1.3-2.4,1.9-4,1.8c-1.6,0.1-3.1-0.5-4.1-1.8c-0.9-1.2-1.3-3-1.3-5.4v-2.9
		c-0.1-2,0.3-3.9,1.3-5.6c0.9-1.3,2.4-1.9,4-1.8c1.6-0.1,3.1,0.5,4.1,1.8c0.9,1.1,1.3,3,1.3,5.4V77.9z M460.5,75
		c0.1-1.4-0.2-2.8-0.8-4c-0.5-0.9-1.5-1.4-2.5-1.3c-1-0.1-1.9,0.4-2.4,1.2c-0.6,1.2-0.9,2.6-0.8,3.9v3.5c-0.1,1.4,0.2,2.8,0.8,4.1
		c0.6,0.8,1.5,1.3,2.5,1.3c1,0,1.8-0.5,2.3-1.3c0.6-0.8,0.8-2.1,0.9-3.9V75z"/>
	<path d="M466.8,68.5l-0.2,4.3h-1.5v-5.6h1.7V68.5z"/>
	<path d="M474.2,78.8h-5.7v-1.7h5.7V78.8z"/>
	<path d="M486.8,77.9c0,2.6-0.4,4.5-1.3,5.7c-0.9,1.3-2.4,1.9-4,1.8c-1.6,0.1-3.1-0.6-4.1-1.8c-1-1.6-1.4-3.5-1.3-5.4v-2.9
		c-0.1-2,0.3-3.9,1.3-5.6c1-1.3,2.5-2,4.1-1.8c1.6-0.1,3.1,0.6,4,1.8c0.9,1.1,1.3,3,1.3,5.4V77.9z M484.7,75c0.1-1.4-0.2-2.8-0.8-4
		c-0.5-0.9-1.4-1.4-2.4-1.3c-1-0.1-2,0.4-2.5,1.2c-0.5,1.2-0.8,2.6-0.8,3.9v3.5c-0.1,1.4,0.2,2.8,0.8,4.1c0.6,0.8,1.5,1.3,2.5,1.3
		c1,0,1.9-0.5,2.4-1.3c0.6-1.2,0.8-2.6,0.8-3.9V75z"/>
	<path d="M491.5,68.8l-0.3,4.2h-1.3v-5.8h1.6L491.5,68.8z M494.7,68.8l-0.4,4.2H493v-5.8h1.7V68.8z"/>
	<path class="st3" d="M24.5,99L24.5,99z M24.5,504L24.5,504z"/>
	<path class="st2" d="M24.5,504L24.5,504z"/>
	<path class="st2" d="M24.5,99L24.5,99z"/>
	<line class="st2" x1="36.5" y1="301.5" x2="36.5" y2="498.3"/>
	<line class="st2" x1="36.5" y1="301.5" x2="36.5" y2="104.6"/>
	<polygon class="st4" points="38.5,497.8 36.5,504 34.5,497.8 	"/>
	<polygon class="st4" points="34.5,105.1 36.5,99 38.5,105.1 	"/>
	<rect x="21.5" y="286.8" class="st0" width="12" height="29.4"/>
	<path d="M20.9,311.8v-1.7c0.1-0.9-0.2-1.7-0.8-2.4c-0.5-0.6-1.3-0.9-2.1-0.9c-1.5-0.2-2.8,0.9-3,2.4c0,0.2,0,0.4,0,0.6
		c0,0.8,0.3,1.7,0.8,2.3c0.6,0.5,1.3,0.8,2.1,0.8v2.2c-1.3,0-2.5-0.5-3.3-1.5c-0.9-1-1.4-2.4-1.4-3.8c-0.1-1.4,0.4-2.7,1.3-3.8
		c1-0.9,2.3-1.4,3.6-1.3c0.8,0,1.5,0.2,2.1,0.7c0.7,0.5,1.2,1.1,1.6,1.9c0.3-0.8,0.7-1.5,1.4-2.1c0.8-0.5,1.7-0.8,2.6-0.8
		c1.4-0.1,2.7,0.5,3.6,1.5c0.9,1.1,1.4,2.5,1.4,3.9c0,1.4-0.4,2.8-1.3,3.9c-0.9,1-2.2,1.5-3.5,1.5V313c0.8,0,1.6-0.3,2.2-0.8
		c1.1-1.4,1.1-3.4,0-4.8c-0.7-0.5-1.5-0.8-2.4-0.8c-0.9,0-1.7,0.3-2.3,0.9c-0.6,0.7-0.8,1.7-0.8,2.6v1.7L20.9,311.8z"/>
	<path d="M23.2,290.7c2.6,0,4.5,0.4,5.7,1.3c1.3,0.9,2,2.4,1.9,4c0.1,1.6-0.6,3.1-1.9,4.1c-1.6,1-3.5,1.4-5.4,1.3h-2.9
		c-2.5,0-4.3-0.4-5.5-1.3c-1.3-0.9-2.1-2.5-1.9-4.1c-0.1-1.6,0.6-3.1,1.8-4c1.2-0.9,3-1.3,5.4-1.3H23.2z M20.3,292.8
		c-1.4-0.1-2.8,0.2-4,0.8c-0.9,0.5-1.4,1.4-1.3,2.4c-0.1,1,0.4,2,1.3,2.5c1.2,0.6,2.5,0.8,3.8,0.8h3.5c1.4,0.1,2.8-0.2,4.1-0.8
		C28.6,298,29,297,29,296c0-1-0.5-1.9-1.3-2.4c-1.2-0.6-2.6-0.9-3.9-0.8H20.3z"/>
	<path d="M13.8,286.3l4.3,0.2v1.5h-5.6v-1.7H13.8z"/>
	<path d="M24.2,278.9v5.7h-1.8v-5.7H24.2z"/>
	<path d="M23.2,266.4c2-0.1,4,0.3,5.7,1.3c1.3,1,2,2.5,1.9,4.1c0.1,1.6-0.6,3.1-1.9,4.1c-1.6,1-3.5,1.4-5.4,1.3h-2.9
		c-2.5,0-4.3-0.4-5.5-1.3c-1.3-0.9-2-2.5-1.9-4.1c-0.1-1.6,0.6-3.1,1.8-4c1.2-0.9,3-1.3,5.4-1.4H23.2z M20.3,268.6
		c-1.4-0.1-2.8,0.2-4,0.8c-0.9,0.5-1.4,1.4-1.3,2.4c-0.1,1,0.4,2,1.3,2.5c1.2,0.6,2.5,0.8,3.8,0.7h3.5c1.4,0.1,2.8-0.2,4.1-0.8
		c0.9-0.5,1.4-1.4,1.3-2.4c0.1-1-0.4-1.9-1.3-2.4c-1.2-0.6-2.6-0.9-3.9-0.8L20.3,268.6z"/>
	<path d="M14.1,258.6l4.2,0.4v1.3h-5.8v-1.6L14.1,258.6z M14.1,261.8l4.2,0.3v1.3h-5.8v-1.6L14.1,261.8z"/>
	<rect x="856.5" y="374.6" class="st0" width="4.8" height="67.6"/>
	<rect x="856.5" y="374.6" class="st5" width="4.8" height="67.6"/>
	<path class="st6" d="M861,374.6h-4.4v2.3h4.4V374.6z M861,442.2h-4.4v-2.3h4.4V442.2z"/>
	<path class="st7" d="M860,376.9h1v-2.3 M861,374.6h-4.4v2.3h1.1 M860,439.9h1v2.3 M861,442.2h-4.4v-2.3h1.1"/>
	<path class="st6" d="M857.7,376.9v2.3h2.3v-2.3H857.7z M857.7,439.9v-2.3h2.3v2.3H857.7z"/>
	<rect x="857.7" y="437.6" class="st7" width="2.3" height="2.3"/>
	<rect x="857.7" y="376.9" class="st7" width="2.3" height="2.3"/>
	<line class="st7" x1="858.9" y1="437.6" x2="858.9" y2="379.2"/>
	<path class="st7" d="M861,374.6h-4.4 M861,442.2h-4.4"/>
	<rect x="509.5" y="94.4" class="st0" width="67.4" height="4.7"/>
	<rect x="509.5" y="94.4" class="st5" width="67.4" height="4.7"/>
	<path class="st6" d="M577,99v-4.4h-2.2V99H577z M509.6,99v-4.4h2.2V99H509.6z"/>
	<path class="st7" d="M574.8,97.9V99h2.2 M577,99v-4.4h-2.2v1 M511.8,97.9V99h-2.2 M509.6,99v-4.4h2.2v1"/>
	<path class="st6" d="M574.8,95.6h-2.2v2.3h2.2V95.6z M511.8,95.6h2.2v2.3h-2.2V95.6z"/>
	<rect x="511.8" y="95.6" class="st7" width="2.2" height="2.3"/>
	<rect x="572.5" y="95.6" class="st7" width="2.3" height="2.3"/>
	<line class="st7" x1="514" y1="96.7" x2="572.5" y2="96.7"/>
	<path class="st7" d="M577,99v-4.4 M509.6,99v-4.4"/>
	<rect x="856.5" y="148.5" class="st0" width="4.8" height="67.4"/>
	<rect x="856.5" y="148.5" class="st5" width="4.8" height="67.4"/>
	<path class="st6" d="M856.6,216h4.4v-2.3h-4.4V216z M856.6,148.6h4.4v2.1h-4.4V148.6z"/>
	<path class="st7" d="M857.7,213.7h-1.1v2.3 M856.6,216h4.4v-2.3h-1 M857.7,150.7h-1.1v-2.1 M856.6,148.6h4.4v2.1h-1"/>
	<path class="st6" d="M860,213.7v-2.1h-2.3v2.1H860z M860,150.7v2.3h-2.3v-2.3H860z"/>
	<rect x="857.7" y="150.7" class="st7" width="2.3" height="2.3"/>
	<rect x="857.7" y="211.5" class="st7" width="2.3" height="2.2"/>
	<line class="st7" x1="858.9" y1="153" x2="858.9" y2="211.5"/>
	<path class="st7" d="M856.6,216h4.4 M856.6,148.6h4.4"/>
	<rect x="622.6" y="94.4" class="st0" width="67.4" height="4.7"/>
	<rect x="622.6" y="94.4" class="st5" width="67.4" height="4.7"/>
	<path class="st6" d="M622.6,94.6V99h2.3v-4.4H622.6z M690,94.6V99h-2.1v-4.4H690z"/>
	<path class="st7" d="M624.9,95.6v-1h-2.3 M622.6,94.6V99h2.3v-1.1 M687.9,95.6v-1h2.1 M690,94.6V99h-2.1v-1.1"/>
	<path class="st6" d="M624.9,97.9h2.1v-2.3h-2.1V97.9z M687.9,97.9h-2.3v-2.3h2.3V97.9z"/>
	<rect x="685.6" y="95.6" class="st7" width="2.3" height="2.3"/>
	<rect x="624.9" y="95.6" class="st7" width="2.2" height="2.3"/>
	<line class="st7" x1="685.6" y1="96.7" x2="627" y2="96.7"/>
	<path class="st7" d="M622.6,94.6V99 M690,94.6V99"/>
	<rect x="98.9" y="94.4" class="st0" width="67.4" height="4.7"/>
	<rect x="98.9" y="94.4" class="st5" width="67.4" height="4.7"/>
	<path class="st6" d="M166.4,99v-4.4h-2.2V99H166.4z M98.9,99v-4.4h2.3V99H98.9z"/>
	<path class="st7" d="M164.2,97.9V99h2.2 M166.4,99v-4.4h-2.2v1 M101.2,97.9V99h-2.3 M98.9,99v-4.4h2.3v1"/>
	<path class="st6" d="M164.2,95.6h-2.3v2.3h2.3V95.6z M101.2,95.6h2.2v2.3h-2.2V95.6z"/>
	<rect x="101.2" y="95.6" class="st7" width="2.2" height="2.3"/>
	<rect x="161.9" y="95.6" class="st7" width="2.3" height="2.3"/>
	<line class="st7" x1="103.3" y1="96.7" x2="161.9" y2="96.7"/>
	<path class="st7" d="M166.4,99v-4.4 M98.9,99v-4.4"/>
	<rect x="735.6" y="94.4" class="st0" width="67.6" height="4.7"/>
	<rect x="735.6" y="94.4" class="st5" width="67.6" height="4.7"/>
	<path class="st6" d="M735.6,94.6V99h2.3v-4.4H735.6z M803.2,94.6V99h-2.3v-4.4H803.2z"/>
	<path class="st7" d="M737.9,95.6v-1h-2.3 M735.6,94.6V99h2.3v-1.1 M800.9,95.6v-1h2.3 M803.2,94.6V99h-2.3v-1.1"/>
	<path class="st6" d="M737.9,97.9h2.3v-2.3h-2.3V97.9z M800.9,97.9h-2.3v-2.3h2.3V97.9z"/>
	<rect x="798.6" y="95.6" class="st7" width="2.3" height="2.3"/>
	<rect x="737.9" y="95.6" class="st7" width="2.3" height="2.3"/>
	<line class="st7" x1="798.6" y1="96.7" x2="740.2" y2="96.7"/>
	<path class="st7" d="M735.6,94.6V99 M803.2,94.6V99"/>
	<rect x="325" y="94.4" class="st0" width="67.6" height="4.7"/>
	<rect x="325" y="94.4" class="st5" width="67.6" height="4.7"/>
	<path class="st6" d="M325,94.6V99h2.3v-4.4H325z M392.6,94.6V99h-2.3v-4.4H392.6z"/>
	<path class="st7" d="M327.3,95.6v-1H325 M325,94.6V99h2.3v-1.1 M390.3,95.6v-1h2.3 M392.6,94.6V99h-2.3v-1.1"/>
	<path class="st6" d="M327.3,97.9h2.3v-2.3h-2.3V97.9z M390.3,97.9H388v-2.3h2.3V97.9z"/>
	<rect x="388" y="95.6" class="st7" width="2.3" height="2.3"/>
	<rect x="327.3" y="95.6" class="st7" width="2.3" height="2.3"/>
	<line class="st7" x1="388" y1="96.7" x2="329.5" y2="96.7"/>
	<path class="st7" d="M325,94.6V99 M392.6,94.6V99"/>
	<rect x="510" y="503.8" class="st0" width="67.6" height="4.8"/>
	<rect x="510" y="503.8" class="st5" width="67.6" height="4.8"/>
	<path class="st6" d="M577.6,508.6V504h-2.3v4.6H577.6z M510,508.6V504h2.3v4.6H510z"/>
	<path class="st7" d="M575.3,507.4v1.2h2.3 M577.6,508.6V504h-2.3v1.2 M512.3,507.4v1.2H510 M510,508.6V504h2.3v1.2"/>
	<path class="st6" d="M575.3,505.2H573v2.2h2.3V505.2z M512.3,505.2h2.3v2.2h-2.3V505.2z"/>
	<rect x="512.3" y="505.2" class="st7" width="2.3" height="2.2"/>
	<rect x="573" y="505.2" class="st7" width="2.3" height="2.2"/>
	<line class="st7" x1="514.6" y1="506.2" x2="573" y2="506.2"/>
	<path class="st7" d="M577.6,508.6V504 M510,508.6V504"/>
	<rect x="325.6" y="503.8" class="st0" width="67.4" height="4.8"/>
	<rect x="325.6" y="503.8" class="st5" width="67.4" height="4.8"/>
	<path class="st6" d="M325.6,504v4.6h2.3V504H325.6z M393,504v4.6h-2.1V504H393z"/>
	<path class="st7" d="M327.9,505.2V504h-2.3 M325.6,504v4.6h2.3v-1.2 M390.9,505.2V504h2.1 M393,504v4.6h-2.1v-1.2"/>
	<path class="st6" d="M327.9,507.4h2.1v-2.2h-2.1V507.4z M390.9,507.4h-2.3v-2.2h2.3V507.4z"/>
	<rect x="388.6" y="505.2" class="st7" width="2.3" height="2.2"/>
	<rect x="327.9" y="505.2" class="st7" width="2.2" height="2.2"/>
	<line class="st7" x1="388.6" y1="506.2" x2="330" y2="506.2"/>
	<path class="st7" d="M325.6,504v4.6 M393,504v4.6"/>
	<rect x="99.5" y="503.8" class="st0" width="67.4" height="4.8"/>
	<rect x="99.5" y="503.8" class="st5" width="67.4" height="4.8"/>
	<path class="st6" d="M167,508.6V504h-2.3v4.6H167z M99.5,508.6V504h2.2v4.6H99.5z"/>
	<path class="st7" d="M164.7,507.4v1.2h2.3 M167,508.6V504h-2.3v1.2 M101.7,507.4v1.2h-2.2 M99.5,508.6V504h2.2v1.2"/>
	<path class="st6" d="M164.7,505.2h-2.2v2.2h2.2V505.2z M101.7,505.2h2.3v2.2h-2.3V505.2z"/>
	<rect x="101.7" y="505.2" class="st7" width="2.3" height="2.2"/>
	<rect x="162.5" y="505.2" class="st7" width="2.2" height="2.2"/>
	<line class="st7" x1="103.9" y1="506.2" x2="162.5" y2="506.2"/>
	<path class="st7" d="M167,508.6V504 M99.5,508.6V504"/>
	<rect x="736.2" y="503.8" class="st0" width="67.4" height="4.8"/>
	<rect x="736.2" y="503.8" class="st5" width="67.4" height="4.8"/>
	<path class="st6" d="M736.2,504v4.6h2.3V504H736.2z M803.7,504v4.6h-2.2V504H803.7z"/>
	<path class="st7" d="M738.5,505.2V504h-2.3 M736.2,504v4.6h2.3v-1.2 M801.5,505.2V504h2.2 M803.7,504v4.6h-2.2v-1.2"/>
	<path class="st6" d="M738.5,507.4h2.2v-2.2h-2.2V507.4z M801.5,507.4h-2.3v-2.2h2.3V507.4z"/>
	<rect x="799.2" y="505.2" class="st7" width="2.3" height="2.2"/>
	<rect x="738.5" y="505.2" class="st7" width="2.2" height="2.2"/>
	<line class="st7" x1="799.2" y1="506.2" x2="740.7" y2="506.2"/>
	<path class="st7" d="M736.2,504v4.6 M803.7,504v4.6"/>
	<rect x="856.5" y="261.6" class="st0" width="4.8" height="67.4"/>
	<rect x="856.5" y="261.6" class="st5" width="4.8" height="67.4"/>
	<path class="st6" d="M861,261.6h-4.4v2.3h4.4V261.6z M861,329h-4.4v-2.1h4.4V329z"/>
	<path class="st7" d="M860,263.9h1v-2.3 M861,261.6h-4.4v2.3h1.1 M860,326.9h1v2.1 M861,329h-4.4v-2.1h1.1"/>
	<path class="st6" d="M857.7,263.9v2.1h2.3v-2.1H857.7z M857.7,326.9v-2.3h2.3v2.3H857.7z"/>
	<rect x="857.7" y="324.6" class="st7" width="2.3" height="2.3"/>
	<rect x="857.7" y="263.8" class="st7" width="2.3" height="2.2"/>
	<line class="st7" x1="858.9" y1="324.6" x2="858.9" y2="266"/>
	<path class="st7" d="M861,261.6h-4.4 M861,329h-4.4"/>
	<rect x="211.9" y="94.4" class="st0" width="67.6" height="4.7"/>
	<rect x="211.9" y="94.4" class="st5" width="67.6" height="4.7"/>
	<path class="st6" d="M212,94.6V99h2.2v-4.4H212z M279.5,94.6V99h-2.3v-4.4H279.5z"/>
	<path class="st7" d="M214.2,95.6v-1H212 M212,94.6V99h2.2v-1.1 M277.2,95.6v-1h2.3 M279.5,94.6V99h-2.3v-1.1"/>
	<path class="st6" d="M214.2,97.9h2.3v-2.3h-2.3V97.9z M277.2,97.9H275v-2.3h2.2V97.9z"/>
	<rect x="274.9" y="95.6" class="st7" width="2.3" height="2.3"/>
	<rect x="214.2" y="95.6" class="st7" width="2.3" height="2.3"/>
	<line class="st7" x1="274.9" y1="96.7" x2="216.5" y2="96.7"/>
	<path class="st7" d="M212,94.6V99 M279.5,94.6V99"/>
	<rect x="623.2" y="503.8" class="st0" width="67.4" height="4.8"/>
	<rect x="623.2" y="503.8" class="st5" width="67.4" height="4.8"/>
	<path class="st6" d="M623.2,504v4.6h2.2V504H623.2z M690.6,504v4.6h-2.2V504H690.6z"/>
	<path class="st7" d="M625.4,505.2V504h-2.2 M623.2,504v4.6h2.2v-1.2 M688.4,505.2V504h2.2 M690.6,504v4.6h-2.2v-1.2"/>
	<path class="st6" d="M625.4,507.4h2.2v-2.2h-2.2V507.4z M688.4,507.4h-2.2v-2.2h2.2V507.4z"/>
	<rect x="686.2" y="505.2" class="st7" width="2.2" height="2.2"/>
	<rect x="625.3" y="505.2" class="st7" width="2.3" height="2.2"/>
	<line class="st7" x1="686.2" y1="506.2" x2="627.6" y2="506.2"/>
	<path class="st7" d="M623.2,504v4.6 M690.6,504v4.6"/>
	<rect x="212.5" y="503.8" class="st0" width="67.4" height="4.8"/>
	<rect x="212.5" y="503.8" class="st5" width="67.4" height="4.8"/>
	<path class="st6" d="M212.6,504v4.6h2.2V504H212.6z M280,504v4.6h-2.2V504H280z"/>
	<path class="st7" d="M214.8,505.2V504h-2.2 M212.6,504v4.6h2.2v-1.2 M277.8,505.2V504h2.2 M280,504v4.6h-2.2v-1.2"/>
	<path class="st6" d="M214.8,507.4h2.2v-2.2h-2.2V507.4z M277.8,507.4h-2.2v-2.2h2.2V507.4z"/>
	<rect x="275.5" y="505.2" class="st7" width="2.3" height="2.2"/>
	<rect x="214.8" y="505.2" class="st7" width="2.2" height="2.2"/>
	<line class="st7" x1="275.5" y1="506.2" x2="217" y2="506.2"/>
	<path class="st7" d="M212.6,504v4.6 M280,504v4.6"/>
	<rect x="413.8" y="503.8" class="st0" width="72" height="4.8"/>
	<rect x="413.8" y="503.8" class="st5" width="72" height="4.8"/>
	<path class="st6" d="M413.8,508.6V504h2.3v4.6H413.8z M485.8,508.6V504h-2.3v4.6H485.8z"/>
	<path class="st7" d="M416.1,507.4v1.2h-2.3 M413.8,508.6V504h2.3v1.7 M483.5,507.4v1.2h2.3 M485.8,508.6V504h-2.3v1.7"/>
	<path class="st6" d="M416.1,505.7h0.5v1.7h-0.5V505.7z M483.5,505.7H483v1.7h0.5V505.7z"/>
	<path class="st7" d="M416.1,505.7h0.5v1.7h-0.5 M483.5,505.7H483v1.7h0.5"/>
	<path class="st7" d="M413.8,508.6V504 M485.8,508.6V504"/>
	<path class="st7" d="M449.8,504c0-18.6-15.1-33.7-33.7-33.7c0,0,0,0,0,0"/>
	<path class="st7" d="M449.8,504c0-18.6,15.1-33.7,33.7-33.7c0,0,0,0,0,0"/>
	<rect x="416.1" y="470.2" class="st0" width="1.7" height="33.7"/>
	<rect x="416.1" y="470.2" class="st7" width="1.7" height="33.7"/>
	<rect x="481.8" y="470.2" class="st0" width="1.7" height="33.7"/>
	<rect x="481.8" y="470.2" class="st7" width="1.7" height="33.7"/>
	<rect x="417.9" y="94.4" class="st0" width="67.4" height="4.7"/>
	<rect x="417.9" y="94.4" class="st5" width="67.4" height="4.7"/>
	<path class="st6" d="M485.3,99v-4.4H483V99H485.3z M417.9,99v-4.4h2.1V99H417.9z"/>
	<path class="st7" d="M483,97.9V99h2.3 M485.3,99v-4.4H483v1 M420,97.9V99h-2.1 M417.9,99v-4.4h2.1v1"/>
	<path class="st6" d="M483,95.6h-2.1v2.3h2.1V95.6z M420,95.6h2.3v2.3H420V95.6z"/>
	<rect x="420" y="95.6" class="st7" width="2.3" height="2.3"/>
	<rect x="480.9" y="95.6" class="st7" width="2.2" height="2.3"/>
	<line class="st7" x1="422.3" y1="96.7" x2="480.9" y2="96.7"/>
	<path class="st7" d="M485.3,99v-4.4 M417.9,99v-4.4"/>
	<g>
		<defs>
			<path id="SVGID_1_" d="M299,216.7h-11.9v42H299V216.7z M311,216.7h-12v42h12V216.7z M322.8,216.7H311v42h11.8V216.7z
				 M334.8,216.7h-12v42h12V216.7z M346.7,216.7h-11.9v42h11.9L346.7,216.7z M358.7,216.7h-12v42h12L358.7,216.7z M370.6,216.7
				h-11.9v42h11.9L370.6,216.7z"/>
		</defs>
		<clipPath id="SVGID_2_">
			<use xlink:href="#SVGID_1_"  style="overflow:visible;"/>
		</clipPath>
		<g class="st8">
			<g>
				<defs>
					<rect id="SVGID_3_" x="287" y="216.6" width="83.8" height="42.2"/>
				</defs>
				<clipPath id="SVGID_4_">
					<use xlink:href="#SVGID_3_"  style="overflow:visible;"/>
				</clipPath>
				<g class="st9">
					<g>
						<defs>
							<rect id="SVGID_5_" x="287" y="216.6" width="83.8" height="42.2"/>
						</defs>
						<clipPath id="SVGID_6_">
							<use xlink:href="#SVGID_5_"  style="overflow:visible;"/>
						</clipPath>
					</g>
				</g>
			</g>
		</g>
	</g>
	<rect x="358.7" y="216.7" class="st11" width="11.9" height="42"/>
	<rect x="346.7" y="216.7" class="st11" width="12" height="42"/>
	<rect x="334.8" y="216.7" class="st11" width="11.9" height="42"/>
	<rect x="322.8" y="216.7" class="st11" width="12" height="42"/>
	<rect x="310.9" y="216.7" class="st11" width="11.9" height="42"/>
	<rect x="298.9" y="216.7" class="st11" width="12" height="42"/>
	<rect x="287.1" y="216.7" class="st11" width="11.9" height="42"/>
	<g>
		<defs>
			<path id="SVGID_7_" d="M396.5,216.7h-2.3c0,1.2-1,2.2-2.2,2.3h-63.2v2.2H392C394.5,221.2,396.5,219.2,396.5,216.7z M396.5,258.7
				h-2.3c0-1.2-0.9-2.1-2.1-2.1c0,0-0.1,0-0.1,0h-63.2v-2.3H392C394.4,254.3,396.4,256.3,396.5,258.7z M328.8,219h-50.7
				c-1.3,0-2.3-1-2.3-2.3h-2.3c0.1,2.5,2.1,4.5,4.6,4.5h50.7L328.8,219z M328.8,256.6h-50.7c-1.2-0.1-2.2,0.9-2.3,2.1c0,0,0,0,0,0
				h-2.3c0.1-2.5,2.1-4.5,4.6-4.4c0,0,0,0,0,0h50.7L328.8,256.6z"/>
		</defs>
		<clipPath id="SVGID_8_">
			<use xlink:href="#SVGID_7_"  style="overflow:visible;"/>
		</clipPath>
		<g class="st12">
			<g>
				<defs>
					<rect id="SVGID_9_" x="273.4" y="216.6" width="123.2" height="42.2"/>
				</defs>
				<clipPath id="SVGID_10_">
					<use xlink:href="#SVGID_9_"  style="overflow:visible;"/>
				</clipPath>
				<g class="st13">
					<g>
						<defs>
							<rect id="SVGID_11_" x="273.4" y="216.6" width="123.2" height="42.2"/>
						</defs>
						<clipPath id="SVGID_12_">
							<use xlink:href="#SVGID_11_"  style="overflow:visible;"/>
						</clipPath>
					</g>
				</g>
			</g>
		</g>
	</g>
	<path class="st11" d="M328.8,221.2H392c2.5,0,4.5-2,4.5-4.5 M396.5,216.7h-2.3c0,1.2-1,2.2-2.2,2.3h-63.2 M328.8,254.3H392
		c2.4,0,4.4,2,4.5,4.4 M396.5,258.7h-2.3c0-1.2-0.9-2.1-2.1-2.1c0,0-0.1,0-0.1,0h-63.2 M328.8,219h-50.7c-1.3,0-2.3-1-2.3-2.3h-2.3
		c0.1,2.5,2.1,4.5,4.6,4.5h50.7 M328.8,256.6h-50.7c-1.2-0.1-2.2,0.9-2.3,2.1c0,0,0,0,0,0h-2.3c0.1-2.5,2.1-4.5,4.6-4.4c0,0,0,0,0,0
		h50.7"/>
	<path d="M319,228.2v11.6c0,1.5-0.6,2.9-1.6,4c-1.1,1.1-2.5,1.7-4,1.7h-0.6c-1.6,0.1-3.2-0.4-4.5-1.5c-1.2-1.1-1.8-2.6-1.7-4.2
		v-11.6h2.2v11.6c0,1.1,0.4,2.1,1.1,2.9c0.8,0.7,1.8,1.1,2.9,1c1.1,0,2.1-0.3,2.9-1c0.7-0.8,1.1-1.8,1-2.9v-11.6H319z"/>
	<path d="M332.9,239.1c0.1,1.7-0.4,3.3-1.4,4.7c-0.8,1.1-2.2,1.8-3.6,1.7c-1.3,0-2.6-0.5-3.6-1.4v6.1h-2.2v-17.6h2v1.4
		c0.9-1.1,2.3-1.7,3.7-1.6c1.4-0.1,2.8,0.6,3.6,1.7c1,1.4,1.5,3.1,1.4,4.8L332.9,239.1z M330.7,238.8c0.1-1.2-0.3-2.3-0.9-3.3
		c-0.6-0.8-1.5-1.3-2.5-1.3c-1.3,0-2.4,0.7-3,1.8v6c0.6,1.1,1.7,1.8,3,1.8c1,0,1.9-0.5,2.5-1.3C330.5,241.4,330.8,240.1,330.7,238.8
		z"/>
	<line class="st11" x1="370.6" y1="237.7" x2="345.3" y2="237.7"/>
	<path class="st11" d="M369.2,236.3l2.8,2.9 M348.2,232l-2.9,5.7l2.9,5.9"/>
	<path d="M287,284.9h-7.2v7.5h-2.3v-17h10.6v1.8h-8.3v5.9h7.2L287,284.9z"/>
	<path d="M296.6,281.7h-1.1c-1.3-0.1-2.4,0.6-2.9,1.8v9h-2.1v-12.7h2.1v1.4c0.6-1.1,1.8-1.7,3-1.7c0.3,0,0.7,0.1,1,0.2V281.7z"/>
	<path d="M298,286c0-1.2,0.3-2.3,0.8-3.4c0.4-0.9,1.1-1.7,2-2.3c0.9-0.5,1.9-0.8,3-0.8c1.6-0.1,3.1,0.6,4.2,1.8
		c1.1,1.3,1.7,3.1,1.6,4.8l0,0c0,1.2-0.2,2.3-0.7,3.4c-0.5,0.9-1.2,1.7-2.1,2.3c-0.9,0.5-1.9,0.8-3,0.8c-1.6,0.1-3.1-0.6-4.2-1.8
		C298.5,289.4,297.9,287.7,298,286L298,286z M300.2,286.2c-0.1,1.2,0.3,2.4,1,3.4c0.6,0.9,1.6,1.3,2.6,1.3c1,0.1,2-0.4,2.6-1.3
		c0.7-1,1.1-2.3,1-3.6c0.1-1.2-0.3-2.4-1-3.4c-0.6-0.9-1.6-1.4-2.6-1.3c-1,0-2,0.4-2.6,1.3C300.5,283.7,300.2,284.9,300.2,286.2z"/>
	<path d="M314.4,279.8v1.4c1-1.1,2.3-1.7,3.8-1.7c1.5-0.2,3,0.7,3.6,2.1c0.5-0.6,1-1.1,1.7-1.5c0.7-0.4,1.6-0.6,2.4-0.6
		c2.8,0,4.2,1.5,4.2,4.5v8.4h-2.2v-8.3c0-0.7-0.2-1.5-0.6-2.1c-0.6-0.5-1.3-0.7-2.1-0.6c-0.7,0-1.4,0.2-2,0.7
		c-0.5,0.5-0.8,1.2-0.9,1.9v8.4h-2.2v-8.3c0.2-1.3-0.7-2.5-2.1-2.7c-0.2,0-0.4,0-0.6,0c-1.3-0.1-2.4,0.6-2.9,1.8v9.2h-2.2v-12.6
		H314.4z"/>
	<path d="M344.6,284.8c-1.5-0.3-3-1-4.2-2c-0.9-0.7-1.4-1.8-1.4-3c0-1.3,0.6-2.5,1.7-3.3c1.1-1,2.6-1.5,4.1-1.4
		c1.1,0,2.2,0.2,3.2,0.7c0.9,0.4,1.6,1.1,2.1,1.9c0.5,0.8,0.8,1.7,0.8,2.6h-2.3c0-0.9-0.3-1.8-1-2.4c-0.8-0.7-1.8-1-2.8-0.9
		c-0.9-0.1-1.8,0.2-2.5,0.7c-0.7,0.5-1.1,1.3-1,2.1c0,0.7,0.3,1.3,0.9,1.7c0.9,0.6,1.9,1.1,3,1.3c1.2,0.3,2.3,0.8,3.3,1.4
		c0.7,0.4,1.3,0.9,1.8,1.6c0.4,0.7,0.6,1.5,0.6,2.3c0.1,1.3-0.5,2.5-1.6,3.3c-1.2,0.9-2.8,1.4-4.3,1.3c-1.1,0-2.3-0.2-3.3-0.7
		c-0.9-0.4-1.8-1-2.4-1.8c-0.5-0.8-0.8-1.7-0.8-2.7h2.3c-0.1,0.9,0.4,1.8,1.1,2.4c0.9,0.6,2,1,3.1,0.9c1,0.1,1.9-0.2,2.7-0.7
		c0.6-0.5,0.9-1.2,0.9-2c0-0.7-0.3-1.4-0.8-1.9C346.8,285.6,345.7,285.1,344.6,284.8z"/>
	<path d="M358.7,292.7c-1.6,0-3.1-0.6-4.2-1.7c-1.1-1.2-1.7-2.8-1.6-4.5v-0.4c0-1.2,0.2-2.3,0.7-3.4c0.4-0.9,1.1-1.7,2-2.3
		c0.8-0.6,1.8-0.9,2.8-0.9c1.5-0.1,2.9,0.6,3.9,1.7c1,1.3,1.5,2.9,1.4,4.6v0.9h-8.6c0,1.1,0.4,2.2,1.1,3.1c0.7,0.7,1.6,1.1,2.6,1.1
		c0.7,0.1,1.4-0.1,2-0.5c0.5-0.3,1-0.7,1.4-1.2l1.3,1C362.5,291.8,360.6,292.8,358.7,292.7z M358.4,281.3c-0.8,0-1.7,0.4-2.2,1
		c-0.6,0.7-1,1.6-1.1,2.6h6.4c0-0.9-0.3-1.8-0.9-2.6C360.1,281.7,359.2,281.3,358.4,281.3L358.4,281.3z"/>
	<path d="M371.3,290.9c0.7,0,1.4-0.2,2-0.7c0.6-0.4,0.9-1,1-1.7h2c0,0.7-0.3,1.4-0.7,2c-0.5,0.7-1.1,1.2-1.9,1.6
		c-0.7,0.4-1.6,0.6-2.4,0.6c-1.5,0.1-3-0.6-4.1-1.7c-1.1-1.4-1.7-3.1-1.6-4.8v-0.3c0-1.1,0.2-2.3,0.7-3.3c0.9-1.9,2.9-3.2,5-3.1
		c1.3,0,2.5,0.4,3.5,1.3c1,0.8,1.5,2,1.5,3.3h-2c-0.1-0.7-0.4-1.5-0.9-2c-0.6-0.5-1.3-0.8-2.1-0.8c-1,0-2,0.4-2.6,1.2
		c-0.7,1-1,2.2-0.9,3.4v0.5c-0.1,1.2,0.3,2.3,0.9,3.3C369.3,290.5,370.3,290.9,371.3,290.9z"/>
	<path d="M378.2,286c0-1.2,0.2-2.3,0.7-3.4c0.5-0.9,1.2-1.7,2-2.3c0.9-0.5,1.9-0.8,3-0.8c1.6-0.1,3.1,0.6,4.2,1.8
		c1.1,1.3,1.7,3.1,1.6,4.8l0,0c0,1.2-0.2,2.3-0.7,3.4c-0.5,0.9-1.2,1.7-2,2.3c-0.9,0.5-2,0.8-3.1,0.8c-1.6,0.1-3.1-0.6-4.1-1.8
		C378.7,289.5,378.1,287.7,378.2,286z M380.3,286.2c-0.1,1.2,0.3,2.4,1,3.4c0.6,0.9,1.6,1.3,2.6,1.3c1.1,0,2.1-0.4,2.7-1.3
		c0.7-1.1,1-2.3,0.9-3.6c0.1-1.2-0.3-2.4-1-3.4c-0.6-0.9-1.6-1.4-2.6-1.3c-1,0-2,0.4-2.6,1.3C380.6,283.7,380.3,284.9,380.3,286.2z"
		/>
	<path d="M394.5,279.8v1.6c0.9-1.2,2.3-2,3.8-1.9c2.7,0,4,1.5,4,4.6v8.3h-2.1v-8.3c0-0.8-0.2-1.5-0.7-2.1c-0.5-0.5-1.2-0.7-1.9-0.6
		c-0.6,0-1.3,0.2-1.8,0.5c-0.6,0.4-1,0.9-1.3,1.5v9h-2.1v-12.6H394.5z"/>
	<path d="M405.1,286c-0.1-1.7,0.4-3.3,1.3-4.7c0.9-1.1,2.3-1.8,3.7-1.8c1.4,0,2.7,0.5,3.5,1.6v-6.7h2.2v18h-2v-1.3
		c-0.9,1.1-2.3,1.6-3.7,1.6c-1.4,0-2.8-0.7-3.6-1.8c-0.9-1.4-1.4-3-1.3-4.7L405.1,286z M407.2,286.2c-0.1,1.2,0.2,2.4,0.9,3.4
		c0.6,0.8,1.5,1.3,2.5,1.2c1.3,0,2.4-0.7,3-1.8v-5.8c-0.6-1.1-1.7-1.8-3-1.8c-1-0.1-1.9,0.4-2.5,1.2
		C407.4,283.7,407.1,284.9,407.2,286.2z"/>
	<path d="M434.8,284.9h-7.2v7.5h-2.2v-17h10.5v1.8h-8.3v5.9h7.2V284.9z"/>
	<path d="M440.6,292.4h-2.1v-18h2.1V292.4z"/>
	<path d="M443.5,286c0-1.2,0.3-2.3,0.8-3.4c0.4-1,1.1-1.8,2-2.3c0.9-0.5,1.9-0.8,3-0.8c1.6-0.1,3.1,0.6,4.2,1.8
		c1.1,1.4,1.7,3.1,1.6,4.8l0,0c0,1.2-0.2,2.3-0.7,3.4c-0.9,1.9-2.9,3.2-5.1,3.1c-1.6,0.1-3.1-0.6-4.2-1.8
		C444,289.4,443.4,287.7,443.5,286L443.5,286z M445.7,286.2c-0.1,1.2,0.3,2.4,1,3.4c1.1,1.4,3.2,1.7,4.6,0.6
		c0.2-0.2,0.4-0.4,0.6-0.6c0.7-1,1.1-2.3,1-3.6c0.1-1.2-0.3-2.4-1-3.4c-1-1.4-3-1.8-4.5-0.7c-0.3,0.2-0.5,0.5-0.7,0.7
		C446,283.6,445.6,284.9,445.7,286.2z"/>
	<path d="M457.3,286c0-1.2,0.2-2.3,0.7-3.4c0.5-0.9,1.2-1.7,2-2.3c0.9-0.5,1.9-0.8,3-0.8c1.6-0.1,3.1,0.6,4.2,1.8
		c1.1,1.3,1.7,3.1,1.6,4.8l0,0c0,1.2-0.2,2.3-0.7,3.4c-0.5,0.9-1.2,1.7-2,2.3c-0.9,0.5-2,0.8-3.1,0.8c-1.6,0.1-3.1-0.6-4.1-1.8
		C457.8,289.5,457.2,287.7,457.3,286z M459.4,286.2c-0.1,1.2,0.3,2.4,1,3.4c0.6,0.9,1.6,1.3,2.6,1.3c1.1,0,2.1-0.4,2.7-1.3
		c0.7-1.1,1-2.3,0.9-3.6c0.1-1.2-0.3-2.4-1-3.4c-0.6-0.9-1.6-1.4-2.6-1.3c-1,0-2,0.4-2.6,1.3C459.7,283.7,459.4,284.9,459.4,286.2z"
		/>
	<path d="M477.7,281.7h-1.1c-1.3-0.1-2.4,0.6-2.9,1.8v9h-2.1v-12.7h2.1v1.4c0.6-1.1,1.8-1.7,3-1.7c0.3,0,0.7,0.1,1,0.2V281.7z"/>
	<polygon class="st15" points="858.9,266 215.8,265 220.3,260.5 858.9,261.6 	"/>
	<path class="st2" d="M858.9,263.9v-2.3l-638.5-1.1 M858.9,263.9v2.1l-643.1-0.9"/>
	<polygon class="st15" points="392.3,261.6 393,213.7 397.6,209.2 396.9,261.7 	"/>
	<path class="st2" d="M394.6,261.7h2.3l0.7-52.4 M394.6,261.7h-2.3l0.7-47.9"/>
	<polygon class="st15" points="393,213.7 165.9,213.7 161.3,209.2 397.6,209.2 	"/>
	<path class="st2" d="M397.6,209.3H161.3 M393,213.7H165.9"/>
	<polygon class="st15" points="42,231.7 165.9,231.7 161.3,236.2 46.6,236.2 	"/>
	<path class="st2" d="M46.6,236.3h114.7 M42,231.7h123.9"/>
	<polygon class="st15" points="165.9,231.7 165.9,321.7 161.3,317.2 161.3,236.2 	"/>
	<path class="st2" d="M161.3,236.3v81 M165.9,231.7v90"/>
	<polygon class="st15" points="165.9,321.7 42,321.7 46.6,317.2 161.3,317.2 	"/>
	<path class="st2" d="M161.3,317.3H46.6 M165.9,321.7H42"/>
	<polygon class="st15" points="42,321.7 42,231.7 46.6,236.2 46.6,317.2 	"/>
	<path class="st2" d="M46.6,317.3v-81 M42,321.7v-90"/>
	<path class="st6" d="M120.9,300.4c-0.1-9.3-7.6-16.8-16.9-16.8H70.2c-9.3-0.7-17.4,6.2-18.1,15.6s6.2,17.4,15.6,18.1
		c0.9,0.1,1.7,0.1,2.6,0H104C113.3,317.3,120.9,309.7,120.9,300.4C120.9,300.4,120.9,300.4,120.9,300.4z"/>
	<path class="st7" d="M120.9,300.4c-0.1-9.3-7.6-16.8-16.9-16.8H70.2c-9.3-0.7-17.4,6.2-18.1,15.6s6.2,17.4,15.6,18.1
		c0.9,0.1,1.7,0.1,2.6,0H104C113.3,317.3,120.9,309.7,120.9,300.4C120.9,300.4,120.9,300.4,120.9,300.4z"/>
	<path class="st6" d="M118.6,300c0.1-7.1-5.2-13.1-12.2-13.9H68.2c-7.1,0.8-12.4,6.8-12.4,13.9v1.3c-0.1,7.1,5.3,13.2,12.4,13.9
		l1.4,0.2h35.3l1.5-0.2c7.1-0.8,12.3-6.8,12.2-13.9C118.6,301.3,118.6,300,118.6,300z"/>
	<path class="st7" d="M118.6,300c0.1-7.1-5.2-13.1-12.2-13.9H68.2c-7.1,0.8-12.4,6.8-12.4,13.9v1.3c-0.1,7.1,5.3,13.2,12.4,13.9
		l1.4,0.2h35.3l1.5-0.2c7.1-0.8,12.3-6.8,12.2-13.9C118.6,301.3,118.6,300,118.6,300z M62.3,301.8c-0.6,0-1.1-0.5-1.1-1.1l0,0
		c-0.1-0.6,0.4-1.1,1-1.2c0,0,0.1,0,0.1,0 M62.3,299.5c0.7,0,1.2,0.5,1.2,1.2l0,0c-0.1,0.6-0.6,1.1-1.2,1.1"/>
	<path class="st6" d="M59,300.4c0-0.3-0.3-0.5-0.6-0.5h-4.5c-0.3,0-0.6,0.2-0.6,0.5c0,0.3,0.3,0.6,0.6,0.6h0h4.5
		C58.7,301,59,300.7,59,300.4L59,300.4z"/>
	<path class="st7" d="M59,300.4c0-0.3-0.3-0.5-0.6-0.5h-4.5c-0.3,0-0.6,0.2-0.6,0.5c0,0.3,0.3,0.6,0.6,0.6h0h4.5
		C58.7,301,59,300.7,59,300.4L59,300.4z M55,296.2v1.6 M54.2,297h1.6 M55,304.6v-1.7 M54.2,303.7h1.6"/>
	<path class="st6" d="M67.1,239H56.7v18.2h10.8V257h-0.4c5.5,0,10-4,9.9-9.1C76.9,242.8,72.5,239.2,67.1,239z"/>
	<path class="st7" d="M67,239c-5.5,0-10,4.1-10,9s4.5,9,10,9 M67.1,239H56.7v18.2h10.8V257h-0.4c5.5,0,10-4,9.9-9.1
		C76.9,242.8,72.5,239.2,67.1,239z"/>
	<rect x="46.6" y="236.2" class="st0" width="9.7" height="23.6"/>
	<path class="st7" d="M56.3,259.9v-23.6h-9.7v23.6H56.3 M55.8,259.3v-22.4H47 M47,236.9v22.4h8.8"/>
	<rect x="56.3" y="252.9" class="st0" width="1.1" height="3.5"/>
	<rect x="56.3" y="252.9" class="st7" width="1.1" height="3.5"/>
	<path class="st6" d="M67,253.7c-3.6,0-6.5-2.5-6.5-5.7s2.9-5.5,6.5-5.5c3.6,0,6.5,2.5,6.5,5.5S70.6,253.7,67,253.7z"/>
	<path class="st7" d="M67,253.7c-3.6,0-6.5-2.5-6.5-5.7s2.9-5.5,6.5-5.5c3.6,0,6.5,2.5,6.5,5.5S70.6,253.7,67,253.7"/>
	<path class="st6" d="M131.1,312.2h20c2.3-2.6,3.5-5.9,3.5-9.4c0-7.8-6-14.2-13.6-14.2s-13.4,6.4-13.4,14.2
		C127.6,306.3,128.8,309.6,131.1,312.2z"/>
	<path class="st7" d="M131.1,312.2h20c2.3-2.6,3.5-5.9,3.5-9.4c0-7.8-6-14.2-13.6-14.2s-13.4,6.4-13.4,14.2
		C127.6,306.3,128.8,309.6,131.1,312.2z"/>
	<path class="st6" d="M151,300.8c-1.9,4.6-7.9,7-13.4,5.4c-2.8-0.8-5.2-2.8-6.4-5.4c-0.4-0.9-0.6-1.8-0.6-2.8c0-2.1,0.9-4.1,2.4-5.6
		c-2.4,2.2-4,5.2-4.4,8.4v1.7c0,2,0.4,3.9,1.2,5.7l1.4,1.5c0.9,1,2.2,1.6,3.5,1.6h12.8c1.3,0,2.6-0.6,3.5-1.6l1.4-1.5
		c0.8-1.8,1.2-3.7,1.2-5.7v-1.7c-0.4-3.2-2-6.2-4.4-8.4c1.5,1.5,2.4,3.5,2.4,5.6C151.6,299,151.4,299.9,151,300.8z"/>
	<path class="st7" d="M151,300.8c-1.9,4.6-7.9,7-13.4,5.4c-2.8-0.8-5.2-2.8-6.4-5.4c-0.4-0.9-0.6-1.8-0.6-2.8c0-2.1,0.9-4.1,2.4-5.6
		c-2.4,2.2-4,5.2-4.4,8.4v1.7c0,2,0.4,3.9,1.2,5.7l1.4,1.5c0.9,1,2.2,1.6,3.5,1.6h12.8c1.3,0,2.6-0.6,3.5-1.6l1.4-1.5
		c0.8-1.8,1.2-3.7,1.2-5.7v-1.7c-0.4-3.2-2-6.2-4.4-8.4c1.5,1.5,2.4,3.5,2.4,5.6C151.6,299,151.4,299.9,151,300.8z"/>
	<path class="st6" d="M151,300.8c0.4-0.9,0.6-1.8,0.6-2.8c0-2.1-0.9-4.1-2.4-5.6c-4.6-4.1-11.6-4.1-16.2,0c-1.5,1.5-2.4,3.5-2.4,5.6
		c0,1,0.2,1.9,0.6,2.8c1.9,4.6,7.9,7,13.4,5.4C147.4,305.4,149.8,303.4,151,300.8z"/>
	<path class="st7" d="M142.2,301c0,0.6-0.4,1-1.2,1c-0.5,0.1-0.9-0.3-1-0.8c0-0.1,0-0.1,0-0.2c-0.1-0.5,0.3-1,0.9-1.1
		c0,0,0.1,0,0.1,0c0.6-0.1,1.1,0.4,1.2,1C142.2,300.9,142.2,301,142.2,301z M151,300.8c0.4-0.9,0.6-1.8,0.6-2.8
		c0-2.1-0.9-4.1-2.4-5.6c-4.6-4.1-11.6-4.1-16.2,0c-1.5,1.5-2.4,3.5-2.4,5.6c0,1,0.2,1.9,0.6,2.8c1.9,4.6,7.9,7,13.4,5.4
		C147.4,305.4,149.8,303.4,151,300.8z"/>
	<rect x="140.5" y="304.3" class="st0" width="1.1" height="5.6"/>
	<path class="st7" d="M141.6,304.3h-1v5.7h1V304.3 M138.2,309h-2 M137.2,310.1V308 M146,309h-2.1 M144.9,310.1V308"/>
	<rect x="161.2" y="243" class="st0" width="4.8" height="38.3"/>
	<rect x="161.2" y="243" class="st5" width="4.8" height="38.3"/>
	<path class="st6" d="M161.3,281.3h1V279h-1V281.3z M165.9,281.3h-1V279h1V281.3z M165.9,243h-4.6v2.3h4.6V243z"/>
	<rect x="161.3" y="243" class="st7" width="4.6" height="2.3"/>
	<rect x="164.9" y="279" class="st7" width="1" height="2.3"/>
	<rect x="161.3" y="279" class="st7" width="1" height="2.3"/>
	<path class="st7" d="M165.9,281.3h-4.6 M165.9,243h-4.6"/>
	<rect x="162.7" y="262.2" class="st0" width="1.7" height="33.7"/>
	<rect x="162.7" y="262.2" class="st7" width="1.7" height="33.7"/>
	<rect x="289.6" y="508.5" class="st16" width="317.3" height="61.8"/>
	<path d="M293.1,508.7h-3.6v-0.2h3.5v0.2H293.1z M298.8,508.7h-3.7v-0.2h3.6l0.2,0.2H298.8z M304.6,508.7h-3.7v-0.2h3.6v0.2H304.6z
		 M310.4,508.7h-3.8l0.2-0.2h3.6L310.4,508.7L310.4,508.7z M316.1,508.7h-3.7v-0.2h3.6v0.2H316.1z M321.9,508.7h-3.7v-0.2h3.6v0.2
		H321.9z M327.6,508.7h-3.7v-0.2h3.6l0.2,0.2H327.6z M333.4,508.7h-3.7v-0.2h3.6L333.4,508.7L333.4,508.7z M339.2,508.7h-3.8
		l0.2-0.2h3.6L339.2,508.7L339.2,508.7z M344.9,508.7h-3.7v-0.2h3.6v0.2H344.9z M350.7,508.7H347v-0.2h3.7L350.7,508.7L350.7,508.7z
		 M356.4,508.7h-3.7v-0.2h3.6l0.2,0.2H356.4z M362.2,508.7h-3.7v-0.2h3.6v0.2H362.2z M368,508.7h-3.8l0.2-0.2h3.6L368,508.7
		L368,508.7z M373.7,508.7H370v-0.2h3.7L373.7,508.7L373.7,508.7z M379.5,508.7h-3.7v-0.2h3.6v0.2H379.5z M385.2,508.7h-3.7v-0.2
		h3.6l0.2,0.2H385.2z M391,508.7h-3.7v-0.2h3.6v0.2H391z M396.8,508.7H393l0.2-0.2h3.6L396.8,508.7L396.8,508.7z M402.5,508.7h-3.7
		v-0.2h3.6v0.2H402.5z M408.3,508.7h-3.7v-0.2h3.6v0.2H408.3z M414,508.7h-3.7v-0.2h3.6l0.2,0.2H414z M419.8,508.7h-3.7v-0.2h3.6
		v0.2H419.8z M425.6,508.7h-3.8l0.2-0.2h3.6L425.6,508.7L425.6,508.7z M431.3,508.7h-3.7v-0.2h3.6v0.2H431.3z M437.1,508.7h-3.7
		v-0.2h3.6v0.2H437.1z M442.8,508.7h-3.7v-0.2h3.6l0.2,0.2H442.8z M448.6,508.7h-3.7v-0.2h3.6v0.2H448.6z M454.4,508.7h-3.8l0.2-0.2
		h3.6L454.4,508.7L454.4,508.7z M460.1,508.7h-3.7v-0.2h3.6v0.2H460.1z M465.9,508.7h-3.7v-0.2h3.6v0.2H465.9z M471.6,508.7h-3.7
		v-0.2h3.6l0.2,0.2H471.6z M477.4,508.7h-3.7v-0.2h3.6L477.4,508.7L477.4,508.7z M483.2,508.7h-3.8l0.2-0.2h3.6L483.2,508.7
		L483.2,508.7z M488.9,508.7h-3.7v-0.2h3.6v0.2H488.9z M494.7,508.7H491v-0.2h3.7L494.7,508.7L494.7,508.7z M500.4,508.7h-3.7v-0.2
		h3.6l0.2,0.2H500.4z M506.2,508.7h-3.7v-0.2h3.6v0.2H506.2z M512,508.7h-3.8l0.2-0.2h3.6V508.7z M517.7,508.7H514v-0.2h3.7
		L517.7,508.7L517.7,508.7z M523.5,508.7h-3.7v-0.2h3.6v0.2H523.5z M529.2,508.7h-3.7v-0.2h3.6L529.2,508.7L529.2,508.7z M535,508.7
		h-3.7v-0.2h3.6v0.2H535z M540.8,508.7H537l0.2-0.2h3.6V508.7z M546.5,508.7h-3.7v-0.2h3.6v0.2H546.5z M552.3,508.7h-3.7v-0.2h3.6
		v0.2H552.3z M558,508.7h-3.7v-0.2h3.6L558,508.7L558,508.7z M563.8,508.7h-3.7v-0.2h3.6v0.2H563.8z M569.6,508.7h-3.8l0.2-0.2h3.6
		V508.7z M575.3,508.7h-3.7v-0.2h3.6v0.2H575.3z M581.1,508.7h-3.7v-0.2h3.6v0.2H581.1z M586.8,508.7h-3.7v-0.2h3.6L586.8,508.7
		L586.8,508.7z M592.6,508.7h-3.7v-0.2h3.6v0.2H592.6z M598.4,508.7h-3.8l0.2-0.2h3.6V508.7z M604.1,508.7h-3.7v-0.2h3.6v0.2H604.1z
		 M606.8,511.6v-3h-0.6v-0.2h0.6V511.6h-0.2H606.8z M606.8,517.3v-3.6h0.2v3.6H606.8z M606.8,523.1v-3.6h0.2v3.6L606.8,523.1
		L606.8,523.1z M606.8,528.8v-3.6h0.2v3.6H606.8z M606.8,534.6V531h0.2v3.6H606.8z M606.8,540.4L606.8,540.4h-0.2H606.8z
		 M606.8,546.1v-3.6h0.2v3.6L606.8,546.1L606.8,546.1z M606.8,551.9v-3.6h0.2v3.6H606.8z M606.8,557.6V554h0.2v3.6H606.8z
		 M606.8,563.4v-3.6h0.2v3.6H606.8z M606.8,569.2L606.8,569.2h-0.2H606.8z M602.3,570.2h3.6v0.2h-3.8L602.3,570.2z M596.6,570.2h3.6
		v0.2h-3.9L596.6,570.2z M590.8,570.2h3.6v0.2h-3.7L590.8,570.2z M585,570.2h3.6l0.2,0.2h-3.9L585,570.2z M579.3,570.2h3.6v0.2h-3.8
		L579.3,570.2z M573.5,570.2h3.6v0.2h-3.8L573.5,570.2z M567.8,570.2h3.6v0.2h-3.9L567.8,570.2z M562,570.2h3.6v0.2h-3.8L562,570.2z
		 M556.2,570.2h3.6l0.2,0.2h-3.9L556.2,570.2z M550.5,570.2h3.6v0.2h-3.8L550.5,570.2z M544.7,570.2h3.6v0.2h-3.8L544.7,570.2z
		 M539,570.2h3.6v0.2h-3.9L539,570.2z M533.2,570.2h3.6v0.2H533L533.2,570.2z M527.4,570.2h3.6l0.2,0.2h-3.9L527.4,570.2z
		 M521.7,570.2h3.6v0.2h-3.8L521.7,570.2z M515.9,570.2h3.6v0.2h-3.8L515.9,570.2z M510.2,570.2h3.6v0.2h-3.9L510.2,570.2z
		 M504.4,570.2h3.6v0.2h-3.8L504.4,570.2z M498.6,570.2h3.6l0.2,0.2h-3.9L498.6,570.2z M492.9,570.2h3.6v0.2h-3.8L492.9,570.2z
		 M487.1,570.2h3.6v0.2h-3.8L487.1,570.2z M481.4,570.2h3.6v0.2h-3.9L481.4,570.2z M475.6,570.2h3.6v0.2h-3.8L475.6,570.2z
		 M469.8,570.2h3.6l0.2,0.2h-3.9L469.8,570.2z M464.1,570.2h3.6v0.2h-3.8L464.1,570.2z M458.3,570.2h3.6v0.2h-3.8L458.3,570.2z
		 M452.6,570.2h3.6v0.2h-3.9L452.6,570.2z M446.8,570.2h3.6v0.2h-3.7L446.8,570.2z M441,570.2h3.6l0.2,0.2h-3.9L441,570.2z
		 M435.3,570.2h3.6v0.2h-3.8L435.3,570.2z M429.5,570.2h3.6v0.2h-3.8L429.5,570.2z M423.8,570.2h3.6v0.2h-3.9L423.8,570.2z
		 M418,570.2h3.6v0.2h-3.8L418,570.2z M412.2,570.2h3.6l0.2,0.2h-3.9L412.2,570.2z M406.5,570.2h3.6v0.2h-3.8L406.5,570.2z
		 M400.7,570.2h3.6v0.2h-3.8L400.7,570.2z M395,570.2h3.6v0.2h-3.9L395,570.2z M389.2,570.2h3.6v0.2H389L389.2,570.2z M383.4,570.2
		h3.6l0.2,0.2h-3.9L383.4,570.2z M377.7,570.2h3.6v0.2h-3.8L377.7,570.2z M371.9,570.2h3.6v0.2h-3.8L371.9,570.2z M366.2,570.2h3.6
		v0.2h-3.9L366.2,570.2z M360.4,570.2h3.6v0.2h-3.8L360.4,570.2z M354.6,570.2h3.6l0.2,0.2h-3.9L354.6,570.2z M348.9,570.2h3.6v0.2
		h-3.8L348.9,570.2z M343.1,570.2h3.6v0.2h-3.8L343.1,570.2z M337.4,570.2h3.6v0.2h-3.9L337.4,570.2z M331.6,570.2h3.6v0.2h-3.8
		L331.6,570.2z M325.8,570.2h3.6l0.2,0.2h-3.9L325.8,570.2z M320.1,570.2h3.6v0.2h-3.8L320.1,570.2z M314.3,570.2h3.6v0.2h-3.8
		L314.3,570.2z M308.6,570.2h3.6v0.2h-3.9L308.6,570.2z M302.8,570.2h3.6v0.2h-3.7L302.8,570.2z M297,570.2h3.6l0.2,0.2h-3.9
		L297,570.2z M291.3,570.2h3.6v0.2h-3.8L291.3,570.2z M289.7,566.4v3.6h-0.2v-3.6H289.7z M289.7,560.6L289.7,560.6h0.2H289.7z
		 M289.7,554.9v3.6h-0.2v-3.6H289.7z M289.7,549.1v3.6h-0.2v-3.6H289.7z M289.7,543.4v3.6h-0.2v-3.6H289.7z M289.7,537.6v3.6h-0.2
		v-3.6H289.7z M289.7,531.8L289.7,531.8h0.2H289.7z M289.7,526.1v3.6h-0.2v-3.6H289.7z M289.7,520.3v3.6h-0.2v-3.6H289.7z
		 M289.7,514.6v3.6h-0.2v-3.6H289.7z M289.7,508.8v3.6h-0.2v-3.6H289.7z"/>
	<polygon class="st15" points="165.9,317.6 212.5,317.6 208,322 165.9,322 	"/>
	<rect x="165.4" y="317.6" class="st17" width="0.5" height="4.4"/>
	<path class="st2" d="M165.9,322.1H208 M165.9,317.6h46.7"/>
	<polygon class="st15" points="161.3,231.7 161.3,209.2 165.9,213.7 165.9,231.7 	"/>
	<rect x="161.3" y="231.7" class="st17" width="4.6" height="0.5"/>
	<path class="st2" d="M165.9,231.7v-18 M161.3,231.7v-22.4"/>
	<polygon class="st15" points="702.5,344.2 702.5,504 697.9,504 697.9,339.7 	"/>
	<path class="st2" d="M698,339.7V504h2.2 M702.5,344.3V504h-2.3"/>
	<polygon class="st15" points="208,504 208,322 212.5,317.6 212.5,504 	"/>
	<path class="st2" d="M210.3,504h2.3V317.6 M210.3,504H208V322.1"/>
	<rect x="494.3" y="97.9" class="st17" width="4.6" height="163.8"/>
	<path class="st2" d="M496.6,261.7h2.3V97.9h-2.3 M496.6,261.7h-2.3V97.9h2.3"/>
	<rect x="695.2" y="99" class="st17" width="4.4" height="162.4"/>
	<rect x="695.2" y="261.3" class="st17" width="4.4" height="0.4"/>
	<path class="st2" d="M699.6,261.4V99h-2.2 M695.2,261.4V99h2.2"/>
	<rect x="165.9" y="209.1" class="st0" width="42.7" height="4.8"/>
	<rect x="165.9" y="209.1" class="st5" width="42.7" height="4.8"/>
	<path class="st6" d="M165.9,213.7v-4.4h2.1v4.4H165.9z M208.6,213.7v-4.4h-2.2v4.4H208.6z"/>
	<path class="st7" d="M168,212.6v1.1h-2.1 M165.9,213.7v-4.4h2.1v1.7 M206.4,212.6v1.1h2.2 M208.6,213.7v-4.4h-2.2v1.7"/>
	<path class="st6" d="M168,211h0.6v1.6H168V211z M206.4,211h-0.6v1.6h0.6V211z"/>
	<path class="st7" d="M168,211h0.6v1.6H168 M206.4,211h-0.6v1.6h0.6"/>
	<path class="st7" d="M165.9,213.7v-4.4 M208.6,213.7v-4.4"/>
	<path class="st7" d="M168,209.3c0.1-21.2,17.2-38.3,38.4-38.3h1.7"/>
	<polygon class="st6" points="206.4,171 204.6,209.1 206.4,209.2 208.1,171 	"/>
	<polygon class="st7" points="206.4,171 204.6,209.1 206.4,209.2 208.1,171 	"/>
	<rect x="165.9" y="317.4" class="st0" width="42.7" height="4.8"/>
	<rect x="165.9" y="317.4" class="st5" width="42.7" height="4.8"/>
	<path class="st6" d="M165.9,317.6v4.5h2.1v-4.5H165.9z M208.6,317.6v4.5h-2.3v-4.5H208.6z"/>
	<path class="st7" d="M168,318.7v-1.1h-2.1 M165.9,317.6v4.5h2.1v-1.7 M206.3,318.7v-1.1h2.3 M208.6,317.6v4.5h-2.3v-1.7"/>
	<path class="st6" d="M168,320.4h0.6v-1.7H168V320.4z M206.3,320.4h-0.5v-1.7h0.5V320.4z"/>
	<path class="st7" d="M168,320.4h0.6v-1.7H168 M206.3,320.4h-0.5v-1.7h0.5"/>
	<path class="st7" d="M165.9,317.6v4.5 M208.6,317.6v4.5"/>
	<path class="st7" d="M168,322.1c0.1,20.2,15.8,36.9,36,38.3"/>
	<polygon class="st6" points="202.3,360.2 204.6,321.9 206.3,322 204,360.3 	"/>
	<polygon class="st7" points="202.3,360.2 204.6,321.9 206.3,322 204,360.3 	"/>
	<polygon class="st15" points="697.9,339.7 856.6,339.7 856.6,344.2 702.5,344.2 	"/>
	<path class="st2" d="M702.5,344.3h154.1V342 M698,339.7h158.6v2.3"/>
	<rect x="799.2" y="339.6" class="st0" width="42.8" height="4.8"/>
	<rect x="799.2" y="339.6" class="st5" width="42.8" height="4.8"/>
	<path class="st6" d="M799.2,339.7v4.6h2.3v-4.6H799.2z M842.1,339.7v4.6h-2.3v-4.6H842.1z"/>
	<path class="st7" d="M801.5,340.9v-1.2h-2.3 M799.2,339.7v4.6h2.3v-1.7 M839.8,340.9v-1.2h2.3 M842.1,339.7v4.6h-2.3v-1.7"/>
	<path class="st6" d="M801.5,342.6h0.6v-1.7h-0.6V342.6z M839.8,342.6h-0.5v-1.7h0.5V342.6z"/>
	<path class="st7" d="M801.5,342.6h0.6v-1.7h-0.6 M839.8,342.6h-0.5v-1.7h0.5"/>
	<path class="st7" d="M799.2,339.7v4.6 M842.1,339.7v4.6"/>
	<path class="st7" d="M801.5,344.3c0,20.2,15.8,36.9,36,38.1"/>
	<polygon class="st6" points="835.8,382.4 838.1,344.1 839.8,344.2 837.5,382.4 	"/>
	<polygon class="st7" points="835.8,382.4 838.1,344.1 839.8,344.2 837.5,382.4 	"/>
	<rect x="288.5" y="99" class="st17" width="4.4" height="110.3"/>
	<rect x="288.5" y="209.2" class="st17" width="4.4" height="0.5"/>
	<path class="st2" d="M293,209.3V99h-2.3 M288.5,209.3V99h2.2"/>
	<path d="M40.6,13.8h-5.5V29h-2.2V13.8h-5.5V12h13.2V13.8z"/>
	<path d="M45,17.9c0.9-1.2,2.2-1.8,3.7-1.8c2.7,0,4.1,1.5,4.1,4.6V29h-2.2v-8.3c0.1-0.7-0.2-1.5-0.6-2.1c-0.5-0.4-1.2-0.6-1.9-0.6
		c-0.7,0-1.3,0.2-1.9,0.5c-0.5,0.4-0.9,0.9-1.2,1.5v9h-2.2V11H45V17.9z"/>
	<path d="M55.9,13c0-0.3,0.1-0.6,0.3-0.9c0.5-0.6,1.4-0.6,2,0c0,0,0,0,0,0c0.2,0.3,0.3,0.6,0.3,0.9c0,0.3-0.1,0.6-0.3,0.9
		c-0.6,0.4-1.4,0.4-2,0C56,13.6,55.9,13.3,55.9,13z M58.3,29h-2.2V16.4h2.2V29z"/>
	<path d="M67.9,18.3h-1.1c-1.3-0.1-2.4,0.6-2.9,1.8v9h-2.2V16.4h2.1v1.4c0.6-1.1,1.8-1.7,3-1.7l1,0.2L67.9,18.3z"/>
	<path d="M69.4,22.6c-0.1-1.7,0.4-3.3,1.3-4.7c0.9-1.1,2.3-1.8,3.7-1.8c1.4,0,2.7,0.5,3.5,1.6V11h2.2v18h-2v-1.3
		c-0.9,1.1-2.3,1.6-3.7,1.6c-1.5,0-2.8-0.6-3.7-1.8c-0.9-1.4-1.4-3-1.3-4.7V22.6z M71.5,22.8c-0.1,1.2,0.2,2.4,0.9,3.4
		c0.6,0.8,1.5,1.3,2.5,1.2c1.3,0,2.4-0.7,3-1.8v-5.8c-0.6-1.1-1.7-1.8-3-1.8c-1-0.1-1.9,0.4-2.5,1.2C71.7,20.3,71.4,21.5,71.5,22.8z
		"/>
	<path d="M99.1,21.5h-7.2V29h-2.2V12h10.5v1.8h-8.3v5.9h7.2L99.1,21.5z"/>
	<path d="M104.9,29h-2.1V11h2.1V29z"/>
	<path d="M107.8,22.6c0-1.2,0.3-2.3,0.8-3.4c0.4-1,1.1-1.8,2-2.3c0.9-0.5,1.9-0.8,3-0.8c1.6-0.1,3.1,0.6,4.2,1.8
		c1.1,1.4,1.7,3.1,1.6,4.8l0,0c0,1.2-0.2,2.3-0.7,3.4c-0.5,0.9-1.2,1.7-2.1,2.3c-0.9,0.5-1.9,0.8-3,0.8c-1.6,0.1-3.1-0.6-4.2-1.8
		C108.3,26,107.7,24.3,107.8,22.6z M110,22.8c-0.1,1.2,0.3,2.4,1,3.4c1,1.4,3,1.8,4.5,0.7c0.3-0.2,0.5-0.5,0.7-0.7
		c0.7-1,1.1-2.3,1-3.6c0.1-1.2-0.3-2.4-1-3.4c-1-1.4-3-1.8-4.5-0.7c-0.3,0.2-0.5,0.5-0.7,0.7C110.3,20.2,109.9,21.5,110,22.8z"/>
	<path d="M121.6,22.6c0-1.2,0.2-2.3,0.7-3.4c0.5-0.9,1.2-1.7,2-2.3c0.9-0.5,1.9-0.8,3-0.8c1.6-0.1,3.1,0.6,4.2,1.8
		c1.1,1.3,1.7,3.1,1.6,4.8l0,0c0,1.2-0.2,2.3-0.7,3.4c-0.5,0.9-1.2,1.7-2,2.3c-0.9,0.5-2,0.8-3.1,0.8c-1.6,0.1-3.1-0.6-4.1-1.8
		C122.1,26.1,121.5,24.3,121.6,22.6z M123.7,22.8c-0.1,1.2,0.3,2.4,1,3.4c0.6,0.9,1.6,1.3,2.6,1.3c1.1,0,2.1-0.4,2.7-1.3
		c0.7-1.1,1-2.3,0.9-3.6c0.1-1.2-0.3-2.4-1-3.4c-0.6-0.9-1.6-1.4-2.6-1.3c-1,0-2,0.4-2.6,1.3C124,20.3,123.7,21.5,123.7,22.8z"/>
	<path d="M142,18.3h-1.1c-1.3-0.1-2.4,0.6-2.9,1.8v9h-2.1V16.4h2.1v1.4c0.6-1.1,1.8-1.7,3-1.7c0.3,0,0.7,0.1,1,0.2V18.3z"/>
	<path d="M94.6,415l-2.1,2.1v5.8h-2.3v-17.1h2.3v8.5l7.6-8.5h2.7l-6.7,7.6l7.2,9.5h-2.7L94.6,415z"/>
	<path d="M104.9,406.8c0-0.3,0.2-0.6,0.4-0.8c0.2-0.3,0.6-0.4,0.9-0.4c0.4,0,0.7,0.1,1,0.4c0.2,0.2,0.3,0.5,0.3,0.8
		c0,0.3-0.1,0.7-0.3,0.9c-0.3,0.3-0.6,0.4-1,0.4c-0.3,0-0.7-0.1-0.9-0.4C105.1,407.5,104.9,407.1,104.9,406.8z M107.3,422.9h-2.2
		v-12.7h2.2V422.9z"/>
	<path d="M113.7,407.1v3.1h2.4v1.7h-2.4v7.9c0,0.4,0.1,0.8,0.3,1.1c0.3,0.3,0.7,0.5,1.1,0.4l1-0.2v1.8l-1.6,0.2
		c-0.8,0.1-1.6-0.3-2.2-0.9c-0.6-0.7-0.9-1.6-0.8-2.5v-7.8h-2.3v-1.7h2.3v-3.1H113.7z"/>
	<path d="M123.6,421.4c0.7,0,1.5-0.3,2-0.8c0.6-0.4,0.9-1,1-1.7h2c-0.1,0.7-0.3,1.5-0.7,2.1c-0.5,0.6-1.2,1.1-1.9,1.5
		c-0.7,0.4-1.6,0.6-2.4,0.6c-1.5,0.1-3-0.6-4.1-1.7c-1.1-1.3-1.7-3-1.6-4.7v-0.4c0-1.1,0.3-2.3,0.7-3.3c0.9-1.9,2.9-3.1,5-3
		c1.3-0.1,2.5,0.4,3.5,1.2c1,0.8,1.5,2.1,1.5,3.4h-2c-0.1-0.8-0.4-1.6-1-2.1c-0.5-0.5-1.3-0.7-2-0.7c-1,0-1.9,0.4-2.6,1.1
		c-0.7,1-1,2.3-0.9,3.5v0.4c-0.1,1.2,0.2,2.4,0.9,3.4C121.6,421,122.6,421.4,123.6,421.4z"/>
	<path d="M133.4,411.7c1-1.1,2.3-1.7,3.8-1.7c2.6,0,4,1.5,4,4.5v8.4H139v-8.4c0.1-0.7-0.1-1.4-0.6-2c-0.5-0.5-1.2-0.8-1.9-0.7
		c-0.7,0-1.3,0.2-1.9,0.6c-0.5,0.4-1,0.9-1.2,1.5v9h-2.2v-18h2.2L133.4,411.7z"/>
	<path d="M149.6,423.1c-1.6,0.1-3.1-0.5-4.2-1.7c-1.1-1.2-1.7-2.8-1.6-4.5v-0.4c0-1.2,0.2-2.3,0.7-3.4c0.5-0.9,1.2-1.7,2-2.3
		c0.8-0.5,1.8-0.8,2.8-0.8c1.5-0.1,2.9,0.5,3.9,1.6c1,1.4,1.4,3,1.3,4.7v0.9h-8.6c0,1.1,0.4,2.1,1.1,3c0.7,0.8,1.7,1.2,2.7,1.2
		c1.4,0,2.6-0.7,3.4-1.8l1.3,1.1C153.3,422.3,151.5,423.2,149.6,423.1z M149.3,411.8c-0.8,0-1.6,0.3-2.2,0.9c-0.6,0.8-1,1.7-1.1,2.7
		h6.4v-0.2c0-0.9-0.3-1.8-0.9-2.5C150.9,412.1,150.1,411.8,149.3,411.8L149.3,411.8z"/>
	<path d="M159.1,410.2v1.6c0.9-1.2,2.3-1.8,3.8-1.8c2.7,0,4,1.5,4.1,4.5v8.4h-2.2v-8.4c0.1-0.7-0.1-1.4-0.6-2
		c-0.5-0.5-1.2-0.8-1.9-0.7c-1.4,0-2.6,0.8-3.1,2.1v9H157v-12.7H159.1z"/>
	<path d="M175.8,418.3c0-0.8,0.2-1.6,0.7-2.3c0.8-0.9,1.6-1.7,2.6-2.4c-0.6-0.6-1.1-1.4-1.5-2.2c-0.3-0.5-0.4-1.1-0.4-1.7
		c-0.1-1.1,0.3-2.2,1.1-3c0.9-0.7,2-1.1,3.1-1.1c1.1-0.1,2.1,0.3,2.9,1c0.8,0.6,1.2,1.6,1.2,2.6c0,0.7-0.2,1.3-0.5,1.9
		c-0.5,0.7-1.2,1.3-1.9,1.8l-1.2,1l3.8,4.5c0.5-1.1,0.8-2.2,0.8-3.4h1.9c0.1,1.8-0.4,3.5-1.4,5l2.4,2.9h-2.6l-1.1-1.4
		c-0.6,0.5-1.3,0.9-2,1.2c-0.8,0.3-1.6,0.4-2.4,0.4c-1.5,0.1-2.9-0.4-4-1.3C176.3,420.9,175.8,419.6,175.8,418.3z M181.3,421.4
		c1.2,0,2.3-0.5,3.1-1.4l-4.1-4.9l-0.4,0.2c-1.3,1-2,2-2,3c0,0.8,0.3,1.6,0.9,2.2C179.5,421.1,180.4,421.4,181.3,421.4z
		 M179.3,409.7c0.2,1.1,0.7,2,1.4,2.8l1.4-1c0.4-0.3,0.8-0.7,1.1-1.1c0.2-0.4,0.3-0.8,0.3-1.2c0-0.5-0.2-1-0.6-1.3
		c-0.4-0.4-1-0.5-1.5-0.5c-0.6,0-1.1,0.2-1.5,0.6C179.5,408.5,179.3,409.1,179.3,409.7L179.3,409.7z"/>
	<path d="M92.5,445v6.7h-2.3v-17.1h6.3c1.6-0.1,3.2,0.4,4.4,1.5c1.1,0.9,1.7,2.3,1.6,3.7c0.1,1.5-0.5,2.9-1.6,3.9
		c-1.3,1-2.8,1.4-4.4,1.3H92.5z M92.5,443.2h4c1,0.1,2-0.3,2.8-0.9c0.6-0.6,0.9-1.5,0.9-2.4c0.1-0.9-0.3-1.8-0.9-2.5
		c-0.7-0.6-1.7-1-2.7-0.9h-4.1V443.2z"/>
	<path d="M112.7,451.7c-0.1-0.4-0.2-0.9-0.3-1.3c-0.9,1-2.2,1.5-3.6,1.5c-1.1,0.1-2.2-0.3-3.1-1c-0.8-0.7-1.2-1.7-1.2-2.7
		c-0.1-1.2,0.5-2.4,1.5-3.1c1.3-0.8,2.8-1.2,4.3-1.1h2.1v-1c0-0.7-0.2-1.3-0.7-1.8c-0.5-0.5-1.3-0.8-2-0.7c-0.7,0-1.4,0.2-2,0.6
		c-0.4,0.3-0.7,0.8-0.7,1.4h-2.2c0-0.7,0.3-1.3,0.7-1.8c0.4-0.6,1.1-1.1,1.8-1.4c0.8-0.4,1.6-0.5,2.5-0.5c1.3-0.1,2.5,0.3,3.5,1.1
		c0.8,0.8,1.3,1.9,1.2,3v5.8c0,1,0.1,1.9,0.5,2.8v0.2H112.7z M109.1,450c0.7,0,1.3-0.1,1.9-0.5c0.6-0.3,1.1-0.8,1.4-1.4v-2.6h-1.7
		c-2.7,0-4,0.8-4,2.4c0,0.6,0.2,1.2,0.7,1.6C107.9,449.8,108.5,450,109.1,450z"/>
	<path d="M120,439v1.6c0.9-1.2,2.3-1.8,3.8-1.8c2.7,0,4,1.5,4,4.5v8.4h-2.1v-8.4c0.1-0.7-0.2-1.5-0.7-2c-0.5-0.5-1.2-0.8-1.9-0.7
		c-1.3,0.1-2.5,0.9-3.1,2.1v9h-2.1V439H120z"/>
	<path d="M134.2,435.9v3.1h2.4v1.7h-2.4v7.9c0,0.4,0.1,0.8,0.4,1.1c0.2,0.3,0.6,0.5,1,0.4l1.1-0.2v1.8l-1.7,0.2
		c-0.8,0.1-1.6-0.3-2.2-0.9c-0.5-0.7-0.8-1.6-0.7-2.5v-7.8h-2.3V439h2.3v-3.1H134.2z"/>
	<path d="M145.2,441h-1.1c-1.3-0.1-2.4,0.6-2.9,1.8v9H139V439h2.2v1.5c0.6-1.1,1.8-1.8,3-1.7h1V441z"/>
	<path d="M151.3,448.5l3-9.5h2.3l-5.1,14.6c-0.8,2.2-2,3.2-3.7,3.2h-0.5l-0.8-0.2v-1.7h0.6c0.6,0.1,1.2-0.1,1.7-0.4
		c0.5-0.4,0.9-1,1-1.7l0.5-1.3l-4.5-12.5h2.4L151.3,448.5z"/>
	<path class="st18" d="M244.8,454.6v-9h-2.7v9H244.8z M244.8,445.6v-9h-2.7v9H244.8z M244.8,436.6v-9h-2.7v9H244.8z M244.8,427.6v-9
		h-2.7v9H244.8z M244.8,418.6v-9h-2.7v9H244.8z M244.8,409.6v-9h-2.7v9H244.8z M244.8,400.6v-9h-2.7v9H244.8z M244.8,391.6v-9h-2.7
		v9H244.8z M244.8,382.6v-9h-2.7v9H244.8z M242.1,454.6V450h-2.8v4.6H242.1z M242.1,387v-9h-2.8v9H242.1z M242.1,378v-4.4h-2.8v4.4
		H242.1z M242.1,396v-9h-2.8v9H242.1z M242.1,405v-9h-2.8v9H242.1z M242.1,414v-9h-2.8v9H242.1z M242.1,423v-9h-2.8v9H242.1z
		 M242.1,432v-9h-2.8v9H242.1z M242.1,441v-9h-2.8v9H242.1z M242.1,450v-9h-2.8v9H242.1z M239.3,436.6v-9h-2.7v9H239.3z
		 M239.3,427.6v-9h-2.7v9H239.3z M239.3,418.6v-9h-2.7v9H239.3z M239.3,409.6v-9h-2.7v9H239.3z M239.3,400.6v-9h-2.7v9H239.3z
		 M236.6,396v-9h-2.8v9H236.6z M236.6,405v-9h-2.8v9H236.6z M236.6,414v-9h-2.8v9H236.6z M236.6,423v-9h-2.8v9H236.6z M236.6,432v-9
		h-2.8v9H236.6z M236.6,441v-9h-2.8v9H236.6z M233.8,436.6v-9h-2.6v9H233.8z M233.8,427.6v-9h-2.6v9H233.8z M233.8,418.6v-9h-2.6v9
		H233.8z M233.8,409.6v-9h-2.6v9H233.8z M233.8,400.6v-9h-2.6v9H233.8z M231.2,405v-9h-2.8v9H231.2z M231.2,414v-9h-2.8v9H231.2z
		 M231.2,423v-9h-2.8v9H231.2z M231.2,432v-9h-2.8v9H231.2z M228.4,427.6v-9h-2.8v9H228.4z M228.4,418.6v-9h-2.8v9H228.4z
		 M228.4,409.6v-9h-2.8v9H228.4z M228.4,436.6v-9h-2.8v9H228.4z M228.4,400.6v-9h-2.8v9H228.4z M225.6,405v-9h-2.7v9H225.6z
		 M225.6,414v-9h-2.7v9H225.6z M225.6,423v-9h-2.7v9H225.6z M225.6,432v-9h-2.7v9H225.6z M222.9,427.6v-9h-2.8v9H222.9z
		 M222.9,418.6v-9h-2.8v9H222.9z M222.9,409.6v-9h-2.8v9H222.9z M247.5,450v-9h-2.7v9H247.5z M247.5,441v-9h-2.7v9H247.5z
		 M247.5,432v-9h-2.7v9H247.5z M247.5,423v-9h-2.7v9H247.5z M247.5,414v-9h-2.7v9H247.5z M247.5,405v-9h-2.7v9H247.5z M247.5,396v-9
		h-2.7v9H247.5z M247.5,387v-9h-2.7v9H247.5z M250.2,391.6v-9h-2.7v9H250.2z M250.2,382.6v-9h-2.7v9H250.2z M250.2,400.6v-9h-2.7v9
		H250.2z M250.2,409.6v-9h-2.7v9H250.2z M250.2,418.6v-9h-2.7v9H250.2z M250.2,427.6v-9h-2.7v9H250.2z M250.2,436.6v-9h-2.7v9H250.2
		z M250.2,445.6v-9h-2.7v9H250.2z M250.2,454.6v-9h-2.7v9H250.2z M247.5,378v-4.4h-2.7v4.4H247.5z M247.5,454.6V450h-2.7v4.6H247.5z
		"/>
	<rect x="244.8" y="450" class="st7" width="2.6" height="4.6"/>
	<rect x="244.8" y="373.5" class="st7" width="2.6" height="4.4"/>
	<rect x="247.5" y="445.5" class="st7" width="2.8" height="9"/>
	<rect x="247.5" y="436.5" class="st7" width="2.8" height="9"/>
	<rect x="247.5" y="427.5" class="st7" width="2.8" height="9"/>
	<rect x="247.5" y="418.5" class="st7" width="2.8" height="9"/>
	<rect x="247.5" y="409.5" class="st7" width="2.8" height="9"/>
	<rect x="247.5" y="400.5" class="st7" width="2.8" height="9"/>
	<rect x="247.5" y="391.5" class="st7" width="2.8" height="9"/>
	<rect x="247.5" y="373.5" class="st7" width="2.8" height="9"/>
	<rect x="247.5" y="382.5" class="st7" width="2.8" height="9"/>
	<rect x="244.8" y="378" class="st7" width="2.6" height="9"/>
	<rect x="244.8" y="387" class="st7" width="2.6" height="9"/>
	<rect x="244.8" y="396" class="st7" width="2.6" height="9"/>
	<rect x="244.8" y="405" class="st7" width="2.6" height="9"/>
	<rect x="244.8" y="414" class="st7" width="2.6" height="9"/>
	<rect x="244.8" y="423" class="st7" width="2.6" height="9"/>
	<rect x="244.8" y="432" class="st7" width="2.6" height="9"/>
	<rect x="244.8" y="441" class="st7" width="2.6" height="9"/>
	<rect x="220.1" y="400.5" class="st7" width="2.8" height="9"/>
	<rect x="220.1" y="409.5" class="st7" width="2.8" height="9"/>
	<rect x="220.1" y="418.5" class="st7" width="2.8" height="9"/>
	<rect x="222.9" y="423" class="st7" width="2.8" height="9"/>
	<rect x="222.9" y="414" class="st7" width="2.8" height="9"/>
	<rect x="222.9" y="405" class="st7" width="2.8" height="9"/>
	<rect x="222.9" y="396" class="st7" width="2.8" height="9"/>
	<rect x="225.6" y="391.5" class="st7" width="2.8" height="9"/>
	<rect x="225.6" y="427.5" class="st7" width="2.8" height="9"/>
	<rect x="225.6" y="400.5" class="st7" width="2.8" height="9"/>
	<rect x="225.6" y="409.5" class="st7" width="2.8" height="9"/>
	<rect x="225.6" y="418.5" class="st7" width="2.8" height="9"/>
	<rect x="228.4" y="423" class="st7" width="2.8" height="9"/>
	<rect x="228.4" y="414" class="st7" width="2.8" height="9"/>
	<rect x="228.4" y="405" class="st7" width="2.8" height="9"/>
	<rect x="228.4" y="396" class="st7" width="2.8" height="9"/>
	<rect x="231.1" y="391.5" class="st7" width="2.6" height="9"/>
	<rect x="231.1" y="400.5" class="st7" width="2.6" height="9"/>
	<rect x="231.1" y="409.5" class="st7" width="2.6" height="9"/>
	<rect x="231.1" y="418.5" class="st7" width="2.6" height="9"/>
	<rect x="231.1" y="427.5" class="st7" width="2.6" height="9"/>
	<rect x="233.8" y="432" class="st7" width="2.8" height="9"/>
	<rect x="233.8" y="423" class="st7" width="2.8" height="9"/>
	<rect x="233.8" y="414" class="st7" width="2.8" height="9"/>
	<rect x="233.8" y="405" class="st7" width="2.8" height="9"/>
	<rect x="233.8" y="396" class="st7" width="2.8" height="9"/>
	<rect x="233.8" y="387" class="st7" width="2.8" height="9"/>
	<rect x="236.5" y="391.5" class="st7" width="2.8" height="9"/>
	<rect x="236.5" y="400.5" class="st7" width="2.8" height="9"/>
	<rect x="236.5" y="409.5" class="st7" width="2.8" height="9"/>
	<rect x="236.5" y="418.5" class="st7" width="2.8" height="9"/>
	<rect x="236.5" y="427.5" class="st7" width="2.8" height="9"/>
	<rect x="239.3" y="441" class="st7" width="2.8" height="9"/>
	<rect x="239.3" y="432" class="st7" width="2.8" height="9"/>
	<rect x="239.3" y="423" class="st7" width="2.8" height="9"/>
	<rect x="239.3" y="414" class="st7" width="2.8" height="9"/>
	<rect x="239.3" y="405" class="st7" width="2.8" height="9"/>
	<rect x="239.3" y="396" class="st7" width="2.8" height="9"/>
	<rect x="239.3" y="387" class="st7" width="2.8" height="9"/>
	<rect x="239.3" y="373.5" class="st7" width="2.8" height="4.4"/>
	<rect x="239.3" y="378" class="st7" width="2.8" height="9"/>
	<rect x="239.3" y="450" class="st7" width="2.8" height="4.6"/>
	<rect x="242.1" y="373.5" class="st7" width="2.8" height="9"/>
	<rect x="242.1" y="382.5" class="st7" width="2.8" height="9"/>
	<rect x="242.1" y="391.5" class="st7" width="2.8" height="9"/>
	<rect x="242.1" y="400.5" class="st7" width="2.8" height="9"/>
	<rect x="242.1" y="409.5" class="st7" width="2.8" height="9"/>
	<rect x="242.1" y="418.5" class="st7" width="2.8" height="9"/>
	<rect x="242.1" y="427.5" class="st7" width="2.8" height="9"/>
	<rect x="242.1" y="436.5" class="st7" width="2.8" height="9"/>
	<rect x="242.1" y="445.5" class="st7" width="2.8" height="9"/>
	<polygon class="st1" points="235.7,435 234.3,441 217.5,429 217.5,399.2 234.3,387 235.7,393 239.3,393 239.3,373.5 211.9,373.5 
		211.9,454.5 239.3,454.5 239.3,435 	"/>
	<polygon class="st7" points="235.7,435 234.3,441 217.5,429 217.5,399.2 234.3,387 235.7,393 239.3,393 239.3,373.5 211.9,373.5 
		211.9,454.5 239.3,454.5 239.3,435 	"/>
	<polygon class="st19" points="235.7,393 234.3,387 217.5,399.2 217.5,429 234.3,441 235.7,435 221.1,425.2 221.1,402.7 	"/>
	<polygon class="st7" points="235.7,393 234.3,387 217.5,399.2 217.5,429 234.3,441 235.7,435 221.1,425.2 221.1,402.7 	"/>
	<polygon class="st18" points="87,504 46.6,504 46.6,463.5 73.6,463.5 87,477 	"/>
	<polygon class="st7" points="87,504 46.6,504 46.6,463.5 73.6,463.5 87,477 	"/>
	<path d="M80.3,473.3h0.4v0.5h-0.6v-0.5H80.3z M76.6,473.3h0.2l0.2,0.2l-0.2,0.3h-0.4l-0.2-0.3l0.2-0.2H76.6z M72.9,473.3h0.2v0.5
		h-0.5v-0.5H72.9z M69.2,473.3h0.2v0.5h-0.6v-0.5H69.2z M65.3,473.3h0.4v0.5h-0.6v-0.5H65.3z M61.6,473.3h0.2l0.2,0.2l-0.2,0.3h-0.4
		l-0.2-0.3l0.2-0.2H61.6z M57.9,473.3h0.2v0.5h-0.5v-0.5H57.9z M54.2,473.3h0.2v0.5h-0.6v-0.5H54.2z M50.3,473.3h0.3v0.5h-0.5v-0.5
		H50.3z M46.6,473.3h0.2l0.2,0.2l-0.2,0.3h-0.4l-0.2-0.3l0.2-0.2H46.6z M84.2,483.4h0.2v0.6h-0.6v-0.5L84.2,483.4z M80.3,483.4h0.4
		v0.6h-0.6v-0.5L80.3,483.4z M76.6,483.4h0.2l0.2,0.2l-0.2,0.4h-0.4l-0.2-0.4l0.2-0.2H76.6z M72.9,483.4h0.2v0.6h-0.5v-0.5
		L72.9,483.4z M69.2,483.4h0.2v0.6h-0.6v-0.5L69.2,483.4z M65.3,483.4h0.4v0.6h-0.6v-0.5L65.3,483.4z M61.6,483.4h0.2l0.2,0.2
		l-0.2,0.4h-0.4l-0.2-0.4l0.2-0.2H61.6z M57.9,483.4h0.2v0.6h-0.5v-0.5L57.9,483.4z M54.2,483.4h0.2v0.6h-0.6v-0.5L54.2,483.4z
		 M50.3,483.4h0.3v0.6h-0.5v-0.5L50.3,483.4z M46.6,483.4h0.2l0.2,0.2l-0.2,0.4h-0.4l-0.2-0.4l0.2-0.2H46.6z M84.2,493.6h0.2v0.5
		h-0.6v-0.5H84.2z M80.3,493.6h0.4v0.5h-0.6v-0.5H80.3z M76.6,493.6h0.2l0.2,0.2l-0.2,0.3h-0.4l-0.2-0.3l0.2-0.2H76.6z M72.9,493.6
		h0.2v0.5h-0.5v-0.5H72.9z M69.2,493.6h0.2v0.5h-0.6v-0.5H69.2z M65.3,493.6h0.4v0.5h-0.6v-0.5H65.3z M61.6,493.6h0.2l0.2,0.2
		l-0.2,0.3h-0.4l-0.2-0.3l0.2-0.2H61.6z M57.9,493.6h0.2v0.5h-0.5v-0.5H57.9z M54.2,493.6h0.2v0.5h-0.6v-0.5H54.2z M50.3,493.6h0.3
		v0.5h-0.5v-0.5H50.3z M46.6,493.6h0.2l0.2,0.2l-0.2,0.3h-0.4l-0.2-0.3l0.2-0.2H46.6z M56.3,466.6L56.3,466.6v-0.4h0.6v0.6h-0.6
		V466.6z M56.3,470.3L56.3,470.3V470h0.6v0.5h-0.6V470.3z M56.3,474L56.3,474v-0.2l0.3-0.2l0.3,0.2v0.4l-0.3,0.2l-0.3-0.2V474z
		 M56.3,477.7L56.3,477.7v-0.2h0.6v0.6h-0.6V477.7z M56.3,481.6L56.3,481.6v-0.4h0.6v0.6h-0.6V481.6z M56.3,485.3L56.3,485.3V485
		h0.6v0.5h-0.6V485.3z M56.3,489L56.3,489v-0.2l0.3-0.2l0.3,0.2v0.4l-0.3,0.2l-0.3-0.2V489z M56.3,492.7L56.3,492.7v-0.2h0.6v0.6
		h-0.6V492.7z M56.3,496.6L56.3,496.6v-0.4h0.6v0.6h-0.6V496.6z M56.3,500.3L56.3,500.3V500h0.6v0.5h-0.6V500.3z M56.3,504L56.3,504
		v-0.2l0.3-0.2l0.3,0.2v0.4l-0.3,0.2l-0.3-0.2V504z M66.5,466.6L66.5,466.6v-0.4H67v0.6h-0.5V466.6z M66.5,470.3L66.5,470.3V470H67
		v0.5h-0.5V470.3z M66.5,474L66.5,474v-0.2l0.3-0.2l0.2,0.2v0.4l-0.2,0.2l-0.3-0.2V474z M66.5,477.7L66.5,477.7v-0.2H67v0.6h-0.5
		V477.7z M66.5,481.6L66.5,481.6v-0.4H67v0.6h-0.5V481.6z M66.5,485.3L66.5,485.3V485H67v0.5h-0.5V485.3z M66.5,489L66.5,489v-0.2
		l0.3-0.2l0.2,0.2v0.4l-0.2,0.2l-0.3-0.2V489z M66.5,492.7L66.5,492.7v-0.2H67v0.6h-0.5V492.7z M66.5,496.6L66.5,496.6v-0.4H67v0.6
		h-0.5V496.6z M66.5,500.3L66.5,500.3V500H67v0.5h-0.5V500.3z M66.5,504L66.5,504v-0.2l0.3-0.2l0.2,0.2v0.4l-0.2,0.2l-0.3-0.2V504z
		 M76.6,470.3L76.6,470.3V470h0.5v0.5h-0.4L76.6,470.3z M76.6,474L76.6,474v-0.2l0.3-0.2l0.2,0.2v0.4l-0.2,0.2l-0.3-0.2V474z
		 M76.6,477.7L76.6,477.7v-0.2h0.5v0.6h-0.4L76.6,477.7z M76.6,481.6L76.6,481.6v-0.4h0.5v0.6h-0.4L76.6,481.6z M76.6,485.3
		L76.6,485.3V485h0.5v0.5h-0.4L76.6,485.3z M76.6,489L76.6,489v-0.2l0.3-0.2l0.2,0.2v0.4l-0.2,0.2l-0.3-0.2V489z M76.6,492.7
		L76.6,492.7v-0.2h0.5v0.6h-0.4L76.6,492.7z M76.6,496.6L76.6,496.6v-0.4h0.5v0.6h-0.4L76.6,496.6z M76.6,500.3L76.6,500.3V500h0.5
		v0.5h-0.4L76.6,500.3z M76.6,504L76.6,504v-0.2l0.3-0.2l0.2,0.2v0.4l-0.2,0.2l-0.3-0.2V504z"/>
	<polygon class="st20" points="78.7,481.4 69.3,471.8 54.9,486.1 64.5,495.7 	"/>
	<polygon class="st7" points="78.7,481.4 69.3,471.8 54.9,486.1 64.5,495.7 	"/>
	<circle cx="64.5" cy="486.1" r="3.4"/>
	<path class="st7" d="M64.5,489.5c-1.9,0.3-3.6-0.9-3.9-2.8c-0.3-1.9,0.9-3.6,2.8-3.9c0.4-0.1,0.8-0.1,1.2,0
		c1.9,0.3,3.1,2.1,2.8,3.9C67,488.1,65.9,489.3,64.5,489.5"/>
	<polygon class="st15" points="215.8,265 215.9,213.7 220.3,213.7 220.3,260.5 	"/>
	<rect x="215.9" y="213.3" class="st17" width="4.4" height="0.4"/>
	<path class="st2" d="M220.4,260.5v-46.8 M215.8,265.1v-51.4"/>
	<polygon class="st6" points="439.2,265.5 481.9,265.5 481.9,260.8 439.2,260.7 	"/>
	<polygon class="st5" points="439.2,265.5 481.9,265.5 481.9,260.8 439.2,260.7 	"/>
	<path class="st6" d="M439.2,265.4v-4.5h2.3v4.5H439.2z M482,265.4V261h-2.2v4.4H482z"/>
	<path class="st7" d="M441.5,264.2v1.2h-2.3 M439.2,265.4v-4.5h2.3v1.7 M479.8,264.4v1h2.2 M482,265.4V261h-2.2v1.7"/>
	<path class="st6" d="M441.5,262.6h0.5v1.6h-0.5V262.6z M479.8,262.7h-0.6v1.7h0.6V262.7z"/>
	<path class="st7" d="M441.5,262.6h0.5v1.6h-0.5 M479.8,262.7h-0.6v1.7h0.6"/>
	<path class="st7" d="M439.2,265.4v-4.5 M482,265.4V261"/>
	<path class="st7" d="M441.5,260.9c0-21.1,17.1-38.2,38.2-38.2c0,0,0.1,0,0.1,0h1.8"/>
	<polygon class="st6" points="479.9,222.6 478.1,260.8 479.8,261 481.6,222.7 	"/>
	<polygon class="st7" points="479.9,222.6 478.1,260.8 479.8,261 481.6,222.7 	"/>
	<polygon class="st6" points="748.6,266 705.9,265.9 705.9,261.2 748.6,261.2 	"/>
	<polygon class="st5" points="748.6,266 705.9,265.9 705.9,261.2 748.6,261.2 	"/>
	<path class="st6" d="M748.6,265.9v-4.5h-2.2v4.5H748.6z M705.9,265.8v-4.4h2.1v4.4H705.9z"/>
	<path class="st7" d="M746.3,264.7v1.2h2.3 M748.6,265.9v-4.5h-2.2v1.6 M708,264.7v1.1h-2.1 M705.9,265.8v-4.4h2.1v1.6"/>
	<path class="st6" d="M746.4,263h-0.6v1.7h0.5L746.4,263z M708,263h0.6v1.7H708V263z"/>
	<path class="st7" d="M746.4,263h-0.6v1.7h0.5 M708,263h0.6v1.7H708"/>
	<path class="st7" d="M748.6,265.9v-4.5 M705.9,265.8v-4.4"/>
	<path class="st7" d="M746.4,261.4c0.1-21.1-17-38.2-38.1-38.3c0,0-0.1,0-0.1,0"/>
	<polygon class="st6" points="709.8,223 709.8,261.3 708,261.3 708.1,223 	"/>
	<polygon class="st7" points="709.8,223 709.8,261.3 708,261.3 708.1,223 	"/>
	<rect x="643" y="261.1" class="st0" width="42.8" height="4.8"/>
	<rect x="643" y="261.1" class="st5" width="42.8" height="4.8"/>
	<path class="st6" d="M643,265.7v-4.5h2.3v4.5H643z M685.8,265.8v-4.4l-2.2-0.2v4.6H685.8z"/>
	<path class="st7" d="M645.3,264.6v1.1H643 M643,265.7v-4.5h2.3v1.7 M683.6,264.7v1.1h2.2 M685.8,265.8v-4.4l-2.2-0.2v1.8"/>
	<path class="st6" d="M645.3,262.9h0.5v1.7h-0.5V262.9z M683.6,263H683v1.7h0.6V263z"/>
	<path class="st7" d="M645.3,262.9h0.5v1.7h-0.5 M683.6,263H683v1.7h0.6"/>
	<path class="st7" d="M643,265.7v-4.5 M685.8,265.8v-4.4"/>
	<path class="st7" d="M645.3,261.2c0-21.1,17.1-38.2,38.2-38.2c0,0,0.1,0,0.1,0h1.8"/>
	<polygon class="st6" points="683.7,222.9 681.9,261.2 683.5,261.2 685.3,223 	"/>
	<polygon class="st7" points="683.7,222.9 681.9,261.2 683.5,261.2 685.3,223 	"/>
	<polygon class="st6" points="268.2,260.5 221.7,260.4 221.7,265.2 268.2,265.2 	"/>
	<polygon class="st5" points="268.2,260.5 221.7,260.4 221.7,265.2 268.2,265.2 	"/>
	<path class="st6" d="M268.2,260.6v4.5H266v-4.5H268.2z M221.7,260.5v4.6h2.3v-4.6H221.7z"/>
	<path class="st7" d="M266.1,261.7v-1.1h2.1 M268.2,260.6v4.5H266v-1.7 M223.9,261.7v-1.2h-2.2 M221.7,260.5v4.6h2.3v-1.7"/>
	<path class="st6" d="M266.1,263.4h-0.6v-1.7h0.6V263.4z M224,263.4h0.6v-1.7H224V263.4z"/>
	<path class="st7" d="M266.1,263.4h-0.6v-1.7h0.6 M224,263.4h0.6v-1.7H224"/>
	<path class="st7" d="M268.2,260.6v4.5 M221.7,260.5v4.6"/>
	<path class="st7" d="M266,265.1c0,23.2-18.8,42-42,42c-0.1,0-0.1,0-0.2,0"/>
	<polygon class="st6" points="225.5,307 225.6,265 223.9,265 223.8,307 	"/>
	<polygon class="st7" points="225.5,307 225.6,265 223.9,265 223.8,307 	"/>
	<path d="M429.9,525.1l0.9-8.5h8.7v2h-6.9l-0.5,4.6c0.9-0.5,1.8-0.7,2.8-0.7c1.4-0.1,2.8,0.5,3.7,1.5c1,1.2,1.5,2.7,1.4,4.2
		c0.1,1.5-0.4,3-1.4,4.2c-1.1,1-2.5,1.6-4,1.5c-1.4,0.1-2.7-0.4-3.7-1.3c-1-0.9-1.5-2.1-1.6-3.4h2c0.1,0.8,0.5,1.6,1.1,2.2
		c0.6,0.5,1.4,0.8,2.2,0.7c0.9,0,1.8-0.3,2.4-1c0.6-0.8,0.9-1.9,0.8-2.9c0-1-0.3-1.9-0.9-2.7c-0.6-0.7-1.5-1.1-2.5-1.1
		c-0.8,0-1.6,0.2-2.2,0.7l-0.6,0.4L429.9,525.1z"/>
	<path d="M444,516.9l-0.2,4.4h-1.6v-5.7h1.7L444,516.9z"/>
	<path d="M451.4,527.3h-5.7v-1.8h5.7V527.3z"/>
	<path d="M463.8,526.4c0,2.5-0.4,4.4-1.3,5.6c-0.9,1.3-2.5,2-4.1,1.9c-1.6,0.1-3.1-0.6-4-1.8c-0.9-1.2-1.3-3-1.4-5.4v-2.9
		c-0.1-2,0.3-3.9,1.3-5.6c1-1.3,2.5-2,4.1-1.9c1.6-0.1,3.1,0.5,4.1,1.8c1,1.7,1.4,3.6,1.3,5.5V526.4z M461.6,523.4
		c0.1-1.4-0.1-2.7-0.7-4c-0.6-0.8-1.5-1.3-2.5-1.3c-1-0.1-1.9,0.4-2.4,1.3c-0.6,1.2-0.9,2.5-0.8,3.8v3.5c-0.1,1.4,0.2,2.8,0.8,4.1
		c0.9,1.3,2.7,1.7,4,0.9c0.3-0.2,0.6-0.5,0.8-0.8c0.6-1.2,0.9-2.6,0.8-3.9L461.6,523.4z"/>
	<path d="M468.5,517.2l-0.4,4.2h-1.3v-5.8h1.7L468.5,517.2z M471.7,517.2l-0.4,4.2H470v-5.8h1.7V517.2z"/>
</g>
</svg>
