<svg viewBox="0 0 2342.5 1645.2" xmlns="http://www.w3.org/2000/svg">
	<style>
		path {
		  fill: black;
		}
		#back {
		  fill: white;
		}
		@media screen and (prefers-color-scheme: dark) {
		  #back {
		    fill: black;
		  }
		  path {
		    fill: white;
		  }
		}
	</style>
	<rect id="back" x="0" y="0" width="2342.5" height="1645.2" />
	<path
		d="M465.6,1221.4c10.8-5.9,13,4.5,17.3,12.8,3.3,3.5,12.9,8.6,17.2,14.2,8.8,10.5,28-1,20.6,13.4-2.3,4-2.5-3.1-5.2-.9s.6,1.1.7,1.8c-5.3,6.5-23.1-12.5-23.9,1.5,2.3,6,.6,12.9.8,18.4,4.1,5.1,5.2,12.5.6,17.2-.2.7-1.6,1.7-1.1,1.8,8.2,1.8,2.7,9.1,5.9,13.1,13.4-11.2,2.4,31.8,2.6,36.4-2.5,72-.1,149.2-7.6,224.2.4,18.6,3.8,35.6,4.6,53.7-4.2,14.9-11.1.9-8.5-9.6-5.9.1-2.2-19.6-8-11.9,5.8,5.1-6.1,10.3-.6,15.9-5.9,3.9-.1,12.4-5.9,16.6-.7.5-2.1,5.4,0,8.2.2,13.2-16.2,6.2-7.3-5.8-3.6-6.9-8-15-9.9-22.8,1.9-3.6-.9-3.1-2.5-2.4-6.9,2.4,2.5,18,.6,26.2-6,21.5-5.9-46.6-33-52.2,10.6-15.6,28.8,32.1,27.9,14.8-1.6-34.1-11.4-22.4-34.6-21.5,42.6-24.9,32.3,2,25.4-61.6-111.2,132.1-171.3-31.6-153.9,71.2.9,8.6-.6,24.4,4.3,28.4,3.1-2,6.1-2.1,9.7.8-8.4-10.6,25.9-5.6,11.1,1-13.9,3.9-36.1,12.6-29.9,30.7-31.4-.1-24.4,1.9-9.9-21.8-1.1-3.6,2.8-.9,2.8-3.5s-1-2.4-2.1-.4c-4.7-4,6-9.4-1.6-10.7,1.9-7.4-5.2-20.5,4.9-25.9,5.1-12.8-2.4-29.8-3.3-43.7-22.4-42.9-11.9-19.9-8.3-72.7,14.2-65.7,10.3-130.7,11.9-196.2,7.9-60.2,16-119.7,4.7-179.5-3.9-5.1-4.8-10-5.7-16.5-2.8,3.5-5.8,6.6-3.1,11.7-5.6.9-10.4.5-13.2-7.4-3.6-47.8,5.3-83.5-3.1-125.7-2.6-3,4.2-6.7-.2-10.2-2.4-2.9,1.5-2.2,2.2-3.7-1.2-1.4-8-1.3-1.6-5,.7-.4.6-1,.2-1.6-5.7-8.5-.4-20.5-3.3-30.8-1.9-4.7,4.5-10.9.7-14.8-1.7-1.2,2.5-4.6-.9-6.4,4.8-4.7-.1-8.5.4-13.1,4-1.5-.4-6.8,3.9-8.2.8-.2-.4-1.9-1.1-2.3-3.1-8.6,1.4-22,4.5-31.6-.8-5.3-1.3-14.1.7-20.3,4.9-25.6,6.8-52,18-76.1,11.3-66.6,3.6-136.7,10.3-204.8,2-24,17-7,7.7,6.5,2.6,44.7-11.2,111.3-1.1,148,6.6-6,.3-20.1,12.1-19.4,8.6,1.7,14.3-10.1,22.6-7.8,5.5,1.4,7.4-1.2,8-6-1.7-9.7-21.6,16.3-26.9,2.3,9.1-7.4,27.8-19.9,38.2-12.9,1.8,2.8,5.2-1.9,8.1-2.4s1-1.8.7-3,2.5-3.9,3.7-1.4c7,10.5,24.1-2.9,34.8-2,8.2.3,22.7-25.3,24.5-13.7-10.8,27-53.3,17.9-56.2,32.8,4.6,3.3,1,17.4-2.9,9.6,3.5-23.1-15.1-13.9-14.5,4.2-3.6,16.3,43.9,71,31.2,67.8-21.1-4.1-37.9-83.4-46-51.8-7.7-4.6-2.8-9-1.8-14.8-22.5,1-26.8,30.4-27.4,48.9C282,767,274.7,825.4,269.2,883.2c-3.1,49.8,4.2,89.8,4.3,136.9-1.4,5.1-5.1,9.5-.8,15.2-2.9,5.1-1.3,10-.7,15.4s-1.2,10.1,1.2,14.9c-.2,4.5-5.5,5,2.4,7,.8-23.2,18.4.3,28.4,1.5,4-.2,10.4,5.9,10.4,10.8,13-3.4,31,9.1,46.1,5.6,14.1-.8,32.9-.5,42.8-8.4,2.7-4.7,2.8-.5,6-2.2,2-5.4-5.8-5-6.2-8.3,3.4-.7,7.8,1.3,5.6-6.3-3-3.8.4-9.6-2.4-12.3-.2-11.5-2-24.8-3.4-36.9.1-.6-.1-1.8-.4-1.8-6.5-1.6,3-2.7,0-4.4-1.2-7.4-10-12.1-4.6-21.3,2.8-3-3.4-2.1-1.6-5.4s.6-16.2-3.3-9.9c1.6,5.2-3.5,4.1-2-.9,1.2-12.3.4-5.9-3.9-18-.6-3.2,2.6-1,4-2.5-3-1.3-4.5-4.6-8.1-5.3,2.4-2,7.2.4,7.4-2.8s7.3-1.5,3.4,1.4c-1.8,1.8,1,2.2,1.6,2.4,11.2,8.9-1.6.6-1.6,8,5.6-1.1,10.5,9.8,7.3,14.3.5,3.8,9.1,12.8,5.3,14.2.4,5.5,6.4,15.4,3.5,23.8,1.8,4.5,9,6.4,1.8,10.7,1.1,1.4,8.8-2.5,3.4,4.1,1.9,6.9,4,14.4,4,22.1.6,9.6,3.3,20,4.2,29,7.6-3.3,3.9,6,1.5,11.3-6.4,3.3-7.9,1.1-1.6,6.9.8,4.3-1.1,7.8-3.3,11.2.9,1.4,6.9-.1,2.3,4,1,8.6-4.9,17.6-5.9,24.4-1.6,1.6-3.4,4.1-5.6,1.8s5.6-5,2.4-8.4-5.8,3.2-6.3-1.3c-1-2.4.9-.3,1.3-.7s-1.9-5,3-5.2c.5-3.8-5.1-9-.5-13.9s-2.9-.5-3.7-4.3,3.9.5,4.1-2.6c-31.9-6.6-83,18.2-106.3-16.9-2.1,15.1-8.1-17.5-17.4-3,11,37.5,15.1,80.1,16.1,118-21.4,51-14.6,123.7-16,183.3.3,49.8-20.8,105.7-14.7,151.4,2.2-11.8,12-13,9,.1,45.7,89.4,184.7,18.7,146.8-76.5,3.4-7.3-5.4-16.6-1-22.7,2.4-1.5,1.5-1.7.4-2.7-5.1-3.3-2.5-4.2,1.5-3.8.2-2.9-5.1-2.6-3.6-6.3.8-2.1-3.1-5.4,1.5-6.3-.1-2.3-5.6-1.1-3-4.2,3.1-8-5.7-17,1.7-24.3-6.8-.4,3.7-10-3-7.3-5.2.4,3.6-7.3-1.8-9.7-.7-2.3,4.2-1.9,2.1-4.7-2.6-9.8.8-18.1-2.5-27.6-1.4-10.3,7.1-2.5,8.5-7.2-8.8-.1-15.1-6-3.2-10.3-4.4-3.5-10.2-3-7.4-10.1-.8-8.6.6-22.6-.9-28.5,0-2.3-5-3.4-1.5-6.5-.3-4.1-2.4-7.8,1.4-11.8-4.5-.9-2.6-3.7-2.4-6.6,1.2-7.3-5.3-15-.7-21.9,5.2-1.1-6.2-7.8,5-9.4-15.3-6.5-3.9-19.9-3-30.1-7.8,3.3-6.9-12.8-2.1-14.7-6.1-2.4-10.3-6-3.3-9.3,2.8-3.8-3.6-.5-3.6-4.3-.5-.8.5-1.5.5-1.5,2.1,1.7,2.9-5,5.7-.9,4.3.8,6.3-6.6,4.3-11-5.9,8.9-11.9,5.7-10.8-4.2,1.1-3.1,6.9,1.6,7.9-2.2s-4.3.3-4.9-2.6c3.2-.1,3.2-5,6.5-4.6,5.2,2.1,2.6-1.2,2.2-3,3.5,1.6,4.9,3.8,3.2,7.8s4.2,27.3-2.5,28c-5.2,9.7,3.5,1.8,4.4,3.7s-.1,2.1-1,2.5c-8.6,2.5,3.7,4.9-.2,7.4s1.7,4.2.7,6.5-3,1.7-2.4,4.2c10.2-4.2-1.6,7.3,6.2,10.7-3.9,1.3-2.7-3.3-5.3-.8-1.4,5.6,8,9.6-1.7,13.7-4.2,2.1,10.8,2.6,4.2,7.9-3.6,2-.1,2.6.4,3.8,4.6-2.7,3.2,5.7-.1,5.3-8.1,3.8,10.7,9.1-1.5,14.3,1.5,1.4,1.9,0,2.5-.5s4.2.4,2.7,2.1c-3.7,4.4,4.9,8.4-.1,12.7-1.6,1.3,1.2,2.7,1.4,4.7-1.2,4.6.1,10.2-.3,14.1-2,1.3-1.2,2.4.8,2.8a3.1,3.1,0,0,1,2,3c-3.6,3.6,1,7.5-.3,11.3s3.6,8.1-2.6,8.5c0,3.1,4.6.6,4.3,4.1-9.4,6.8-.6.7.7,8.4-1.4,9.1,4.9,28.8-1.8,32.2,8.8,8.2-1.3,19.1,7.3,26.7-4.2-49.4,8.2-59.4,6.3-102.7-2.2-90.9,9-176.4,23-266.9,6-43.3,9.1-89.7,5-132.2-9.3-.4-18.4-6.7-26-12.5-3.9-5.4-4.5-14.7,1.1-16.9-.5-5.2-.5-5.2,2.8-9.1,1.6-12.7.4-31.2,13.5-38.9,10.1-.6,17.1-10.8,25.2-11.1,2.8,1.5,4.1-.3,4.5-3.1-.3-5.7,8.4-12.9,11.6-11-1.2,7.7,5.4-.3,7.8,2.8,11.4,5.1,30.6,15.2,42.2,13.1,4.5-4-7.4-9.1-2.4-12.1-3.7-4.8-4.4-7.1-13.9-4.9-18.9,6.3-29.3-22-42-21.1-1,.8-2.6,3.8-4.7.7,4.7-12.5,3.6-30.3,13.3-44.5,8.6-12.1-18.6-13.8-23.2-22.8-6.5-19.3-25.3-36.5-32.3-54.7,8.8-9.8,24.6,30.6,31.9,37.8.6-20.1-18-31-23.6-48.2.5-15.1-34.7-20-46.2-32.4-13.4-10,3.6-15.5,7.5-23.5,41.3-42.6-1.7,20.3-35.9-99-12.4-35-34-70.8-31.2-108.4-10.4-5-42,20.8-46.4,3.8-1.5-32,33.7-58.1-20-39.3-2.9.7-7.4,1.9-10.4-3.3s.3-5.5,2.4-5.5c19.4-2.8,25.9-26.3,43.5-33.1-5.6-9.6-22.5-31.8-26.3-48.7-4.8-7.8,6.4-13.2,9.7-4.1,1.6,11.6,29,23.3,32,12.1-3-8.7-20.1-26.9-6-28.4,8.7-.2,15.1,7.8,22.7,8.1,12.3-7.5,27.9-.5,38.7-11.4,0-7.3-17.8-14.8-11.3-24.8,5.9-5.3,70.1,13.9,50.2-2.2-8.8-4.3-20-31.8-6.1-28.8,5.6,13.8,77,44.5,56.2,22-23.9-25.7,52.8-3,58.1,8.3,10.8,2.4-8.1-12.6-2.3-16.4,18.3,2.9,37.1,29.4,42.1,47.9,8.2,2.8,6.7,9.1,8.5,15.4.4,4.5,6.7,11.1,3.3,15.3-13-9-34.3-85.4-38.1-45.1-12.5-9.3-27.7-27.3-48.7-27.1-28.1-2.5.3,9.2.6,21.2-24.3.9-51.6-16.8-75.3-24.3,39.1,40-14.6,17.5-38.6,23.3,26.1,22.6-9.6,27.1-27.2,34.7-18.2,3.6-38.4-18-17.7,11.7,10.5,15.4-24.7,13.5-34.3,8.4,21,49.1,44.1,16.5-2.1,52.2-23.9,25.1,40.8-15.2,12,28.8-11.8,31.3-10.8,36.1,21,23,18.2-4.1,28.6-25.8,35-39.9-4.1-30,28.4,35.6,33.2,38.9-2.2-9.4,5.2-24.7-4.9-30.5-4.5-1-12.2-12.8-3.5-11.4,14.8,5.6,7.4,6.7,11.3-1.3,6.9,3.4,5.3,17.9,14.2,22.5,5.6,10-6.5,14.9-6.9,2.8-10.9-2.7,4.4,26.3-2.9,32-10.2,3.1-12.5-14.8-20.5-15.5-15.9-1.3-27,2.4-35.6,14.6-8.7,14.9,9.5,40.2,14.8,56.1,3.2,29.8,22.2,59.8,32.8,88.8,7,35.2,32.1,29.8,60.4,36.3,7.2,2.2,18.7,2.1,23.7,6.8-.7,4.8,2.6,3.2,4.8,3.2,23.1-2.2,42.3-16.8,63.2-25,23.4,1.8-54.8,33.7-65.2,32.5-59.3-36.8,31.7,89.6,6.9,78.1-33.6-19.9-15-42.4-53.9-71.8,16.9-7.3,22.9,24.9,20.2-12.7.3-4-3.1-4.3-5.6-4.1-14-5.9-21.5.9-31.3,10.5s-25.3,20.8-4,27c47.5,15.4,69.6,79,111.1,92.1,42.7-57.3,7.3-55.8,21-102.7,28.2-26.2,43.6-60.3,46.9-98.9,10.4-15.2,1.8,28.8-.3,34.8,3.7,19.4,55.2-23.2,63.6-34.1,7.2-8.3-29.9-15.8-30.8-10.4-2.9,9.3-12.7-3.7-5.9-6.6,3.4-2.8,8.4-6.4,6.2-10.3,4.3-7.5-.3,14.5,9.5,9.8,11.8-2.4,21.4,6.1,31.3,5.6,31.3,17.2-.7,42.1.1,65.7,58.2,6.2,99.2,55.1,142.5,91.3,29.2,24.5,69.9,31.4,93.4,63.8,119.3,202.2,96.7,472.3,119,690.5,7.3,71.6,26,114.1,43.5,179.5,3.2,29.5,42,80.9,29.2,96.7-39.1-97.4-76.2-195.8-82.6-301.8-3.1-38.3-12.2-359.6-32.2-317.7-4.4,39.3-12.9,84.7-30.6,122.2-12.4,25.4-19.5,3.8-28.9,20.9-2.9,13-51.4,61.6-24.9,51.6-36.9,33.6-80.8,16.5-120.6-.2,5.3,5.3,1.1,12.5,6.6,17.6-.9,5.2-10,7.8-6.5,17-27.3-28.5-62,10.1-93.9,9.4-19.8.6-39.1,2.5-57.7,4.1,4.1,5.2,1.3,21.2,10.6,21.3,25.6-4.8,17.8,29.4-3.2,29.6-10.5,5.7-8.8,27.9,3.8,30,25.9-33.6,22.7-41.5,20-80.4,15.5,17,10.9,50.2-3.1,69.4-5.8,8.4,5.5,9.7-7.9,16.6-9,9.8-25.9-3.6-28.1-14.1-22.4,3.2-50.7,8.1-75.3,7.3-9.8-.8-8.9-4.9-19.6-4.6-1.8-4.6-16.2-1.8-6.5-6-.6-6.7,9.6-3.1,13.5-.5,2.1,3.3,4.1,1,6.9.7,3.8,4.9,11.6-.5,15,5.6,17.4-15.6,67.4,9.7,69.3-25,0-6.3-17.3-10.3-14.4-17.6,11.3.8,28.4,21.2,39.2,1.1-1.9-8.1-12.4-3.6-17-.6-5.1-.2-23.3-7-9.9-9.5,10.1.1.4-16.8-1.2-21.9-5.8-7.7-18-8-25.6-14-20.1-14.4-38.5,7.6-59-.5-4.4,0,.1-3.1-2.6-3.9s-1.4.8-1.7,1.8c-.7,3.4-6.6,1.8-3.8-1.1-.1-6.3-17.4,1.4-13.7-8.4-3.5-5.3-1.8-10.1,4.1-5.9,20,15.7,10.5,7.7,33.4,11.2,8.1-4.1,18.1-1.3,25.7-6.1,4.6,1.1,10.1,6.6,16.3,6.6,51.3,21.4,113.6,6.9,161.3-15,3.3-5.4,21.6,10.2,19.8-1.3-16.6-54.9-99.1-86.6-134.5-135.2-15.8-6.1-27.3-13.9-36.5-28.9-1.7-16,1.5-26.4-8.8-41.8-67.6-52.9-62.4,40.5-79.9-104.9,4.1-16.5-22.7-31.5-30.2-17.6,4.5,7.7-3.5,12.1-2.2,18.9,2.9,2.4-2.4,2.2-1.4,4.3,1.9,8.7.1,25.9-4.2,32.7-1.6.5-.8,1.7-.1,2.3,4.6,5.4,2.9,17.2-2.1,21.8,4.1,7,5,18.7-1.9,23.7,0,3.9,4.5.6,2.8,11-1.4-.1-7.9-4.2-3.9.3s1.5,7.7-3.5.7c-5.3-2-.2-4.3-1.3-7.4-10.2,20.6-10.3,61.3-12.4,86.3-3.6,32.4-17.8,71,2.8,100.2,5.6,8.5-4.7,16.8-9.7,6.8-7.4,6.3-.3,32.7-3.8,45.4-1,116.6,13.9,233.5,13,350.7,0,3.1.7,10.2,3.4,7.1,3.9-13.4,8.8-30.5,11.8-47.1-1.5-16.9,1.8-34.1,2.4-51.5,3.4-66.2,3.6-118.8,4.8-180,7-12-14-17.8-5.6-27.6,1.7-1.6,1.5-3.5.8-4.3-4.5-5.7,2.3-10.3,1-15.4-6.2,7.1-1.3-7.5-1.9-10.5s-1.1-3,2.4-2.7c-6.6-4.3-5.9-11.6,2.8-10.2-6-.5-.5-4.9-3.9-6.7-1.3-.8,1.6-5-.3-4.9s-.3,3.4-.8,5.3c-6.9,7.6-2.3-5.2-3.6-8.9.9-2.5,6.9-4.9,1.6-7.8-8.2-4.7-13.1-13.9-18-18.7-1.4-2.7,3.7-.8,2.1-3.4s-3,2.6-4.5,0S464.2,1222.3,465.6,1221.4Zm12.6-587.5c-1.2-2.6-.9-7.2-6-4-1.6,1.1-2.2-2.5-3.2-.6s-.2,1.4.7,2c22.4,6.7,16.6,35.4,30.3,51.9,12.5,14.1,24.5,12.9,40.9,7C515.7,675.5,498,653.7,478.2,633.9ZM993,1017.1c-1.8-.9-3.8,1.7-5.3-.6,2.6-1.4-.8-5.5,1.5-5.5,5.8-.2,1.7-3.2,2-5,1.9-2.9-1.6-4.3-.2-6.4,18.6-49.7-9.1-131.3-25.6-190.4-30.5-129.8-76.2-128.4-166.7-199.1C768.5,583,663.9,490.9,685,581c-7.5-11.8-8.9-27.1-10.2-41.1-2.6-21.1,30.3-48.9,8.9-63.5-9.4,9-19.7,23.5-33.3,31.1-73.9,33.8-30.3,23.7-81.9,72.8-12.4,17.1,6.5,40,1.6,59.6-1.4,15.1-44.6,67.7-4.6,34.2s136.8-55.8,120.3-121c42.9,62.9-94.7,99.2-128.2,136.5-7.4,7.6,16.6,10.9,19.1,19.1,24.1,12.2,62.1-16.3,87.8-2.2-23.9,6-54,6.4-79.7,11.5-3.2,9.3-2.4,22.2-8.7,32.6-1.6,20-24.6,10.6-15.4,28.6-3.3,2.3-.4,3.7-.3,6.2.2-4.3,3.8-6.8,4.7-1.4,6.7,21.2,40.7,21.1,56.9,34.6,79.7,6,64,94.3,98.1,144.6,8.1,4.4,36.4,32.5,42,21.5,1-4.5,5.6-1.6,8.3-2.6,35.5-11.4,89,8.4,116.6,30.9,7.4,7.1,44.6,35.9,34.2,40.1-35.9-34.9-76-60.9-126.2-64.4-6.5.3-12.8.5-18.6-3.4-.6,1.9,3.1,4.3-1.1,4.8-7.8,5.9,16.9,6.2,20.6,10.9,18.1,14.1,46.1,27.3,66,46.8,37.8,28.8,100.6,72.5,82.7,119.3,1.1-8.4,16.2-15.3,16.8-26,1.1-14.9,9.6-27.2,10.6-43.6,3.4-13.4,5.5-28,10.5-40.7C983.9,1043.2,983,1027,993,1017.1ZM717.6,969.9c-6.8,161.2-144.4,76.3,27.3,213.7,11.7,6.8,20.1,17.6,31.8,24.1-6.4-15.8.2-23.8,7.5-5.6,9.3,40.5,88.8,45.5,112.6,31-8-14,31-37.6,20.1-44.2-5.6-1.9,3-3.3-1.6-4.1-1.7-.5-4.5-2.3-2.6-4.6,16.2-9,21.2-10.9,27.3-31.1-11.1-57.6-81.8-91.8-125-127.5-16.9-12.7-50.4-3.1-60.7-22C750.4,985.6,724.6,984.4,717.6,969.9ZM486.1,884.6c-2.8,19.8,32.1,10.3,39.6,26.6,11,6.4-5.5-26.8,3.3-17,3,14.3,56.2-24.1,70.8-7.1-17.2,7.2-38.4,7.2-56.3,16-33.8,51.4,27.8,20.4,51.1,22.2-2.1,7.1-18.7,11-26.8,10.8-35.6,1-32.9,17.6-26.9,47.6,3.4,39.3,28.2,23.7,57,36.4-7.1-14.2-14.3-36.8-32.5-38.1-15.6-6.7,2.5-1.7-9-7.3,2.5-6.9,13.8,5.3,14.6-.5.1-1.8-3-4.2.6-5.3,30.7,17.5,33.1,66.8,57.4,90.3,52.8,38.8,72.1-33.5,79.4-75.4-8.9-45.7-15.3-111.2-49.6-143.6-44.4-19.5-92.7-35.5-137-48.2-21.4-11.9-17.7,11.9-8.4,25,10.2,10.7,28.5,12.8,43,15.1,10,4.7,21.5,5.3,28,13.5,11.3,1.7,20.9-5.8,31.6-1.9,20.8,9.1,60.7,33.4,49.2,59-11-5.8-5.4-27.4-22-30.1-8.1-9.9-19.2-20-33.6-21.6-22,4.7-48.1,7.7-66,20.5,2.3,9.6-10,13.5-9.9,22.8-3.2-7.8-9.5-3.8-4.5-9C516,880.8,500.6,891.5,486.1,884.6Zm61.1-45.3c-12.2,1.8-30.4-5.1-40.2-12.1,2.7-4.4-3.6-2.8-4.6-5.1-4.4-7.8-5.7-18.2-9.2-25-17.7,5.6-29.6,11.9-29.9,33-1,8.8-13.4,27.8-.7,31.9,13.4,9.7,82.6,24.9,74.9,3.3-10.4.8,8.3-6.9,8.6-10.1s2.4-5.7,5.8-1.9,27.2-2.4,17.2-7.1C565.7,845.4,542.1,844,547.2,839.3ZM505.9,729.2c-2.5,18.2,4.7.1,10.7,5,1.7,3.5-3.7,4.9-5.4,7.2-6.8,7.9,11.7,18.7,18.1,22.4,55,18.6,61-78,14.2-58.2-1.5-.9-4.7-1.4-2.8-5-2.8-11.1-22.5,6.3-24.3,13.3-.1.6-1.8,1.6-2.5.7C509.9,708.6,503.5,726.6,505.9,729.2Zm-48.3,801.1c1-52.9-.9-136.8-11.6-173.6C443.4,1415.7,440.3,1480.8,457.6,1530.3Zm202.5-451.9c-15.8-1.4-29.5-12.5-43.4-17.6C621.8,1079.9,645.9,1108.4,660.1,1078.4ZM493.4,924c-12.2-4,9.8-22.3-9.4-19.6-2.1,5.4.6,16.7-.5,23.3C487.3,927.9,487.7,922.2,493.4,924ZM437,1500.2c-1.4,6.8-2.6,13.1-3.9,19.6C440.3,1515.9,441.7,1509.5,437,1500.2ZM378.2,336c6.3-1.6,12.2-16.4,2.3-7.7C380,330.7,373.5,334.9,378.2,336Zm14.3,3.8c3.2-5.3-5.6-6.6-7-2.5C386.6,339.6,390.2,337.7,392.5,339.8Z"
		transform="translate(1.8 -10.3)"/>
	<path
		d="M2340,745c-38.9,11-97.5-6.5-127.4-36.8-12.2,6.9-24.3,31.6-30.2,46.9-4.6,8.1-13.7,17.2-17.8,27.8.5,4.9.4,7.4-4.4,9.5s-1.4,6-4.1,8.4c-.9,2.3-3.5.5-1.9-1,14.4-39-21.9,11.8-23.1,30,23.4-12.4,24.2,16.2,24.5,32.4,2.6,43.1-56.4,50.8-80.4,67.6-8.1,12.2-17.4,27.2-20.1,40.1,8.3,7.2,8.1,17.3,17.3,23.5,4.4,7.9,55.2,29.9,41.4,35.2-32.1,14.4-74,9.8-102.3,15.8-9.4-9.9-6.4-29.1-19.3-38.9.3-5.8-7.1-7.8-7.1-12.5.8-1.3,2-2.8-.9-3-9.5-3,2.1,7.4-15.3-3.2,6.8-10.2,6.5-31.1-4.6-42.8-8.6,5.3-9.7,37.9-21.2,22.5-.5-2.4-.5-5.2-3.7-1.7-11.9-1-3.4-23.5-2.8-31.9,1.3-3.5-.4-4.7-3.1-2.7-18-3.9-21.4-38.5-31.5-53.9-7.8-38.5-20.4,45.2-44.7,31.3-3.5-8,11.9-7.8,14.1-15.5,10.4-15.4,21.8-32,22.5-51.2-.6-6.1,4.1-1.9,6.2-5.2,4.8-6.1,6,4.4,3.8,7.4-7.7,21.6,12,39.6,16.7,59.1,10.2-22.6,16.1-50.8,43.7-60,18.6-10.1-55.5-103.9-31.3-103.1-.1,12.2,13.5,26.3,20.9,39.2,9.3,14.6,27.6,108.7,45.1,88.2,6.4-106.6,43.8-48.8-23.7-87.4,54.4,35.8,63.4-41.4,94-72.9-45-19.4-41.9-67.1-22.1-110.3,15.5-25.9-11-1.7-23.4-8.1-17.4-2.8-37.1-27.3-51.1-24.2-8.1,7.6-8.1-17.5-8.8-23,.3-18.5,9-47.9-20-42.8-3,1.9-20.3,1.5-11.2-3.1,4.1-3,20.7-2.3,16.1-10.3-2.2-2.7,2.5-10.8,3.1-4.9-.7,9.5,6.2,9,13.1,6,11.2-6-2.5-27.9,2.6-40.2-1.3-8.7,5.8-19.4,2.3-26.7-7.2-3.4,4.6-12.1,1.7-19.3,12.1-34.3-11.9-41,18.3-51,9.3-.8,21.9-14.5,28.7-3.1,1.8,6.8-5.5-1.4-9.8.2,1.3,7.4,16.1,14.8,24.2,18.8,27.4,3.3,15.6-12.3,5.4-25.7.2-12.1-19.3-8.5-19.3-22.9-7.7-10.3-13.5-47.8,8.6-38.6,6.9,4.9,2.4-7.9,9.5-8.4,7.6-3.2-1.2-13.3,3.3-17.8,9.5-3.3,4.4,12.9,5.5,18.9,1.2,2.7-3.9,2.8-5.7,5.1s-2.3,8.2-7.4,9.3c-1.9,3.2,3.6,8,2.4,11.6-7.5,5.2-9-7.9-12.7-12.4-11,27.8,22.4,46.5,34.1,68.5,30.7-43.4,45,3.1,86.1-17-12.7,26.6-52.2,5.9-77.6,22.5,2.6,15.5,41.1,23.6,54.9,21.9,49-50.2,42.8-34.2,33.8-103.8,1.2-7.3,1.7-14.5.5-21.5,4.3-4,3-16.4-2.4-21.2-7.4-5.3-15.3,3.5-23.4,2.6-4.1-.8-7.4-2.2-11.4.4-2.6.2-6.8-19.4-1.5-12.8,2.2,10.5,26.2,9,23-1.8-19.8-16.1-43.9-27.6-69.3-17.8-18-1.2-15.5,28.2-30.1,24-4.1-2.7-5.5,3.5-8.5,5.4,2.5-.2,3.8,2.3,6.4,2.5,4.5,6.9-9.3,2.8-7.6,10.8-.4,14.8-11.5,39.3-10,9,6.8-26.3-17.7,4-26-10-4.7-4.5,5.2-13.5,8.2-7.2-11.3,2.5,1.6,5.7,5.4,1.2,16,2.4,19.5-23.4,32.7-17.3,9.3-1.8,2.5-22.5,23.5-25-5.6-8.1-35.5-16.5-42.4-11.3,35.1,8.3-29.6,20.7-27.4,37.5-9.1,13.2-6.9-11.2.5-15.2,3.8-5.5,23.2-10.6,12.7-18-5.9-19.6,29.8-13.5,40.6-9.9,15,3.8,25,19.5,40.7,12.1,18.5-1.1,52.4,14.4,56.9,33.1-.1,2.7.2,4.6,3.4,2.1,9.9-5.1,14.1,13.1,15.6,20-2,23.3-2.3,44,3.4,66.6,5.5,20.2-12,39,20.6,45.3,12.3-3.6,65.4,18.4,28.8,13.4,16.6,6.4,27.5,43.2,36.9,37.2,19.4-10.2,41.7-30.3,60.4-7.3,9.8,2,36.7,25.7,22.6,25.9-11.5-12.1-15.3-8.1-4.2,3.5,13.5,12.6,5.5,34.3,7.5,52.3-4.6.2-17.4-1.7-12.7,6.8,6.2,13.1,4.9,3.6,12.7-.8.6,6.8-.2,9.6-4.7,13.8-8.8,11-14.6-29.1-22.5-3.9-9.9,47.8,35,41.7,21.3,48-51.5-28-9.8-1.7-78.5,29.3-5.7,6-12-2.3-16.7,2.5-1,9.5-17.4,12.8-15.5,20.4,10.3,21.7,20.5,39.5,44.1,48.8,4.3,7.2,10.9-5,11.5,3.1,9.2,13.6,35,16.4,37.1,39.2S2336.1,727.8,2340,745Zm-255.8,281.2c4.9,8.1,34.1,2,6.8-10.8-1.2,11.4-11,6.3-17.9,16.2C2083.7,1032.9,2084.9,1032.3,2084.2,1026.2Zm99.4-319.6c18.7-10.4,8.7,2.9,10,15.4,3.7-10.2,19.2-18.2,5.1-25.7-7.9-5.6-10.1,6.7-15,10.4-2.2,2.6-8.3,3.5-5.8,7.4C2184.6,734.6,2183.4,718,2183.6,706.6ZM2010,366.9c-7.9-35.7-44.2,6.8-17,23.2,12.6,1.4-5.1-24.4,4.2-28.9,6.7-1.4,2.5,14.7,11.3,6.6,3-3.4,2.8,18.9-2.2,15.8-1.8-.6-3.3-.5-2.5,1.5,1.3,8.3,2.9,17.3-2.5,24.8,3.7-.4,6.6-3.1,8.2,1.5.8,7.4-14.4,10.4-14.2,20.8-14.7,11.5-3.6-18.6,4.2-21.9-6.9,5.3-21-1.6-21,11.3-.7,15.2-9.8,53.4,5.7,59.4,6.2-3.4-1.6-8.7,13.5-4.9,19.3,0,51.7,18,22.5-4.3-23.2-15.8-8.9-46.7,17.6-43.8,15.1.5,12.5-19.5,21.7-24.2,20,43.5,11.9-6.8-17.3-10.8-25.4-10.5,7.4-5,12.6-1.9-8.8-3.8-22.1-20.5-26.3-7.8-5.6,3.6-.8,9.4-5,11.7s-5.3-6.6-4.7-9.8c2.5-6.2,7.5-6.2,11.3-8.9C2029.8,369.2,2017.3,363.9,2010,366.9Zm77.4,318.6c-21-5.1-6.7-34.9-.1-46.9,1.9-3.8,11.7.9,13-8.1,4.4-13.4,8.9-37.7,23.1-41.8,5.7,4.3-39.6,89.3-8.9,57.7,7.7,3.2-29.4,49.6,2.6,44,23.7-17.3,41.5,16.2,61.5,11.8,24.6-18.6-18.5-33.2-23.2-53.1,12.3,6.5,19.5,26.1,35.1,29.9-3.3-9.8-4-18.3-13.4-20.9-14.5-17.3-56-111.5-71.2-61.2-35.5-23.9-51,122.2-19.1,92.4C2114.1,634.8,2077.7,621.3,2087.4,685.5Zm-27-204.2c34.3-3.9,8.8,21.9,32.7,22.6,20.8-32.6,23.2,38.2,16.1,46.8-16.6,26.2-39.2,14.3-55.6,26.9,13.2.8,15.4,27.2,5.4,36.2-12.2,10.5-16.2,27.3-16.8,43.2,2.6,10.9,8.9,36.9,22.9,34.1-3.1-8.2-6.8-19.8-6-30.3-4.5-46.8,39.7-108.5,90.8-77,3.5,10.4,13.3,21.1,7.2,30.4,6.1,11.2,17.1,17,21.5,29.3,18.7,27.8,13,45.9,44.7,67.5,27.4,24.8,77.3,33.6,110.7,31.4-24-17.6-61.3-22-85.4-44.4,18.8,9.1,37.1,19.3,57.3,25.3-16.4-19.5-45-36.6-54.8-57.6,17.8,17.5,32.4,29,21.8-4.3-14.7-12.4-36.4-17.3-45.2-35.6-7.9-26-9.6-24.5-34.4-34.4,13.3,29.2,30.7,55.3,42,85.1,13.3,41.9,5.7,68.6-4,6.5-14.3-34.6-31.3-71.2-52.6-101-10.5-7.6-39.1-21-28.6-35.9,4.1,3.2,3.8,11.1,9.9,13.7,11,3.1-13.7-17.5-11.8-25,2-11.3-17.8-5-18.7-13.6,1.4-5.5,7.6-1.4,11.3-2.6-5.2-14.7-21.6-23.2-28.9-37.2-12.9-21.8-36.6-17.8-55.4-7.3C2060.1,476.9,2064.8,473.1,2060.4,481.3Zm105.4,228.4c-68.8-52-109.6,35.8-114.8,95.4-6.7,61.8-.6,59.9,55.7,37.7,13.4-2.9,18.7-15.2,18-27.2,9.4-6.8,6.1-35.8,16.1-32.6,2.6,13,10.3-7.5,16.1-13,11.4-17,26.1-32.2,15-51.8-4.1-7.4-17.1,6.1-24.5,5.6C2130.3,726.6,2160.2,712.3,2165.8,709.7ZM2133.1,840c26.9,3.1-21.8,11.2-28.3,13.9-20.8,4.2-38.3,23.9-57.1,8.2-6.9,10.4,3.1,37.2-12.4,38.8-11-9.1,10.8-41.9-22.7-29.6-12.6,15-4.5,41,0,58.9-1.1,22-29.8,44.6-11.8,67.4,2.1,2.4,2.7,4.3,5.4.9,8.4-3.5,7.9,24.7,9.6,13.8,6.6-23.4,14.5,26.6,30.5,16,7.9-1.9,42-5.3,24.4-16-11.9-12.2-50.5-61.2-29-72.2,8.2-.2,5.3,25.2,13.1,1.9,38.9-45.7-46.3-6.6-43.9-34.2,1-5.2,14.6-13.2,14.5-5.5-4.5,7.7,2,5.4,7.7,5.5,18.3-1.9,40.8,16.5,55.3-.2,1.6-11.1,24.1-23.6,12.7-4.7-1.9,7.5,9.4-3.9,13.4-2.8C2153.6,901.1,2155.9,818.8,2133.1,840Zm-50.3-384.2c5.8.6,11.8.9,17,2.8,17.1,8.7,41.8,2.7,59.3-1.8,15.3-4.6,39.9,5,41.4-10.7,18-27.5-9-73.6-35.7-90.7-20.9-5.4-22.8,30.5-24.8,45-3.8,18.5,13.5,32.6,11.6,51.1-4.6,12.2-9.6-28.5-16-32.9-4.5-19-44.8-5.4-46.9-21,1.4-11.8-18.1-27-29.8-29.4-6.3,2.4-13.2,3.3-19.4,5.2,2.5,2.6,7.4,9.2,10.9,4.9s3.8-1.5,4.7,1.2c1.9,7.4,10.7-.9,12.5,5.7-8,8.6,1.6,4.8,4.7,18.4,7.1,11.9,7.9,23.9,12.9,35.9,1.1,9.9-7.1,3.5-8.1-2.6-.5,11.9-16.5,12.6-21,23.5C2050.3,478.6,2109.7,422.6,2082.8,455.8Zm-86,433.7c-10.6,7.2.4,27-13.6,28-14.2-11.4,13-36.4,2.6-43.1-4.3.3-29-26.6-17.3-23.3,8.9-15.5-30.6,15.4-33.8,29.7-3.9,11.6,17.4-15.9,11.7-2.7-10.9,14.9,19.9,37.9-.3,50.2-1.5,5.1-.1,11.7-1.4,17.2,1.8,27.5,26.4-50.5,36.9,31.5,10.8-6.9,7.2-6.9,10.4-18.2C2004.7,928.8,2007.3,923.8,1996.8,889.5Zm72.9-324.6c30.4-2.5,39.4-25.7,33.3-52.9,1.1-8.5-7.5,1.1-11.3-4-4.1-1.1-9,7-13.3,2.4-8.9-18.5-9.4-29.8-30.8-9.4-9.8,7.4-12.6,17.8-18.1,27.6-3.4,2.7-1.7,4.3-.9,6.9s3.5,3.3,7,3c-6.1-4.1-.2-7.7,3.7-6.6s-1.8,2.8-1.7,4.8c5.8.1,4.1,11.3,8.2,13.8,7.7,9.4,16.8,11,25.9,3.4C2081.7,554.1,2071.2,559.9,2069.7,564.9ZM2202,501c12.5,2.4,11.5-6.3,21.5,3.5,21.8-10,59.9-20,46.3-50.9-4.7-14-78.7,18.9-103.5,11.2,15.3,7.4,21.6,23.8,23.8,38.9a3.8,3.8,0,0,0,4.1-3.2C2196.5,489.5,2216.3,490.6,2202,501Zm-9.5,16.1c-12.2,4.8-34-.1-40.9,10.8,6.9,19.3,41.2,71.4,54.5,33,2-8.7,2.4-36.9-8.3-34.6C2190.1,530.1,2187.1,521.6,2192.5,517.1ZM2031,539.4c-14.8,12.6-43.8-2.1-51-18.1-23.1,28.4,53.6,78.6,70.8,46.9C2049.1,558.9,2031.7,553.1,2031,539.4Zm-22.7,315.8c-.2,13.5,9.4,2.2,16.9,6.5,5.9-1.5,8.7,6.2,10.2,2.4-.8-5.8,8.1-34.4.8-33.3-.2-20.9,9.6-48,16.3-69.9-1-10-8.7,11.1-11.6,13.9C2025.6,800.1,2013.2,824.8,2008.3,855.2Zm106.4-384.5c10.2,10.5,30.3,51.8,42.7,43.1,5.6,1.7,21.4-1.8,8.3-3.8-4.2,2-8.2-3.5-11.9-1.8-4.9,4.3-6.6-.2-9-3-1.3-15.7,30.7,5.5,35.5-3.8C2178.4,463.6,2141.7,470.8,2114.7,470.7Zm97.9,120.5c11.5-1,17.7-11.4,22.2-21,4.5-6.5-11.6-11.6-7.2-30-1.5-16.5,23-17.1,18.9-31.8,0-9.8-41.8,10.5-31.5,17.8C2228.2,553,2192.1,590.8,2212.6,591.2Zm-1.7-177.3c.2,30.7,11.7,8.4,28.7,2.8,4-14-15.6-29.2-25.3-39.1-7.2-5.3-16.7-16.1-26-13.2C2192.6,380.9,2211.3,393.9,2210.9,413.9Zm86.5,68.6c22.5,3.1,17-9.1,13.1-25.1-.2-8.9-16.3-7-8.4-17.1,4.7-9.3-9.7,2.4-12.6-4-2.3.8-5.6,3.4-8,4.7-11.3,7.8,2,25.9-1.9,38.4.5-5.9,8.6-9.1,5.5-16.4-1.1-3.6,4.2-5.5,5.7-1.7,7.9,8.6-3,14.3-5.8,19.9,3.5,3.3,6.7-4.2,10.5-4.1S2301.3,480.2,2297.4,482.5Zm8.1-76.9c-9.4-19-87.7,25.4-88.6,41-.6,8.1-9.5-4.7-10.6,4.8C2242.2,455.6,2265.8,404.8,2305.5,405.6Zm16.3,323.3c-21.9-91.1-70.4-64.5-23.6-27.2,15.7,6.7,7.5,9.3-4.2,3.1C2301.4,715.1,2312.7,720.6,2321.8,728.9ZM2065.7,440.8c-26.3-13.8-71.8,32.5-22.6,29.3C2050.2,460.4,2053.3,447.8,2065.7,440.8Zm73.3-67.2c-12.9,5.3-19.3,19.8-35.6,10.9-3.6,2.1-15.7-6.4-12.7.5,8.5,17.9,24.9,13.7,39.9,16.6C2138.8,404.5,2132.9,379.6,2139,373.6Zm102.9,71.9c26.4-5.4,44.7-22.7,75.9-20.6C2298.8,393.8,2264.1,437.8,2241.9,445.5Zm52.9,94.9c-17.6-19-28-9.9-29.4,12.9C2266.9,572.3,2288.8,546.8,2294.8,540.4Zm1.9-5.2c10.2-9.4,3.9-19.4-6-26-7.5-8.3-12.5-15.3-16.8-.1C2265.4,525.8,2293.6,521.1,2296.7,535.2Zm-61,14.8c5.6,23.6,7.3-10.6,17.2-8.3,2.7-6.4,11.6-8.7,12.8-15.3C2253.4,511.9,2230.8,535,2235.7,550Zm-220.4-14.8c-.5-16.6-12.5-30-29-22.9C1988.6,526.5,2002.3,532.2,2015.3,535.2ZM2274.4,492c-18.5-.3-30.3,22.7-5.8,25.5C2268.4,508.7,2272.2,500.7,2274.4,492Zm-256.8-40c11.7-15.8,32.1-20.8,50.5-16.9-8.8-23.7-8.2-13.5-23.2-2.1C2035.1,437.6,2012.6,434.4,2017.6,452Zm317.1,24.7c-12.1-10.2,6-17.8-1.2-29.1-3.9-10.7-15.1-18.4-20.9-4.6C2346.9,442.1,2313.4,477.7,2334.7,476.7ZM1936.2,927c10.8-14.9,1.8-46.1-10.9-18.5C1924.1,918,1938.5,916.5,1936.2,927Zm168-584c-11.2-4.6-31.1-12.2-34.5,6.1C2080.9,344.5,2092.7,344.5,2104.2,343Zm-78.5,147.5c-4.6-4.2-27.8-10.5-28.3-.1C2003.4,496.7,2017.8,494.4,2025.7,490.5Zm285.1-1.1c-29.2-1.3-6.9,11.8-5.7,26.9C2307.7,508.7,2303.2,497.4,2310.8,489.4Zm-329.3-101c-4.6,16.8-4.5,20.3,12.5,14.4C2001.3,398.4,1983.4,394.9,1981.5,388.4Zm273.1,179.7c-2.6-2.6,12.9-5.1-3-11.9-1.5,4-15.8,19.9-3.2,16.1C2250.9,571.9,2255.5,572.1,2254.6,568.1ZM2046.2,755.3c11,0,10.1-9.9,13.8-17.4C2062.9,724,2046.5,750.6,2046.2,755.3ZM2010.5,502c-7.3-.5-20.9-6.7-23.4.8C1992,508.6,2003,504.2,2010.5,502ZM1974,490.4c-4.6-1.5-8.3,2-12.5,2C1958,500.7,1974.3,504.6,1974,490.4Zm344.6-24.1c3.4-5,4.7-18.5-3.8-14.6C2314.3,456.2,2317.8,460.6,2318.6,466.3Zm-295.2,39.5c-6.2,1.4-4.5,7.8-1,10.4C2026.3,515.2,2028.7,507.3,2023.4,505.8Zm240.1,35.4c-3.3,2.9-10.2,8.7-3.7,11.3C2264.3,553.8,2264.1,544.8,2263.5,541.2Zm-109.9,65.5c-4.1-4.8-5.2-14.2-10.7-16.6C2141.6,595,2149.5,602.8,2153.6,606.7Zm138.1-107.1c2.3-5.1-3.9-14.5-6.3-7.3C2288,494.3,2288.1,498.4,2291.7,499.6ZM2094.8,687.9c-2.9.7-1.6,6.9,1.9,7.1S2097.6,688.3,2094.8,687.9Z"
		transform="translate(1.8 -10.3)"/>
	<path
		d="M1,359c14.9-16.3,12-45.5,26.2-63.5,17.2-16.6,5.1-40.1,12.8-58.8,8.5-20.5-19.2-23.2-14.3-36.7-5.3-6,1.6-14.6.9-20.7-4.5-6.5,6-4.3-5.4-6.4-5.8.9,2.6-7.4-3.7-5.6-2.2.8-2.8.1-3.4-2C8,153.1,3.4,141,10.4,128.1c3-3.8.3-15.6,8.1-12.5-8.1-14.4,7.4-9.5,9.6-16.1.6-3.6,16-2.9,19.5.7-4.1-8.7.7-3.2,4.2-3.7,6.6-6.2,13.9,2.4,19.5-2.7,2.4,5.5-8.5,6.5-11.9,10.7-1.2-5.8-4.1-2.8-6.3.3-6-1.8-10.1,4.8-15.5,4-3.8-8.9-5.9,6.3-11.9,4.5-1,4.3-1.6,8.1-7,9.1,12.3-1.3-4.3,9.7-.1,22.9-.2,2.5-3.4,1.7-6,1.1,1.4,2.1,3,1.3,4.3,1.5s3.7.6,3,3.9c-1.9,6.4,6.8,9.4,8.3,14.2,5.9-4,8.7,14.4,7.7,19.6-6.2,6-.4,11.2-.6,17.3C59.2,214,43.8,241,47.5,261.3c.8,13-5.6,29.2-14.5,42-13.2,19.9-13.1,45.6-26.9,65.5-19.8,71.6,63.8,82.5,115.7,66.8,86.7-11.5,178.6-41,123.4-144.3-28-3.2-45.5-26.7-45.2-54.8.6-38.3,44-45.5,54-75.7,5.1-40.5-39.8-41.8-63.6-59.5-5.2.7-4.8-6.2-10.9-5.2-3.3.7-3.5.4-2.7-2.5s-4.4-2.8-2.3-5.6a2,2,0,0,1,3.2.5c.7,3.8,4.4,2.9,6,5.3,5.1-4.6,7.8,3.3,12.1,2.3,11.5,12.3,32.2,11.9,45.6,22.1,42.9,34.4,8.4,66.5-23.2,90.3-16.8,22.7-13.7,67,17.3,73.9,35.1,2.9,26.5,47.1,29.3,71,7.2,64.3-82.6,75.2-129.3,85.7C63.7,458.7-18.2,454.8,1,359Z"
		transform="translate(1.8 -10.3)"/>
	<path d="M921,1655c-23.8-50.2-33.9-108.5-70.4-152.6-4.6-12.4-84.5-123.3-62.9-109,28.5,36,47.8,81.4,75.3,116.3-4.9-18.2-16.9-40.7-18.8-61.2-19.7-142.4-36.5-84.7-147-89.4-7.4-.5-18.8,2.7-24.3-2.8,11.5-7,31.9-2,46.2-2.2,11.1-1.1,104.3-6.2,94.2-16.1-2.1-15.4-34.2-92.9-6.6-58.7,11,22.6,6.5,58.6,29.6,69.6,3.3,7.1-3.5.6-6,4.5,7.7,21.6,15.5,44.8,19.3,68,10.2,76.1,47.8,145,72.5,217.2C925.4,1648.3,939.8,1657.5,921,1655Z" transform="translate(1.8 -10.3)"/>
	<path d="M820,1655c-50.9-165.1-175.2-285.4-219-33.3-5.6,10.5-1.5,35.5-16,33.3,6-25.2,13.5-50.7,18-76.3-9.2,18.2-40.3,50.4-12.7,6.5,28.1-37.5,35.1-113.7,91.5-114.8,63.1-.1,102.5,67.4,120.6,121.8C802.2,1610.5,837.7,1651.9,820,1655Z" transform="translate(1.8 -10.3)"/>
	<path d="M695,1655c4.4-111,26.5-49.6-44.1-98.2-2.8-5.4,4.2-9.2,7.5-5.1,19.7,24.6,71.1,14.8,78.2,49-1.9.5-4.3,3-6.7-.4-22.9-24.8,15.2,39.8,25.7,49.7-5.3,17.2-31.6-37.2-38.4-48.5C698.1,1540.4,711,1659.1,695,1655Z" transform="translate(1.8 -10.3)"/>
	<path d="M431,1655c12-37.9-31.3-52.6-47-77.1C405.8,1579.8,464.6,1637,431,1655Z" transform="translate(1.8 -10.3)"/>
	<path d="M2340,805c-28.2-.2-55.7-4.9-83.6-7.5C2280.5,798.7,2324.8,796.5,2340,805Z" transform="translate(1.8 -10.3)"/>
	<path
		d="M1442.1,779c12.8-.5,19,32.9,22.6,3.2-2-8.7-47.2-39.1-26.1-29.9,5.2,7.8,39.2,29.3,23,14-6.6-2.8-1.7-1.9-2.4-6.7-.7-.6-1.1-.2-1.3.6-.5,2.7-4.7.8-4.8-.5,11.6-2.6-21.2-30.9-20.5-46.9-3.4-8.2-6.8-40-16.4-34.3,3.1,4.9-2.1,6.4-4.9,2.3-3.1-8.9-6.3-17-16.8-16.4-8.1-3.8,18.1-4.8-6.6-18-12.3-4.5-24.2.8-36.5,1.8-6.2,3.2-8.2-5.6-14-3.4-3.1.6-.4-5.5,1.8-3.7,6.7,4.4,13-2.4,19.6-.6,10.9-10.4,19.6-26.3,27.1-41.2,4.4-8.7,17.4-2,21.8-7.3s-15.7-20.8-18.2-16.5c-9.1-1.7,2.1,2.8,1,10.9-1.2,14.4-19.8-18.1-13.6-20.6,21.9,15.2-3.4-9.3,2.5-20.1a108.8,108.8,0,0,0-4.8-46.4c-4.6-8.3-13.4,10.3-20.9,4.8s5.3-23.3,11.1-25.5c1,6.3-7.9,14.5-7.5,20.3,3.4,1.4,8.9-4.3,10.7-6.2,5.1-4.4,9.9-6.8,14.8-11.1,2.4-1.5,6.6.9,6.9-4.2,2.2,2.4-1.2,3.8.6,5.2,7.3-.1,13.6-4.6,13.6-12.2.6-4.4,10.1-14.8,8.7-5.2-6,3.9-6.1,27.9,2.3,20,3.6-6.5,8.6-18.6,16.4-19.1-2.4,8.6-13.4,33.5-24.3,35-8.3-.7-2.2-16.9-9.7-13s-12.9,8.2-11.4-2.5c-12.4,3.6-1.6,9.9-3.6,17.1,13.5,18.5-7.3,79.1,32.2,69.6,21.9,4.2,48.6-16,65.4,7.7,14.7-30.1,26.6-19.4-2.7-41.3-7.9-8.1-6.9-63.3-18-54.4-3.7,5-13.2,13.7-15.3,2.7s3.9-31.7,5.5-8.4c3.3-6.9,8.5-5.1,13.5-4.7,2.6.2,6.2,1,4.6-4.2,6.9-13.3,28.8-17.5,38.3-27.1-21.3-7.7-54.5-15.2-79.2-8.7,12.8,8,37.6,3.3,40.8,20.1-17.3-3.5-38.3-21.1-57.4-10.9-10.8,17.4-40.8-1-48.4,9.1,0,10.3,17.6,10.7,14.4,18.1-10.7,9.7-33.9-28.9-18.5-28.6,12.8-2.4,27.8,7.7,39.9,1.5,12.2-.8,36.6-36.6,37.9-24.4-2.1,1.7-15.3,8.7-6.4,8.3,12.6-9.3,41.6,8,46.5-2.2-3.9-6.3,13.9-19.1,3.3-21.1s-36.1,10.5-35.5-4.7c4.3-9.3,11.9,5.2,15.9.9,2-7.5,13.5.9,13.7-8.3-.3-14.5-12.4-24.1-16.2-38.8-2.8-5.6-6.3-13.7-11.8-6.3-.8,9.9,1.6,2.4,6.6,3.7,1.5,6.5-4.6,2.7-8,4.7-.8.6-3.1-.7-2.8-1,2.3-2.5-3.8-5,0-7.2,6.4-5.2-4.7-5.5,4.9-10.3-14.6-13,.5-6.1-5.2-14.8s-10.4-31.4-.8-35.8c5.9,5.1,5.1-4.6,9.5-2.3,3.2,5.4-4.4,2.8-4.1,6.2s2.7,0,4.1.9c-3.1,3.4-2,3-.1,6.5-3.6,24.1,17.4,48.4,25.8,71.1,19.7-15.1,44.8-51,75.3-62.5,49.3-36.7,29.7,27.3,40.1,6.4-1.4-39.2-3.9-33.9-25.5-59.8,13.7-16.3,28.5-28.5,27.6-52.6,9.2-11.7,3.8,15,3.3,19.8,6.3,18.9-31.5,28.1-18.5,38.8,13,1.3,14.1,20.6,18.9,15.5,15.2-25,49.5-12.6,58.1,11.7,9.7,1.4,15.4-27.8,28-32.1,8.7-7-.7-39.7-13.8-29.4-1.5,1.8-4.7,4.1-6.6,1.8,7.7-31.7,38.3,5.4,30.9,25.7-6.9,9-8.5,9.6-9.5,19.1-.7,16.3,15.3-19.5,22.1-19.5,3.3-1.3,2-3.2.5-3.7-6.9-9.6.1-26.2.8-37.8-3.4-8.2,11-27.6,9.3-9.7-5.2,11.1-12.8,48.3,8.6,34.5,5.3-12.6-3.4-27.9-.4-38.9,12.9,8.1,3.2,31.7,8.5,42.2,21.8-2.7-5.2-37.2,2.2-47.4,9.4,8.5,20.6,39.5,12.8,50.2-13.8,5.5-1.4,23.3-6.1,30.6,0,4.8-3.6,16.6-9.5,17.1-4.5-11.1,6-25.2,5.2-37.8.7-2.5.6-5.6-4.4-4-26.9-5.8-11,11.1-18.1,27.4-8,29.7,47.6,10.7,37.9,33.9-13.7-13.4-42,2-50.9-11-12.3,3.2-20.5,11-32.6,15.7-4.8-.3-13.8-5.8-18.9.1-14.3,3.7-31.8,22.3-38.1,9.6-18.4,5.8-12.9,21.7,4,13.2-1.4,6.3,1.3,11-7.8,10.4-12.6,9,1.2,30.7,3.7,42.7,1.2,4,5,4.1,5.2-.1,15-5.8,22.6,17.9,53.6,2.8,14-6.6,29.1-13.2,38.2-25.4,3.9,2.1,2.1,5.7,8.4,4.9-1.8-10.4,39.2-13.7,22.1-29.9,11,6.2,20.6,5.7,27.7,15.9,10,5.4-8.7-14.3,4.9-11.3,30.8,15-14.1-19.4-17.1-23.5.2-11.9,33.9,15.4,35.9,23.6,11.1,20.1-9.2,8.8-6.2,18.2,1.8,10.9,25,21.5,29.9,8.1,7-28.5,18-49,38.6-17.1,11.7-5.2,10.4-4.8,16.6,5.1,14.5,30-.1,74.5-32.4,84.5-14.4-4.9-24.2.2-38.3,2.7-11.1,3.7-32.2-8.7-37.9-.4,3.8,34.6,13.3,56.8-21,20-7.2,83.7-27.9,12.4-22.3,61.9,5.4,15.2,1.5,33.4-8.3,45.1-4.1,4.9,2.4,12.1-3.5,16.5-23.4,13.1-29.8,63.3-60.8,76.9-5.1.9-2.9-9.5-11.2-6.8-17,1.5-34.4-3.4-48.9-7.9.7,31.8,28.7,29.7,53.3,22.1,9.7-4.8,21.6,4,29.2-5.2,1.9-1.8,5-4.8,7.5-2.5.3,6.2-7.6,12.2-13.8,13.9-19.6-.6-41.4,3.4-59.3,5.9,6.6,8,19.2,13.6,28.3,21.2,3.5,13.6-12.8,3.6-18.3.9-21.7,19.3-26.9,57.2-42.7,82.8,2.7,9.3-8.9,6.1,10.2,13.3-5.2,4.9-13.3-6.1-14.9,3.1-4.4,13.1,5.1,30.2.2,40.2-13.3,10,8.2,28.3,4,42.9,5.6,12.3-17.3,25.1-7.8,33.4,5.2,2.5,8.9-7.2,12.8-10,4-8.6-4.2-21.9,2.6-31.2,28.2-13.9,43.4,16.3,50,38.8,4,7.3,13,43.9.6,34.2-2.4,1.1-1.2,2.9-1,3.9-2.1,23.1,17.1,45.2,12.3,66.2-16.3,9-39.9-32.9-46.1-16-6.5,13.8-15.5,72.5-26.9,46.8-27.9-.4-57.4-2.4-75.2-25.5-8,12.3,5.2,26.7,3.6,39.4.2,2.4-2.6,2.7-4.6,1.6-7.6-.2-3.2,18.2-6,24.9,1.7,22.3-17,57.8-6.8,72.9,3.6,1.5,21.6-2.1,15.9,3.7-61.3-.4,11,8.7-20,76.4-14.5,54.9-33-11.1-58.6,16.6,12.2,4.8,15.1,17.2,24.1,25.3,5,3.4,10.3-5.7,16-6.3,6.6,1.7-3.2,9.9-4.9,13.3-20.1,12.3-24.5-31.3-71.2-32.1,29,54.7-53.3,113.1-102.8,90.6-11.7-16.4,20.2-31.9,25.8-48.6a218,218,0,0,0,20.4-28.8c-16.9,4.3-31.6,20.9-48.1-2.2-24.6-10.9-2.6-15.3-2.8-34.9-7.5-48.1,15.7-93,8.6-142-.7-7.6-.6-13.2-3.3-20.3-1.6-3.2-.9-6.3,2.6-8.3-7.2-1.5-2.9-8.5-5.4-13.5-1.3-2.6.4-3.3,3-2.7-2.7-2-3.1-4.1-2.7-7,1.6-7.1-2.5-13.6,3.1-18.6-3.5-5.2,1.9-11.5.4-17.3,1.3-.2-.6-6.1,3.3-1.8,1.1.5,3-.5,1.9-1.9-8.9-6.4,2.5-60.2-24-48.1-3.7,5.6-21,2-17.2,9.9,1.2,2.1,2.6,4.1-.4,5.7-24.6-20.9-55.7-41.8-72.7-72.2-13.3-62.4,72.2,134.8,109.7,15.3.6-27.9-13.2,11.9-11.4-42.2-.2-12.4,4.1-24.5,6.4-36.7-6,15.7-42.7,40.7-29.8,55.5,23.8,10,30.2,38,2,10.5-7.3-3.7,1,12-7.5,5.1-3.6-5.7-10.9-8.2-14.1-13.8-1.5-4.8-5.7-21-11.2-18.8-16.3,14.7-44.1,16.3-59.4.2-9.1-13.4,8.1-29.8,10.7-43.3,6.7-4.4,17.8.5,18.1-8,4.4-21.7,42.9-3.9,31.4,12-5.1-6.6-8.4-13.7-19-12.8-8.6,2.4-.5,19-13.3,17.1-8.5-1.1-10.1-1.5-12.6,7.8-.6,4.7-2.5,10.6-5.9,13.6-2.4.4-4,1.1-3.1,3.6.7,13.5,26,17.3,32.7,7.5.7-11.5,2.1-17.8,11.3-24.8,2.7-5.3,11.8.8,6.3,4.8s-9.4,13.2-5.9,17.2c10,1.4,27.3-22.9,11.9-26.6-2.9.6-.3-5-1.5-6.4,37,1.9-11.2,49,19.9,40.2,29.1-29.2,40.5-98.3,91-80.5,4.7-1.1,5.3-5.9.1-6-32.5-7.9-41.3-37.8-44.2-66-.1-.7-.5-1.3-1.3-1.1-8.1,1.8.2-3.6-2.4-5.5-6.8-7.3,7.6-1,7.5,8.4,6-5.6,13.3-40.8.1-31-.9,2.7-1.6,5.1-5.6,4.7s3.8,8.9-2.9,4.6,5.8-10-2.5-11.6c-1,0-2.4-.8-2-1.8,4.2-10.4,3.2-2.1,7-3.7.1-2.6,7-2.2,2.5-6.2,3.7-33.7,67.1-36.6,23.1-22.7-4.9,1.9-20.9,20-12.9,19.3,6.5-3.5,47.6-36.1,44.5-21.5-9.5,13.5-28.4,7.3-15.5,25.4-4.5,4.7-6.5-5-10.3-4.4-2.9,2.2-10,17.8-11.1,6.4-1.3-4-6,4.6-3.5,8.9,6.6,19.9-8.7,41.4-2.6,62.3,23.3,43.6,74.6,37.7,105.1,5.9,3.7-2.2,2.2-5.1.2-8,2.3.9,5.9-3,6.9-1.9.7,2.9,5.8,4.1,3.2,8.1-.6,1-.3,3.1,1,2.5,6.7-2.4,2.8,6.7,7.2,8.1,5,14.9,25.5,31,38.1,46.1s6-18.9,1.8-23.9S1442.4,786.2,1442.1,779Zm373.8-389.1c-6.5,1-1.5,5.4-.6,7.9-10.1,14-18.7-3.2-30.6.1-3.1,8.9,16,17.3,19.9,26.8.2,11.3-11.9-1.5-15-6.7-27.6-13.9-15.9-40,12.5-25.3,4.4,2.4,2.4-5.7,6.4-6-4.9-7.1-24.4-3.8-30.9-15.1-2-3.1-4.6-7.9-9.2-1-20.2,6.6-47.7,42.9-24.1,60.4,8,9.3,82.5,17.4,61.6-2.4,14.7-.6,33.6,15.1,43.5.2,31.8-25.8-3.6-30-27.7-34.9-11.8.1,2.4-12.8,7.3-3.9,1.9,1,3.9-2.3,6.3-.6,18.1-2,34.5,30.4,35.6.7,1.9-5.4-6.7-5.9-6-11.9-1.7-14.3.2-21.6-14.9-12.5-11-.7-6.6-13.5-13.9-18.5C1826,351.3,1821.5,379,1815.9,389.9ZM1370,851c12.1,7.7,15,36.4,34.7,31.4,11.2-10.6,23.1-5.6,6.5,4.6s99.5,64,32.4-32.4c-11.6-18-25.5-33.5-40.3-47.5,2.1-4.8,16.2,4.7,18.2,8.9,15.4,2.3,21.8,38.1,34.6,34.2,23-29.3-13-20.8-29.5-39.1-1.4-4.4,3.1-11.5-7.5-9.7-9,4.2-7.4-9.1-14.3-8.2-10.1.4-11.1,13.1-20.2,10,1.1,5.7,4.6,8.7-1.2,12.9s-6,14.1-13.1,16.4c-.5,2.3,4.5,1.4,1.9,3.4-2.7,4.2-9.5,12.3-7.6,15.7.9,7.3-8.7-.6-2.7-5.7,2.1-9.7,7.7-28.4,17.9-34.9,10.2-4.2-2.7-6.2-3.9-9-1.1-12.5,22.7-18,33.5-17,0-36-40.9,23.7-72.4,14.5-28.1,11,9.5,21,23.1,9.9,5.3-2.9,10.1-3.2,13.9-.1-22.8,17.6-44.2,11.5-62.4-2.6-46.7,31.5-42.9,93.4-15.3,135.3,22.4,18.2,77.1,2,92.7-16.2-3.3-10.5,13.1-29.8-1-34C1376.6,884.9,1369.4,863.6,1370,851Zm-67.7,391.6c11.2,9.8,20.2,19.9,35.1,27.3,13.5,17.4,68.1-33.2,48.4-9,1.5,11.9,36.5-1.8,39.7-10.6-2-3.9,1-3.3,3-3.3,31.6-6.8,59.5-55.3,22.4-74-7.4-2.5-6.6,7.5-13.3,5.5-4.1-.6,1.2-9.2-4.7-7.3-17.6,2-35.3-4.6-52.7-7.4-10.8,2-26.3-16.7-11.6-11.6,19.2,10.2,43.8,11,65.5,12.6,14.4-27.6,32.5-90.1,19-119.5-33.7-2.7-30.6-2.8-33.9,29.3-3.5,24.6-27.3,72,15.3,58.7,3.3,5-17.3,12.5-15.7,5.5.1-.9-.9-.7-1.5-.5-8.1.3-5.4,8.1-4.6,13.9-5,14.4-10.1-9.2-10.1-15.4-6.4-29.7,19.3-66.2,7.7-88.8-3.9-8.6,7.5-10,3.8-19.6,2-5,1.3-13.9-1.4-3.6-5,5.1-3.2-7.4-3.6-10.3s5.3-1.8,4.8-6.2,8.3-5.5,2.8-9c-6.8,10.8-19,9.4-23.1-2.8-16.9-2.5-42.4,23-64.5,16.3-33.3-4.9-53.4-14.3-47.3,28.5.6,8.5-1.7,18.7-.4,25.7,5.7,1.7.7,2.7-.5,4.3,1.6,1.3,5.5,2.2,2,5.4,8.8,12.1,6.9,30.9,8.4,46,10-18.2,11.4-36.8,24.8-53-.4-5.4,2.3-14.8,8.6-14.1-27,84.4-52.2,90,22.6,173.6,60.9,56-36.4-8.1-41.1-36.8-6.3,1.7,3.9,8.4-2.9,10.1,6.7,1.7,6.2-1.6,10,13.3-13-.5-26.5-39.2-18.8-42.7.5-1.8-2.1-2.5-3.2-3.6-2.2-15.2-14.3,27.2-14.7,32.8-2.6,6.2,13.4,13.5,6.8,17.2-10.4,4.2-.5,31.3-9.9,42.5-2.7,9.7,17.6,24.7,27.2,19.1,39.8-21.7,5.1-7.4-2.7-25.4,2.4-3.1,4.2,3.6,6.9,1.9s5.7-.9,5.8,3.9C1317.4,1252.2,1299.7,1251.8,1302.3,1242.6Zm265.5-570.1c5.4-38.2-18.9-66.9-56.6-69.7-12.6,2.5,2.1,77.9-15.2,68.1,3.8-22.3-4-73.1,8.7-85.4,6.6,2-.1,15.7,8.8,10.3,12.1-.9,33.2,12.4,36.7-6.7,5.3-13.6,15.9-29.2,17.5-41.6-4.4-7.8-30.1-27.3-20.7-31.4,7.3,6.6,18.2,31.1,24.5,13.2-39.8-72.7-19.1-45.7-50.7,6.1,45.4,28.2,30.1,42.5-12.3,18.1-20,7.4-21.1,43.9-35,60.5-8.6,15.3-31.8,29.6-33.8,45.2-3.3,11.3,3.1,6-.3,17-5,6.5,5.2,14.3,0,17.2.4-.4,3.5,4.6-.1,4.6-5.6,6.7,3,24.5,7.1,32.9,41.9,73.9,46.7,12,61.6-33.5C1485.6,667.3,1546.1,654.7,1567.8,672.5Zm24.1-339.7c-6.6,4.1-4.3,10.9-7.7,16.4,1.4,4.4,9.1,2.6,5.1,8.5-10.9,23.6-1.1,95.5,12.4,115.5,29.6,15.7,97.9,11.6,107.7-26.2,6.6-13.1-27.9-18.5-23.5-36,.3-2.2-5.1-.9-5.8-5.3-26,11.6-47.8-10.7-51,1.6C1595.7,421.6,1595.2,347.2,1591.9,332.8Zm-29.6,650.7c25.9,21.2,21.1,67.7-.2,6.6-21.1-3.4-50,16.6-74.5,12.3,4.5,18.2,21.9,41.4,41.7,42.7s48.9,14.7,48.5-14.5c6-10.8,24.2-94.8,32.4-82.8-6,34.1-24.1,57.3,20.9,69.6-11.8-33.6-16.5-72.3-22.9-108.3.7-35.7-27.9,8.2-36.3,20.4C1554,947.9,1598.2,980.9,1562.3,983.5Zm110.5-433.8c-12.9,12.6-32.3,24.4-49.5,29.2-5.9,5.1-17.1-6-17.3,7.3-16,37.7-35,67.6,23.3,67.2,37.5,5.9,55.3-54.3,70.7-80.5-10-11.5-17.2-24.8-24.6-38.1C1666.2,545.4,1652.8,551.3,1672.8,549.7ZM1284.1,986.9c4.3-8.4,11.1,5.4,3.6,2.3a1.9,1.9,0,0,0-2.7,1.5c5.1,6.9,15.5,10.8,25.2,10.9,4.6,1.9,3.7-4,6.4-3.6,2.9-1.2,3.4,6.9,5.6,3.1-1-2.1.7-2.6,2.1-3,5.6-.7,2.9-8.9,7.8-10s9.8-6.7,16.2-4.7c.6-6,9.3-2.4,3.8,1.6-13.8,2.3-11.3,15-22.4,19.9,17.1,5,35.1-7.8,51.2-13-7.1-3.9-17.1,8.5-22.5.9-1-2.7,3.1-1.8,3.6-3.9-14-15.4,14.2-54,31.9-30.6,6.2,1.9,7,15.3-1,9.2-5.6-4.4-14.2-13.9-18.9-4.7-4.5,5.5-18,33.1-2.7,23.5,13.8-5.9,14.9,11.9,23.1-5.1,15.4,43.9,14.1-5.3,30.3,14.7,9.2-17.4-12.2-28.5-23.6-32.6-8-13.2-8.5-31.2-27.3-21.1-12.1,8.9-29.5,20.2-47.5,17.4C1277.7,956.5,1271.8,921,1284.1,986.9Zm281.2-258.2c-.8-17.1-28.1-24.7-40.9-20.6-1.8,11.3-12.6,6.1-14.3,21.8-1.5,17.5-24,35.6-20.1,50.2C1581.5,806.5,1537,847.4,1565.3,728.7Zm-197.1,550.2c-56.3,19.4-24.5-17.9-69.2,46.1-59.3,65.4,86.9,12.7,76.7-29.5-1.4-7.1.3-20.1-4-24.5C1366.3,1272.4,1357.2,1278.6,1368.2,1278.9Zm221.6-800c-19.5,55.4,92.4,51.8,112.8,25.1.9-26.3-8.4-24-30.1-20.9C1646.5,486.8,1612.9,496.1,1589.8,478.9Zm82.4,50.1c-26.5,2.9-55.3,4.7-79-7.6-2.5-7.5-7.9,5.8-9.8,8.2-1.5,8.9,11,15.5,12.5,23.3-7.2,8.4-9.6-8-16.3-9.6C1599,601.4,1648.3,558.9,1672.2,529ZM1449.3,917.5c5.7,2.1,4.9,11.7-1.5,8.9s-16.1-15.1-20.8-3.4c-39.9,51.5,2.9,24.7,7.5,69,4-16.7,51.4-45.7,39.6-55.2C1458.6,975.9,1483.5,903.8,1449.3,917.5Zm58.3-21.5c7.9,2.6,12.4-6.7,7-12,.6-3.7,6.9-6.8,7.4-12.2,16.5-32.1-22.2-43.5-30.5-16.1-13.3,2.2-1.8-11.4.4-16.4-2.5-13.6-35,27.9-29.6,31.4,3.7,3.4,4.9,27,10.4,18.2-1.7-6.3-5.1-17.7,1.5-21.5,15.7-.5-.6,25.9,11.4,25.6C1495.7,896.7,1495.2,898,1507.6,896Zm19-214.9c-.6-7.6-5.9-2.3-7.7,1.9-20.1,42.5,85.7-22.5,45.6,93.9,7.9-6.4,20.9-52,35.4-69,6.6-12.2,1.9-5-1.4-10.9-.8-2.4,3-.7,3.5-3.9-12.6,5.7-14.4-12.7-23.3-20.3-7.8,17.6,16.6,47.1.6,59.1-8.4-15.3-1.3-46.5-20.5-55.9C1548.7,673.7,1528.9,666,1526.6,681.1ZM1499.2,543c9.8-6-6.5-9.4-6.2-16.8-.2-1.1.5-5.3-3.5-3.8-.7-5-8-8.8-4.6-13.9,8.4.1,11.5,23.5,23.3,27.7,5.2,2.3-5.6,7.2,1.3,11.3,10.1,6.9,22.9,14.5,34.9,11.9-20.5-6.4-34-21.6-43-40.3-31.8-42.3,27.3-16.2,16.5-57.4-2.5-30-29.8-1-42.7,5.9-5.6,3.6-.2,5.5-.8,9.2-16.9,2.8,9.6,8.3,2.9,18.8-4.7,13.3,1.4,47.2,18.2,45.7C1499,538.3,1498.4,541.7,1499.2,543Zm41.2-154.7c-6.5-3.1-10.5,8.6-14.8,1.5-16-.1-30.8,17.1-43.3,27.1-23.8,23.6,44.3-1.1,41.7,53.7,24.3,10.4-18.6-28.5,50.2-31.7-2.5-18.2-32,2.7-40.8,2.4-5.6-6.7,8.6-8.2,7.4-13.4C1500.1,437.4,1517,403.4,1540.4,388.3Zm43.2,56c-39.7-9.8-66.6,34.7-9.7,7.2,12.6,5.9-33.3,8.2-19.6,18.1,12,13.4-19.2,1.5,8.6,32.9,25.3,40.5,16,12.7,15.9-12.6-2.7-11.9,16.5-34-.4-37.6C1579.4,449.4,1583.3,448.3,1583.6,444.3Zm-8,114.9c-7.7,14.1-19.7,33.6-21,48.2,5.2,3.6,5.8,10.7,11,13.6,10,1.7,8.3,38.1,13.5,18.3,3.1-20.6,11.8-39.7,19.7-58.9C1591.5,574.7,1582.6,567.8,1575.6,559.2Zm-153.5,475.5c19.8-5.9,76,18.6,56.2-18.3-14.4-5.5-28.4-30.3-43.6-13.4C1413.1,1009.4,1423.5,1016.5,1422.1,1034.7Zm-18.2-390.6c3,17,17.7,26.8,27.6,37.8,2.3-.7,6.6-2.6,2.6-4.3-2-7.3,5.1-16.8.9-25.6,1.6-18.6-10.9-32.8-11.1-50.7,3.7-3.8-2-8.5-6.8-9.5C1407.6,602.2,1410,628.4,1403.9,644.1Zm353.8-171.4c1.4-19.6-5.7-27.8-22.3-36.8-14.3,3-29.1,26.7-32.8,40.6,11.2,7.3,4.7,24.1,9.6,34,4.8-4,5.5-14.4,12.3-18C1740.4,471.2,1719.4,436.7,1757.7,472.7ZM1510.4,991.3c17.2,3.1,33.3-10.1,48.6-14.6,36.2-13-51.7-27.6-43.2-2.1-5.8-2.5-23.3,8.4-33.4,6.9-4.6-10,11.8-9.3,13.9-15.5-7.5-.1-25.8-4-25.6,8.7C1460.9,1009.7,1550.2,963,1510.4,991.3Zm-47.6,54.9c14.3,40.2-14.7,83.1-15.9,121.4,28,11.9,18.5-27.4,22.8-43.3C1467.6,1102.3,1495,1049,1462.8,1046.2Zm118.3-724c-.1,10.5-18.4,9.7-19.7,20.1,3.3,6.2-26.9,39.6-34.2,33.6-4-1.7-1.8-6.8-2.3-10.2-7.3-7.7-23.2,7.1-28.6,14.2-41,41.2,35.2-6.3,51.3-1.3C1554.2,357.6,1586.7,347.3,1581.1,322.2Zm141.7,87c-2.8,7.3-6.7,13.2-12.8,18,4,9.8,25.1,6.2,16-4.5-10.5-32.1,45-53.2,30.8-64.5-27.9.5-39.9,29.3-47.4,53.8C1707.1,425,1715.4,406.3,1722.8,409.2ZM1539,349.5c-10.5,10.4,6.2,8.7,8.9,1.8.6-11.4,20-17,16.7-27.3-8.1-27.7-28.6,1.1-44.2,14.7,7.6,0,3.3,4.8.7,7.9C1524.4,355.4,1534.2,351.2,1539,349.5Zm-67.8,611c15.2,1.5,28.4-1.3,42.7-6.7,1.5-5.7-6.6-18.1-3.2-27.4-.8-15.3,5.9-27.5-14.8-21.4-3.7.8-8.2.3-3.1,5.7,1.1,2.3-.9,6.3,1.6,8.3,6.3,9.6,11.7,16.5,1.7,23.3-2.1,2-8.1-.5-10.8-1.8C1480.2,942.7,1479,956.4,1471.2,960.5Zm47.3-22.7c-2.2,22,24.4,12.6,36.9,10.4.7-6.1,1.1-11.9,5.3-16.3-3.1-5.1-7.8.5-12-1.5-1.9.3,1.5,3-.4,3.4C1540.7,913,1510.9,905.3,1518.5,937.8Zm32.4-71.9c-2.9-20-11,22.8-20.7,21.9-8.5.9-5.5,10.6-7.8,16.2,28.9,11.6,23.4,20.6,36.9-9.4.4-.9-1.6-4.1-2.1-4C1545.2,890.6,1552.2,872.6,1550.9,865.9ZM1579,354.1c-31.3,12.4-30,54.2-.3,64.4C1576,397.8,1575.2,375.7,1579,354.1Zm-150.7,245c7.6,6.6,4.4,38.9,16.9,35.1C1486.2,586.6,1480.2,601,1428.3,599.1Zm283.8-57.7c-.9-21.2-5-28.4-25.3-15.5C1674.2,533.4,1715.9,596.8,1712.1,541.4ZM1580.3,434.7c5.9-11.7-30.2-11.5-30.6-45.6-7.6,3.6-30.7,19.4-22.4,27.4,3.4,0-.5,6.2,3.3,4.4,6.7-2.7,16.9-1.6,22.2,2.8C1545.8,436.9,1571.8,418.3,1580.3,434.7Zm-44.9,53.9c.1-17.5-21.5,4.7-29.9,6.3-15.5,3.8,5.9,21.4,7.7,30.5C1522.8,529.6,1529.5,497.2,1535.4,488.6Zm-38.7,334c3.5-6.9,20.6-5.9,20.2,3.7-3.3,5.3-13.5-1.3-19.6,1.8-2.9-1.1-.7,6.8,1.9,4.5,27.5,2.4,22.8,5,26.6-24.1-.4-13.7-15-6-22.7-9.9-5.8-2.4-3.3,7.1-6.9,9.6C1491.6,815.8,1491.5,815.8,1496.7,822.6Zm112.4-531.7c10.5-4.6,33.1,4.3,37.3-4.1-11.9-29-56-21.1-48.4,11.2,9.4-6.8,16.5-32.5,32.5-21.8C1624.5,281.1,1612.1,279.6,1609.1,290.9Zm-172.6,961.3c23.4,32.2,33.9-8.2,35.6-31.1C1461.5,1233.5,1448.4,1242.2,1436.5,1252.2Zm-37.3-321.4c-1.3,24.8,11.2,9.1,17.3-3.8,6.4-4.1-1.1-8.7,2.9-13.9s-11.3-6.8-13.4-12.4C1400.1,903.6,1397.3,922.5,1399.2,930.8ZM1459.5,574c-19.3-.2-21,2.3-25,16.2C1444.6,601.9,1498,586.3,1459.5,574Zm-77,62.8c2.8.1,2.9,5.8,5.9.8,2.2-.5,2.1,4.7,5.6,3.5,6.4-4.6,19-61.2-4.1-33.2-3,8.6-8.2,16.9-12.6,24.2C1382.9,633.8,1398.1,633.2,1382.5,636.8Zm152.9,179.1c-6.1,15.8-8.3,31.4,1.3,46C1554.9,843.7,1550.9,835.1,1535.4,815.9Zm113-517.1c-17.4-2.7-34.7-4.6-50.2,8.1C1616.2,312.1,1632.6,307.3,1648.4,298.8Zm11.8.9c12.6,10,24.6-12.5,20.1-20.3-4.4-2.3-5.5-5.5-2.6-9.7C1671,266.3,1666.7,293.3,1660.2,299.7ZM1464.1,810.1c1.3,25.3,17.4,17.2,19.3-1.6-15.7,3.8-6.2-.5-11.7-9.5,1.6-1.4,1.4-2-.8-2.2C1464.7,795.7,1465,805.8,1464.1,810.1Zm10,191.9c7-6.2-19.7-8.7-14-29.3C1433.7,982.9,1462.6,992.8,1474.1,1002Zm-.1-98.2c5.4,8.9,4.1,21.5,12.7,28,3.3,2.5,7,.8,3.9-2.6C1486.8,923.9,1480.5,891,1474,903.8ZM1706.9,258c-8.3,3.9-5,9.9-9.2,15.9C1675.2,305.9,1712.4,279.5,1706.9,258Zm-129.4,57.3c8.9-26.4-29.6-7.9-4.9,7.4C1572.3,316.5,1570.7,300.4,1577.5,315.3Zm19.3,575.5c-10.6-4.3-19.6,1.6-16.4,14.1C1587,901.2,1590.2,894.2,1596.8,890.8ZM1409.4,577.5c7.7,4.5,24,20,21.1.9C1423.6,579.9,1416.9,579.5,1409.4,577.5Zm291.5-194.3c-1.9-3.7-4.1,1.9-5.5,3.3C1674.5,408.2,1693.8,404.4,1700.9,383.2ZM1296,809c-12.5,3.5-18,12.8-20.8,25.3C1283.2,826.1,1286,814.6,1296,809Zm191.6-17.8c-5-13.7-17.2,12.9-5.3,7.4C1488.4,798.4,1481.3,793.1,1487.6,791.2ZM1523,357.5c-5-7.1-11.3-5-10.7.9C1515.5,361,1519.1,357.2,1523,357.5Zm-35.7,16.2c8.5,3.2,13.2-21.1,3.1-5.2C1492,371.8,1488.8,371.9,1487.3,373.7Zm107.6-53.2c3.8,1.3,6.2,0,7.8-2.8C1601.7,313.5,1595.5,316.8,1594.9,320.5Zm-46.1,151.9c-2.4-1.2-3.8-5-6.4-2.9S1546.1,475.7,1548.8,472.4Zm-18.6,404c2-3.3,3.5-5.8,3.5-8.9C1530.2,866.6,1530.1,873,1530.2,876.4Z"
		transform="translate(1.8 -10.3)"/>
	<path
		d="M1937.6,610.1c-10.7-1.2,9.2,60.8,6.9,74.9,1.1,9.1-7.4,16.1-4.3,24.9,1.8,6.8,3.7,23.1-7.1,13.4-9.3-23.7-9,35.4-20.4,45.6-1.9,8.6-38.2,56.8-27.4,27.4,28.2-18.2,28.4-59.8,37.4-87.5,2.9-2.3,6.7-2.4,9.9,2.2,0-12.6-2.9-27.2-10.1-35.1-5.1.2-10.4,3.2-15.1-1.5-4.1.9-8.5,4.3-12.4.1s-5.9,5.6-9.5,1.7c1.2-7.5,9.6-9.6,16-7.2,5.4-6,9.9,1.9,15.7,1.4,8.6,2.5-3.3-12.5,5.4-8.2,12.1-26.2-38-47.2-37.4-71.9,2.2-3.5-8.8-6.9-10.9-5.7,3.4,9.8,11.6,24.3-1.6,32-8.7-4.5,11.6-18-5.3-23.3-33-57-57.4,53.6-80.3,73.2-6.5,23.9-8.5,59.6-.7,87.1,12.5-34.6,12.8-1.8,14.5,15.1s15.6,30.7,20.5,43.3c-8.8,2.7-15-10.6-18.3-17.1-10-11.6-2.7-33.6-18.7-26.7-2.9,12.2,1.5,30.9-.1,45.3,1.6,16.8,35.7,16.9,21.7,40-8.5,14.5,21,17.4,7.1,34.3-4.9,4.3,8,2.8.5,5.2-6.2.4-7.1,5.6-.5,5.8,18.7,11.6,14.6-23.8,24.5-34.3,9.2-20.9,9.1-41.1-9.3-55.8-15.6-17.2,1-10.3,6.9,1.4,7.7,10.5,7.3-3.6,6.6-9.5,6.6-19.1,24,30.2,40.9,29.3,9.1,1.2,8.6-13.5,15.8-17.6,2.8,27.6-24.8,28.2-38.7,9.6-13.7-22.2-5.7,22.5-11,33.4-4.3,18.7-17.8,37.5-15.1,55.7,19.3,21.4,47.4-7.6,65.6-17.8,1.7,16.5-24.4,15.9-19.7,32.2,13,27.5,43.9,147.6,71,119.7,77-36.2,26.6,138.7,1.1,129.7,18.7-35,43.1-81.3,28.1-120.9-14.6-9.4-26.3-3.6-36.6,9.7,3.2,4,15.5,11,3.1,11.8-11.4-10.1-12.3.5-20.6,10.8,6.7.3,12-6.5,16.3-1.8-2.7,9.4-20.8,5.2-24.3,16.5-11.2,17.5-11.5,31.2-32,36.2-5.2,19.1,25.6,56.7,43.2,33.2,11.5-6.2,12.8-15.4,19.3-23.1-1.3,14.3-14.8,40.5-26.6,50.6-1.3-7.8,9.9-11.1,9.7-20.4-25.3,24-52-16.3-54.2-39.8,15.6-12.4,24.8-32.1,38.1-47.9,3.6-10.6,19.6-21.2,15.4-32.6-27.5-40.8-45.3-86.1-59.6-132.7-1.7-8.9-12.1,3.5-17.9,2.8-9.8,5.6-24.7-15.7-24.1-3.8-3.9,7.4-6.4-2.8-5.6-7,1.2-8.5-15.3-13.6-20.2-4.9-6.3,41.2,4.5,92.7,9.9,136.2,7.6,26-7.3,122.1,33.1,110.6,19.8-5.7,12.8-35.5,27.4-42,4.2,7.4-3.6,18.6-4.7,26.9-19.6,44.3-51.6-1.8-41.6,61.3-1.8,4.1,4.7,3.6,8,5.1s2.5,5.2-.3,5.3c-54.8,27.8-33.5-13.2-42.4-51.3-70.7-17.3-75.9-45-96.1-111.6-7.1,28.5.2,77.8,32.2,88.4,6.2,1.8,17.8,7.6,16.8,15.2-67.6-9.5-62.9-93.6-53.2-143.2,23.1-27.1,37.3-56.4,42.8-91.3,3.6-11.7,21.9-23.3,6.9-31.5-20.4,9.7-53.7-49.3-60.9-66,1.5-23.6,13.9-46.3,23.9-69-4.1-11.1,6.4-16.3,7.6-25.4-30.7-5-56.1,20.9-42.2-30.4-17.9,18-42.3,13.4-7.3-3,8.6-1.2,38.6-38.8,36.8-21.8-15,10.1-38.9,53.8-8.7,47.4,7.2-3,23.4,1.8,23.2-9,4.6-34.1-2.3-75.1-18.3-103.4,30.9-4.8,30.8,73.2,28.2,98.2,3.2,5.9,10.1-20.9,17.3-24.1,7.3-11.9,2.4-29.9,3.6-43.9.6-44.7,7.9-93.2,8.6-135.2-10.5-18.1,25-14.8,30.7-1.3,3.7,28.5-1.4,61.9-2.3,92.3,7.6.3,41.6-36.5,64.7-39.1,4-5,26,.5,14.5,3.5-9.6-1.6,9.7,17.5,17.2,18.2s15.4,15.2,23.1,9.3c-3.1-.9-7.1-3.4-2.6-6.5,14.4,8.5,20.7,33.3,31.1,45.4,2.6-27.8-13.9-61.6-47.3-58.2-2.3-.1-8.6-1.3-6.7-5C1902.9,556.2,1938.4,581.3,1937.6,610.1Zm-7.6,42.2c4.8-3.5-2.3-13.3-5.8-16.8,9.8,17.3,4.8,36.3,11.8,54.1C1937.8,678.9,1935.6,660,1930,652.3Zm-155,358.6c-12-141.1-15.4-131.8-45.2-2.7-3.6,4.9-23.3,25.1-19.8,9.5,5.3-8.5,15.9-14.9,15.9-25.9-8-8.2-18.3,22.2-25.3,28.2,4.8,31.7,14,70.1,36.7,98.9,7,4.9,2.7,16.1,9.2,20.5,10.3,5.7,37.1,16,43.6,8.8C1784.2,1101.4,1776.3,1057.8,1775,1010.9Zm-40.1-286.3c-16.8,21.2-20.4,49-34.1,72.1s-10.3,38.6,8.6,56.2c6.8,4.5,22.9,43.2,26.6,27.4-4.1-8.1,6.5-12,3.5-18.6-6.3-8.8,9.4-14.4,2.8-23.3-.7-.9.6-3.7,2.1-3.9,16.1-2.4,9-17.9,10.5-29.6-4-9.2-24.9-3.9-34.7-5.3-5-1.5-7.9,6.7-10.6,7.6-1.2-.7-4.2-1.7-2.7-4.9,57.6-36.1,47.9,39.3,40.3-92.2,2.5-6.8-1.7-7.2-4.5-1.1s1.4,16.3,1.4,24.1C1745.8,744.2,1734.7,730.6,1734.9,724.6Zm35.3-91.8c-2.2,12.8-20.7,39.3-7.6,7.3,14.6-24.8,9.8-53.6,12.1-80.9-5.2-17.2,16-52.3-7.3-58.4-18.7,82.6-12.6,182-8.6,271.3,5.5,14.8-3,47.8,7.1,54.8,6.6-1.8,15.8-3,10.2-12.6C1773.1,753.7,1774.2,692.7,1770.2,632.8Zm37.7,518.4c5.1,8.9-3.8,9.6-8.4,12.1,4.5,16.8-.5,39.4,8.5,53.9,29.9-8-10-170.3-8.7-206.9-8.6-28.4,3.6-70-12.5-92.2-7.9,4.2-12.4-14.1-14.8-5.6,11.8,76.6,14.1,155,26.5,231.8C1797.2,1151.8,1802,1158.1,1807.9,1151.2Zm-29.1-319c-51.6,5.6-20.1,29.2-34.2,42.9-6,8.1,12.9,14.6,13.2,22.3-3.6,3.9,7.4,6.9,7.7,1.2.2-2.1,1.2-3,3.1-3,8.3,17.9,42.9-3.5,39.2-20.6-1.4-7.7-17.9-7.7-13.1-15.1,8.7-8.9,8.2-32.2-7.9-25.7C1785.5,842.1,1778.5,837.9,1778.8,832.2Zm4.8-174.6c21.7-27.2,31.4-70.4,60.9-91.3-22.2.2-45.3,23.7-58.9,41.5-13.5,45.1,8.8.2,25.8-6.9C1803.8,619,1777.9,634,1783.6,657.6Zm140.1-23.5c-3.7-14.3-14.5-34-29.9-40.8C1879.5,590.3,1920.8,626.7,1923.7,634.1ZM1778,909.2c2.8,2.6,9.9,5,10.9.4C1787.4,905.3,1781.8,910.2,1778,909.2Zm80.6-339.8c-3.1-2.3-7-7.2-9.9-3.3C1849.4,569.1,1855,568.9,1858.6,569.4Z"
		transform="translate(1.8 -10.3)"/>
	<path d="M1321.8,57.1c3.7,5.8-1.7,66-6.6,41.2,1-32.1,17-46.5-21.9-43.3-27.5-10.5-69.6,21-88.1,5.4C1221-5.4,895.6,26.1,853,40.1c-15.3,4.5-28.1,17.3-42.3,21.5C813,51.3,822.4,48,829.8,43.2c51.4-30.8,344.6-47.7,380.3-1.3,3.8,32.5,34.6,2.5,56.4,6.1,2.8,0,4.9.2,5.9-3.5,4.5-8.4,25.7-12.1,5.4-.4-6.4,8.3,28.6,3.1,36,5.1,33.6-3.4,71.6,31.5,48.9,64.4-84.1,59.1-183,97.5-285.6,107.6-120.8,19.9-253.9,104.6-373.6,49.3-40.4-52.2,17.6-111.3,52-141.6-11.8-28.4,17.4-68.7,42-76.7,2.7,9.2-11,8.6-13,16.5-15.1,11.8-33.7,42.5-19.9,58.7,6.8,13.6-54.3,36.7-62.8,78.4-31.4,152.5,237.2,39,310.1,25.5,62.6-21.7,129.6-20.1,191.9-41.8C1245.5,166.6,1452.3,97.6,1321.8,57.1Z" transform="translate(1.8 -10.3)"/>
	<path d="M2063.5,1288c80.4-5.4,148.5,30,154.1,110.7,27.6,24.8,119,31.8,101.9,79.4-24.7,37.1-68.2,32.6-108.3,33.5-113.8,6.6-226.8,21.7-341,11.1-57.9-8.1-155.4-17.8-152.3-95.1,1.2-91.5,60.6-152.9,153.4-136.1,59.2,8,116.5,5.8,175.1-4.4,33.3-4.4,29.3-59.6,28.9-85.8-10.3-42.3-21.9-87.2-51.7-120.3-3.9-6.5-31.6-28.7-13.4-27.2C2064.7,1112,2110,1212.4,2063.5,1288Zm-339.4,141.7c15.3,129.2,299,83.4,393.5,83.1,66.2-17.8,151.2,16.1,199.9-39.9-5.9-43.6-76.1-44.5-106.1-70.5-11.1-4.6-6.3-16.1-4.5-25.2-.4-35.1-29.9-58.7-60.4-69.8-67.5-32.3-140.4-.6-210.4-3.8C1821.3,1286,1729.9,1288,1724.1,1429.7Z" transform="translate(1.8 -10.3)"/>
	<path
		d="M1706.9,142c14.7,6.1,14.7,23.4,26,32.1,9.3,7.9-11.6,24.5-18.7,13.5-5.1-2.8-14.3,8.6-20.7.5-5-13-23.4-7-31.4-14.4,0-4.8-2.3-2.9-4.7-1.8-23.2,15.1-10.3-4.4-1.2-14.1,1.7-8.4-10.4,2.1-12.7.8-1.1-4.1,2.4-9.8,8-8.7s14.2-6.7,8.9-9.9c-11.7-1.9-30.1.7-33,12.2-3.6,3.5-25.3,1.4-19.9,15.9,1.3,3,3,6.1-1.4,8.4-4.1,8.3-6.4,2.8-6.7-3.7-9.1-25,33.3-43.1,53.3-42.4,1.2-13.6-34.1,6-44.5,6.8-23.5,14.1-67-1.8-30.3,37.5,4.8.8,2.7,5.8-1.4,4.2-17.9-3.3-11.7-24.1-22.6-33.9-20.7.7-44.5-4.4-56.6-24.9-5.2-9.9-9.7-35.8,3.7-39,5.8-.9,6.5-3.9,5.8-9.3-13.3-19.5,7-35.1,22.4-44.6,45.9-9.6,93.6-11.4,141-9.9,43.3,2.8,86.1-13.5,129.1-4.1,52.9,16,26.5,99.3,3.9,133C1775.5,165.6,1737.5,149.8,1706.9,142Zm-22.4-26.4c3.2-9.4,11.3-26,13.6-6.1.7,2.3.2,6.5,5.2,3.7,10.4.6,6,14.8-4.2,9-6-3.5-4.9-14.3-9.2-2.5-2.2,23.2,82.4,33.2,101.5,27.3,29.8-18.5,50.8-112.4,8.6-127.1-67-7.4-135.5,9.6-203.7,4-19.7,6.4-106,5-54.6,26.8-3.7,9.1-18.6-7.8-19.5,1.8.6,21.7,10.5,19.6,27,18.3,18.6-17.6,16.9-3.7,20.9,11.7-2.3,1.6-4.8.3-5.9-2-4.7-6-12.5,10.5-17.3-2.2-1.4-2.6-3.1-4.1-5.8-3.2-28-.4-5.6,6.6-17.6,14.9-6.9-8.2-5.2-29.1-7.5-42.1-12.7,9.1-5.6,11.1-2.1,23.7,2.8,18.2-25.9,13.9-13,46.1-2.2,11.1,4.3-1.7,9,10.5,27.8,21.7,67.2,13.3,98.2,2.7,26.6-5,6.6-5.2,1.4-16.7-2.2.5-2.2,4.5-3.5,6.3-11.4,19.2-10.6-35.5-3.6-23.7-1.1,32.3,9.4-2.2,17.6,11.8-8.7,22.9,42.9,7.9,57.9,14.4,4.2-3.5-1.9-17.1-2.1-23.6C1676.7,83.6,1685.5,109,1684.5,115.6Zm38.2,61.8c-4-10.8-8.8-28.1-21.9-29.6-6.1,2.6-18.4-7.1-20.2.3,1.7,8.5-17.9,16.4-12.9,21.8,11.4,2.3,22.3-5.1,31,6.8C1703.8,186.2,1718.7,187.4,1722.7,177.4ZM1704.8,141c-10.2-5.4-52.2-26-28-2.3C1683.5,141.8,1697.6,141.2,1704.8,141Zm-35.9,11.5c2.3-1.1,8.5-4.8,3.4-7.3C1670.1,145.7,1665.9,151.5,1668.9,152.5Z"
		transform="translate(1.8 -10.3)"/>
	<path d="M906.1,591.4c-3.3-38.7,38-69.7,51.2-93.7-27.7-8.6-40.8-30.8-41.4-59-27-144.4,558.3-188.8,375.5-7.7-41,41.4-87.4,37.4-30.9,53.6,8.3,4.4,72.7,23.1,44.8,23.5-28.8-9.4-59.1-24.6-86.7-31.1,30.5-31.3,102.4-50.5,102.1-106.8C1294.8,264.7,904,327,922.1,441.9c1,30.1,20.6,41.9,43.9,55.2-23.1,33.4-91.2,97.3-29.1,134.8,67.4,28.7,150.3,19.3,217.3-7,42.4-23.3,184.6-77.7,92-123.1-11.1-13.4-38.3-8.4-44.1-24.4,30.1,3.1,56.8,26.4,82.4,43.7C1288.4,625.7,921.5,725.4,906.1,591.4Z" transform="translate(1.8 -10.3)"/>
	<path d="M1949.8,195.6c-5.1-1.6-26.6,25.7-24,14.8-3-26.2-98.7,36.7-82.7-13.1,13.4-36.8-39-4.3-.4-57.9-3.8-11.3-16.3-38.9,7.4-29.7,5.5,2.5,9.3.5,10.3-6.2.8,1.8.5,5.1,3.6,2.1,8.6-8.4,21.7-5.5,32.8-7.5,18.4,1.7,34.4-14.9,52.2-6.6,17.4,3.9,36.4-14.9,53.8-19.4,10.2-5.4,11.1,5,17,8.7,13.9-1.8,24.4-13.9,36.4-20.4,20-14.2,37.5-33,63.3-22.5,24.6,3.9,70.7,37.1,44,63-4.4,16.7,8.7,54.3-23.1,50.7-3.2-.8-5.7-2.2-7.4,3.4-7.4,27-32.1,17.1-52.8,19.7-25,1.7-51.5-11.5-76.1-5.5-17.5,14.5-43.6,9.5-52.8,34.8C1944.8,209.9,1947.9,199.1,1949.8,195.6ZM2109,169.4c18.3,1.7,13.5-25.7,24.7-25.3,5.3,1.2,14.1,4.5,17.6-.4,14.7-20.4-6.3-37.2,13.9-58.3,4.4-14.9-17.8-19-23.5-30-6.9-13.2-24.7-7.9-35.9-13.1-32.3-4.4-65.2,63.3-96,38.9-14-6.2-36.1,16.6-53.2,18.7-14.5-1.6-27.5-4.6-42,3.9-15.1,5.7-36.3-3.7-48.6,8.3-14.9,16.4-28-11.2-17.1,23.6,7.7,22.2-7.1,8.7-14.4,32.3,50.5,13.4-30.4,63.1,60.5,33.3,21.9-2.9,41.9-.1,59.5-16,2,5.3,3.6-.1,4.1-.6,7.1-12.5,22.1-7.2,31.6-13.9C2023,148.5,2070.4,172.5,2109,169.4Z"
		transform="translate(1.8 -10.3)"/>
	<path
		d="M1444.6,92.3c3.7,1.8,8,.6,12,2-1.8,3.5,2.9,9.5-3.9,6.9-.5,1.3,3.1,3.4.3,3.5-10.9,1.2,7.3,9.3-4.2,15,6.7-3.1,8.2,13.1,2.7,13.3-3.2,1.5-2.5,3.7-.8,4.7,6.1,3.4-2.8,2.4-3.2,5.8,1,1.6,5.3-1.5,4.2,3.2-.6,7.4-9.9-1.5-11.5,4.1,1.6,7.3,3.7-2.3,5.7.5s2.5,4.2,5.4,1.8c7.4,2.6-7.9,21.1-.4,21-2.4,23.5,56,19.2,75.5,42.9-2.7,14.9-59-31.7-78.2-21.1-3.7.4-1,6.1,1.6,3.5.8-1.8,2.1-.1,2,.9-3.9,9.2-4,23.2-6.1,31.6-5.2,1.4,4.4,1.8,2.7,5.1.9,4.1-5.5,1.8-4.6,5.8-.2,1.3-.4,2.9,1.2,3.1,3.9,2.4,2.6,10.5,3.8,15.3-1.4,8-4.3-4.3-7,.7,1.5,3-1.3,2.9-2.7,3.8,2.6-5-2.4-4.7-3.5-7.8s11.4-5.4,4.5-5.8c-5.3,3.5-5.7-17.3,1.3-13.4,1.3-.5,2.4-3.2-.2-2.4-8.7-.4.6-10-3.9-15s6.8-14.2-1.2-20.3c1.4-2.2,3.8,1.5,4.7-1.1-20.4-32-76.1-11.4-103-36.9-16.2-28.8,11.3-.8,20.9,3.2,25.6-.9,49.1,8.2,73.7,14.9,17.2-2.9.2-8.1,4.3-11.6,7.5-4-6.4-7.1,3.4-7.9,1.2-.7,2.4-2.7,1.8-2.8-3.2-.4.6-7.5-5.2-5.2-.8.3-1-1.9-.3-2.4,5-3.5-4.6-8.4,1.4-12.1s.7-5.7-.1-8.8c3.9-2.6.2-3.1-1.8-4.2,4.6-.8,4.4-6.7,9.3-6.2-3.4-3.1-11.4-1.7-4.5-7.9,2.1-3,4.6,3.7,6.9,0,5-2.6-12.8-5.7.1-7C1436,101.2,1431.8,101.6,1444.6,92.3Z"
		transform="translate(1.8 -10.3)"/>
	<path d="M613.4,437.4c-6.9,9.7-27.3,101-39.2,82.1,15.7-31.8,33-65.8,30.3-102.4-12.5-56.8-.4-67.3,6.6-3.4,46.6-15.8-1.3-150.2-28.9-75.3-12.9-39.3,40.2-40.9,47.4-3,32.5,79.8-32.1,78.1-14.7,98,7.1-3.5,7.7,15.4,12.5,10.7,3.2-3.4,8.3.2,5.9,4.5C616.6,485.3,623.7,450.3,613.4,437.4Z" transform="translate(1.8 -10.3)"/>
	<path d="M457.6,303.2c14-7.8,34.8-53.6,46-37.4-20.1,5.7-57.4,66-17.1,60.6,18.1-8.7,40.2-30.2,59.3-26.9,1.7,8.3-14.1,8.9-19.5,13.3-18.2,5.2-29.6,24-49.3,23.9-11.5-1.1-11.4-22.9-22.1-21.4-5.7,2.3-5.9,6.8-.7,11.3,14.4,14.2-15.4,17.2-15.3.8-5.8-13.2-7.7-35,5.7-43.4,12.1,16.8,6.7,4.7,16.1-5.6C474.7,270.2,457.7,296.9,457.6,303.2Z" transform="translate(1.8 -10.3)"/>
	<path d="M2164.4,1583.1c11.2,4.1,13.8,16.3,22.1,23.1,11.1,2.6,28.8-7.1,5.9-8.6-7.7-9.5,13.9-3.5,18.4-1.8,15.7,9.3-12,14.2-16.5,18.9-1.2,3.8,7.8,3.8,3.9,7.6s-74.1,13-62,1.8c8.8-.9-3-2.6-5.3-5.4-15.5-20,24.6-18.7,26.4-33.7-11.1-2.9-46.4,10.6-45.4-1.4,27-.6,58-10.6,83.8-8.9C2188.8,1580.5,2174.3,1580.5,2164.4,1583.1Zm-1,32.6c3.7-.4,23.4-3.7,14.5-8.4-6.2-6.2-9.5-18.5-17.4-22.1C2162.3,1592,2157.4,1616.5,2163.4,1615.7Zm-8.2-8c3.3-17.6-16.9-3-20.9,3.3C2138.7,1617.7,2158.8,1621.5,2155.2,1607.7Z" transform="translate(1.8 -10.3)"/>
	<path d="M878.3,109.2c-13.6,26.9-26.2-12.1-31.3,13.3-6.1,12.2-24.4,17.4-27.9.7,10.3,4.1,18,4.7,21.8-6.2,18.7-25.2-42.2-14.1-19.2-38.1-36.6-13.5-13.1,15.3-13.4,33.5,3.9,2.4,9,9.9,3.8,13.5-11.1-3.8-12.2-21.5-15.9-31.7C779.1,55.6,840,69.2,833.4,79c-16,14.6,10.1,9.4,16.3,19.7,6.3,5.4,13.2-17.3,22.4-8-4,4.6-12,6.1-12.6,14.5.3,17,19.6-.1,16.3-9.9-.1-3.6.6-10.3,5.1-10.1,7.5,10.5-1.3,34.9,21,32.6C896.2,132.3,881.2,118.9,878.3,109.2Z" transform="translate(1.8 -10.3)"/>
	<path d="M1831.7,647.5c-18.4-7.3-35.5,18.6-15.7,18,3.3-2.3,15-6.9,9.8,1.1-9.6,9.9-25.6,2.6-32.5-5.1,5.1-4.3,12.4-1.6,10.9-11.5,9.8-24.4,27.8-49.7,50.8-63,17.3-4.5-23.5,26-22.6,33.7,38.3-16.8,41.1-10.1,1,6-4.4,1.7-6.7,6.3-8.2,10.7-1.4,7.6,30.3-4.6,21.9,7.4-9.8.9-4.9,14.8-14.1,14.3C1828.2,658.4,1829.1,650.2,1831.7,647.5Z" transform="translate(1.8 -10.3)"/>
	<path d="M1931.9,474.8c-1.6-16.8,5.7-34.8,5.2-52.9-12.4,1.6-23.4,56.1-22.7,78,1.6,4.7,5.3,15.2-2.8,9.7-14.6-31.2,6.9-68.1,20.8-96.4,14.4-18.4,11-47.1,38.4-60.5C1935.9,393.6,1952.8,426.8,1931.9,474.8Z" transform="translate(1.8 -10.3)"/>
	<path d="M355.1,586.9c-7.4-28.4-9.1,28-8.2,41,2.9,7.5-6.8,9.3-7.7,1.5-.7-11.1,1.8-19.7,1.4-30.8,3.8-24,8.7-51.9,9.3-79.3,3.9-11.5-3.3-21.7,2.9-33.2.6-2.7-3.5-5.7,1.4-6.4-.9-4.2,1.2-16.4,6.7-14.2,8.3,21.3-6,59.9-5.4,90.3-.7,5.6,5.6,7.6-1.5,9.9,3.1,1.5.1,5.8,3.5,7.3,1.3.5,1,1.5.4,2.8C356.1,582.7,359.7,581.2,355.1,586.9Z" transform="translate(1.8 -10.3)"/>
	<path d="M576.2,328c-7.2-5.5,2.5-35.6-5.3-24.7-24.2,33.6-5.6-107.8-45.5-31.5-21.6,27.9,8.4-49.5,25.6-25.3,10.1,15.5,9.1-22.1,13-29.7,14.1-12.9-.4,36.4-3.8,42,5,11.6.9,27,5.4,38C581.9,272.8,584,316.3,576.2,328Z" transform="translate(1.8 -10.3)"/>
	<path d="M474.4,735.1c-41.6-12.3-74.1-103.9-32.2-124.2-20.7,38.9-2.5,91.3,30.8,119.4C473.6,732.2,481.8,734.4,474.4,735.1Z" transform="translate(1.8 -10.3)"/>
	<path d="M1444.7,92.4c-1.8-1.1-2.4-4.4-5.5-2.8-2.2-4-1.7-11.3.6-15.7-8.6-12.1,5.9-.6-4.9-21.4,2.6-1.8,3.2,3,5,1.5s.6-1.7-.8-2.3c-4.2-2,3.5-4.9-1.3-6.5-2.6-20.2,2.7-8.9,4.5-23.8,1.9-3.8,3.8-3.5,2.1,1.1,1.4.1,3.1-1.3,4.8-.1-4.8,9.3,6.7-.3,10.3,3.7-4,7.9.8,7.3-2.7,11.1-3.1,2,3.4,4.4,0,6.6s-4.3,5,1,5.8c-.5,3.1-6.5-.2-4.7,4.7,0,3.4,1.3,5.9,1.9,8.8-1.5,2.9-2.4,5.8.7,8.9s-2.1,3.5-4.3,5.4c9.3.9,2.1,5.2-2.2,7.3-6.4,4.7,4.3,3.1,7.4,1.3C1456.6,93.2,1448.6,91.5,1444.7,92.4Z" transform="translate(1.8 -10.3)"/>
	<path d="M1058.6,168.8c5.5-17.5,20.7,1.3,32,3.3.8-13.9,7.4-15.8,18.4-18s4.2,15.9,14.3,16.6c6.6,4.7-8.6,6.5-9.5.5-5.4-4.6-10.1,11.4-19.1,4.1-6.9,4.1-11.6,13.9-22.1,13.7-4.3,1-6,7.1-9.4.6C1049.3,175.2,1035.9,121.3,1058.6,168.8Zm7.4-1.3c1.5,12.5,5.1,20.7,16.5,10.4C1083.4,173.4,1070.6,171.5,1066,167.5Zm44.8-11.1c-5.9,3.3-16.7,5.5-13.1,14.2C1105.1,173.3,1108.3,162.7,1110.8,156.4Z" transform="translate(1.8 -10.3)"/>
	<path d="M637.2,288c-8.4,12.1-10,.9-15.7-6.8-11.1-3.5-10-19.2-14.5-28.8-7.4-17.6-2.3-2.1-3,5.6-9.4-3.7-10.7-27.5-5.6-33.7,16.7,10.3,12.2,41.4,28.2,54.9,5.1,10.1,4.3-1.7,10.7-1.2s6,13.9,5.5,19.1c-4.6,12.8,9,22.2,5,33.9-5.6,19.9-6.6-11.4-10.9-15.2C629.4,308.6,639.7,297.3,637.2,288Z" transform="translate(1.8 -10.3)"/>
	<path d="M649.7,433.8c14.3-5,5.6,23.6-1.1,26-4.8-4.1,7.5-19.1-1.5-14.9-3.7.9-4.7-.4-4.2-4.3-.8-15.9,9.4-37.3,6.8-50.2-2.4.4-7.9-2.6-6-5.6,2.1-5.2,8.8.7,10.4-5.3,2.4-7.7-12.2.7-8.2-11.3-.4-3.6-.3-7.6-.4-11-5.1-.2-4.8-8.6-2.8-9.8,14.5.9,2,20.6,11.4,22.7C670.5,381.6,650.1,415.6,649.7,433.8Z" transform="translate(1.8 -10.3)"/>
	<path d="M1307.3,643.3c3.6-7.8,32.9-4.6,23.3,1.5-25.7-6.7-49.8,20.4-55.6,43-10.3,7.3-2.1-19,5.9-19.9-4.2-8,6.3-10.7,8.8-16.3,24-56.9,82.4-9,59.9-15.2-9.1-1.3-29.8-13.5-34.8-2.9C1311.5,636.1,1306.8,637.3,1307.3,643.3Z" transform="translate(1.8 -10.3)"/>
	<path d="M1846.1,1128.6c-8.3-18.5-34.9-189.9-18.1-172.6C1827.1,1014.8,1843.3,1070.6,1846.1,1128.6Z" transform="translate(1.8 -10.3)"/>
	<path d="M1395.3,756.4c-1.2-1.9,3.9-6.4-2.5-6.3.3-4.2-6.3-5.2-4.7-10.1.3-1.2-.7-1.5-1.8-1.8-4.1-.6,2.5-2.6-.3-3.7-1.2-.6-1.5-1.8-.9-2.5,5.2-5.1-1.6-3.5-2.5-3.8-16.1-12.1,4.1-46-32.1-37.9,10-18,28.6.3-8.6-27.3-5.8-9.2,10.7-.5,13,3.1,25.7,7.7,22.3,35.7,32.5,52.2,3.6,4-.2,3.4.5,6.3,3.8,5.3,4.1,12.2,3.7,16.9,1.5,1.8,4.5-3.6,5.1,0C1395,748.5,1407.1,754.4,1395.3,756.4Z" transform="translate(1.8 -10.3)"/>
	<path d="M1925.5,216.2c-21.6,43.1,1.6,93.2,26.8,127.5C1920.3,330.7,1891,242.9,1925.5,216.2Z" transform="translate(1.8 -10.3)"/>
	<path d="M928.6,82.3c4-19.3,36.5-12.8,22.9,4.7-10.2,8,5.9,7,10,10.8,7.8,13.9-25.5-6.9-27.6.8-7.1,19.5-22.8-48.2-20.7-51.3C924,50.9,924.4,70.8,928.6,82.3Zm7.5,7.8c8.7.4,20-16.7,4.9-14.3C937.7,77.6,930.4,88,936.1,90.1Z" transform="translate(1.8 -10.3)"/>
	<path d="M466.3,514.2c20.5,5.7,53.9-11.4,66.3,11.3-13,4.7-61.5,12.9-66.7-3.5C462.9,519.2,457.1,513.8,466.3,514.2Zm4.7,7.1c13.5,10.5,34.6.9,51.1,2.4C508,514,487.2,522.5,471,521.3Z" transform="translate(1.8 -10.3)"/>
	<path d="M1076.9,484.9c-23.2,62.5-29.7-62.4,9.3,8.1,15,24.6-20.8,51.8-27.7,25.2C1083.3,533.7,1088.4,503.3,1076.9,484.9Zm-14.7,3.7c1,19.3,14.1-7,8.3-11.7C1063.5,474.6,1062.8,485.1,1062.2,488.6Z" transform="translate(1.8 -10.3)"/>
	<path d="M1063.3,85.4c.6,8.6,19.2,31.3,11.6,31.8-13.9-6.6-13.9-27.6-21.4-40-1.8-5.5,6.1-7.9,4.1-14.2C1074.9,36.6,1102.7,113.3,1063.3,85.4Zm14.7-3.9c.3-4.7-11-25-15.1-16.2C1059.6,71.4,1073.6,93,1078,81.5Z" transform="translate(1.8 -10.3)"/>
	<path d="M740.4,186.9c35.6,1.3,21.3,12.3-3,7.4-9,12.9,5.8,36,7.1,52.8,12.3,16.3-7.8,5.6-9.5-9.1C736.9,221.7,709.5,183,740.4,186.9Z" transform="translate(1.8 -10.3)"/>
	<path d="M82.2,169.6c-5.4,8.6-18,5.6-17.8,16.1-3.3.1-2.7-6-7.3-2.9s-7.3-2.7-2.7-4.3c6-11.7-7.6-27.3-5.3-41.3-5.9-6.7-20.5,6.2-26.3,0,4.9-10.2,36.3-11.4,44.4-6.9-19.5,11.7-15.3.4-10.2,27.2C61.8,180.1,65.5,169.4,82.2,169.6Z" transform="translate(1.8 -10.3)"/>
	<path d="M1015.2,421.9c-.7-6.5-3.6-14.6-4-20.5,3.1-4.2-1.3-4.7-2.9-5.9-6.3-4.4-12.1,3.6-16.6-4.3-.5-.8-.7,3.3-2,.6s-4.7-.4-3.4-3.1c2.8-6.8,35.2-6.2,37.2-.8-2.1,3.3.7,9.2-5.7,12,6.4,6.6,6,15.6,8.2,23.7C1022.9,433,1016.2,432.1,1015.2,421.9Z" transform="translate(1.8 -10.3)"/>
	<path d="M180.4,361.8c-5.6.1-10.3-14.2-13.5-4.6-1.9,30.3-31.8,3.2-14.1-10.1,7.1,1-4.6,11.9,1.9,16.7,21.7,1.9-7.1-46.4,3.6-55.7C168.9,321.7,169.1,346,180.4,361.8Z" transform="translate(1.8 -10.3)"/>
	<path d="M1228.7,408.5c-10.1-10.1,1.4-19.5-12.7-27.2.3-2.5,2-1.4,3.4-1.3,9.1-1.2-4.3-17.4,2.7-20.8,13.4,13.2-5.5,25.7,29,17.8,16.1-13.6,37.1,10.6,12,15.1-9.8,1.6-7.2-12.1-15-10.5C1222.4,384.1,1231.9,387.9,1228.7,408.5Zm34.9-21.4c9.6-.7,6.3-10.8-1.8-9.9S1256.6,387.3,1263.6,387.1Z" transform="translate(1.8 -10.3)"/>
	<path d="M372.1,1022.2c-2.8-5.4-1.4-15.6-4.2-21.2-1.5-2.4-3.9-4.6-.4-7.3-3.7-10.2-8.6-22.2-6.6-33.9,2.4-4.1-4.4-3.8-4.9-6.9s5.2-3.3,5.8-.8c0,7.7,13.7,24.2,7.2,30.1,5.9,2.6,1.8,9.5,6.1,12.8.9.5.3,2-.1,2.8-2.3,5.2,5.3,9.9,2.7,15.7-1,2.7-.1,3.9,1.3,5.9,2.4,7.3,8,21.4,3.6,26.8C378,1040.9,373.8,1030.7,372.1,1022.2Z" transform="translate(1.8 -10.3)"/>
	<path d="M1166.2,136.9c4.3-12.7,20.7-7.7,15.5,4.8-4.2,6.5-3.6,8.1,3.5,11.6,5.2,1.1,3.9,5.7-1,4.7-23,.8-.1-29.1-12.2-21.5-4.6,3.8-1.8,13.3-7.5,15.3-9.7-11.2-12.3-45.5,1-54.3C1168.1,108.3,1157.6,125.5,1166.2,136.9Z" transform="translate(1.8 -10.3)"/>
	<path d="M1035,80.3c.5-6.4-3.2-12.4-4.9-18.5,13.2-15.2,20.1,51.3-6.2,35.6C1014,94.2,989.9,61,1007,63,1007.6,76.1,1034.9,108.1,1035,80.3Z" transform="translate(1.8 -10.3)"/>
	<path d="M470.9,312.8c-.4-11.6,3.1-5.7,13.4-7.4,12.3-6.5,23.5-13.2,36.8-16.4,19.8-10.2,45.8,3.1,7.9,4-8,5.3-15,4-23,8.6C494.8,309,483,317.1,470.9,312.8Z" transform="translate(1.8 -10.3)"/>
	<path d="M805.9,210.7c2.5-22.9,28-16.7,11,3.4-6.4,10,14.6,3.2,18.8,2.6,4.7-2.5-1.3-11.2,2.3-15.6,9.9-10.2,3.5,6.1,5.8,11.1C844.3,226.6,802,233.6,805.9,210.7Z" transform="translate(1.8 -10.3)"/>
	<path d="M1856.2,702.2c5.9,5,12.6,1.7,18.8,2.6,15.3,6.2-11.9,8.5-16.6,5-6.9-1-18,5.3-23.9-2.8.7-10.4,44.9-22.3,44.7-5.8C1870.3,703.7,1866.1,695.6,1856.2,702.2Z" transform="translate(1.8 -10.3)"/>
	<path d="M988.5,557c-4.1,11.5-32.6,40.6-.2,31.7,14.5,7-11.9,37.4-23.1,34.6,3.6-7.8,40.4-33.8,9.7-27.3C954.6,592.7,977.6,561.4,988.5,557Z" transform="translate(1.8 -10.3)"/>
	<path d="M970.4,184.9c38.9-9.6-10.9,25.2-20.3-10.7,1-2.3,5,1.6,4.8-3,.5-16.5,27.1-15.9,19.8,1.9-2.4,5.9-8.5,6.1-13.1,8C962.5,184.4,967.5,185.5,970.4,184.9Zm-.2-16.5c.3-12.3-15.8,3.9-6.8,7C966.3,175.4,970.2,171.4,970.2,168.4Z" transform="translate(1.8 -10.3)"/>
	<path d="M301.6,434.3c-11.1,6.7-73.5-20.1-57.3-26.2,21,13.9,46.3,28.3,71.9,16.8C328.8,426.6,307.3,436.7,301.6,434.3Z" transform="translate(1.8 -10.3)"/>
	<path d="M1286.8,125.3c.5,6.8-11,7.2-10.1,13.6,1.9,17.1-7.7,13.7-6.6-1.5-.9-5.3-2.5-6.7-7.9-5.5C1251.5,116.6,1285.4,98.3,1286.8,125.3Zm-5.8-1.2c-.4-4.5-7.6-11.9-11.5-6.8C1269.6,121.7,1279.6,136.2,1281,124.1Z" transform="translate(1.8 -10.3)"/>
	<path d="M2270.3,1610.9c50.7-2.1-17.4,15.6-24.1,2.6,2.8-7.4,15.5-.3,20-8.9,7.6-7.5-6.9-11.8-5.8-18.3C2272.5,1582.6,2276.9,1605.8,2270.3,1610.9Z" transform="translate(1.8 -10.3)"/>
	<path d="M1071,413.3c3.5-9.2,8.4-21.2,16.9-8.9,5.3-3.2,5.5-10.2,12.9-8.7,6.1-.4,11.5,16.5,6.8,19.7-6.7,2.7-4.7-9.5-8.2-11.3-5.4,2.1-13.7,21.7-17.6,5.9-.2-10-6.7,4.4-8.1,7.5.3,1.1,4.2,2.6.1,3.3S1071.5,416.7,1071,413.3Z" transform="translate(1.8 -10.3)"/>
	<path d="M494.6,358.3c8.8,1.3,44.9-21.6,36.9-4.7-28.6,9-14.2,2.9-20.6,23.2-4.4.9-6.7-6-7.9-9.5-1-6.8-11.1,1.2-16.1-1.3C479.4,362.5,492.4,359.5,494.6,358.3Z" transform="translate(1.8 -10.3)"/>
	<path d="M1142.5,394.8c-.1,11.8-28.4,19.1-3.2,25.1,2.5.1,2.3,3-.1,3.1C1106.6,431.1,1121.4,363.8,1142.5,394.8Zm-15.7,4.6c-.6,7.8,9,1.1,9.2-3.3C1134.3,388.6,1126.9,395.3,1126.8,399.4Z" transform="translate(1.8 -10.3)"/>
	<path d="M1156.9,567.3c3,20.5,17.9,14.2,28.5,6,.5,15.1-25.6,21.3-30.9,5.5-6.3-8.4-1.4-36.9,11.4-24.2C1166.4,559.2,1164.3,572.8,1156.9,567.3Z" transform="translate(1.8 -10.3)"/>
	<path d="M1237.2,133.5c-5.4,45.2-38.4-19-21.3-6.1,2,5.6,6.2,9.9,9.6,14.6,9.5,4.2,2-23.5,12.1-23.8,7.2,1.8,1.9,15.1,8.4,17.7C1254.8,141.1,1238.1,142.3,1237.2,133.5Z" transform="translate(1.8 -10.3)"/>
	<path d="M108.5,288c-12.3,0-24.1,8.2-35.1,7.6,17-19,52.9-7.7,74.1-23.6C171.3,270.6,115.7,291.9,108.5,288Z" transform="translate(1.8 -10.3)"/>
	<path d="M609.8,342c3.8,6.2-1,13.2,4.6,17.2,8.8,3.9,12.3,24.6,1,26.2-4.5-7.1,6.5-15.5-5.9-21.7-6.7-4.1-10-41.8.9-32,1.9,2.2,7.7-2.2,7.6,3.3S610.4,334.4,609.8,342Z" transform="translate(1.8 -10.3)"/>
	<path d="M869,227.4c7.3-24.1-15.9-15.8-19.3-31.5,4.8-3.6,19.3,18.2,20.9,5.2.3-3.2.2-9,3.4-10.7C881.9,196.4,870.8,278.3,869,227.4Z" transform="translate(1.8 -10.3)"/>
	<path d="M1112.4,470.2c-30.7,42.4,36.9,13,.1-2.2-2.6.4-3.3-2.7-.8-3.3,19.1-5.8,21.8,27.9,4.5,32.5C1095.5,503.4,1092.5,475.2,1112.4,470.2Z" transform="translate(1.8 -10.3)"/>
	<path d="M313.9,1005c1.9-.6,4.2,1.7,4.4-.8-1.5-3.7-6,3.6-3.9-2.9.5-3.6-3.1-7.2.1-10.8-.5-1.9-5.3-3.7-.2-4.6s2.8-5-1.2-2c-1.4-2.3.5-5.7-2-8.7-4.9-7.9,9.7-1.7,8.9.3.5,5.2,5.7,14-3,12.1.4,3.7,9.6,3.5,4.6,7.9.9,6.6,3.7,3.8-.4,11.2,7.5,5.1.2,12.3,3.8,17.4,4.5,2-.1,4.4-2.8,3.5s.7-9-5.5-10.3C316.9,1012.6,319.4,1009.4,313.9,1005Z" transform="translate(1.8 -10.3)"/>
	<path d="M1574.1,794.9c3.1-5.4,18.3,6.2,19.8-1.9.7-4.7,2.9-4.5,6-2.2,21.9,4.7,47.6,7.7,68.9,15.2-13.5,7.1-31.6-8.9-47-6.9C1605.2,798.7,1589.7,800.9,1574.1,794.9Z" transform="translate(1.8 -10.3)"/>
	<path d="M799.1,226.1c-12.8-43.3,12.6-8.9,4.2,9.4-13.8,25-39-42.1-17-10.6C790.4,231.5,799.2,238.5,799.1,226.1Z" transform="translate(1.8 -10.3)"/>
	<path d="M1859.3,665.9c4,.2,10.8,9.4,13.7,6.5,4.9-6,10.6,2,4.7,6.2-10.9,13.5-20.8-.7-30.9-3.3C1838.2,672.7,1854.3,666.1,1859.3,665.9Z" transform="translate(1.8 -10.3)"/>
	<path d="M150.3,148.2c-5.8,7-5.5,21.1,5.9,18-10.1-20.7,5.2-25.9,8-2.7-.3,6.9,11.1,5.3,13,9.9C165,178.2,120.7,162.8,150.3,148.2Z" transform="translate(1.8 -10.3)"/>
	<path d="M434.1,445c-.3-3.1.4-9.5,4.5-9,6.7,2.7-.6,15.6,9.8,15,11.6,1.3,24.6-4.4,35.3-1.1C477.1,458.3,432.2,464.7,434.1,445Z" transform="translate(1.8 -10.3)"/>
	<path d="M399.7,407c-7.6-2.1-4.5-14.4-15.3-9.2-23.1-2.8,11.5-11.9,19.5-12.7,11.5-6.2,9.4,6.1.2,7.8C397.8,393.3,410.1,406.8,399.7,407Z" transform="translate(1.8 -10.3)"/>
	<path d="M1026.7,600c-5,3.1-8.7-9.3-11.8-2.3-15.7,21.2-24.3-40.3-8.3-3.1,3.8,6.1,4.2-3.3,7.2-3.9,11.5-5.4,11.4,17.9,19.7-12.8C1042.8,570.1,1036.1,603.4,1026.7,600Z" transform="translate(1.8 -10.3)"/>
	<path d="M1057.2,588.5c23.6,5.7-13,11.3-14.1-3.3C1041.2,558.6,1084.1,568.3,1057.2,588.5Zm-5.8-1.7c1-1.5.3-3.7,3-3.4C1076.1,572.4,1042,566.3,1051.4,586.8Z" transform="translate(1.8 -10.3)"/>
	<path d="M2104,236.1c-2,15.3-27.1,14.8-33.5,4.2-2.9-1.6-24-.4-14.6-7.8,2.9-1.5,2.6,5.2,6.3,1.8,7.7-3.7,16.3,3.6,23.4,6.7C2093,248.9,2100.6,225.7,2104,236.1Z" transform="translate(1.8 -10.3)"/>
	<path d="M1121,560.6c-13,3.3,3.6,20.2-2.1,27.3-11.7-8.4-1.8-29.6-22.4-31-6.7-12.1,14.1,3.2,12.5-4.9-2.8-5-.6-18.5,3.5-7.9C1114.4,550.2,1113,557.9,1121,560.6Z" transform="translate(1.8 -10.3)"/>
	<path d="M314,918c.4,3.1,6.2,3,2.1,6.1-4.4,5.1,3.3,5.2-.6,12.3-2.8,3.4.4,4.4,2.4,6.6-2.7.6,4.9,28.1-.1,22.4-1.8-2.4-10.5,11.1-8-4.4,4.6-3.9-3.5-8.2.8-11.4,1.3-.7.2-1.8-.9-2.5-3.7-2.8,4.4-3.3.3-5.4C309.5,937.7,308,916.8,314,918Z" transform="translate(1.8 -10.3)"/>
	<path d="M1078.5,577.8c2,2.5,5.7,3.8,5.3-1.6-2.3-5.1-10.8-1.5-9.2,4.4,1.5,12.4,14.4,9.5,23.4,7.1-3.4,10.6-18.8,10-25.7,2.4-7.9-10,1.3-25.2,13.5-19.3C1094.9,578.3,1076.6,595.3,1078.5,577.8Z" transform="translate(1.8 -10.3)"/>
	<path d="M82.6,243c-11.9,13.3-15.4,21.9,6.5,17,13.2,1.1-6.2,20.5-13,15.1-6.9-1.9.9-10.1-5.9-10.9C60.6,260.7,76.4,239.2,82.6,243Zm-2.5,28c2.7.1,7.9-3.3,7.4-5.8C85.2,262.1,66.5,269.4,80.1,271Z" transform="translate(1.8 -10.3)"/>
	<path d="M55.6,394.6c-.1-4.8-5.6-5.6-5-10.9s-1-6.1-4.8-6.7c-7.5.7-4.1-10.3.9-4.6,3.2,9.9-1-6.3,4.7-5.8,3-.5,1.4-4,1-4.1-7.8-2.3-.9-9.2-2.8-13.6C56.1,336.9,59.9,390.9,55.6,394.6Z" transform="translate(1.8 -10.3)"/>
	<path d="M908.4,102c15.3-8.4,10.9,4.3-.7,6.2-3.1,7.1-6.1,1.4-9-.2-14.4-5.9-4.6-19.4,6.1-21.5C907.3,91.7,895.3,101.8,908.4,102Z" transform="translate(1.8 -10.3)"/>
	<path d="M387.6,933.5c-1.3,1.6-2.6,3.8-4.7,2-3.4-3.4,5.8-4.7,1.9-8.6-2.3-2.9,4.7-.8,3.9-3.7s-1.7-.1-2.5-.3c-3.3-.7-8.2-6-3.7-8.2,1.3-1,.1-6.4,4.4-1.1-.2-2.1,1.4-4.2-1.1-4.4-6.8-.7-5.9-5.1-5.1-9.5,1.7-2.6-3.8-6,.4-6.8s1,3.1,3.4,3.8.7-3.2,2.9-3.4c2.2,3,5.7,8.7,1.8,13-2.8,2,5.4,7,.8,7.3-8.5,5,12.7,13.9.2,17.5C388.7,931.1,386.3,930.8,387.6,933.5Z" transform="translate(1.8 -10.3)"/>
	<path d="M111.7,240.6c-1.4-14.6,26.8-3.8,25.1,8.3-1,20-31.5,11.9-27.6-6.7C126.7,279.4,149.2,232,111.7,240.6Z" transform="translate(1.8 -10.3)"/>
	<path d="M890.5,200.8c-1-32.1,19.4-17,15.6,5.4C902.1,216.6,889,210.1,890.5,200.8Zm4.6-12.5c.8,5.4-2.7,15.5,4.1,17.6C903.5,200.8,902.3,191.4,895.1,188.3Z" transform="translate(1.8 -10.3)"/>
	<path d="M644.6,170.4c9.9.2,25.2-7.9,32.4-1.9C671.6,175.8,609,184.9,644.6,170.4Z" transform="translate(1.8 -10.3)"/>
	<path d="M2094.3,299c-3.7,6.1-37.4.3-20.3-5,8.3,1,2.8-15.7,13.8-11.6C2094.4,286.8,2083.3,297,2094.3,299Z" transform="translate(1.8 -10.3)"/>
	<path d="M2295.9,1618c4.2-11.5-2.5-29.8,5.3-36.9C2310,1584,2300.2,1643.2,2295.9,1618Z" transform="translate(1.8 -10.3)"/>
	<path d="M1358.9,776.9c-.9,4.1-6.3,3.9-8.3,1.1-9.4-8.8-28.8,7-33.7-9.4C1330.2,775.6,1349.8,760,1358.9,776.9Z" transform="translate(1.8 -10.3)"/>
	<path d="M138.9,367.9c17.2,10.1-34,2.3-12.8-17.7C150.1,341.1,118.7,368.2,138.9,367.9Z" transform="translate(1.8 -10.3)"/>
	<path d="M2094,272.9c-6.9,6.4-20.8.9-28-4.3-3.5-3.6-9.3,6.1-12.7,2.8,1.1-7.1,13.5-13.7,19.4-6C2078,270.6,2091.1,265.3,2094,272.9Z" transform="translate(1.8 -10.3)"/>
	<path d="M178.5,828.9c-3,3.4-10.9,6.5-7-.5,8.2-4.3,23.6-5,31.1-1.5,10.9,2.3-13.1,8.8-18,6.9C179.4,833.9,175.9,837.4,178.5,828.9Z" transform="translate(1.8 -10.3)"/>
	<path d="M192.4,152.8c8.6-24.4,28.6,17.7,15.7,9.6-2.7-3.4-3.8-9.7-7.5-11.7-4.5,2.5-4.1,11.6-11.3,6.9-1.3,2.1-1,7.3-3.9,7.1C182.7,159.7,185.5,137.8,192.4,152.8Z" transform="translate(1.8 -10.3)"/>
	<path d="M944.7,193c-5,9.9-11.8-15.7-15.3-6.6-3.1,4-.1,12.3-4.5,13.5C912.7,183.2,936.5,163.9,944.7,193Z" transform="translate(1.8 -10.3)"/>
	<path d="M1131,161.1c.1-6.1-1.8-19.5,6.6-19.8,4.6,3.9-7.9,29.3,8.1,22.5C1160.1,163.3,1132.9,180.3,1131,161.1Z" transform="translate(1.8 -10.3)"/>
	<path d="M506,431.7c-.9,14-28.9,22-9.8,3.8,3.2-2.3,2.2-4.3.3-6.5C480.9,414.3,505.3,421.6,506,431.7Z" transform="translate(1.8 -10.3)"/>
	<path d="M1112.4,30c7.1-21.1,5.3,24.3,1.6,30C1103.7,74.9,1112.8,35.8,1112.4,30Z" transform="translate(1.8 -10.3)"/>
	<path d="M1140.4,558.5c1.7,6.9,6.7,21.9-1,25.4C1133.5,576.8,1131.3,518,1140.4,558.5Z" transform="translate(1.8 -10.3)"/>
	<path d="M1628.7,199.3c1.5,8-5.9,5.6-7.6.9s-5.2-4.5-7.9-.6C1589.9,218.7,1619.8,168.7,1628.7,199.3Z" transform="translate(1.8 -10.3)"/>
	<path d="M1905.4,646.8c-8.9.6-23.7,1.8-27.2-5.7C1879.5,635.9,1922.2,640.9,1905.4,646.8Z" transform="translate(1.8 -10.3)"/>
	<path d="M417.3,403.8c10.2,13.5-18.6,39.6-13.7,22.9C414.2,422.3,411.9,411.3,417.3,403.8Z" transform="translate(1.8 -10.3)"/>
	<path d="M520.2,392.1c-7.4,1-22.6-2.6-21.7-11.5C500.3,379.2,539.2,391.6,520.2,392.1Z" transform="translate(1.8 -10.3)"/>
	<path d="M699.7,128.8c-5.4-8.8-19-7.1-23.4-14.2C684.5,108.6,706,118.4,699.7,128.8Z" transform="translate(1.8 -10.3)"/>
	<path d="M1402,527.9c2.9-20.3,12.6,4.1,6.9,12.7C1402.7,546.8,1401.8,531.4,1402,527.9Z" transform="translate(1.8 -10.3)"/>
	<path d="M2111.5,329.2c-8.1,2-8.2-8.1-1.4-7.2,8.6,3.1,10.9-9.1,17-8C2131.3,321,2116.8,328.3,2111.5,329.2Z" transform="translate(1.8 -10.3)"/>
	<path d="M2138.2,251c-8.1-7.4-13.1,18.8-15.6,6.9C2123.4,237.8,2156.9,242.9,2138.2,251Z" transform="translate(1.8 -10.3)"/>
	<path d="M1328.7,756.2c-6.4,2.4-18.9-14.5-8.7-11.2,6.3,10.6,16.5,1,23.4,5.6C1342.4,755.7,1333.1,755.3,1328.7,756.2Z" transform="translate(1.8 -10.3)"/>
	<path d="M771.4,231c11.4,1.8-16.2,18.9-18.3,13.9S766,232.8,771.4,231Z" transform="translate(1.8 -10.3)"/>
	<path d="M1427.7,552.9c5.8,2.6,12.5-6.2,16.7-1.4C1442.4,567,1402.3,555.1,1427.7,552.9Z" transform="translate(1.8 -10.3)"/>
	<path d="M1046.1,420c1.9-4-1.8-9.6,3.3-13.4-2-1.9-.3-16.8,2.6-6.5,0,7.1.1,13.2,1.9,21C1054.2,427.2,1045,426.3,1046.1,420Z" transform="translate(1.8 -10.3)"/>
	<path d="M1445.9,264c15.4,19.7-25.3,24.8-2.4,11.4-1.9-.9-3.4-.1-6.3,1,5-5.9-2-8.5,6.9-6C1445.8,268.3,1442.3,265,1445.9,264Z" transform="translate(1.8 -10.3)"/>
	<path d="M2069.8,207c5.2,5.4,13-2.3,17.3,8.2-.9,3.1,6.9,7.5,2.3,8.4-6.6-1.9-6.1-10.6-13.8-10.3C2070.2,212.7,2056.1,208.3,2069.8,207Z" transform="translate(1.8 -10.3)"/>
	<path d="M1157.7,491c4.4,1.6,23.7,11.8,17.2,16.2C1171.3,504.1,1145,491.8,1157.7,491Z" transform="translate(1.8 -10.3)"/>
	<path d="M1376.1,540.6c-4,7.2,10.7,32.5-2.9,21.8,4.1-5-3.7-8.1-1.6-13.8,2.7-4-1.6-7.5-1.2-11S1376.7,538.5,1376.1,540.6Z" transform="translate(1.8 -10.3)"/>
	<path d="M2131,288.4c-5.6-7,8.8-18.7,7.3-5.7C2139.8,290.9,2125.6,303.1,2131,288.4Z" transform="translate(1.8 -10.3)"/>
	<path d="M1612,224.1c1.8,5-4.1,15.1-7.2,7.3C1599.6,222.5,1612.2,208.3,1612,224.1Z" transform="translate(1.8 -10.3)"/>
	<path d="M1732,336.6c-5.7,3.4-8.6,14.3-12.9,15.2-1.6-1.2-2.1,1.6-1.9,2,1.9,3.9-3.1,10.2-6,10.2C1710.3,359.6,1727.6,328.4,1732,336.6Z" transform="translate(1.8 -10.3)"/>
	<path d="M99.5,370.2c-14.5-5.8,10.6-19.4,14-7.2-.5,1.4-2.1,1.3-3,.8C104.9,362.1,100,365,99.5,370.2Z" transform="translate(1.8 -10.3)"/>
	<path d="M1409.3,55.9c-10.1-1.4-18.2,5.1-26.8,6.8C1381,55.6,1407.6,46.3,1409.3,55.9Z" transform="translate(1.8 -10.3)"/>
	<path d="M1454,523.6c-.5-17,11.4-3.5,6.3,6.3C1457.9,538.2,1452,528.4,1454,523.6Z" transform="translate(1.8 -10.3)"/>
	<path d="M2138.6,1091.7c-8.2-10-17.7-19.3-21.1-32.4A182,182,0,0,1,2138.6,1091.7Z" transform="translate(1.8 -10.3)"/>
	<path d="M744.8,221c-10.5-1.4,2.2-11.5,7.5-7.3,1.8,1.4,4.9-2.6,5.7,1.6s-3.8.7-5.5,3S747.8,221.9,744.8,221Z" transform="translate(1.8 -10.3)"/>
	<path d="M475.3,778.7c2.6-6.3,12.9-5.6,12.4,1.8C485.3,787.5,477.7,785.1,475.3,778.7Z" transform="translate(1.8 -10.3)"/>
	<path d="M1742.7,309c2,.5,12,3,6.8,4.6-6.2-3.6-9.1,7.1-14.4,3.8C1729.2,310.4,1737.3,309.7,1742.7,309Z" transform="translate(1.8 -10.3)"/>
	<path d="M1362.7,721.1c1.4,3.3-1,10.1-5.2,7.5C1349.6,722,1362.5,705.3,1362.7,721.1Z" transform="translate(1.8 -10.3)"/>
	<path d="M1894,652.1c.8,8-9,14.3-8.9,5.4C1883.9,652.2,1892.1,643.6,1894,652.1Z" transform="translate(1.8 -10.3)"/>
	<path d="M1383.8,105c9.4,1.4,20.9-2.3,29-.6C1408,109.7,1388.4,110.3,1383.8,105Z" transform="translate(1.8 -10.3)"/>
	<path d="M1618.9,174c5.7-1.1,16.7-19.5,17.1-6.7C1630.3,168.6,1624.4,180.2,1618.9,174Z" transform="translate(1.8 -10.3)"/>
	<path d="M359.8,620.4c-2.6-2.8-5.8-12.4.8-7.8,2,6,1.5,13.4,3.3,19.8C360,637.1,355.4,623.2,359.8,620.4Z" transform="translate(1.8 -10.3)"/>
	<path d="M1307.3,108.6c.6,5.5,4.6,16.7-2.9,17.1C1299.8,122.9,1304,112.8,1307.3,108.6Z" transform="translate(1.8 -10.3)"/>
	<path d="M2079.9,966.7c-1.2,6.1-2.6,14.2-7.5,3.6,1.1-2.2.5-8.3,3.3-7.9S2080.4,962.8,2079.9,966.7Z" transform="translate(1.8 -10.3)"/>
	<path d="M1312.9,710.3c-.5,4.5,4.6,13.9-2.9,13.7C1305.4,722.5,1307.5,711.8,1312.9,710.3Z" transform="translate(1.8 -10.3)"/>
	<path d="M1762.8,314.5c-.9.4.4,3-1.7,2-12.1,2.8-5.3-23-1.3-6.4C1760.8,311.5,1762.9,312.2,1762.8,314.5Z" transform="translate(1.8 -10.3)"/>
	<path d="M2224.5,1588.1c3.8-.9,12.9,2.2,6.4,5.8C2225.9,1596,2213.8,1587.6,2224.5,1588.1Z" transform="translate(1.8 -10.3)"/>
	<path d="M354.9,587.1c8.1-6,4.9,18.1,1.8,15.8S358.6,591.7,354.9,587.1Z" transform="translate(1.8 -10.3)"/>
	<path d="M499.9,339.9c-3.2,4-9,9.5-13.5,7.9C486.6,340.7,494.5,340.4,499.9,339.9Z" transform="translate(1.8 -10.3)"/>
	<path d="M770.9,311.7c.1,4.7-2.7,11.2-6.5,11C763.2,319.7,768.9,303.2,770.9,311.7Z" transform="translate(1.8 -10.3)"/>
	<path d="M2055.5,247.4c1.9-6,10.7-8.9,10.6-3S2059.5,247.1,2055.5,247.4Z" transform="translate(1.8 -10.3)"/>
	<path d="M1424.7,757.8c8.6-.4,1.7,5,8.9,9.7-4.7,5.7-4.5-7.9-10.2-7.5C1421.3,759.4,1423,756.2,1424.7,757.8Z" transform="translate(1.8 -10.3)"/>
	<path d="M1443.1,363.8c-2.1-5.1,6.4-9.3,6.1-2C1450,365.4,1441,368.4,1443.1,363.8Z" transform="translate(1.8 -10.3)"/>
	<path d="M2234.1,795.8c4.3-2.4,15.2-1.9,20.4,1.1Z" transform="translate(1.8 -10.3)"/>
	<path d="M1105.2,82c-5.1.4-3.2-7.7,1.2-6.9S1109.8,82,1105.2,82Z" transform="translate(1.8 -10.3)"/>
	<path d="M160.5,92.4c0-2.8,3.5-7.2,6.2-3.9.3,4.4,3.1,1.9,4.9,1.9C169.4,99.3,164.7,89,160.5,92.4Z" transform="translate(1.8 -10.3)"/>
	<path d="M151.6,85.7c-.3-4.9,4.6-.8,7.7-1.2C160,88.6,150.2,91.4,151.6,85.7Z" transform="translate(1.8 -10.3)"/>
	<path d="M1442.2,778.9c-4.7,2.8-8-6.1-8-9.2C1438.3,768.6,1440.8,776.4,1442.2,778.9Z" transform="translate(1.8 -10.3)"/>
	<path d="M137.4,84c11.1,4.7,6.9,9-2.3,6.2C135.8,86.8,140.4,88.9,137.4,84Z" transform="translate(1.8 -10.3)"/>
	<path d="M618.5,392.9c3.6-1.2,5.9,5.7.6,5S610.4,392.2,618.5,392.9Z" transform="translate(1.8 -10.3)"/>
	<path d="M85.7,368.4c0,3.3,4.5,5.5,2.9,7.9C84.2,377.7,80.2,371.9,85.7,368.4Z" transform="translate(1.8 -10.3)"/>
	<path d="M1374.7,521.9c1.2,3.7,2.7,6.6-.1,8.6s2.4,5-1.2,3.9S1373.7,526.2,1374.7,521.9Z" transform="translate(1.8 -10.3)"/>
	<path d="M2179.4,792.9c-4.7-.8-11.3,2.2-12.8-2.5C2169.2,788.3,2175.4,790.1,2179.4,792.9Z" transform="translate(1.8 -10.3)"/>
	<path d="M1580.5,804.5c3.9-2.7,10.7-5.2,13.9-3.2C1591.6,803.9,1585.4,804.7,1580.5,804.5Z" transform="translate(1.8 -10.3)"/>
	<path d="M387.5,933.5c5.3,3.1,11.2,5.6,1.5,6.1C384.9,941.5,386.6,935.4,387.5,933.5Z" transform="translate(1.8 -10.3)"/>
	<path d="M203.2,938.9c-1.2-.1-2.4-1.4-2-1.7C201.2,926,211,934.3,203.2,938.9Z" transform="translate(1.8 -10.3)"/>
	<path d="M119.9,84.9c3.8-3.4,13.5-4.2,11.2,1.1C127.9,84,124.5,85.6,119.9,84.9Z" transform="translate(1.8 -10.3)"/>
	<path d="M311,915.1c-3.5-3.1-2-13.6,2.6-6.7C314.9,910.2,311,909.5,311,915.1Z" transform="translate(1.8 -10.3)"/>
	<path d="M1278.6,716.7c-1.5,6.5-10-1-3.8-3C1276,714,1279.4,713,1278.6,716.7Z" transform="translate(1.8 -10.3)"/>
	<path d="M311,915.1c1-1.6,2.9-5.9,5.4-3.1C319.5,916.6,313.1,919.6,311,915.1Z" transform="translate(1.8 -10.3)"/>
	<path d="M196.2,358c4-.9,3.3,4.9-.2,4.9S192.2,357,196.2,358Z" transform="translate(1.8 -10.3)"/>
	<path d="M1640.4,157.9c2.2,4.4-3.3,7.2-4.1,3.1S1642.5,153.8,1640.4,157.9Z" transform="translate(1.8 -10.3)"/>
	<path d="M99.5,370.2c2.1,2.3,3.1,7.5-.6,8.6C95.4,377.4,99.2,372.8,99.5,370.2Z" transform="translate(1.8 -10.3)"/>
	<path d="M1662,210.8c-.7,2-5.9,3.8-6,.9S1660.4,207.1,1662,210.8Z" transform="translate(1.8 -10.3)"/>
	<path d="M764.9,331.6c-2.1,1.1.3,4.7-2.6,5C757.1,336,763.1,325.6,764.9,331.6Z" transform="translate(1.8 -10.3)"/>
	<path d="M2047.9,246.6c-.2,3-5.2,2.7-5.8.2S2046.8,244.4,2047.9,246.6Z" transform="translate(1.8 -10.3)"/>
	<path d="M1830.2,929.3c.4,2.8-4.9,3.4-5,.7S1829.9,925.6,1830.2,929.3Z" transform="translate(1.8 -10.3)"/>
	<path d="M2216.2,794.3c3.1.6,8.2-3.3,9.3.3C2224.3,796.7,2218.5,796.5,2216.2,794.3Z" transform="translate(1.8 -10.3)"/>
	<path d="M543,1206.7c8.1.4,10.3,6.9,1.1,4-5.4-1.8,1.3-9.1-4.5-12.3-1.6-4.8,6.8-9.4,6.1-1.1-3.7,5.4,4,2.1,3.9,6.3S545.2,1204.6,543,1206.7Z" transform="translate(1.8 -10.3)"/>
	<path d="M524.9,1347c-4.8.4-2.3-6.6.9-7.1S529.6,1347.7,524.9,1347Z" transform="translate(1.8 -10.3)"/>
	<path d="M553,1218.5c1.5,5-10.2.1-8.6-3.1C547,1215,553.6,1214.8,553,1218.5Z" transform="translate(1.8 -10.3)"/>
	<path d="M558.1,1249c-3.3,2-4.8-6.7-3.1-8C558.1,1242.7,561,1250.7,558.1,1249Z" transform="translate(1.8 -10.3)"/>
	<path d="M558.1,1249c2,.4.7,4.9,4.5,3.1C572.1,1254.6,552.4,1258.5,558.1,1249Z" transform="translate(1.8 -10.3)"/>
	<path d="M555.9,1226c-.2,2.2-6.4,1.8-6.5-.5S556.2,1223.3,555.9,1226Z" transform="translate(1.8 -10.3)"/>
	<path d="M680,1597.8c-13.1-3.3-28.7,11.9-38.2,6.3C636.7,1592.9,698.7,1587,680,1597.8Z" transform="translate(1.8 -10.3)"/>
	<path d="M744.1,1557.7c7.1-10.9,16.4-14.2,24.5-8.1C760.2,1551.1,751.5,1551.8,744.1,1557.7Z" transform="translate(1.8 -10.3)"/>
	<path d="M381.1,1646.4c-1.4,2.2-2.8,6.5-5.7,3.3-13.2-9.3-47.2,2.5-49.8-15.2,5.3-5.2,13,4.4,20,3.6C357.8,1639.7,372.5,1635.9,381.1,1646.4Z" transform="translate(1.8 -10.3)"/>
	<path d="M1370,851c-3.1.5-1.2-4.1,1.1-4.5C1375.4,847.3,1374.4,852.5,1370,851Z" transform="translate(1.8 -10.3)"/>
	<path d="M394.2,1356.4c16.8,34.9,4.1,82.1,11.7,120.6C391.9,1471.7,399.3,1387.9,394.2,1356.4Z" transform="translate(1.8 -10.3)"/>
	<path d="M338.5,1203.7c16.5,18.6,46.7,20,66.8,31.8C404.5,1241.7,336.1,1224.8,338.5,1203.7Z" transform="translate(1.8 -10.3)"/>
	<path d="M818.2,966.6c50.8-6.4,135.4,80.8,147,130.2C930.1,1040.5,878.9,985.1,818.2,966.6Z" transform="translate(1.8 -10.3)"/>
	<path d="M683.5,660c3.7,6.4-10.8,7.7-7.2,3.5,25.5-23.8,62.2-44.5,58.5-83C758.9,598,701.5,662,683.5,660Z" transform="translate(1.8 -10.3)"/>
	<path d="M762.7,976.6c-11.9-7.9,11.5-50.3,6.2-73.8,8.1,1.6,14,19.4,3.1,19.2,5.5,2,2.8,2.3,2.2,6.5,3.2,17.3-6.2,35.8-9.6,50.9C759.4,981.6,757.4,980.1,762.7,976.6Z" transform="translate(1.8 -10.3)"/>
	<path d="M665,768.2c-11,2.2-93-6.9-72.5-13.5C611.5,768.2,738.3,753.9,665,768.2Z" transform="translate(1.8 -10.3)"/>
	<path d="M586.3,768.5c-1.6,7.1,10.2,10.6,6.6,16.5-2.5,2.9-8.1-4.9-6.6-8.2-2.1-3.9-16.5-13.5-11-16.7,1.2-.1,2.9-.8,3.2,1.3C578.7,766.7,586.5,764.3,586.3,768.5Z" transform="translate(1.8 -10.3)"/>
	<path d="M867.3,1183.3c.9-5.5-9.2-23.5-1.1-26.3C880,1167.4,879,1239.2,867.3,1183.3Z" transform="translate(1.8 -10.3)"/>
	<path d="M887.8,1121.2c-9.5-22.4-21.2-43.3-40.7-58.7C863.1,1064.4,890.8,1103.7,887.8,1121.2Z" transform="translate(1.8 -10.3)"/>
	<path d="M642.3,927.1c-2.5,13.2-7.7-5.3-11.3-8.8-3.3-6.5-16.9-5.1-16-13.2C626.2,900.5,639.5,916.1,642.3,927.1Z" transform="translate(1.8 -10.3)"/>
	<path d="M2032.4,394.6c8.5-4.2,22.5,13.4,11.9,16.5-5.9-.1-5.1-12.8-12.8-10.8C2027.2,401,2027.2,391.2,2032.4,394.6Z" transform="translate(1.8 -10.3)"/>
	<path d="M1302.4,1242.5c-6.7,1.2-2.2-5.4-4.3-7.3-6.6-3-3.6-10.8-12.7-11.4,6.4-2.7,6.5-3,8.8,3.8C1296.2,1232.3,1305.4,1236.7,1302.4,1242.5Z" transform="translate(1.8 -10.3)"/>
	<path d="M1296,1253.7c-1.4,5.9-11.2-4.3-4.1-3.4C1293.3,1251.3,1296.1,1250.9,1296,1253.7Z" transform="translate(1.8 -10.3)"/>
	<path d="M1458.6,720.4c-.6-2.2,1.7-5.7-2.6-4.5-1.4,0-.4-6.6,1.3-6.8,8.9-3.1,18-2.7,24.2,1.6,4.5-3.2,4.2,5,.3,5.2C1472.3,717.6,1464.5,708.8,1458.6,720.4Z" transform="translate(1.8 -10.3)"/>
	<path d="M1283.9,964.4c6.1,5.3,14.6-3.2,17.5,6.9,3.8-1.8,15.4-1.8,14.6,3.7C1308.7,979.1,1287,973.7,1283.9,964.4Z" transform="translate(1.8 -10.3)"/>
	<path d="M1321.3,971.6c3.9,2.9,14.6.3,14,5.3-1.7,6.5-8.8-.8-13.6,1.2S1317.1,970.7,1321.3,971.6Z" transform="translate(1.8 -10.3)"/>
	<path d="M1493.4,483.7c-2.4-8.6,3.6-22.9,10-24.2C1498.3,466.8,1498.5,476.2,1493.4,483.7Z" transform="translate(1.8 -10.3)"/>
	<path d="M1489.3,484.2c.1,4.7-6.9,10-7.2,3.7C1482.1,484.9,1488.9,479.8,1489.3,484.2Z" transform="translate(1.8 -10.3)"/>
	<path d="M1538.4,346.3c-1-3.9,3.3-8.8,4.5-4.3C1543.1,344.9,1540.2,344.5,1538.4,346.3Z" transform="translate(1.8 -10.3)"/>
	<path d="M2058.6,1452.7c-8.2,10.3-15.2-.1-23.5,4.7-4.8,4.6-14.1,9-20.6,5.5-9.8-7.9-20.4,10.9-32.7,2.3-31.7-19.7,56.1-39.7,7.8-19.1-24.4,19.5,22.4,18.6,20.5-1.3,8.6-23.9,18.7-9.6,5.8,11.8,6,5.6,22.9.3,24.3-8.6-2.8-8.4,19.9-20.4,11-9.1-7.2,3.5-7.8,20.7,1.7,11.4,4.7-4,7.3-28.9,12.8-13.4-3.1,23.7-1.8,51.5-24.6,66.4-5.4,5.2-21.8,4.1-18.2-5.7C2045,1510.4,2057.3,1471.9,2058.6,1452.7Z" transform="translate(1.8 -10.3)"/>
	<path d="M1815.8,1370.9c-2.7,48.1-15.5-55.6,2.1-56.4,5.3,9.3-8.7,36,1.5,41.6,21.2.7,21.4-11.5,22.6-29.4,13.8-23.4.8,18.6,5.8,23.2,4.8,2,2.6,4.2,0,6.1-7.7,6.8-.4,21.9-7.3,28.4-9.1-3.9,4.6-26.5-8.1-23.7C1823.3,1361.9,1813.9,1358.6,1815.8,1370.9Z" transform="translate(1.8 -10.3)"/>
	<path d="M1843.4,1458.3c-35.1,27.1-27.5-22,1.3-20.4,4.2,3.2-18.5,9.6-19,19.7.7,6.2,13.4-3,14.3-7.5s5.9-8.7,8-2.7c21,52.2-28.4,65.1-23.2,40.7C1846.6,1502.2,1847.2,1475.9,1843.4,1458.3Z" transform="translate(1.8 -10.3)"/>
	<path d="M2080.8,1361.5c-15.3,38.7-32.6,3.5-23.3-16.3,8.6,1.7,1,29.8,9.6,26.3,6.3-5.8,6.1-19.9,15-21.4,12,32.2,17.8,12.7,33.2-5.8C2131.6,1343.4,2085.4,1400.3,2080.8,1361.5Z" transform="translate(1.8 -10.3)"/>
	<path d="M2077.8,1455.7c1.3-19.4,18-18,26.6-26.2.3-1.9,2.7-3.1,4.8-2.3,9,9.4-11.5,27.3,5.6,33.7-2.1,3.9-9.5,1.9-11.4-1.9C2098.9,1454.1,2077,1477.8,2077.8,1455.7Zm23.2-14.5c-2.1-13.1-20.7,9.1-17.4,15.9C2088.8,1465.8,2101.9,1448.1,2101,1441.2Z" transform="translate(1.8 -10.3)"/>
	<path d="M1884.4,1376c-4.9,7.4-31.3-7.3-23.2-11.8,1.3-15.6,26.1-35.2,21.4-7.9C1873,1365.9,1869.6,1370.3,1884.4,1376Zm-13.5-17.7c-1.8,6.9,9.3-5.8,6.5-8.3C1873.9,1349.2,1870.2,1354.7,1870.9,1358.3Z" transform="translate(1.8 -10.3)"/>
	<path d="M2133.8,1353.8c-4.6,18,8.6,10,14.8,17.6-10,9.4-27-5.2-20.8-17.2C2141.7,1308.8,2157.5,1358.2,2133.8,1353.8Z" transform="translate(1.8 -10.3)"/>
	<path d="M1869.5,1466c-15-5-6.9-27.7,8.4-26S1880.5,1465.8,1869.5,1466Zm6.3-20c-7.6-2.4-12.1,16.8-3.4,12.9C1875.3,1456.9,1881,1446.6,1875.8,1446Z" transform="translate(1.8 -10.3)"/>
	<path d="M2201.1,1471.9c-16.7,4-7.6-26.4-18.6-23.2-6.4,2.6-4.7,15.4-11.9,14.1-4.8-6,5.7-16,10.9-19.9C2198,1437.2,2191.8,1463.9,2201.1,1471.9Z" transform="translate(1.8 -10.3)"/>
	<path d="M2140.3,1458.8c3.4-9.6-.6-53.8,11.4-46.3,0,3.2,7.3,10.8.9,11S2150.2,1472.8,2140.3,1458.8Z" transform="translate(1.8 -10.3)"/>
	<path d="M1953.5,1379.3c-35.7,3.5-7.6-52.7-3.1-25.2C1922.1,1370.4,1964.3,1373.3,1953.5,1379.3Z" transform="translate(1.8 -10.3)"/>
	<path d="M1928.3,1352.1c-4.2,6.5-9.6,3.1-13.8,2.3-10.1-.4-1.7,18.1-9.2,20.5-6.4-3.8,0-16.2-.2-22.8C1907.2,1339.5,1920.3,1354.1,1928.3,1352.1Z" transform="translate(1.8 -10.3)"/>
	<path d="M2235.2,1472.4c.7,5.7-6.3,3.9-5.4-.5C2229,1467.3,2236,1469,2235.2,1472.4Z" transform="translate(1.8 -10.3)"/>
	<path d="M2280,1474c.7,5.2-5.7,2.8-4.8-1.2S2281.3,1470,2280,1474Z" transform="translate(1.8 -10.3)"/>
	<path d="M2262.9,1472.9c-2.7-.7-4.6-6.1-.5-5.9S2266,1472.3,2262.9,1472.9Z" transform="translate(1.8 -10.3)"/>
	<path d="M1593.6,70.6c-6.5,34.9-36.7-19-9.2,5,5.3-2.9.2-15.5,6.5-17.5,5.5,1.3,1.2,6.8,2.8,10.3,3.2-5.9,4.8-12.5,10.4-16.9,17.5-2-6.1,15.8-3.4,20.5s8.3,4.2,12.2,2.7C1622.7,84,1593.6,84,1593.6,70.6Z" transform="translate(1.8 -10.3)"/>
	<path d="M1694.5,73c7.6.1,15-4.1,13.9-9.9-1.8-1.1-3.1-2.4-1-4.1,23.2-5.3-6.7,30.4-20.6,18.2-14-5.6,4.5-41.7,15.4-39.4C1698.4,45.2,1675.4,72,1694.5,73Z" transform="translate(1.8 -10.3)"/>
	<path d="M1545,122.5c-8,28.7-36.1-7.5-31.1-23.2,8.5-1,6.9,15.4,11.2,21.1C1527.7,127.1,1546.2,105.1,1545,122.5Z" transform="translate(1.8 -10.3)"/>
	<path d="M1719.7,97c19.2,4.5,3.8,12-1.2,18.4,3.1,5.4,12.1-4,15,.3.9,2-2.4,4.2-4.8,5.3C1710.7,130.1,1700.4,100,1719.7,97Zm4,7.4c-2.5-7.1-12.4,3.1-7.1,4.5C1719,107.4,1722.1,106.9,1723.7,104.4Z" transform="translate(1.8 -10.3)"/>
	<path d="M1570.9,112.9c-1,4.3,6.5,14.7-2.2,11.3-1.9-2.2-3.1-1.3-4.9.4C1539.6,134.3,1567.8,83.2,1570.9,112.9Z" transform="translate(1.8 -10.3)"/>
	<path d="M1760.8,73.4c-5.5-4,1-14.1-7.3-15.1-8.4-3.2,8.2-.4,4.4-11.2-.3-2.3-2.7-7,1-7.7,7.7,1.7-.2,15.7,7.8,17.9,1.3.7,2.8,2.4.1,3C1759.2,61.8,1766.1,69.9,1760.8,73.4Z" transform="translate(1.8 -10.3)"/>
	<path d="M1743.8,70.5c-6.8,10.1-15.8-3.5-19.3-8.6,2.2-6.4,16.9-19,12.5-4.3C1728.6,63,1736.1,71.3,1743.8,70.5Z" transform="translate(1.8 -10.3)"/>
	<path d="M1755.1,113.4c-3.7-16.8,25.6-24.5,8.4-7.3-7,5.2.6,8.2,2.2,12.5C1762.6,123.7,1754.6,118.7,1755.1,113.4Z" transform="translate(1.8 -10.3)"/>
	<path d="M1585.5,107.2c0,9.2-6.7,17.5,6.1,16.6C1579.6,139.9,1570.8,114.3,1585.5,107.2Z" transform="translate(1.8 -10.3)"/>
	<path d="M1739.9,121c-4.8-2.6-2.3-29.7,6.7-24.9C1743.1,103.1,1746.3,115,1739.9,121Z" transform="translate(1.8 -10.3)"/>
	<path d="M1791.1,99c-3.1-5.3,1.1-23.7,6.4-27.6C1799.6,78.4,1796.2,92.6,1791.1,99Z" transform="translate(1.8 -10.3)"/>
	<path d="M1646.1,43.5c-1.7,4.7-2.7,16.6-8.2,16.5C1634.3,57,1644.3,29.1,1646.1,43.5Z" transform="translate(1.8 -10.3)"/>
	<path d="M1783.1,118.1c1.2,4-5.8,5.7-5.1,1.4S1783.6,113,1783.1,118.1Z" transform="translate(1.8 -10.3)"/>
	<path d="M2072.4,131.7c-3,16.8-25.3,14.2-38.6,17.1-24.4.8-11.5-42.8,6.9-34.2,5,9.4-5.7,19.5-13.5,23.1,29.4,17.5,24.9-14.9,38.2-15.8,6.2-.7.3-19.4,10.6-7.7,3.8,18.1,19.4,42.5-10.4,43.7C2044.8,149.6,2090.8,156.7,2072.4,131.7ZM2035.5,119c-3.4-.2-11.3,12.7-3.3,9.8C2034.3,126.6,2039.9,120.5,2035.5,119Zm32.3,4.3c-5.4,2.2-6.2,8.2-5.7,12.3C2066.4,135.7,2067.4,127.3,2067.8,123.3Z" transform="translate(1.8 -10.3)"/>
	<path d="M1877.9,158c-2.1,7-.5,22.2-8,23.5-6.6-2.5,4.6-72.3,15-46.7,1.4,35.9,16.4-56.5,31.5,28.6-11.2,1.3-9.9-18-16.4-24.6C1897.6,147.4,1888,169.7,1877.9,158Z" transform="translate(1.8 -10.3)"/>
	<path d="M2011.9,145.7c-11.5,14.3-10.4-49.4-2.6-49.2C2016.6,106.6,2007.8,131.6,2011.9,145.7Z" transform="translate(1.8 -10.3)"/>
	<path d="M1925.3,141.3c6.2,6.7,3.4-4.9,8.2-.2,3.3,7.8,9-1.9,13.6,3.7-1,9.8-7.8,18.6-10.6,28.9C1925,173.4,1949.8,153.8,1925.3,141.3Z" transform="translate(1.8 -10.3)"/>
	<path d="M2114.2,98c2.2-8.7-2.1-34.3,5.7-34.5C2123.4,67.6,2120.1,114.5,2114.2,98Z" transform="translate(1.8 -10.3)"/>
	<path d="M2106.2,130.1c-2-4.8,6.1-7.7,5.7-2.9S2105.2,135.8,2106.2,130.1Z" transform="translate(1.8 -10.3)"/>
</svg>
