<svg id="invisi-bell_Image" data-name="invisi-bell Image" xmlns="http://www.w3.org/2000/svg" viewBox="0 0 721.7 786.2">
    <style type="text/css">
        path { fill: black; }
        @media screen and (prefers-color-scheme: dark) {
        path { fill: white; }
        }
    </style>
    <path d="M274.2,538.3c-4.4-12.9-10.6-25.4-13.1-38.9-3.9-7.1-14.1-.4-12.1,8.4,3.3,31.4,20.4,62.1,24,91.5,3.8,12.7.2,27.3,1.2,40.7,32.9,15.4,19.6-25.8,19.7-49.6,17.8,18,7.6,75.2-9.9,100.5-17.8,33.1-67.2,39.8-71.3,80.7,1.6,19,8.9-5.4,16.6-3.9.5,8.2-7.9,16.5-15,20.2-13.9,22.6-20.5-50.7-19.4-60.1,18.6-18.2,43.1-30.5,47.4-61.3,5.7-4.6-1,3.1,1.5,3.6,7.3-4,9.8-17.5,16.3-24,19.5-46.6-8.2-100-23.1-148.3-14.9-44.3-2.2-109.1-34.5-141.9-25.1-14,12.9-65.8-5.2-89.2-31-27.7,22.2-72.3-35.9-59.8-11.4,4.8-60.9-16.8-37.2-12.5,50.9,23,22.1-2.1,42.2-6.2,8.9-.8,16.1,2.7,2.7,2.7-3.2.3-7.1-.6-7,4.7,3.5,11.7,25.4,3.3,35.4,6.3-1.6-3.2-3.2-6.4-2-10.3-1.2-5.6-9.1,1.2-13.9-2.5,59.4-15.2-76.6-1.4-66-5.5,148.1-11.1,53.4-24.1-12.4-8.1-.2,212.5-20,428.7,16.2,638.8-9.8,26.6-5.5-35.5-17.1-29.9-5.4,2.1-.1,11.7-7.3,10.4-2.7-.2-.8,2.4-1.2,3.5s-2-3.2-3.8-1.9c-1.9,4.9,4.7,10.1,6.4,14.7-10.8-3.4.2,7.9-1.8,10.9-3.9,6.5-4.8-7-9.9,5.2-16,20.4-21.4-20.6-21.2-32.4C59,553.9,42.8,273,60.9,52.8c0-8.3,14.9-3.5,8,2.2,13-2.6,33.1-5.5,41.2,6-10.4-1.9-40-12.4-39.6,7-2.1,4.8,7.5,5.1,3.2,12.2-5.7,11.2,8.8,7.9,2.9,21.5,3.6,2.7,8.9-6.3,7.6,2.8,5.4-5.4-1.2-6.2-2.7-8.2,1.1-4.7,23.6-3.7,19.5,1.2-.5.7-1.4,1.8-.8,2.2,5.5,2.8,0,7.5,1.9,10.9,4.4,9.4,3.8,18.6,2.5,28.4,16.1,18,60.9,5,85.8,6.2,12.4-2.5-5.9-1.9-5.9-7,15.8,3.8,32.9,4.5,49.6-1.1,14.9-3.5,137.5-16.1,113.2,3.8-4.9-1.3-21.7,1.3-10.2,5.5,2.3.3,4.8-1.2,8.5,1.4-6.8.9-14-.1-12.1,9.8,1.1,5.6,4.3,5.6,9.3,5.5-3.2,3.9-12-.6-9.7,7.9.8-12.9-91.7-1.1-58.9,10.1,24.2,5.3,31.5,23.5,44.1,40.1-9.2,3.1-2.7,7.4,4.1,8.3,35.9,1,45.7,44.4,39.7,70.7-7.9-27.2-6.9,6.6-17.7,19-24,32-70.1,52.5-109.5,53.2-14.2-4.5,4.3,42.9,9.4,31.6.9-6.2-5.5-17.3-.5-20.9,6.1,6.2-2,32.8,13.5,29.3,1.1-.5,2.4-2.3,3.3-.4,2.2,9.1-13.7,1.2-9.4,12,2.5,9.9.3,16.6,11.2,15.7-.7,5-9.5,5.3-4.8,12.2,7.3,8.2-.6,37,12.6,33.5C260.5,497.8,278.2,520.3,274.2,538.3ZM82.9,557.5c.7-2.5,2.6-9.1-1.7-9.2-3.9,4.2,3.9,10.5-4.3,14.2C81.5,567.8,85,563.7,82.9,557.5ZM80,128.5c5.2,10-10.1,12.4-4.9,15s4-3.9,8.3-1.5c.1-4.7,2.3-11.3-3.4-13.5,3.7-1.9,5.4-9.3,2.2-10.4s-5.5-2.3-2-5.7c-1.5-8.8-11.7,5.2-.6,8.2,3.6,7-3.9,1.7-5.8,4.1C76,125.8,77.4,128.1,80,128.5ZM265,662.6c-24.7,10.5-11.1,40,0-.1C290.6,641.9,261.2,636.2,265,662.6ZM94.8,203.7c8.7-9.5-10.3-4.4-3.6.8-1.8,3.3,6.5,5.3,1.1,9a12.9,12.9,0,0,1,1.6.9c2.8,2.7-5.2,3.7.6,6,.5,8.9-7.7,2.9-11,5.3s.1,5.4,2.4,3,8,10,6.6,12.9c-6.2-2.1.2,2.1-4.4,5.2-4.4,7.3,9.7,6.4,8.7-1.2C93.9,231.2,99.4,216.9,94.8,203.7ZM262,256.5C117.6,388.3,315.8,385.2,349.8,276c-6.2-27.6-3.7,40.1-47.7,23.1C285.2,294,291.9,273.7,272,271c-8.4-4.4-8.5-4.6-15.7,1.6-4.9,5.2-10.5-1.2-3.5-3.6s13-23,23-17.1c4.2,7.6,14.6-5.3,21.7-4.7,4.6-1.6,14.2-.7,5.3-4.4,13.5-1.4,37.7.2,38.7,14.8C367.8,279.5,328.8,200.3,262,256.5Zm-46.6,26.1c28.9-6.6,35.3-38.8,63.6-46.1,38.1-8.8,30.4-12.8,5.9-36.5a42.9,42.9,0,0,0-24.4-14.1c17.3-7.6-24.5-7.3-33.9-5.2-2.5.7-2.2,2.6-2.2,4.4,0,3.8,3.9-.6,4.7,2.1-7.7,4-7.1,15.3-16.2,18.1-16.7,6.8-14.8,36.2-8.9,49.4C209.4,262.9,221.1,273,215.4,282.6ZM74.4,411.1c6.8,1.7,2.8,6.7,4.4,9.8s-2.9.6-3.3,2.9c5,3.9,7.3,8.4,11.7,11.5,4.3-1.3-9.4,16-.3,9.6,2.7-2.3,4-1,4.1,1.9s.3,6.3-4.3,6.6c18.3-49.2,2.2-126.8,9.5-185.2,2.6-4.5-8.1-6.9-8-3,3.7,7.5-4.3,19.8,5,20.2-8.7,3.8-6.2.7-8,9.3.8,7.4,11.8,12.2-3.7,15.3,4.4,6.7,2.8,13,2.5,20.6-.6,2.5-8.6,1.2-6.8,5.9,26,5.1-20.2,14.6,5.1,22.4,3-2.7,5.7,3.5.8,4.2s-6.5,2.9-.3,3.9c-5.8,2-2.3,10-7,2.1-3.9,8.6,9.9,17.9,5.8,20.6s-4.2,15.8-.3,17.5c7.1-1.4,1.7,6,2,9.4C82,412.6,79.6,410.6,74.4,411.1Zm198.7-256c29.6,18.3-79.8,8.9-54.3,21.2,36.1,2.3,68.8-17.8,105.1-14.1,7.1.1,7-.1,6.4-7.4C319.7,143.7,290.9,154,273.1,155.1Zm-52,557.5c-23.1,6.2-24.9,38.6-12.8,31.8,3.1,1.4-1.4,3.9.5,6.3,11.7-21.6,38.2-44.4,40.9-66.9-12.9,9.9-17.6,33.3-29.7,46.4C204.8,735.1,215.4,717.2,221.1,712.6Zm-142-241c1.3,6.1,8.6,9.6,4.4,16.4-5.1,2.4,0,7,3.2,2.7,1.2-2.3,3.8-1,3.8,1.2-7.2,5.3-6.3.3-7.8,10.5-11.1,7.5,6.1,4.1,6.4,6.8,7.4,15.5,2.8-43.9,3.4-54.4,2.6,7.8-11.4,5.5-6.6,10.7s-6.6,4.2-1,8.7C81.5,476.1,82.6,471.5,79.1,471.6ZM330.3,323c-28,18.9-69.9,39.4-104.2,36.8C255.5,376.4,304.8,342,330.3,323ZM232.4,724.8c10.1-4.4,48.9-26.1,25.7-33.6C247.4,694.9,241.2,715.5,232.4,724.8ZM334.8,275.3c-5.6,9.5-29.2,13.6-32.4,1.9.1-1.2-2.7-1.5-4.4-1.2C286.3,299.5,331.7,300.9,334.8,275.3Zm-12.4-10.9c-5.9-.1-19.7,3.5-20,8.6C313.2,293.7,350.2,267.3,322.4,264.4Zm13.9-4.3c-6.8-27.7-81.2,6.1-40.3,4.7C304.6,249.9,322.5,254.2,336.3,260.1ZM285.8,646.9c-9.1-1.5-13.7,18-7.6,23.2C287.6,673.1,302.2,640.6,285.8,646.9Zm-10.5,32.2c2.2-1,2.5,3.5,3.7.8,8.1-6.8-8.6-9.7-12.4-8.2C248.1,689.5,278.6,704.7,275.3,679.1ZM247.1,441.5c4.3-5.7-1.3-22.7-3.9-30-5-6.8-11.8-5.2-7,3.4C237.2,423.9,236,440.6,247.1,441.5Zm.8,28.7c-8,.7-1.1,37.4,10.7,21.3C256.9,485.9,256.9,468.6,247.9,470.2Zm-2.7-26.5c-9-.1-1.7,15.8-2.1,21.5C255.6,479.5,255.6,444,245.2,443.7Zm64.3-295.5c5.7-2,18.1,2.7,20.3-3.9C325.2,131.7,276.3,147.8,309.5,148.2ZM227.9,393.1c.6-12.7-1.7-20.7-6.1-22.9C220.4,378.9,224.2,386,227.9,393.1Zm45.9-133.3c-15.2,1.5,26.2,20.4,14.6,10.1C282.5,268.1,279.4,261.2,273.8,259.8ZM114.1,159.2c13.6-2.4,27.6,1.7,40.9-3.6C141.3,155.9,127.6,155.8,114.1,159.2Zm103.2-.9c-10.6.4-21.3-.6-31.6,2.6C196.3,161.1,207,161.9,217.3,158.3Zm-8.4,30.1c-.3-8-11.1,2.3-8.6,6.7C202.7,203.1,208.7,192.2,208.9,188.4Zm24.5,240.5c1.1-8.8-3.1-28.5-7.3-31.9C229,408,229.8,418.6,233.4,428.9Zm50.9-235.1c5.2,3.8,7.8,9.4,13.6,11.9C297.4,198.4,293.4,194.8,284.3,193.8Zm-87.1,34.7c-2.8,5.3-4.2,10.8-1.1,16.5C196.5,239.5,196.8,234,197.2,228.5ZM87.5,537.1c-4.5,6.8.5,9.6,5.9,9.2C93.7,542.6,87.8,542,87.5,537.1ZM240,164.2c7.1.2,13.3-.3,19.2-2.3C253.1,162.5,246.7,160.8,240,164.2Zm-18.4,198c0-5.4-2-7-8.3-7.3C215.9,357.5,218.1,360.2,221.6,362.2ZM89.8,637.5c-7.9.9,2.2,8.8,3.5,4.9C92.4,640.6,92.4,638.1,89.8,637.5ZM219.7,290.4c2.9-2.8,5.4-4.7,6.7-8.1C220.9,283.6,220.2,284.4,219.7,290.4ZM94.8,189.5c2.6-3.9,4.4-7.4,1.4-11.4C97.8,182,93.3,185.1,94.8,189.5Zm-2.5-54.2c1.6,3.6,3.4,6.4,1.8,9.5C98.7,147.7,96.5,137.1,92.3,135.3Zm-.9,121.8c.5,3,5.1,6.4,4.8,1.3C95.6,254.9,92.9,258,91.4,257.1Zm6,482.1c-2.2,2.5-.2,7.8,2.9,4.5C101.5,741,97.6,741.3,97.4,739.2Zm-9.3-148c3-.2,4.8,2,6.4-.4C95,586.5,90.6,588.4,88.1,591.2ZM192.7,177.8c-3.9-2-7.2-.2-10.5.2C185.5,177.9,188.9,179.7,192.7,177.8Z" transform="translate(-52.5 -48.3)"/>
    <path d="M591.3,169.8c-35.8,5.8,15.8,5.6,30,4,24.6,2.6,50.4,10.4,75,14.5,12.8,5.4,43-49.4,56.6-45.9,10,11.3-37.4,41.3-47.8,50.9,33.6,10.1,94.2,52.4,58,88.8-72.8,57.7-182.4,53.2-263.7,67.1.9,39.3-110.2,102.9-49.2,55.3,12.6-7.1,58.6-57.9,33.6-53,3.5-6,12.6-7.1,12.9-13.3-16.4-7.7-39.7-8-57.5-16.4C338.1,231.8,514.6,164.5,591.3,169.8ZM423.9,251.5c6.3-16.2.4-9.6-5.6,1.7-5.1,19,7.6,36.8,18.7,50.9,53.3,38.6,135.7,32.8,194.7,9.9-7.5-11.5-11.3-.2-20.7-5.7-5-.1-8.6,9.5-14,11.9-10.4,8.8-18.2-4.3-19.3-14.1-7.3,8-19.1,7.8-29.1,8.7-37.9-.3-11.7-47.9,11.3-49.5-24.4,16.2-37.6,55.5,8,38.9,7.9-5.7-9.2-5.5-7.3-11.4,7.1-7.2,19.5,11.1,18.6-3.9,3.9-7.6,4.5,6.7,3.7,9.5,3.2,44.2,21-7,37.1-10.1,8.4-.4-4.5,7.4-4.4,11.1-3.1,4.5,1.6,8.1,5.6,4.2,9.6-4.7,4.8-24.9,16.3-24.7,9.4,2.4-21,43.6,17.4,27.6,5.5-15.1,21.3-24.8,27.2-39,5.3-49.4,29.4-18.3,17.2,13.7,21.4-10.3,49.4-39.4,35-62.1-30.1-28.3-45.5-25.2-67.4,8.1-20.8,17.3,15.2-26.9,18.4-32.9-16.4-3.8-69.7-28.5-59.4,5.1,5.2,15.5-11,36.4-1.6,47.6,4.3.2,3,4.7-.8,4-6.6.4-10.7-6.4-17.4-3.9-11.8,1.3-14-13.1-10.8-21.3-8.9-20.4-5.3,13.6-11.7,14.3-5.4-4.4-1.8-30.1,8.8-24.4,4.3,3.7,8.2,3.3,12.7,1.7,4.6.4,6.8-.5,6.9-5.5,9.6-34.7-4.8-32-35.8-31.7C520.3,181.2,448,201.2,423.9,251.5ZM606.5,328c43.1-6.1,199.8-29.7,144.6-96.8-9.4-4.8-2,17.6-9.6,21.6-5.8,8.1-13,15-17.5,24-2.2,1.1-4.7,4-6.5-.6-7.6.6-19.6,9.3-25.1,17.1s-16.5,17.7-29.2,14.9C643.9,312.6,626.3,320.6,606.5,328Zm-39.7,9.5c-20.5,1-46.8-4.7-64.3,1.8C520.4,345.1,548.2,343.7,566.8,337.5Zm44.8-106.8c3.6-23.9-19.4-6.6-11.9,7.9C605.7,248.9,614.5,240,611.6,230.7Zm67.9,54.4c-.2-10.4-13.7,7.5-14.6,12.1C666.2,305.5,681,291.8,679.5,285.1Zm14.2-32.9c-3.6,11.5-5.2,23.3-6.3,35.3C694.9,276.7,695.3,264.7,693.7,252.2ZM424.1,302.6c4.5,11.4,11.6,16.7,20.2,17.3C434.7,317.4,429.8,309.5,424.1,302.6Zm244.9.3c2.7,4,7.8-3.1,10.6-4.3C677.5,295.8,672.1,302.1,669,302.9Zm-183.4-110c3.7-1,7.7-.9,11-3.8C492.1,188.6,488.7,190.3,485.6,192.9Z" transform="translate(-52.5 -48.3)"/>
    <path d="M367.4,203.6c11.7-11,64-100.1,67.7-79.4C408.3,145.8,395.5,186.3,367.4,203.6Z" transform="translate(-52.5 -48.3)"/>
    <path d="M99,74.3c-2.6-9.4-10.8-1.7-4.1,3.6,3.5,2.4,1.4,3.5-1.2,4.4,1.3,3.8,5.4,0,6.7,2.9s-3,1.4-4.8,1.1c.2,4.8-3.9,5.4-8.3,6.5-14.6,2.3,1.4-13.6-2.2-22.7C87.1,61.3,104.2,63.4,99,74.3Z" transform="translate(-52.5 -48.3)"/>
    <path d="M147.4,268.1c-42.2,14,40.2,8.9,26.9,18.9C155.3,287.2,90.5,270,147.4,268.1Z" transform="translate(-52.5 -48.3)"/>
    <path d="M274.2,538.3c7.2,14.1,15.2,47.2,12.8,62.6C277.7,586.7,275.6,557.2,274.2,538.3Z" transform="translate(-52.5 -48.3)"/>
    <path d="M114.9,400.3c5.5-15.1,39.7-30.7,54.2-46.3C180.7,355.8,124.4,394.3,114.9,400.3Z" transform="translate(-52.5 -48.3)"/>
    <path d="M418.2,380.1c1.1-9.6,6.3-45.1,19.6-30.6,3.1,6.3-4.4.7-5.8,4.6C426.1,359.5,423.6,397.6,418.2,380.1Z" transform="translate(-52.5 -48.3)"/>
    <path d="M235.2,116.4c23.7-3.8,52.6-12.1,74.6-13C286.5,110.9,261,117.2,235.2,116.4Z" transform="translate(-52.5 -48.3)"/>
    <path d="M465.2,158.2c-14.9,8.5-29,23.6-43.8,29.9C431,177.4,450.9,158.2,465.2,158.2Z" transform="translate(-52.5 -48.3)"/>
    <path d="M276,607.5c3.3-15.9,9.3,25.7,4,31C275,630,279.8,617.1,276,607.5Z" transform="translate(-52.5 -48.3)"/>
    <path d="M441.1,435c7.2,9.1,26.9,7.2,29,19.3C461.6,448.5,445.2,446.3,441.1,435Z" transform="translate(-52.5 -48.3)"/>
    <path d="M205.2,117.9c8,.2,19-5.2,25.6-1.9C224.9,117.1,210,121.9,205.2,117.9Z" transform="translate(-52.5 -48.3)"/>
    <path d="M250.9,654.6c-2.3-1.2-.2-10.8,2.7-9.6C255.2,648,252.8,651.9,250.9,654.6Z" transform="translate(-52.5 -48.3)"/>
    <path d="M102.3,784.4c2.1-1.3,7.6,1.1,4.4,2.9C103.2,791.5,99.5,788.8,102.3,784.4Z" transform="translate(-52.5 -48.3)"/>
    <path d="M90.5,834.3c1.4-2.4.6-5.7,4-5.4C98.9,831.7,94.5,835.4,90.5,834.3Z" transform="translate(-52.5 -48.3)"/>
    <path d="M356,166.1c-3.6-.8-7.6,1.7-11.4-1.9C349.1,163.1,352.5,165,356,166.1Z" transform="translate(-52.5 -48.3)"/>
    <path d="M299.7,244.1c-6.7,1.1-14.7,6.8-20.8,5.3C281.9,246.1,296.4,240.6,299.7,244.1Z" transform="translate(-52.5 -48.3)"/>
    <path d="M516.7,253.7c-12.4,2.2-16.5,21.5-36.5,11.7-47.6-10.7,37.9-90.7,3.8-45.9-43.4,53.7,42.3,46.7,13.1,24.8-10.1-7.8,4.5-6.4,9.5-3.2s.6-6.4,5.4-6.9C515.9,237.3,515.5,248.7,516.7,253.7Z" transform="translate(-52.5 -48.3)"/>
    <path d="M517.2,253.4c22.1,18.9,11.3-25.2,23.3-25.5,6.7,1.6,9.5-10.7,13.5,2-7.5-2.6-5.3,3.1-5.5,6.3-2.7,9.4,8.9,10.2,7.2,0-2.8-7.4,6.7-22.7,10.7-9.7.3,5.8-5.6,14.7,3.3,15.8,13.6,1.1,1.5,8.2-5.1,4.2-9.3.3-25.2,8.9-21.5-9.6-2.3,6.8-11.5,39.5-26.8,21.5C515.1,256.3,515.4,254.6,517.2,253.4Z" transform="translate(-52.5 -48.3)"/>
    <path d="M665.6,269.4c6.1-1.3,11.4,8.3,2.6,5-13.2-3.3-14.9,17.3-18.8,24.1C637.7,298.1,654.8,267.2,665.6,269.4Z" transform="translate(-52.5 -48.3)"/>
    <path d="M641.4,252.4c-6.7-1,4.5-14.6,7.2-10C649.4,244.3,643.8,252.2,641.4,252.4Z" transform="translate(-52.5 -48.3)"/>
    <path d="M423.9,251.5c2.5,1.9,2.1,7.9-1.1,7.6C421,256.7,423.3,253.7,423.9,251.5Z" transform="translate(-52.5 -48.3)"/>
    <path d="M716.3,287.3c-2,4.7-4.7,13-10.1,12.8C703.1,295,711.2,288.8,716.3,287.3Z" transform="translate(-52.5 -48.3)"/>
</svg>