<svg id="lamikel-waits_Image" data-name="lamikel-waits Image" xmlns="http://www.w3.org/2000/svg" viewBox="0 0 1940.6 1202.4">
    <style type="text/css">
        path { fill: black; }
        @media screen and (prefers-color-scheme: dark) {
        path { fill: white; }
        }
    </style>
    <path d="M799.4,695.7c20-38,78.2-29.4,104.1-60.8-32.6-9.1-74,19-107.7,29.2,27.7-17.2,94.8-52.9,135.4-27.7,7.5-2.2,19.2,6.7,12.4-5.7,4.9,1.1,7.7,11.9,7.9,17.5,15.4-2.4-57.5-103-21.2-54.8,17,22.8,27.7,48.2,38.5,74.4,2.8-25.4,15.1-55.2-1.8-78.6-1.6,126.8-7.3-122.1-43.4-146.1.3,29.1,15.6,61.5,12,90.2-12.9-40.5-9.4-89.1-34.9-124.4-20.6-21.4-24.7-62.3-59-38.1,3-8.5,21-7.1,23.8-15-.4-2.2-1.1-5.3,1.7-6.1,100.9,2.4,99.8,144.2,124.2,201.5,0-36.8,1.1-77.6,5.2-112.1,4.1,13.1.7,33.6-.4,48.7-1.3,39.2-10.5,144.1,32.7,60.2,8.8-22.7,38.5-42.9,37.7-66.1-30.1-50.6-60.7-104-102.2-143.4,52,31,75.4,102.3,112.7,140.8,20.4-27.8,39.3-7.7,54.6,11.4,12.3-29.9,14.1-73.5-16-94.7-12.5-4.6-28.2-31-37.4-19.2,6.9-17.4-123.4-52.9-116-41.1-7.5-4.2-80.6-22.5-76.8-8.2-19.3-18.3-45.3-6-68.1-.3-35,11.3-129.5,49.3-72.6,40.6-22.6,6.3-45.1,13.4-64.7,26.6,35.4-31.5,81.5-53.7,126.3-70.7,39.6-19.9-116.8,23.5-138,43.7-4.5,1.1,10.3,8.6,9.1,13.9-8.2,1.8-18.7-12.5-26.1-3.8C600,408.3,574,433.2,545.8,484.8c-1.8,5.9-9,11.3.5,13-10.9,0-12.4,12.8-17.6,20.9-10.5,6.3,6.6-15.5,5.9-19.9-1.8-2-8.2,1.8-5.9-2,9.9,2.3,9.9-6.9,13.8-11.6,20.4-38.1-11.4,5.6-21.6,14.3-4,2.1-21.4,3.9-8.6-.1,36.3-29.7,63.9-78.7,98.9-114.4,14.7-23.1,45.1-11.1,61.5-25.9,28.4-11.8,56.7-25.5,85.6-36.5,137.1-39.3,338,6.7,413.3,78.4-72.5-43.6-150.7-87.7-238-87.4-18.8.9-63.7-2.4-21.7,4.7,262.6,25.9,209.1,137.2,396,217.5,69,30.7,133,12,207.4.3,23.2-9.6,67.5-14.1,68.6-44.4-5.2-27.7-11.5-72.9-30-88.8-6.5,13.4-9.3,30.3-19.9,39.7-.2-15.3,27.9-39.8,12.2-54.5-4.1-9.1-26.4-13.1-22-.2-27.3-4.6-51,34.2-60.7,58.3-8.3-2.8,23.5-47,37-54,11.4-9.3,45.4-19.9,11.2-21.9-62.1-10.9-119.9,27.8-124.4,92.6-5.3,32.1-21.4-29.3-28.3-37.3-5.1,7.7-8.2,25.2-18.8,25.4-17.8-17.6,9.4-86.1-25.3-42.6-19.3-6,9-70.4,15.5-89.2-13.5-.4,8.3-5.4,8.7-14.9-.3-7.1-14.1,8.3-17.8,9.5-9.3-2,24.2-19.4,33-25.3,61.9-63.9,296.9-6.2,151.6-59.9-9.9-4.5-18.5,14.2-27.3,9.8,16.6-34.9-84.9-32.9-116.5-21.6,37.8-22.6,88.2-6.2,128.5,2.9,10.1-1.1,7-20.2,13.7-27.1,1.2-2.5,1.2-4.1-2.3-3.8-39.1-.3,7.9-18.7,22-16.6,16.9.5,2.3-4.4,6.5-14.4,2.1-3.8,2.2-6.9-.3-10.7-.6-31.4,86.1-8.8,110.7-12.5,61,6.2,82.1,71.5,108.5,111.5,90.9,15.7,61.8,24.5,68.7-67.3,6.5,142.8-6.4,41.5,72.9,136.5,24,67.8,31.1,45.3,82,86.1,25.1,21.8,53.4,144.9,29.5,149.7.9-20.4-9.1-40-23.1-54.3,16.1,35.8,2.5,69.6-16.8,101.4-13.7,10.7-10.1-38.6-19.7-47.4-3.3,14.5,4.9,33.4,2,49.6-5.8,12.6-13.1-5.8-17.3,4s-15.4,9.3-12.3-2.6c28-36-63.4-142.3-81.7-96.3,3.9,10.2,4.1,56.8-6.2,51.8,8.7-16,4.4-91.5-19.1-60.3.9,3.5-.7,9.1-4.9,8.3s-1.8-7.3-2.2-10.9c-12-5.1-31.5,9.6-43.7,16-39.5,13.7-49.2,52.2-75.8,79.6-4.4,8.1-23.9,8.9-16.6-.5,6.4,2.9,9.4-2.4,12.4-5.6,27.6-37.5,49.3-76.9,96.9-92.9,7.9-4.8,19.2-5.5,26.1-10-.1-2.3-2-2.3-3.7-2.3-7.5-.3-15.1.7-22.4-.6,6.6-3.5,15.1-.1,23.2-1.1,10-15.4-3.5-49.9-20.8-59.1-30,8.7-62.9,96.2-81.6,128.3-81.8,90.4-203.9,147-327.1,131-14.3,3.5-38.3-11.3-46.5-5a660.7,660.7,0,0,0,21.6,95.1c2.2,2.9-3.2,5.6-4.5,2.7.5-7.6-19.8-11.4-3.7-9.4-12.8-59-10-65.1-20.1-2.5-18.6,107.5-8.2,68.6,68.5,55-24.5-1.3-71.9,41-77.8,11.5-5.8,9.5-1.2,28-17.1,28.2-47.5-11-36.1.7-37.4,36.5-12.2,3.2-34.1-9-33.5-23.1-1.9-4.1,2.7-18.3-3.5-16.5-39.5,5.9-38.7,74.8-55.2,49.1-3.6-6.1-2-15.9-5.9-20.4-5.7-.8-7.8-3.2-7.5-9.4-.8-9.5-15.1-11.3-22.7-10.5-6.1,3.6-16.7,25.8-6.1,29,.7-.1,1.7.5,1.6.6-2.5,2.7.9,6-.9,8.5-21.9,8.5-30.4-31.2-36.5-42.2-23.7,3.7-17.9,27.3-16.1,42.6-39.3,3.9-19.2-114,5.2-127.5,29-5.4,74.9-14.7,78.3-49.8-34.7,4.6-87.3,9.3-118.6-24.2-14.6,11.2-27.2,31.2-31.2,49,1.5,19.1,49.5,206.5,5.8,142.1-8.9-12,8.4,61.2-31.8,15.1,1,13.7.4,32.5-16.4,19-28.3-4.3-59,17-88.6,20.2-22.5,7.9-53.2,4.1-71.5,15.6,20.8,10.1.4-1-7.4,2.6-17.3,10.9-37.7,17.6-58.3,16.4,13.9,14.6,118.4,1.8,86.6-11.2,11.4,10.7,59.3.8,55.4,7.4-11.9.7-37.4-2.3-15.1,7.8-25.8-11.4-52.7,2-79.3,4.9-11.2,7,46.7,8.1,60.3,12.7,55.3,6,117.7,22.7,169.4,23.5,11.7,2.4,33.3,13.3,46.4-2.1,25.9-26.8,65.1-19,95.5-34.6,8.4-3,21.4-11.5,28.9-4.8-16.2,6.9-35.2,17.2-54.1,19.6-20.3-.3-66.9,9.5-68,27.3,23.6-.4,29.2,8.9,47.1-10.1,7.6,9.8-13.2,19.8-22.9,16.5-30.4-14.2-74.1,25.4-48.6.8-24.9-6.9-10.9,10.9-22.5,11-4,6.7,6.6,3.9,4.7,10-.5,2.3,2.5-1.6,3.2.7-1.5.3-1.8,1.8-2.6,2.9-2.8,5.3,4,.9,4.8,2.1s1.9,1.4.5,2.9c-5.8,4.1,6.2,8.5.2,10.8-8.3,5.4-10.8,16.9,1.1,17.1,8.8,2.3-9.4,2.1-2.2,10,2.4-.5,1.2-5.3,3.9-4.4,0,6.1,2.8,18.6-3.4,22s8,3.3,1.3,7.6c-4.8,1.9-8.1,15.5,0,9.8,0,4.3-7.1,6.8-1,10.9,8.7,5.4-5.1,11.5-.4,18,2.5,3.3.2,4.4-4.3,3.2,6.8,6.5,4.1,5.7-.4,13.2-2.9,5-8.8,9.4-13.8,8.2,3.6,6.7-4,6.9-6.3,7.6-17.6,7.9-31.4,23.5-50.7,25.2-7.3-3.7-6-23.3,3.8-17.4s47.2-17.7,52.4-28c-18.8-152.7,63-145.1-109.7-164.9-63.8-3-138.6-35.5-197.6-21.6-5.8,6.5,1.6,12.4,5.7,15.9-9.1,9.5-39.2,4.2-40.4-12.6-7.9-5.7-14.9,13.1,1.7,18,13.4,12.1-13.1,11-20.1,8.6-11.7-.3-25.9-21.2-29.3-2.3-12,18.6-23.3-16-27.5-25.6-10.9,9.3,6.6,18.8,4.4,27.6-8.7,6.8-17.1-6.4-25.5-8.9-16.3-9.2-9.5-25.9-13.1-41.1-7.3,6.9-18.9,18.1-7.7,26.3,6.5,5.6-3.3,9-7.6,5.7-4-5.6-5.7,2.1-9.3,1.2-3.5-16-15.8-41.3-28.4-52.1-32.8-2.4-66.5-17.4-98.2-6.1-14.8,10.8,29.9,20.2,12,27.9-50.8,9.8-42.5-40.5-64-44.1-18.5,9.5-19.4,22.8-15.5,40.1-20.1,6.3-32.4-63.3-29.5-37.4.6,6.4,6.5,17.1-1.6,20.7-13.5-4.8-18.3-31.2-24.5-.4,1.6,8.2-9.2,9.3-12.8,2.7-5.5-22.5-13.8,17.7-19.4,5.3a447.3,447.3,0,0,1,3-44.9c-18-17.3-4.4,44.2-8.1,57.1,4.4,87.7-22.6,76.8,70,73.5,11.4,2.6,6.4,5.6,10.6-5.2,5.2,6-4.6,18.7,5.3,19.8,4.1,3.4-9.7.6-9.9-5.5-332-19.2,537.3,106.2,574.3,116.7,26.4,7.7,62.1,5,84.3,17.1-229.5-29.7-466.5-75.4-697.9-112.7-14.5.5-30.6-10.3-43.9-4.9-3.5,3.7-3.4-2.8-5.7-4.2s4.9-5,3.9-8.5c6.6-35.8,1.1-97.8,4.2-144.7-6.5-13.2-33.7-4.1-44.6-12.7,12.9-5.7,36.5,10.8,46.8.4,11,19.1,20.2-8.7,11.2-18.2-7-2-1.9,12.2-4.1,16.4-7.3,10.7,1.8-23-5.1-28.5-.5-2.6-.8-6.5,2.6-6.8,5.2,1.8,1.1,11.7,8.4,14.4-.2-125.5-7.1-275.7-13.9-383.5,23.1-7.4,9,43.9,12.6,58.6,4.2,94-5,203,11.3,289.6,18.9-10.7,9.2-44.1,34.1-51.4,9.5-4.5,68.5-14.3,53.2-5.9,2.5,4.5,24.1-.4,14.4,6.1-6.1,1.5-17.4-6.6-19.3,1.4.7,3.6,6.9-3,7.2,2.3-15.7,9.2-42.3,16.8-58.6,28-7.6,17.9-17.4,117.1,10.6,68.8,11.6-71.4,15.6-92.1,71.8-87.5-23.4,10.6-49,4.7-52.9,39.4.6,11.1-13.2,34.8-4.5,39.4a3.3,3.3,0,0,1,4.1,2.8c6.5,12.4-11.7,34.7,9.2,32.5,10.6,2.1,14.8-10.9,23.5-14.8,16.4-20.3-10.3-90.3,32.1-72.2,11.3,1.8,21.1-2.8,29.6-7.7-3.9,13.4-28.6,12.8-40.7,10.1-10,9.9-6.1,42.6-9,60.2-.9,6.4,9.5-1.2,10.5,3.1-.2,6.8-12.6,4.4-10.3,13-1.2,5.8,7.4,2.5,7.3,7.7.4,9.8,7.8,7.9,14.6,9.2,10.2,2.6,8.8-14.2,18.7-12.4,16.1.8,20.6-18,30.3-28.1-46.7,35.5,2.8-15.2,26.5-16.5,5.7-.7,5.1,5.4.6,6.1s-14.9,5.3-5.9,6.2c20.6,6.1,41.1-9,62.7-4.6,10.4,1.4,13.9-9.1,20.6-15-14-9.2-49-4.9-63.6-25.8-14.8-15-39.7-22.2-45.6-41.4-9.6.3-21.8-6-28.4-5-.9-5.9-4.2,2.6-8.2-.5-6.9.5-41.2-.4-22.7-4.4,21.9,4.5,1.1-13,9.9-25.4,2.7-12.8-37.7-7.1-41.3,1.4,3-16.3,28.5-6.3,41.7-11.3-18.1-1.7-40.7-5.6-55.5,6.5-3,2.1,3.7,3.3-1,4.6-2.4.6-5.2,2.4-7.4-.1-.1-22.6,33.6-17.9,49.4-17.7,7.6-2.1,2.4-15.1,4.6-21.5s9.1-9.1,11.3-17c-18.5,8,13.2-11.2-12.7-14.2a2.6,2.6,0,0,0-4.1,2c-5.6,20.8-18.1,8-1-3.3-15.8-6.6-45.7-7.1-24.9,16-9.4-.8-11.2-25.1-13.1-11.3.3,2.7-1.3,3.5-3.8,2.3-17.3-19.7,26.7-25.1,38.1-15.8,3.5,1.2,5.7.5,6.9-3.8,4.7-13.4,21.7-16.2,29.3-27.7,4.5-15.8,43.5-119.1,14.1-58.6-7.8,13.1.7-11.8,4.7-17.1-2.4-27.3-12.5-56.5-2.6-86.3-.5-18.6,48.3-86.9,60.6-59.8-1.6,3.7.8,30.6,6.4,20.8,15-41.1,7-14.3,23.2,2.8,4.1,8.2-10-5.9-13.1-7.3-24.4,16,18.5,48.3,13.1,62.6-16.5-10.5-21.3-58.4-35.4-16.1-8.8,19.3-13.7,12.4-27.8,21.9-6.1-24.9,16.2-54.1,19.6-78.1-23.5,13.7-32.3,40.7-39.2,66.2-4,13-9.3,55.8,6.5,54.8,9-10.7,16.2-24.5,30-28.4-17.7,14.3-23.2,37.8-28.9,59.1-2.3,13.4,10.7,26.8-1.1,40-5.9,12.4-24.5,23.2-25,35.7,2,1.9,5-1.1,7.2-2.9s9.1-2.2,8.2-6.7c-.3-2.1,2.4-2.7,2.4-.2,2,16.9-25.6,19.1-32.8,31,10.3,3.9.6,1.8,3.2,7.8,9.4-5.9,8.7-8.5,4.2,2.9,40.7,22.2,18.7,2.6,22.9-26.1,6-2.6-2.6,37.7,12.8,42.6,21.7,13.3,31.8,51.4,1.7,11.3,18.7,30.5,9.7,25.1-3.7-.9-5-8-39.7-25.2-41.3-15.4-3.7,7.9-10,18.2-7.8,26.7,6.8-6.2,25.6-21,32.7-6.7-1.2,7.2-21.2,11.5-15.9,20,6.1-1.6,42.9,24,27.9,21.4-6.8-4.7-13.1-12.3-21.1-13.5,6.5,5.8,11.5,31.9,2.6,13.3-5.8-29.8-31,3.3-15.6,13.7,7.4-1.6-.8,7.9,5.8,2.4,3.8-4.3,7.4,7.3,14.9,5.7a117.1,117.1,0,0,1,36.4,7.2c-19.8,4.4,11.6,16.9,18.3,21.9,16.3,14.1,44.5,38.6,64.8,24.2,13.8-12.4,25.4,24.5,46.2-6.1,64-12.1,32.3-36.9,53-31.6,25.3,1.2,24.6,16.2,59.5-2,11.6-13.3-12.1-4.8-17.4-5.7,24.5-3.6,10-18.6-2.6-10.5-4.8,3-9.4,6.2-15.8,8.7,3.2-5.9,21.9-9.9,13.9-15.5-17.5-7.3-33.1,17.3-50.5,17.2,11.8-7.3,28-11.8,37.8-20.8-20-8-48.6-16.5-70.7-7.6,7.8-19.9,60.1,4.9,80.6.9,11.3-20.3,34-32.5,44.1-52.8-9-5.9,10.7-16.7-1.3-14.6-87.6,4.4-87.2,12-149.3,43.7,11.6-14.4,56.9-27.9,55.4-39.8,30.1-10.9,75.7,1,102.4-14.9,4.2-17.7,2.7-38.8,7-55.1,1.4,22.7-2.1,49.6-5.2,69.2-11.4,14.6,12,11.6,20.5,14.6,17.6,9.3,12.7-2.3,5.3-13.7-2.8-5.7-21.6-14.7-9.8-19.1,45.4,12.8,54.3,8.9,20.8-29.1-5.7-10.3,8.9,5.2,11.1,7.8,9.3.6-28.6-53.9-40.8-53.7-20.8,5.4,37.5,37.4,23.2,40.1-7.4-6.3-24.3-36.7-25.2-16-2.3-3-1.7-6.7-2.7-10-3.8-22.6-56,47.6-77.9,45.2,26.5-17.5,51.8-37.5,73.1-61.3.4-7.3-12.3-11.8-14.1-20.3-1.8-4-1.3-7.8-.6-11.8,4,4.5,2.7,19.3,11.7,20.6-6.9-34.8-.5-17.6,5.5,4.6.3,1.8,2.3,2.4,3.9.8,16.8-19.5,24.2,12,13.2,1.8-2-6.7-11.7,3.2-4.4,4.6,23.9,12.2,39.4,41,49.6,65.1,3.8,5.7,33.4,22,13.2,25.5-3.7-1.4-5.8,2.5-2.4,4.8,14,19.5-11.2,6.8-5.2,15,8,14.8-9.9,10.3-18.7,9.7,12,6.9,38.1,23.1,36.3,36.2-5.9-11.5-27.6-34.9-38-30.2,1.3,9.1,13,22.8,3.7,30.1-27.8-13.2-12-7.3-15.4,20.1,8.9,5.6,29-12.2,42.7-10.2,19.3-6.2,37.8-13.5,48.8-30.6-4.5,15.9-10.5,12.9,9.5,12.4,6.1-2.4,26.7,12.7,16.8,14.1-16-5.4,1.3,5.5,7.6,8.1,23.5,13.5,115.6-4.6,87.7,42.3-7.7.1-11.9-9.8-2.1-6.6-5.3-42.2-81.8-10.9-105.3-45.4-7.3-6.2-60.9,10.8-52.7,20.2C827,804.5,926.6,847,888.2,876c-36.2-4.9,28.6,20.9,11.4,19.2C855.7,878,835.5,825,793.1,813.8c-9.2-5.6,6.4-3.9,9.9-1.9,34.5,8.1,62.6,34.4,84.9,55.3-3.7-37.1-61.9-52.8-89.8-74.7-27.2,11.2-47.1,42.5-76.7,53,52-22.5,95.3,62.4,70.4-3.5-5.7-11.8,9.1-15.3,13.5-6.2-16.5,4.5,23.8,71.3,2.1,83.3-3.9-66.6-68.7-88.4-117.7-62.8-37.5-7.6-82.9-18.2-117.5,1.2-1.9,7.8-17.7,23.5-9,27.8,11.6,2.8,21.7,5.5,32,.7-3,15.3-33.5,4.3-31.9,24.4-4.3,48-4.9,44.6,42.5,50.6,20.2-42.1-16.5-97.7,60.5-78-12,5.5-35.1-3.9-40.7,8.1,2.8,22.5-12.3,55.5-2.1,72.7,42.5,8.4,35.2,7.2,42.8-31.8,2-7.6,1.8-7.6-4.5-10.8,7.2.4,7.1.4,7.5-6.1-5.7-39.6,34.3-26.4,52.5-23.2-12.2,6.6-41.3-8-42.1,10.5,4.5,23-28.7,76.1,11.7,70.8,24.3-14.8,51.3.6,75.6-14.9,12-.4,13.4-14.9,24.2-16.7,11,1,28.1-15.1,34.7-6.4,31.2,18,183.6-90.5,176-117.6-23-119.6-5-71.7-120-106.5-48.6-15.4,87.5,17.5,103.5,14.2-10.8-20.8-19.3-62.1-36.3-71.2-19.3,5.2-20.7-21.7-49.3-3.2-16.4,17.2-31,40.4-47.5,57.4C835.3,715,799.9,722.8,799.4,695.7Zm979.9-302.3c22.3-27.9-14.1-10.9-17.6,1.7C1771.3,399.3,1774.2,409.9,1779.3,393.4ZM630.7,828.3c6.8,8.9-8.1,3.3-13.4,11.2-6.9-5.5-28.2,6.8-10.1,4.9,94.7-3.5,106.4,13.1,179.3-61.9,11.4-5.2-38.9,3.5-34.9,19-1.4,3.3,1.1,12.4-4.6,11-9.2-14.5-23.1-14-40-11.8-2.5,36-44.3,11.4-68,22.3,8.4-4.8,11.2-8.1-.7-9.9-9.9-3.2-10.9-2.6-13,6.3C618.1,833,609.8,840.4,630.7,828.3ZM1654.1,559.2c-15.3,32.6,30.3-14.5,36.1-25.3,7.6-15.2,22.5-37.2,18.5-50.5,6.9-12.7,33.1-58.1,23.4-63.6-13.7,10.1-25.5,25-36,36.9,5,4.1,12.9,2.3,18.2,8.4-29.1-13.2-9.1,7.6-6.9,23-26.9,30.1,9.8-78.1-66.4,16.5-31.4,34.3,10.7-42.4,16.3-53.4,18.7-27.2,27.9.7,39.6-1.6,14.7-19.1,50.9-35.7,44.7-59.9-6.2-2.8-28.9-19.3-30.3-10.9-11.6,44.9-63.2,65-87.1,101.6-50.6,76.1-55,30,18,78.8C1647,566.5,1649.4,565.5,1654.1,559.2Zm63.8-339.1c5.6,2.6,7.4,31,12.2,20-26.1-97.8-106.3-103.9-192-98.6,15.4,5.8,25.8,15.1,2.3,20,12,16.4-10.9,13.7-12,24.3-2.4,3.4-7.4,5.8-11.3,7.5-22.7,15.5-15.7,27.5,10.8,22,46.2-5.3,80.6,35.4,125.2,27.7,13.6-2.3,14.3-24.9,28-30.5C1707.3,195,1731.4,276.5,1717.9,220.1ZM1297.3,627.3c8.9,2.4,8.5,29.2,18.8,19.7,18.2,32.7,71.7,18.6,108.1,22.3,8.2,1.4.1-5.3,4.2-8.6,11.1,6.5,16-8.3,20.5-17.2s-10.2-1.7-13.9-2.9c-10.7,1.2-28.3.4-7.2-1.4,36.7,5.5,23.9-29,.2-39.2-5.1-3.4-5.1-3.2-6.4,2.6-16.4,34-9.3,42-40,39.4,21.9-2.2,45.7-32.6,32.1-53.8-17.9-26.2-36.4-26.7-66.3-31.3-19.2-6.8,39.9,60.8,15.5,80.8-2.9,3.6,2.3,3.7,4.6,3.7-7.8.9-7.8.9-13.4,7-3.9,5.5-17.3,15.6-15.8,2-.5-4.6,7.1-6.9,3.6-12.4,5.1.6,6.1-5.2,9.8-7.7,23-30-23.5-103.2-63.2-82.6-5.6-3.7,11.8-2.5,13.8-7.2-16.5-4.7-53.6-32.4-58.6-25.9,71.1,138.5,62.4,137.7-3.4-1.8-52.9-51-15.9-10.4-28.5,30.7,20.4,29.5,68.8,42.4,76.9,84.3.3,6.9,13.4,30.4,17.2,21.6C1303.7,641.9,1296.9,635,1297.3,627.3ZM1481,288c28.2-14.2-7.9-22.9-24.3-24.5-28.4,6.9-58.1,13.9-82.8,29.2-66,25.4,24.2-3,53.3,15.1-80.5-23.8-111.7,22.6-108.8,88.4,46.7-62.8,6.4,46.8,28.2,41.9,6.8-9.3,6.3-27.3,16.1-32.4,8.1,17.1,16.6,77.9,25.4,21,54.8-113.7,135.4-39.7,176.2-65.6,17.4-41.1.8-72-40.5-39.3,2.3-8.6,29.5-14.8,21.6-21.1C1522.7,291.8,1503,271.2,1481,288ZM1211,553.7c-7.6,75.9,7.7,76.5-31.6,143.3-2-21-18.7,12.7-29,15.9,2.1,10.5,4,20.2-4.9,29.8-17.5,30.2-61.1,19.6-78.9,42.8-3.5,22.8-24.9,74-12.3,83.7,2.1-17.4,21.5-15.9,30.1-24.6,2.6-4-6.2-6-.3-8.7,8.9-12.8,9.3-31.2,14.9-46-2.1-19.2,59.5-27.7,55.6-21.6-13.3,9-35.9.4-43.8,16.2-1.5,11.3-18.5,40.1-8.6,44.2,57.4-10.1,49.1-43.7,66.1-90,5.9-6.9.8-14.2,7.2-21.4,30.9-.2,81.7-30.4,97.2-64.2-5.2,45.3-66.5,52-97,73.1-19.5,53.8-10.4,95.3-77.3,106.9-4.6,2.2-2.9,11,2.4,6.1,26.3,23.1,39.5,9.9,60.4-17.9,5.9-43.3,10.2-48.5,54.4-44.8,17.1,9.8-41-1.8-38.9,10.8,2.9,7-10,30,.9,26.1,31.9-13.9,46.2,8.2,57.2-34.1,6-18,48.7-18.2,14.5-8.3-15.1,16.7-22.7,45.8-21.6,67,20.9-11.7,46.7-18.8,68.4-24.4C1318,718.9,1298.2,608,1211,553.7Zm-65.4-129.1c2.6,23.3,4.7,47-8.9,68.3-.6,8.8,13,3.4,13-3.7,20.6-.4-16.1,40-40.7-13.5-9.1-14.9-34.8,4-31.5,16.9.4,4.5,4.9,15.7-2.4,16.4-7.1-1.7,0-10.8-5.8-14.1-14.3,18.6-27.4,37.9-40.4,57.5-15,21.6-29.7,39.5-12.5,64.5,45.3,107.7,29.5,43.9,85.1-3.5-6.7,17.8-46.9,58.3-37.6,71.2s27.2-10.8,31.4-20.1c-16.5,15.6-32.4,24.8-7.3,3.1s35.8-56.1,42.8-87.9c-15,11.1-27.9,26.3-45,35.6-5,6.2-35,12.8-26.7,7.2,41.3-7.5,98-65.2,79.5-103.3,13.6-12.6,4.1,31.1,3.1,38.1,12.7-7.2,12.4-33.4,25-37.9,5.1,13.3-14,29.3-19.4,42.2,10.5,3.4,12.6,7.9,9.4,18.3-19.5,39.6-46,76.4-75.1,109.7,67.5,16.5,103.7-7.3,115.7-66,6.6-12.7-5.7-31.3,6.4-36.9-2.9-11.6,10.9-37.5-4.4-39.6-1-2.1,2-1.8,2.9-1.5,9.4-.8,12.2-45.6,3.4-47.8-11.3.7-7.6-16.2-13.7-21.7C1174,460.8,1156,446.3,1145.6,424.6Zm762.5,19.9c.1-23.9,3.9-52-3.7-73.9-40.6-1-106-19.2-124.5,27.5-10.8,10.5,47.2,47.6,49.5,84,12.7,3.7,22.8-2.4,3.2-3.9,28.7,2.8,18.6-36.8,5.9-50.5-13.1-18.3-67.1-12.7-34.6-42.1-26.6,42.1,64.2,6.6,51.3,84.8-5.4,7.5-.4,9.2,7,10.1-4.8,1.3-11.8-4-13.3,2.3,14,9.6,36.4,16.6,47.3,34.4,3.7,6.3,5-4.4,6.6,1.1,6.9,23.6,31.3,43.3,21.3,71.5-.3,1.5-1.4,4.5,1.9,3.4,5.4-4,12.1,9.8,13.2.1-9.2-58.8,7.3-74.4,18.2-7.3-.7,3.9,2.6,5.1,3.8,1,18.4-30.7,27.5-62,10.3-95.4,10-17.1,27.2,24.8,32.6,34-.3-63.4-24.5-136.2-93.3-152C1912.9,397.4,1914.9,421.1,1908.1,444.5ZM1517.8,628.7c32.1-17,33.3-71.5-15.1-58-3.8-.7-1.8,5.9-5.2,3.8-1.3-.9-1.7-2.3-.6-3.5,17.6-11.3,46.2-7.9,52.2,14.9,35-55-5.6-36.8-41.9-25.2-58.6,16.8-133.2-21.4-49.1,54.7,8.2,19-2.3,40.8-17,52.9,20.5.9,61.7-1.4,72.9-20.4C1510.6,639.9,1525.9,635,1517.8,628.7Zm148.8-380.9c-11.6-1.8-13.2,17.8-23.7,22.3-4,22.2,21.9,46.8,18.5,72.8.2,7.7,11.3-2,15.3-2.9,12.8-9.6,30.8-8.2,43.3-13C1731.2,273.2,1737.8,237.1,1666.6,247.8Zm90.3,142.3c45.7-21.7,61.9-68.6,58.9-118.5-2-12.1-66.8-25.4-69.4-15.7C1760.7,299.3,1766.3,345,1756.9,390.1Zm146.9-27.9c9.7-28.3-91.1-129.8-84.9-76.7C1796.2,411.1,1789.2,348.4,1903.8,362.2ZM1537,641.1c20.7-15.5,61.5-13.9,71.3-37.2,1.3-5.8,9-3,12.1-5.3,40.8-33.9,13.7-42.1-22.9-59.7-8-8-21.2,5.1-18.3-6.9-15.1,4.8-9.7,9-8.4,21.2.6,20.8-17.3,34.5-21.9,52.7C1548,619.4,1542.2,628.7,1537,641.1Zm89.1-286c-15.4-2.1-1.3,9.5-8.6,14.8-3.2-1.6-3.2-7.7-6.5-10.4-4-5.3-21.6-1.5-16.3,7.7,15.3,43.7-11.3,83.2-7.7,126,2.1,12.7,27.2-17.5,33.7-22,9.9-7.7,42.8-140,22.7-89.8-5.6,15.2-7.2,37.7-21.1,46.9C1625.2,409.5,1649.1,365.2,1626.1,355.1ZM399,928.8c17.4,7.8,36.1-1.5,52.5,1.6-53.9,1.4,47.1,18.4,47.8,9.8-2.2-31.5,52.2-71.2-10.7-57.4-14.4,9.4-33.6-3.1-45,5.9s-17.4,31.1-32.8,33C405,920.5,401.9,924,399,928.8ZM981.7,576.7c-9.4-68.6-17.7-148.4-63.8-203.1-55.6-34.3-9.6,10.6-5.2,34.3,35.5,49,53.8,106.8,53.8,167.5.3,3.5-2,9.7,5.9,6.8,4.6,2.3,4.4-.1,3.7-3.1C966,517.5,968.5,513.6,981.7,576.7Zm654.4-116.9c24.4-24.7,73-52.9,71-88.2-20-6-47.1-25.4-30.3,5-4.6-.6-14.4-23.8-15.5-16.8C1660.7,395.3,1642.8,425.7,1636.1,459.8ZM1008.5,874.3c-1.1-8,1.3-40.8-6.8-38.7-28.5,33.2-88.2,65.2-109.1,89.4,24.5-3.2,46.3-21,70.3-10.2-1.5-31.5,3.1-37.8,24.1-9.6C1003.9,906.8,970.7,837.1,1008.5,874.3ZM969.8,670.4c30.7,55.3,9.7,79.7,52.1,24.8,4.3-4.1,4.5-5,.3-9.3-21.4-21.6-28.8-50.5-39.7-77.4,6.2,14.1-20.3,75.1,6.6,50.4C990.9,666.4,977.4,676.2,969.8,670.4Zm196.1,215.1c2.5-32.8,43.5-29,52-56.4-1.7-5.7,8.4-17.9,1.6-19-15.1-1.3-30-.1-44.1,6.3C1163.9,834.6,1166.3,863.7,1165.9,885.5ZM741,724.5c-33.5-23.2-54.9,24-76.2,45.7,13.1,18.7,47.8-20.2,70.7-14.9,5.4-.6,4.7-4.4,4.7-8.1,1.1-9.7-9.4-4.8-15-7.4C716.4,733.1,733.8,722.9,741,724.5ZM991.9,566.4c-12.3,33.6,6.5,73.6,28.4,103.7,5.5,7.1,27.1,37.1,29,18.9C1027.7,651.5,1006.9,609.2,991.9,566.4Zm739.2-295.1c.3,21.1-7,42.2-7.2,62.5,15.6,13.7-2.9,51.6,22.3,48.8,7.7-42.8,3-95.5-16.2-132.7C1723.5,253.5,1744.8,278.6,1731.1,271.3ZM1582.9,455.6c25.7-29.4,10.2-146.7-23.7-66.9C1569.7,410.1,1579,430.8,1582.9,455.6ZM887.7,655.9c-24.4,9.5-61.9,15.7-79.4,37.4C820.6,738.4,876.8,679.6,887.7,655.9Zm614.7-378.3c30.6,18.1,58.7,27.5,91.4,11.4C1572.2,265.9,1528.8,257.7,1502.4,277.6Zm71-21c18.2,15.8,37.8,31.6,58.4,38.4-29.8-8.1,10.7,22.4,17.1,37-.4-27.2-18.6-49.4-30.2-73C1610.1,243.2,1587.2,254.6,1573.4,256.6Zm-492,436.7c-4.5,1.6-26.5,11.1-18.5,14.8,36.4,10.3,79.2,16.2,103.5-19.7C1149.7,696.7,1108.7,700,1081.4,693.3ZM538,883.6c-10.5,2.7-45,67-18.4,64,18.6,7.3,16.7-20.4,22.9-32.2C544.9,901.2,562.6,882.5,538,883.6Zm700.4-20.3c5.2-37.9,35.3-15,51.4-20.4,7.7-17.9,8-31.3-14.6-22.1-18.9,5.9-40.6,12.8-47.8,27.4S1246.2,897.5,1238.4,863.3ZM1592,293.7c-17.6-4.9,20.4,64.8,30.4,56.7C1648,356.5,1605.8,285.4,1592,293.7Zm-855.5,463c-11.9-2.2-78.3,23.1-45.6,25.4,8.6-4.7,15.7-1,22.9,2,17.1,13.3,25.8,7.1,23.5-13.7C737,765.7,746.8,757.2,736.5,756.7Zm811-217.8c-5.4-8.3-21-3.6-30.5,0-34.2,10.9-70.4,8.3-105.6,13.9-4.7-1.1-4.7,3.7-.2,4.3C1457.7,559.8,1504,556.7,1547.5,538.9ZM1511.8,226c24,3.4,42.2,26.1,65.8,25.8C1643.8,245,1528,217.6,1511.8,226Zm200.4,108.2c-9.1-1.6-53.5,12.9-45.6,18.3,26.3,2.7,49.2,30.5,50.4-10.6C1718.4,335.6,1717.8,334.4,1712.2,334.2ZM256.7,883.7c.4,10.8,3.5,36,16.7,24.7-3.9-22,.7-47.5.5-67.6C260.4,846.5,261.3,870.8,256.7,883.7ZM1664.8,241.9c12.5-.9,39,4.3,45-1.7C1695.5,209.6,1678.2,211.5,1664.8,241.9ZM320.4,788.4c-31-2-47.3,21.1-50.6,49.3,13-2.4,3.7-20.7,16.6-23.9,7.2-4.1,30-3.8,26.1-14.4C315.5,796.1,318.6,793,320.4,788.4Zm285,193.8c-37-7-7.9,47.3,1.3,35.7C613,1007.4,610.7,990.8,605.4,982.2ZM1748.9,433.4c-6.1-19.7,40.5-21.6,10-29.4-4.4-19.9-22.1,56.4-29.6,64.1-16.7,36.9,27.7-38.2,35.4-50.5C1754.6,414.2,1751.6,427.4,1748.9,433.4ZM1671.5,446c-13.1,7.6-24.9,32.1-27.4,44.9C1651.6,480.3,1706,455.9,1671.5,446ZM1123.8,626.7c8-13,46.6-55.3,17.3-59.2C1132.9,586,1129.2,607,1123.8,626.7ZM577.8,892c-31.4-20.8-28.9,34.7-41.4,53.3-3.9,11,17,3.1,15.8-4.5C553.1,920,549.4,889.5,577.8,892Zm72.5,83.7c-56.8,10-8.8,47.6-9.5,31.6C625.5,992.9,665.9,979.9,650.3,975.7Zm-90.2,10.4c6.7,36.2,7.7,2.3,19.1-7.4C573.5,951.3,554.4,958.9,560.1,986.1ZM1582.3,307.5c-8.6,8.9,6.5,51.9,19.5,45.9C1611,344.3,1583.9,322.4,1582.3,307.5ZM453.1,501.6c12.6-17.4,25.1-38,13-57.3C461.2,462,452.2,481.9,453.1,501.6ZM1647,247.5c-4.8,2.1-24.7-2.6-20.3,5.8,8.1,18.8,14.8,21.7,24.6,1.8C1657.5,248.7,1654.9,246.7,1647,247.5ZM1117.1,851c-27-15-29.3,9.4-14.8,27.3C1105.7,868.1,1108.6,858.5,1117.1,851ZM749.7,700.1c6.3,11.6,8.4,28.6,24.5,27.2C796.6,724.2,758.7,703.5,749.7,700.1ZM395.5,964.4c-9.9-4.8-6.1-17.4-13.2-21C345.1,904.6,374.1,971.7,395.5,964.4ZM568,855.2c-17.2,3.9-45.8,29.7-14,27.5C559.8,875.7,562.2,864.3,568,855.2Zm907.4-590.9c16.5,11.3,27.6,10.2,44.4,1.8S1485.9,262.7,1475.4,264.3Zm101.8,64.1c-.4,9.2-11.7,27.3-5.2,32.4C1594.6,361.6,1586.5,339.5,1577.2,328.4ZM1160,826.9c-29.9,29.9-3.3,11.9-7,22.7-15.6,6-15.4,7.1-1.8,16.2C1160.9,865,1155.8,838,1160,826.9ZM423.2,611.7c-5.1-34-13.7,13.4-19.7,25.4C404.4,646.3,422.1,618.4,423.2,611.7Zm331,123.1c2.6-17.5-42.3-3.8-22.3,3.4C738.3,737.2,755.4,744.9,754.2,734.8ZM1582,513.6c-3.3-6.8-21.3,12.6-30.4,13.3C1549,540.9,1583.9,524.8,1582,513.6Zm222.4-68.4c3.7,10.1-2.8,37.2,14.2,31.4C1825.4,473.8,1810.6,449.1,1804.4,445.2ZM874.3,873c-2.6-17-26.9-34.6-42.7-39.8C843.9,846.4,861.3,859,874.3,873ZM589.9,976.2c4.9,1.5,20.8-4.7,15.1-8.4-7.7.5-22.9-7.2-27-2.1C580.3,972.3,581.5,979,589.9,976.2Zm967-672.5c5.2,2.1,16.6,19,18.3,9.9C1579.6,293.3,1573.1,296,1556.9,303.7Zm76.5,17.3c4,9.1,3.9,32.8,17,29.1C1656.7,340.8,1637.7,329.7,1633.4,321ZM317.5,923.2c-5.7.6-6.1,19.6-.1,21.9C321,937.8,336.8,921.4,317.5,923.2Zm-70.2,28c8.8-8.1,8.7-8.1,7.1-19.1C248.4,900.7,247.3,939.2,247.3,951.2ZM619,988.8c2.5-2.7,21.2-13.7,16.6-16.1C620.2,967.6,615.3,973.5,619,988.8ZM315.4,885.9c-11.2,3.7-6.4,16.6-7.7,25.6C314.8,926.9,316.1,892.3,315.4,885.9ZM668.7,988.4c7.8,15.9,12.9,9.9,14.4-4.6C687.4,975.5,667,983.4,668.7,988.4ZM650.8,374.5c-11.6-.9-34.7,12.4-37.4,23.4C625.5,389.6,638.4,383.4,650.8,374.5ZM522.4,975c5.7-10.5,7.9-21.8-6.9-20.3C508.5,957.4,520.8,969.4,522.4,975ZM1721.1,342.7c-1.8,10.4-12.2,24.8.9,29.4C1730.1,369.6,1722,351,1721.1,342.7ZM617.7,821.7c-5.2-.6-7.1,3.1-9.6,5.4-7.6,11.9-29.2.6-32.9,14.8C588.4,837.2,608.7,837.3,617.7,821.7ZM262.9,913.9c-3.5-.4-1,19.7,3,16C275,921.2,279.5,914.5,262.9,913.9Zm1346.7-426c-8.4,3.6-20.9,14-22.9,22.9C1593.1,515.6,1604.3,494.3,1609.6,487.9Zm-48.5-117.8c-1.3-1.8-18.3,2.3-14.9,6C1555.4,388.4,1558.8,383.9,1561.1,370.1ZM670.7,811.7c7.3,3,24.4,2.2,24.3-5.3C690.6,800.7,677.3,808.3,670.7,811.7Zm-121,40.2c-6.9-5.4-14.7-19-19-4C531.6,853.1,543.9,852.2,549.7,851.9Zm168.9-56.8c-6.2-3.2-13.9-9.2-19.8-5.3C696.9,801.5,711.1,798.1,718.6,795.1Zm583-135.4c6.9,17.6,11.8,31,10.2,4.4C1309.6,661.2,1305.7,661.5,1301.6,659.7ZM1177,458.1c-1.7-9.2-16.6-19.2-22.8-28.6C1154,439.7,1168.5,451.1,1177,458.1ZM382.2,665c-6.9,2.4-15.4,12.1-12.5,17.7C377.2,683.9,379,671.2,382.2,665ZM286.4,912.9c4.3-.3,10.3,3.8,12-.1C302.2,896.2,292.6,903.4,286.4,912.9Zm246.7,70.2c5.5-8.5,13.9-15.4,17-22.5C542.9,958,534.1,974.6,533.1,983.1ZM267.7,943.6c1.1-7.4,12.2-12.9,10-19.1C272.1,925.9,261,936.7,267.7,943.6ZM791.7,696c1.6-5.6-8.9-16.3-10.8-11.1C781.7,692.2,783.8,696.5,791.7,696Zm276.3-3.7c-6.2-3.3-15.5-3.3-11.6,5.8C1060.2,699.9,1065.3,695.9,1068,692.3Zm579.1-324c6.5.4,3.6-5.1,5.1-7.8C1652.4,350.7,1636.1,369.6,1647.1,368.3ZM1387,276.1c-9.6,2-17.5,7.3-25.6,12.4C1371.5,287.4,1378.6,280.5,1387,276.1ZM373.9,933.3c2.9,2.5,8,11.3,11.3,6.7C388.8,933.4,379.3,931.9,373.9,933.3Zm-112.1-86c-7.4,4.8-7.1,12-6,19.4C259.1,860.6,260.3,854,261.8,847.3ZM1404.7,565.4a55.5,55.5,0,0,0,12.3,14.4C1415.6,570.7,1410.6,565,1404.7,565.4ZM915.9,637.9c-2.9-8-18.4,0-11.2,3.5ZM408.6,937.5c-5.3.2-12.7-4.9-13.9.9C393.9,946.3,404.2,940.6,408.6,937.5Zm-117.1-4.8c1.5-1.4,1.8-11.8,0-13.8C280.6,914.7,290.1,928.2,291.5,932.7ZM761.6,697.6c4.6,1,11.3,7.5,15.4,4.9C777.5,695.8,766.4,696.9,761.6,697.6ZM391.8,731.4c-3.8,2.7-12.4,6.7-11,11.8C386.2,745.4,389.5,735.4,391.8,731.4ZM348.1,922.2c3.4-.6,9.1-6.9,3.8-9.1C349.7,914.2,340.4,922.1,348.1,922.2ZM1815.9,478.4c-7.8-.5-9.9,4.2.2,3.7C1825.5,483.9,1823.9,477.5,1815.9,478.4ZM728.8,979.7c-4-3.9-11.5-6.2-16.1-3.2C715.6,980,724,978,728.8,979.7Zm-366-59.8c-2.2,4.2,5.1,6.5,5.1,2.7S362.3,912.5,362.8,919.9Zm79.9-419c1.9-4.5,5.7-8.8,2.8-15.3C443.7,491.1,442.6,495.8,442.7,500.9Zm752.6,151.2c-1.8-1.3-7,8.4-4.3,9.5C1194.5,661.1,1193.8,654.8,1195.3,652.1ZM393.1,667.8c2.8-1.5,5.8-1,6.3-4.1C398.5,658.4,393,663.5,393.1,667.8Zm-4.2,83.7c4.4,1.9,7,.3,11.8.8C395.1,749.2,393.4,749.1,388.9,751.5Z" transform="translate(-71 -20.3)"/>
    <path d="M458,1222c-120.3-31.9-250.2-57.6-367.7-95C117.8,1130.7,572.2,1232,458,1222Z" transform="translate(-71 -20.3)"/>
    <path d="M71,1222c-.3-37,19-89.1.6-118.9,32.8-15.5,72.9-18.8,105.1-31.2,4.4-2,15.5-4,15.8,1.7.2,2-1.1,1.9-2.7,1.5-3.4-.9-2.8,3.8-5.8,4.3-33.7,7.7-66.6,15.4-100.7,25.3C90.6,1121.1,92.5,1229.9,71,1222Z" transform="translate(-71 -20.3)"/>
    <path d="M753,41c12.1,1.6,20.4,28.9,24.2,9,23.5-13.4,65.7-1.3,90.2-3.3,19-50.3,137.9,29.1,165.6,47,32.7,15.9,8.4,61.4,3.7,85.3,16.1,33.8-28.4,128.3-71.6,94.1-3.1-2.5-7.4,7.4-9.9,9.9-25.3,32.2-79.2-2.9-110.6-12.6-37.9,29.8-70.9,27.5-113.9,15.3-30.7,25.5-47.3,41.1-82.1,11.8-14.7,14.2-38.3,16-55.5,28.4-18.5,7.1-33.6-11.5-50-13.5,11.1,20-15,41.6-34.8,39.5-36,.8-42.6-48.4-2.9-46.1-45.6,4.9-12.9,60,18.8,36,34.7-22-9.2-33.9-1-59.4,3.4-21.7,23.7-40.1,35.3-52.1-23.6-26.9,24-57.5,47.3-66.8,3.8-4.7,21.7-3.7,16.5-10.9C585.6,85.6,705.3,45.2,753,41ZM697.1,65c-8.1,8.3-33.9,6.2-31.2,17.5-38-3.5-57.2,51.6-30.9,78-28.1,6.3-89.3,31.8-72.1,66.9,3.6,0,20.1,4.6,9.4,6.8-43.3,15.1-64,69.6-5.9,83.2,21.8,13,65.4-13.4,80.4-29.4,1.8-2.6,5.4-2.7,6.7-.1,18.2,38.7,50.9,12.9,71.5-6,16.4-16.4,67.3,41.9,116.5-24.1,18.3,23.6,55.7,21.7,84,33.5,22.1,10.9,29.8-40.4,42.1-25.8,31.5,44.5,93.8-82.4,49.6-90.6-5-6.8,5.2-6.7,9.3-5.4,14-5,11.9-32.8,15.6-46.3,3.9-22-27.1-34.5-43.8-39.7-11.1,1.8-4.3-8.9-7.7-12.8-30.5-6.8-97.5-58.9-116.6-21-1.5,7.4-4,8.7-10.6,4.7-16.3-6.5-75.5-11.9-82.6,3.7-2.5,22.6-16.1.2-22.5-7.3C753.1,33.8,668.6,70.6,697.1,65Z" transform="translate(-71 -20.3)"/>
    <path d="M710,579.9c26.5-36.8-10.3-82-27.6-113.7-4.4,18.2-30.7,64.3-2.2,74,14.9.6,8.7,15.8,18.7,21.6-3.8,2.6-4.2-4.5-7.7-2.6-3.4,4.2-9.7,28.1-13.9,12.8-1.9-9.7,15.3-19.6,2.3-25.3-21.2-9.4-29.9-32.1-55.9-34.7-8.9-3-13.1,2.1-19,9-2.5,2.2-4,5.1-8.1,4.6s-6.9,8.5-10,4.4c14.1-18.6,28.5-26.1-7.2-23.3-4.6,9.2-16.8,23.9-2,27.1-6.7,2.4-10.6-2.8-12.4,7.7-48.9,162.8-50.1,40.7,2.1-29.5,8.6-12.1,2.1-10.3-9.2-14.1,18.4,4.7,29.6-5.4,47.5-10-5.2,8.1-13.3,9.8-20.7,13.8,47.1,32.4,50.1-91.3,71.9-70.5,5,6,14.3,8.6,18.7,16.7,7,.3,8.3-30.4,19.9-11.3,2.3,12.1,8,23.1,12.3,34.4-14.7-1.2-16.1-43.2-22.6-19C705,471.1,757.5,575.1,710,579.9Zm-50.7-54.5c-4.4-11.1,18.7-50.9,6.2-37.8-1.8,9.3-12.5,5.4-14.1,13.1-1.8,3.5-3.2,10.7-8.4,9.6,10-54.5,8.3-58.4-17-3.2C628.7,515.9,649.7,516.8,659.3,525.4Zm2.6-47.2c25.6-23.8-9.7-49.6-5.1-16C665.6,472.1,662,462.2,661.9,478.2ZM554,547.2a163.2,163.2,0,0,0-18.7,56.4C543.3,585.4,548.6,566.3,554,547.2Zm145.6-68.6c-.2,5.3,9.8,23.7,13.8,25.7C710,495,706,486.7,699.6,478.6Z" transform="translate(-71 -20.3)"/>
    <path d="M836.9,443.9c44.3,21.5,68,67.1,56.7,112.9,10.3,9.2,25.1,21.6,28.1,34.5-3.1.5-5.7,5.7-9.6,1-39.4-35-100.1-79.7-154.6-60.2-6.4,2.6-10.7,6.7-19.5,3.7,9.1-1.6-3.7-19,13.1-19.3,35.5,2.4,74.5-8.1,105.9,13.3,10.8,6.1,20.1,17.2,31.2,21.3,3.2-20.3,1.9-45.8-10.1-64.2-24.5-30.8-64.3-60-104.9-57C793.1,419.5,817.8,436.7,836.9,443.9Zm19,96.3c-7.2-10.4-35.6-21.2-43.1-16.3C827.9,528.4,841.7,534.7,855.9,540.2Zm-87.5-16.6c-6.5.7-21.4-5.6-21.5,4.4C749.9,535.6,763.2,526,768.4,523.6Z" transform="translate(-71 -20.3)"/>
    <path d="M1229.9,254.5c-21.3-8.6-20-65.5-51.7-42.4-2.2-2,2.8-1.6.8-3.2s-5-3.6-7.9-3.8c-6.8,7.7,1.1,27.1-6.3,34.4-12.6-20.3-9.8-60.1-44.5-47.2,4.9-5.4,11.1-3.3,17.2-4.4-4.8-5.7-11.4-2.9-15.6-5.1,4.7-5.1,13.7,1.1,18.8,3.5,10.4.7-5.9-19.2,0-24.7,6.6,9.8.8,28.6,17.1,26.6,12.1,2.3,9.7-9.2,10.4-17.7,8.4-22.1-5.2,25.1,9.1,14.1-27.4,24.9,37,33.3,10.7.2-2-1.5-.1-8.4,1.7-4,6.8,28.6,21.7,13,40.1,4.9,1.6-.8,3.4-2.3,5.5-1-16.2,2.2,16.6,45.8,20.8,32.9,5.7-6.1-.6-43.8,9.4-30.5,12.5,29,0-38.8,9.4-25.4,6,19.4,5.2,33.6-11.4,41.1,0,10.4-4.4,29.3-17.6,17.2-14.5-16.7-17.7-37.2-41.5-18.6C1202.1,217,1224.3,238,1229.9,254.5ZM1164.2,218c4.2-8.9-5.5-28.5-11.6-18.6C1154.8,203.9,1162.6,232,1164.2,218Zm-6.5-27.3c-12.2-2.3,4.8,9.2,8.3,7.2C1168.8,192.7,1162.2,188.9,1157.7,190.7Z" transform="translate(-71 -20.3)"/>
    <path d="M1799,575.1c97.4,58.3,76.6,180.4,99.6,76.5,4.3,20.1-16.3,41.3-12.2,61.6,1.6,11.7,8.4,28-3.5,36-20.7,17.6-48.6,26.5-71.5,36.5,5.3-9.9,19.8-13.3,30.8-15.1,61.7-18.3,40.4-74,23.7-120.5-23.9-39.7-15.7-37-49.1-10.6,27.3-8.2,39.3-3.3,4.2,2.2-17.4,6,6.7,40.4-11,50.4,5.8-65.6,2.3-38-45.3-45.3,10.9-.8,45,2.1,43.4-13.3-7.3-9.6,12.8-27.1,6.1-17.7-12.9,24,4.6,25.4,20.4,6.9C1846.4,603.7,1803.2,593.5,1799,575.1Z" transform="translate(-71 -20.3)"/>
    <path d="M460,763c6.6,5.4,37,28.7,23.2,9.2-9.7-11.1-25.6-41.9-3.4-43,11.5,9.2,39.3-1,50.6,10.8-67.1,59.4-4.5,57,52.3,62.6C544.9,806.9,484.4,793.9,460,763Zm17.7-18.5c-1.6,6.8,11.4,29,16.4,24.2,2.4-13.4,18-18.7,25-27.5C509.9,740.7,477.5,727.7,477.7,744.5Z" transform="translate(-71 -20.3)"/>
    <path d="M1392.9,143.2c10.7,2.2,2.8-62.1,17.6-30.7,3.1,23,8-16.2,11.5-25.4-1.2-8-11.4,1.8-17.4.5,5.4-5.2,16.3-3.2,7.9-10.3,15.7,8.6,18.9-8.4,14.2-21.2-.8-5.5.5-6.9,8-6.3-12.7,3.6,1.3,13.7-.7,21.8.8,11.6,17.6-3.7,25.4.5-7,3.7-19.1,3.2-23.5,8.9-1.6,14.2,23.3,8.9,27.9,17-46.9-11.7-15.7,2.2-31.2,28.3,4.4-75.1-18.6-15.8-17.9,17.5-4.5,10.6-6.3-20.9-9-26.8C1404.2,124.2,1394.8,169.3,1392.9,143.2Z" transform="translate(-71 -20.3)"/>
    <path d="M790.6,382.1c37.4-6,40.6,37.5,67,48.3-24.4,10.2-27.5-24.8-43-35.8-41.2-27.5-63.4,39.9-95.3,49.3C741.1,424.4,758.1,387.8,790.6,382.1Z" transform="translate(-71 -20.3)"/>
    <path d="M459.9,686.1c3.1-21.1-18.1-51.3-11.9-65.5,17.4,6.9,20.5,37,33.7,52.4,4.9,10.9-9.1-1.2,1.4,18.6-3.3-.2-16.1-9.9-14.2,1.1C469.1,706.8,457.6,692.6,459.9,686.1Zm10.7-27.8c.4,5.6,1.8,14.1,7,14C477.4,667.8,474.2,663.3,470.6,658.3Z" transform="translate(-71 -20.3)"/>
    <path d="M568.5,676.5c8.5,14.4-7.3,55.7-6.3,9.2,1.9-2.9-1.4-4.4-3.2-1.7-29.6,17.3,10.7-25,20.4-27.8,12.3-7.9,24.1-25.7,38.4-26.4-1.1,5.4-13.6,7.6-14.6,13.4C647,635.1,575.8,666.6,568.5,676.5Z" transform="translate(-71 -20.3)"/>
    <path d="M441,366.7c-58.1,21.8-31.8-31.3,8.4-16.2,31.2,23.9-40.6,81.5-58.3,50.3-1.9-8.9,7.1-24,15.9-19.1-50,49.3,70.9,8.8,38.8-27.4C415.3,347.6,391.8,377.3,441,366.7Z" transform="translate(-71 -20.3)"/>
    <path d="M516.6,565.8c-1.4,5.2-16.2,20.6-5.2,17.9-8.1,2.5-12.1,9.6-16.2,16.4-52.8,41.2.9-93.8,26.5-92.5-20.3,16.4-55.2,77.9-38.9,96.2,21.3-15.4,6-12.5,7.6-28.6-.6-12.9,25.3-43.3,10.7-18.7C485.1,593.3,496.4,588.1,516.6,565.8Z" transform="translate(-71 -20.3)"/>
    <path d="M830.2,1127.3c-111.1,8.2-213.3-55.3-321.6-58,113.6-4.9,223,76.7,338.1,51.3C855.3,1122.4,834.1,1128.3,830.2,1127.3Z" transform="translate(-71 -20.3)"/>
    <path d="M1462.1,723.1c-2.6,4.8-2.6,13.6-6.8,16.3-4.3-5.3,11.3-28.4-6.3-21.9-5.8,3.6-11.2,7.9-3.4,13.3.3,2.8-7.4-1.2-7.2-4.3,1.6-11.7,19.6-10,2.3-22-3.2-1.8.2-4.9,2.5-2.3,16.8,23,23.7-10.1,28.5-6.2-12.7,26,63.1-35.2,58.9,20.1-6,18.7-.5-32.1-15.9-21.4-13.1,5-58.6,5.3-47.6,26.5,12,7.9,28.6,15.5,36-.9C1505.4,742.3,1472.6,732.2,1462.1,723.1Z" transform="translate(-71 -20.3)"/>
    <path d="M365.5,545.4c44.9-1.5,25.4,54-7.7,36.4C325.5,588,349.7,546.4,365.5,545.4Zm7,25.3c-5.3,1.1-13.6,3-8.1,10,8.3,5.3,26.7-13.1,22.8-21.1-18-19.9-40.4-1.5-38.5,18.5C359.5,582.6,360.6,563.4,372.5,570.7Z" transform="translate(-71 -20.3)"/>
    <path d="M1334.2,131.2c-30.3,14.9-22.7,14.9-15.4,46.5-4.2,15-10.1-23.7-10.5-30.4-20.6-8.2-27.9,22.3-20.7,39.4-2.1,7.6-6.3-6.2-3.5-9.4-3.1-15.5-2.7-38.8,1-53.2,4.1,10.6,7.6,32.6,22.3,16.3.7-11.1-4.3-26.6.4-36C1314.4,123.6,1300.8,150.9,1334.2,131.2Zm-47.1,10.7c.5,3.6-2.6,6.6-.6,9C1293.8,151.6,1291.9,145.2,1287.1,141.9Z" transform="translate(-71 -20.3)"/>
    <path d="M1750.9,689.9c2.1-13.1-5.5-27.1,3.4-39.3-2.7,17-.1,33.2,6.8,49.2,3.6-8.6,9.7-47.5,21.8-28.1,15.5,47.8,3.7,41.2-5.6-2.3C1763.3,686.2,1768.7,734.3,1750.9,689.9Z" transform="translate(-71 -20.3)"/>
    <path d="M1591.9,739.6c5.8-6.3,11-44,19.9-30.4-12.2,8.7-6.7,34.1-21.7,38.6-7.2-2.5-3.5-15.4-4-21.9-5.5-5.3-7.8,18.6-13.7,22.3-5.6,12-25.5-18.7-15-11.8,15.2,24.6,18.8-9.1,26.4-21.4C1596.5,704.9,1587,736.7,1591.9,739.6Z" transform="translate(-71 -20.3)"/>
    <path d="M357.5,460.5c-32.6,1.6,16.5-29.9,30.1-12.3,25.3,19.5-23.3,67.6-41.3,51.4-1.3-5,3.7-6,3.5-.6,16.6,7.5,55.3-33.4,32.6-48.4C375.9,443.3,341.4,453.7,357.5,460.5Z" transform="translate(-71 -20.3)"/>
    <path d="M546.7,817.1c-1.6,9.7-11.2-3.2-15-5.5-15.7-5.8-49.2,17.1-56.9-6.6C502.3,819.4,531.7,788.4,546.7,817.1Z" transform="translate(-71 -20.3)"/>
    <path d="M1391,551c-50-5.4-97.1-47.3-140.3-73.5C1295.3,500.2,1340.6,539.9,1391,551Z" transform="translate(-71 -20.3)"/>
    <path d="M836.9,443.9c-23.9-29.5-20.5-56.5-66.9-40.6,24.8-15.5,51.3-5.5,58.3,23.4C831.9,444.9,871.5,448.6,836.9,443.9Z" transform="translate(-71 -20.3)"/>
    <path d="M1750.8,689.8c-10.7,58.7-87.4,31.4-22.3-2C1675.7,722.6,1731.9,738.7,1750.8,689.8Z" transform="translate(-71 -20.3)"/>
    <path d="M749,365c31.7-9,65.9-13.3,98.2-15.8A968.2,968.2,0,0,1,749,365Z" transform="translate(-71 -20.3)"/>
    <path d="M224.8,1051.2c-21.9,4.7-71.9,1-73.8,20.5C131.7,1056.7,212.6,1045.9,224.8,1051.2Z" transform="translate(-71 -20.3)"/>
    <path d="M1345.8,131.8c-26.6,32.2,5.7,31.3,26.5,12.8C1355.9,175.4,1309.3,157.8,1345.8,131.8Z" transform="translate(-71 -20.3)"/>
    <path d="M1515.2,681.2c15-9.2,37.7,8.9,50.6-3.1C1565.4,695.7,1527.9,678,1515.2,681.2Z" transform="translate(-71 -20.3)"/>
    <path d="M1630.9,683.1c2.9,14.4,1.1,37.5-2.4,51.6C1624.4,721.6,1629.3,697.9,1630.9,683.1Z" transform="translate(-71 -20.3)"/>
    <path d="M753.1,41c-5-4.7-15.4-21.7-3.5-20.6C758.2,21.3,757.1,36,753.1,41Z" transform="translate(-71 -20.3)"/>
    <path d="M1392.9,143.2c-5.6-8.6-8-34.3-7.1-46.9C1390.7,110.2,1393.2,128.3,1392.9,143.2Z" transform="translate(-71 -20.3)"/>
    <path d="M1545.3,753.3c-15.5,21.7-21.1-40.3-12.8-24.3C1535,736.7,1531.8,759.9,1545.3,753.3Z" transform="translate(-71 -20.3)"/>
    <path d="M504.2,1069c-21.7-.8-43.5.6-65.2-2.1C460.8,1066.3,482.4,1067.4,504.2,1069Z" transform="translate(-71 -20.3)"/>
    <path d="M201.6,1073.6c-18.8,1,3.1-9.8,10.9-8.9C223.2,1065.7,206,1076.7,201.6,1073.6Z" transform="translate(-71 -20.3)"/>
    <path d="M1631,683c-7-22,4.7-29.7,8-2.5C1632.1,669.4,1634,674.4,1631,683Z" transform="translate(-71 -20.3)"/>
    <path d="M1687.1,682.3c-10.6,5-25.6,6.9-36,6.5C1658.2,682.6,1676.4,685.6,1687.1,682.3Z" transform="translate(-71 -20.3)"/>
    <path d="M1799,575c-10.3-2.9-16-16-24.2-23.1C1783.5,558.9,1792.3,566,1799,575Z" transform="translate(-71 -20.3)"/>
    <path d="M949.2,999.8c-14.4-1.2-28.6-3.2-42.5-7.4C919.9,995.5,938.6,994.7,949.2,999.8Z" transform="translate(-71 -20.3)"/>
    <path d="M1902.9,546.7c1.6,3.6,1,30.5-2.4,20.2C1900.5,562.8,1900.2,531.1,1902.9,546.7Z" transform="translate(-71 -20.3)"/>
    <path d="M359,474.6c-4.9,5.2-5.9,14.7-10.4,17.9C345.6,486.7,353.2,476,359,474.6Z" transform="translate(-71 -20.3)"/>
    <path d="M928.6,600.6c5.4,8.6,11.1,17,14.5,25.9C940.3,625.3,929.3,605.7,928.6,600.6Z" transform="translate(-71 -20.3)"/>
    <path d="M456,527c4.1-5.6,14.6-12.5,21.2-13C473,519.1,462.3,523,456,527Z" transform="translate(-71 -20.3)"/>
    <path d="M981.6,1001.1c-7.7.2-19.9,1.9-25.3-2C963.7,997.2,973.5,1001,981.6,1001.1Z" transform="translate(-71 -20.3)"/>
    <path d="M316.3,1027.4c-.1-2.2-.5-14.4,2.3-8.5C321.2,1028,316.2,1047.3,316.3,1027.4Z" transform="translate(-71 -20.3)"/>
    <path d="M460,763c-4.9.7-11.3-8.6-13.6-13.9C452.2,752.5,455,758.8,460,763Z" transform="translate(-71 -20.3)"/>
    <path d="M1515.1,681.2c-9.1.6-17.8,1.9-25.9,6.1C1496.3,682.8,1507.5,676.4,1515.1,681.2Z" transform="translate(-71 -20.3)"/>
    <path d="M1671.6,702.7c2.4,5.2,5,14.3,1.8,18.6C1670.6,716.6,1672.6,708.5,1671.6,702.7Z" transform="translate(-71 -20.3)"/>
    <path d="M1656.6,691.9c-7.1,4.3-19.1-1.4-16.3-8.1C1646.6,688.3,1645.9,694.3,1656.6,691.9Z" transform="translate(-71 -20.3)"/>
    <path d="M315.1,979.2A32.6,32.6,0,0,1,316,997C316.4,992,311.1,981.3,315.1,979.2Z" transform="translate(-71 -20.3)"/>
    <path d="M1196.7,427.2c6.3,4.3,13,8.5,16.5,15.8Z" transform="translate(-71 -20.3)"/>
    <path d="M451.3,796.6c7-1.4,14-2.2,21,0Z" transform="translate(-71 -20.3)"/>
    <path d="M1768.3,477.1a39.2,39.2,0,0,1-17.8-1.2C1757.2,474.5,1762.8,475.9,1768.3,477.1Z" transform="translate(-71 -20.3)"/>
    <path d="M894,971.6c-5.6-.9-12.7,1.7-16.2-1.1C881.7,968.4,888.6,968.7,894,971.6Z" transform="translate(-71 -20.3)"/>
    <path d="M937.4,550.5c-.9-2.8-3.4-17.5,1.5-13.1C941.1,542.2,936.4,545.5,937.4,550.5Z" transform="translate(-71 -20.3)"/>
    <path d="M1901.8,585.5c.9,4.8,2.7,10.9-.4,13.3C1899,595.9,1900.6,590.2,1901.8,585.5Z" transform="translate(-71 -20.3)"/>
    <path d="M1021.1,1012.3l-14.5-6.2C1012.1,1006.7,1017.4,1007.6,1021.1,1012.3Z" transform="translate(-71 -20.3)"/>
    <path d="M1769.5,549.5a119.4,119.4,0,0,0-15.1-5.3C1761.2,543.2,1765.5,545.9,1769.5,549.5Z" transform="translate(-71 -20.3)"/>
    <path d="M602,802c3.9-2.7,8.9-4.5,13-6.1C612.9,800.6,607.9,802.5,602,802Z" transform="translate(-71 -20.3)"/>
    <path d="M1317,314.9c.3,4.9-5.8,5-6.8,9C1304.5,322.6,1314.7,315.7,1317,314.9Z" transform="translate(-71 -20.3)"/>
    <path d="M1228,455.9c-4.9-1.9-7.6-6-10.1-10.3C1221.6,448.7,1226.4,451.1,1228,455.9Z" transform="translate(-71 -20.3)"/>
    <path d="M319,1011.2c-.7,8.2-5.8-6.1-2.1-6.7C320.2,1005.8,317.6,1009.3,319,1011.2Z" transform="translate(-71 -20.3)"/>
    <path d="M1467.8,745.2c2.3,2.9,2.7,7.5,1.8,9.6C1465.9,754.3,1467.4,748.7,1467.8,745.2Z" transform="translate(-71 -20.3)"/>
    <path d="M1900,635.6c.5,4.3,1.3,8.5-1,13C1897.3,643.8,1899.3,639.7,1900,635.6Z" transform="translate(-71 -20.3)"/>
    <path d="M521.8,528.6c-2.3-3.1,3.6-5.3,2.6-1.5S520.2,535.5,521.8,528.6Z" transform="translate(-71 -20.3)"/>
    <path d="M1900.3,578.5c-1.1-3.2,3.7-5,3.2-.8S1899.5,583.3,1900.3,578.5Z" transform="translate(-71 -20.3)"/>
    <path d="M1900.2,607c4.1,2,1.8,5.2,2.2,7.6C1898.7,615.8,1900.6,609.7,1900.2,607Z" transform="translate(-71 -20.3)"/>
    <path d="M670,796c-2.8,3.8-9.5,1.3-13.5,4C660.3,796.7,665.7,796.5,670,796Z" transform="translate(-71 -20.3)"/>
    <path d="M517.1,536.5l-7.7,7C511.6,538,511.8,537.7,517.1,536.5Z" transform="translate(-71 -20.3)"/>
    <path d="M344.7,1061.4l10.5,1.2C351.6,1063.5,347.9,1064.4,344.7,1061.4Z" transform="translate(-71 -20.3)"/>
    <path d="M483.1,511.5c2.4-3.5,5.8-3,8.6-4C489.4,509.7,487.3,512,483.1,511.5Z" transform="translate(-71 -20.3)"/>
    <path d="M1549.5,723.8c1.1,1.7,2.9,4.5,1,6.5C1547.7,730.7,1547.6,725.5,1549.5,723.8Z" transform="translate(-71 -20.3)"/>
    <path d="M1320.9,320.9c-2.3,2.9-5.1,3-9.5,2.4C1315.3,322.2,1317.2,319.3,1320.9,320.9Z" transform="translate(-71 -20.3)"/>
    <path d="M1128.8,868.6c-1.1,2.4-2.3,4.7-3.4,7.1C1124.8,872.6,1125.6,870,1128.8,868.6Z" transform="translate(-71 -20.3)"/>
    <path d="M602,801.9c-2.7,3.6-6.3,1-9.4,1.6C595.6,802.6,598.9,801,602,801.9Z" transform="translate(-71 -20.3)"/>
    <path d="M1227.9,456a9.6,9.6,0,0,1,7,6.2C1230.9,461.1,1229.3,458.4,1227.9,456Z" transform="translate(-71 -20.3)"/>
    <path d="M1857.6,747.2c-2-4.8,3.6-4.1,4.5-8.2C1862.8,744.6,1858.4,743.2,1857.6,747.2Z" transform="translate(-71 -20.3)"/>
    <path d="M1868.3,731.7c0,3.6-2.6,4.8-3.4,7.7C1864.4,735.7,1864.4,735.7,1868.3,731.7Z" transform="translate(-71 -20.3)"/>
    <path d="M699.3,565.4c2.8,1.5,5.3,3.2,3.7,7C703.2,569.3,700.1,568,699.3,565.4Z" transform="translate(-71 -20.3)"/>
    <path d="M633,831.1l18.9-3.8C646.2,829.7,638.8,834.4,633,831.1Z" transform="translate(-71 -20.3)"/>
    <path d="M1654.1,559.2c2.2-1.9,1.7-5.5,4.2-7.5C1659.6,554.8,1656.7,561.5,1654.1,559.2Z" transform="translate(-71 -20.3)"/>
    <path d="M765.5,948c-4.6-1.5-9.7-1.6-13.8-4.5A31.3,31.3,0,0,1,765.5,948Z" transform="translate(-71 -20.3)"/>
    <path d="M1179.2,709.4c-.6,2.2.5,4.5-1.8,5.7C1174.5,714.7,1175.8,709.8,1179.2,709.4Z" transform="translate(-71 -20.3)"/>
    <path d="M1876.1,485c12.7,3.8,24.6,15.8,24.9,29.6C1897.4,500.7,1887.4,491.8,1876.1,485Z" transform="translate(-71 -20.3)"/>
    <path d="M1876.1,484.9c-3.2-.8-6.8-.7-10.9-3.3C1870.2,481.2,1873.2,483.5,1876.1,484.9Z" transform="translate(-71 -20.3)"/>
    <path d="M1481,288c-4.3,10.5-18.9,20.2-26.3,30.7,1.4-6.3,2.4-7.9-5.3-7.9C1463,311.1,1470,296.2,1481,288Z" transform="translate(-71 -20.3)"/>
    <path d="M1435,352.3c4.9-9.8,8.6-20.2,15.9-28.7C1446.5,333.7,1440.2,342.7,1435,352.3Z" transform="translate(-71 -20.3)"/>
    <path d="M1523.8,321.8c.4,4.9-5.3,8.9-2.8,14.7C1515.8,342.7,1516.4,322.9,1523.8,321.8Z" transform="translate(-71 -20.3)"/>
    <path d="M1541.9,343.2a39.4,39.4,0,0,1-18.6-2.5C1529.5,341.3,1535.7,342,1541.9,343.2Z" transform="translate(-71 -20.3)"/>
    <path d="M1426.1,375.2c0-6.9,4.7-11.9,7-17.9C1429.8,362.8,1430.5,370.2,1426.1,375.2Z" transform="translate(-71 -20.3)"/>
    <path d="M1445.1,310.5l-13.1-1.2C1436.5,307.7,1440.8,309.2,1445.1,310.5Z" transform="translate(-71 -20.3)"/>
    <path d="M1487.7,331.3c2.7,1,3.5,3.3,4.7,6.4C1489.1,336.2,1488.5,333.7,1487.7,331.3Z" transform="translate(-71 -20.3)"/>
    <path d="M1698.9,193.3c9.7,5.5,16.4,16.7,19.1,26.7C1712.6,212.7,1702.7,200.3,1698.9,193.3Z" transform="translate(-71 -20.3)"/>
    <path d="M1593.3,178.6H1615C1607.7,179.8,1600.5,180.3,1593.3,178.6Z" transform="translate(-71 -20.3)"/>
    <path d="M1625.5,179.7c7.1-.1,14.1-.4,21.1,1.5C1639.6,180.2,1632.5,181.1,1625.5,179.7Z" transform="translate(-71 -20.3)"/>
    <path d="M1698.9,193.3c-5-.5-12-5.2-17.6-7.4C1687.3,188.1,1693.9,188.8,1698.9,193.3Z" transform="translate(-71 -20.3)"/>
    <path d="M1565.3,180.8c-4.6.3-8.4,4.8-14.8,2.5C1556.1,181.1,1560.6,180.2,1565.3,180.8Z" transform="translate(-71 -20.3)"/>
    <path d="M1650.4,181c2.9,1,9.3-1.3,10.2,1.8C1659,184.7,1651.3,182.3,1650.4,181Z" transform="translate(-71 -20.3)"/>
    <path d="M1546.7,184.3c-1.9,2.1-4.1,1.5-6.2.9C1539.6,182.4,1545.1,183,1546.7,184.3Z" transform="translate(-71 -20.3)"/>
    <path d="M1665.7,541.4c3.3-4.2,5.1-9.5,9.8-12.6A25.5,25.5,0,0,1,1665.7,541.4Z" transform="translate(-71 -20.3)"/>
    <path d="M1681.6,520.9c.1,2.6-1.5,5.4-4.2,6C1674.9,524.9,1679.6,522,1681.6,520.9Z" transform="translate(-71 -20.3)"/>
    <path d="M1687.1,513.2c-1-3.5,5-9.3,4.2-3.7C1688.6,508.9,1689.4,512.4,1687.1,513.2Z" transform="translate(-71 -20.3)"/>
    <path d="M1483.2,634l19-2.7C1497.2,633.5,1486,637.8,1483.2,634Z" transform="translate(-71 -20.3)"/>
    <path d="M1567.4,619.4c4.3-3.5,24.2-8.8,26.4-7.4Z" transform="translate(-71 -20.3)"/>
    <path d="M631.3,827.8c1.8-2.9,4.8-3.9,7.7-4.9C638.4,827.6,634.7,827.5,631.3,827.8Z" transform="translate(-71 -20.3)"/>
    <path d="M697.3,145.9c4.2-8.2,5.7-17.8,17.2-17.3-17.7.8-18.9,47.6.9,34.9,14.9-11.9-10.2-42.5,10.9-49.1,20.8,8.7-14.9,52.6,23.6,43-6.3,12-19.8-.7-26,2.8-7.4,16-27,10.6-27.2-6.3-3.9,10.9-15.3,47.6-26.9,21.4-2.5-9.6-1,.9-5.2,1.5-12.9-18-8.6-46.8-11.2-68.6C665.6,89.8,699.7,126.9,697.3,145.9Zm-29.7,4.6c7.5,53.3,29.2,6.1,19.1-20C650.4,88.2,663.7,118.6,667.6,150.5Zm-5.9,1.5c-.3-8.8-.5-17.5-4.3-25.6C657.2,135.2,657.7,144,661.7,152Zm63.7-13.1c1.8-6,2.5-12.1.8-18.3C723.8,126.6,725.1,132.8,725.4,138.9Z" transform="translate(-71 -20.3)"/>
    <path d="M945,222.2c-25.6,25.9-27.9,19.8-41.1-7,2.5-4.9,8.1,10.8,8.5-2.6,5.1-13-17.9,3.7-25.5.5-4.2,2-16.8-2.9-15,4.2,2.1,15.5,4.3,31.6,8.4,45-19.2.9,2.7-54.7-24.4-51.7,1.2-9.1,15.3,14.7,10.4-18.4,4.2-6.2.9,17.9,7.2,18.8,26.8,5.9,41.9-16.1,62.2-23,14.9,15.4-25.1,27.1-20.1,41.9C922.6,243.4,936.5,225,945,222.2Zm-14.2-30.5c-7.8,2.9-14.8,16.7-13.2,24.2C923.5,214.7,941.2,193.9,930.8,191.7Z" transform="translate(-71 -20.3)"/>
    <path d="M783,125.2c-6.4,4.6-7.9,33.3-16.6,19.2-1.5-4.5,3.4-23.5-2.2-18.5-4.8,7.5-5.7,18.8-10.7,24.9-3.7-8.9,14.4-54.5,19.8-25.2,18.4-31.4,18.7,13.5,17.3,27C780.6,149.3,785.1,134.2,783,125.2Z" transform="translate(-71 -20.3)"/>
    <path d="M781.1,252.8c-10.2.5-9.2-16.9-15.8-14.9-12.1,8.7-10.9-14.3-7.6-4.7,21.9,15.3,0-53.2,17.6-55.9C801.3,194,757,231.8,781.1,252.8Zm-6-71.7c-2.9,13.4-2.4,26.3-1.9,39.2C779.4,208.8,780.5,185.4,775.1,181.1Z" transform="translate(-71 -20.3)"/>
    <path d="M584.8,237.8c15.7,53.6,9.3,12.1,25.9,4.4,11.3,23.5,4.8-17.2,28.8-12.6-14.2,2.9-20.5,51.5-31.1,22.7C599.2,286.4,576.7,254.6,584.8,237.8Z" transform="translate(-71 -20.3)"/>
    <path d="M997.1,225.2c-10.3,8.6-26.3,3.1-26.3-11.3-17,20-23.2,4.7-14.6-13.5-5.5,41.4,18.6,5.7,16.9-13.7-.5-5.9,9.4-18.8,10.6-7.4C980,196.9,964.9,230.8,997.1,225.2Z" transform="translate(-71 -20.3)"/>
    <path d="M820.7,115.4c-38.1,84.1-19.2,6.3,2-6,10.8,7.9,5.5,28.8,12.6,38.7C820.2,160.4,825.8,123.3,820.7,115.4Z" transform="translate(-71 -20.3)"/>
    <path d="M675.2,250.9c-3.5.3-6.8.7-9.2-2.3-4.1-2.3-8.8,3.7-13.9,2.2-13.1-2.9-3.8-23.1,7.6-22.2-8.7,1.4-16.1,20.6-3.6,19.3,14.1-3.9,2.7-31.5,17.7-32.8C682.3,226.2,658.4,241.1,675.2,250.9Z" transform="translate(-71 -20.3)"/>
    <path d="M705.8,213.7c22.7,11.8,10.4-11.1,16.6-22.5,5.9,9.3-5.7,26.7,8.5,31.6-3.4,2.8-8.4-4.3-7.4,3.2-1.5,9.7,2.4,23.7-1.5,31.3C711.5,242.1,732.8,222.6,705.8,213.7Z" transform="translate(-71 -20.3)"/>
    <path d="M753.4,238.4c-12,12.9-21-.1-19-12.7,4.5-5.3,22.9-30.2,22.1-10.5C753.6,226.7,721,246.9,753.4,238.4Zm-.2-25.5c-4.1-6.2-13.8,11.9-11.5,16.1C746.6,229.9,752.9,217.1,753.2,212.9Z" transform="translate(-71 -20.3)"/>
    <path d="M965,127.4c-5.6,13-25.4,8.6-32.8,18.3-3.6,2.6-8.3-5.9-14.7-3.1-12.5-2.3.5-1.6,6.2-1.3,9.2-4.3-1.9-24.7-.7-34.3-2.5-4.2,2.6-5.6,2.5-.8C929.7,141.1,932.4,146.6,965,127.4Z" transform="translate(-71 -20.3)"/>
    <path d="M703.8,242.4c-5.3,16.5-7.8-31-14.8-14.5a67.6,67.6,0,0,0-6,13.1C673.9,240.6,697.9,195.4,703.8,242.4Z" transform="translate(-71 -20.3)"/>
    <path d="M842.8,140.1c14.6-.5,18.3,36.6,36.7,26.5C863.5,185.9,853.4,148.5,842.8,140.1Z" transform="translate(-71 -20.3)"/>
    <path d="M898.8,87.9c18.7-5.5,40.9,11,55.6-1C952.6,105.1,912.5,87.4,898.8,87.9Z" transform="translate(-71 -20.3)"/>
    <path d="M584.6,237.7c-1.9-1.4-4.1-5.6,0-6C586.8,232.7,585.5,236.5,584.6,237.7Z" transform="translate(-71 -20.3)"/>
</svg>