<svg viewBox="0 0 1200 312" xmlns="http://www.w3.org/2000/svg">
	<rect height="312" style="fill:#963" width="1200"/>
	<path d="M1199.8,7.2c-5.1-.7-6.9,6.9-8,10.6s8.2-6.5,5.4,1.7c2.9,6.7-14.3.2-8,17.7-4.7,5.4-7.3,20.1-16.8,18-5-4-3.7,2.1-4.7,4-4.8,2.2-17.4,7.3-16.9,0,18.6-6.9,34.4-11.7,31.3-35.3-2.4-3.7,3.2-2.6,3.7-5-.1-4.8.6-15.4,6.4-15.7C1195.9,9,1198.3,4,1199.8,7.2Z"/>
	<path
		d="M757.8,155.8c-24.6,4.5,51.9,9.4,54.9,15.2-5.9,2.7,3.2,8.6,2.9.1a29.4,29.4,0,0,1,10.1,2.9c13.6,4.1,26.8,13.1,38.8,15.9,9.2,2.8,17.7,10.3,28,3.7,9.2-.7,17-7.4,25.1-7.9-.9-5.4,8.7-4.4,6.3-8.4,4.6-2.1,8.9-6.4,13.5-9.5,7.8-10.1,5.4,4.5,11.7-11,7.7-6.3,37.8-23.7,14.5-19.2-5.7.5-11,2.4-13.6-2.4-3.1,3.3-4.2,4.7-9.7,3.8-2.2,1.4-4.3,3.1-7.8,1.4-6.2-2.5-20,7.8-22.9,0-4.1-4.8-2.7,2.4-4.9,3.6-52.9-1.1-15.1,10.4,7,26.9,1.2,11.6-32.8-23.1-41.3-21.9-6.3-4-17.6,6.1-20.2-2.2,1.6-4,12.7-1.9,16.1-7.7-5.2-3.9-31.7-3.6-32.2-11,9.4,1.2,16,4.9,25.5,5.9,1.3,1.2,2-.6,2.9-1.8-.1,4.8,8.5,2,7.3,8-1.2,4.3,11.3-.5,14.5-1.2,15.6-1.2,30.3-1.1,45.1-4.9,8.6-2.5,59.5,1,47.3-6.7-2.4,0-6.4-.2-3.9-3.3.8-8,11.6,6.1,16.4,2.1s2.6,1.2,6.2,2.8c.1,1,.2,1.1,1.9,1,10.3-1,20.8-1.2,31.4-2.1,9-2.5,20.4-.1,27.5-5.8,1.6,1-.6,3.5,1.6,4,4.4-.4,3.2-6.4,8.4-7,2.2.1.2-1.4,1.7-2,15.8.4,16-21.8,23.7-26.7,7.3,6.3-5.6,19.6-10.4,26.9-8,4.4,1.6,3.1-1.5,5.7-3-.4-3.2.9-5.1,2a5.1,5.1,0,0,0-5.7,0c-1.9.6,1,2.5-.7,4.1-5.6-5.3-14.4,3.9-22,2-10.2,2.4-24.1,1.4-30.9,5.9-.7-3.7-11.5-1.4-17.7-1-6.4-3.9-16.3,8-20.9,5.7-2.8-4.2-7,2.5-1,2.7-9.8,5.9-18.7,15.3-28.6,22-5.3,8.5-22.9,12.6-21.5,23.4-5.9-3.1-8.4,1.8-14.9,4.6s-17.2.3-17,8.8c-1.5,2.6-2.4-3.7-5.4-2.4-.5-.3-.3-1.7-.4-2.3-3.4-4.9-6.5,3.2-1.2,2.7-8.5,2.8-16.3,6.2-25.7,5.1-17.3,6.1-34.2,9.3-49.3,17.7-3.7.2-6.4,2.8-7.7-2.1-2.6-3.4,9.5-4.9,12.3-7,10.3,2.4,4.4-.9,10.4-3.9,14.4-4.2,29-9.5,45.1-11.5-6.2-5.5-7.6-.1-9.2-8.2-1-.6-2.4-1.2-2.8,1.1-2,3.7-9.5-2.2-12.8-3.3-10.6-4.9-3.7-8.1-15.3-7.1-10.6-4.6-17.6-5.4-26.8-2.3.1-.6-2.2-1.3.2-1.8,8.3-5.4-12.4-2.7-13-8.5-1.1-2.8-4.8-1.5-4.2.7-6.6,1-15.2-3-22.7-3.3-37.4-4-13.8-19.1-40.6,11.2-.1,9.5,34.8,5.3,23.4,15.9-35,9.6-36.2,3.7-1.1-2.9-8.5-2.4-18.4-6.4-26.4-8.1-7.6,9.3-28.6,22.9-5.2,15.3,5.9,3.9-15.7,7.3-18.3,6.7.9-2.8-3.7-2.4-4-.2,2.5,6,11.8,11.7,17.5,17.3-.5,7.8-14.7-9.9-18.1-12.9-8.9,3.3-30.3,21.8-36.9,12.9,4,7.7-29.7,19.5-27.6,12,40.9-20.4,14.8-4.2,1.2-29,12,6.9,23.9,20.9,38.6,11.7,13-9.9,30.1-7,11-26.5-1.7-2.7-11.2-8.3-7.3-10.2,9.1,3.6,13.9,19.8,21.8,21.2,9.4-6.6,17.4-21.9,27.5-20.7,2.7-3-4.2-4-.8-6,28.2-25.4-9.3-7.5-23.9-10.4-12.2,4.3-33.8-1-49,3.5,5.6,2.7,15.1,3.2,18,9.2-24.7-13.7-56.3,2.9-56.1-8.1,4.8-5.2,22.5-.7,31.3-5.1s19.6-4.3,24,1.4c6-2.8-5.5-5.8,5.6-5.3-11.8-6-21-16.4-33.5-20.9,10.9-6.8,27.3,19.7,41,21.2,11.8-1.8,23.4,1.5,35.3-2.2.7-3.7-9.7-4.6-7-9.1s-4.4-3.6-4.1.3c-.1-5.3-9.1-7.2-8-12.2-2.9-4.3-15.5-7.9-20.3-16A57.2,57.2,0,0,1,686,104.5c5.9.5-5.3,8.4-6.4,11.3-1.1,11.8,13.5,8.2,20.3,9.1-1.2,2.9-6.5,2.3-8.9,3.7,6.5,7.8,15.8,15.2,23.6,22.5,13.2,10.9,27.7-4.7,40.3-6.1,2.8,1.7,7.3-1.3,7.3-4.6,7-4.2,18.2-7.1,23.7-7.5,1.7-4.4,8.6-3.7,12-6.4-3.2.3-4.5-7.7-.9-4,10.5,8.3,23.2-11.8,31-7.9,2.8,3-6.5,7.4-7.5,7.5-6.2,4.9,15,3.5,6.6,7.6-3.8-2.1-14.3,1.3-14.2-4.5,0-1.7-1.3-1.1-2.2-1.1-3.7,8.9-17.4,8.6-26.7,14.3-45.1,15.5-29.5,11.1,2.2,12.3,18.8,4.8,46.7-9.4,60.1-2.5-7.8,8.8-36.3,6.2-51,8.9-3.9,1.5-5-6.8-8.2-1.4C781.4,157,756.8,155.4,757.8,155.8Z"/>
	<path
		d="M855.5,78.1c-10.3,2.4-23.5-3.3-30.4-2.4-6.9,5.4-24.3-3.1-29.2,3.5-.8,1.8-2.6-3-5-2.1-7.5-9.7,31.7-5.2,43.6-5,5.2.7,13.4-2.3,16.9,2.9,3.3,3.4,7.2-5.8,16.7-2.9-2.7-5.1-11.3,1.6-7.3-7.3-3.7-3.2-3.5,5.2-6.1,3.3C834.1,61,816.9,55.3,795.3,50c-3.8,1.1-6-5.5-8.8-4.8-1.8,2.9-4.6,1.3-6.2.6-3.7-3.2-7.4,3.6-8.4,1-1.9-9-19.2-3.7-26.2-8.3-1.6-1.8,3.8-4.1-.2-6.3s-1.3,5.7-4.1,4.9c-4-2.9-16-2-12.5-6.2-.9-7.8-2.8,1.9-5.7,1.3-10,1.2-25.5-3.4-23.2,7.5-13.3-16.9-2.8-8.4-15.1,1.9-1.3,2-7.7,8.5-6.5,2.6,7.8-3.9,2.4-13.3-.4-6.5-6.8,4.3-43.7,25.2-48,18.5-7-.6.6,4.9-1.3,4.9-7.7-1.2-26.1,11.1-24.9,0,18.2-.7,38.1-18,52.5-14,2.1-1.4-2-3.9.7-5,2.6-3.1,22.8-7,16.2-7.9-6.8-7.7,11.8-4.5,15.2-5,30.7-6.5,61.7,3.4,93,6,8.5,3.5,19.4,1.2,28.8,4,2,1-2.3,1.6-.7,3,3.6,3.1-7.1,2.1-9.5,1.1-20.6-2.6,65,21.1,74.8,23.9,11.5,12.5,28.2-11.7,25,4-3.1,7.5,53.6.8,66.8,6.9,18.1.7,36.5,4.5,54.3.1,4.5-.2-3.3,3.6,3.4,5-2.5,2.6-11.7,1.4-16.1,2.3s-13.4,2.8-11.6-3c-5.5-1.8-2.2,6.5-10.2,2.9-5.4-2.4-22.8,8.3-12.1-1.3-10.1-3.1-24.8.4-32.7-5.6-.6-1.8-2.9-2.3-4.7.1S927.4,80,923,80.2s-7.5-.2-7.8-4c-21.4,11-32.9-5.8,7.1,22.9,5.9,5,16.2-8.7,21.5-2-26,6.9-8.1,9,6.1,15.9,53,23.4-16,4.1-28-7.1-5-4.3-9.7,10.3-14.4,7.4-2.4-4.8,10.2-8,9.5-11.6-9.5-6.1-24.7-14.2-32.3-20.9,1.7-4.5-6.1-4.9-3.5.1-4.2,4.3-14.1,8.7-18.8,14.9-10.5,10.7-6-6.5,1.4-9.6C881.4,74.4,869,79,855.5,78.1Z"/>
	<path d="M992.8,124.1c14.2-9.2,26.2-19.5,38.4-29-2.6-3.9,3.3-.2.7-3.5,4.7-9.8,6-9.2-4.9-9.1-2.7-8.4,7.8-4.2,12.6-6.7-6.3-3-12.9-5.3-19.5-8.6-3-13.2,26.4,8.6,31.5,6,12.1-2.6,24.5-4.1,36.3-8,29.1-7.8-19.6-9.1-28.3-7.4-2.6,0-11.3.6-8.8-3.2-2.4-5.7-5.8-.4-2.6,2.5-2.3.2-1.7,2.8-3.6,3-9.2-9-34-5.2-49-6.9,1.4,3.4,20.7,2.2,20.3,9.8-7.6,4.8-22.1-7.4-32.8-5.9-3.4.7-1.8-11.8-6.3-5.4-.3,7.7-19.3.3-23.6-2.7-15.2-3-30.8,11.7-45.7,18.8-16.6-3.6,20.6-13.9,22.5-20.6-8.5,2.1-11.7-6.9-14.2-3.2-7.9,3-19.1-2.5-28.3-1.8-4.5,2.1-7-7.5-10.1-2.8-5.1,4.5-14.4,0-20.9,2.7-4.2,1.4-.9-3.9-4.1-3.9s-3.2,4.5.5,4.4c-6.7,1-13.9,1.9-20.8,1.6-4.5.5-18,3.7-17.4-1.5.4-.5,1.1-2.3-1-2.5,66.9-10.5,141.4,6.3,212.2,9,21.5,3.4,44.5,1.2,64.6,2.9,16.8.8,31.2,6.6,46.3,3,5.1-1.6,20.6,4,8.6,6.1-12.4-.8-27.5.3-34.5,12.9-5.8,3.5-11.9,10.8-12.6,16.9-4.6-1.8-9.5-4.6-2.8-9.1,21.1-23.3-2.5-11.4-19.4-7.3-7.6-.1-20,7.2-25.3,2.9,0-4.1-5.8-2-3.6,1.3,3,7.2-6,5.7-8,10.4C1030.6,104.9,1010.5,127.8,992.8,124.1Z"/>
	<path
		d="M552,91.1c.5-17,29.8-14.1-17.9-15.8-21.6,1.2-43.9,2.4-63.9,7.7-9.5,1.5-22.5,9.8-31.1,6-1-5.4,7.5-3.3,10.8-5.3-9.5-5.2,20.5-11.7,3.1-2.6-.8.2-.8.7.1,1,20.9-5.3,42.2-10.5,63.5-12,5.1,1,10.3,0,15.4.1,1.8-.5,5.1,8.5,7,1.5,2.9-5.2,27.2,3.4,12.1-7.1-2.4-2.4-10.1-1.3-8.8-6.1,1.3-8.3,19.9,8.8,27.7,10.6,7.3,4.5,16.5-11.5,21.7-1.5-5.6,5.6-16.5,5,1,6.5,17.5-.5,34.8,6.2,51.3.4,4.2-2.9,9.8-.8,3,2.2,6.1,2.5,13.9,2.2,20.5,1.4s15-1.8,22.2-2.7c-2.8,3.6,3.6,6.1,3.2,1.4,15.7-9,33.2,5.5,14.5-21.7,3.4-7.2,3.6,2.7,6.9,6.8,14.9,29.1,36.8-7.3,54-12.9-2.4,9.3-19.9,11.4-24.3,21.9,1.7,4.1,9,1.3,12.4,2.4.1,2.5,2.2,6,4.5,2.9,2.5-8.1,15.2-2.5,21.9-4.1,4.9-1.2,1.2,4.6,4.5,5-10,4.9-35.4-3.9-44.3,3.3,18.3,28.4,9.4,9.4-10,14.6-11.6-5.4-40.7,9.3-41.9,5.1,5-5.2,10.9-5.6,15.3-8.9-.1,6.2,16-1.1,22.4-.1,4.4.2,15.3,2.3,16.9-1.7-5.4-3.9-5-15.1-11.1-16.2-3.1,2.3.3,4-.3,4.9-5.6.4-10.7.2-14.6-2-4.5.7.2,3.2-.3,5-2.7,1.2-11,11.5-9.1,4,17.7-13.6-21-2.2-30-3-2.4-.5-7.6,2.6-8.3.9-.3-3.8-4.6-1.7-4.6,1.1-5-.2-13.9,2.2-17.2-3.2-5.4,1.3-12.4,2.9-19.7.5-6.9-.6-6.5.3-11-4.3-3.6-.3-1.3,4.9-4.7,4,10.1,4,65.1,22.4,56.3,35.6-4.6-.5-6.7-4.5-9.3-7.3-6.9-3.6-9.5,10.5-12.8,5.2-1.1-2.3,4.6-5.2,7.2-6.5,3.4-4.7-6.9-6.1-10.1-6.4,2.7-.1,4.2-2.9,1.5-4.4-5.2,4-7.3-1-13.7-3-9.8-7.8-14.9,2.5-18.7,5.6-3.3-4.9,8.4-9,3.8-11.8s-19.4-1.5-17.2-8.6c-5.8-1.8-2.1,2.6-4,3.6-5-3.9-16.4,0-17.1-7.6-4.3-4.3-7.3,8.9-12.7,5.6C567.3,73.5,557.9,91.7,552,91.1Z"/>
	<path
		d="M378.2,88.1c4.7-.5,9.8,1,14.2-.7.9-.1,2,9,5.6,2.9-3.4-6.7,15.1-1.5,21.3-4.2-2.7-5.7-15.6-10.4-20.2-16.3,9.7-4.4,21.3,22.4,32.3,15.3,6.7-4.7,22.7-3.6,6.2,0-5.2-.3-1.5,3.1-3.8,5-6.3,1.6,11.7,5.7,9.4,8-8.6.7-20-9.2-29.7-5.1-14.4-3.3-34.3,5.9-46.5-2.9-12.5,11.2-35.2,8.9-51.9,8.7,3.6,3.2,16.6,4.6,7.5,10.2-15.9-14.1-20.8,0-32.2,12.1-10.8,7.1-20.7,21.8-30.3,25.8-6.6-5.7,5.3-9.8,8.6-14s6.6,3.9,6.4-2.6c-7.9-4.7,37.3-28.8,22.6-33.2-3.6,1.4-19,4.8-19.6,1-.4-6.4,7.2-3.8,12.1-5,3.3-1.4,3.6-1.1,4.6,2.2,17-1.4-29.2-22.5-10.7-25.2,6.7,6.5,15.6,19,24.4,19.1,9.6-11.5,28.4-10.9,39.4-19.2,19.1-6.7-19-4.4-1.4-8.8,14.5,4,7.9,7.1,20.9-2.1,2.7-2.5-10.1-8.1-10.3-6.7-4.6-3.4-11.1-8.2-17-11.2-14.4-8.1-30.7-5-46.2-6-8.5-2.5-2.9-8.2,4.2-6a60.9,60.9,0,0,0,21.2-1.1c3.7-.3,0,4.3,3.1,4.1,3.5,1.5,1.7-3.4,4.1-3,5.5,1.1,15.8-2.6,19.2,2.1s2.9-4.2,7.3-3.1c10.5.1,27.7-7.3,35-1-14.9,7.5-39.1,5.5-56.9,7.5,16.6,2.9,31,23.2,46.6,19.7-.4,11.2,13.2,6.9,17.3,15.2-8.7,1.4-17.5-12.4-25.4-5.2-8,3.7-20,14.2-27.1,12.8a2.3,2.3,0,0,0-4.3.9c-.6,2.7-10.5,7.4-11.1,5.5-3.4-8.6-3.4,4.9-7.9,4.9-2.8,2.3-8.2,2.4-8,6.8,8.3,4.1.6-3.8,6-3.2,11,6,25.2-3.3,34.5,2,1.3,2.9,5.1-.7,4-2.9C359.6,86.5,371.5,88.9,378.2,88.1Z"/>
	<path d="M418.6,30.2c-101-2.9,119.8-9.9,137.3-7,2-.5,1.3,3.8,1.4,5-7.7-1.5-19.1,5.9-24.3,4.5-4.1-3.8,1-1.4,2.9-3.2-3.6.1-6.7-2.9-10.2-.5-9.4-4.6-2-5.8-11.3-.8-16.3.8-42.9-1.8-54.1,2,6.5-.2,5.1,1.7,2.2,5.9-6.5-2.6-14.8-2.3-20-6.8-3.6,1,.9,5-1.8,4.8s-8.2,1.1-9.9,3.8c-11.9,7-25.7,5.1-6.5,14.3,4.2,9.8-9.9-5.6-16.2-4.1-9-1.2-19.1,10.4-26.1,7.8C374.9,45,460.2,30.3,418.6,30.2Z"/>
	<path d="M32.2,249.3c10.1-26.4-.5,50.5,31.2,24.9,2.9-.2,11-8.7,10.8-4.5.2,2.1,1.7.9,2.7,1.1s1.9-3.4.5-3.9-1.1-.9.5-1.3c5.3-7.2,16.8-7.9,20.2-17-.9-1-4.3-1.8-1.4-3,1.4-1.8,10.9-3.8,11-1.7-1.7,1.5,1.2,6.8,2.8,4.1s.6-5.1,3.5-6.4,9.4-9.4,14.6-5.9c.8.8,1.8-.2,1.6-1.4-1.4-6.7,11.4-9.5,15.7-14.7,2.7-2.7-.5,3.9,3,3.5-1,8.5-34.7,17.6-23.3,21.9,2.4,5,9.1.2,11.6,2.9.5,4.3,3,.2,4.7,1.3,0,2-1.1,5.4-3.4,2.7-29.4-14.6-48.4,17.3-73.6,28-7.4,5.5,8,1,3.3,7.9.1,4.3-13.5-.7-16.3-1.8C34.2,285.1,34.8,262.2,32.2,249.3Z"/>
	<path d="M265,33.2c-29.2,1.3-56.2-10.7-11.4,10.8,11.2,15.2-4.3,3.1-12-.8s-20.8-10.8-30.4-5.9C205.7,39.5,184.7,61,188,48.9c3.9-6.9,18.9-12.6,19.8-17.7-7.4-1.2-27.1,7-25.9-4C193.2,23.1,321.2,27.4,265,33.2Z"/>
	<path d="M143.1,271.8c33.1-3.9,20-3,3.1-20.1,7.5-.9,13.3,10.8,20.8,12.4,2.6,2.3,9.8.6,9.1,5.3,6.3,6.4-34.7,7.3-42.3,9.5-12.6-.5-29.1,11.9-36.4,2.2,10.2-3.9,15.4-5.4,23.5-2.7,1.2-1.3.1-2.5-1.7-3A219,219,0,0,1,143.1,271.8Z"/>
	<path d="M157.1,71.3c.7-4.2-3.8,0-2.4-4.2-3-5.2-21-13.3-10.5-13.5,14.1,18.2,21.9,4.7,37.7-2.2,2.3,21.8-47.8,6.8-.8,38.8,2.5,1.3.2,3.6-1.9,3.4-22.5-27.1-27.9-14.4-53.7-5.2,3.1-2.2-3.6-5,.1-5.3,9.4-3.4,16.9-9,26.1-13.1,1.1-.7,1.4-1.2,1.5.6C152.2,74.2,158.1,73.9,157.1,71.3Z"/>
	<path d="M669.9,301.8c-28.7-.9-57.4,1-87-5-28.6-2-29.8-11.2-.5-3.1,7.9.8,16.6,4,25.4,3.4,1.3,3.7,8,1.3,10.9,1.7s-2.8-1.6.2-3c9.7-.1,16.6,1.5,26.2,2.1,6-2.1,16.1,0,23.4.9,13.1.5,28.8-3.6,42.4-4.4C700.3,302.4,683.5,300.9,669.9,301.8Z"/>
	<path d="M469.6,32.3c23.6,8.6,21.3,13,45.3,3.4-1.1,5.6-9.8,3.9-12.8,8,13,3.4,27,3.7,39.2,10.3-11.8,11-41.9-17.4-55.8,1-6.6-3.5,6.9-6,4.7-8.9C484.7,42.3,460.9,39.3,469.6,32.3Z"/>
	<path d="M590.6,25.3c13.2-.6,26.1-1.6,39.3,1.3-3.8-.3-3.3,5.6.1,4,.6-6.4,31.9-.7,38.5-.5-8,11-37.3.8-51.8,1C610.5,29.8,567.3,31.1,590.6,25.3Z"/>
	<path d="M399.7,139c-1.9.4-16.2-3.5-11.6-.9,8.3,5.3,2,2.7,1.5,8.9.2-3.1-8.9-4.2-6.6-5.9s3.2-4.5.5-4.1c-4.5,3.6-9.7,1.9-14.7-2.7-7.6,2-15.4,5.3-23.1,6.5-5.7-7.4,22.8-1.6,19.9-14.7C369.7,132.5,417,136.7,399.7,139Z"/>
	<path d="M513,268c1,7.5-14.4,3-14.6,7.6,1.8,1.7,14.4,2.5,9,6.1-6.4-4.6-54.8-7.6-47.6-14.8,12.1,3.2,31.4,12.2,39.9,1.9.8-1.8-2-4.3.4-4.9s1.6-2.8,3.6-1.8c3.7.6.6,7,3.4,6.7S513.7,263.7,513,268Z"/>
	<path d="M148,26c6.9,2.8,39.9-2.8,27.7,6.2C162.7,34.5,104.5,31.4,148,26Z"/>
	<path d="M752.9,276c-1.7,5.4-12.6,2.3-15,8.3-5.2-.6-22.3,16-23,7.5,3.5.5,1.2-2.5,2.6-3.9,4.4,5.2,13.3-7.2,18.9-8,9.2-4.4-17.1-2-18.5-7.8.9-2.9,7.5.1,9.7.7,4.8-1.9,8.3,1.6,13.4,2C743.7,274.9,753.8,272.7,752.9,276Z"/>
	<path d="M762.1,105.1c-7.1,2.9-21.8,9.1-31.1,9.2,5-6.2,16.9-4.7,20.9-9.3-.2-.8,5.3,2.6,4.4-1-4.8-7.8,14.1,4.2,20.4-1.9,4.8,4.3-6.9,4-8.6,4.5,4.7,5.1,15,10.4,22.6,13.4,1,10.1-19.6-9.6-26.5-10.8C761.6,108.3,766.6,105.1,762.1,105.1Z"/>
	<path d="M803.4,97.1c12.6-1.8,18.2,7.1,28.3,13.5,5-2.1,17.1-15.3,20.2-10.3,5.9,4.8-15.1,12.5-20.2,12.2-9.1-1-13.1-13.1-22.8-12.5C800.3,102.2,786.9,96.8,803.4,97.1Z"/>
	<path d="M358.6,128.3c-5.5-6.5-28-10.2-29.5-20.1C328.1,102.2,376.1,127.3,358.6,128.3Z"/>
	<path d="M302.2,141.8c6.2.8,12.5-2.1,18.8-.2,2.5,7.5,14.2,10.3,17.9,18.1-10.3-.7-15.8-15.6-27.5-14.7-6.9-.2-13.6-.2-20,2C283,143.3,298.7,142,302.2,141.8Z"/>
	<path d="M552.3,91.3c-5.6,5.6-30,32.9-22.4,14.4C537.8,99.7,543,86.6,552.3,91.3Z"/>
	<path d="M820.4,240.9c-.3-8.1,22-15,27.9-22.8C886.7,197.6,830.3,236.2,820.4,240.9Z"/>
	<path d="M554.4,291.8c-10.2-5.7-33.6-4.4-38.5-12C521.1,279.5,574.2,289.8,554.4,291.8Z"/>
	<path d="M97.1,286.2c-2.3,3.8-31.1,7.1-24.2-1.5C80.6,285.5,95.3,277.6,97.1,286.2Z"/>
	<path d="M450.1,131c5.9,1.9,34.2-3.7,29.9,3-14.2-1.8-35.4,2.8-47.9-.6C436.6,130.5,445.7,130.9,450.1,131Z"/>
	<path d="M165.1,140c3.4,2,10.2,0,12.1,2,9,5.6,25.5,2.5,32.9,10C207.3,152.3,147.4,141.4,165.1,140Z"/>
	<path d="M578,181.7c-4.6,12-18.8,22.3-29.4,28.1.3-8.4,14.7-11.7,19.6-17.6C571.7,189.9,573.5,179.2,578,181.7Z"/>
	<path d="M874.4,140c-4.4-6.9,9.3-8.6,12.9-12.8,5.5-3,11.8-10.6,17-11.3C901.7,127,881.3,131.1,874.4,140Z"/>
	<path d="M770.7,271.9c-5.1-2.7-11,7-15.1,1.9,6.8-5,19.3-8,24.3-16.7,2.8-3.3,3.7,6.1-.8,6.8C775,266.1,773.9,269.6,770.7,271.9Z"/>
	<path d="M271.8,174.7c-23.5,13.7-12.3-1.1,2.3-3.3C292.5,184.2,292.5,189.5,271.8,174.7Z"/>
	<path d="M543.7,118.1c-34.9-2.7,17.7-3.3,26.8-2.1C578.4,122,547.1,117.1,543.7,118.1Z"/>
	<path d="M583,120.1c-20.2-2.4,8.1-4.6,14.8-2.7-3.9,3.4-8.5,11.9-13.3,10.7C587.5,122.8,593.9,119.1,583,120.1Z"/>
	<path d="M571,29.2c-4.6-.3-9.8,2.1-9.3-4.7.1-3.6,10.2.4,13.7-.3C584.1,25.1,577.2,31.3,571,29.2Z"/>
	<path d="M463,73c-3.2-.9,3.8-4.1-.9-4-2.4.3-9.2-4.1-4-4.3,9.3,6.5,13.5-5.1,20.6-6.3C481.3,59.4,465.1,74.6,463,73Z"/>
	<path d="M574.7,258.7c6.5,6.4,21.9,15.3,18.7,25.1C592.2,273.4,571,265.3,574.7,258.7Z"/>
	<path d="M653,70.9c2.2-7.2,13.7-19,21.8-21.3C669.9,56.7,661,65.4,653,70.9Z"/>
	<path d="M777.8,195.9c-5.8,2.2-5.1.4-3.1-3.8,3-.1,6.1,2.8,8.7.9,4,3.2-2.3,5.3-3.8,8.1-3.5.8-4.7,8.3-8.2,5.9S781.8,197.9,777.8,195.9Z"/>
	<path d="M93.2,243.4c-.5,10.2-35-13.6-16.2-6.1C81.1,242.5,92.1,238.2,93.2,243.4Z"/>
	<path d="M48.1,218c3.3-3.3,16.2,10.4,20,14.4C64.5,235.9,50.8,222.1,48.1,218Z"/>
	<path d="M769.9,209.1c-.7,5.3-10.9,18-15.9,14.9C755.7,221.2,769.3,204.3,769.9,209.1Z"/>
	<path d="M316.1,56.2c3.4,1,23,1.1,17.6,6C329.1,62.2,301.1,57.7,316.1,56.2Z"/>
	<path d="M562.7,150.3c-.1-7.2,13.8-12.5,18.6-19C586.9,135.2,567.5,146.4,562.7,150.3Z"/>
	<path d="M453.3,65.5c-2.5.6-28.5-7-23.3-10.8C436.9,59.4,449.2,57.6,453.3,65.5Z"/>
	<path d="M471.9,211.2c-9.2,1.1-17-2.9-2.6-4.2,5.1,3.4,12-2.2,15.7-.3C485.3,212.2,475.5,209.8,471.9,211.2Z"/>
	<path d="M636.2,129.6c-1.8,4.8-3.4,3.5-.3,6.9-4.6.7-9.6.9-12.6,5.8C613,144.7,637.5,124,636.2,129.6Z"/>
	<path d="M643,292c4.1-4.8,13.1-6.7,19.2-10.9C664,286.6,647.5,294.7,643,292Z"/>
	<path d="M818.2,241c2.1,4.4-11.7,7.6-15,10.5C788.8,255.1,812.6,240.8,818.2,241Z"/>
	<path d="M410.4,139c-11.7-3.3,14.2-5.5,17.4-5.6C429,140,415.2,137.2,410.4,139Z"/>
	<path d="M801.9,183.2c-5,1.6-12.2,11.9-16.9,8.4C789,188.4,798.6,175.9,801.9,183.2Z"/>
	<path d="M800.2,78.2c5,2.8,19,18.1,11.7,17.4C809.5,89.2,798.4,84.3,800.2,78.2Z"/>
	<path d="M947.9,94.3c2-4.4,15.5-5.9,19.9-6.5C968,91.5,948.3,97.2,947.9,94.3Z"/>
	<path d="M236.2,250c-6.7-1.2,11.5-11.4,14.9-13.1C250.3,243.5,241.6,247.3,236.2,250Z"/>
	<path d="M349.4,169c3.8,1.4,20.9,15.5,10.3,12C357.9,178.3,341.3,168.8,349.4,169Z"/>
	<path d="M532,256.2c-1.2,4.2-12.5,12.1-16.9,9.1C518.4,262.6,528.9,254.5,532,256.2Z"/>
	<path d="M614.9,292.2c-2.6,3.1-4.6-.1-7.3-1.2s-11.2-4.8-10.2-9C603.2,284.5,608.9,289.4,614.9,292.2Z"/>
	<path d="M678.3,272.6c1.5.7-10.9,10.3-12.1,8C663.3,280.4,680.5,262.9,678.3,272.6Z"/>
	<path d="M796.9,251.9c-1.2,5.4-8.5,6.8-12.6,8.9C782.3,255.7,795.7,248.5,796.9,251.9Z"/>
	<path d="M506,202.9c.3,4.6-6.6-.2-8.4,3.9-2.5-.5-9.7,2.2-8.9-.9S504.8,199.8,506,202.9Z"/>
	<path d="M600.8,115.3c-2.8-3.9,7.4-11.5,11.5-13.3C615.9,105.1,603.6,112.1,600.8,115.3Z"/>
	<path d="M759,189c2.7,1.9,15.5.4,10.9,4C769.6,197.5,745.5,189.3,759,189Z"/>
	<path d="M440.1,258c3.8-2.3,26.7,14.3,7.6,6C444.5,262.9,439.5,262.4,440.1,258Z"/>
	<path d="M725.6,115.1c10.6-.2-14,11.6-14.4,5.8C715.5,119,721.5,117.1,725.6,115.1Z"/>
	<path d="M340,139.7c-.4,5.2-10.4,1.3-14.1,4-1.4-1.5-.5-3-3.7-3.1C326.4,140.1,338.7,137.6,340,139.7Z"/>
	<path d="M457.6,106.2c1.4,4.6,7,7.4,11.1,10.1C470.2,123.1,452.3,111.3,457.6,106.2Z"/>
	<path d="M589,64.1c2.1-1,8.9-2.9,10.9-.8C600.3,70.2,590.9,69.4,589,64.1Z"/>
	<path d="M234.1,131.5c-3.8-.1-2.4,3.8-4,2.9C217.8,120.8,222,122,234.1,131.5Z"/>
	<path d="M614.3,145c5.3-.1-9.2,12-8.3,4.1C608,147.8,611.3,145.2,614.3,145Z"/>
	<path d="M445.3,98.2c2.6,2.7,9.7,5.4,8.4,9.7C450.4,106.3,443.1,102.6,445.3,98.2Z"/>
	<path d="M640.1,128.5c-4.6-4.5,4-6.9,4.9-11.8C650.2,118.6,641.9,125,640.1,128.5Z"/>
	<path d="M521.2,36.4c-10.4-1.6,5.7-4.9,7.7-4.5C530.4,35.3,522.8,35.2,521.2,36.4Z"/>
	<path d="M781.9,102.2c-1-2.3,9.9-5.8,9-2.1C790.5,102.1,781.2,105.6,781.9,102.2Z"/>
	<path d="M739.9,259c-2.1-6.2,10.5-.7,7.3,2.1-.8,1-2.5-.3-3.7-.3S740.2,261.5,739.9,259Z"/>
	<path d="M282.9,149c-8,.2-1.3-4.6,3-3.9S286.1,150.3,282.9,149Z"/>
	<path d="M481,264.2c-2.2,1.9-7.9,3.6-11,3.1C473,264.5,477.2,261.8,481,264.2Z"/>
	<path d="M703.8,45.5c1.1-3,3.3.4,3.9,1.9C710.1,52.8,703,50.8,703.8,45.5Z"/>
	<path d="M737.9,257.7c-.8,0-1.5.5-1.8-.5S737.5,256.5,737.9,257.7Z"/>
	<path d="M461.2,77c1.7.7-.4,1.5-1.2.6Z"/>
	<path d="M83,259.2c-.1.4-.4.9-.6.3S82.7,258.7,83,259.2Z"/>
	<path d="M236,252.5c-.4.6-.5.1-.7-.3S235.8,252.1,236,252.5Z"/>
	<path d="M469.6,266.8c-.5-.4-.5-.8.1-.7S470.2,267,469.6,266.8Z"/>
	<path d="M214.3,150.4c.4-.6.5-.2.6.3S214.5,150.8,214.3,150.4Z"/>
	<path
		d="M751.5,232c-4.8-2.3-11.1,6.3-17.9,2s-11.5-3.2-16.9-8.8c-6,2.5,7.6,8.1,10.9,8.9,3,5-22.3,2.9-20.4,5.8,4.2.1.6,7.1-2,2.7-.6-1.2.2-3.3-1.8-2.7-19.8,1.6-43.1,6.1-64.4,5-23.8-3.5-8.8-4.5-14.5-11-6.2-.5-9.1,7.7-14.7,5.3-12.6-4.3-27.2-17.5-38.2-11.4,2.3-9.3-10.9-7.7-17.9-12.9-12-4.4-22.1-12.7-33.5-15.4-3.5-.2,9.4-8.6,1.6-6.9-12.4,10.1-26.2-8.8-40.5-8.9-16.9,1.5,39.4,20.6,43.2,24,7.8,3.5,13.1,4.4,3.4,10.3-3.8,1.1-12.6,12.1-5.7,9.3,16.4-23.6,36.5-.6,57.4,4.7,27.4,11,3.1,7.1-9.5,8.5-20.7,9.3-56.7-2.2-75,10.4-3.2-9,17.7-12.5,22.9-19.5,1.9-8.2-20.8,10.2-24.6,12.3s-10.3,4.7-16,2.2c-1.4,1.4-3.8,6-6.8,1.1a168.8,168.8,0,0,1-13.4-16.7c2.7-3.2-.5-2-1.7-2.5-24.8-23.2-25.4-12.1,1.6-17.4-4.1-4.4-14.8.9-20.6-2.3-1.9-1.5-5.8,6.9-7.3.9,0-5-9.6-2.1-8.3-5.4,15.1-8,2.1-13,16.4-11.4,3.2-4.5,18.4-10.8,14.9-15.1-4.4-2,3.3-6.8,2.8-2.3,2.2,5.5,15.4,12,19.9,5.5-3-2.1-11.8-3.7-3.9-5.3,24.5-1.7,104.2-23.2,55.7,14,3.4,7.6,13.3-10.2,17.8-13.1s1.9-10.1,6.3-8.7,19,5.5,18.5-2.8c7.3-1.2,1.2,6.4,11.7,4.6,2.3,2.1-2.5,7.6-4.9,8.6,6.5,1.9,4.1.9,8-5.2,14.2-6.9,29.7,15.2,39.3,27.4,11.7,7.2-14.3-24.9-18.7-24.9-4.6-4.9.2,0-.1-6s-22.4-.5-9.3-7.7c1.5-2.7,9-5.6,6.9-8.2-6.6-.4-7.7,8.8-14.4,8.6-8.4.9-47.6,6.8-29.6-8.6,5.8-6.1-8.9-1.4-6.2,4.4-7.4,11.7-16.9-10.1-24.8-14.6C508,127.9,535,156.1,541,160.5c-12.9,3.7-29.3,1-43.2,4.6-7.3.1-21.3,6.6-25.7,1.9,9.5-12.2,19.9-27.5,34.7-33,5.3-3.1,12-12.6,19.6-15,2.4-2.5-1.2-5.6-.7-8.7-29.6,39.5-55.2-1.5-52.1,12.6,5.8,2.7,16.6,7.1,19.6,9.1-8.3-1.4-10.7,3.7-1.2,3.1-.7,6.2-17,11-16,20.6-5.8,2.8-12.4,12.3-21.2,14.9-7.8-1.4-12-5.6-18.3-1.8-2.1-7.2-9.7-6.9-16.2-9.8-2.4-.9-3.2-3.2-4.8,0s-5.6-2.4-1.7-3c-.3-2.7-13.8-6.7-18-11.9-.6-.4-2.1-2.1-1.7.5-2.4,3.2-1,4.7,2.1,7,6.4,4.9,6.9,6.1,13.3,2.5,4.5,1.5-2.9,6.3,2,6.9,5.7,3.8,36.7,10.2,24.5,14.1-11.4-.4-23.9,1.7-34.9,3.4,6.2,1.8-2.8,7.8-3,2-28.3-5.4-77.1,21.6-107,2.2-2.7,5.9,6,5.9,11.8,8.6-16.9,1.2-85.6,9.1-47.2-6.4-4.8-6.1-20.1,8.5-28.7,9-10.1-1.5-21.7,1.4-31.7-1.6,7.1-1.7,13.6-6.6,20.5-9.5,8.5-6.5,21-18.2,27.2-21.8-2.4.6-1.9-2.1-1.6-3.8,2.7-.7,3.6,2.8,5.9,1.2,9.5-11.6,14.2,12.5,20.8,10.5,2.4-2.9-8.8-12.3-12.3-15.7,1.5-2.3,12.6-1.3,17.3-2.2,9.3-8.9-20.1,4.5-17-6-8.1,8-13.7-4.3-19.9-9.7-11.1-.5,16.3,14.6,10.5,17.6-9.9,8.3-22.5-1.2-32.5,1,6.3,5.4,28.5,3,12.7,11.9-9.9,9.5-20.4,14.1-31.1,21.2-9,3.2-9.4,5-22.6,1.1-4.9,7.2-15-3.2-21.4,3.8-2.6,0-4.6-2.9-7.7-2.4-12-3.4-39.2,2.8-43.2-3.7,5.1-2.1,37.5-10.6,26-16-26.1,12.2-89.1,28.7-93.2-11.6,4.6-28.2-13-27.8,70.1-2.1C24.4,122.8,27.3,116.4,43.2,127c3.8,3,7.6-2.4,3.6-4.7C6,79.1,63.1,104.8,86.3,99c17.6,6.6,41.8,35.2,46.8,52.2,6.4,6.4,19.2,12.5,20.2,23,3.6,7.3,22.1,10.9,16.7,9.1-12.8-13.5-21-31.7-35.1-44.3-8.3-9.4,26.7,9.2,21.4-.9-15.6-1.3-33.1-6.6-39.2-24.2-12-11.9-18.8-15.9,4.3-12.7,30.4,4,63.4-4.1,91.1,16.9,11.8,2.8-11.3-12.2-16.8-12-38.2-11.6,99.3,5.4,75.7-10-10.9-2.4-48.7,7.5-44.6-2,13.1-8,32.5-32.2,51-22.1-.7-4.9,5.1-3.2,1.8-5.9-8.5-6.7.6-4.3,6.2-5.2.3-3.1,2.1-.7,2.9-.7,4.3-1.6,19.4,1.6,17.6-4-9.1.2-17.5-1.3-25.8,1.9-7.5.5-13.6-5.9-20.2-5.5-1.4,7.7,19,11.9,2,14-24.6,11.2-38.9,35.4-69,29.5-11.6-1.6-20.8,5.2-34.9,3-6.5-3.7-61.8-2.8-41.5-6.5,8.2-4,7-.8,5.3-7.5-6.5.3-16.8,5.8-24.9,6-7.2-4.3-14.5-16.7-24-15,.7,2.6-3.9,2.9-4.1,1C5.8,7.1,12.4,48.8,95.8,35.3c14,4,28.5,10.8,41.2,15.5-2.5-10.1-43.4-14.3-28.8-17.5,36.4-.3,16.6-11.7-8.3-4.3-24.8,5.7-52.3,5.3-76.3-2.1C18.3,19.3,17,7.4,7.8,4.2,5.4,1.9-.4,3.4,1.6,7s9.1,2.2,7.7,8.5C19.4,26.9,23.4,43.9,26.1,58.1c-1.5,16.4,5.2,34.2-1.3,49.9,2.7.6.5,5.8,1.5,8,.1,5,1.9,11.1.4,16,1.8,31.8,1.2,77.3,5.4,109.2,0-2.1,2.8-1.5,4.1-.8,3.6-1.6-1.1-10.4.5-14.4,1-13.5-5.9-16.8,8.5-10,2.4-5.9-11.3-6.3-10-13.1,1.6-9.7-6.7-26,9.3-17.1,1.6.8,9,2.8,8.7-.4s4.9-2,4,.2c-1.9,4.7,14.4,4.4,14.4,2.6s2.5-1.7,3.6.9,8.2,2.6,11.6,3.8c7.5-8.1,3.4-1.4,9.5,1,10.1,0,32,7.9,34.4-2.9,6.3-1.4.5,5.5,4.7,5,12.4.1,30.1.2,39.1,3.1-7.5,8.2-34.1,15.4-22.3,22.8,3.6-.7,5.9-7.4,11.4-6,.8.3,1.9-.4,1-1-2.9.6.6-3.4,1.3-4.1,4-3.9,10.3-3.9,12.1-8.8,7.7-3.9,18.4,5.5,23.6,2,.9,3.6,2,5,5.5,6.6,7,4.3,16.9,6.2,22.7,12.1,2.1-2.3,5.3,3.4,7.8,2s7.6-2,7.5.6c-3.6,10.6,13.5,1.7,6,11.6,1.9-1.1,5.5,2.4,5-.9,1.6-4.9,21.9,3.6,26.1,7.5,15.2-5.1-12.9-11.8-19.1-14.6,13.3-10.1,31.6-31.5,51.6-31.1,13.1-5.1,21,15,30.7,16.2-3.2-6.1-12.1-14.1-19.5-18.1,25-8.1,77.6-10.3,113.5-15.9-10.1,19-46.2,30.2-68.3,40.3-7.4,10.8-23.9-9.6-19.6,1.5,18.3,9.2-3.9,4.9,1.6,13.1-1.5,6.2,24.5-10.7,21.5-14,2.5-3.7,3.9,1.9,5.9,1.3,7.5-1.9,13.9-4.8,20.6-8.1,4.4-.2-3.8-5.5,2.7-5.1,6.4,4.5,11.7-5.8,19,.3,12.1,5.1,29.9,16.3,33.9,25.8,22.5,21.8-5.3,10.6-20.6,14.7-32.3-2.9-62.9,0-94-5.5,1.2-3.3,9.3-2.9,8.9-6.9-1.1-8.3-6.9-1.9-10.7,0-9.2,5.3-20.3,11.1-30.5,14.4-5.9-1.9-18.4-15.5-19.7-7.9-3.5,1.7-2.2,1.4.7,3.1,1.3,3.4,17.8,6.9,11.3,9.9a159.6,159.6,0,0,1-43.6,5c-16.2-2.8-61.4,10.1-27.7-9.8-14.8,3.8-31.7,16.8-49.5,14.8-6,10.7,17.3,3.7,22.8,3.5-4.2-.4-4.1-5.5.4-4.6,4.3,8.2,16.9,1.4,26.1,3,2.5.7-1.3-4.6,2.3-4.9s2.6,7.1,7.1,4.6c6.5-1.5,12.9.2,19.4-.6,2.9.5.8-7.4,5.1-3.1,3.4,8.5,28.2.3,32.1-4.9,3.9,10.5,33-11.5,47.5-9,3.2,1,7.3-1,8.4,2.9,2.5-6,6.3-1.4,9.2-.1,4-4.5,19.3,2.7,26.5.3,3.3,2.3,5.3-3.3,8.8-1.6,10.1,3.7,28.5.9,38.1,7.8-1.4-11.5,17.2-.4,26.9-9.2,6.6,9.8,27-3.2,33,5.8,5.5-.1-2.6-5.4,6.4-5,11.8-.2,25.3.6,36.8-1.9,1.9.6-1.4,1.6-2.1,1.9-1.9,6.2,7.7-1.3,10.5-1.9,8.1-3.7,30.4,13.7,16.5-1.2,3.7,0,7.3-4.6,9.9-4.3,1.4,3.9,4.1,1,7.1,2.4,5.8-4.8,23.3,4.6,17.9-5.1-.2-4,6-.5,3.7,1.9s.3,1.6.7,2.1c10.9-1.2,22.8,5.2,34.1,4.2,9.6,4.9,18.9,0,29,0,4,3.2,20.5,7,16.7,13.3-1.3,2.7-2.3,3.5-4.2,5.6,2-.6,3.7,2,5-.4,2.7-15.8,45.4,17.3,27.2-1.7-10.1-5.1-29.2-5-6.5-16.8,5.1-3.2,8.2-7.3,14.8-6,5,1.5,3.5-10.2,7.5-3,8.4,2.5,19.4-3,29-2,1-.5,2.3-.6,1-2.6s4.7-3.3,4.8-.7c3.4,3.6,10.9.5,15.3-.7,1.7-.5-1.1-.9-1.1-2a2.4,2.4,0,0,1,2.8-2c2.7-1.1,1.4,3.8,3.6,3,5.9-3.4,18.8-2.6,20.5-8.5C790.9,218.9,765.8,236.6,751.5,232ZM30.8,50.1c2.1-3.4,9.2,5.8,14.3,6.6-4.4,4.5,4.4,9.1,9.7,12.6,9.2,10.6,52.8,22.9,19,23.8C32.3,89,32.4,90.8,30.8,50.1ZM292.7,200.8c-4.3,3.2-7.6,7.9-12.6,10.1-2.5,2.3-3.1,4.3-6.6,4.9-6.1,3.3-12.1,11.6-19.4,10.5-7.9-4.3-25.3-8.5-30.3-16.4a43.3,43.3,0,0,1-19.4-8.2c-14.7-5,23.8-.9,30.6-1.8,4.6.8,1-2.6,2.7-4.8s4,.8,3.3,3.1c2.7,4.9,18.2.4,25.5,1.7,5.6-.1,6-7.7,11.4-.9,2-.5,2.7,0,3.9,1.7C283.6,198.2,293.7,197.5,292.7,200.8ZM32.1,241.2a2.2,2.2,0,0,0,.1.8A1.9,1.9,0,0,1,32.1,241.2Zm130.9-55c4.4,4.6,4.6,4.6,10,1.7C172.2,187.4,153.2,177.4,163,186.2Zm-54.9-28.1-4.3-2Zm51.1,23.6c-10.5-9.3-24.7-11.4-51.1-23.6C131.8,169.2,148,176.7,159.2,181.7Zm14.3,6,.5-.6C173.8,187.3,173.3,187.6,173.5,187.7Z"/>
	<path d="M687,248.2c23.7-3.1,5.8,2.3-.7,10.4C674,250.8,667,247.3,687,248.2Z"/>
	<path d="M188.1,196.2c.6-2.6,4.8-.4,5,1C193.2,201.1,187.6,201,188.1,196.2Z"/>
	<path d="M328.1,250c.9,2.6-4.9,2.8-4-.1C323.4,247.1,329,246.9,328.1,250Z"/>
	<path d="M300.1,196.3c.6,2.6-5,2.5-4-.6S301.1,193.1,300.1,196.3Z"/>
	<path d="M361.6,251.9c-.4-.4-.4-.8.2-.8S362.3,252,361.6,251.9Z"/>
	<path d="M31.1,47.8c-.4.6-.6.2-.7-.3S30.9,47.4,31.1,47.8Z"/>
	<path d="M293.7,198l.3.3C293.6,199.4,292.7,198.5,293.7,198Z"/>
	<path d="M104.7,100.1c-.4-.4-.4-.8.2-.8S105.4,100.2,104.7,100.1Z"/>
	<path d="M756,156c-6.5-.1,2.6-8.8,2-1C757.9,157,756.6,155.5,756,156Z"/>
	<path d="M1076.3,120.1c.2.4.5.7,0,1S1075.8,120.4,1076.3,120.1Z"/>
	<path d="M770.9,37.2c1.4-2.1,4.6-.3,4,2A2.2,2.2,0,0,1,770.9,37.2Z"/>
	<path d="M1113.8,61.7c-.3-2.9,5-1.7,5,.5S1112.6,66,1113.8,61.7Z"/>
	<path d="M1078.3,70.1c-1.2,1.4-2.9,1.3-2.5-.5S1077.3,69.5,1078.3,70.1Z"/>
	<path d="M589,64.1c3,.1,3,.1,3,4C589,68,589,68,589,64.1Z"/>
	<path d="M120.3,152c-14.2-3.3-38.5-3.8-47-12C77.7,139.9,136.9,150.9,120.3,152Z"/>
	<path d="M49.9,129.4c5.5-4.5,12.8,6.5,19.3,7.6C73.1,145.6,52.4,130.7,49.9,129.4Z"/>
	<path d="M144.5,167c14.4.7-5.5,5.4-10.3,3.5C134.6,166.7,141.4,167,144.5,167Z"/>
	<path d="M411.8,159.3c-1.9-1.7-6.7.4-6.8-4.4C405.7,145.8,424.6,158.3,411.8,159.3Z" style="fill:#fff"/>
	<path d="M711.2,86.6c-1.2,2.8-6.5,7.4-9.9,6.4C695.5,90.1,711.1,78.9,711.2,86.6Z" style="fill:#fff"/>
	<path d="M857.2,97.9c-1.7,9.1-11.5-2.5-3.5-3.7C856.2,94.2,856.2,96.8,857.2,97.9Z" style="fill:#fff"/>
	<path d="M406.1,209.1c.2,3.8-6.6,4.4-6.3.3S405.6,204.9,406.1,209.1Z" style="fill:#fff"/>
	<path d="M457.2,62.9c.3,4.7-6.5,4.2-6.4.1S457.3,59.4,457.2,62.9Z" style="fill:#fff"/>
	<path d="M236,264.9c.3,2.3-1.2,2.8-3,2.9C224.6,267.4,235.2,255.9,236,264.9Z" style="fill:#fff"/>
	<path d="M530.2,110.8c.2,4.6-6.4,4.2-6.4-.1S530.2,106.8,530.2,110.8Z" style="fill:#fff"/>
	<path d="M907.2,135.7c4.3,0,3.7,7.6-.5,6.6C902.5,143.1,903.4,135.6,907.2,135.7Z" style="fill:#fff"/>
	<path d="M606.2,171.1c-3.9.4-4.4-6.6-.2-6.4S610.5,171.1,606.2,171.1Z" style="fill:#fff"/>
	<path d="M755,188.8c.1,2.3-1.1,3.2-3.3,3.3C743.8,190.9,754.1,180.6,755,188.8Z" style="fill:#fff"/>
	<path d="M515.7,31.9c8.7.4-1.5,12-2.7,3.2C512.9,33,513.8,32,515.7,31.9Z" style="fill:#fff"/>
	<path d="M68.9,235.9c-2,0-3-1-3-3.1C67,224.6,77.5,235.4,68.9,235.9Z" style="fill:#fff"/>
	<path d="M811.9,36.8c4.1-.5,4.1,6.8-.1,6.5S807.9,36.1,811.9,36.8Z" style="fill:#fff"/>
	<path d="M701.9,38.8c4.1-.3,4.4,6.6.1,6.2S697.9,38.7,701.9,38.8Z" style="fill:#fff"/>
	<path d="M849,220a2.9,2.9,0,0,1-2.9,3C837.6,222.9,847.7,211.1,849,220Z" style="fill:#fff"/>
	<path d="M1093.2,85.9c3.9-.5,5.6,5.9,1.1,6.1S1088.7,86.2,1093.2,85.9Z" style="fill:#fff"/>
	<path d="M908.9,113.1c-.1,4.1-6.7,4-6.2-.2S909.3,108.9,908.9,113.1Z" style="fill:#fff"/>
	<path d="M796,120.4c.4,4.4-6.1,4.9-6.3.5S795.8,116.6,796,120.4Z" style="fill:#fff"/>
	<path d="M294.4,263.1c-4.3.6-4.7-6.6-.7-6.4S298.3,263.2,294.4,263.1Z" style="fill:#fff"/>
	<path d="M405.7,138c-4.1.1-3.8-6.9.3-6.1S409.8,138.4,405.7,138Z" style="fill:#fff"/>
	<path d="M385.1,137.2c.8,4.9-6,4.8-6.2.4S385.8,133.3,385.1,137.2Z" style="fill:#fff"/>
	<path d="M368.9,251.1c-8.4-1.4,2.6-11.7,2.9-3.7C371.4,249.2,371.2,251.1,368.9,251.1Z" style="fill:#fff"/>
	<path d="M399.9,67.2c-.2,4-6.7,3.8-6.2-.3S400,63.4,399.9,67.2Z" style="fill:#fff"/>
	<path d="M170.9,191.3c-8.3-.9,1.9-11.6,3.1-3.8C173.8,189.4,173.3,191.2,170.9,191.3Z" style="fill:#fff"/>
	<path d="M290.1,240.4c-.5,1.6-.5,3.7-3,3.7C279.2,243.6,288.2,232.5,290.1,240.4Z" style="fill:#fff"/>
	<path d="M133.8,191.9c1.4,4-6,4.5-5.8.6S134.7,186.9,133.8,191.9Z" style="fill:#fff"/>
	<path d="M434.3,191.5c.3,4.4-6.6,5-6.1.4S434,187.7,434.3,191.5Z" style="fill:#fff"/>
	<path d="M486.9,202.7c4.1-.1,4.1,6.4,0,6.3S482.6,202.3,486.9,202.7Z" style="fill:#fff"/>
	<path d="M458.9,212.1c-3.8.1-4-6.7,0-6.3S463,212.2,458.9,212.1Z" style="fill:#fff"/>
	<path d="M375.7,217.7c8.6.8-1.5,11.2-2.9,3.4C372.9,219.3,373.2,217.7,375.7,217.7Z" style="fill:#fff"/>
	<path d="M679.2,46c.2,4-6.7,3.9-6.2-.1S679.4,42,679.2,46Z" style="fill:#fff"/>
	<path d="M76.3,271.1c-3.9-.2-5.2-6.5-.5-6.5S80.2,270.8,76.3,271.1Z" style="fill:#fff"/>
	<path d="M686.8,254.7c3.9-.1,4.3,6.3.3,6.3S682.6,254.7,686.8,254.7Z" style="fill:#fff"/>
	<path d="M575,257.4c.4,4.2-5.6,4.6-6.1.4S575.1,253.3,575,257.4Z" style="fill:#fff"/>
	<path d="M450.7,228.9c-.5-4.2,6.2-4,6.2-.1S450.5,233.1,450.7,228.9Z" style="fill:#fff"/>
	<path d="M583.8,131.2c-4.3.1-3.5-6.6.5-6.2S587.8,131.8,583.8,131.2Z" style="fill:#fff"/>
	<path d="M792.5,94c4.2,0,3.3,6.9-.7,6S788.5,93.5,792.5,94Z" style="fill:#fff"/>
	<path d="M350.1,215.3c.4,4-5.8,5.4-6.1,1.1S349.8,211.3,350.1,215.3Z" style="fill:#fff"/>
	<path d="M780,231.5c-.2,4-7.1,3.2-6.1-.8S780.2,227.4,780,231.5Z" style="fill:#fff"/>
	<path d="M637.4,129.9c-4.4.1-4.7-6.4,0-6.2S641.2,129.8,637.4,129.9Z" style="fill:#fff"/>
	<path d="M726.5,31.4c-3.8.3-3.7-7,.1-6.4S730.7,31.8,726.5,31.4Z" style="fill:#fff"/>
	<path d="M758.7,95.6c.4,4.3-6.3,4.6-5.9.2S758.9,92.1,758.7,95.6Z" style="fill:#fff"/>
	<path d="M562.8,146.4c.2,4.4-6.3,4.9-6.1.6S562.9,142.7,562.8,146.4Z" style="fill:#fff"/>
	<path d="M761.3,101.9c3.9.4,3.6,6.9-.5,6.2S757.5,101.9,761.3,101.9Z" style="fill:#fff"/>
	<path d="M856.1,71.7c-.1,4.6-6.6,4.7-6.3,0S856,68.4,856.1,71.7Z" style="fill:#fff"/>
	<path d="M529.1,190.7c-.2,3.9-6.8,4.4-6.4-.1S529.4,186.5,529.1,190.7Z" style="fill:#fff"/>
	<path d="M465.4,29.8c3.8-.2,3.4,6.9-.4,6.2S461.3,29.6,465.4,29.8Z" style="fill:#fff"/>
	<path d="M676.9,116.1c-.2,3.6-6.8,3.6-6.1-.5S677.3,111.7,676.9,116.1Z" style="fill:#fff"/>
	<path d="M1078.8,68.7c1,4.7-6,4.5-5.9.2S1079.6,64.7,1078.8,68.7Z" style="fill:#fff"/>
	<path d="M679.5,266.8c1.8-.1,2.7.9,2.6,3C681,278.5,670.5,267.1,679.5,266.8Z" style="fill:#fff"/>
	<path d="M402.9,179c-.8,8.9-11-2.5-2.7-3.2C402.4,175.8,403.1,177.2,402.9,179Z" style="fill:#fff"/>
	<path d="M352.7,94.2c-3.7-.5-3.8-7.2.3-6.4S356.7,94.3,352.7,94.2Z" style="fill:#fff"/>
	<path d="M815,171.4c.9,3.7-5.6,4.9-6,1.3S814.8,166.4,815,171.4Z" style="fill:#fff"/>
	<path d="M295.4,95.2c-3.4-.5-3.4-7.1.6-6.3S299.6,95.5,295.4,95.2Z" style="fill:#fff"/>
	<path d="M793.7,169.4c-.8,2.9-7.3,2.6-6.9-.9S793.6,165.2,793.7,169.4Z" style="fill:#fff"/>
	<path d="M134,169.3c-.3,4.1-6.7,3.2-5.9-.9S134.6,165.4,134,169.3Z" style="fill:#fff"/>
	<path d="M569.8,223.5c-.9-4.4,6.6-2.9,5.9.6S568.4,228.2,569.8,223.5Z" style="fill:#fff"/>
	<path d="M180.2,24.8c3.9-.4,3.4,6.8-.5,6.4S176.3,24,180.2,24.8Z" style="fill:#fff"/>
	<path d="M262.2,260.7c4.3.4,3.8,7.3-.5,6.4S258.7,260.7,262.2,260.7Z" style="fill:#fff"/>
	<path d="M476.8,180.8c.6,4.6-5.8,5.9-6,1.4S476.8,177.1,476.8,180.8Z" style="fill:#fff"/>
	<path d="M93.6,246c-1.1-.1-2.6-.4-2.4-2.4C91.9,234.2,103,245.8,93.6,246Z" style="fill:#fff"/>
	<path d="M538.9,68.9c.4,5.5-6.4,5.6-6,.5C532.3,65.9,539.1,66,538.9,68.9Z" style="fill:#fff"/>
	<path d="M436.4,168.2c-2.2,0-2.6-1.3-2.6-3C434.3,156.9,445.4,166.8,436.4,168.2Z" style="fill:#fff"/>
	<path d="M948,93.6c-.2,4-6.8,3.2-6.1-.6S949,89.2,948,93.6Z" style="fill:#fff"/>
	<path d="M556.1,24.1c-1.4-4.2,6.3-4.6,5.6-.4C562.6,27.9,555,28.7,556.1,24.1Z" style="fill:#fff"/>
	<path d="M436.2,89.2c-8.7-1.2,3.3-11,2.9-3.3C438.9,87.9,438.1,89.4,436.2,89.2Z" style="fill:#fff"/>
	<path d="M473,118.1c-.4,4.5-7,3.7-6-.5S473.4,114.5,473,118.1Z" style="fill:#fff"/>
	<path d="M785.1,196c-4,.2-4.4-6.5-.3-6.2S789.1,195.9,785.1,196Z" style="fill:#fff"/>
	<path d="M620.9,141.7c-.5,8.7-11.1-1.7-3-3C620.3,138.7,620.7,140.5,620.9,141.7Z" style="fill:#fff"/>
	<path d="M977.2,140.9c.2,4.3-6.2,4.1-6.2.1S977,136.9,977.2,140.9Z" style="fill:#fff"/>
	<path d="M351.4,237c-4.1-.1-4.9-7-.4-6.5S355.3,237,351.4,237Z" style="fill:#fff"/>
	<path d="M130.8,231.7c.7,3.9-5.5,4.3-6,.6S130.8,227.6,130.8,231.7Z" style="fill:#fff"/>
	<path d="M325.8,141.2c-.1,4.2-6.8,3.8-5.9-.4S326,137.4,325.8,141.2Z" style="fill:#fff"/>
	<path d="M148.3,216.7c4.2,0,4.8,6.3.3,6.3S144.5,216.4,148.3,216.7Z" style="fill:#fff"/>
	<path d="M670.1,33.1c-4.5,1-4.6-6-.7-6.3S673.3,33.2,670.1,33.1Z" style="fill:#fff"/>
	<path d="M520.1,225.3c.9,4.7-5.9,4.7-6.1.6S520.3,221.5,520.1,225.3Z" style="fill:#fff"/>
	<path d="M826.7,78.1c-4.1-.2-3.8-6.5.4-6S830.8,78.4,826.7,78.1Z" style="fill:#fff"/>
	<path d="M622.1,78.4c-.2,3.8-7,3.7-6.2,0S621.7,74.2,622.1,78.4Z" style="fill:#fff"/>
	<path d="M162,138.2c-.1,3.8-6.5,4.1-6.2.2S161.3,134.4,162,138.2Z" style="fill:#fff"/>
	<path d="M126.1,129c4.3-.5,3.4,6.3-.1,6S122.3,128.5,126.1,129Z" style="fill:#fff"/>
	<path d="M481.9,127.8c3.8-.7,4.6,5.7.5,5.6S477.4,127.7,481.9,127.8Z" style="fill:#fff"/>
	<path d="M272.6,125.8c3.4-.3,4.8,6.4.8,6.2S268.1,126.2,272.6,125.8Z" style="fill:#fff"/>
	<path d="M1048.4,72.7c3.5.1,5.1,6.3.9,6.5S1044.7,73.1,1048.4,72.7Z" style="fill:#fff"/>
	<path d="M693.2,75.7c-.6,8.9-10.6-1.8-3-2.9C692,72.8,693.4,73.6,693.2,75.7Z" style="fill:#fff"/>
	<path d="M362.3,123.6c3.9-.5,3.8,5.9.4,6.3S358.2,124.2,362.3,123.6Z" style="fill:#fff"/>
	<path d="M970.8,118.7c3.3-.3,3.3,6.7-.5,6.3S966.3,118.3,970.8,118.7Z" style="fill:#fff"/>
	<path d="M658.9,223.2c-1.9,8.1-10.5-3.6-3.3-3.6C657.9,219.6,658.4,221.5,658.9,223.2Z" style="fill:#fff"/>
	<path d="M123.5,81.6c3.9-.6,3.7,6.7.1,6.4S119.5,81.5,123.5,81.6Z" style="fill:#fff"/>
	<path d="M850.9,147.4c.2,2.3-1.8,2.2-3.4,2.5C839.7,149,850.4,138,850.9,147.4Z" style="fill:#fff"/>
	<path d="M127.9,148.9c-.8-4,6.1-3.9,5.9-.2S127.8,153,127.9,148.9Z" style="fill:#fff"/>
	<path d="M617,293.3c.2,3.9-6.3,3.7-6,0S617.5,289.6,617,293.3Z" style="fill:#fff"/>
	<path d="M346.2,169c-4.1-.5-4.6-6.6-.2-6.3S349.3,168.3,346.2,169Z" style="fill:#fff"/>
	<path d="M729.7,116.9c-4,0-3.8-6.7.3-6S733.4,117,729.7,116.9Z" style="fill:#fff"/>
	<path d="M695.1,31c.3,4.5-6.7,4-5.4,0C689.1,26.5,695.4,27.1,695.1,31Z" style="fill:#fff"/>
	<path d="M72.4,286.2c.1,1.9-1,2.8-3,2.6C61.9,287.3,72.6,277.5,72.4,286.2Z" style="fill:#fff"/>
	<path d="M522,25.8c0,3.8-6.2,4.3-6.2.3S521.6,22,522,25.8Z" style="fill:#fff"/>
	<path d="M181.9,94.1c-3.9.6-3.7-5.7-.2-6S186.2,94.3,181.9,94.1Z" style="fill:#fff"/>
	<path d="M1020.9,61.5c.4,4.1-5.9,5.3-6,1S1020.7,57.3,1020.9,61.5Z" style="fill:#fff"/>
	<path d="M454.5,103.6c4.6-.4,4.5,6.3.1,5.7S450.8,103,454.5,103.6Z" style="fill:#fff"/>
	<path d="M256.1,183c-4.1.1-3.7-5.9.1-6S260,183.3,256.1,183Z" style="fill:#fff"/>
	<path d="M329.1,105.4c.4,3.9-5.5,5.5-5.8,1S328.8,101,329.1,105.4Z" style="fill:#fff"/>
	<path d="M815.9,239.2c-.2-4.5,6.4-3.9,5.9.2S815.4,242.8,815.9,239.2Z" style="fill:#fff"/>
	<path d="M55.3,94.2c.1,4.2-6.7,3.8-6.3-.2S55.4,90.3,55.3,94.2Z" style="fill:#fff"/>
	<path d="M757.7,230.6c4.1.4,4.3,7-.2,6.2C753.6,237.6,754,230.3,757.7,230.6Z" style="fill:#fff"/>
	<path d="M278.3,95.7c-1.4,9.5-10.4-2.3-2.4-2.8A2.5,2.5,0,0,1,278.3,95.7Z" style="fill:#fff"/>
	<path d="M507.5,197.6c3.8-.1,3.6,6.5.1,6.3S503.5,197.3,507.5,197.6Z" style="fill:#fff"/>
	<path d="M439.6,98.3c-.6-4.2,6.2-4.7,5.6-.2S439.5,102.4,439.6,98.3Z" style="fill:#fff"/>
	<path d="M187.1,51.9c-1,7.8-10.8-1.9-3.6-3.1C185.7,48.6,186.7,50,187.1,51.9Z" style="fill:#fff"/>
	<path d="M898.9,65.1c-.4-4.4,6.5-2.5,6.1,1S898.2,69.2,898.9,65.1Z" style="fill:#fff"/>
	<path d="M260.9,94.7c3.8-.4,4.3,6.2.6,6.3S257.4,95,260.9,94.7Z" style="fill:#fff"/>
	<path d="M344.2,138.5c.1,3.6-6.3,3.9-6.1.2S344.7,134.4,344.2,138.5Z" style="fill:#fff"/>
	<path d="M644.9,292.5c-.2,3.6-6.6,3.5-6-.3S645.2,288.9,644.9,292.5Z" style="fill:#fff"/>
	<path d="M562.3,290.3c-.2,8.8-10.6-.6-3-2.4C561.2,287.8,562.3,288.9,562.3,290.3Z" style="fill:#fff"/>
	<path d="M156.4,103.1c-4,.6-4.5-5.7-.8-6.2S160.4,103.3,156.4,103.1Z" style="fill:#fff"/>
	<path d="M718.6,174.6c3.9-.4,4.5,5.8.6,6.2S714.2,174.8,718.6,174.6Z" style="fill:#fff"/>
	<path d="M581.4,28.2c-4,.5-3.9-6.5-.1-6.2S584.9,28.3,581.4,28.2Z" style="fill:#fff"/>
	<path d="M805.3,178.5c.6,4.4-5.9,4.6-5.7.4S805.4,174.7,805.3,178.5Z" style="fill:#fff"/>
	<path d="M718.2,269.8c.8,4-5.9,4-5.6.1S718.5,265.6,718.2,269.8Z" style="fill:#fff"/>
	<path d="M54.4,180.8c3.8.3,4.1,6.6.1,6.1S51.1,180.7,54.4,180.8Z" style="fill:#fff"/>
	<path d="M180.3,267.6c1.1,4.1-5.6,4.7-5.4.4S180.7,263.2,180.3,267.6Z" style="fill:#fff"/>
	<path d="M628.1,52.9c3.9.3,4.4,6.8.1,6.4S624.9,53.2,628.1,52.9Z" style="fill:#fff"/>
	<path d="M389.6,29.4c-3.6.6-4.2-6.2-.7-6.3S393.8,29.4,389.6,29.4Z" style="fill:#fff"/>
	<path d="M972.2,87.1c.3,4.2-6.3,4.4-6.2.6S972.2,83.5,972.2,87.1Z" style="fill:#fff"/>
	<path d="M548.9,170.2c-8.3-1.5,2.6-10.2,3.1-2.8A2.9,2.9,0,0,1,548.9,170.2Z" style="fill:#fff"/>
	<path d="M787,257.4c-.4,4.3-6.1,4.4-6.1,0S787.4,253.8,787,257.4Z" style="fill:#fff"/>
	<path d="M437.5,254.4c1.8.1,3.3.6,3.4,2.7C440.5,264.9,429.6,255.8,437.5,254.4Z" style="fill:#fff"/>
	<path d="M533.2,250.5c9.5.8-1.7,10.9-2.3,2.9C531,251.4,532.2,250.4,533.2,250.5Z" style="fill:#fff"/>
	<path d="M542.7,55.5c.7,4.1-5.8,4.5-5.8.3S543,51.3,542.7,55.5Z" style="fill:#fff"/>
	<path d="M997.1,82.2c.8,3.8-6,4.1-5.6.2S997.1,77.8,997.1,82.2Z" style="fill:#fff"/>
	<path d="M570.5,161c3.2-.3,3.9,6.6,0,6.3S566.1,160.9,570.5,161Z" style="fill:#fff"/>
	<path d="M240.9,196c1,4.2-6.1,3.6-5.2-.3S242.4,191.7,240.9,196Z" style="fill:#fff"/>
	<path d="M231.9,251.9c-3.8.6-4.3-5.9-.6-6.1S235.7,251.9,231.9,251.9Z" style="fill:#fff"/>
	<path d="M1061.1,121.8c.4,3.7-5.8,4.1-6.2.7S1061.1,117.6,1061.1,121.8Z" style="fill:#fff"/>
	<path d="M994.3,127.3c-3.6,0-3.8-6.4-.2-6.4S998.4,127.5,994.3,127.3Z" style="fill:#fff"/>
	<path d="M492.6,247.5c1.2-8.3,10.2,2.5,2.8,3.3C493.5,250.6,492.7,249.2,492.6,247.5Z" style="fill:#fff"/>
	<path d="M601.9,241c-.8,8.1-9.9-1.9-3.2-3.2C600.8,238,602,239.1,601.9,241Z" style="fill:#fff"/>
	<path d="M718.7,200.2c-3.7.6-3.6-6.1.1-5.7S722.8,200.4,718.7,200.2Z" style="fill:#fff"/>
	<path d="M683,36.1c-.2,3.8-6.8,3.9-6.2-.3S682.4,32.6,683,36.1Z" style="fill:#fff"/>
	<path d="M1169.9,57.3c-8.1-.6,1.7-10.2,3-2.7C1172.9,56.7,1171.2,57.2,1169.9,57.3Z" style="fill:#fff"/>
	<path d="M626.2,230.6c4-.5,4.4,6.1.8,6.3S622.6,230.8,626.2,230.6Z" style="fill:#fff"/>
	<path d="M568.3,79.2c.5,3.4-5.9,4.3-5.6.4S568.1,74.7,568.3,79.2Z" style="fill:#fff"/>
	<path d="M790.1,73.3c-.9,8.1-10.3-1.6-3.3-3.2C788.8,70.2,790.3,71.1,790.1,73.3Z" style="fill:#fff"/>
	<path d="M788.9,157.2c-4,.5-4-5.8-.4-6.1S793.3,157.5,788.9,157.2Z" style="fill:#fff"/>
	<path d="M429.2,54.7c.4,3.5-6.2,2.9-5.6-.7S429.9,50.1,429.2,54.7Z" style="fill:#fff"/>
	<path d="M432.2,133.2c.5,3.7-6.1,4.4-6.2.7S432.3,129,432.2,133.2Z" style="fill:#fff"/>
	<path d="M382.3,54.4c.2,4-6.1,3.7-5.5-.3S382.5,50.3,382.3,54.4Z" style="fill:#fff"/>
	<path d="M850.9,41.3c-1.9,0-2.3-1.4-2.2-3.3C849.6,29.3,859.5,41.4,850.9,41.3Z" style="fill:#fff"/>
	<path d="M516.9,132.5c3.7-.6,4.6,5.5.6,5.6S512.5,132.5,516.9,132.5Z" style="fill:#fff"/>
	<path d="M882,39.4c-.1,3.9-6.4,3.3-6.2-.1A3.1,3.1,0,0,1,882,39.4Z" style="fill:#fff"/>
	<path d="M712.5,296.2c-3.8.3-3.4-6,.5-5.6S716.8,296.9,712.5,296.2Z" style="fill:#fff"/>
	<path d="M276,150.3c-8.1-1.2,2.7-10.2,3.2-2.8C279.2,149.7,277.7,150.2,276,150.3Z" style="fill:#fff"/>
	<path d="M737.8,75c.2,3.2-6.5,2.4-5.8-1.1S738.4,70,737.8,75Z" style="fill:#fff"/>
	<path d="M45.7,213.5c7.9.4-1.1,10.3-2.9,3.3C42.8,214.8,43.6,213.6,45.7,213.5Z" style="fill:#fff"/>
	<path d="M598.5,61.9c1.1-8.6,10.3,3.3,2.7,3.4C599,65.2,598.6,63.7,598.5,61.9Z" style="fill:#fff"/>
	<path d="M769.2,42.9c3.7-.3,4.3,6.2.4,6.2S765.6,43.3,769.2,42.9Z" style="fill:#fff"/>
	<path d="M913.2,72.7c4-.2,4.3,6.7.3,6.5S909.9,73.3,913.2,72.7Z" style="fill:#fff"/>
	<path d="M981.1,51.2c-.3,1.7-.9,3.2-3.1,3C970.7,52.7,980.5,43.3,981.1,51.2Z" style="fill:#fff"/>
	<path d="M802.6,225.2c-3.9.1-4.1-6.9,0-6.5S806.3,225.4,802.6,225.2Z" style="fill:#fff"/>
	<path d="M394.1,143.5c.6,4.3-5.8,4.3-6,0S394.7,139.3,394.1,143.5Z" style="fill:#fff"/>
	<path d="M758.7,141.2c.7,3.7-5.7,4.9-5.8.9S758.9,137.1,758.7,141.2Z" style="fill:#fff"/>
	<path d="M951.6,46c4.1-.2,4.3,5.9.1,5.4S947.6,45.7,951.6,46Z" style="fill:#fff"/>
	<path d="M709.9,50.6c-.2,3.5-6.6,3.7-6.1-.2S710.1,46.7,709.9,50.6Z" style="fill:#fff"/>
	<path d="M712.7,225.8c-3.7.2-4.5-6.1-.6-6.2S716.3,225.1,712.7,225.8Z" style="fill:#fff"/>
	<path d="M871.5,134.6c3.3-.1,3.9,6.4.3,6.5S867.1,134.5,871.5,134.6Z" style="fill:#fff"/>
	<path d="M651.7,43.4c.3-4.1,6.6-3,5.5.9S651.7,46.9,651.7,43.4Z" style="fill:#fff"/>
	<path d="M800.1,78.1c0,.6-.5,2-2.7,1.9C789.4,78.6,800.5,68.6,800.1,78.1Z" style="fill:#fff"/>
	<path d="M464.3,73.9c.1,3.9-6.1,4.2-5.6,0S464.4,69.9,464.3,73.9Z" style="fill:#fff"/>
	<path d="M694.2,134c.5,4.3-6.1,3.9-5.6-.2S695.1,130,694.2,134Z" style="fill:#fff"/>
	<path d="M211.8,147.6c3.8-.2,4.2,6.2.1,5.6S207.9,147.3,211.8,147.6Z" style="fill:#fff"/>
	<path d="M232.4,129.1c3.6.4,3.9,6.7-.2,6S228.9,129.2,232.4,129.1Z" style="fill:#fff"/>
	<path d="M774.2,207.4c-.3,8.3-10.7-1.2-3.3-2.6C772.6,205,774.3,205,774.2,207.4Z" style="fill:#fff"/>
	<path d="M938.8,74.6c4.2.1,3.9,6.7-.4,5.8S935.1,74.4,938.8,74.6Z" style="fill:#fff"/>
	<path d="M869.3,209.2c-4.4.7-4.7-5.9-.8-5.6S873,209,869.3,209.2Z" style="fill:#fff"/>
	<path d="M1024,131.2c.3,3.6-5.9,3.2-5.5-.3S1024.3,127,1024,131.2Z" style="fill:#fff"/>
	<path d="M601.8,79.5c.8,4.1-6,3.3-5.8.2S602.4,75.6,601.8,79.5Z" style="fill:#fff"/>
	<path d="M251.2,233.9c3.4-.2,4.3,5.7.6,5.9S247.1,233.9,251.2,233.9Z" style="fill:#fff"/>
	<path d="M712.9,121.1c-.1,3.9-6.2,4.3-6.2.3S712.5,117.7,712.9,121.1Z" style="fill:#fff"/>
	<path d="M700.1,163c-.1,3.3-6.2,3.1-6.1-.1S700.2,158.9,700.1,163Z" style="fill:#fff"/>
	<path d="M311.5,56.5a2.8,2.8,0,0,1-3,2.7C301.2,58,310.8,47.5,311.5,56.5Z" style="fill:#fff"/>
	<path d="M145,251.6c.2,3.5-6.3,3.4-6-.3S145.4,247.5,145,251.6Z" style="fill:#fff"/>
	<path d="M333,192.2c-.1,3.3-6.4,4.4-6.3.4S332.9,188.3,333,192.2Z" style="fill:#fff"/>
	<path d="M863.9,190.6c.9,4.4-6,5-6.1.9S864.2,186.9,863.9,190.6Z" style="fill:#fff"/>
	<path d="M393.8,248.7c4-.3,4.3,6.3.3,5.6S389.9,248.6,393.8,248.7Z" style="fill:#fff"/>
	<path d="M152.5,170.1c-8.4-1.3,1.9-11.1,2.5-3.6C154.7,168.1,154.7,170,152.5,170.1Z" style="fill:#fff"/>
	<path d="M552,88.3c-.6,7.5-10.9-2.2-3.2-3.6C551.5,84.6,551.4,86.8,552,88.3Z" style="fill:#fff"/>
	<path d="M153.2,191.9c-1,8.2-10.4-2.8-2.7-3.3A2.7,2.7,0,0,1,153.2,191.9Z" style="fill:#fff"/>
	<path d="M597.1,116.2c-3.7-.1-3.4-6.6.1-6.4S601,116.5,597.1,116.2Z" style="fill:#fff"/>
	<path d="M1153.2,57.1c-.8,8.4-10.1-1.8-3-3.1C1152,54.1,1153.3,55,1153.2,57.1Z" style="fill:#fff"/>
	<path d="M592.9,65.1c.1,4-6.2,2.4-5.9-.9S593.6,61.3,592.9,65.1Z" style="fill:#fff"/>
	<path d="M597.4,28.3c-3.7.5-4.1-6.3-.4-6.2S601.2,28.1,597.4,28.3Z" style="fill:#fff"/>
	<path d="M917,172.3c-.2,4.1-6.5,3.9-6.1,0S917.2,168.9,917,172.3Z" style="fill:#fff"/>
	<path d="M218.8,177.1c-3.7.1-4.3-6.4-.4-6.1S222.7,177.5,218.8,177.1Z" style="fill:#fff"/>
	<path d="M340,64.1c-3.8.5-4-5.9-.3-6.1S343.8,64,340,64.1Z" style="fill:#fff"/>
	<path d="M667.9,280.6c-.3,3.8-6.4,3.5-6-.3S668.1,277.1,667.9,280.6Z" style="fill:#fff"/>
	<path d="M580.3,178.3c.2,4-6,3.5-5.6-.4S581,174.3,580.3,178.3Z" style="fill:#fff"/>
	<path d="M692.2,101.5c.2,3.8-6.3,3.8-6.2.2S692.3,97.5,692.2,101.5Z" style="fill:#fff"/>
	<path d="M814,98.3c-4.1.1-4.1-6.2,0-5.7S818,98.7,814,98.3Z" style="fill:#fff"/>
	<path d="M71.9,140.8c-4.1,0-3.9-6.1.1-5.8S75.5,141.3,71.9,140.8Z" style="fill:#fff"/>
	<path d="M920.2,42.9c.7,3.9-6,4.1-5.6.1S920.3,38.7,920.2,42.9Z" style="fill:#fff"/>
	<path d="M517.2,266.1c0,3.9-6.1,3.4-5.6-.3S517.4,262.2,517.2,266.1Z" style="fill:#fff"/>
	<path d="M129.3,24.7c3.4-.3,3.6,6.3,0,6.2S125.3,24.4,129.3,24.7Z" style="fill:#fff"/>
	<path d="M395.2,85c3.6-.4,3.4,6.2-.1,6.2S391.2,84.2,395.2,85Z" style="fill:#fff"/>
	<path d="M460.8,254c-3.8.4-3.1-5.5.3-5.5S464.9,254.7,460.8,254Z" style="fill:#fff"/>
	<path d="M655.1,34.9c-4.1.3-3.8-5.6-.1-5.7S659.2,35,655.1,34.9Z" style="fill:#fff"/>
	<path d="M49.6,122.8c1.2.2,2.6.9,2.5,2.7C50.5,133.2,40.8,122.9,49.6,122.8Z" style="fill:#fff"/>
	<path d="M33.9,242.6c-4.1,1.6-4.5-5.6-.3-5.2S38.5,243.7,33.9,242.6Z" style="fill:#fff"/>
	<path d="M272,168.7c-.2,3.5-6.7,3.3-6.1-.6S272.3,165,272,168.7Z" style="fill:#fff"/>
	<path d="M722.6,236.6c3.9-.4,5,5.9.8,5.6S719,237,722.6,236.6Z" style="fill:#fff"/>
	<path d="M327.2,81c.4,4-5.6,4.3-5.5.5A2.8,2.8,0,1,1,327.2,81Z" style="fill:#fff"/>
	<path d="M1024,75.9c3.2-.1,3.8,6.5.2,6.2S1020.2,75.9,1024,75.9Z" style="fill:#fff"/>
	<path d="M239.3,37.4c.7,3.9-5.2,4.7-5.5.9S239.6,33.1,239.3,37.4Z" style="fill:#fff"/>
	<path d="M312.4,89.7c3.7-.4,3.5,6.2.2,6.2S308.7,89.9,312.4,89.7Z" style="fill:#fff"/>
	<path d="M757.1,274c.1,3.8-6,4.1-5.5,0S757.1,269.9,757.1,274Z" style="fill:#fff"/>
	<path d="M242.4,221.8c4-.6,3.3,6.3-.3,5.5S238.9,221.8,242.4,221.8Z" style="fill:#fff"/>
	<path d="M69.8,77.9c-3.4.1-2.8-6.4.4-6.3S73.5,77.4,69.8,77.9Z" style="fill:#fff"/>
	<path d="M290.3,144.9c.1,3.9-6.2,3.9-5.6-.1S290.5,141.2,290.3,144.9Z" style="fill:#fff"/>
	<path d="M758.4,76.4c-3.7.4-3.3-6.7.2-5.8C762.9,69.7,762.5,77,758.4,76.4Z" style="fill:#fff"/>
	<path d="M142,51.6c-.2,3.7-6.2,3.7-6-.1S142.2,48,142,51.6Z" style="fill:#fff"/>
	<path d="M1048.8,55.9c-4.1.7-4.7-5.8-1-6.2S1052.2,56,1048.8,55.9Z" style="fill:#fff"/>
	<path d="M824.8,211.7c.1,3.7-6,4.3-6.1.3S825,208.3,824.8,211.7Z" style="fill:#fff"/>
	<path d="M269.8,196.9c.1-3.8,6.1-4,6.1-.1S269.9,200.3,269.8,196.9Z" style="fill:#fff"/>
	<path d="M549,208.1c0,3.7-5.7,4.2-6.1.4S548.9,204.3,549,208.1Z" style="fill:#fff"/>
	<path d="M603.8,146.8c4-.4,4,6.2,0,5.5S600,146.4,603.8,146.8Z" style="fill:#fff"/>
	<path d="M35.4,154.8c.4,4.2-5.8,4-5.1-.1S35.7,150.9,35.4,154.8Z" style="fill:#fff"/>
	<path d="M485.1,53.1c-.1,2-1,3.1-3,3.1C474.3,55.9,483.7,45.8,485.1,53.1Z" style="fill:#fff"/>
	<path d="M628.8,204.2c-4,.3-3.7-5.9.2-5.6S632.8,204.8,628.8,204.2Z" style="fill:#fff"/>
	<path d="M512.3,281.9c-3.6.1-3.8-6-.1-5.8S516.1,281.9,512.3,281.9Z" style="fill:#fff"/>
	<path d="M697.3,203.6c.1,3.7-5.8,3.2-5.5-.4S697.4,200.1,697.3,203.6Z" style="fill:#fff"/>
	<path d="M594.9,277.6c3.5-.3,4.2,5.5.3,5.4A2.7,2.7,0,1,1,594.9,277.6Z" style="fill:#fff"/>
	<path d="M177.8,203.9c-3.4.5-4.7-5.5-1-5.7S181.7,203.4,177.8,203.9Z" style="fill:#fff"/>
	<path d="M430.8,204.5c1.7.1,3.1.8,3.2,2.9C433.3,214.6,423.5,205.6,430.8,204.5Z" style="fill:#fff"/>
	<path d="M476.3,152.9c.3,3.4-5.7,4.8-5.6.9S475.9,149.2,476.3,152.9Z" style="fill:#fff"/>
	<path d="M755.3,155.3c-2,.1-2.4-1.3-2.5-3C753.5,144.4,763.2,154.6,755.3,155.3Z" style="fill:#fff"/>
	<path d="M456.7,267.1c-3.8.6-4.4-6.1-.6-5.9S460.3,266.8,456.7,267.1Z" style="fill:#fff"/>
	<path d="M323,32c-3.4.4-4.8-6.5-1-6.1S326.7,31.3,323,32Z" style="fill:#fff"/>
	<path d="M349.8,28.5c0,3.9-6.3,3.1-5.7-.7S351.1,24.8,349.8,28.5Z" style="fill:#fff"/>
	<path d="M666.2,161.3c.7,3.7-5.8,4.2-5.5.3S666.6,157.3,666.2,161.3Z" style="fill:#fff"/>
	<path d="M700.5,146.9c0-8.2,10.2.4,3.3,2.2C701.9,149,700.7,148.4,700.5,146.9Z" style="fill:#fff"/>
	<path d="M560.3,217.9c-.2,1.7-.7,3.3-2.9,3.3C550.6,220.7,558.4,210.3,560.3,217.9Z" style="fill:#fff"/>
	<path d="M284.7,29.3c0,2-.9,3.2-3,3.1C274.4,31.9,284,21.8,284.7,29.3Z" style="fill:#fff"/>
	<path d="M774.1,162.2c.2,3.7-5.7,4.2-5.5.3S774.3,158.6,774.1,162.2Z" style="fill:#fff"/>
	<path d="M615,98.8c-.1,3.5-6.7,3.1-5.9-.6S615.2,95.1,615,98.8Z" style="fill:#fff"/>
	<path d="M771.5,189.6c4-.3,3.3,6.3-.5,5.6S768,189,771.5,189.6Z" style="fill:#fff"/>
	<path d="M239.1,84.7c-.1,7.6-10.2-.9-3.5-2.5C237.3,82.3,239,82.5,239.1,84.7Z" style="fill:#fff"/>
	<path d="M220.1,118.7c4.3-.2,4.2,5.9.3,5.5S217,118.6,220.1,118.7Z" style="fill:#fff"/>
	<path d="M669.4,84.3c-7.5-1.1,2.4-9.6,3.4-2.7A2.8,2.8,0,0,1,669.4,84.3Z" style="fill:#fff"/>
	<path d="M510.3,164.5c0,3.8-5.9,3.5-5.5-.2S510.9,160.8,510.3,164.5Z" style="fill:#fff"/>
	<path d="M121.1,275.2c.3,3.9-4.9,5.4-5.4.9S120.8,271.5,121.1,275.2Z" style="fill:#fff"/>
	<path d="M757.2,225.6c.4,3.3-5.6,3.5-5.5-.1S757.5,221.5,757.2,225.6Z" style="fill:#fff"/>
	<path d="M533.3,31.3c.5,3.8-5.8,4.2-5.5.2S533.3,27.8,533.3,31.3Z" style="fill:#fff"/>
	<path d="M574.3,245c.1,3.6-5.7,3.8-5.6.1S574.5,240.9,574.3,245Z" style="fill:#fff"/>
	<path d="M111.4,244.5c.3,3.3-5.9,2.8-5.5-.6S112.1,240.2,111.4,244.5Z" style="fill:#fff"/>
	<path d="M782.2,100.6c.7,4.5-5.4,5-5.6,1.1S782,97.7,782.2,100.6Z" style="fill:#fff"/>
	<path d="M919.9,184.7c.3,3.9-6.2,2.8-6-.6S920.3,180.9,919.9,184.7Z" style="fill:#fff"/>
	<path d="M42.1,53.5c2.2-.1,2.8,1,2.8,2.8C44.3,63.5,34.3,53.8,42.1,53.5Z" style="fill:#fff"/>
	<path d="M100.3,282.1c-.4,7.9-10.1-1.2-2.9-2.5C99.3,279.5,100,280.6,100.3,282.1Z" style="fill:#fff"/>
	<path d="M651,80.9c-.4,3.2-6.4,3.1-6-.4S650.9,77.2,651,80.9Z" style="fill:#fff"/>
	<path d="M706.2,237c3.7-.3,4.1,5.9.3,5.9S702.6,236.9,706.2,237Z" style="fill:#fff"/>
	<path d="M57.7,37.8c-3.8.5-3.5-6,.2-5.9S61.3,38.1,57.7,37.8Z" style="fill:#fff"/>
	<path d="M90.4,192.2c-3.6.5-3.3-5.8.4-5.6S94.3,192.6,90.4,192.2Z" style="fill:#fff"/>
	<path d="M669.3,175.6c0,3.5-6,3.6-5.5-.2S669.8,171.9,669.3,175.6Z" style="fill:#fff"/>
	<path d="M744.4,30.2c6.8.5-1,10.4-2.7,4C741.7,32.3,742.4,30.6,744.4,30.2Z" style="fill:#fff"/>
	<path d="M772.4,39.3c-3.4.1-3.8-5.8-.1-5.7S775.9,39.2,772.4,39.3Z" style="fill:#fff"/>
	<path d="M885,78.8c0,3.7-6.3,2.3-5.5-1.2S885.3,75.3,885,78.8Z" style="fill:#fff"/>
	<path d="M157.3,69.4c-.7,7.6-10.1-1.8-2.9-2.7A2.7,2.7,0,0,1,157.3,69.4Z" style="fill:#fff"/>
	<path d="M445.2,30.2c-.1,4.2-6.1,3.3-5.4-.4S445.4,27.1,445.2,30.2Z" style="fill:#fff"/>
	<path d="M810.5,121.7c3.2.1,3.4,6.1-.3,5.4S806.6,120.9,810.5,121.7Z" style="fill:#fff"/>
	<path d="M325.3,245.6c3.3-.1,4,6.1.1,5.6S321.8,245.6,325.3,245.6Z" style="fill:#fff"/>
	<path d="M580.4,74.2c1.2,4-4.8,5.5-5.2,1.8S580.4,69.9,580.4,74.2Z" style="fill:#fff"/>
	<path d="M576.2,116.2c.6,3.7-5.4,4.1-5.6.6S576,112.5,576.2,116.2Z" style="fill:#fff"/>
	<path d="M204.2,203.2c0,1.6-.6,2.8-2.5,2.8C194,205.9,203.4,195.8,204.2,203.2Z" style="fill:#fff"/>
	<path d="M650.2,114.3c.6,3.8-5.5,4-5.5.3S650.1,110.8,650.2,114.3Z" style="fill:#fff"/>
	<path d="M888.1,197.6c.6,3.6-5.9,3.6-5.5.1S888.1,193.6,888.1,197.6Z" style="fill:#fff"/>
	<path d="M646.8,95.2c3.6,0,3.1,6.4-.5,5.6S642.9,94.8,646.8,95.2Z" style="fill:#fff"/>
	<path d="M491,22.9c-4,.5-4.1-5.5.1-5.3S495.1,23.6,491,22.9Z" style="fill:#fff"/>
	<path d="M855.7,65c-.2-3.5,5.8-5.1,5.7-.7S856.1,68.7,855.7,65Z" style="fill:#fff"/>
	<path d="M282.2,68.3c.1,3.4-5.7,4.2-5.5.4S282,64.6,282.2,68.3Z" style="fill:#fff"/>
	<path d="M343.2,76.3c.4,3.7-6.1,3.9-5.7.2S342.7,73,343.2,76.3Z" style="fill:#fff"/>
	<path d="M652.2,69.2c.8,3.6-5.3,3.8-5.4.3S652.3,65.5,652.2,69.2Z" style="fill:#fff"/>
	<path d="M840.1,182.5c.1,3.7-5.9,3.1-5.6-.4S840.4,179,840.1,182.5Z" style="fill:#fff"/>
	<path d="M296.9,191.4c8.7,1.2-1.6,10.7-1.9,2.9C295.4,192.9,295.3,191.2,296.9,191.4Z" style="fill:#fff"/>
	<path d="M92.1,94.2c.5,4.1-5.8,4.1-5.2.5S92.3,90.8,92.1,94.2Z" style="fill:#fff"/>
	<path d="M740.1,156.7c4-.5,4.2,5.6.5,5.5S737.1,157.3,740.1,156.7Z" style="fill:#fff"/>
	<path d="M367.1,93.3c-4,.7-3.7-5.6-.3-5.6S370.6,93.7,367.1,93.3Z" style="fill:#fff"/>
	<path d="M833.1,112.7c-.1,3.8-6,3.2-5.6-.4S833.1,109.3,833.1,112.7Z" style="fill:#fff"/>
	<path d="M203.2,263.6c3.6.1,3.4,6.2-.2,5.5S199.7,263.1,203.2,263.6Z" style="fill:#fff"/>
	<path d="M1036.1,88c-.1,2.4-1.9,2.5-3.5,2.8C1026.6,89.9,1035.4,80,1036.1,88Z" style="fill:#fff"/>
	<path d="M631,26.6c.1,4.6-6,4.9-5.4.4S631.1,23.8,631,26.6Z" style="fill:#fff"/>
	<path d="M1118.2,60.8c.1,3.6-5.7,2.1-5.5-.8S1119,57.3,1118.2,60.8Z" style="fill:#fff"/>
	<path d="M241.9,154.7c3.9,0,4.4,5.5.2,5.5S238.5,154.6,241.9,154.7Z" style="fill:#fff"/>
	<path d="M357.1,65.3c-8.1-.4,2.1-10,2.8-2.6C359.7,64.8,358,65.1,357.1,65.3Z" style="fill:#fff"/>
	<path d="M288.6,185.2c-3.8.2-3.2-6,.4-5.6S292.3,185.9,288.6,185.2Z" style="fill:#fff"/>
	<path d="M453,170.9c3.1.1,3.2,5.6.2,5.9S449.4,171,453,170.9Z" style="fill:#fff"/>
	<path d="M364.3,183.2c-7-.5,1.7-10.3,2.9-3.3C367.2,181.7,366.4,183.1,364.3,183.2Z" style="fill:#fff"/>
	<path d="M949.6,138.9c-3.5.3-4.2-5.6-.2-5.4S953.3,139,949.6,138.9Z" style="fill:#fff"/>
	<path d="M722.1,76.1c.4,3.5-5.2,4.3-5.4.7S721.9,72.4,722.1,76.1Z" style="fill:#fff"/>
	<path d="M256.8,142.8c3.4-.1,5,5.4,1,5.5S253.2,142.9,256.8,142.8Z" style="fill:#fff"/>
	<path d="M192.8,196.4c-.1,3.7-6,3.5-5.2-.3S193.2,193,192.8,196.4Z" style="fill:#fff"/>
	<path d="M75.4,187.7c-.2,1.9-1.5,2.4-3.1,2.4C65.4,189.1,74.8,180.4,75.4,187.7Z" style="fill:#fff"/>
	<path d="M824.3,54.2c3.8.1,3.5,6-.3,5.2S820.9,53.7,824.3,54.2Z" style="fill:#fff"/>
	<path d="M945.4,167c-4.1.5-5.6-1.7-5.6-5.2s2.2-5.7,6-5.8,4.8,2.7,5,5.9S949,167.4,945.4,167Z" style="fill:#ff0e00"/>
	<path d="M836.8,128.7c.3,3.3-1.1,5.3-4.7,5.2s-4.4-2.6-4.4-5.8,0-5.2,4.1-5.1S837,125,836.8,128.7Z" style="fill:#ff0e00"/>
	<path d="M785.6,138c-3.5.5-5-.8-4.9-4.3s.4-5.7,4.4-5.6,4.7,1.9,4.8,5.3S789.3,138.7,785.6,138Z" style="fill:#ff0e00"/>
	<path d="M792.7,47.7c.7,3.8-1.4,4.5-4.6,4.4s-5.2-.9-5.3-4.4,2.2-4.5,5.5-4.7S793.3,44.2,792.7,47.7Z" style="fill:#ff0e00"/>
</svg>
