<svg viewBox="0 0 1796.7 723.4" xmlns="http://www.w3.org/2000/svg">
	<style type="text/css">
		path { fill: black; }
		@media screen and (prefers-color-scheme: dark) {
			path { fill: white; }
		}
	</style>
	<path
		d="M1543,308.9c4.7,7.6,9,.3,13.9-3.1,8.8-6.3,17.8-12.6,26.6-19,2.7-6.4-5.4-14-.6-20.3,1.1,1.2,2.7,2.2,3.1,3.5,3.4,15.8,7.4-.7,18.5,5.5,12.9,4.6-2.5-13.1,19-21.5a18.5,18.5,0,0,0,7.8-7c-3.6.6-20,7.6-18.8.8,6.7-.1,12.4-4.2,18.6-6.4,7.7-3.1,11.2-9.1,12-17.2s6.7-20-4.4-21.8a12.2,12.2,0,0,1,.3,8c-11.9-11.7-23.7-30.4-42.7-28.5,5.3-18.5,32.4,12.6,44.5,14.2.5.2,1.8-.3,1.8-.6,1-9.3.6-18.1-7-25.2-13.5-12.9-24.2,1.1-33.5-10.1,10.6-4.1,25.3-3.8,35.5,2.8,8.3,5,19.5,30.3,6.9,34.6,36.3,24.7,7.5-63.7-33.9-55.8-6.9,2.3-10.3,2.8-16.7-1.3l2.7-6.2c-8.4-9.8-19.8-17.5-31.3-23.8-5.1-2.7-14.7-10.8-20.1-8.8,8.6,18.9,15.3,16.6,30.4,27.2,4.6,3.7,8,9.1,11.3,14.2.7,1.2-1.1,4.1-1.7,6.3-4.6-7.5-12.3-12.6-17.8-19.4-8-9.3-18.7-6.6-28.8-7.3-6-5.1-14.9-1.1-22.1-1-5.3-.1-11.3-2.4-11.8,6.5-1.1,2.1-7.3,4.5-10,5.8s-8.1,2.9-9.8-1.8c-4,3.8-18,1.8-21.1-4.1-4.3-9.4,58.5-19.1,66-17.8,11.1.6,12.2.8,3.7-7.3-2.8-3.6-7.3-13.4-.5-16,9-1.7,16.4,2,23.8,7.1,16.6,10.7,34.5,17.7,44,36.3,1,1.4,2.9,3.3,4,3.1,9.6-1.6,19-3.6,28.5-5.4,11.5-2.3,24.1,7.8,24.6,19l-23-14.1c-.3.7-.7,1.3-1,2,19.8,15.1,30.9,30.5,34.5,55.5,2.3,10.1-.1,21.6,7.2,30.3,5.5,4.8,11.1-5.6,13.9,3.1,11,11.1,29.9,16.7,41.4,28,5.5,5,8,13.7,11,21.2,15.1,42.8,47,56.9,89.8,60.4.6.1,1.3,0,1.7.3,5.5,5.7,13.4,4.2,16.3-2.7l-31.2-2.8.3-2.7c8.5,1.2,33.1-3,37.6,3.2-1.2,3.5-2.2,8.7-4.8,9.8-8,3.7-17.7,4.2-25.7,7.6-7.2,9.8-17,10-27.9,9s-23-.8-34.5-1.2c-17.4-.7-32.8-7.3-45.9-18.2-29.9-22-42.9-41.3-53.9-76.6-.5-1.1,1.9-3.4,2.9-5.1,10.2,12,10.9,30.5,20.7,42.8,23.9,31.7,61.5,57.2,102.8,49.5-9-4.7-18.2-10.3-28-14.3s-11.9-14.1-15.5-23.5a459.6,459.6,0,0,0-27.4-58.1c-3.2-5.7-12-8.6-18.7-12s-12.1-1.4-15.6,4.4c-5.8,9.6-19.3,12-27.7,4.9-9.3-9.4-25.4,9.8-34.4,14.2s-8,16.3-.3,22.5c2.1,1.6,2.9,5.5,3.1,8.5,0,1.3-8,2.3-6.3,5.8,6.8,4.8,13.4,10.2,20.8,14.1,18.6,9.8,37.7,18.8,56.4,28.6,1.6.8,1.4,5.4,1.9,8,10.7,7.4,22.8,18.3,35,24.1,30.3,11.3,24.3,59.9-8.5,60.4-4.7-2.1-2.1-4.4.6-6.9,5.9-6.9,13.1-13.1,17.1-21-2.1-15.9-27.9-31.8-40.7-41.5-.3-.2-2.5,1.2-2.7,2.1-2.5,10.8-8.8,18.9-17.1,25.7-4.2,1.6-6.6,4.4-8.2,8.5,6.9,4.2,16.2,6.8,20.5,13.9,5.7,4.9,12.3,9,17,14.7,6.6,9.9,10.7,23.8,16.4,34,2-3.8,3.6-6.7,5.2-9.6,4.3,3.4,11.6,6.1,12.4,10.2,1.9,8.8,3.9,7.6,11.7,6.2,21.7-2.8,1.5-30.1,32-22.9-5.9-10.7-6.5-23-18-29.9-3.5-2-21.9-20.2-9.9-20.1.3,1.5.6,3,.6,3.2,2.3,0,5-.8,6,.1,7.6,6.8,15.4,13.5,22,21.2s23.5,30.1,4.6,34c-7.2.4-16.2-1.2-16.3,9.3s-7.8,12.7-15.5,14.7-16.9,5.6-25-1.5c-1-1-4.4,1.1-6.8,1.3-28.7,2.4-7.6-30.5-38.2-53.1-5.7,8.6,1.1,16.5,1.4,24.6.5,15.5,12.7,19.5,21.9,26.9,14.7,14.5,10.1,5.2,23.7,9.4-1.7.9-3.2,2.2-5,2.7s-2.5-.5-4.8.7c14.1,11.7,28.1,23.3,40.1,37.2,9.6,9.1,20.7,17,29.2,27.2,6.8,8.1,10.3,18.9,15.6,28.3,7.3,12.9,17.8,22.9,30.3,30.7,6.5,4.1,3.9,8.7,1.2,12.8-9.7,14.8-19.8,29.4-29.8,43.9-7.5,8.9-11.8,22.1-22.7,27.2-.3-5.6-5.5-7.4-10.1-8.1-13.2-.6-26.5-.2-39.7-1.6-4.3-.4-8.3-5.1-12.2-8.2-.3-.3,1.4-4.8,2.6-5.1,31.8-6.5,40.3-53.1,16.5-73.4-4-3.5-11.5-2.8-16.2-5.8-8.5-5.6-15.5,1.4-23.2,1.3-13.7,3-13.6-8.4-21.5,8.3-14.8,25.5-23.4,53.2-30.8,81.4.1,2,4.5,6.4,3.6,8.5-6.2,9.5-6.4,11.4-18.2,9.4-7.7.4-16.3,6.2-22.4-.7,14.1-8.5,25.2,1.9,29.9-20.4,10.1-31.9,17.2-63.1,36.8-91.3-13.8,7.7-25.7,5.7-37.8,3.8-2.8-.5-6.1,3.2-9.3,3.4a30.9,30.9,0,0,1-12.4-2.1c-5-2.7-8.9-8-14.9-9.3-3.4,15.6-9.5,30.6-8.1,46.7,1.6,1.3,7.4,2.2,9.9,2.9-5.3,13.2-19.5,7.6-28.9,4.7-16.1-4.4-30.2-7.4-42.3-20.7,6.1,29.2,18.6,56,46.8,67.8,8.9,4.2,20.5,1.5,29.1,6.9-10.1,14.9-36.2.7-46.9-7.6-26.7-16-33-47.7-39.1-75.9-.4-4.1,1.9-7.6,6.4-4.5,8.8,6.3,16.9,13.9,26.4,18.9s17.9,5.8,27,8.3c.8.2,2.9-1.5,3.1-2.6,1.7-10.5,3.3-21.1,4.8-31.7.4-2.9,1.4-6.7-4.2-5.6-6.2-2.4,8.8-33.4,3.3-37.4-4.2.3-11.8-8.3-11.6,4.2-1.1,2.1-3,1.3-3.9-.7-4.1-9.1-.5-17.5,2.9-25.8,7-19.6,18.1-39.6,23.4-59.3-5.2-21.6-27-42.4-42.4-58-8.3-1.9-14,20.7-34.4,18.6-31.1-11.6-36,5-62.5-10.4-11.3-6.4-21.7-14.9-32.4-22.4-1.1-1.2,1.1-6.2,1.5-7.5-6.8-7.3-17.8-1.7-21.5-16.4-1.7-7.1-5.1-13.7-7.2-20.7-2.8-9.3,3.8-25,11.3-27.3,12.4-.9,17.1-6.5,25-15.1,19.7-16.3,38.4,12.5,50.7,25.8a22.1,22.1,0,0,1,4.3,9.6c1.5,6.8,13.1,12.5,18.7,8.2,8.8-6.7,16.5-14.8,25.5-21.2,6.9-4.8,2-7.3-.4-10.9-4.4-6.4-8-13.8-17-14.8-43.8-.9-38.8,18.6-43.8-34-2.2-14.1-22.3-3.1-31.3-24.3-1.2-2.7,1-9,3.6-11.3,10.9-9.3,18.7-20.2,22-34.3.6-2.6,3.1-4.7,4.8-7.1,3.8,18.4-7.9,34.8-20.5,46.9-1.1,1-1,5.7-.1,6.2,34.6,14.4,24.7,13.4,33.1,47.1a5.4,5.4,0,0,0,3.7,3.2c20.4,2.2,37.1-4.9,50.5-20.4,5.3-5.1,9.3-12.5,16.2-15.2,1.9,3.6.8,7.2-1.7,10.1C1559.9,290.6,1551.5,299.7,1543,308.9Zm202.8,373.8c13.5-1.1,44.3,3.2,54.3-3.2,14.2-17.9,27.2-36.8,40.3-55.5.7-1-.5-4.1-1.7-5.5-14-10-28.9-23.4-37.2-37.8-4-6.5-20.4-44.9-28.8-35.8,4.3,5.9,13,8.3,15.1,15.7-1.4.1-3.1.8-4,.3-5.5-2.1-13.3-10.4-18.8-9.6-8.9,8.9-19.3,18.1-28.8,25.9a7.4,7.4,0,0,0,3.2,4.5c15.2,8,26.1,19.7,30.1,36.6,2.6,11.1,7.5,22.6.4,33.8S1758.3,674.8,1745.8,682.7ZM1611.9,303.6c-5.1-5.7-3.8-17.3-11.6-20.8-2,4.7-3.7,9.5-5.9,14,0,.1-2.6-.5-2.8-1.1-2.2-6.2-5.9-3.2-8.9-1.3a172.9,172.9,0,0,0-17.4,13.2c-5.1,8-.9,19.8-3,28.7a61.2,61.2,0,0,0,2.8,62.1c1.8,2.8,5.6,4.3,7.7,6.9,4.6,6,7.8,13.8,13.6,18.2s35.6,4.7,41.2,2.5c11.6-4.2,22.3-11.1,33-17.4,2-1.2,9.7-4.5.9-8.2-.3-.1-.5-1.2-.3-1.8,2.8-7.4-4.4-7.4-7.4-8.3-13-3.8-26.6-5.5-39.3-9.9-16.9-5.8-31.9-14.4-33.1-35.5-.6-10.8-2.2-22.1,8.6-29.2C1597,311.1,1604.7,307.5,1611.9,303.6Zm55.4,234.7,3,1.7c-2.9,14.1-8.5,27.2-13.8,40.5-1.3,4.2-3.1,10.1,5.4,8.5s25.4-1.2,25.5-13.7c-.1-1.7,2.8-3.6,4.3-5.4,1.4,1.5,2.8,4.3,5.2,3.6,4-2.2,7.9-4.5,11.7-7s-.7-8.2-.7-12.2c-2.2-24.4-3.9-48.9-7.3-73.1-.5-3.2-4.1-6-6.2-8.9-12.5,21.3-24.7,35.8-47,47.3-10.1,5.8-20.4,11.7-25,23.6-12.3,34.6-23.3,23.2,9,42.1,5.9,3.9,5.6,4.2,9.6.6,2.8-1.5,6.4-3.5,7.9-6.3C1654.6,565.7,1660.3,551.7,1667.3,538.3Zm-44.4-87.4c-3.3-.3-6.5.9-9.7,1.5,3.2,4.3,8.4,10.6,8.4,15.6-3.5,25.8-15.8,48.9-25,72.9-.7,2,.2,6.7.7,6.7,3.9.4,10.9.7,11.2-.4,9.9-32.1,49.1-34.8,66.3-60.8,7.3-9.9,9.9-18,5.8-30-14.6,6.5-30.2,9.9-45.7,13.8-1.6.4-3.7-1.4-5.6-2.2,19.5-13,57.5-8.8,55.4-41.3-.4-4.1-3.3-11.5-8.7-8.3C1660.7,433.5,1646.1,449.9,1622.9,450.9Zm-9.4-137.2c-4,2.3-6.7,4.4-9.7,5.4-30.8,14.2-3.7,51.7,21.7,55.1,13.8,2.7,27.3,7.2,40.9,10.9,1.5.4,3.6,1.9,4.2,1.4,4.8-4,10.4-7.7,13.9-12.8,16.8-22.9-13.4-36.6-31.2-44.4C1640.1,323.6,1626.6,318.7,1613.5,313.7Zm128.8,247.4c3.2-4.9,23.7-21.2,20.6-25.7-18.7-18.5-35.5-33.9-55.5-53,3.6,23.6,6.9,43.2,10.2,66.2,1.1,7.6-.7,16.7,11.6,16.1,1.7.3,1.8,10.7,5.7,7.4,3-12.1-9-23.4-5.5-35.4,1.5.5,3.8.6,4.2,1.6C1736.6,545.5,1739.2,552.9,1742.3,561.1ZM1484.2,335c-8.2,2.2-10.3-7.4-16.7-9.2-10.9-2.9-18.5,8.4-26.3,14-12.9,6.1-19.8,2.3-16.7,19.9-3.4,24.6,23.9,25.8,41.7,28.8.7.1,2.5-2.5,2.5-2.6-2.5-2.8-5.2-5.5-7.8-8.3C1435.9,359.9,1468.7,343.3,1484.2,335Zm-3.2,77.7c-.1,6.9,10,13.2,13.9,11.2,2.2-2.5,3.8-6.8,6.7-8.2,17.4-6.9,12.7-15.2,18.8-30a8,8,0,0,0-.6-5.5c-3.9-1.4-10.2-.8-14.5-.8s-11.5-5.7-13,1.6c-2,9.8-10.1,12.1-16.3,15.8s-13.6.5-19.8,2.5C1459.2,405.7,1475.9,406.4,1481,412.7Zm60.3-39.4c1.1-4.9,5-16.1-5.6-5.6-.4.4-1.3.2-1.9.5-11.7,3.4.4,15.2-2.4,22.7-2.7,9.9-6.6,19.5-10.1,29.1-5.6,10.6,4.4,6.3,11.1,6.7,12.3,1,20.5-5.6,27.4-14.5,3.1-7.6-8.2-11.9-10.6-18.1S1543.9,380.3,1541.3,373.3Zm82.4,71.2a2.9,2.9,0,0,1,.2.9,73.5,73.5,0,0,0,48.3-33.4c-25,11.4-40.1,27.4-69.7,21.5-1.1,0-3.2,1.4-3.1,1.9C1601.3,447,1614.5,447.2,1623.7,444.5Zm-128.9-92.8c-2.3-.9-6-3.8-8-2.9-7.2,3.1-14,7.4-20.6,11.7-1.4.9-2.5,5.1-2,5.5,3.9,3,8.1,7.5,12.4,7.6C1486.3,374,1494.9,363.4,1494.8,351.7Zm158.1-137.5h-1.8c-.2,4.9-4.1,32.8,6.9,20.6,8.8-9.5,13.3-12.3.7-20.8-1.4,2.5-2.3,5.6-4.2,7.6C1654,219,1653.4,216.6,1652.9,214.2Zm99.1,94.2,1.5-2c1.5,4,.2,15.6,5.1,15.8,11.9,4.1,22.5,14.9,34.3,14Zm-82.2-61.6,12-12c-2.5-1.3-6.3-4.2-7.3-3.4-4.2,3.3-7.7,7.7-11.4,11.6C1664.5,243.9,1666,244.7,1669.8,246.8Zm49.1,336.6c-.3-1.6-4.3-7.5-6.3-7.2-5.2,2.8-12,4.9-11.4,12.2C1707.8,590,1713.2,586.1,1718.9,583.4Zm-55.6-375.7-2.6-4.5C1655.3,209.1,1654,213.2,1663.3,207.7Zm61.1,363.5-3.6,2.5c2.6,2.1,4.8,1,7.5-.3Z"
		transform="translate(-59.7 -41.8)"/>
	<path
		d="M897.8,67.2c4.8-3.2,22,8,28.1,9.9,12.1,7.5,27.7,14.8,19.3,31.5s24.1,25.4,8.6,42.5c-2.3,4.9-.1,12.1.4,17.3,7.5.1,3.1,5.3,3.8,8.5,6.2,20.7,11.8,42.7-2.3,61.8-1.8,3.5-.6,8.5-4.4,11.2-5.6-4.7-4.2-22,1.1-28.3,2.4-3.3,1.7-9.5,1.2-14.2a103.4,103.4,0,0,0-3.7-19.2c-3.5-10.1-9.1-19-4.7-30-7.6-.2-23.1,1.7-29.1-2,6.3-4.3,15.7-2,22.4-5.5,4.2-1.8,9.5-6.8,9.8-10.7s-4.3-9.2-6.9-13.8c-7,2.9-14.1,8.3-21,11.9-6.6.3-12.9-5.9-19.1-8.3-3.9-6.2-4-14.4-13.4-16.2-3.8-.9-6.8-5.7-9.9-8.9-.5-.5.4-2.3.6-3.5,6,1.5,9.8,7.8,15.5,9.4s13.1,2,20,5l-14.9,7.1c8.9,1.7,17,3.3,25.2,4.6,2.3-.7,2.2-7.5,1.8-8.8-6.9-9.1-7.2-24-20.2-24.7-.6,0-1.2-1.3-1.8-1.9,8.5-4.4,19.4,5,20.8,14.1a28.9,28.9,0,0,0,8,11.9c3.3-10.3,10.5-25.7-5.2-29-9.9-4.2-19.2-10.1-29.1-14.5-8.2,2.1-9.1,16-15.7,20.3-4.2,4.5-19.6,5.2-16.5-5.7,13,7.1,17-12,21.4-20.4s-4.4-12.9-12.3-15.5c-.6,2.4-2,5-1.6,7.3,1.2,11.2-9.8,16.5-14,25.7-5,4.7-12-6.2-15.2-3.3C843,94.5,831.7,93,824.7,97.3c-2.9,1.8-6.6,2.5-9.2,4.6-5.2,4.1-9.1,5.2-13-1.5-.6-1-4.3-.3-6.6-.2s-6.9,1.5-8.5.1c-3.8-3.1-4-2.4-6,1.6-4.2,8.8-8.4,18.1-14.9,25s-6,12.8-5.9,20.4c1.3,29.6-27,36.5-25.4,47,5.6,11.9,29.9,2,27.4,18.9-5.9,16.1,12.6,30.2,3.2,45.7-.7,1,.2,3.3.4,5,20.1-9,43.9-6.1,61.5-21,10.7-7.9,19.1-18.1,23.4-31.2.7-2.2,2.8-3.9,4.3-5.8,7.5,20.6-22.4,48-40.4,53.5,2,2.1,4,10.9,7.8,9.4,16.2-13.5,33-26.5,47.7-41.8.8-.7.1-2.8.4-4.1s1.3-3.5,1.8-3.5a19.5,19.5,0,0,1,6.7,1.7c.3.1-.5,2.6-.8,4,11.4,6.2,12.7-11.3,11.5-18.4,3.5-6.8,10.4-21.9,19.2-20.8a64.3,64.3,0,0,1,11.9,13.6c.8,1.1-2,4.5-2.8,6.9-5.9,13.1.2,26.8,14.5,32.6,9.7,3.8,16.4,14.8,25.4,21.2s17,9,25.3,13.9c19.4,11.1,32,29.9,49.1,43.8-2.9-3.3-4.3-7.1-5.2-11.3,10.2,3.1,22.8,20.5,24.9,31.6.5,2.5,7.1,3.3,9.2,6.1,13.9,17.9,25.6,38.8,29.9,61.1,2.2,13.7-12.5,24.4-23.8,18.3-6.2-3.5-8-.1-10.9,3.1-14.1,15.6-14.5,12.2-26.9,6.3-15.9-5.8-34.9-8.9-31.8-30.8-.1-6.7,1.7-15.5-1.4-21.5-8.6-9.7-18.9-18.1-26.2-28.8l-3.3,2.2c5.7,11.5,11.2,23.1,17.2,34.5,3.1,5.2,8.4,8.9,7.8,15.8-2.7,0-6.2,1-8.2-.2-10.5-6.7-20.7-13.9-30.5-20.6-3.6,7.3-6.2,18.1,1.6,24.6,10.9,12,31.1,23,35.3,38.8.2,9.5-4.8,19.2-7.9,28.7-.2.7-2.8.6-4.3,1-3.3-8.5,3.9-15,5.4-22.9.8-9.8-26.7-29-34.2-37.2-2.3-15.1-6-3-8-.1-7.2,10.3-17.7,12.6-29.2,13.9-21.3,1.9-42.8,6.3-64.1,7.5.2,6.5,2.7,13.6,1.4,20.1l-3.5-2.7c.3,1.8.3,3.8.9,4,5.9,2.5,4.6,7.6,2.7,10.9-5.3,10-.5,20.9-1.6,31.6.1,1.1,3.1,3.2,3.7,2.9,13.1-6.2,24.5-14.6,35.1-24.3,2.8-2.4,8-3,10.3-5.8,3.2-10.6,5.9-22,11-31.6-3.4-5.4,2-5,4.3-6.5.2-.2,1.5.6,1.5.9-2.1,11.4-1.3,23-.7,34.2-4.7,13.9-21.7,19-32.3,27.8-3.6,2.6-6.7,6.8-10.7,7.9-8.2,2.2-7.9,8.8-9.3,14.7-2,8-4,16.1-5.4,24.2-.3,1.7,1.8,5.1,3.4,5.6,9.8,2.5,19.7,5.7,29.8,6.7-1-4.1-1.9-8.3-2.8-12.4,12.3,6.9,24.9,13.3,38.3,17.7,9,2.8,14.3-2.2,20.5-9.4s1.4-11.9-.5-17.3c-5.7-17.1-6.6-39.9,7.1-53,3.5,3.5,5.5,4,5.6,7.8-7.1,16.4-11.3,34.5-.9,50.3.9,3.6,1,8.4-.8,11.2-6.6,10.3-7.3,10.8,4,16,7.4,2.7,16.8,2.2,25,2.1-1.7,5.9-2.5,9.7-9.5,9.9,4.5,3.4,9.1,7.4,14,10.7,6.1,5.1,16.3,6.3,18.9,14.6-7.7.4-15.7-3.7-22.5-5.1,1.2,5,2.6,11.3,4.2,17.4a4.5,4.5,0,0,0,2.8-.1c19.2-8,32.9-21.9,42.3-40.3,2.4-7.4,20.5-31.3,4.8-32.7-5.8-.9-9.5-4-13.3,4-3,6.3-9.6,11.1-15,16-1.3,1.2-4.4.3-6.7.3.6-7.4,3.3-8.5,8.4-12.7,3-4.3,11.2-7.9,3-14.7-.6-.5-1.3-1.5-1.2-2.1,2.1-13.8-11.6-13.4-17.5-19.9s-13.8-13.2-19.7-20.5c-2.5-3.3-3.5-7.9-4.6-12.1.4-5.4,5.3-4.5,7.7-1.5,8.1,17.6,24.2,27.1,38.3,38.7,2.4,1.9,5.3,5.8,4.8,8.2-1.1,5.7,1.4,5.1,5.3,5.4,12.2.2,27.7,1.9,24.8,17.7-10.9,22.5-20.5,46.3-39,63.6,22,15.5,41.7,34.4,61.6,52.5,7.6,7.1,7.2,9.7-.1,17.2-5.3,5.4-10,11.5-14.9,17.4-1.9,4.6,30.8,5.6,35.1,6.1s10.1-3.3,12-6.8c5.3-15,37.3-28.7,32.3-37.4-18.2-22.2-36.4-44.4-55.3-65.9-9-10.2-19.7-18.8-29.1-28.6-2.2-2.2-2.1-6.6-3-10.1,36.6,25.1,63.9,61.9,92.5,95.9.9-4.7,1.8-9.3,2.7-14.1,17.6,30.9-18.8,44.2-34,66.7-14.8,16.7-38.5,4.8-57.6,4.7-6-.4-12,0-16.2-5.3,1.8-1.6,3.3-3.9,5.4-4.6,8.4-4.4,29.7-30.5,14.6-37.4-18.3-13.5-35.3-29.4-55.1-40.5-10.9-2.2-21.6,9.5-24.7-8.4-3.5-12.1-11-23.2-13.1-36-6.5-4.8-16-7.5-23.9-9.4,1.5,10.5,2.5,10.9,9.9,17.5-2.9,5.2-8,9.6-10.2,15.1-13.1,6.1-7.9,18.4-9.4,28.2a404.2,404.2,0,0,0-3.2,90.6,19.3,19.3,0,0,1,7-2.3c.7,9.8-14.9,17.8-24.6,17-14.5-1.6-28.7-1.9-43.3,1.8-7.7,2-16.7-.3-25-1.4-15.3-3.2-34.7-.4-45.3-14-4.8-6,1.1-9.2,4.9-12.2,7-5.5,14.5-10.2,21.2-16s12.5-12,18.4-18.4c7.7-8.2,5.6-18.7,5.8-28.5s-1-19.5-1-29.3c-.7-6.3,3.9-14.5.9-20.2-19.4-1.2-4.6-26.1-4.1-36.8-2.9-16.2,4.3-31.2,5.9-47.2-21.5,7-13.5-20.6-12.8-32.4.1-6.7,7.1-17,4.3-22.2s6.8-8.1-.4-12.4c-1.2-1.9,2.5-9.2.4-12.5-3-5.5-5-24.3-14.6-16.8-12.8,10.2-28.8,21.4-45.6,11-1-.3-2.4.2-3.6.4-38.9,9.4-8.9-2.6-51.9-29.2-21.5-7.2-24.9-33.8-11.1-49.6,2-2.6-.5-8.4,0-12.6-.9-19.3,19.5-37.9,38.9-28.5,6.1,2.6,16.9.2,21.9,4.9,7.1,9.5,8.7.3,10.6-3.2,4.6-8.6,7.9-17.9,12.6-26.5,2.3-5.2,10.4-9.5,11.4-15.1-1.3-1.6-3.4-2.5-5.2-3.7-13.9-11.7-33.4,9.8-43.3-5.8-3.6-12.3-7.8-25-9.5-37.6.7-8.9-2.6-12.4-11.9-13.5-5.3-.6-10.3-6.4-14.7-10.5-11.4-10.7-.1-17.2,5.9-22.5,34.1-29.6,4.3-41.9,36.7-74,2.7-3.5,7.3-10.2,6.6-10.8-13.5-14.1,2.6-28.3,15-35.2,11-2.7,21.4-8.9,32.5-11.7,14.7-3.3,30.4-2.8,44.9-4.5,4.8,8.7,24.9,2.8,25.5,12.6C894.7,58.8,896.6,63,897.8,67.2Zm75.1,324.2,2-1.5c-6-11.3-18.2-35.2-13.1-47.6.3-.8-1-2-.7-2.8,1.5-13,32.5-3.9,31.9-43.2,1.2-17.1-21.7-15.2-31.5-23.5-10-6.6-18.6-15.3-28.1-22.6-4.7-3.6-10.2-2.9-13.9,2,.2-1.7,1.8-3.7.8-5.2-5.5-3.4-11-6.9-16.7-10.1-7.2-4-15.3,1-21.5-.6-13.5-3.4-18.2,6.2-25.5,12.6s-11.9,10.2-17.9,15.1-15.3,6.8-18,15.9c-.4,1.1-3.1,1.3-4.6,2.1s-2.9,1.5-2.9,2.3c-.6,12.7-2.1,25.4-1,37.9,2.6,23.1,7.3,49.1,21.6,67.4,16.6-4.8-.6,18.8,14.7,16.4,15.2-.7,74.1-5.1,79.1-20.2,4.3-16.6-2.7-32.5-6.7-48.4-7.9-19.1-38.2-9.4-54.5-13.7-13.9-2-14.1-16.8-17.8-27.5-4.1-13.2-4.9-27.5,4.5-38.8.9,1,2.7,2.2,2.6,3.2-1,8.7-3.4,17.4-3.1,26s3.2,17.4,5,26.1c3.7-3.3,2.7-6,5.1-9.6,8.9,14.3,32,10,46.5,15.6,9.8,2.5,19,7.3,28.6,10.4,17.7,7.5,6.5-15.1,22.2-24.5,1.3,10.7-2.7,21.3-5,31.6-5,11.8-17.1,1.3-25.5-.4-4-.3.5,17.9.2,23.2,4.7-4.9,6.4-8.1,10.7-9.9C951.4,363.1,962,377.4,972.9,391.4ZM906.1,728.1c10.5,2.1,15.9,1.2,15.3-8.5-.4-7,.6-14,.5-21-3.6-33.6,4.7-66.3,8.3-99.5-22.1,5.4-44.2,3.1-66.7,2.1-1.5,0-4.2,2.2-4.2,3.4-3.4,74.9,14.7,67.1-48.1,116.9,1.4,1.1,2.7,2.8,4.2,3.1C844.3,731.8,878.3,731.3,906.1,728.1ZM802,370.4c-3.2.7-6,1.9-6.6,1.3-3.6-4.2-6.4-9.1-10.1-13.3-6.7-8.6-11.1-1.3-17.3,3-10,6.3-21.3.8-20.8-10.8-1.2-8.1,9.3-26.5,2.2-31.2-11.2-2.2-29.8,9.2-23.2,25.2,1.6,3.9.2,11-2.5,14.2-4.3,5.1-7.3,9.8-5.7,16.3s-1.4,18.2,11.8,18.7c2.9.1,5.8,1,8.7,1.5,6.4,1.2,18.6-5.8,21.3-11.6s6.6-17.4,14.8-18.8c1.4,5.9-1.8,9.8-4.5,14.5-3.7,10.7-8.3,20.5-21.1,22.7-1.1.2-2.7,1.3-2.9,2.2-.1,2.8,3.3,4.7,5.1,6.5,4,4.3,7.4,9.2,11.9,12.8,13.1,5.1,9.1-2.3,16-6.7C806.3,407,793.8,391.1,802,370.4Zm244.8-27.8c-2.3-5.4-3.1-10.1-5.8-12.7-14.2-6.9-24.4-18.7-35.3-29.9-12-6.1,2.6,26.4-36.1,40.3,10.3,16.3,26,28.1,39.9,41.2a2.3,2.3,0,0,0,1.8.3c7.7-5.3,19.2-4.4,23.7-15.2C1038.5,358.3,1042.9,350.5,1046.8,342.6Zm6.4,10.5c-7.7,4.7-8.1,13.7-13.5,20.3-7.3,11.3-21,11.9-32.2,15.8,1.2,7.2-1.2,20.9,3.4,26-1.1-3.9,1.8-7.2,3-10.7,1.1,1.7,1.9,3.6,3.3,5,2.9,3.2,3.4,11.2,11.2,6,1.3-.9,4.2.6,6.4,1-.6,2.4-2.5,5.9-1.9,8.1,5.2,6,11.1,5.1,16.4-1s9.1-18.1,20.5-6.9c.4.4,1.6.3,2.4.3,24.1-2.5,5.8-29.2,0-41.5-5.8-9.3-7.8-22.2-18.7-27C1053.3,350.6,1053.2,352.7,1053.2,353.1ZM778.5,89.1c.5,0,3.1,0,3.2.4,1.7,8.9,9.7,3.6,14.3,6,1.4.8,5.1-2.7,7.6-4.6s2.6-3.6,3.9-3.6,6.1,5.9,9.2,4.9c8.9-3.9,26.2-18.5,35.3-14,7.9,1.2,10.3-10.1,13.3-15.6.6-1.6-1.4-5.9-2.9-6.3-12.6-3.2-25.4-5.2-38.1-.4C807.7,63.7,779.9,66.2,778.5,89.1ZM939,587.9c.1-10.2-3.2-13.1-10.8-13.9-11.6-1.3-23-4-34.5-4.9-11.4-2.5-28,9.7-35.8,1.4-1.1-1.1-2.8-1.6-4.2-2.3-1.6,4.1-6.5,21.1-.8,22.6C881.3,591.7,911.3,597.6,939,587.9ZM862.7,413.8a5.9,5.9,0,0,0,.2,1.4c-5.6-1-10.8,1.5-16.2-1.1,0,5.8,4.8,12.6,8.9,15.9,18.9-2.2,37.8-4.6,56.6-7,16.1-.8,32.4-12.5,26.5-30.5C915.6,406.6,888.8,409.4,862.7,413.8Zm-75.3,13.8c13.2.3,27.7-3.3,36.7-14.3,3.5-3.7,10.4-7.4,5.1-14.7-3.1-4.2-6.7-8.1-9.1-12.7-13-17.2-6.9-45.6-32.6-49.4-1.2,4.6-4.6,10.1-3.2,13.6,3.4,6.4,8.6,14.1,15.2,17.9-.8-9.1-10.9-14.9-13.3-23.8,2.1-.4,5.1-1.8,6-1,7,6.8,14.7,13.3,16.4,23.7C816.9,397.5,808.7,406.3,787.4,427.6ZM770.1,319.2c-5.4,4.1-10.1,5.9-11.2,8.9-1.4,6.5-7.1,21-.5,25.4,6.5,2.5,12.2-19,14.8-23.9C774,327.4,771.7,324.1,770.1,319.2Zm132.6-92.7c.1.5.3.9.4,1.4,2-.7,5.7-1.3,5.8-2.2.5-7.1-.5-14.4-.2-21.7-6.6,2.1-9.8,7.4-11,13.8.4,2.1,5.7,5,8.2,5.9ZM803.2,312l-2-.8c-2.2,5.4-8.1,12-7.6,17.8,3.6,2,7.4,3.5,11,5.1C804.2,327.1,803.7,319.6,803.2,312Zm136.4,66c.9,2.6,2.8,7.1,4.9,9.7,1.9-2.9.8-7.9,2-10.3,6.3-5.5-2.2-6.5-2.6-9.8C938.8,368.3,941,373.4,939.6,378Z"
		transform="translate(-59.7 -41.8)"/>
	<path
		d="M92.8,363.3c-.4-2.4-1.7-5.2-1-5.9,6-5,11.9-10.8,20.4-8.9,12.5,0,11.6,11.4,15.8,18.5,4.5,3.7,11.8,3.7,17.2,5.9s20.8,9.2,26.2,6.6c4.9-8.8-6.5-17.3,2.9-26.4,5.3-6,3.9-17.3,12-22,10.2,9.2-5.4,20.8-.2,30.1,6.9-7.4,9.7-18.9,14.7-27.9,1.9-5.2,1.7-11.1,6.5-14.9,1.2,1.9,3.8,4.3,3.4,5.8-4.6,20.4-15,38.2-26.1,55.7-.9,6.3,9.9,13.3,13,18.9,18.5,23.4,56.8,9.4,62.2-18-.3-5.6,10.5-23.7,3.9-25.1-8.8.5-17.7,2.1-26.4,1.7s-16.3-5.6-24.8-5.9c-.2-3.7,2.7-3.9,5.5-3.7,16.7,1.4,36.6,6.3,51.7-2.7-1.6-9.2-2.6-18.5-5.6-27.2-5.4-8.2-28.9-16-38.6-12.8s-20.6,7.2-29.6,12.9c-3.2,2-2.5,10-3.5,14.8-3.4-4.1-7.9-9.1-11.8-14.5-7.9-14.3-33.9,10.6-57.5,6-15.1.3-11.6-24.9-16.3-35.5s-31.6-14.9-22.7-29c6.7-8.5,14.7-16.2,21.5-24.7,12.4-21.5-18.8-36.8,12.9-73.7,14.1-14.1-14.7-16.1,5.8-28.4-.7-.3-1.4-1-2-.9-8.9,1.8-1-8.4-1.1-12.9.4-3,6.1-4.9,1.9-8.9,5.2-5.6,5-4.9,10.6-16.8,1.7-3.3,5.1-11.5,13.5-9.9,2,.4,4.7-4.1,7.4-4.8,7.7-2,15.6-3,23.3-4.8s7.2-1.9,8.6,3.1c3.8-7.3,9.2-8.2,16.9-5.8,15.3,4.1,33.4,8.8,47.4,15.3-1.2,5.2-.1,8-3,10.9-12,.4-14.4,6.3-13.8-4.2A27.9,27.9,0,0,0,222.2,96c-.5.2-1.3-.9-2-1.4l4.5-3.1c-12.8-7.5-15.7,0-21.5-2.3a69.4,69.4,0,0,0-11.5-9.4,2.9,2.9,0,0,0-2.8.6c-5.2,10.6-8.8-.6-21.2,6.4-22.6,7.8-35,19.8-37.8,44-.7,4.1-5.5,8.5-4.3,12.6,7.8,6.7,7.3,11.9,1,19.8-42.9,49,19.2,50.6-33.8,98.4-1.3,1.4-3.4,4.5-3.1,4.8,2.8,2.8,5.7,5.8,9.3,7.4s9.1-.3,10,1.4c5.6,12.2,7.1,26.1,10.3,39.1.2,1.2,2.4,2.5,3.7,2.6,27,2.8,50.1-15.1,70.7-30.1,7.2-6.1,12.5-15.2,8.4-26.2-.7-1.7,0-4,.1-6,1,.1,2.6-.2,3,.3,2.2,2.7,5.6,5.5,5.8,8.5,1.9,22.1-19.1,30-29.4,45.4,10.4,1.9,19.7-1.5,27.4-8.4,3.3-1.9,6.9-3.3,10.2-5.1s4-4.8,7.2-4.9,14.6,2,13.9-2.9-.6-10.7-3.2-12.2-.2-13.6-9.6-7.1c-8.1,3.2-8.9-4.4-9.4-10.4-.5-2.4,3.6-7.1-3.3-6.2-2.7-.8-3.6-7.7-1.1-9.3,29.5-13.7,16.8-67.8-14-45.8-.6.6-3.1.7-3.2.4-.9-1.8-2.2-4.7-1.5-5.5,7.1-10.4,27.2-7.9,34.8,1.1,17,19.6,5,34.5-5,53.4-1.2,3.3,1.2,8.1,2.1,12.1,3.7,1.2,10-.9,12.7,1.4,9.5,7.7,9.1-3.2,11.5-6.2,4.1-3.8,4.7-15.6,9.6-17,9.8,3.1,10.2-7.4,15.6-9.9,1.2,11.9-13.8,15.5-18.6,24.8-7.4,14.5-14.1,26.1,3.1,36.1,2.7,2.7-.8,6.8-3.3,7.5-8.3.9.4,7.7.4,11,25.6,17.7,10.2-12.1,30.1.1,19.6,9.7,35.2,25.4,51.8,39.3,6.5,9.1-11.1,30.3-15.2,39.8-6.9,8-12.8,8-7.3-3.9,5-9.4,10.4-18.6,15.3-28,.4-1-1.7-3.9-3.3-5.1-8.3-4.9-20.5-17.7-29.3-18.8,3.1,18.8-6.2,53.1,7.9,65.4,8.1,6.3,19.3,10,29.5,4.7,2.3,8.4-2.1,11.4-9.6,12.6-4.5.7-7.3,11-4.9,15,6.7,13.2,21.2,3,32.6,8.3,6.5,1.5,8.7-4.1,9.7-7.3,3.1-10.4,7.4-21.6,6.1-31.8s-8.9-18.2-14.3-26.9c-2.9-4.6-7.4-8.2-10.5-12.7-.8-1.2,1-4.1,1.6-6.2,7.1,2.1,14.2,15.4,20.1,20.8,13.8,16.6,14.3,35.5,6.1,53.9-4.1,9.3,2.6,12.2,6.2,15.8,11.4,11.7,9,27-5.7,34.6-8.3,5.8-4,23.8-22.5,21.8-12.8-2.5-14.9,12.4-15.2,21.6,4.1,16,20.8,28.1,20.7,45.8-8.7,7.5.4,12.2,3.1,17.1,6.3,11.6,14.5,22.1,20.4,33.9,7.7,17.4,13,36.1,20.1,53.9,5.2,15.5,8.1,31.8,16.4,46.1.8,1.8,1.7,5,.9,5.6-3.7,2.9-1.9,10.6-10.2,10-18.8,4.6-37.6,15.3-56.8,20.1-15.3,4.3-31.9,3.4-47.7,3.8-10.2.8-23.7-5.3-27.9-14.6-.7-1.7,2.7-6.6,5.3-8.2,20.8-8.8,37.3-23.8,52.3-40.4.6-.6.3-2.6-.2-3.7-4-10.9-9.1-21.1-16.8-29.9-12-15.5-23.5-31.3-33.3-48.2-3-2.7.1-4.3,1.6-6.6-2.1-.8-5.2-.9-6.2-2.4-9.8-13.7-14,11.8-16.7,18.3-10.9,44.5-56,64.3-77.5,102.6-6.9,13-16.1,24.9-25.3,36.5s-20.9,5-32.6,3.7c-13,1.1-20.7-6.5-25.5-16.5C90.1,720,72.3,694,81.5,665c2.1-7.1,7.8-22.9,13.3-27.7,1.9,1.4,4.1,2.7,5.1,4.6,6.2,11.3,12,22.8,18.2,34.1,2.3,3.1,6.5,9.9,10.9,7.1,14-22.1,25.1-45.7,37.4-68.7,3.9-7.3,7-16.2,13-21,9.3-7.3.9-13.2,1-19.6.2-9.3-.6-18.6,6-27a327.1,327.1,0,0,0,33.7-60.3c7.2-16.5-8.1-13.7-14.6-27.1-1.4-2.2.8-7.1-.8-8.6-9-7.4-22.6-2.2-32.9-5.2-7.5-2-14.9-.4-22.1-1.8-4.4-1.6-9.6-6.3-14.5-4.2-6.7,3.4-12.9-2.7-18.9-.4-8,3-15.1,1.4-22.6-1.3-7.5-.1-16.7,8.2-21.7-2.9-14.9-24.2-13.4-15.6-10.1-43.6-3.4-10.8,1.9-24.9,13.1-29,2.3-.9,5.5,1.3,8.4,1.5S89.9,363.5,92.8,363.3ZM252.7,631.8l-3.5-1.2c-2.8-8.5,6-14.7,7.4-22.7-8.8,0-18.9,1.5-26.8-1.3-10.4-4.2-22.3-5.4-31.1-13.2-1.9,0-3.8,2.4-5.5,2.5-6.8.9-11.3,4.4-14.4,10.7-12.3,25.5-25.3,50.7-38.6,75.7-17.5,32-34.5-21.7-46.1-33.2-14.6,25.4-7.1,55.6,6.3,80,11.9,27.4,14.7,22.7,42.6,28.7,3.1.4,8,.5,9.2-1.3,11.9-17,22.4-35,35-51.4C209.6,681.3,233,658.1,252.7,631.8ZM187,565.1c2.1,7.3,9,22.5,15.1,26,0-.9.4-1.9,0-2.5-4.2-7.4,5.5-2.6,5.4-6.3,23.6,26.2,25.6,16.4,57.3,15.2-1.2-3.2,13.7-1.9,2.3-8.2-10.8-9.5,53.1-99.7,60.3-116.5,2-3.8-.2-9.8-.8-14.8a3.7,3.7,0,0,0-2.7-.3c-8,4-15.7,8.8-24,12-14.4,5.6-29.1,10.4-43.8,15-6.9,1.9-19.3-1.2-24.6,3.6C218.2,514.6,202.2,539.9,187,565.1Zm196.6,86.3c-7.2-20.3-18-41.1-29.6-59.9-8.4-13.5-8.5-13.1-22.6-7.2-25.2,7.7-2.3,18.6-35,22,11.4,17,23.3,33.8,35.6,50.1,2.5,4,2.9,9.2,4.9,13.6,5.7,9.9,16.6,27.2,5,37.1-6,4.6-11.7,9.5-17.6,14.2-3.1,2.4-4.2,8.8-10.4,5.3a2.9,2.9,0,0,0-.9,1.3c-.2,9.3-10.9,6.9-15.9,12,21.4,5.9,44.3-1.7,65.9-4,2.5-.4,4.5-2.9,6.9-3.8,10.2-4.7,28.1-6.2,34.4-15.4C403.9,693.2,387.6,674.5,383.6,651.4ZM292.1,345.1l-1.5,3.4a162.9,162.9,0,0,0-7.2-26.8c-.8-2.2-4.2-3.4-6.4-5-2.6,4.7,2.8,9.9,3.2,14.9,2.8,12.2-7.1,29.8-11.5,41.4-6.1,12.2-3.2,27.1-17,37.6-31.4,20.4-47.6,7-70.8-13.2-2,7.9.2,16.6.1,24.7,1,15.2,7.8,19.2,20.9,12.5,1.1-.6,2.8-.1,4.3,0,15.1,4.4,14.5-9.8,27.1-12.2,0,2.5,1.1,6.1-.1,7.4a195.4,195.4,0,0,1-21.6,17.9c3.4,4.1,6.1,10.9,10.2,11.8,30.2,6.2,49.1-22.7,70.5-38.5,14.8-12,1.7-24.8-.1-38.2S292.3,357.6,292.1,345.1Zm45.1,195.8c-1.3,6.8,1.6,14.6-4.1,19.1-5-4.1-4.2-22.2-5-29.1-1.2-11.3,5.1-23.8-.5-34.1-6.8,1.9-9.5,8.2-12.8,13.7-10.1,16.2-17.7,35.7-29.2,50.5-9.6-1.1-8.9,7.5-11.4,12.3-6.1,12.1,5.3,15.2,14.2,18.5,7.2,2.9,15.6,5.2,21.9-.6s8.8-10.4,14.3-13.6,13.7-4.2,14.7-13.8C340.1,556.2,346,548.6,337.2,540.9Zm-226.6-182c-17.7.5-7.7,13.1-14.7,16.7-7.4-.1-17.1-5.3-22.8,1.6-5.7,9.2,4,20.2-2.2,30.2-2.6,6.4,5.2,21.4,12.2,21.7,10.6.7,21.1,1.4,31.7,1.3.2,0,.5-1,.4-1.3-6.1-17.1-1.3-33,5.1-48.7C123,373.7,116.6,358.9,110.6,358.9Zm41.1,77.9c28.5-11.1,19.2-5.8,19-38.6a46,46,0,0,0-6.7,4.9c-2.1-3.8-2.4-10.7-5.1-13.4a116.4,116.4,0,0,0-19.7-8.9c-2.2-.8-7.1.1-7.5,1.4-3.5,10-7,20.1-8.7,30.5-.8,4.6,2.1,10.1,4.4,14.7s1.9,10.8,10.4,6.3C141,432,146.9,435.6,151.7,436.8Zm162.2,1.1,2.6-1.4c-3.5-7.3-6.1-15-10.6-21.7-7,16.1-25.4,23.4-36.5,36.4-9.7,9.9-21.9,13.8-34.3,17.9-1.4.5-2.3,2.6-3.4,3.9,4.6,5.3,20.2,4.8,25.4-.8.9-.8,3.7.5,5.6.7,5,.4,8.9-4.7,13.7-5.8,12.2-4.6,24.6-8.6,36.8-13.1C324.3,451.7,318.3,444.4,313.9,437.9Zm66.9,20.8c-5.4-9.5-6.9-16-18.1-15.3,5,12.1-3,24.1-8.2,34.7-3.2-5.5-6-12.5-13.2-8.5-2,1-1.7,6.6-2.2,10.1s2.9,8,5.7,9,6.4-1.5,9.6-1.5c5.8-.1,7.8-3.3,9.8-8.3C368.1,470.5,373.2,465.2,380.8,458.7Zm-26.1-6.1c-11-6.9-12.1-7.9-18.6,2.7C344.1,459.3,346.4,459.1,354.7,452.6Z"
		transform="translate(-59.7 -41.8)"/>
	<path
		d="M1381.3,413c11.1,13.2,19.8,27.2,30.1,41.1-6.4-22.6-7.4-50-29.9-63-6.8-5.5-13.4-11.2-20.7-16-3.9-2.6-7.6-8.8-14.3-3-10.6-4.9-25.4-18.9-37-24.9-6.6-3.7-11.4,1-15.7,6.1-13.6,13.3-31.8,52.2-52.9,28.3a17.8,17.8,0,0,0-7.8-6.3c-2.4,11.1-1.2,22.8-1.4,34.1,2,13,8,26.3,14.3,37.6s5.6,21.7,8.6,32.4c5.6,19.5,13.2,38.4,19.5,57.7s7.9,42.2,10.9,63.5,4.8,41.5,11.5,60.4c6.1-5.7,10-16,16.8-20.1,6.4,7,10.6-.6,15.7-2.3s9.8-2.2,13.5-4.9c23.1-16.1,36.4-43,64.8-51.1,33.8-16.7,39.8-7.9,72.3-10.1,1.5,1.9,3,6.1,2.2,6.8s-5.9,4-8.1,3.3c-14.1-4.9-28.2-4.2-42.3-.5-1,.3-2.4,3.1-2,3.8,11.3,26.9,37,41.8,58.3,59.6,4.3,5.6,4.5,9.7-2.3,15.6-9.2,8.1-15.7,19.4-23.5,29.3-5.3,5.2-8.1,9.4-9.7,16.6-1.7,2.7-4.5,6.4-6.9,6.4a226.1,226.1,0,0,1-30.8-1.5,204,204,0,0,1-25.6-5.3c-9.3-7.1,1.5-12.7,8.7-14.5,13.2-4.3,19-12.8,13-24.9-9.6-16.1-20.2-34.4-37.6-43.3-8.6-1.3-12.9,11.4-20,14.1-17.1,11.5-45.8,12.1-52.2,34.8-.6,2.3-3.4,4.1-5.1,6.1-2.7-2.9-6-5.3-7.3-9.2-12.8,14.7-26.4,29.1-41,41.7-5.7,7.6-11.8,6.1-19.2,3.5-37.4-15.1-52-56-64.4-91.1-.3-5.2,3-9.9,9.3-6.4,9.5,4.3,19.4,8.1,28.2,13.7,14.6,9.5,32.5,2.4,40.5-11.2,8.3-15.8,16-32,24-47.9.7-1.4,2.7-2.2,4-3.3,2.7,7.4-2.9,13.2-5.8,19.6-7.6,14.8-14.8,29.8-23.1,44.2-4.6,7.9-26.6,12.8-35,9.4-10.8-4-21.5-9.7-32.6-12.4.5,19.2,49.2,97.4,70.8,75.4,11.3-10.9,22.7-21.7,33.7-32.9s8-22.8,4.6-35.5c-.2.9-.4,1.6-.5,2.3-5.7-25.7-5.6-53.6-11.8-79.6s-16.8-50.9-23.9-76.7c-.8-2.9-.1-6.3-.1-9.2-6,3.3-29.5,9.4-30.9,14.1,1.9,4,6.3,10.1,1.2,13.3a74.3,74.3,0,0,1-13.4,1.4c-2.7,0-6.1-1.9-8.1-.9-10.3,4.3-15.1,14.4-21.2,22.7-8.5,1.3-17.4,4.7-25.4,3.1s-15.4-7.3-17.8-17.5c-1-4.1-8-6.5-11.8-10.1-9.1-6.8-8.2-17.3-6.9-27.3.3-2.1,3.3-3.8,4.2-6,3.4-8.4,2.5-18.2,8.8-25.8,1.9-2.2,2.2-5.7,3.5-8.5,3.7-8.1,12.2-9.8,18.9-3.8,8.8,7.7,30,6.6,38.2-1.8s15-17.1,24-23.4c6.6-4.7,11.3-8.8,11-17-.9-4.8,1.3-14.6-5.1-15.7-16,1.1-47.8,10.1-44.5-15.6.9-7.4,0-15,0-22.6,2.2-5.8,1.3-13.3-6.7-12.5-11.5,1.2-20-7.2-23.4-15.7,5.1-9.4,15-20.6,20.8-30.5,3.5-12.6,3.2-27.9,4.4-41.7-5.8,6.8-9.2,12.6-15.6,17.6-1.8-2.1-5.4-4.7-5-6.3,1.6-4.5,6.2-26.5,9.7-26.4.2-7.1,2.4-10.9,5.8-16.3a2.8,2.8,0,0,0,.3-2.3c-9.2-11.6-8.7-22.4,2.6-34,3.4-2,9.9-.9,13.9-3.3,18.4-8.1,37.5-5.7,56.1.5a237.9,237.9,0,0,1,63.8,18.9c4,1.7,10.2,4.8,10.5,7.8,1.1,9.9,8.3,15.2,13.2,22.4,15.8,22.6,30.2,45.7,38.4,72.2,2.3,22.7-28.7-17.2-33.2,31.3-1.6,11.7,9.3,18,12.3,27.4,4.2,13.2,17.2,15.5,25.4,23.5s12.1,14.2,23.1,18.1c15.4,11.9,24.6,27.3,27,47,1.3,10.3,6.5,20.5,5.8,30.5-1.3,17.4,12.2,25.7,19.7,37.3,10.6,19.2,55.2,63.2,49.4,82.5-1.4-.7-3.4-1.1-4.2-2.3-12.8-18.1-25.2-36.5-38-54.6-15.4-22.3-33.3-42.8-46.8-66.4.9-19.4-17.6-25.6-21.4-42.6ZM1188.8,195.1c4.7,2.6,8,2.6,12.9,2.9-2.3,7.3-3.7,11.8,6.1,9.8.1,3.4-1.1,7.7.9,10.6,8.3,5,10.6,12.7,13,21.4,11.2,27.3,23.6,54.2,35.4,81.3,2.4,6.1,12.8,1.4,7.3,8.9-.5.9.3,2.7.8,3.9,5.1,9.1,3,20.5,4.9,30.6.3,2,1.8,1.6,2.8.6,33.8-37.4,14.4-28.1,55.3-21.9-13.1-31.7-14.3-22.9-.4-56.3,3.5-10.9,13.2-3.3,21.2-5.9-3.9-13.5-10.3-27.5-17.1-39.9-8.5-14-20.2-26-28.8-39.9s-26.3-18.4-41.6-24.2c-23.8-5.2-48.3-12.1-72.5-10.5-3.9-1.5-6.1-5.6-7.5,1.6-.2,1-2.1,1.8-2,2.5.2,2.2,2.2,5.6,1.4,6.3s-5.5,3-6.7,2.1c-8.5-6.1-6.1,5-9.9,5.9,1.2,2.2,1,11.7,4.2,10.5,3.3-3.2,8.2-5.9,9.4-9.7,2.2-7.3,5.6-6.5,10.8-3.3-1.7-2.1-1.6-3-.8-5.3,3.2,3.5,12.1,15.4,3.4,16.9-3.9,1.4-7.9-6-11.9.3-2.2,4.4-24.3,28.1-16.6,30,3.2,1.1,5.1-.8,5.5-4l3.2,3.4,3.7-2.4c-.3,6.6-1.9,13.1-2.9,19.6,2-.9,1.3-2.3,1.7-3.4,3-9.1,5.2-19.9,9-28.4C1189,206.3,1191.8,202.4,1188.8,195.1Zm-39.4,104.6c3,8.6,10.4,11,19.6,11.8,3.7.3,10.1,3.5,10.3,5.8,2.4,9.5-2.1,40.1,4,44.3,15,3.4,31.5-.5,45-6.6,8.3-4.4,15-12.3,21.4-19.5,2.6-2.9,10.8-8,.3-12.2-3.6-5-6-11.7-9.1-17.1-5.3-10.1-11.2-19.9-15.7-30.3-3.3-7.6-3.2-17-7.6-23.8s-4.4-17.7-12.3-23.3c-4.1-7.9-7.8-16.5-12.8-23.8-4.2,6.6-4.7,13.7-3.7,22,1.6,10.2-1.8,21.3-3.5,31.9-.2,1.3-2.5,2.8-4.1,3.2-6.6.5-5.8-7-8.1-12C1170.6,269.5,1172.5,293.4,1149.4,299.7Zm276.2,404.9c5.5-2.4,12.7,1.2,18.2-6.4,10.7-14.7,23.2-28.2,34.6-42.4,1.8-4.8-4.1-8.8-7.5-11.5-15.7-17.6-37-31.1-47.2-52.8-5.2-10.8-38.1,11.7-44,17.9-12.6,9.6,18.3,12.3,30.2,36.8,15.6,24.4,20.2,32.8-2.8,53.9C1412.7,702.6,1419,702.8,1425.6,704.6ZM1221.4,413.2l1.1-.7L1218,407c-5.4,5.8-11.7,12.4-16.3,18.6-3.8,11.6-14.3,15.8-23.4,20.7-5.5,2.8-6.7,5.6-4.4,9.9,4.5,8.6,9.9,16.8,14.8,25.2,2.7,4.6,6.2,5.8,11,3.3,9.8-5.1,20-9.6,29.3-15.4,19-8,9.5-10.6,5.3-27.3C1225,436.1,1225.8,422.6,1221.4,413.2Zm-77.5,91.6-2.4,2.2c2.1,10.6,24.6,9.3,30.4,3.6,2.9-3.8,4-9.3,7.4-12.5s1.8-5.7.4-8.2-3.9-1.2-4.4-2.5c-4.3-9.1-8.2-18.5-12.2-27.8-2.2-5.1-3.9-14.4-6.6-14.7-6.3-.6-14.2-15.4-19.9.5-3.2,5.8-5.2,12.7-7.9,18.8-.8,2-.9,4.3-2.1,6C1111.2,489.9,1133.4,491.8,1143.9,504.8Zm89.8-140.5c6.7,4.9,20.7,24.9,28,10.8-.3-10.8-1.5-21.6-2.7-32.4-.2-1.4-2.4-2.5-3.6-3.8Z"
		transform="translate(-59.7 -41.8)"/>
	<path
		d="M527.5,726c3,11.7,7.3,20,7.4,31.1-2.3,0-4.6-.4-6.8,0-6.6,1.2-13.6-2.6-20.4,2.7-2.1,1.7-8.6-2.2-13.1-3.6,3.5-3.6,5.7-8,4.3-13.1-3.2-13.7-6.4-27.4-9.9-41.1-11.3-44.2-25.4-87.8-36.7-132-2.6-8.2-7.9-16.2-8.1-25.1-.8-16.3-25.1-10.6-20.6-33.3.6-3.5-2.3-7.4-2-11.1-1.3-20.1,11.2-18.1,8.2-31C419,435,412.4,399.5,402,364.9c-3.9-14-7.5-28.1-11.4-42.2-4.3-8.5-6.8-17.9-9-27.2-.2-1.3,3.8-5.1,5.8-5,7.8.9,34.5.7,16.4,11.6-2.4.7-5.4-.7-8.2-.6-3.6,4.8,6.7,28.7,8,36,8.5,24.9,14.5,50.8,22.8,75.9,5.8,18.7,6.6,40.6,15.8,57.6,10.6-1.9,21.1-4,31.7-6.1a10.1,10.1,0,0,0,.3-2.4c1.8-9.3-.6-21.2,11.3-24,1-.4,3.1,1.5,4.6,2.3-6.1,6.6-9.5,16.9-2,25.1,5.5,5.9,8.3,14.5,11.7,22.2,4.8,10.6,9.2,21.4,11.7,32.7.9-3.9,6.3-4,8-4.1,2.1,10.6,3,21.5,8.6,31.1,8.4-6.2,15.3-14.2,22.9-21.5,1.2-1.1,4.5,0,4.4,1.8a37,37,0,0,1-26.8,24c-7.4,1.6-11.9,12.5-12.9-2-2.7,4.7-7.1,4.4-11.4,6.5-1.1-3.5-3.6-7.3-3-10.4,2.1-12,2-23.3-2.8-34.8-2.1-4.9-.7-11.5-3.2-16.1-.9-1.7,2.2-8.4-5.3-7.3-3.6-.5-9.6-15.6-16.9-14.4-9.9,3.9-20.7,17.3-8.6,26.2,2.4,1.5.7,8.8,1.7,13.3,2,9.5,4.7,18.8,6.6,28.2,1.6,11.5,13.4,10.2,21.7,13.9-.5,1.1-1,3.2-1.6,3.2-6,.4-12.2,1.4-18-.3,5.6,13.2,7.5,27.9,12.6,41.4,7.8,20.9,9.2,43.3,13.9,65,13,9.2,30.8,14.9,45.3,22.6,1.1.5,2.9-.4,4.3-.6-27.6-22.9,7.4-41.2,18.8-60.9,10.3-16.7,16.9-35.9,26.8-52.8,1.9-10.7-5.3-20.2-8.7-29.9-2.5-5.2-7.4-8.8-11.5-12.8,1.9-1.3,4.4-4.3,5.6-3.8,4.5,1.7,8.2,5.1,12.7,6.9s7.4,5.2,6.8,11.3c-.4,18.9,23.1-1.6,31-4.6.8-.5,1.3-3,.9-4.2-6-15.9-12.1-31.8-15.6-48.4-.6-3.9-8.1-30.1,2-22,6.3,16,38,94,26.7,104.7,22.4,2.6,48.7,3.9,66.5-11.8,7.6-6.4,3.3-15.7.2-23.5-8.1-21-16.5-41.8-24.4-62.9-.9-2.6,1-6.4,1.6-9.6,4.9,11.1,17.3,12.3,26.8,8.5,1.6-10.7-2.9-22-4.9-32.5-3.5,2.7-7.7,2.8-11.9,3.4,1.1-9.5,10.9-11.7,17.4-17-10-11.3-26-15-36.7-25,.9-.3,2-1,2.7-.8,11.8,3.3,23.6,10.3,35.8,9.7,4.8,3.4,11,7.1,13.7,12.5.9,3.9,6.2,9.2-4.2,9.2-22.2-.1-1.1,28.1-3,40.7.2,2.8-5.8,5.8-8.6,9-1.2,1.4-2.9,4.5-2.4,5,11.8,12.7,9.8,29,11.9,44.3,1,7.8-2.6,16.3,3.4,23.7.3.3-2.7,3.6-4.5,5.3s-1.8-.3-2.7-.4c3.7,12.4,23.2,18.8,18.5,34.3-2.9,9.2-6.9,24.1-19.6,17-4.7-3.3-6.1-3.4-7.5,2.3-2.5,9.7-12.5,14.4-21.6,10.9s-16.2-6.2-24.4-9c-4.4-1.4-11.1,4.1-13.3-3.5s-.5-18.1-2.5-26.9c-.2-1.1-2.1-2.5-3.4-2.7-9.7-1.6-11.8-5.1-9.7-14.7-.2-5.8-3.6-15.1-4.3-20.1l-23.1,20.5c.8,11.2,8,22.2,6.2,33.5-1,6.2,5.7,11.3,6.4,17.4,8.5,27,8.1,56.8,21.3,82.1,5,7.1,48.7,9,58.2,8.2,16.3-3.3,36-16,44.6-31.5,4.9-12.4,7.4-27.6,7.6-40.8,1.4-6.1-21.9-44.5-3-34.1,3,6.7,5.5,13.6,8.3,20.3,6.6,6.9,10.4,14.6,3.2,22.7-2.2,2.7-2.5,7.3-2.8,11.1-4.5,26.9,11,51.1,17.3,76.5-.5,13-28.4,10.1-38.2,13.1-18.5,4.5-37.2,5.8-55.9,1.3-2.4-.5-4.9-5-5.8-8.1s2.6-4.2,3.8-6.5,2.9-6.3,4.3-9.5c-7.1-4.8-15.4-3.2-23.2-4.5-10.1-2.6-20.4-5-29.7-9.3-7.2-3.3-12.8-4.3-20.9-2.3-11.5,2.9-23.9,2.4-35.9,2.3-12-2.6-13.4-14.7-29.7-11.8s-24.5-10.2-37.4-14.5a229.1,229.1,0,0,0,44.2,58.9c19.5,6.2,39.5,2.5,49-18.1,2.9-4.7,11.3-14.7,17.1-15.2-.8,10.5-19.6,35.2-29.6,41-17.7,11.3-46.7,3.3-56-15.3C534.5,730.4,531.2,729,527.5,726Zm79.2-139.7c-1-1.8-1.5-2.9-2.1-4-9.7,17.4-16.3,37.1-27.5,53.8-5.9,9.1-14.5,16.5-21.6,24.9-1.4,1.6-3.1,5.1-2.4,6,6,8.2,11.6,17.2,19.3,23.5,5.1,4.2,13.7,4,20.4,6.7,20.2,6,6.2-29.1,7.6-38.8-1-19.2,2.8-37.8,2.3-57C601.8,596.8,605.3,591.2,606.7,586.3Zm54-8c2.6,43.3-.2,16.2,34.5,37.3,15.9,6.8,7.5-25,31.1-12.1.7.4,3.2-.6,3.5-1.5,4.5-10.6,6.4-19.9-4.1-27.5-3.3-2.4-3-10.2-10.7-6.3C697.9,576.9,680.2,583.8,660.7,578.3Zm95.9,107c-6.8,7.4-11.4,14.9-18.1,19-12.6,7.5-26.6,12.7-39.4,19.8-3,1.7-3.9,7-5.5,10.8-.2.4.9,1.9,1.5,2,21.9,4.2,43.9-.8,65.7-3.2,3.4-.4,9.3-4.1,9.1-5C766,714.3,761.3,700,756.6,685.3ZM454.8,542.1c2.7,30.1,17.7,57.7,25.3,86.7,7.5,36.3,22,70.9,26.4,107.8,1.4,9.8,5.2,13.8,14.7,11.4,1.6-.5,4.1-3.6,3.8-4.7-3.8-11.6-7.9-23.1-12.4-34.4-19.1-37.2-27.4-77.7-36.1-118.2-3-12.1-6.2-24.1-9.7-36C464.9,548.2,462.9,541.4,454.8,542.1Zm159.9,77.3h-1.8c-5.5,21.8-3.7,43.9,1.9,65.5.7,7.3,5,8.3,11.5,7.6a5,5,0,0,0,2.5-.7c0-10-4.1-19.1-6.6-28.6C619.3,648.6,616.1,634.1,614.7,619.4ZM438.4,490c-.2-.2-.8-2.1-1.3-2.1-12.6,1.1-1.9,18.2-4.6,25.5-3.7,13.4,16.3,9.5,26.6,20.8C462.3,506.1,434.1,545.8,438.4,490Zm262.3-12.6c4.8,13.1,9.6,26.3,14.5,39.4.2.6,1.2,1,1.8,1.5,4.2-4-3.2-22-5.7-26.5S711,476.8,700.7,477.4ZM451,487.3h-1c.9,4.3-2.6,23.4,2.8,22.6S451,492,451,487.3Z"
		transform="translate(-59.7 -41.8)"/>
	<path
		d="M272.6,182.1c4.9,5.7,4.8,11.8,2.3,18.5,0,3.9,1.2,8.6.9,12.7-8.1-1.7-5.6-9.3-6.8-15.4s-3.9-14-1.5-21c.5-2.7,2.1-5.7,1.4-7.9-1.7-5.5-5-9.7-11.6-10.7-1.4-1.8-1.5-11.9-3-15.6-3.7,1.8-8.5,3-12.3,2.1-1.1-.4-.5-4.7-1.9-6-2.9-2.9-6.4-6.8-10-7.2-7.9-1.1-16-.2-24-.1-2.9-.6-4.5,1.2-6.3,3.1-1.1-10.7,13.4-10.7,20.4-14.5,3.5,6.7,10.8-2.4,14.8,3.6,1.3,1.9,4.3,2.7,6.1,4.3s2.9,4.7,3.4,4.5c5.5-2,9.1-6,8.4-12.1s-4.2-12.4-3.5-18.1c5.1-1.8,7.2-11.6,15.6-5.6,1.3,1,7.2-.9,7.5-2.3,3.1-12.3,14.4-9.1,22-12a53,53,0,0,1,34.5.8c-.1,11.7-19.8,9.3-26.4,20.9,25.2,4.2,44.8,42.7,27.2,65.1-32.5-42.5-19.8-31.9-29.3,12.7-5.7,16.3-11.5,13.5-15.6-1.9-4.2-12.6-11.1-24.5-13.3-37.6-2.7-4-8.3,3.1-9.3,5.4C262.3,160.8,289.9,164.6,272.6,182.1Zm27.2-52.9,28.1,21.6c3.6-17.2-11.6-30.3-22.2-42-2.2-2.3-9.1-1.2-11.4-3s-1.5-5.3-.6-6.1c5.3-3.2,10.6-8.7,17.1-8.9-.7-5-21.3.8-24.9,1.9-20.6,10.4,2.7,21.9-8.1,37.8-9.3,10.8,5.7,15.7,10.2,22.7s2.8,15.7,6.1,22.7c.6-.6,1.7-1.1,1.7-1.6C297.2,160,298.4,145.7,299.8,129.2ZM274.4,115l-11.9-12.4c-5.4,2.7-.4,20.6-.8,26.9C264.5,136.9,271.6,118.9,274.4,115Z"
		transform="translate(-59.7 -41.8)"/>
	<path
		d="M1460.1,166.5c19,4.4,38,2.9,14.3,21.8,7.5,3.3,13.8.1,20.7-2.7,9.8-2.1,15.2.4,22.3-9.4,1.7-2.1,9.8.8,14.9,1.6.1,0,.1,2.5-.2,2.6-15.6,4.8-3.2,11.8-.9,17.2s11.6,10.2,9.7,19.4a5.9,5.9,0,0,0,2.8,1c1.2-.2,2.9-.9,3.1-1.7,2.6-10,9.6-16.2,17.8-21.5a3.1,3.1,0,0,0,1.1-1.9c-.2-10.1-.1-20.3-.8-30.4-2.6-16.8-18.8-21.2-33-23.7,1-3.8,2.5-6.5,7-5.8,19.6-.7,29.3,14,34.3,28.9.9,2.6,5.2,2.4,7.1,3.4,2.9,3.5-.6,8.2-3,10.9-9.4,8.4-2.7,16-7.7,23.5,15-2.7,10.1-4.7,15-16.5,1,2.6,1.2,6.5,2.8,8.4,9.1,4.5,2.7,6.6-1.3,9.1,22.6,12.6,20.2,55.6-8.5,61-1.1.5-3.6-1.7-5.4-2.7,15.5-14.9,24.7-18.8,20-41-3.8-15-17.4-9.3-25.4-1.9-1.8,4-2.4,5-6.5,7.4-3.2-6.2,1.4-11.9,3-17.9l-2.3-1.1c-3.3,7.3-6.6,14.6-10,21.8-1.6,4.7-5.5,4.2-8.3,1.3-8.3-10.6-16.8-21.4-24.7-32.3-3.3-9.5-9-6.8-15.7-3.9s-15.1,1.7-22.1,6.5c-10.2,2.1-20.5,3.9-30.8,5.6-3.7.2-4-7-2.6-8.4,7.4-5.5,17.3-7.7,23.2-15.1-4.5-.4-7.6-3.9-11.4-6s-11.1-5.8-15.7-9.8c-1.8-1.6-1-6.2-1.3-9.4,2.4.2,5.1-.2,7.3.7,9.2,3.7,15.4-3.9,23.1-5.6,5.5-.9,11.3-3.1,16.8-3C1486.3,153.6,1469,160.1,1460.1,166.5Z"
		transform="translate(-59.7 -41.8)"/>
	<path d="M658.9,418.1c-5.4,11.1-10.1,20.9-14.8,30.8-1.9,3.9-3.8,7.2-7.4,1.3-4.5-.5-8.1,5.4-11.7,7.5-4.6-15,7.9-38,2-41.8-4,2.8-5.5,8.8-11.3,5.6,3.4-10.1,12.4-19.4,6-31-1.4-2.3-.8-6.3-.1-9.2,4.5-18.1,3.4-35.9-1.9-53.6-1.1-5.3-7.9-14.3,1.9-14.2,1,5.4,2,11,2.9,16.4s4.8,8.3,5.3,12.7c1.2,18.2,1.2,36.6,3.1,54.8-1.2,6.2-6.8,12.3,1.3,17.2,2.3,5.7-1.9,18.7-1.9,25.9,0,.4,1.6.9,2.5,1.3,7.1-16.6,6.9-34.3,4.4-51.7-.3-1.6,1.5-3.5,2.3-5.2,8,8.1,5.5,23,8.3,34.8,2.6-6,5.2-11.5,7.4-17.1s1.5-11.5,7.6-12.6c.5,1.2,1.5,2.6,1.2,3.7-1.7,8-4.3,15.9-5.4,24-.4,2.5,2.7,5.6,4.2,8.4,6.6-17.1,7.6-36.8,9.7-55,.5-10.3-2.6-20.9-5.4-31a324.7,324.7,0,0,0-12.3-34.7c-1.9-4.9-8.4-7.4-9.8-12.8,12.5-3.8,25.9,29.9,29.2,39.6,6,20.1,9.1,40.8,4.2,61.9s-4.8,44.7-21,59.4C656.2,441.5,662.8,430.1,658.9,418.1Z" transform="translate(-59.7 -41.8)"/>
	<path d="M427,332.6c11.2,36.2,17.7,73.6,23.1,110.9,1.6,8.2,6.1,15.8,4.5,24.4-3.2-1.4-8.6-2.3-9.3-4.5-5.9-21-8.2-42.9-13.5-64-6.5-31.3-14.4-62.4-18-94.2.2-2.3,4.9-6.1,7-2.7,2.6,9.9,4.9,19.9,7.3,29.9Z" transform="translate(-59.7 -41.8)"/>
	<path d="M457.4,423.7c-2.1-39,41.4-38.4,30.6-66.8-2.3-7.8,4.3-18.3,7.5-27.3,1.8-3.9,5.9-7.6,10.6-7.6.6,12.1-19,13-9.9,43.1,5,14.6-21.7,28.9-27.9,41.8-3.1,4.7-2.4,12.1-2.9,18.2,6.4,2.7,16.9.7,24.1,1a3.1,3.1,0,0,1,2.3,1.5c4,8.6,7.6,1.5,11.2-.3a60.3,60.3,0,0,1-.4-10.5c12.7-1,14.1,13.1,4,19-4.9,2.7-10.2,6.2-15.2-.8-7.1-1.2-18.2.7-25.6-2.1C462.4,431.7,460.1,426.9,457.4,423.7Z" transform="translate(-59.7 -41.8)"/>
	<path d="M889.4,169.6c-.5,14.6-16.3,39.1-30.2,33.1,1.1-2.3,1.8-6,3.6-6.8,12.6-5.8,17.9-18.9,15.3-32.9-1.7-9.5-5.2-16.4-14-20.2-7.2-.4-10.8,14.3-15.4,19.1-.6.8-5.1.4-5.2,0a14.6,14.6,0,0,1-.1-7.2c5-8.9,6.9-34,21.6-22.2S886.3,152.3,889.4,169.6Z" transform="translate(-59.7 -41.8)"/>
	<path d="M602.3,276.2c-11.5,2.2-22.7,7.1-34.5,6.5-.6,0-1.7-4.1-1.1-4.7,3.4-3.3,7-7.8,11.1-8.6,20.9-3.2,49-9.9,59.5,15,5.4,10.9,12.5,21,11.5,33.8-.9,4.2-5.9,1.4-8.7,1.4,7-9.6-10.1-30.8-16.6-37.8C618.8,277.5,609.9,278,602.3,276.2Z" transform="translate(-59.7 -41.8)"/>
	<path d="M566.6,376.3c-9.5-18.9-13.3-46.4-36.9-53.6-.8-.2-1.7-2.6-1.4-3s3.4-3.9,4.4-3.6c5,1.8,10.8,3.3,14.5,6.8,14.2,12.6,20,30.6,25.8,48.1.3.8.1,2.2.6,2.3,10.3,4.2.7,14.5,6.2,20.3.5.5-1,4-2.3,4.8s-6.9-2.9-9.1-1c-3.9,4-18.5,2.2-20.6-2.8,1-7.9,10.2-3.8,15-2.2C563.9,387.5,565.1,382.5,566.6,376.3Z" transform="translate(-59.7 -41.8)"/>
	<path d="M552.5,293.7c-4.9,1.7-9.8,3.1-14.3,5.1s-22.1,15.5-18.6,2c6-.6,6.3-7.9,9.6-9.3,38.3-17.5,64.8,5.4,68.7,44.3-7,31.4-8.4-16.3-14.6-22.6C577,303.8,563.9,297.2,552.5,293.7Z" transform="translate(-59.7 -41.8)"/>
	<path d="M591.2,477.8V422.4c0-14.2,2-28.4-6.9-40.6,2.1-6.3,4.2-11.9,2.2-19,1.3-6-15.3-30.6-1.2-25.2-2,11.1,5.8,22.2,7.6,33.3,2.9,13.2,3.9,27,4.8,40.5.5,10.8.3,21.7.1,32.5S599.7,468.2,591.2,477.8Z" transform="translate(-59.7 -41.8)"/>
	<path d="M1280,477.2c8.4-20.4,17.7-39.9,32-56.8a89.4,89.4,0,0,1,10.9-11.3c.9-.8,3.5.2,5.3.4-.2,1.5,0,3.2-.7,4.3-7.3,9.9-15.4,19.3-22,29.7-8.8,12.2-11.2,28.9-21.6,39.7Z" transform="translate(-59.7 -41.8)"/>
	<path d="M598.7,481.3c-8,24-24.6,43.4-38.7,63.9-28.6,21.6,1.5-17.4,6.4-25.5s9.9-14.1,15-21.1c9.5.2,10.1-12.1,13.5-18.8Zm-13.3,19.6-1.8-1.3c-1.2,1.6-2.4,3.1-3.4,4.7a10.9,10.9,0,0,0,2,1.6Z" transform="translate(-59.7 -41.8)"/>
	<path d="M144.1,142.4c4-4.4,8.8-10.7,12.9-15.3,5.5-1.5,11.3-4.6,17-4.1a18,18,0,0,0-4.7-4.4c1.8-1.1,4.2-1.9,5.7-3.5s10.7-3.4,13.6-.8,5.1.6,7.1-.4c-2.9,12.8-5.9,5.4-13.3,9.1-4.1,3.4-10.4,4.1-14.4,7.5-7.1,4.6-12.1,17.7-20.6,18.5C146.3,148.8,145.8,146,144.1,142.4Z" transform="translate(-59.7 -41.8)"/>
	<path d="M935.4,432.3c.6,1.6.8,3.6,1.9,4.7,8.2,8.8,16.6,17.5,25.1,25.9,5.8,2.4,9,5.1,12.4,10.5-2.7,1.1-6.6,3.9-7.9,3-14.7-9.3-25.8-22-35.1-36.6-3.3-4.4-2-7.6,1.6-10.6s2.2,1.4,2.9,2.8Z" transform="translate(-59.7 -41.8)"/>
	<path d="M787.1,147.2c.8,4.4,2.2,8.8,2.2,13.2-.6,8.3-7.4,8.6-11.3,3.5a87.4,87.4,0,0,1-2.5-21.6c.1-2.7,4.5-5.2,6.9-7.8,2.4,4,5.5,7.6,5.9,12.5Z" transform="translate(-59.7 -41.8)"/>
	<path d="M533.2,416.8c-8.2-5.5-10.4-1.6-12.2,3.3-.3.7-3,1.5-3.1,1.3-5.4-5.7-1.4-12.7,1.9-18.1,1-1.5,7-1.9,7.6-.9,5.7,9.9,6-.4,8.5-2.1s4-2.7,6-4C544,404.5,536.7,409.8,533.2,416.8Z" transform="translate(-59.7 -41.8)"/>
	<path d="M1734.8,328.1c-14.1-23.3-32.6-44.6-44.7-68.7,6,1.5,11.8,13.8,16.3,18.8,10.5,16,22.4,31.2,30.6,48.6Z" transform="translate(-59.7 -41.8)"/>
	<path d="M1000.4,541.6c-1.9,10.7-3.7,22.1-6.1,33.4-.3,1.8-2.8,3.5-4.7,4.6s-5.5-4.1-3.9-6.3c9.7-10.6.3-28,11.6-36.9Z" transform="translate(-59.7 -41.8)"/>
	<path d="M139,207.1c-1,7.4,3,16.7-3.7,21.9-1.4-1.4-3.9-2.7-4.1-4.3-.5-10.8-5.3-22.6,1.8-32.1,4.7,3.9,6.9,8.4,6.8,14.5Z" transform="translate(-59.7 -41.8)"/>
	<path d="M520.7,347.4l9-1.6c0,8.2.3,17.9-.3,27.5-.1,1.4-4.4,2.6-6.8,3.9C516.6,368.5,521.1,356.3,520.7,347.4Z" transform="translate(-59.7 -41.8)"/>
	<path d="M1514.5,201c-.6,9.7-.7,17.4-1.7,25.1-.3,1.8-3.4,3.2-5.3,4.9-1.5-2-4.4-4-4.3-5.8C1504.7,220,1504.7,188.9,1514.5,201Z" transform="translate(-59.7 -41.8)"/>
	<path d="M701.4,464.6c-6.3-4.7-18.9-9.5-20.6-14,4.8-1.3,9.5,3.4,14.3,3.1s9.8-3.3,13.9-4.2C714.1,453.1,704.2,459.7,701.4,464.6Z" transform="translate(-59.7 -41.8)"/>
	<path d="M228.3,110.9c-10.6,4.4-9.8,8.6-20.5,1.8-.7-.3-1.4-2.4-1.3-2.5,7.7-7.5,12.5-6.2,21.5-2.2Z" transform="translate(-59.7 -41.8)"/>
	<path d="M620.7,429.9c-8.6,5.6-9.5,17.5-16.4,24.8-.9-1.6-2.8-3.7-2.4-4.7,3.4-7.7,7.1-15.2,11-22.6C615.9,423.8,618.3,426.8,620.7,429.9Z" transform="translate(-59.7 -41.8)"/>
	<path d="M925.1,189.3c-4.7-5.4-14.1-10-15.6-16.9,1.4-2,3.9-3.2,5.9-4.7C918.9,174.9,925.6,180.7,925.1,189.3Z" transform="translate(-59.7 -41.8)"/>
	<path d="M826.6,127.3c12.1,5,2.2,22.6-2.7,15C824.7,137.3,825.7,132.3,826.6,127.3Z" transform="translate(-59.7 -41.8)"/>
	<path d="M837.9,150.8l-5.7,4.9c-2.9-2.5,1.5-6.9,2.9-9.3.7-.8,3.3.2,5,.3Z" transform="translate(-59.7 -41.8)"/>
	<path d="M614,303.1c1.9,3.6,6.4,5.5,3.6,8.7-2.2-1.8-4.3-3.6-6.3-5.5A33.9,33.9,0,0,1,614,303.1Z" transform="translate(-59.7 -41.8)"/>
	<path d="M822.8,114.3c1.7,3.4,6.1,5.5,2.3,8.5-1.9-2-3.7-4-5.6-5.9Z" transform="translate(-59.7 -41.8)"/>
	<path d="M928.3,440.7c.6,2.9,1.3,5.8,1.9,8.6-3.8-.9-2.8-5.4-3.9-8.4Z" transform="translate(-59.7 -41.8)"/>
	<path d="M1493.4,140.6c-3.4,3.4-4.1,1.4-7.1-.4C1489.2,138.3,1490.2,137.6,1493.4,140.6Z" transform="translate(-59.7 -41.8)"/>
	<path d="M198.6,134.5c-3,3.3-4.7-1.6-7.4-3.2C194.1,127.9,195.8,132.7,198.6,134.5Z" transform="translate(-59.7 -41.8)"/>
	<path d="M642.9,321.8c3.6,3.4,3.2,4.1,1.3,7.5C642.4,326.5,641.7,325.8,642.9,321.8Z" transform="translate(-59.7 -41.8)"/>
	<path d="M966.8,321.6c-.7-1.1-1.9-2.3-1.6-2.9,3.3-8.5,6.8-16.9,10.5-25.3,1.5-2.4,5.2-.6,5.1,1.7C977,302,973.9,319.3,966.8,321.6Z" transform="translate(-59.7 -41.8)"/>
	<path d="M932.1,339.2a59.6,59.6,0,0,1,4.5,7.2c.2.5-1.8,2-2.7,3C932.8,345.8,928.4,342.6,932.1,339.2Z" transform="translate(-59.7 -41.8)"/>
	<path d="M203.1,566.2l-1.9-2.7,5.6-.5c.6,7,.2,10.7.3,19.8C199.7,575.7,197,574.9,203.1,566.2Z" transform="translate(-59.7 -41.8)"/>
	<path d="M1187.8,255.9c3.1.5,6,.1,8.1,1.5.5,6,1.3,12.1.9,18.1-.1,1.7-3.7,3.1-5.8,4.7C1184.5,273.5,1186.9,263,1187.8,255.9Z" transform="translate(-59.7 -41.8)"/>
</svg>
