<svg id="Layer_1" data-name="Layer 1" xmlns="http://www.w3.org/2000/svg" viewBox="0 0 1638.7 2378">
    <style type="text/css">
    path { fill: black; }
    rect { fill: white; }
    @media screen and (prefers-color-scheme: dark) {
        path { fill: white; }
        rect { fill: black; }
    }
    </style>
    <rect x="0" y="0" width="100%" height="100%" />
    <path d="M770,1566c-5.4-3.3-10.7-6.9-16.4-9.9-19.9-10.7-38.6-23-54.7-39-32.2-31.8-55.5-68.7-66-113.2a14.9,14.9,0,0,0-5.1-7.5c-16.2-13.6-34.8-23.4-53.2-33.4-5.7-3.1-11.6-5.9-17.2-9.2-3.8-2.2-6.6-1.8-10.1,1.2-24.7,21-49.7,41.8-74.6,62.7a6.5,6.5,0,0,1-3.3,1.7c23.4-25.1,49.3-47.6,76.6-71.2-10.6-2.9-19.8-6.4-29.3-7.8-55.7-8.6-110.5-5.9-163.3,15.9-21.7,8.9-41,21.5-55.2,40.7-.9,1.2-1.7,2.4-2.5,3.7-7,12.2-1.5,23.4,12.5,25.2,6.1.8,12.2,1.1,18.4,2.1-7.3,0-14.6.7-21.8-.1-14.9-1.8-21.6-14.9-14.8-28.3s19.5-25.3,32.8-34.3c23.7-16.3,50.6-25,78.4-30.8,39.8-8.3,79.8-7.9,119.7-1.2,9.4,1.5,18.4,5.4,27.7,8,1.8.5,4.6.6,5.8-.5q22.1-20,43.6-40.3a8.3,8.3,0,0,0,2.7-5.6c-.4-18.9.3-38-2.2-56.7-2.1-16.6-7.9-32.6-12-48.9-1.2-4.8-2-9.7-3.1-14.6-.2-.6-.1-4.4-1.7-.4-.6-.8-1.7-1.5-1.8-2.4-.7-7.1-2.1-14.2-1.7-21.3,2-27.7,7.4-54.9,17.4-80.8a415.4,415.4,0,0,1,27.7-57.9c8.3-14.3,8.7-28.5,6.4-43.7-2.8-17.4-6.1-34.7-8.3-52.2a75,75,0,0,0-5.8-21.2c-2.4-5.3-1-12.3-1.2-18.6a18,18,0,0,1,.5-1.9c2.9-23.8,11-46.3,18.5-69a12.1,12.1,0,0,1,3.9-5.3c-5.6,21.3-11.2,42.5-16.7,63.8-.5,2.1-1,4.5-.4,6.4,5.8,17.7,5.8,36.4,8.6,54.6,2.3,15.2,5.1,30.4,7.8,45.7.2,1,1.6,1.7,2.3,2.7s2,2.2,2,3.4a35.5,35.5,0,0,1-.9,9.8c-3.6,13.5-7.5,26.8-11.3,40.1l-1.6-.3.3-4.9-1.3-.6-25.5,58.7c3.9-.4,7-4.7,9.3-1.5-2.9,3.2-6.2,5.6-8,8.9-8.5,15.1-12.1,31.5-13.1,48.7-1.4,24.5,4.2,47.9,10.3,71.3s11.9,49.2,18,73.7a16.3,16.3,0,0,0,4.3,7.4c11.7,10.9,17.6,24.8,21.6,39.8,5.6,21,11,42,17,63,2.2,7.9,5.5,15.6,8.7,23.3.6,1.4,2.7,2.8,4.3,3.3,18.8,5,37.5,10.2,56.4,14.6,32,7.4,64.2,14.3,96.3,21.3a8.1,8.1,0,0,0,6-1.5c7.1-5.9,15.7-8.4,24.4-9.4,27.8-3.5,50.1-17.8,71.3-34.7s40.9-39,58.4-61.4c11.6-15,24.3-29.2,36.5-43.7,9.3-11.1,17.8-23,28.2-33,5.1-4.9,6.1-10.2,7.7-15.9,10.3-35.8,20.8-71.5,31.1-107.3,1.6-5.4,3.1-10.9,5-16.2.7-2,2.6-3.6,3.9-5.4.2,2.1.9,4.3.4,6.2-8.9,33.6-18.5,67-26.7,100.7-5.3,21.5-8.6,43.4-13,65-1.8,8.8-4.3,17.4-6.6,26.1a6.6,6.6,0,0,1-2.8,3.5c1.6-17.5,3.2-35,4.9-53.1a25.3,25.3,0,0,0-2.2,1.9c-17.7,22.7-35.2,45.5-53.3,68-13.8,17-27.7,34.2-42.7,50.1-18.9,20-40.6,36.7-65.9,48-8.8,3.9-18.7,5.4-28.2,7.6s-17.9,3.5-26.8,5.3v1.3l70.7,17.5-.3,1.1-38.9-8.1c-33.5-7.2-67.1-14.1-100.5-21.9-31.1-7.3-61.9-15.5-92.8-23.3a31.6,31.6,0,0,0-3.2-.3c0,1.1-.3,2.3.1,3.3a26.9,26.9,0,0,0,3.1,5.5,229.6,229.6,0,0,0,41.4,39.2,690.2,690.2,0,0,1,114.9,106.5c3.7,4.3,10.8,6.1,16.6,8.3,38.2,14.4,78.1,23,117.8,32.3,16.9,3.9,32.9,10.4,48.5,18.1,4,2,4.7,1.6,5.7-3.3,2.7-12.9-.2-24.7-4.3-36.5-5.4-15.7-10.8-31.4-17-47-5.7,20.5-10.6,40.9-8.9,62.3h-1.3c-.7-5.7-1.9-11.5-1.9-17.2-.1-23.1,4.6-45.6,10.5-67.8,12.9-49,32-95.5,53.7-141.1a27.2,27.2,0,0,0,1.3-4.9,19.1,19.1,0,0,0-4.8.5c-6.8,2.6-13.5,5.5-20.4,8.1-1.4.5-3.2.2-4.8.3,1.1-1.1,2.1-2.5,3.5-3.1,9.2-3.7,18.6-7,27.9-10.7a9.8,9.8,0,0,0,3.8-3.5c15.2-21.4,21.3-46.3,27.1-71.3,4.5-19.7,9.8-39.3,14.7-59a51.1,51.1,0,0,0,1.2-11.9c-4.6,3.8-10.7,5.8-12.4,12.4a10,10,0,0,1-.4,1.1c-.6-.2-1.7-.5-1.7-.8s-.7-4.2.2-5.5a148.8,148.8,0,0,1,10.8-13c1.9-2,2.3-3.4,1.1-6-2.5-5.6-4.7-11.4-6.7-17.2-.4-1.2.4-2.9.7-4.3,1.5.7,3.7,1,4.3,2.1,2.7,4.8,4.9,9.9,7.1,14.9,1.1,2.4,2.1,2.9,4.4,1.1,5.3-4.2,10.9-8.2,16.3-12.4a13.3,13.3,0,0,0,2.7-4.1c2.7-5.1,5-10.5,8.1-15.4,6-9.7,13.9-11.2,22.5-3.9,3.1,2.7,4.4,2,6.4-.8,3.7-4.9,8.1-9.3,11.5-14.5s8-11.7,9.8-18.3c5.2-19.5,10.7-39.2,13.7-59.2,4.1-28.2-2.5-54.6-18.7-78.3a58.5,58.5,0,0,0-6.4-7.6c-10.1-10.2-24.1-10.5-34-2-14.9,12.8-28.1,27.4-38.4,44.3a7.7,7.7,0,0,1-1.5,1.6c-.4-.7-1.1-1.4-1-2s.6-4.1,1.7-5.6c11.1-14.3,21.5-29.3,34-42.4s32.5-11.4,44.5,1.2c15.1,15.7,23.1,35,26.7,56.4a132,132,0,0,1-2.9,55.9c-3.4,13.1-6,26.6-10.4,39.5-2.7,8-7.7,15.3-12.4,22.5s-9.2,11-13.4,16.7,1.3,6.9,3.4,9.6,3.9-.1,5.2-1.5a165.6,165.6,0,0,1,11.7-12l-8.7,10.8c-6.1,7.7-5.8,5.2.4,11.8s4.3,11.6,6.4,17.8c7.8-5.3,17-7.6,26.8-7.4a4.9,4.9,0,0,0,1.9-.4c-.6-5.4,5.5-5.4,7.2-9.1,3.8-8.1,7.9-16,11.9-24a18.3,18.3,0,0,1,2.8-4.7c6.4-6.5,12.7-13.2,19.4-19.4,5-4.6,11.5-3.9,17.6-3.1s11,2.4,16.4,4c8.3,2.5,13.4,8.1,15.7,16.5,3.3,11.3,6.5,22.6,10.2,33.7,2.2,6.7,5.3,13.1,8.4,20.3l-3.4-1.5c0,.5-.2,1.1,0,1.4,4.1,7.5,10.9,10.4,18.9,12.4s14.3,3.6,19.6,7.8a373.1,373.1,0,0,1,37.4,33.7c13.6,14.2,19.1,33.2,25.7,51.2a187.5,187.5,0,0,1,7.4,24.2c1.4,6.2,2.8,12.8-2.2,18.5-.6.7-.2,2.5,0,3.7,3.7,20.5,7.3,41,11,61.5.8,4.4,1.4,8.7,2.2,13.8l31.8-17.1a152.1,152.1,0,0,1,15.2-7.4c2.1-.9,4.8-.3,7.2-.4-1.8,1.6-3.2,3.6-5.2,4.7-10.9,6-22,11.8-32.9,17.7a10.1,10.1,0,0,0-4.3,3.7c7-3.1,13.8-6.7,21-9.1,10.5-3.5,21.2-6.5,32-9.1,3-.7,7.2-.5,9.7,1.1,7.5,4.8,15.2,9.8,21.5,16s6.6,16.1,5.4,25c-.4,2.8.1,3.6,2.6,4.6s5.6,3.2,5.5,4.6-2.5,5.3-4.6,6c-8.8,3.1-13.8,9.6-17.8,17.5-3,5.9-6.9,11.3-9.8,17.6l16.9-10.7a38.3,38.3,0,0,1,7.5-3.9,5.6,5.6,0,0,1,4.6.5c.7.5.6,2.9.1,4.1a52.4,52.4,0,0,1-5,9.3c1.1-2.6,2.3-5.2,3.2-7.8.4-1,0-2.2,0-3.3s-2.4,0-3.2.6c-6.7,4.4-13.1,9.2-19.8,13.5-8.4,5.3-14.7,12.2-18.5,21.5a16.2,16.2,0,0,1-4.8,6l3-10.7-.9-.7-11.3,8.1-2,1.5c-2.4,1.9-5.8,3.3-6.7,5.7s2.2,4.5,4.1,7.9l-6.9-6.2c5.2,15.2,10.5,29.5,14.9,44,2,6.3,2.7,13,3.3,19.6.3,4.3,2.5,5.5,6.1,5.4,13.5-.2,28.2-11.4,31.7-24.4a97.9,97.9,0,0,0,2.6-39.2c-.3-2.3-2-4.4-2.2-6.7s1.4-2.9,2.3-4.3c1.1,1.1,3,2.1,3.1,3.4,1.2,9.6,2.5,19.4,2.6,29.1.1,7.2-1.5,14.4-2.4,22.2,2.4-2.3,4.9-4.4,7-6.7,16-17.9,22.9-38.6,19.5-62.6-2.1-14.5-5.4-28.7-11.8-43.6-1.4,5.1-2.5,9-3.5,12.8l-1.9-.4c.8-4.5,1.1-9.2,2.5-13.6s4.4-3.3,6.5,0a61.1,61.1,0,0,1,5.8,12.1c6.8,19.7,11.7,39.8,7.8,60.7s-16.6,39.3-35,52.1a16.9,16.9,0,0,0-4.5,3.9c-10.6,15.7-25.5,26.5-42.7,33.3-11.8,4.7-13.2,14.5-15.4,24.8,5.4-4.5,10.5-9.5,16.4-13.4,9.5-6.3,19-13,29.5-17.4,15-6.5,25.4-1.2,31,14.2a112.1,112.1,0,0,1,4.6,18.8c.6,3,1.8,3.4,4.3,3.3,6.1-.2,12.2-.1,18.3-.1v2.3h-18c-2.6-.1-3.7.8-3.4,3.4,1.1,8.5,2.1,16.9,3.3,26.3l4.7-5c-8.2,9.9-1.6,20.3-1.7,30.5l1.4.7c3.6-6,7.5-11.9,10.7-18.1a247.3,247.3,0,0,0,26.5-84.1,128.4,128.4,0,0,0-2.7-46.6c-.5-2.2-2-4.2-2.7-7.2,1.2,1,3.1,1.7,3.6,2.9a62.4,62.4,0,0,1,3.8,11.8c6,28.8,1.7,56.8-6.9,84.5-7.1,22.9-16.2,44.7-30.2,64.3-2.2,3-.3,8.9-.3,13.4l1.7.4,13.2-17.8,1,.5c-2.5,4.6-4.8,9.4-7.5,13.9-6.2,10.6-14.4,19.4-23.6,27.4-.9.7-2.1,1.5-2.4,2.5-2,7.9-3.9,15.8-5.6,23.8-.2.9.7,2.1,1.4,3l55.7,78.6,2.4,2.9c3.6-28.3,8-55.5,3.3-83.2-1.4-8.4-6.7-19-11.7-23.4l4.9,1.1c.1-1.7.2-3.3.2-5,.3-9.4.4-18.9,1-28.3a21.4,21.4,0,0,1,2.8-8.4c.9-1.8,3-4.3,4.3-4.2s4.1,2.2,5.1,4.1a25.6,25.6,0,0,1,3.1,9.3c1.5,16.9,4.1,33.9,3.5,50.7-.8,26.4-3.9,52.8-6.2,79.1a83.8,83.8,0,0,1-2.1,14.2c-1.3,4.5-.1,7.9,2.2,11.7,6.6,10.6,13.1,21.3,19.2,32.1,1.9,3.3,2.5,7.2,3.7,10.9l-1.7.7c-8.1-13.5-16.3-27-25.1-41.4-9.1,47-15.4,93-13.7,139.7s5.5,92.9,18.6,139.2c6.6-7.5,10.1-14.7,10.5-23.8,0,3,.6,6.1-.2,8.9s-2.6,8.5-5.2,11.7c-4.1,4.9-3.1,8.9.1,13.3,1.8,2.5,3.7,5,5.6,7.4a5.2,5.2,0,0,1-1.1,1c-2.8-3.4-5.9-6.6-8.4-10.2s-2.4-2.9-4.7-.6c-25.7,25.7-56.5,42.3-92.1,49.9-18.7,3.9-37.3,4.1-56.1-2.8,7.1,1.1,13.6,2.6,20.1,3a138.7,138.7,0,0,0,20.4-.4c19.1-1.6,37-7.5,54-16.2a18.3,18.3,0,0,0,3.3-1.1,204.3,204.3,0,0,0,46.4-31.8c4.1-3.7,5.9-7.1,2.7-12.2-1.3-2.1-1.7-4.7-2.4-7.1-12.3-40.6-15.1-82.6-16.9-124.6-.4-7.8-.1-15.5-.1-23.3a9.8,9.8,0,0,0-1.8,4.6c-3.8,24.2-7.7,48.3-11.2,72.5-4.8,32.9-9.2,65.8-14.1,98.7-1.2,8.2-3.8,16.3-5.8,24.5-.4-.5-1.3-1-1.2-1.5a1150,1150,0,0,1,14.4-124.1c7.6-44.6,15.3-89.1,22.4-133.8,2.6-15.9,3.7-32,5.5-48.1.7-5.7,1-11.6,2.3-17.2s.5-9-2.4-13.1l-53.4-76a27.2,27.2,0,0,0-3.5-3.2,43.4,43.4,0,0,0-1.7,4c-2.2,6.7-4.3,13.3-6.3,20-.3,1.1-.2,3.3.3,3.4,4.3,1.4,1.9,3.9.9,5.9-3.4,6.9-7,13.8-10.6,20.7-.5.9-1.5,2.5-2.2,2.4-4.9-.3-6.3,3.8-8.6,6.6-16.6,20.3-33.2,40.8-49.9,61.1a12.8,12.8,0,0,0-3.3,9.4c.6,23.1.4,46.2-2.4,69.3-1,8-.5,16.2-.4,24.3.4,45.1-1.5,89.9-8.2,134.5a102.7,102.7,0,0,1-6,21c-1.9,5-4.3,4.8-8-.9,4.2,3.1,5,.7,5.4-2,1.7-11.5,3.9-23,4.8-34.5,1.9-24.9,3.2-49.8,4.6-74.7a23.2,23.2,0,0,0-.7-8.2l-8.7,32.2.8.5,4.5-5,1.2.6c-12.3,13.7-15.5,31.6-23,47.6l3.5-3c.2.3.4.7.3.8-12.4,13.8-18.9,31.3-28.7,46.7-18.7,29.3-37.3,58.7-56.1,88-3,4.7-6.7,8.9-10.6,14.1,9.7-1.1,18.7-2,27.6-3.1s17.4-1.4,26,1.2c-18.1,3-36.2,6.3-54.3,8.7-6.9.9-11.1,3.2-13.3,10.1-1.5,4.6-4.4,9-7.4,12.9-8.4,10.9-17.3,10.1-24.4-2.4,1.9,1.3,3.7,2.7,5.7,3.9,5,3.3,8.6,3.1,12.1-1.7s5.6-9.5,8.3-14c-13.3-6-25.8-1.7-38.3-.8-17.5,1.2-34.9,2.5-52.3,3.5-4.2.2-4.8,1.1-2.9,4.8,8.5,17.3,19.3,32.4,37.6,40.5,9.4,4.1,19,7.6,28.6,11.4h-19a12,12,0,0,0-2.4-1.5c-24.8-9.2-41.7-26.1-49.7-51.5-1-3-2.8-3.4-5.7-3.4-24.1-.3-48.3.2-72.4-1.3a613.7,613.7,0,0,1-145.7-27.5,20.5,20.5,0,0,0-9.2-.8c-30.2,5.7-60.2,3.4-90.1-2.7-41.5-8.4-80.8-23.2-119.1-40.8-6-2.7-11.9-6-18.3-7.8A597,597,0,0,1,614,2192c-5.5-3.2-9.5-2.9-14.9.1-24.2,13.6-48.7,26.9-73.2,40-8.9,4.8-9.1,4.4-2.1,11.3.2.2.2.5.5,1.5a21.9,21.9,0,0,1-3.8-3c-3.6-4.2-7.2-4-12.1-1.7a147.3,147.3,0,0,1-25,8.5c-6,1.6-13,2.7-17.3-3.8s-1.2-12.2,2.1-17.7c1.4-2.3,1.3-3.3-.8-5.2-6.6-5.7-13-11.5-19-17.7-25.8-26.5-51-53.6-77.2-79.6-31.7-31.6-61.4-64.8-88.3-100.5-7-9.2-13.1-19.2-22.9-26.2s-20.1-15.4-29.9-23.4c-16.2-13.1-32.2-26.4-45.6-42.6-3-3.6-5.8-7.5-9.3-12.1a34.8,34.8,0,0,0,.1,5.8c1.2,8.3,2.3,16.7,3.9,25.1a567.2,567.2,0,0,0,42.1,132.6c19.1,41.4,43,80,70,116.7,28.1,38.3,60.1,73.4,91.8,108.8,4,4.6,8.4,8.9,12.6,13.4l-1,.9c-30.2-23.6-53.7-53.7-79.7-81.6a368.2,368.2,0,0,1,50.3,105.9,11.8,11.8,0,0,0,1.2-4.1c1.5-9.7,2.9-19.4,4.6-29,.2-1.2,1.6-2.2,2.5-3.2a38.1,38.1,0,0,1,2.4,3.2,6,6,0,0,1,.3,2L382,2389h-4c-1.6-19.3-3.1-38.5-4.7-57.8a129.7,129.7,0,0,0-.3,57.8h-8c.8-19.5-5.7-37.7-11.1-56-10.2-34.6-28.4-65.3-46.6-96.2-16.4-27.7-36.2-52.9-53.1-80.2-31.4-51.1-55.3-105.3-70.2-163.5a502.4,502.4,0,0,1-13.1-76.1,74.1,74.1,0,0,0-3-13c-2.9-9.1-6.3-18.7-2.8-27.8,6.7-17.6,4.8-36.4,9.5-54.2,1.5-5.5-1.4-12.1-1.7-18.2-1.1-24.7-2-49.3-2.9-73.9-.1-1.8,0-3.6-1-5.6-1.6,6-3.3,11.9-4.7,18-7.7,32.4-14.1,65-16.3,98.3a512.1,512.1,0,0,0,5.3,116c7.9,48.7,25.3,94,48.4,137.2,21.3,39.7,43.4,79,65.5,118.3,4.9,8.8,11.5,16.7,17.1,25.4-1.3-1.2-2.7-2.3-4-3.6-12.2-11.8-21.7-25.7-30.4-40.1-25.2-41.8-48.7-84.5-69.5-128.6a402.9,402.9,0,0,1-33.6-108.3,483.9,483.9,0,0,1-5.3-107.5c2.6-41.3,10.8-81.6,21.9-121.3,1.9-6.8,4.1-13.4,5.5-20.2a135.1,135.1,0,0,0,2-16.8c2.2-29.2,2-58.8,6.9-87.5,5.7-33,12.8-66,25.1-97.4,16.3-41.5,38-79.7,70.7-110.6,11.3-10.8,23.9-20.3,36.2-29.9q22.1-17.4,44.9-34.1c3.6-2.7,8.2-4.4,12.7-5.6s7.5-.1,11.3.8c-14.6-.4-24.3,9.2-34.4,17.2-18.1,14.3-36.1,29-53.5,44.2-31.4,27.5-54.9,60.8-72.1,98.9-12.5,27.7-20.4,56.6-26.7,86-3.4,15.8-7.1,31.5-9.6,47.4-1.8,11.6-1.6,23.5-2.4,35.3-.3,5.7-.6,11.5-1,18.6,4.8-8,8.8-14.7,12.9-21.4l1.2.7-.9,2.1c-8.9,15.3-14.8,31.3-14.4,49.5.6,25.4-.4,50.7.5,76,1.2,32.2,8.9,63,23.9,91.8,18.2,35.1,40.2,67.5,66.8,96.7,11.3,12.6,24,23.6,39.2,31.3a6.5,6.5,0,0,1,2.8,2.4c-30.7-10.3-51-33.3-71.1-57,1.4,2.3,2.8,4.7,4.4,6.9,9.8,14.1,19.8,28,29.4,42.3,6.7,10,16.3,16.4,26.1,22.6,24.7,15.7,49.8,30.4,77.5,40,11.6,4.1,23.4,7.5,35.1,11.2a17.4,17.4,0,0,1,1.1-1.8c-.9-.5-1.8-.9-2.7-1.5-36.7-25.2-71.8-52.5-103.5-83.9-.5-.5-1.2-.8-1.5-1.3s-.9-2.6-1.4-3.8c1.4.1,3.2-.2,4.1.5,5.8,4.8,11.4,9.7,17.1,14.6,3.4,2.9,6.7,5.9,10.8,8.3l-3.3-8.3c10.4,18.5,27.9,29.4,44.1,41.5,13.8,10.3,28.4,19.4,42,29.8,10.6,8,22.3,11.9,35.3,13.4,20.8,2.4,41.6,5.3,62.4,8a16.5,16.5,0,0,0,2.7-.7c-25.6-32.8-49.2-66.4-76.3-96.9s-57.4-57.6-86.2-86.4l16.5,14.9c20.4,18.9,41.3,37.3,61,56.9,24.2,24.1,44.3,51.9,64.7,79.3,7.3,9.9,15,19.5,22.3,29.5a13.3,13.3,0,0,0,9.5,5.4c5.6.6,11.2,1.8,16.8,2,4,.1,8.3,0,12-1.4,40.8-15.8,78.2-38.2,115.9-60s72.8-42.3,109.3-63.3c6.5-3.8,13.7-6.6,20.9-9.3a14.9,14.9,0,0,1-1.4,1.2l-98.9,58.4c-43.6,25.8-86.9,52.4-134,71.8a40,40,0,0,0-9.1,4.8l5.5.9c32.2,5,64.4,10,96.6,14.8,12.9,1.9,25.9,3.4,38.9,5.2.8.1,1.5,1.1,2.3,1.7-52.4-1.5-104-10.3-155.9-16.4,2.5,1.5,5.1,2.4,7.6,3.6s7.3,3.6,10.9,5.4h.1c-3.7-1.3-7.4-2.9-11.2-4.1-5.6-1.6-11.2-3.1-16.8-4.4-1.2-.2-2.5.5-3.8.8.6,1.1.9,2.5,1.8,3.3,15.6,15.7,31.1,31.4,46.9,46.9a36.3,36.3,0,0,0,9.8,6.7c9.5,4.1,19.1,7.8,28.8,11.2a9.7,9.7,0,0,0,7.3-.6c15.5-9.7,31.1-19.2,46.2-29.6,9.9-6.8,19-14.9,28.5-22.4s18-15.2,26.6-23.3a560.9,560.9,0,0,0,112.7-151.6c22-42.9,39.5-87.8,57-132.7.9-2.3.4-5.2.5-7.8,3.1,2.1,2.8-1,3.2-2.2,9.3-27,18.5-54.1,27.8-81.1,1-3.1.5-4.9-2.7-6.6-27-14.1-53.9-28.4-80.8-42.6-.3-.2-.8,0-1.5.1,4.8,9.3,9.7,18.4,14.3,27.6,15.5,31.4,26.4,64.6,37.6,97.6-1.2-2.1-2.8-4-3.7-6.2-9.9-24.8-19.1-49.9-29.8-74.4a314.6,314.6,0,0,0-24.7-46.6c-3.9-6-6.9-12.4-10.8-18.3a531.3,531.3,0,0,0-56.8-72.6,29.5,29.5,0,0,0-5.6-5c-.9-.6-2.5-.2-5.1-.4l5.7-2c3.8,3.4,7.9,6.6,11.4,10.3,22.5,23.1,41.8,48.7,58.9,76.1a18.1,18.1,0,0,0,6.7,6.2c27.3,13.8,54.8,27.3,82.2,40.9,7.4,3.7,7.3,3.9,10.2-3.6.2-.4.2-1,.6-1.3a17.3,17.3,0,0,1,2.5-2.1c.6.9,1.7,1.7,1.8,2.7a33.8,33.8,0,0,1,.4,8.4c-.4,3.5,1,5.4,4,7.1,9.8,5.4,19.5,10.9,29,16.6,30.7,18.7,61.4,37.4,83.8,66.3,4.8,6.2,9.5,9.9,17.6,8.8,2.3-.3,4.9.7,7.3,1.1a93.4,93.4,0,0,1-11.8.7,15.8,15.8,0,0,0-3.6.9,18.3,18.3,0,0,0,1.8,3.4,9.7,9.7,0,0,0,2.7,2.2c16.2,10.1,32.5,20.1,48.5,30.5,3.4,2.2,4.7,1.4,6.5-1.5,6.6-10.5,14.3-19.8,26.7-23.7,2.9-1,2.3-2.4,1.2-4.5-6.9-12.1-13.4-24.5-20.7-36.5a116,116,0,0,0-29.6-32.1c-12.8-9.6-27.3-15.8-41.9-21.9-6.4-2.6-12.7-5.7-18.9-8.9-1.2-.6-1.5-2.9-2.2-4.4,1.5,0,3.2-.4,4.6.1,6.8,2.6,13.5,5.5,20.4,8.1,17,6.3,33.7,13.4,47.9,25.2,4.3,3.5,8.3,7.4,12.6,11.4a5.8,5.8,0,0,0,.5-1.7c-1.9-26.1-16-46-33.1-64.2-1.6-1.8-4.2-2.7-6.4-3.8-13.4-6.4-26.7-13-37.5-23.5-6.4-6.3-12.1-13.4-18.1-20.1l1.3-1.1c13.2,18.7,31.1,31.3,52.6,39.2a382.7,382.7,0,0,0-27.4-28.1c-4.2-3.9-9-7.8-9.4-13.6-.5-8.6.3-17.4,1-26.1.2-2.5,1.9-4.9,2.9-7.4l1,.3c-.5,2.2-1,4.4-1.6,7.3,4.6-6.1,8.2-11.5,12.5-16.2,5.9-6.5,13.3-9.1,22.1-6.8a34.1,34.1,0,0,0,8.4,1.2c3.2.1,5.2-1.1,4.4-5.2a130.3,130.3,0,0,1-1.8-15.3c-.1-1.4.8-2.9,1.2-4.3,1.1,1.2,2.8,2.3,3.2,3.7a114.6,114.6,0,0,1,3.5,14c.5,2.7,1.4,3.5,4.2,3.3,7.1-.6,14.3-1,21.4-.9,4.7.1,5.2-1.5,4.2-5.5-2.7-11.2-3.9-22.6-2.2-34.1a26.3,26.3,0,0,0-.1-8.4q-6.2-27.9-12.8-55.8c-2.4-10.3-4.4-20.8-8.1-30.7a39.8,39.8,0,0,1-2-22.5c1.7-8.4.3-14.8-6-20.4-1.3-1.1-2.2-2.5-3.4-3.7-8.7-8.9-18.2-16.6-29.7-21.6-1.4-.5-3.6-1-4.5-.3-2.8,1.8-4.2,13.8-2.4,17-3.6-1-4.7-2.5-4.3-6.2s1.4-5.5,1.5-8.3-.3-4.2-1.4-4.8-4.2.4-5.3,2.8c-2.5,5.6-5,11.2-7.7,16.8a831.9,831.9,0,0,0-50,130.3c-1.1,3.9-1.5,7,1.8,10.3s4.7,6.7,7,10l-.4.3-8.9-9.6-.6.6,23.5,61.5c6.2-5.8,6.3-5.8,11.3-2.1-5.6-1.4-7.1-.7-9,5a15,15,0,0,0-.4,7.3c1.4,7.1,3.4,14.1,4.8,21.3.8,4.2,1.6,8,5.9,10.3,1.7.8,2.6,3,3.9,4.5l-.7.7-7-2.8c3.8,14,7,26.8,10.8,39.5,2.7,8.7,3.1,8.6,10.5,4.5-1.7,2.8-3.5,6.2-6.2,7s-5.1-2.4-6.7-4.5a29.1,29.1,0,0,1-4.7-9.3c-2.6-8.6-4.8-17.3-7.1-26-1-3.6-1.6-7.4-2.8-11.1-.4-1.1-2.2-1.8-3.3-2.7-.4,1.1-1.2,2.3-1.1,3.3.9,6.7,1.7,13.5,3.1,20.2,4.8,21.5,12.6,41.7,29.3,57.2a20.2,20.2,0,0,0,3.6,1.8l-2.1,2c-5.2-5.6-10.9-10.7-15.5-16.8-12.4-16.7-18.7-36-20.7-56.5-.9-8.6-3.8-12.4-12.1-15.9a365.5,365.5,0,0,0-59.3-19c-35-8.1-70-16.4-103.6-29.3a8.8,8.8,0,0,0-1.7-.2c39.8,51.6,94.3,79.1,155.2,96.2a6.2,6.2,0,0,1-1.9.1l-3.5-.5c-39.3-8.8-75.4-24.7-107.7-48.9-18.5-13.9-33.7-31.3-49.1-48.4a13.3,13.3,0,0,0-4.1-3.4c-14.3-7.1-28.7-14-43.1-20.9-.2,0-.5.3-.8.5l16,19.8c5.3,6.8,10.7,13.7,15.8,20.6s9.9,13.8,14.4,21,8.5,14.5,12.7,21.7l-1.2.7c-4.9-7.3-9.4-14.9-15-21.7-16.8-20.7-33.8-41.1-51.1-61.4-5.7-6.7-11.6-13.4-18.4-18.9-18.6-15.1-37.7-29.5-56.6-44.3-.9-.8-1.2-2.4-1.8-3.6,1.4,0,3.1-.6,4,.1,4.2,2.7,8,5.9,12.2,8.6s10.7,6.5,16.1,9.7l.8-1.2c-32.8-34.8-59.6-75.1-95.5-107.3a5.7,5.7,0,0,0,.1,3.2c3.3,9.2,6.1,18.8,10.2,27.6,21.5,46.2,54.2,82.7,97,110.2l25.8,16.6Zm675.2,11.1c-1-2.8-2.6-5.6-2.8-8.4-.2-4.8-2-5.1-6.2-4.3-18.8,3.4-37.5,8.5-56.9,6.3a6.7,6.7,0,0,0-3.4.5c-21.1,7.9-41.5,17.1-59.4,31.1-2.6,2.1-4.9,4.6-8.1,7.7a14,14,0,0,0,2.8-.3c32.4-13.5,66.1-17.4,100.7-14.4,1.7.2,3.4,1.5,5,2.2a42.5,42.5,0,0,1-4.9,2.1c-.8.3-1.7-.1-2.5,0-11.7.5-23.3.5-34.9,1.8-22.9,2.5-45.4,6.6-66,18.2-6.7,3.7-14.5,5.4-21.9,7.8-3.1.9-4,1.8-2.2,5,9.1,16.1,17.9,32.4,26.9,48.5,5.2,9.5,10.6,19,16,28.5a2.5,2.5,0,0,1-1.6-1.4l-39.8-67.5c-1.9-3.3-3.1-8-6-9.5s-7.2.5-10.9,1h-.5l-52.8-.7c-5.3-.1-10.7-.8-17.2-1.2,9.5,8.4,21.2,9.3,31.1,14.2-11.3-.3-22.4-1.5-32.5-6.9-16.6-8.8-27.6-22.7-35.7-39.2-.6-1-.8-2.5-1.6-3.1a25.5,25.5,0,0,0-4.8-2,21.2,21.2,0,0,0-.6,4.3c.8,8.6,1.8,17.2,2.4,25.8.1,1.6-1.4,3.2-2.2,4.8-1.3-1.4-3.3-2.6-3.7-4.2-2.6-9.1-4.7-18.3-7.1-27.5-.4-1.3-1.8-3.3-2.8-3.3-7.8-.1-15.6.2-23.4.5-3.7.1-5,1.8-3.4,5.4,6.2,14.5,10.9,29.8,18.7,43.4,13.2,23,28.4,45,42.9,67.3a18.7,18.7,0,0,0,4.3,4.1c5.9,4.1,12,7.8,17.6,12.3,11.3,9.1,22.3,18.4,33.3,27.8,2.4,2.1,3.9,6.2,6.4,6.7s5.2-2.7,7.9-4.1,5.1-2.8,7.8-3.3c9.4-1.9,18.8-4.2,28.4-4.8,47.2-2.9,86.6,12.9,115.9,50.8,21.4,27.6,33.9,59.3,42.5,92.9,1,4,2,8,3.3,11.9,3.5,10,7.4,19.9,10.6,30,1.7,5.5,2.1,11.5,3.3,18l3.6-3.9c16.4-20.3,32.9-40.6,49.2-61.1,3.2-4.1,6.7-8.5,8.4-13.3,5-14.3,8.6-29,13.7-43.2,2.5-7,.8-11.6-4.1-16.3-1.8-1.7-2.8-1.5-5-.8-8.4,2.9-16.8,6.3-25.6,7.7-17.5,2.8-30-6.3-33.5-23.6-3-14.8-.2-29.2,4.4-43.2,1.5-4.2.7-6.6-2.4-9.4-4.6-4.1-8.7-8.7-13.1-13-22.1-21.5-44.9-42.3-70.6-59.5-12.6-8.4-25.8-15.9-38.6-23.9-1.5-.9-2.2-3-3.3-4.5l5.1-1.9a.7.7,0,0,1,.1.5l-2.9,1.7a12.5,12.5,0,0,0,2.3,2.3c7.2,4,14.6,7.8,21.9,12,38.1,21.7,70,51.2,100.9,81.8,4.2,4.1,4,4.2,6.7-1,10.5-20.3,25.2-36.1,47.8-42.7,7.1-2,14.6-2.7,21.9-4.3,1.2-.2,3.1-2.3,2.9-3-2-7.5-3.7-15.2-6.9-22.2s-8.6-8.2-16-6.4c-12.7,3.1-22.8,10.7-33,18.3-5.8,4.4-11.5,9.1-17.5,13.2-1.7,1.2-5.2,1.8-6.6.8s-1.6-4.6-1-6.6c1.8-5.9,4.3-11.7,6.8-18.2-2.8.9-5.1,1.8-7.4,2.3-10.5,2.4-21,5.8-31.6,6.6-15.7,1.3-27.7-8.1-31.7-23.4-5-19.3.5-36.5,13.3-51,7-7.8,16.1-13.8,24.2-20.7,1.9-1.6,3.6-3.3,5.4-5l19.5-12.2c.3-.3.4-1.9,0-2.2-2.1-1.6-4.7-4.6-6.4-4.1-4.6,1.1-8.8,3.7-13.2,5.8-.1,0-.1.3-.1.5C1445,1568.9,1445.1,1573,1445.2,1577.1ZM942.4,1722.7c0-2.2.3-4-.2-5.5s-1.7-2.2-2.6-3.2c-.7,1-1.7,1.8-2,2.9-1.3,4.3-2.2,8.7-3.5,13-18.9,62.3-42.6,122.8-68.8,182.3-23.5,53.2-53.9,102.1-92,146.1s-80.5,80.5-130.2,109.5l-6.1,3.8c67.2,24.6,135,44.1,202.9,63.2-3.4-3.3-7.1-6.1-10.7-9a9.1,9.1,0,0,1-1.5-2.3c.6-.2,1.1-.7,1.7-.6a10.6,10.6,0,0,1,3.5.9c.3.1-.4,1.8-.1,2.2a27,27,0,0,0,3.3,2.2c10.6,8.3,22.9,12.5,35.7,15.8l75.6,20c6.3,1.6,12.6,3.3,18.9,3.7,30.4,2,60.7,5,90.5,11.3,27.5,5.9,54.1,14,77.7,30,4.5,3.1,8.7,6.6,13,9.8-9.6-4.5-18.5-10.2-28-14.5-37.7-17.3-78.2-22.9-119-27.2-16.4-1.7-32.8-2.5-49.3-3.4-9-.4-18,0-27.5,0,.9.5,1.5,1,2.2,1.3l60.8,22.4a12.6,12.6,0,0,0,5.8.2c6.5-1.4,13-3.1,19.5-4.7l.2.8-17.9,5.7a36.1,36.1,0,0,0,3.8,1.5c51.1,15.3,103.5,22.9,156.7,24.9,37.6,1.5,75.2-.6,112.7-3.7a13.4,13.4,0,0,0,9.9-4.9c15.1-18,30.5-35.7,45.7-53.6a9.1,9.1,0,0,0,2-3.9c.9-10.8,1.6-21.7,2.4-32.5l-1.3-.3-7.6,10.4c-.2-1.9.8-3,1.3-4.2,2.4-6.3,6.8-12.8,6.5-19a277.3,277.3,0,0,0-9.8-62c-9.8-35.3-26-67.8-46.4-98-29.2-43.3-59.3-86-89.2-129-5.5-8-11.3-15.9-17-23.8a7,7,0,0,0,.7,4.4c5.8,13.6,12.4,26.9,17.2,40.8,14.9,43.8,25.4,88.8,34.9,134,10.5,49.6,19.1,99.6,35.8,147.6a13.7,13.7,0,0,1,0,3.5l-1.6.5c-4.3-10.7-9.1-21.2-12.8-32.1-10.8-32.6-16.3-66.4-23.1-100-9.3-46.6-19.6-92.9-33.1-138.5-7.3-24.5-15.7-48.5-30.1-69.9-7.3-10.8-15-21.3-27.1-27.3-1-.5-2.3-.3-3.5-.5l2.4,2.8c.1.2.1.5.2.8l-4.6-1,4.2,9.3a11.5,11.5,0,0,1-3.5-4.8c-1.3-3-2.5-3.1-4.3-.5-3.5,4.9-7.2,9.7-10.5,14.6a6.2,6.2,0,0,0-1,4.2c.8,5.9,1.8,11.9,3,17.7.2,1,1.8,1.8,2.2,2.1-.4,2.5-1.2,5.3-1,7.9.6,8,2.1,15.9,2.4,23.8,1.2,25.5,2.3,50.9,2.8,76.4.4,23.4.7,46.7,5.5,69.6,1.8,8.7,2.1,18.5,11.9,23.7a10.5,10.5,0,0,1-4.7-.1c-5.8-1.5-8.7-6.2-10.3-11.3-2.8-8.7-6.1-17.5-6.9-26.4-2.1-23.7-3.1-47.5-4.5-71.3l-4.5-79.2c-.1-3.6-.8-4.8-4.1-2.1a56.1,56.1,0,0,1-9.4,6.5c-1.8,1-4.2.8-6.4,1.1-.2-2.2-1.1-4.7-.3-6.4,4.2-9.4,9-18.5,13.3-27.8,1-2.1,1.7-4.9,1.2-7-2.6-10.2-4.7-20.6-8.6-30.3-5.6-13.8-12.5-27.2-19.1-40.5a12.2,12.2,0,0,0-5.7-5.3c-6.3-2.5-12.9-4.2-19.3-6.6-1.9-.7-3.5-2.4-5.2-3.7,2.1-.6,4.3-1.9,6.4-1.7s5.8,1.3,8.7,2.1l5.5,1.6c-30.3-39.7-73-60.3-112.7-85.6C943.6,1718.7,943.1,1720.5,942.4,1722.7Zm323.8-368.4c5.6-10.3,15.1-18.7,25-26.5,6.9-5.4,14-11.1,23.3-11.2,4.2-.1,4.8-2.1,5.4-5.3,2-9.9,3.4-19.9,6.3-29.5a56.9,56.9,0,0,0-1.2-38c-2.2-5.8-5.8-10-12.6-10.4a27.4,27.4,0,0,1-3.9-.9v-1.2l6.7-1.8c-6.7-19.3-13.1-38.8-20.5-57.9-1.3-3.5-5.9-6.6-9.7-8.4a50,50,0,0,0-15.3-3.9c-3.8-.5-8.9-.7-11.5,1.4-7.7,6.2-15.3,12.9-21.5,20.6s-10.5,16.4-15.5,24.9a21.5,21.5,0,0,0-3.1,7.7c-.7,6.1-1.3,7.1-7.6,7.1-13.6-.1-24.1,6.3-33.4,15.4l5,3.8a7.4,7.4,0,0,1-1.8.7c-2,.1-4,.2-6,.1-4.8-.3-6.8-3.3-4.5-7.4s3.7-5.8,6.4-7.6c4.8-3.2,4.1-7,2.4-11.3-.9-2.3-2-2.8-3.8-.6-3.3,3.7-7,7.2-10.2,11-5.8,6.8-11.7,13.6-17.1,20.8-3.7,5-5.7,10.9-5.5,18.7l19.4-25.1,1.4,1c-.8,1.3-1.4,2.7-2.3,4-5,7.3-10.1,14.5-15,21.8-.9,1.3-1.9,3.1-1.7,4.4.8,4.4,2.2,8.6,3.3,12.9l1.2-.3c-.2-2.1-.7-4.2-.7-6.3a17.8,17.8,0,0,1,.8-4.5c1.2.9,2.6,1.5,3.5,2.6a13.6,13.6,0,0,1,2,4c3.5,9.3,7,18.6,10.2,27.9.5,1.5-.3,4.4-1.4,5.1s-3.7-.2-5.1-1.2-3.5-3.7-5.2-5.6c2.9,15.4,6.6,30.3,10.6,45.2,1.4,5.4,5.6,7.4,10.9,7.5l5.2.7c-11.8,4.9-20.3,1.4-23.8-9.5a219.2,219.2,0,0,1-7.1-27.9c-2.2-11.9-7.9-23.7-2.7-36.3a2.3,2.3,0,0,0-.4-.9l-5.6-9.4c-1.2,1.8-1.9,3.1-2.7,4.3-11.1,17-18.9,35.5-25.6,54.6-.5,1.5-2.7,2.5-4.1,3.7-.5-1.7-1.6-3.5-1.3-5.1,1.2-7.2,3-14.3,4-21.5.9-5.6,1-11.2,1.4-16.9l-1.5-.5-1.4,2.1c-1.3,2.1-2.8,4.1-4.1,6.2-13,22-23,45.3-31,69.6-1,3,.3,3.9,2.5,4.6,15.2,4.8,26.5,15.1,37.1,26.3,1.4,1.4,2.7,3,3.3,3.6,6.2-20.4,12.4-41,18.8-61.4,1.1-3.3,2.2-8.5,6.8-6.8s1.9,6.3.8,9.6c-3.5,11-7.4,21.9-10.8,33-.5,1.5.3,4.1,1.4,5.5,5.2,6.3,11.5,11.8,15.9,18.5,20.8,32.3,41.2,64.9,61.6,97.5,6.5,10.6,12.5,21.5,19.2,32.9a29.4,29.4,0,0,0,1.2-3.5c1.8-7.7,3.7-15.4,5.4-23.2a51.9,51.9,0,0,0,1.4-11.1c-.2-6.3-1.1-12.6-1.8-18.8-1.5-13-4-25.6-11.8-36.6q-14.5-20.4-29-41.1c-1.9-2.8-4.3-3.9-6.6-2a147,147,0,0,0-13.6,12.6c-.7.7,0,2.9.1,4.7-5,.7-6.5-.8-3.7-6s5.9-10.5,10.2-14.5c8.7-8,15.4-6.3,21.9,3.5s15.1,22.3,23.4,32.8a75.4,75.4,0,0,1,16,40.2c.8,7,1,14,1.6,21.7l8.7-9.2,1,.7c-.8,1.5-1.4,3.2-2.3,4.6a69.6,69.6,0,0,0-10.1,25.8c-1.2,7.3-1.8,15-4.3,21.9s-1,9.7,1.8,14.6c12.8,22.2,25.1,44.6,37.8,66.9.9,1.5,3.6,3.6,4.5,3.3,10-4.3,22-5,28.3-16.1a14.1,14.1,0,0,1,4.5-4.6c11.6-7.7,23.2-15.5,35.1-22.7,5.9-3.5,12.4-5.9,19.7-9.3-3.8-1.4-6.8-2.3-9.6-3.5-14.5-5.6-19.5-13.3-18.5-28.7l.6-8.5c1.2-13.1,5.6-24.7,16.3-33a103.8,103.8,0,0,1,16-10.3c18.7-9.4,37.6-18.4,56.5-27.5,3.1-1.4,3.9-3.2,3.3-6.5-2.1-11.9-3.9-23.9-5.9-35.8s-3.9-22.8-5.9-34.2c-.5-2.9-1.5-3.9-4.6-2.4s-5.7,1.8-8.3,2.5c3.2-4,5.6-8.5,9.3-11.2s3.9-3.4,2.9-6.6c-4.3-13.9-7.9-28.1-13-41.6s-10.7-28.5-22-39.3-21.6-20.3-32.9-29.8c-6.4-5.5-14.4-8.5-23.5-9.8.6,2.2,1,3.9,1.5,5.6a59.4,59.4,0,0,1,.8,32.4c-3,11.7-5.1,23.6-7,35.5-.7,4.2-2.1,6-6.3,5.6-7-.8-13.2,1.4-18.6,5.6C1288.6,1336.6,1277.1,1345.7,1266.2,1354.3ZM1271,1878l-1-3.7c-3.3-13.6-6.4-27.2-9.9-40.7a10.9,10.9,0,0,0-3.9-5.2c-6.7-5.1-13.5-10.1-20.5-14.9-1.7-1.2-4.1-2.5-6.1-2.3-14.9,1.3-29.7,3-44.6,4.7a13,13,0,0,0-3.6,1.3,12.1,12.1,0,0,0,2.2,3.2c4.9,4.3,9.9,8.5,14.9,12.7a7.7,7.7,0,0,1-4.7-1.2,159.4,159.4,0,0,1-14.2-11.6c-2.1-1.9-4-3.5-6.3-1.7-.8.7-.5,3.8.3,5.3,14.8,27.7,29.8,55.4,44.7,83,1,1.8,1.9,3.7,2.8,5.5l-1.1.8c-1.4-1.9-2.9-3.7-4.2-5.7-9.6-14.4-19.1-28.9-28.6-43.3-1-1.5-1.3-3.5-4-1.6-11.5,8.7-23.8,7.2-35.8,1.5a133,133,0,0,1-15.8-9.6c-2.4-1.6-3.5-.5-4.8,1.4s-.7,3.1,1.2,4.1c17.8,9.9,31.3,24.4,43,40.5q33.8,46.5,66.5,93.6c17.1,24.6,34.5,49.1,50.5,74.4,19.4,30.7,33.3,64,40.4,99.8,1.9,9.2,3.3,18.6,5.1,28.9,2.4-8.1,4.4-15.4,6.9-22.4,1.1-3.1,1.6-8.1,6-7.2,1.7.4,3.5,5.8,3.3,8.8-1.1,15.8-2.7,31.7-4.4,47.5-.7,6.3-1.9,12.6-3,19,3.5-1.2,7.4-3.9,9-2.9,4.4,2.7,5.3-.5,6.8-2.7,14.4-20,28.4-40.3,43.1-60a181,181,0,0,0,30.5-62.3c6.5-24.2,13.7-48.2,11.5-73.9-1.4-16.2-.5-32.7-1.3-48.9-.4-8.3,1.5-17.4-6.5-24.3,4,1,4.2.8,3.7-3.3a297.4,297.4,0,0,0-19.3-71.9,164.4,164.4,0,0,0-62.7-77,287.9,287.9,0,0,0-87.2-38.7c-7.9-2.1-16-3.7-24.4-5.7a18.7,18.7,0,0,0,.2,2.4c4.1,9.4,8.2,18.9,12.5,28.2.7,1.4,2.9,2.5,4.5,2.8,12.3,2,24.7,3.2,37,5.6,7.8,1.6,15.4,4.8,23.1,7.3l-.4,1.4c-19.3-4.5-38.7-8.3-59.4-8.2,15.7,22.3,31.8,43.4,43.7,67.2l-42.3-61.9-1.4.7C1269.1,1836.8,1272.1,1857.2,1271,1878ZM301.7,2028.1l-.6.6c1.2,1.4,2.3,2.8,3.6,4.1,20.2,20,40.3,40.2,60.8,60,39,37.7,78.4,75.1,117.5,112.8,2.9,2.9,4.9,3.1,7.7.4a25.5,25.5,0,0,1,4.7-3.1l1.3,1.4c-1.6,1.2-3.1,2.4-4.7,3.4-3.5,2-3.1,3.8-.2,6.3,5.3,4.6,10.3,9.4,15.3,14.4,2.6,2.6,4.8,3,8.2,1.2,24.9-13.7,50-27.2,75-40.8,2.7-1.4,5.3-3.1,8.5-4.9l-4.2-3L548,2150.1c-6.9-4.7-13.5-9.8-20.6-14-29.9-17.6-59.8-34.9-89.8-52.2a29.7,29.7,0,0,0-9.6-3.8c-34.7-6.7-67.7-18-98.5-35.6Zm1133.6-566.3c-19,9.5-37.9,19.2-57.1,28.3s-28.8,22-30.2,42.7c-1.1,15.9,2.4,22.6,17.7,27.7a41,41,0,0,0,8.1,2.3c4.2.4,8.8,1.2,12.7.2,16.1-4.5,32.2-8.3,48.9-9.2,3.3-.2,7.1-.8,9.7-2.6a15.6,15.6,0,0,1,12.7-2.6,11.2,11.2,0,0,0,7-.7,62.8,62.8,0,0,0,24-19.7c8.8-11.7,18.4-22.7,32-28.8,5.4-2.5,7.3-6.7,9.3-11.4,1.2-2.7.4-3.7-2.3-3.8-5.5-.1-11-.6-16.5-.3l-79.7,5.2a35.3,35.3,0,0,1,6.2-1.9c19.7-2.1,39.4-4.5,59.1-6,10.5-.9,21.2-.1,31.8-.3,1.4,0,3.7-1.3,3.9-2.3,1.4-8.8,1-17.2-6.6-23.2a105.3,105.3,0,0,0-14.8-10.2,15.3,15.3,0,0,0-9-1.5c-19.9,2.3-37.7,11.3-56,18.7-4.8,1.9-7.8,4.1-5.4,9.7.2.5-.1,1.3-.4,3.3-1-2.6-1.3-3.9-2-4.9a14.8,14.8,0,0,0-2.8-2.8l-1.2,4C1429.3,1469.1,1429.3,1469.1,1435.3,1461.8ZM1174.9,1605c3.4,4.3,6.9,8.8,10.4,13.1,7.3,8.9,7.3,8.8,18.2,4.8,4.2-1.5,8.6-2.6,13-3.9l.3,1.1-14.8,5.3.5,1.7c9.1,0,18.2.2,27.3-.1,14.1-.5,28.2-1.3,42.3-2.2,2.2-.1,4.6-.6,2.5-4.2q-20.2-35.2-40.3-70.6c-1.3-2.4-2.1-1.9-4-.6a31.4,31.4,0,0,1-9.2,4.5c-14,3.8-24.3-1.6-33-12.7-6.2-8.1-13.9-15-20.9-22.5l-2.2,2.2,10.2,8-.9,1.2-10.3-5.3c0,14.7-.1,29.7.1,44.6.2,11.2,2.6,21.4,13.6,27.4,2.5,1.3,4.5,3.6,6.6,5.5Zm311.9,24.8c-2.1-8.7-3.6-16.6-5.9-24.2-3.2-10.8-6.9-21.5-10.5-32.2-.6-1.8-1.1-4.8-4.3-2.4-13.7,10.3-27.9,20-40.8,31.2s-19,26.7-17.3,44.3c1.2,11.6,10.2,24.9,26.5,23.5,14.7-1.3,28.6-6,42.1-11.7a4.2,4.2,0,0,0,2.2-1.9C1481.6,1647.5,1484.2,1638.4,1486.8,1629.8Zm-201.3,122.5c-7.4.6-15,.5-22.3,2s-14.4,4.5-21.6,7.1c-.8.3-1.3,1.6-2,2.5a20.2,20.2,0,0,0,3,2.1,12.1,12.1,0,0,0,3.4.9c33.7,4.7,65.4,15.9,95.4,31.9,31.9,17,58.6,39.8,75.9,72.2,3.9,7.4,7.1,15.1,10.8,22.5.6,1.1,2.3,1.7,3.6,2.5.2-1.2.9-2.5.7-3.6a277.8,277.8,0,0,0-25.5-65.9c-12.1-22.5-28-41.7-50-55.3S1310.9,1752.7,1285.5,1752.3Zm261.3-11.1c2.4-4.3,6.2-7.8,6-11.1-.7-11-2.8-22-4.5-32.9a3.6,3.6,0,0,0-3-2c-30.4,2.1-52.1,17.1-65.4,44.4-4,8.3-4.1,8.3,1.9,14.9q21,23.7,42.3,47.3c.8.9,3.3,1.8,4.2,1.3,8.5-4.6,15.8-10.1,14.7-21.3a4.7,4.7,0,0,1,.2-2c.8-3,.2-4.2-3.4-3.5s-7.9-2.3-6.7-7.5c.8-3.2,1.6-6.7,3.4-9.3,6.6-9.4,6.8-18.9,2-28.9-.3-.8.2-2,.4-3a7.1,7.1,0,0,1,2.1,1.7C1542.8,1732.8,1544.5,1736.4,1546.8,1741.2Zm-397.5-275c2.7,7.8,5.7,14.8,7.5,22a52.4,52.4,0,0,0,13.9,24.4c9.2,9.3,18.7,18.4,27.7,27.9,6.5,6.7,14.1,7.7,22.5,5.3,6.4-1.9,7.7-5.6,4.4-11.4-11.4-19.6-22.3-39.4-34.3-58.6-17.1-27.4-34.9-54.3-52.5-81.4-2.1-3.2-5.1-5.8-8.6-9.7-1.5,8.2-2.1,15-4.1,21.4-2.5,7.9-.3,13.9,4.1,20.3,6.1,9,11.5,18.5,17.4,27.9,5-5.6,7.3-13.4,15.8-13.6-6.4,3.7-9.7,9.9-12.1,16.6a5.1,5.1,0,0,0,.8,3.7c10.8,15.8,23.2,30.1,40.6,39,1.5.7,2.8,1.5,4.2,2.3a7.5,7.5,0,0,1-.7,1.2c-4.5-2.2-9.2-4.3-13.7-6.7C1168.7,1489.6,1158.7,1478.6,1149.3,1466.2ZM634,2179.4a9.3,9.3,0,0,0-.4,1.3l1.5,1.1c28.3,15.6,56.5,31.3,84.9,46.7,10.9,5.9,21.9,12.7,33.7,15.9a578.6,578.6,0,0,0,65.4,13.4c20.2,3.1,40.7,4.3,61.1,6.2,3.3.3,6.7,0,11.5,0l-31.5-17.4a23.5,23.5,0,0,0-4.7-1.5c-16.4-4.5-32.9-8.4-49.1-13.4-52.1-16-104-32.5-156.1-48.7C645,2181.4,639.4,2180.6,634,2179.4Zm-74.4-834.3,68.9,39.5c-.3-1.4-.4-3-.8-4.6-3-10.2-6-20.3-8.9-30.5-.4-1.3.1-2.7.1-4.1,1.3.8,3.1,1.3,3.8,2.4a41.2,41.2,0,0,1,3.2,7.8c3,10.9,5.9,21.8,9,32.6a11.2,11.2,0,0,0,2.2,4.8c5.9,5.7,11.8,11.3,17.9,16.7,2.2,1.9,5.1,3,8.9,5.2-.7-2.4-.8-3.2-1.1-3.9-12-21.3-17.2-44.9-22-68.5-2.7-13.2-5.4-26.4-11.9-38.4-2.2-4.1-5.1-7.9-7.7-11.9l-1.9.9c4.5,14.7,9,29.5,13.6,44.8-16.1-21.6-20.1-47.3-27.5-71.7-.4,5.3-.5,10.5-.4,15.7.5,21,.6,21.1-14.7,35.4C580.3,1326.7,569.9,1335.8,559.6,1345.1Zm622.3,395.2,1-1c-3-5.3-5.6-11-9.1-16a69.3,69.3,0,0,0-11.3-12.9c-5.5-5.1-12-9-17.4-14.1-18.3-17.1-36.2-34.5-54.2-51.8-1.1-1-1.4-2.9-2-4.4,1.6.5,3.5.5,4.8,1.4a221.8,221.8,0,0,1,34.8,30.2c8.3,8.7,17.8,16.2,26.8,24.3a5.3,5.3,0,0,0-.8-4.1c-5-7.6-10-15.3-15.1-22.9-12.9-19.6-23.6-40.2-30.3-62.7-.9-3.1-2-6.1-3.1-9.2-3.2,2.2-6.6,4.2-9.6,6.7s-3.7,4.3-5.7,6.3c-3.6,3.6-7.3,7.2-11.3,10.5s-6.3,6.2-3.3,11.8c7.4,14.3,14.9,28.6,23.5,42.1,3.7,5.8,9.4,11.6,15.5,14.3,21.3,9.7,40,22.4,55.4,40.1C1174,1732.9,1178.1,1736.5,1181.9,1740.3ZM175.8,1827.4c-.3,1.2-.7,2.4-.9,3.6-3,21.1-3.1,42.3-2.4,63.6.3,10.7,2.6,20,9.6,28,2.2,2.5,4.2,5.2,6.4,7.7,15,16.7,32.9,30.1,50.3,44l12.5,9.5a4.5,4.5,0,0,0-.8-3c-7.2-10.2-14.6-20.3-21.4-30.7s-14.3-22.8-21.1-34.4a9.7,9.7,0,0,1-.6-7.1c.3-1,3.6-1,5.8-1.6C197.9,1882,184,1856.2,175.8,1827.4Zm109.1,188.8-1,.7a21.2,21.2,0,0,0,1.2,2c23.3,30.8,47.8,60.6,75,88.1q33.8,33.8,66.7,68.2c13.4,13.9,26.1,28.5,39.3,42.5,4.8,5.1,5.1,4.7,10.2-.3a37.2,37.2,0,0,1,5.3-4.5c2.9-1.9,3-3.2.4-5.6-10.1-9.3-19.8-18.9-29.7-28.3l-80.5-76.3c-27.6-26.2-56.1-51.6-80.9-80.8A80.8,80.8,0,0,0,284.9,2016.2ZM976,2301l.3-1.1-4.8-1.9c-16.7-6.7-33.6-12.8-49.9-20.2a66.7,66.7,0,0,0-28.3-6.3c-4,.1-8-.3-12-.5a622.3,622.3,0,0,1-82.7-9c-3.9-.8-7.8-1.4-11.7-2.1a7,7,0,0,0,3.6,2.9c25,9,49.7,18.9,75,26.8,28.8,9,58.5,13.8,88.8,13.3C961.5,2302.8,968.8,2301.7,976,2301Zm141.5-602c3.5,6.8,7.6,14.1,11.3,21.6,5.9,11.6,6.5,24.6,9.1,37,1.9,9.3,7.1,16.1,16.3,19.2,5,1.7,10.1,3.3,15.2,4.7,1.3.4,3.6.2,4.4-.7,5.7-6.8,13.4-10.2,21.6-12.6,2.7-.8,3.4-1.6,1.9-4-4.5-7.1-7.6-15.2-16.4-18.7-2.3-.9-4.3-3.1-6.1-5-7.8-7.8-15-16.1-23.2-23.4C1141.5,1708.1,1131.4,1698.2,1117.5,1699Zm1.7-488.4a92.8,92.8,0,0,1-8.3,6.1c-4.2,2.5-4.2,5-1.4,8.7,6,8,11.7,16.2,17.5,24.4-10.2-2.4-15.6-10.8-21.5-18-8.1,34.5-16.1,68.7-24.1,103a18.7,18.7,0,0,0,2.9-4.6c6.4-11.5,12.8-22.9,19.4-34.3a22.7,22.7,0,0,1,4.4-5.4c3-2.7,5.6-1.8,6.3,2.3a34.3,34.3,0,0,1,.2,6.4v10.1c7-11.7,13.8-23,20.5-34.4a4,4,0,0,0,.6-2.8,143,143,0,0,0-2.8-15.9c-2-7.7-3.7-15.7-7.4-22.5S1116.7,1219.9,1119.2,1210.6Zm355,542.9c-4.8,14.7-7.1,28.8-4.3,43.3,2.4,11.8,10.3,18.8,22.2,17.9,8.7-.6,17.1-3.5,25.6-5.6,3.8-.9,4.2-2.7,1.4-5.8-10.2-11.4-20.2-23.1-30.4-34.5C1484.2,1763.8,1479.4,1759,1474.2,1753.5ZM821.7,1573.2c-34.3-42.8-75.8-77.5-119.1-110.1a5.1,5.1,0,0,0,1.1,2.2c16.6,19.6,33.1,39.2,49.8,58.7,1.9,2.3,4.8,4,7.5,5.5,7,3.9,14,7.4,21,11.1l-.6,1.2-19.2-9.4c5.6,7.8,10.6,15.8,19.3,20.3,10.7,5.4,21.2,11.2,31.8,16.8C816,1570.9,818.9,1572,821.7,1573.2ZM1139.2,1251c3.6-4.7,6.6-9.4,10.3-13.3,7.6-8.2,15.5-16.1,23.3-24,3.2-3.2,2.7-4.9-.5-7.8a123,123,0,0,1-14.2-14.7c-2.5-3.1-4.1-3.5-7.3-1.4-5.6,3.8-11.4,7.3-17.1,11a6.9,6.9,0,0,0-2.8,2.8c-3.1,8-7,15.9.3,24.1,2.4,2.7,3.5,6.7,4.7,10.3S1138.1,1246.7,1139.2,1251Zm32.7,544.8-.9.2c1.2,3.9,2.2,7.9,3.7,11.7a4.8,4.8,0,0,0,3.7,2c14.8-1.4,29.5-3.1,44.2-4.7a12.4,12.4,0,0,0,3.1-1c-.5-.8-.8-1.7-1.4-2.5-7.1-9.4-14.2-18.9-21.4-28.2-.9-1-3.1-2.2-4-1.8-6.8,2.9-13.5,6-20.1,9.4-2.2,1.1-2.8,2.8.3,4,7.6,3,15.1,6,22.6,9.2a61,61,0,0,1,5.7,2.9c-2.5.1-5.2.8-7.5.1-7.6-2.4-15.1-5.2-22.5-8.1-4.2-1.7-5.4,0-5.5,3.8C1171.8,1793.8,1171.9,1794.8,1171.9,1795.8Zm-4.3,66.9c4-1,8-1.8,12-2.9s3.8-2.1,2-5.4c-5.6-9.6-10.9-19.4-16-29.3-1.5-3-2.8-3.6-6.1-2.4-11.6,4.2-18.5,13.2-24.8,22.9a3.4,3.4,0,0,0,.7,3.2C1145.1,1855.5,1155,1862,1167.6,1862.7Zm-590.9,286a1.7,1.7,0,0,0,.1-.7c-14.6-15.4-29.1-30.9-43.8-46.3a5.8,5.8,0,0,0-4.3-1.3c-5.7.7-11.4,1.9-17.2,2.8-2.9.4-4.2,1.7-2.1,4.1,5.2,6,9.6,13.7,16.2,17.3,13.2,7.3,26.6,15.1,41.9,17.9a5.5,5.5,0,0,1,1.8.6Zm553.5-669.6-1.3.5c.6,1.9,1.3,3.7,1.8,5.6,2.7,9.9,5.7,19.8,7.8,29.8,4.3,20.7,8.2,41.4,11.9,62.2.8,4.4,2.1,7.2,7,6-.4-5.8-1.1-11.6-1.3-17.4-.4-15.4-.6-30.9-1.1-46.4a8.5,8.5,0,0,0-1.6-4.5c-3.5-5.2-7.4-10.2-10.8-15.5S1134.3,1485.9,1130.2,1479.1Zm168.1,828.1h1.5a35.9,35.9,0,0,0,1.2,4.7c.9,2,1.8,5.3,3.2,5.7,5.2,1.3,10.5-1.3,11.4-5.1,2-8.2,3.9-16.4,5.5-24.7s2.2-13.6,3.3-20.4l-1.4-.6-47.2,54.3c7.2-.8,13-1.2,18.6-2.2,1.1-.2,2.3-2.3,2.7-3.7A70.1,70.1,0,0,0,1298.3,2307.2Zm312.4-450.4h.9c.7-19.5,2.2-39,2-58.5-.1-11.8-2.7-23.7-4.5-35.4-.3-2.2-2.4-4.1-3.6-6.2-1.5,2.1-3.8,3.9-4.4,6.2-3.7,16.1-5.9,32.2,1.9,48.1a55.8,55.8,0,0,1,4.8,17.1C1609.3,1837.7,1609.8,1847.3,1610.7,1856.8Zm-529-35.8c7.3,18.9,14.4,37.6,21.5,56.4,2.7-3.7,5.5-7.6,8.4-11.4,1.3-1.8,1.3-2.8-1-3.7a38.6,38.6,0,0,1-7.2-3.2c-1.3-.8-2.1-2.6-3.1-3.9,1.6-.8,3.1-2.3,4.6-2.2a51.8,51.8,0,0,1,11.8,1.8c3.9,1.1,4.3-2.3,5.8-4.1s-.9-2.9-1.9-3.6c-7.3-5.2-14.7-10.3-22.1-15.3C1092.9,1828.1,1087.2,1824.5,1081.7,1821Zm-587,410.8v.7c-5.3-1.3-10.9-1.9-15.7-4.1s-6.2-.4-7.5,3.4a43.4,43.4,0,0,0-1.4,4.8c-.6,4.2,1.1,6.6,5.3,6.5,11-.5,21-4.4,30.4-9.8,2.4-1.3,2.2-2.3.3-3.9-3.7-3.1-7.1-6.4-10.8-9.6-8.9-7.9-8.9-7.9-16.8,1.2l-.7.7c-2.1,2.1-1.9,3.7,1,4.7Zm747.6-427.7a19.7,19.7,0,0,1,3.6.1c4.5.6,4.9-1.5,3.2-4.8s-3-6.4-5.1-9.1c-3.3-4.4-8-7.9-10.3-12.7-4.1-8.4-10.8-8.7-18.4-8.2-3.2.3-4.3,1-2,4.1,6.4,8.5,12.8,17,18.9,25.8C1235,1803.3,1237.9,1805.6,1242.3,1804.1Zm91.8,446.6c6.3-4.3,14.8-64.7,11.3-80.2a63,63,0,0,0-2.9,6.3c-2.5,8.3-4.9,16.5-7.2,24.8a26.5,26.5,0,0,0-1.2,7.3c-.1,11.5,0,23,0,34.4Zm186.3-743.9c-9.9,4.8-17.3,12.1-23.4,20.7s-15.2,18.5-25.8,24.6c-1.2.7-4.5.9-2.3,4.1s3.4,3.7,6.5,1.4a191.2,191.2,0,0,1,17.5-12.4,40.7,40.7,0,0,0,16.6-19.1C1512.5,1519.4,1516.7,1513.2,1520.4,1506.8ZM454.5,2084.6l-.3,1.1c7.2,4.2,14.5,8.1,21.4,12.7s16.2,5.1,24.9,4a4.6,4.6,0,0,0,3.1-1.7c2.1-2.9,3.8-6,5.8-9.1Zm949.2,97.7-1.3-1c-.5.6-1.1,1.1-1.6,1.8l-45.5,61.8a22.6,22.6,0,0,0-2.2,4.4c-3,8.5-5.9,16.9-8.8,25.4l-.9,3.2,1.2.5Zm-331.7-535c-1.8-4-3.8-8-5.4-12.1-3.7-9.8-1.6-15.7,6.4-22.3s14.1-13,21.6-20.2c-12.6-4.2-20.9.1-30,14S1057.3,1632.2,1072,1647.3Zm50.9-221.6c-2.7,13.5,5.4,40.2,12.8,47.1,2.8-2.8,5.8-5.3,8.2-8.2.9-1.1,1.2-3.8.5-4.9C1137.6,1448.5,1130.4,1437.5,1122.9,1425.7ZM709.3,2229.2q-21.3-11.8-42.7-23.6a7.7,7.7,0,0,0-2.7-.4c-2.4-.2-5,.2-7-.7-12.5-6.2-24.9-12.6-37.4-18.9-1.5-.7-3.2-1.2-4.7-1.8l-.6,1.2C644.7,2202.2,675.7,2218.2,709.3,2229.2Zm236.6,37.5c0-.3.1-.6.1-.9l-68.3-14.9a101.3,101.3,0,0,0,17.7,10.2c3.2,1.5,6.4,3.5,9.7,3.7C918.7,2265.8,932.3,2266.1,945.9,2266.7Zm277.4-502.4c-12.3-11.8-20.8-26.3-35.1-35.7-.1,1.1-.2,1.4-.1,1.6,2.6,4.9,5.5,9.6,7.9,14.5a11.1,11.1,0,0,0,7.7,6.4c1.7.5,3.1,1.9,4.7,2.9l-5.2,1.1c-.3,0-.4.4-.7.5C1207.5,1765.9,1208.8,1766.5,1223.3,1764.3Zm-70.7,17.3-1,.9c2.4,4.3,4.9,8.6,7.2,13s4.9,9.8,7.7,14.5c.6,1,2.8,1,4.3,1.5.2-1.2.8-2.6.4-3.5-2.7-6.3-4.1-12.6-2.1-19.4a2.9,2.9,0,0,0-1.3-2.6C1162.7,1784.4,1157.6,1783,1152.6,1781.6Zm-56,116.7a26.7,26.7,0,0,0-2.4,3.1c-3.1,5.5-6.2,10.9-9.1,16.5-1.1,2.2-1.4,4.8-2.1,7.2a55.1,55.1,0,0,0,6.6-2.9c9.8-5.6,9.8-5.7,8.4-16.8C1097.7,1903.3,1097.1,1901.2,1096.6,1898.3Zm451.7-110.9,1.3.9c4.4-4.7,9.5-8.9,12.7-14.3,1.3-2.1-1.4-6.7-2.4-10.2,0-.2-.4-.3-.6-.5C1548.9,1771.5,1548,1773.4,1548.3,1787.4ZM214.4,1915.8l-1.2.9a835.7,835.7,0,0,0,56.3,79.7Q242.1,1956.1,214.4,1915.8Zm1280.2-280.7c-1.6,6-3.1,11.3-4.6,16.6l.9.9,23.9-16a7.5,7.5,0,0,1-.7-1.2C1507.7,1636.6,1501.2,1639.9,1494.6,1635.1Zm59.8,101.7c-8.8,7.8-6.2,17-4,26.4,2.9-3.2,6.5-6.7,6.8-10.5S1555.5,1742.4,1554.4,1736.8Zm-204.7,516.5c-14.9,8.6-12.1,23.3-15.6,35.6l1.3.5C1340,2277.6,1344.7,2265.8,1349.7,2253.3ZM510.2,2117.9l.6-.7c-2.2-4-4.4-8-6.7-11.9a2.7,2.7,0,0,0-2-1.2h-14c-.1.4-.3.8-.4,1.3Zm642.5-616.4a9.7,9.7,0,0,0,.3-2.4c-3-9.6-6-19.2-9.1-28.8-.1-.4-2.2-.6-2.3-.5-.9,2.8-3.1,6.2-2.2,8.2C1143.2,1485.9,1147.9,1493.3,1152.7,1501.5Zm-632,592.6c0-.2-.1-.4-.1-.6a84.9,84.9,0,0,0-11.2,3.3c-1.1.4-1.4,2.6-2,4a13.3,13.3,0,0,0,3.4.5c3.8-.6,7.5-1.3,11.2-2.1s4.4-1.6,6.6-2.3l-7.4-2.8ZM1256,1825.7c.1-14.1-3-17.1-13.3-14.8Zm-25.9-62-24.1-22.8C1210.5,1750.5,1225.4,1764.7,1230.1,1763.7ZM1340,2260.2c4.2-5.3,7.7-9.5,10.9-13.8.6-.9.1-2.5.1-3.8a14.7,14.7,0,0,0-3.5.8C1340.6,2246.3,1340.1,2252.3,1340,2260.2Zm-200-708.9c-2,7.5,2.1,27.8,6.2,31.8C1144.1,1572.1,1142,1561.7,1140,1551.3Zm311.2,413.4h-2.4c0,8.6-.2,17.3,2.4,25.9Zm-2.3-5h2c.7-10-1-19.8-4-29.6Zm-123.4,343.8,1.5.5c3.2-10.9,4.3-22.3,6.4-33.5l-1.5-.3C1329.7,2281.3,1327.6,2292.4,1325.5,2303.5ZM168.9,1871.2c-4.4,8-3,15.9,0,23.7ZM1536,1815.6l3-11.8C1529.3,1808.9,1529.2,1809.2,1536,1815.6Zm8-57.8-1.7-.3c-1.2,3.5-2.5,7-3.5,10.6-.1.5,1.3,1.3,2,2,1.1-1.3,2.8-2.5,3.1-4A57.3,57.3,0,0,0,1544,1757.8Zm-405.9-568.3,11.7-7.7C1143.6,1179,1141.5,1180.3,1138.1,1189.5Zm-66,170.4-.7-.2c-2.2,3.4-4.6,6.8-6.7,10.4-.4.7-.2,1.9-.3,2.8s3.7-.5,4-1.3A122,122,0,0,0,1072.1,1359.9ZM1436,1915.5h1.1c-.8-4.3-1.4-8.7-2.4-13-.3-1-1.9-1.6-3-2.4.1,1-.2,2.1.1,3Zm-104.2,351.3,1.9.4c.9-4.2,1.7-8.4,2.6-12.6l-2.2-.5C1333.3,2258.4,1332.6,2262.6,1331.8,2266.8Zm212.6-778.4c-6.3-3.7-7.6-3-7.7,3.9Zm-133.7,72.8a5,5,0,0,1,.2,1.2l17.3-3.2a5.2,5.2,0,0,0-.2-1.1ZM617.4,896.6l2-.2-1.5-12.1-1.6.2C616.7,888.5,617.1,892.6,617.4,896.6Zm405.4,731.6-1.6.2c0,2.2-.1,4.5.1,6.7s1.2,1.3,1.8,1.9,1.1-1.5,1-2.2A51.3,51.3,0,0,0,1022.8,1628.2Zm83.6,228.1a8.3,8.3,0,0,1-.8,1.2c2.5,1.2,4.9,2.4,7.4,3.4.5.3,1.4-.2,2.2-.4s-1-1.6-1.7-1.9C1111.2,1857.7,1108.8,1857.1,1106.4,1856.3Zm47.6-560.1,1.1-.4c-1.4-3.7-2.9-7.3-4.3-11l-1.5.7Z"
          transform="translate(-1 -11)"/>
    <path d="M1,170c6.4-3.8,12.6-7.8,19.1-11.5q23.4-13,47-25.9a16.6,16.6,0,0,1,4.6-1.9c.9-.3,2,.2,3.1.4a11.4,11.4,0,0,1-2,2.3l-67,38.2c-1.5.9-3.2,1.6-4.8,2.4Z"
          transform="translate(-1 -11)"/>
    <path d="M1288,2389c-3.5-7.1-7.3-14.1-10.3-21.4s-4.5-14.4-2.4-21.9c.8-3.1,3.1-5.9,5.5-8.5-8.1,13.1-3.2,25.5,1.8,37.7,2,4.9,4.9,9.4,7.4,14.1Z"
          transform="translate(-1 -11)"/>
    <path d="M855.6,620.1a45.1,45.1,0,0,1,6.6-24.7c18.3-29.2,42-52.2,74.3-65.7l2.9-1.6c-3.3,0-5.5-.1-7.6,0l-6.4.8c-34.1,4.6-68.4,8.2-102.3,14.1s-63.7,23.7-84.7,52.9a82,82,0,0,0-13.1,29.4c-.9,3.7-.1,5.2,3.8,3.5a19,19,0,0,1,4.8-1.4,23.2,23.2,0,0,1,4.5.6c-.4,1.5-.4,3.4-1.3,4.4-4,4.6-8.3,8.9-13.1,14,6-2.8,11.3-5.4,16.7-7.7s10.1-4.3,15.2-6.2c1.2-.5,2.7.2,4.1.3-.7,1.2-1.1,2.9-2.1,3.6-8.9,6.2-15.4,14.1-18.1,24.8-1.6,6-.2,7.6,5.8,5.9s8.9-3.6,13-5.3a20.1,20.1,0,0,1-21.3,7.6c-1.1-.3-2.5.3-3.6.8-5.1,2.1-8.8,1.1-11.3-3.8a46.1,46.1,0,0,1-3.4-10.3c-1-4.9-2.1-5.7-6-2.4-7.5,6.3-15.1,12.7-22.1,19.6-17.9,17.5-34.4,36.1-45.4,59.1-5.6,11.8-7.6,24.3-8.4,37.2a49.9,49.9,0,0,1-.7,5.4c0,.2-.4.3-1.1.7-1-13.8,0-27.2,4.2-40.2,5.5-17.5,16.2-32,27.7-45.9a284.1,284.1,0,0,1,47.6-44.7,7.6,7.6,0,0,0,2.7-5.2,76.8,76.8,0,0,1,12.1-43.5c21.2-33.2,52.2-52.3,90.2-59.8,21.1-4.2,42.8-6.2,64.3-8.4,18.5-1.8,37.1-3,55.7-3.6,30.1-1,59.5-7.1,89.1-12,18.8-3.1,37.7-5.3,56.5-.1,3.2.9,3.9-.4,4-3.5,1.6-49.2,18.7-91.5,55.4-125,8.4-7.7,18.5-12.3,30.4-12a14.9,14.9,0,0,0,7.8-2.4c15.6-9.5,31.1-19.3,46.7-28.8,1.4-.9,3.3-.8,5-1.2-.4,1.8-.2,3.9-1.2,5.3-7.1,9.5-14.3,18.9-21.6,28.1-2.6,3.3-1.4,4.1,1.9,5.3,5.9,2.2,11.6,5,17.4,7.5a3.7,3.7,0,0,1-.5,1.1c-6.7-2-13.5-4.2-20.3-5.9-1.6-.3-4.5.6-5.2,1.9-10.1,17.8-19.9,35.7-29.8,53.6a3.4,3.4,0,0,0-.5,1.4l-.9,5.7c2.1-.2,4.3,0,6.1-.8,19.8-8.2,39.4-16.9,60.6-21.1,17-3.4,34.1-6.4,51.4-3.3,6.7,1.2,13.2,4,19.6,6.8-10.4-3.3-21-5.5-31.9-5.1-27.9,1-54.5,7.7-80.1,18.9a220.1,220.1,0,0,1-20.7,8.6c-2.5.8-6.6.7-8.1-.8s-1.7-5.9-.7-8.1c7.7-15.5,15.7-30.8,23.7-46.1,2-3.7,4.6-7,6.6-10.6.4-.7-.3-3.1-.6-3.1-8.1-.6-16.2-1.4-24.3-1.2-21.4.4-33,15.9-44.7,30.4-21.3,26.6-31.8,57.7-36.7,91v.5c-1,10-1,10,8.7,10.2,13.2.4,24.8,5.9,36.5,11.1,9,4,17.8,8.3,26.6,12.6,11.6,5.7,15.6,12.7,14.7,24.9-.1,1.4,1.3,3.1,2.3,4.4,11.1,14.2,22.9,27.8,33.1,42.5s17.6,32.1,18,51.1c0,1,1.7,3,2.2,2.9,15.5-3.2,29.2,3,42.9,8.3,10.1,3.9,19.7,8.9,30.3,12.7-2.8-3.9-5.6-7.8-8.5-11.6s-8.4-10.4-12.5-15.6c-.9-1.2-2.1-2.4-2.4-3.7s-.2-3.7-.3-5.6c1.9.1,4.2-.5,5.6.3,7.5,4.6,15,9.3,22.2,14.3,23.7,16.2,43.4,36.9,64.3,56.2,1.4,1.4,2.9,2.6,5.3,4.8-9.4-36.2-16.3-71.9-39.4-101.5l8.5,14.6-1.3.8c-4.3-5.6-9-10.9-10.9-18.1-.2-1,.3-3.2,1-3.4a4.6,4.6,0,0,1,4,.6,57.3,57.3,0,0,1,6.3,7.7,184.6,184.6,0,0,1,24.5,52.2q8.4,28.6,16.7,57.5c.3,1.3-.7,3.1-1.1,4.7-1.6-.7-3.4-1.1-4.5-2.2-26.2-26.1-52-52.7-82.9-73.5a12,12,0,0,0-5-2.1c4.4,5.7,8.8,11.4,13.1,17.2a50.2,50.2,0,0,1,5.3,8.5c.7,1.6.8,4.6-.2,5.4s-4.1,1.4-5.8.8c-8-3.3-15.7-7.4-23.7-10.6-11.4-4.6-22.9-8.8-34.4-13.1a24.5,24.5,0,0,0-5.4-1c-11.6-1.5-13.2-.3-15.6,10.9-1.5,6.9-3.3,13.8-5.3,21.6,8.7-10.2,14.5-22.1,27.1-28.9-17.7,19.1-30.7,39.8-42,63.3,2.2-.8,3.5-1,4.4-1.6l41-24.8c1.1-.6,2.6-.4,3.9-.6s.1,2.9-.5,3.6c-3.2,3.4-6.2,7.2-10.1,9.6-13.3,8.2-26.9,15.8-40.4,23.8a17,17,0,0,0-5.6,5.1c-3,4.4-6.5,8.8-8,13.7s-6.9,7.3-10,11.2c-.9,1.2-3.3,1.2-4.9,1.7,4.5-8.4,8.9-16.6,13.8-25.9-6.8,1.7-12.5,3.6-18.2,4.4-13.2,2-26.4,3.5-39.6,5-2.7.3-4.4.7-4.4,3.9-.2,6.8-.5,13.6-.7,20.4-.1,3.6,2.7,2.9,4.6,2.6,11.1-1.3,22.1-2.8,33.1-4.3,2.9-.4,5.8-1,8.6-1.5.1.4.3.8.4,1.2a45.9,45.9,0,0,1-4.8,1.7c-11.3,2.8-22.7,5.2-33.8,8.4-2.4.7-4.7,4-5.8,6.6-2.6,6.2-4.4,12.8-6.7,19.2-1.1,3.2.3,2.9,2.7,2.4,4.3-1,8.8-2.2,13.2-2.2,7.7,0,9.6,3.6,5.8,10.2s-7.7,12.4-11.6,18.5l-1.1-.6c3.3-6.1,6.7-12.1,9.9-18.3s1.8-7-4.3-6.3-10,2.3-15,3.4c-1.4.3-3.7.6-4,0a6.1,6.1,0,0,1-.4-4.4c2.3-6.8,5-13.4,7.4-20.2s.7-8.1-5.7-8.5c-8.3-.5-14.3-4.2-17.5-12.4-.7-1.8-3.9-2.5-6-3.7a23.2,23.2,0,0,0-2.1,3.8c-3.1,9.5-6,19-9.1,28.4a30,30,0,0,1-2.7,5l-1.3-.4c.2-1.1,0-2.8.6-3.3,6.4-4.8,5.9-12.4,7.9-19,.5-1.7.3-3.7,1-5.4,7.1-16.3.8-31.8-2.8-47.5-.3-1.3-.8-2.6-1.2-3.8-1.8-7.2-4.5-13.3-11.1-18.1s-13.4-12.8-20.1-19.3c-12.4-11.9-27.1-15.1-43.7-11.9q-22.5,4.2-45.3,7.2c-3.1.4-8.3-.8-9.5-3-2.4-4.1,2.2-6.8,5.2-8.8,7.1-4.7,14.4-8.9,22.3-13.7-7.8-3.4-15.5-2.8-23.1-1.8-16.1,2.1-30.7,8.6-45.4,14.9-1.7.7-3.4,1.2-5.2,1.8l-.7-1.3,4.2-2.9c16-9.2,32.9-16.3,51.3-18.1,6.7-.6,13.7,1.3,20.5,2.7,1.8.4,4.4,2.7,4.5,4.4s-2.3,3.7-4,4.8c-6.8,4.2-13.8,8-20.7,12a11.8,11.8,0,0,0-4.1,5c2.7,0,5.5.4,8.1-.1,16.3-2.6,32.6-5.8,49-8s29.8,3,41.5,14.3c10.1,9.6,20.7,18.7,31,28.1a4.9,4.9,0,0,1,1.8,1.7,33.3,33.3,0,0,1,1.3,4.5l-3.7-1.7-2-.9,7.9,23.6c3.1-16.6,9.5-31.3,24.6-40.7-1.7,1.4-3.5,2.6-5.1,4.1-11.2,10.8-15,24.8-17,39.5,0,.6.8,1.4,1.2,2.1.7-.8,1.9-1.5,2.1-2.4.8-4.4,1.2-8.9,2.1-13.3.3-1.2,1.7-2.2,2.6-3.3.5,1.3,1.4,2.5,1.3,3.8-.1,3.8-.6,7.6-1,11.4s.2,5.2,4.2,4.8c26.4-2.9,53.1-3.8,78.5-13,3.8-1.3,6.2-3.3,7.6-7.1,5.9-15.5,12.6-30.7,18-46.4,8.9-25.9,4.9-50.5-10.1-73-9.5-14.4-20.1-28.1-30.2-42.1-2.2-3.1-3.4-3.1-5.3.5a152.1,152.1,0,0,1-9.1,14.9c-.6.8-2,1.1-3,1.7a10.9,10.9,0,0,1,.3-3.2c2.7-5.9,5.3-11.8,8.3-17.6,1.6-3.1,1.6-5.6-1.4-7.7l-10.5-7.1c-1.1,4.2-2.3,8.3-3.4,12.5a2.3,2.3,0,0,1-1,2c0-4-.3-8.1.1-12.1.6-5.8,4.2-7.8,9.5-5.2,3.2,1.5,6.1,3.8,10.5,6.7-.9-3.4-1.1-5.7-2.2-7.5a14.1,14.1,0,0,0-4.8-4.9c-19.3-11.3-38.9-21.8-60.8-27.1-4-.9-8.4-.1-13.7-.1,6.3,4.5,11.7,8.2,16.9,12.2s5,7,1.5,11.5a41.2,41.2,0,0,1-4.5,4.8,15.8,15.8,0,0,1-5.8,3.8,102.8,102.8,0,0,0,7-9.3c.9-1.6,1.5-5,.7-5.6s-5.3-3.5-7.7-3c-6.4,1.1-8.1.4-10.7-5.5-1-2-3.3-3.5-5.1-5.2-1.2,2.5-3.7,5.1-3.5,7.5s2.4,6.2,3.5,8.8c-4.3-.5-8.5-6.5-6.5-12.7s-1.5-6-5.4-6.6c-14.2-2.3-28.1-.2-42.1,2-22.5,3.5-44.9,7.5-67.5,10.7-25.1,3.5-46.9,13.8-65.1,31a338.2,338.2,0,0,0-33.6,36.2C861.2,602.9,859,612.4,855.6,620.1Zm256.3,144.1c0,12.1,4.1,17.2,14.4,18.3,3.5.4,4-.8,4.2-4a157.1,157.1,0,0,1,2.3-19.2c.6-2.9-.3-3-2.6-2.9l-11,.4C1111.9,756.8,1111.9,756.8,1111.9,764.2Zm71.6-393.9.8,1.2c5.9,1,11.7,2.2,17.6,3,1.3.2,3.5,0,4.2-1,6.8-8.5,13.3-17.2,19.8-25.9l-.6-.9Zm-435,267.9-22.8,10.7c-.6.3-1.5,1.3-1.4,1.7a126.3,126.3,0,0,0,3.6,15.3c.3,1,3.5,1.8,5.1,1.4s2-2.4,2.6-3.9.7-4.7,1.8-6.7C740.8,650.6,744.6,644.6,748.5,638.2Zm-16-6.8c-7.6-.7-9.1.7-7.5,6.4Z"
          transform="translate(-1 -11)"/>
    <path d="M732.8,1367.9c1.3-4,2.1-4.5,12.4-7.9-13.9-3.1-26.6-6.1-39.3-8.8-2.2-.5-4.6.5-6.9.7-5.4.5-8.2-1.3-9.7-6.4-4.9-16.4-13.5-30.7-25.4-44.7.8,3.5,1.4,5.8,1.9,8.2l-.6.2c-1-2.1-2.1-4.1-3-6.3-4-9.4-7.9-18.9-12-28.3-1.2-2.9-1.5-5,2.7-4.4s2.4-1.6,2.4-3.4c.6-15.6.9-31.3,1.9-46.8.3-4.8,2.3-9.7,4.2-14.2s4.5-5.6,9-3.5c1,.5,3.3-.2,4.1-1.1,15.2-17.5,35.6-23.5,57.5-24.8,19.4-1.2,38.9-.9,58.4-.8,22.8.1,43.2,8.6,62.7,19.5,8.2,4.6,15.7,10.5,23.7,15.6a14.6,14.6,0,0,0,6.5,1.7c4.8.2,9.7-.2,14.5-.1a9.9,9.9,0,0,1,5.4,2.1l-18.2,3.2c7.7,9.4,15,18.2,22.1,27.2,14.1,17.7,22.7,38,29,59.6,7.1,24.1-.4,42.7-19.1,57.4-8.1,6.4-17.5,11.3-26.4,16.9a21,21,0,0,0-2.6,1.3c-11.2,8.8-24.7,11.4-38.1,14.1s-26.1,1.7-38.8-7c-18-12.3-39.1-17.9-61.1-19.1C744.2,1367.6,738.4,1367.9,732.8,1367.9ZM896.4,1263l-.9,1.2c-2.9-.7-5.7-2-8.6-2.1-16.2-1-32.5-2.6-48.8-2.3-22.1.3-43.7,4.1-63.3,15.3q-26.1,14.9-51.6,30.4c-5.9,3.6-11.1,8.3-17.7,13.3,3.8,1,6,1.6,8.1,2.3,17.3,5,34.7,9.3,51.6,15.2a108.3,108.3,0,0,0,40.2,6.1c5.1-.1,10.3-.9,15.5-.7,19.6.8,37.7-4.3,55-13.4s32.3-16.4,48.4-24.8c1-.5,1.9-2.8,1.5-3.7-3.5-9.7-6.1-19.9-11.1-28.8a222.8,222.8,0,0,0-34.6-46.3c-3.7-3.7-7.2-5.9-12.7-4.1a37.3,37.3,0,0,1-8.8,1.2c-15.7.9-31.3,1.6-46.9,2.6-9.3.7-18.6,2.7-27.8,2.5-12.3-.3-24.5-2.1-36.7-3.4-19.8-2.2-39.9-3.1-58.2-12.4a15.2,15.2,0,0,1-2.9-2.8c1.3-.1,2.7-.6,3.9-.3,7,1.7,13.8,4.1,20.8,5.1,14,2,28,3.4,42.1,4.9,10.7,1.1,21.5,3,32.2,2.6,23.4-.9,46.8-3,70.1-4.7,4.1-.3,8.2-1.1,12.3-1.8v-1.4c-6.7-4-13.2-8.2-20-12-18.8-10.2-38.4-17.7-60.2-17.7-16.3-.1-32.7-.4-49,.1s-31.1,3.1-45.2,10.8-22.1,20-30.7,32.2a18.3,18.3,0,0,0-2.6,9.3c-.3,9.1.4,18.3-.3,27.4s2.5,12.7,8.9,16.6l-7.4-2.8c-2.4,11,4,18.7,10.3,26.3,10,12,18.4,24.9,23.8,39.7.4,1.1,2.6,2.2,4.1,2.3,4.8.4,10-.7,14.4.8,26.3,8.6,53.9,13,79.6,23.4,9.2,3.7,17.9,8.7,26.5,13.7,4.9,2.9,9.6,5,15.4,4.5,16.5-1.3,32.6-3.9,46.8-13.5a29.6,29.6,0,0,1,5.3-2.8c11.9-5.2,22.1-12.8,31.2-21.9s14.6-22.3,10.9-36.8c-1.8-6.7-1.4-6.5-7.3-3.1-15.5,9-31.1,18-46.7,26.8-17.3,9.7-36.3,12.4-55.8,13-18,.4-35.8,1.2-53.2-5s-37-12-55.6-17.9c-9.8-3.1-9.8-3.1-13.8,6.9-.1.2-.6.2-2.4.8,1.1-4.3,1.9-7.9,2.9-12a30.9,30.9,0,0,0-4.3,1.4c-.6.2-1,1-1.5,1.5s-1.5-2.2-1.2-2.4,3.2-4.4,4.6-4.2c5.6.8,8.5-2.7,11.6-6.1a28.7,28.7,0,0,1,5.2-4.7c18.4-11.9,36.6-24.2,55.5-35.4a126.9,126.9,0,0,1,30.5-13.2c22.3-6.2,45.3-7.2,68.3-4.5a177.4,177.4,0,0,1,21.5,4.2C890.8,1259.2,893.5,1261.4,896.4,1263Zm-235.9-43.8,1.2.3c2.8-4.3,5.7-8.5,8.3-12.8.5-.7.8-2.5.5-2.8s-2.5-1.1-3.1-.7a9,9,0,0,0-3.7,3.8C662.4,1210.9,661.6,1215.1,660.5,1219.2Z"
          transform="translate(-1 -11)"/>
    <path d="M956.4,1027.7c1.5-3,4-5.6,4-8.2,0-5.9-.3-12.1-2.2-17.6-2.9-8.2-6.2-16.7-11.4-23.5-3.7-4.8-10.9-7.1-16.6-10.3-.4-.3-2.5.9-2.5,1.5-.3,2.6-1.1,6.1.2,7.9a14.5,14.5,0,0,1,2.1,14.1c-1.7,5-2,10.9-7.6,13.9-.3.1-.8.4-.7.6.4,3.4,1.3,6.7,1.2,10.1,0,5.9,4.4,4.1,7.4,4.7.8.1,2.3,0,2.4.4,1,3.1,4.7,3.8,6,5.7,3.7,5.4,8,5.3,13.7,4.8,19.1-1.7,36.4,4.3,52.3,14.7,6.8,4.4,13.7,8.4,20.6,12.7l-.9,2.2c-4.1-.9-8.5-1.2-12.3-2.9-7.4-3.3-14.5-7.4-21.7-11.2-18.2-9.4-37.1-11.6-56.4-4.2-8.9,3.4-17.2,8.2-25.8,12.3a8.6,8.6,0,0,1-2.3.2c0-1.1-.6-2.6-.1-3.2a46.4,46.4,0,0,1,7.2-6.8c3.1-2.1,6.6-3.5,10.6-5.6-2.2-1.2-4.1-1.9-5.5-3.1a20,20,0,0,1-8.4-17.6,151.1,151.1,0,0,0-1.5-25.1c-1.1,14.9-5.5,29.8,1.1,44.6-6.3-4.9-8.3-11.6-8.3-18.9.1-8.9,1-17.9,1.3-26.9.1-1.9-1.1-3.8-1.4-5.8s-1.2-6.1-.5-8.7a100.8,100.8,0,0,1,19.7-37.3c11.6-13.8,36.4-16.6,52.1-5.2,22.8,16.7,39.1,37.6,38.2,68-.3,10.5.5,21,.5,31.4,0,3.2-1.1,6.3-1.7,9.4h-1.6c-1.2-10.6-2.5-21.3-3.6-31.9-.8-8.3-1-16.6-2.2-24.8a38.6,38.6,0,0,0-4.2-12.8,102.5,102.5,0,0,0-28.7-32.8c-13-9.9-37.3-6.6-48.1,8.5a65.4,65.4,0,0,0-12.6,37.7c1-.9,2-2.4,2.7-2.3,8,1.5,8.1-8.9,14.5-9.5a18.4,18.4,0,0,1-.3-3.3c.4-3.1.1-8.1,1.8-9s7.3-1.2,10.1.3c15.4,8.2,23.9,21.7,27.9,38.3,1.8,7.2,2.3,14.5-1,21.5C961.7,1029.4,959,1029.9,956.4,1027.7Z"
          transform="translate(-1 -11)"/>
    <path d="M229.8,201.8c2.2-11.1,4.1-21.5,6.3-31.8.5-2,2.1-3.8,3.1-5.6.4,2.1,1.4,4.2,1,6.2-2.9,17.6-6.1,35.2-9.2,52.8-2,11.7-3.9,23.5-5.8,35.2a39.1,39.1,0,0,0,0,4.9c4.1-5.5,7.5-10.3,11.3-14.8a116.8,116.8,0,0,1,11.4-11.9c8.3-7,16-5.3,19.4,4.9,2.9,8.4,4.1,17.4,6.4,26,1.3,4.8,3.4,9.5,5.3,14.5-3.9-1.5-6.5-4.8-7.9-8.7-2.3-6.3-4-12.9-6.1-19.4-1.2-3.7-2.5-7.5-3.9-11.2s-4.6-5.1-7.7-1.9c-5.9,6-11.6,12.3-17.1,18.7-3.4,3.9-6,8.4-9.5,12.2-1.3,1.5-4.6,3-5.7,2.4a7.2,7.2,0,0,1-2.9-6c1.8-13.3,4.1-26.5,6.4-39.7,1.2-7.2,2.8-14.3,4.3-21.4.5-2.7-.6-4.7-3.3-4.1s-7.6,1.4-10.5,3.5c-11.3,7.9-18.9,19.1-26,30.6-11.1,17.9-17.2,37.9-23.1,58a40.5,40.5,0,0,1-3.2,8.4c-.9,1.6-3.1,3.4-4.7,3.4s-3.6-2.4-4-4a119.8,119.8,0,0,1-2.1-14.8c-1.1-9.5-2-19.1-3-28.6-.2-1.5-.8-2.9-1.5-5.6a103,103,0,0,0-5.6,9c-4.9,9.4-9.5,18.9-14.7,28.2-2.4,4.4-4.8,10.1-11.3,8.6s-6.2-6.9-6.9-11.6c-1.5-10.1-3.3-20.3-3.8-30.5-1.4-26.2-2.2-52.5-3.1-78.8a16.6,16.6,0,0,1,.6-5.4c.2-.8,1.4-1.3,2.2-2,.5.8,1.3,1.6,1.3,2.5.4,10.3.2,20.6.9,30.8,1,16.3,2.2,32.5,3.8,48.7,1,11.3,2.6,22.6,4.2,34,.2,1.8,1.2,3.6,2.2,6.7,2.5-3.9,4.6-6.7,6.2-9.7,4.3-8.3,8.3-16.7,12.6-24.9a50.3,50.3,0,0,1,6.4-9.4c3.9-4.4,9.3-3.5,11,2s2.6,12.2,3.4,18.5,1.3,14.3,2,22.4c4.3-12.4,7.8-24,12.3-35.1,7.6-18.7,17.9-35.7,32.9-49.5a55.8,55.8,0,0,1,10.2-7C219.1,198.8,224.2,197.7,229.8,201.8Z"
          transform="translate(-1 -11)"/>
    <path d="M117.7,750.1c-4.9-1.1-10.9-2.3-16.9-3.8-2.1-.5-3.9-1.4-4.6,2-.2,1.1-2.3,2.8-3.4,2.7a5.4,5.4,0,0,1-3.9-2.8c-1.8-4.3-2.9-8.7-7.3-11.4-.7-.4-.5-2.7-.4-4.1s1.4-3.8,1.1-5.4c-4.7-23.4-9.8-46.6-14-70.1-1.6-8.9-1.1-18.2-1.2-27.3,0-3.3-.7-7.9,5.3-7.7.5,0,1.2-1.8,1.6-2.8,4.4-11,11.1-14.6,22.4-10.9a105,105,0,0,1,39.7,23.3c7.6,7.1,7,15.5-1.6,21.4-5.1,3.5-11,6-16.7,8.6-7.5,3.5-7.8,4.4-1.5,10s14.5,11.8,21,18.4,14,17.3,13.8,29.4c-.3,13.7-11.7,27.2-25.3,29.4Zm0-6.2c16.8-.7,28.4-12.3,27.3-28.2-.6-7.5-4.4-13.7-9.5-18.7-7.9-7.7-16.3-14.7-24.6-21.9s-7.7-13.3,2.3-18.2l3.5-1.8c4.3-2.1,8.9-3.9,12.9-6.5,5.9-3.9,6.1-7.8.8-12.4A104.7,104.7,0,0,0,95,615.4c-8.5-2.9-12.8-.6-15,8.4-3.3,13.6-2.3,27.3.5,40.8,4.7,23.6,9.8,47,14.9,70.4.3,1.6,1.8,3.8,3.2,4.2C104.9,741.1,111.3,742.4,117.7,743.9Z"
          transform="translate(-1 -11)"/>
    <path d="M259,705c-10.4,5.6-19.8,10.8-29.4,15.7-11.7,5.9-23.5,11.6-35.3,17.3a31.9,31.9,0,0,1-8.5,2.5,5.3,5.3,0,0,1-4.2-1.8c-.5-.6.1-3.1,1-3.7,2.6-2.1,1.4-3.9.8-6.3-3-13.1-6.3-26.1-8.2-39.3-3.5-23.8-6.1-47.7-8.9-71.5-.1-1.1.8-2.2,1.2-3.4,1.1.9,2.9,1.6,3.1,2.7a188.5,188.5,0,0,1,4.3,19.8c4.2,27.9,8.1,55.8,12.1,83.6.4,2.6,1.2,5.1,2,8.4l2.9-5.5,1,.2c-.4,3-.8,6-1.3,9.5,12.7-6,25-12,37.5-17.6,8.6-3.8,17.3-7.4,26.2-10.6,3.3-1.2,4.8-3,5.7-6.3,5.9-20.9,11.4-41.8,18.2-62.4,3.6-10.7,9.8-20.6,14.8-30.9a13.1,13.1,0,0,1,2-2.8c6.2-7.7,12.8-7,15.6,2.4s3.7,18.9,5.4,28.3v.5c.1,7.1.7,13.7,9.9,15.1,2.5.3,4.8,2.4,7.2,3.7-.2.4-.3.9-.5,1.4l-9.4-2.8c-3.6-1-5.8-.5-5.2,4.2,2.2,20.2,4.9,40.2,11.2,59.5.3,1.1,1.9,1.6,2.5,2.6a7,7,0,0,1,.8,4c0,1-1.2,2.7-1.8,2.6s-3.2-.8-3.6-1.8c-3.2-7.6-7.2-15.1-8.8-23.1-2.9-13.9-4.5-28.1-6.3-42.2-.8-6.6-1.2-7.6-7-6.9-7.9,1-15.8,2.3-23.6,3.8a5.9,5.9,0,0,0-3.9,3.3c-6.2,20.3-12.1,40.6-18,61-.3,1,.3,2.2.1,3.2a10.2,10.2,0,0,1-1.5,3.9,2.9,2.9,0,0,1-2.5.4c-.8-1.2-1.7-2.8-1.4-4C256.1,716.6,257.5,711.5,259,705Zm23.1-59c9.1-.6,17.6-1.2,26.1-2,1.1-.1,2.9-1.5,2.9-2.1-1.5-11.2-3.2-22.3-5.1-33.4-.2-1.5-1.5-2.8-2.2-4.2-1.3,1.1-2.8,1.9-3.6,3.2C292,619.5,286.6,632.7,282.1,646Z"
          transform="translate(-1 -11)"/>
    <path d="M901.7,169.9c-2.3-3.7-4.7-7.4-7.1-11.1h-1.3c-.7,3.6-2,7.1-2.2,10.7-.5,13.8-.3,27.6-1,41.4s-1.9,28.1-3.2,42.2a25.7,25.7,0,0,1-2.9,8.3c-3.8,7.6-11,9.7-17.3,4.3a141.2,141.2,0,0,1-18.3-19.6c-10.7-13.8-18-29.4-24.1-45.7a8.9,8.9,0,0,0-2.4-4c.2,3.5.5,6.9.7,10.4s.5,7,.6,10.5c.9,17.7,1.9,35.5,2.7,53.2a36.7,36.7,0,0,1-1.4,10.4c-.4,1.5-2.4,2.7-3.7,4-1.2-1.1-2.8-2.1-3.5-3.5a16.8,16.8,0,0,1-1.6-6.4l3,3.8c0-9.4.5-17.9-.1-26.5-.8-14-2.4-28.1-3.6-42.1q-1.3-16.2-2.4-32.4a29.6,29.6,0,0,1,.3-8.9c.5-1.8,2.5-4.4,4-4.5s4.4,1.8,5.1,3.5c2.4,5.6,4.1,11.5,6,17.4,7.5,23.6,17.6,45.9,34.1,64.8a96.6,96.6,0,0,0,8.6,8.3c2.9,2.7,5.3,1.9,6.3-1.7,1.6-6.1,3.6-12.2,3.8-18.4.8-18,.6-35.9,1.3-53.9.3-8.1,1.8-16.1,2.9-24.1a9.3,9.3,0,0,1,1.8-4.6c1.7-1.8,4-4.3,6-4.3s4.8,2.3,5.8,4.3c2.1,4.3,3.3,9.1,4.8,13.7Z"
          transform="translate(-1 -11)"/>
    <path d="M1045.5,941.6c-1.2-12.8-1.8-25.7-3.5-38.5-2.4-18.3-13.8-30.2-29.6-38.1-10.7-5.4-22.3-7.4-34.2-8-14-.8-28-1.4-41.5,3-8,2.6-16.9,4-21,13.1-.1.3-2.5,0-2.6-.3s-1.1-3.7-.6-5.3c4.3-16,10.1-31.4,20.4-44.6s25.5-17.2,41.7-17.1c8.2.1,15.5,3.2,22.2,8.1a50,50,0,0,0,10.8,6.1c11.5,5,20.8,12.1,26.6,23.7s13.1,21.2,14.2,33.8c1.4,16.8,2.2,33.7,2.4,50.6,0,4.7-3.1,9.4-4.7,14.1Zm-3.1-61.8c-1-3.4-1.3-5.5-2.2-7.4-4.5-9.1-9.1-18.1-13.7-27.1-3.6-7.1-9.2-12.1-16.2-15.7s-13.5-6.6-19.5-11c-15.8-11.4-41.9-3.1-51,7.2s-13.7,21.7-18.8,34c5.5-2.1,10.3-4.2,15.3-5.8,19.1-5.9,38.6-4.7,57.9-2.3s33.3,10.1,44.7,24.7A39.5,39.5,0,0,0,1042.4,879.8Z"
          transform="translate(-1 -11)"/>
    <path d="M382.1,629l11,14.1c10.8,14.1,21.5,28.4,32.4,42.4a62,62,0,0,0,9.6,10.2c2.3,2,5.6,2.8,8.9,4.3-1.1,3.4-4.7,4.2-8,2.4-5-2.7-10.4-5.8-13.9-10.1-11.4-13.7-22-28-32.9-42.1-3.7-4.8-7.6-9.7-11-14.7-2.1-3.1-4.9-6.6-2-10.5s6.7-3.2,10.5-2.6c9,1.3,17.6.5,25.4-4.5s9.1-12.1,3.8-19.6a13.6,13.6,0,0,0-2.7-3.5c-11.3-8.2-22.4-16.6-34-24.3-5-3.2-9.3-1.5-11,4.2s-3.6,14.3-3.4,21.5c.4,13.4,2.2,26.7,3.6,40.1,2,18.3,4.3,36.6,6.1,54.9.4,3.9-.3,7.9-.8,11.9-.1,1-1.4,1.9-2.1,2.8-.6-.9-1.6-1.7-1.7-2.7-.7-6.6-1-13.2-1.9-19.8-2.1-16.1-4.3-32.1-6.5-48.2s-5.2-33.9-3.4-51a47.9,47.9,0,0,1,3.2-12.5c4.1-9.6,11.9-12.9,21.1-8a236.3,236.3,0,0,1,27.5,18A64.5,64.5,0,0,1,423.2,595c6.6,8.6,4.9,19.8-3.4,26.8s-20.9,9.3-32.9,7.8Z"
          transform="translate(-1 -11)"/>
    <path d="M693.2,1004.7c-2.9-2-5.7-4.2-8.7-6a4.3,4.3,0,0,0-3.5.1,50.4,50.4,0,0,0-6.2,4l-1.1-.8c1.8-1.9,3.7-3.8,5.4-5.9s2.8-3.1,2.8-4.7c-.9-18.5,3-36.4,5.4-54.6.5-3.8,1.3-7.5,1.8-11.3,1.9-14.9,10.8-25.1,22.8-33,7.8-5.2,16.4-4.5,24.4-1.1,3.3,1.5,5.9,6,7.8,9.6,11.6,22.5,6.6,45.3,1,68.1-1.1,4.9-2.7,9.6-4.2,14.4s-3.3,8.6-1.1,13.4a6,6,0,0,1,0,4.9,8.1,8.1,0,0,1-4.1,3.6c-.6.2-2.7-2.1-3.1-3.5-1-3.5.4-8.3-4.1-9.9s-8.9-2.8-13.4-2.7c-6.4.2-12.8,1.5-19.1,2.8s-6,2.2-4,7.5l1.9,4.5Zm7.9-22.7-7.9,1.4c-.1-2.2-.3-4.4-.4-6.6l-.6-13.7H690c0,7.4,0,14.9-.1,22.3,0,2.8.3,3.7,3.6,2.8a172.9,172.9,0,0,1,19-3.9c6.4-1,12.9-1.5,19.1,1.8.5.3,2.6-1.1,2.9-2.1,1.9-6.1,3.6-12.1,5-18.3,4.5-20.4,9.7-40.7-.3-61.3-3.3-6.8-5-9.6-12.7-9.3a26.6,26.6,0,0,0-12.1,3.2c-14.4,8.5-18.9,22.5-20.3,38,0,.6,1.7,1.5,2.7,2.1,2.9,1.8,7.2,2.9,8.7,5.6,6.6,11.6,4.8,24,1.5,36.3a6.7,6.7,0,0,1-1.3,2.1c-1.8,1.9-3.4,1.8-4.7-.6,1-1.1,3-2.2,3-3.3.1-9.5.3-19.1-.4-28.6-.2-2.7-2.7-5.6-4.9-7.7s-4.6-1.4-5.8,2.2c-1.8,5.4-.4,9.6,3.1,12.5l5.6-2.8c.9,2,2.5,4.1,2.4,6C703.3,967.5,702.1,974.8,701.1,982Z"
          transform="translate(-1 -11)"/>
    <path d="M1460.4,507.6c-6.5-3.5-11.9-6.5-17.3-9.1-25.4-12.5-50.4-25.8-76.3-36.9-30.7-13.1-63-19.1-96.5-15.9-16.4,1.6-32.1,5.3-46.4,14,2.8-2,5.3-4.3,8.3-5.8,19.8-9.9,41-12.9,62.9-12.3,43.5,1.3,82.5,17.3,120.5,36.7l54.7,27.8a17,17,0,0,1,4.3,2.6c1.3,1.2,2,3,3,4.5-1.9.9-3.9,2.6-5.8,2.5-6.9-.3-13.8-1.4-20.8-1.8s-12.6-.8-18.9-.8c-21.9.3-43.5-2.8-65.1-5.8-16.3-2.2-32.7-4-49.2-1.5a65.8,65.8,0,0,0-9.7,2.5c-.9.3-1.6,1.3-2.5,2a12.5,12.5,0,0,0,2.4,1.6c8.3,3.1,16.6,6,24.8,9.2a94.3,94.3,0,0,1,17.4,8.7l-2.3-.4-34.1-10.9c-3.2-1.1-6.5-1.7-9.4-3.3s-4.9-3.3-5-5.1,2.5-4.9,4.5-5.6c7-2.2,14.3-4.6,21.6-5.2,20.7-1.7,41,2.6,61.4,5,13.3,1.6,26.8,2.6,40.2,3.2C1437.7,508,1448.4,507.6,1460.4,507.6Z"
          transform="translate(-1 -11)"/>
    <path d="M876.5,652.6c-4.7-3-5.9-8-6.3-13.4-1.2-17.2,5.1-32.3,14.1-46.4,14.6-23,36.7-34.5,62.7-39.7,23.6-4.8,47.4-5.7,71.5-4.3,17.7,1,34.9,3.6,51.7,9.7,5.1,1.9,11.3.5,16.7,1.8a116.6,116.6,0,0,1,21.7,6.9c5.8,2.6,7.4,6.7,6.1,11.9-.8-5.7-4.3-8.8-8.8-10.2-8.3-2.6-16.8-4.6-25.3-6.8l-.7,1.5,5.1,4.4-.7.5c-15.5-9.5-31-4.1-46.1.6-21.7,6.7-42.5,15.9-59.4,31.6-3.8,3.4-6.3,8.2-9.4,12.4.7-2.5.8-6.1,2.6-8.1,5.6-6.3,11.2-12.9,17.9-17.7,19.1-13.6,40.7-21.8,63.6-26.3l1.9-.5a4.9,4.9,0,0,0,2.9-2c-10.9-1.1-21.7-2.5-32.6-3.1-28.6-1.6-57-1.2-84.9,5.6-34.1,8.3-56.8,28.9-66.2,63a56,56,0,0,0-1.5,17.8C873.2,645.5,875.3,649.1,876.5,652.6Z"
          transform="translate(-1 -11)"/>
    <path d="M118.4,418.5a3.5,3.5,0,0,0,.5-.8c.9-3.9,1.4-8.4,6.6-8.6s6.1,3.9,7.5,7.5a46.1,46.1,0,0,1,.4,32.1c-1.6,4.6-1.3,8.5.2,13,5.5,15.9,11.5,31.6,22.1,44.9,3.6,4.5,7.8,8.5,11.3,13.1-21.7-12.2-31.8-33-40.5-55.5-7.7,10.3-16.4,18.4-29.6,19.8a29.7,29.7,0,0,1-21.1-6c-13.8-10.1-18.7-31-11-46.6C73.7,413.3,88.7,409.6,118.4,418.5Zm-21.2-2.8c-4.7,1.4-11.2,2.2-16.4,5.2-16.1,9.3-18.4,33.5-5,47.6,9.3,9.8,21.5,11.5,32.3,3.6,5.1-3.7,9.1-9,13.1-14.1,1.3-1.7,1.4-4.9,1.1-7.3-1.2-9-2.6-18-4.3-27-.3-1.5-1.8-3.5-3.2-3.9C109.6,418.3,104.2,417.3,97.2,415.7Zm28.5,6c.5,5.4.9,10.9,1.3,16.4h1.4C129.7,432.4,128.7,427,125.7,421.7Z"
          transform="translate(-1 -11)"/>
    <path d="M288.5,473.5c.5,22.1.9,44.2,1.6,66.4a112,112,0,0,0,2,16.2c1,5.7,2.3,6,7.9,2.2l.9.9c-2.1,1.9-4,5-6.3,5.3s-5.5-2.5-6-4.5c-2-8.3-4-16.8-4.4-25.3-1.2-23.6-1.4-47.3-2.3-70.9-.2-6.8-1.6-13.5-2-20.3-.1-1.8,1.2-3.6,1.9-5.4a30.7,30.7,0,0,1,4.1,4.7c.8,1.3.9,3,1.4,5,1-6.9,1.6-13.2,2.9-19.4.8-4,2.1-8.3,7.1-9.3s8.5,2.1,11.1,5.9c7.3,10.9,10.2,23.3,12.6,35.9,1.9,10.2,3.3,20.4,1,30.7a22.1,22.1,0,0,1-2.6,6.4c-3.4,5.5-9.3,6.5-13.9,1.8s-7.7-9.4-11.7-14.5c.2,2.5.5,4.7.7,7l-1.3.2c-1.4-6.4-2.8-12.8-4.1-19.2Zm28,6.2c-.8-5.9-1.4-12-2.6-18-2.1-11.3-4.7-22.7-11-32.7-1-1.5-2.8-2.6-4.2-3.9-1.1,1.6-2.9,3-3.2,4.7-1.3,7.1-2.3,14.3-3.1,21.6-1.6,16.3,5.9,29.5,15.8,41.5,3,3.7,5.1,3.1,6.4-1.6S315.8,483.8,316.5,479.7Z"
          transform="translate(-1 -11)"/>
    <path d="M548.8,1129.7c-8.8-2.4-17.8-4.5-26.4-7.3-30.2-10-57.5-25.7-84.5-42.1-30.4-18.5-57.5-41.2-83.9-64.8-9.1-8.1-18.3-16-27.7-23.8s-18.1-11.5-28.5-14.8c-1.7-.5-3-2.3-4.5-3.5,1.8-.1,3.6-.7,5.2-.4,18.5,3.6,33,14.4,46.5,26.7,50.4,46,106,84.4,167.7,113.7,11.1,5.3,23,9.1,34.5,13.6l2,1C549.1,1128.6,548.9,1129.1,548.8,1129.7Z"
          transform="translate(-1 -11)"/>
    <path d="M1256.9,173.5c-4.8,6.8-4.1,9.6,2.8,14,9,5.7,19.2,7.1,29.4,8.3,1.3.2,3.4-2,4.2-3.5,9.4-17.9,18.4-36,27.9-53.9,2.4-4.5,6-8.3,9.3-12.7l-28.9-6.7c-10-2.4-19.9-4.8-29.8-7.5-1.4-.3-2.5-1.9-3.7-2.9,1.7-.5,3.4-1.7,4.9-1.4,6.7,1,13.3,2.3,19.9,3.9,20.1,4.8,40.2,9.7,60.1,15,4.8,1.3,9.1,4,13.5,6.4a13.8,13.8,0,0,1,4,4.3,3,3,0,0,1-.4,2.7,2.2,2.2,0,0,1-2,.6c-8.1-3.4-16-7.4-24.3-10.4-10.7-3.8-12.2-3.4-17.6,6.7-8.8,16.4-17.1,33-25.5,49.6-1.7,3.3-2.9,6.9-4.3,10.3,3.6.3,7.2.8,10.8.8l73.4-.9h7.1v1.4c-4.7.8-9.4,2-14.2,2.3-22,1.5-44,3.5-66.1,3.9-14.5.2-29.2-1.3-43-6.9-6-2.4-11.7-5.6-14.7-12S1250,173,1256.9,173.5Z"
          transform="translate(-1 -11)"/>
    <path d="M685.6,840.1c-1.3-1.3-2-2.3-2.8-2.6-5.3-1.8-5.9-2.9-4.1-8,7.8-22.1,20.7-40.7,38-56.3a18.4,18.4,0,0,1,8.3-4.3c9.8-1.9,19.5-2.4,28.5,3.2a15.5,15.5,0,0,0,2.2,1.2c13.1,6.8,17.4,7.3,14.6,29-.2,1.9-.6,3.9-1,5.9-1.1,4.8-2,9.4.3,14.5,1.3,3.1.6,7.2.4,10.8,0,.9-1.5,1.8-2.3,2.7-.8-.8-1.9-1.5-2.2-2.4-1.5-4.3-2.3-8.8-4.1-12.9s-3.2-5.7-5.7-7.2c-13.4-8-28.4-9-43.4-8.3-3.9.2-8,3.2-11.1,6a94.8,94.8,0,0,0-12.6,14.2c-1.5,2-1.7,5.2-2.3,7.9S685.9,837.5,685.6,840.1Zm14.3-39.3a4.6,4.6,0,0,0,.7.7c3.2-1.1,6.4-3.1,9.6-3.2,17.7-.8,35.3.1,50.7,10.4,2.3,1.5,2.9.8,3.1-1.5.3-5.1.7-10.2,1-15.3a9.4,9.4,0,0,0-4.9-9.1c-4.8-2.7-9.4-5.8-14.4-7.9-7.9-3.2-16.6-2.6-22.8,2.3C714.3,783.9,707.5,792.8,699.9,800.8Z"
          transform="translate(-1 -11)"/>
    <path d="M474.7,181c-7.7-.4-15.4-1.3-23-.9-12.9.6-25.8,2-38.7,3.1s-23.5,2.1-35.2,2.8c-4.3.2-6.9.8-7.5,6-1.8,16.3-4.3,32.5-6.3,48.7-1.2,9.9-2,19.9-2.7,29.8-.2,2.8.7,5.7,1,8.5a7.3,7.3,0,0,1-.4,2.5c-1-.2-2.6-.1-2.8-.7a21.6,21.6,0,0,1-2-7c-1.1-18.7,1.1-37.2,3.7-55.6,1.5-10.3,3.1-20.6,4.6-30.8-8-.4-16.1-1.2-24.2-1.2-3.1,0-6.2,1.8-9.2-.2a22.6,22.6,0,0,1-3.4-3.5c1.5-.8,2.9-2.4,4.4-2.4,9.9-.2,19.9-.2,29.9,0,3.1,0,4.7-.5,5.3-4.1,1.3-6.7,3.4-13.1,5.3-19.6.4-1.2,1.9-2,2.8-3a18,18,0,0,1,.3,4c-1.1,6.2-2.4,12.3-3.5,18.5-.5,2.6-.3,4.5,3.3,4.2,12-1,23.9-2.2,35.8-2.5,17.6-.6,35.2-.6,52.7-.4,3.4,0,6.7,2,10.1,3.1Z"
          transform="translate(-1 -11)"/>
    <path d="M1456.2,196l-2.1-2.3a27.1,27.1,0,0,0-1.3,3c-3.6,13.6-6,27.5-5.8,41.6.1,1.9,1,3.7,1.5,5.6,1.7-.9,3.7-1.5,5-2.8,4.9-4.8,9.5-9.8,14.2-14.7,1.6-1.7,2.9-3.9,4.8-5s5.8-2.9,7.4-2,2.7,4.8,2.7,7.3c-.1,5.3-1.3,10.5-1.5,15.8s1.6,6.8,6.1,3.8c7.1-4.8,13.9-10.1,20.6-15.6s15.7-13.9,23.8-20.6a24.8,24.8,0,0,1,8.3-4.1c1.5-.5,3.4.3,5.1.5-4.6,3.8-8.7,7.1-12.6,10.6-11.9,10.7-23.4,21.7-35.5,32.1a26.6,26.6,0,0,1-12,5.6c-6.7,1.4-10.8-2.3-10.8-9.3-.1-5.3.5-10.5.9-16.6-5.2,5.4-9.7,10.4-14.6,15.1a33.8,33.8,0,0,1-8.4,6c-4.6,2.2-9.1.2-9.8-4.8a62.4,62.4,0,0,1,0-17.8c1.9-10.8,4.6-21.6,7.4-32.3.6-2.2,2.8-3.9,4.3-5.9l3.5,6.2Z"
          transform="translate(-1 -11)"/>
    <path d="M1280.1,864.8c-9.3,10.9-4.8,19.1,3.7,26.7a19.5,19.5,0,0,1,2.9,4c3.8,6.5,2.2,11.5-4.7,14.5a68.2,68.2,0,0,1-9,3.1c-15.3,4.5-23.5,15.9-28.7,30.1-.5,1.5,1,3.7,1.6,5.5-3.3-1.4-5.1.6-6.4,4.2-3.6,10.1-7.6,20.1-11.1,29.2.3-1.9.3-5.3,1.3-8.4,2.5-7.7,5.7-15.2,8.3-22.9.6-1.9,0-4.3.1-6.5s-.3-6.9,1.2-9.4a55.9,55.9,0,0,1,10.2-13.4,45.1,45.1,0,0,0,11.1-16.3,22.4,22.4,0,0,1,1.3-2.7c6.6-13.9,6.7-14-6.5-21.9-3.8-2.3-7.8-4.4-11.8-6.6l-11.9-6,.7-1.4c6.1,3,12.3,5.7,18.2,9s11.9,7,18.2,10.1c-17.8-16.3-31.6-36.4-51.3-51.7,2.2.5,4.7.4,6.4,1.6a208.4,208.4,0,0,1,18.8,14.9c9,8.1,17.6,16.7,26.2,25.3,3.1,3.1,4.5,2.4,5.7-1.3s2.4-6.6,3.6-9.8Zm-20.6,47.6c7.4-3.1,13.9-5.6,20.3-8.6.8-.4,1.4-3.9.7-4.6a65.4,65.4,0,0,0-9-7.7,3.1,3.1,0,0,0-3,.9C1265.5,898.7,1262.7,905.2,1259.5,912.4Z"
          transform="translate(-1 -11)"/>
    <path d="M520.8,387.7c-1.6.1-3.1.3-4.7.3-20.5-.4-40.9-.6-61.4-1.1-9.3-.2-9.2-.3-9.8,9.2-1.3,24.1-2.7,48.1-4,72.2-.1,2.3.1,4.6,0,7a11.4,11.4,0,0,1-.6,2.5c-.9-.5-2.3-.9-2.6-1.7-1.1-3.8-2.6-7.7-2.5-11.5.3-16.3.9-32.6,1.7-48.9.4-8.6,1.3-17.2,2.1-25.8.4-3.4-.9-4.8-4.3-4.9-6.3-.2-12.6-.5-18.9-1.1-1.5-.1-2.9-1.3-4.4-2,1.3-1,2.6-2.8,3.9-2.8,6.3-.2,12.9-.9,18.9.4s6.1-1.7,6.8-5.7c1.5-7.7,3.2-15.5,5.1-23.2a13.9,13.9,0,0,1,3.3-5.4c2-2.1,5-1,5.7,1.8.1.5-.7,1.7-.7,1.7-4.1-1.6-3.6,2.2-3.9,3.9-1.6,8.4-2.9,16.9-4,25.4-.1.9,1.7,2.8,2.7,2.9,14.2,1.2,28.4,2.1,42.6,3.1l29.1,2.2A7.6,7.6,0,0,0,520.8,387.7Z"
          transform="translate(-1 -11)"/>
    <path d="M1439.7,696.3c-.6.6-1.4,2-2.3,2a4,4,0,0,1-3.1-1.9c-9.6-16.6-14.1-35.1-19.7-53.1-8.2-26.7-24.5-46.9-47.4-62.3l-34.3-23.2c-5.5-3.7-10.9-7.5-16.2-11.5-.9-.7-1.2-2.1-1.8-3.1,1.2,0,2.7-.4,3.5.1,24.4,15.6,50.2,29,72,48.5,15.8,14.1,24.7,32.3,31.3,51.9,5.6,16.5,11.4,33,17.1,49.5C1439,694,1439.3,694.8,1439.7,696.3Z"
          transform="translate(-1 -11)"/>
    <path d="M970.5,211.6c-5.1,2-10.3,4-15.4,6.2-10.7,4.5-13.7,10.9-8.5,21.1a36.4,36.4,0,0,0,10.7,12.7c7.3,5.5,14.5,3.8,19.4-4,6.2-9.8,7.7-20,1.2-30.4a62.7,62.7,0,0,0-20.9-21c-8.1-5-12.6-3.3-16,5.6-.7,2.1-1.5,4.2-2.6,7.2-1.1-6.4.8-14,3.8-17.6s8-4.2,12.4-3.2c15.2,3.3,37.2,25.4,35.3,44.1-1,10.2-4.5,19.5-13.1,25.8s-19.7,4.2-28.4-5.4c-6.1-6.8-10.2-14.7-8.6-24.4.9-5.3,3.8-9.3,8.7-11.3,7-2.7,14.2-4.9,21.3-7.3A10.7,10.7,0,0,1,970.5,211.6Z"
          transform="translate(-1 -11)"/>
    <path d="M635.2,856.6c1.6-13.4,2.6-27,5.1-40.3a387.1,387.1,0,0,1,44.8-120.2c2.8-4.8,7-8.8,10.7-13,.6-.7,2.4-.4,3.6-.6s-.1,2.7-.8,3.4c-11.1,11.6-16.3,26.5-22.7,40.7C659.1,764.2,648.3,803.7,640,844c-.9,4.3-2,8.6-3,12.9Z"
          transform="translate(-1 -11)"/>
    <path d="M1632.3,252.6c-5-2.2-10-4.1-14.8-6.6-2.7-1.5-4-.8-5.5,1.6-4,6.5-7.9,13-12.3,19.3-2.7,3.8-6.1,7-9.1,10.5l-1.6-.9a45.8,45.8,0,0,1,1.4-5.3c3.6-9,7.3-18.1,10.9-27.2a4.9,4.9,0,0,0,.6-2.3,59.7,59.7,0,0,0-.9-6.1c-1.9.5-4.2.6-5.7,1.7-9.5,7.3-18.8,14.8-28.2,22.2-1,.7-1.8,1.5-2.8,2.1s-4.7,4.1-6.8.9c-.7-1.2.7-4.8,2.2-6.3a93.7,93.7,0,0,1,11.8-9.9c7.6-5.3,15.4-10.4,23.2-15.7-1.8-1.9-3.8-3.5-5.1-5.6s0-3.1,0-4.7c1.7.4,3.6.4,4.9,1.3a116.9,116.9,0,0,1,9.6,7.8c2.3,2.1,4.3,4.4,6.4,6.7s3.2,1.8,4.7-.7c6.2-10.2,12.7-20.3,19.1-30.4a12.1,12.1,0,0,1,2.5-3,8.3,8.3,0,0,1,2.9-1,12.2,12.2,0,0,1-.9,2.7c-7,11.6-14.1,23.3-21,35-.4.7.5,3,1.5,3.7,4.4,3.1,9.1,5.9,13.6,8.7Zm-27.1-1.9.7.2c1.4-2.4,2.9-4.8,4.1-7.3.3-.5-.4-1.4-.7-2.2s-1.6.5-1.8,1C1606.6,245.1,1605.9,247.9,1605.2,250.7Z"
          transform="translate(-1 -11)"/>
    <path d="M355.2,443.8c2,15.6,16.6,24.2,32.1,19.5a69.3,69.3,0,0,0,12.2-5.3c3.8-1.9,7.3-4.4,11.7-6-1.5,1.5-2.8,3.2-4.4,4.6-8.3,7.2-17.1,13.1-28.6,13.6-13.9.8-26.2-7.5-29.3-21.1s-.3-27.9,11-38.2a17.5,17.5,0,0,1,11.6-4.1c7.9.4,12.3,7.4,10.3,15.5s-6.6,15.6-13.8,20.8C364.2,445.8,360,447.3,355.2,443.8Zm-.2-9.9,5-3.1c-.1,1.9-1.1,2.9-1.5,4.2a39.8,39.8,0,0,0-.8,5.9c2.1,0,4.7.6,6.3-.3,7.1-4.2,11-10.9,13-18.7.9-3.5.8-7-3.1-9s-6.7-.5-9.5,2C358.9,419.9,356.7,426.5,355,433.9Z"
          transform="translate(-1 -11)"/>
    <path d="M333.9,279c-4,7.4-9.8,8.1-13.3,1.5a39.5,39.5,0,0,1-4.4-16c-.3-9.1.9-18.2,1.4-26.6-3.9,3.2-8,7.6-13,10.5a44.4,44.4,0,0,1-15.7,5.4c-6.2.8-10.9-5.3-9.7-11.5a32,32,0,0,1,12.7-20.2c7.9-5.7,17.1-3.9,23.7,5.1l-4-2.2c-8.1-5-14.9-4.1-20.5,3.6a37.3,37.3,0,0,0-5.9,12.4c-1.5,5.8,2,8.8,7.7,6.5a37.8,37.8,0,0,0,12.2-7.3c5.8-5.5,10.8-11.8,15.9-17.8,1.8-2.1,3.6-5,6.4-2.9s1.4,4.5,1.1,6.7c-2,12.4-4.6,24.7-6.3,37.1-.5,3.6.6,7.6,1.5,11.2C325.6,281.6,326.7,282,333.9,279Z"
          transform="translate(-1 -11)"/>
    <path d="M1113.5,1154.6l-3.4-1.9c.9-1,1.5-2.5,2.7-3.1,4.7-2.7,9.9-4.8,14.4-7.9a74.7,74.7,0,0,0,13.3-11.1c4.8-5.3,4.3-10.3-.8-15.4a92,92,0,0,0-7.2-6.8c-5.1-4.2-6.6-9.4-3.7-15.2,6.6-13.5,13.4-27,20.5-40.3,2.1-3.9,5.5-7.1,8.5-10.3.8-.9,2.6-.8,3.9-1.2a15.9,15.9,0,0,1-1,3.9c-7.4,13.7-14.9,27.4-22.3,41.2a46.3,46.3,0,0,0-2.1,5.6c-2.2,5.1-1.5,8.8,3.2,12.9,15.4,13.2,15,23.8-.4,37C1131.8,1148.3,1123.3,1152.2,1113.5,1154.6Z"
          transform="translate(-1 -11)"/>
    <path d="M1264,736.2c2.3-3.7,4.3-7.8,7.3-10.9s5.6-3.3,7.1-2.5,3.9,5,3.4,7.3a27.3,27.3,0,0,1-5.2,11.5c-5.1,6.4-11,12-16.7,17.9a14.4,14.4,0,0,1-3.1,2.2l.6,1.3c1.6,0,3.2.1,4.7,0,13.7-.6,17.3,7.2,14.3,18.6-3.5,13.1-8.7,25.8-12.8,38.7a186.5,186.5,0,0,0-5.9,23.7c7.5-4.5,13-11.7,22-13-3,1.9-6,3.5-8.7,5.6s-5.1,4.8-7.7,7.2-2.2,2.6-3.5,3.5-3.3,1.7-4.3,1.2-2-2.8-1.8-4.1a101.2,101.2,0,0,1,3-16.6c4.3-14,9.2-27.7,13.6-41.7a47,47,0,0,0,2-11.2c.4-3.9-1.8-6.4-5.8-6.5s-7.4.4-11,0-4.3-1.7-6.4-2.6c.9-2,1.5-4.3,2.9-5.8,6.9-7.2,14.2-14,21-21.3,2.2-2.3,3.6-5.5,4.9-8.6.4-1.2-.6-3-.9-4.6-1.5.5-3.4.5-4.3,1.4-2.8,3-5.3,6.4-7.9,9.6Z"
          transform="translate(-1 -11)"/>
    <path d="M405.1,94.1c-6.8-4.2-9-11-11.8-19.2a10.3,10.3,0,0,1-1.4,3,38.9,38.9,0,0,1-4.1,5c-3.9,4.1-8.4,6.8-14.2,4.8s-7.4-7.4-6.4-13.9a42.2,42.2,0,0,1,4.5-13.5c2.8-4.9,7.4-4.4,10.7.5-6.5-1.9-8-1.3-9.6,5.6a34,34,0,0,0-.5,13.1c.8,4.3,4.5,5.6,7.9,3,7.2-5.2,12.2-11.8,12.9-21.3,1.1-14.2,2.4-28.3,4.1-42.5.3-3,.3-8.2,5.2-7.6s2.4,5.1,2.5,7.9a137,137,0,0,1-6.2,47.1c-2.5,8,.3,16.6,4.3,24.3Z"
          transform="translate(-1 -11)"/>
    <path d="M642.5,131c-1.9.4-4.2.4-5.8,1.4-6.3,3.5-13.3,6.4-18.5,11.2-23,21.4-40.5,47.4-57.1,73.9-1.4,2.1-1.6,4.9-3.2,6.8s-3.5,1.6-5.3,2.4c.1-2.1-.3-4.4.5-6.1,2.8-5.8,5.9-11.5,9.2-17,13-21.6,27.7-41.9,46.5-58.8,6.8-6.2,13.9-12,23.2-14,3.3-.7,6.8-.9,10.2-1.3Z"
          transform="translate(-1 -11)"/>
    <path d="M824.3,653.9c0,2.8-.6,5.7.1,8.4,3,12.3,9.7,22.8,16.5,33.3,2.3,3.5,3.3.8,4.3-1.1,8.8-15.7,20.5-28.5,37.4-35.4,8.4-3.5,17.5-5.5,26.4-8.2l.6,1.8a44.6,44.6,0,0,1-5,2.2c-24.3,7.2-42.3,22.2-54.4,44.5-4.4,8.1-8.6,8.4-13.3.5-7.4-12-14.7-24.2-15.9-38.8C820.6,656.3,821.3,655.2,824.3,653.9Z"
          transform="translate(-1 -11)"/>
    <path d="M481.6,217.9l9.9-10.6c7.3-8.4,12.8-17.6,9.5-29.4s-5.5-21.8-9.6-32.2c-3.4-8.8-8.6-9.1-14.1-1.3-4.4,6-9.6,12.4-3.6,21.5-5.6-3.5-5.5-8.3-4.2-12.1a54.2,54.2,0,0,1,7.9-15.3c4.7-6.2,11-6.1,16.2-.3,6.9,7.8,10,17.5,12.3,27.4s5.2,18.2,2,27.4C503.7,205.4,494.6,213.1,481.6,217.9Z"
          transform="translate(-1 -11)"/>
    <path d="M1120.2,77.4c-4.8,4.5-10.1,8.6-14.2,13.6-12,15-17.9,32.9-21.8,51.2-3,14.4-4.1,29.2-5.9,43.8-.3,1.8.6,3.8,1,5.7s.5,1.7.7,2.6-3,.7-3.6.1-2.3-3-2.3-4.6c-.2-9.4-.9-18.9.1-28.3a162.4,162.4,0,0,1,16.2-56,61.6,61.6,0,0,1,26.8-27.8l2.6-1.1Z"
          transform="translate(-1 -11)"/>
    <path d="M785.4,984.7a468.7,468.7,0,0,0-17.4-82c-3.8-12.4-9.2-24.2-14-36.2-.5-1.4-1.6-2.7-1.8-4.1a32,32,0,0,1,.3-5.3c1.7,1.1,4.2,1.8,4.9,3.3,4.1,9,8.2,18,11.6,27.2,10.4,28.4,18.4,57.3,17.9,87.9C786.9,978.6,786,981.6,785.4,984.7Z"
          transform="translate(-1 -11)"/>
    <path d="M1116.3,879.8c4.4-1.5,8.7-3.1,13.1-4.4s8.7-1,12.1,2.4,3.3,8,1.4,12.1c-3.2,7.1-6.8,14-10.3,20.9s-6,11.5-8.8,17.3c-.8,1.9-.8,4.1-1.8,6.4,0-2.2-.7-4.8.1-6.6,4.7-10.3,9.8-20.4,14.6-30.6a47.6,47.6,0,0,0,3.5-9.8c1.4-6.3-2.4-10-8.4-8s-11.9,5.2-17.9,7.5c-2.9,1-7.6,2.7-8.9,1.4-3.3-3.3.7-6.4,2.9-8.7,7.6-8.1,15.6-15.9,23.5-23.7,3-3.1,6.1-6.1,9.1-9.1,1.6-1.5,3.1-3.2,5-4.2s3.8-1,5.7-1.5c-.7,1.8-.8,4.2-2.1,5.4-5.5,5.5-11.4,10.6-17.1,16s-11.3,10.7-16.9,16.1Z"
          transform="translate(-1 -11)"/>
    <path d="M86.6,97c2.8-10.1,5.5-20.3,8.4-30.4a64.4,64.4,0,0,1,3.3-9.3c2.3-5.3,7.2-6.1,9.7.5-4.5-2.2-5.2.7-6,3.8C99.1,72.3,96.3,83,93,93.5c-1.3,4-2.3,9.8-8.1,9.3s-5.4-6.1-6.7-10-1.4-4.8-4.8-1.7S65.2,94.6,63,88.8a74.7,74.7,0,0,1-4.6-19.2c-.8-7.5-.3-15.2-.2-22.8,0-1,1.1-2,1.7-3a18.7,18.7,0,0,1,.4,3.2c.3,5.3,0,10.7.8,15.9,1.2,7.3,3,14.5,4.8,21.7,1,3.9,2.7,4.8,6,1.4,4.9-5,7.8-4.1,10.2,2.7.9,2.7,1.7,5.3,2.6,7.9Z"
          transform="translate(-1 -11)"/>
    <path d="M695.4,1373.9l-5.3,2a26.7,26.7,0,0,0,3.2,4.8c8.4,8.9,19.7,11.6,31,14.4,7.9,2,15.5,5.6,23.1,8.7,1.3.5,2.1,2,3.2,3.1-1.5.4-3.2,1.3-4.6,1-12.6-2.7-25.2-5.2-37.7-8.5-8.4-2.2-15-7.7-20.6-14.3a35.2,35.2,0,0,1-2.8-4.6c-1.8-3.3-.9-6.3,2-8.3S693,1371.3,695.4,1373.9Z"
          transform="translate(-1 -11)"/>
    <path d="M1551.8,257.7c-3.9-4.3-4-8.2-1-31.1-5,3.9-9.3,7.7-14,10.9a70.4,70.4,0,0,1-13.2,6.5c-1.4.5-4.6-.8-5.3-2.1s-.5-4.4.5-5.9c6.7-9.3,16.2-14.5,27-17.5a13.4,13.4,0,0,1,7.9.5c1.5.6,3.3,3.1,3.1,4.6-.8,7.2-2.2,14.4-3.3,21.5C1552.8,249.3,1552.4,253.4,1551.8,257.7Zm-27-22,1.4,1.8,17.7-13.5-1.1-1.5Z"
          transform="translate(-1 -11)"/>
    <path d="M338.6,744.4c-11.3,12.7-18.2,28.1-24.7,43.4-8.3,19.4-15.6,39.3-23.3,59-.5,1.2-2.6,4,1.6,3.7a3.8,3.8,0,0,1,.5,1.5,20.3,20.3,0,0,1-4.3,2.9c-.5.2-2.1-1.2-2.2-2a19.9,19.9,0,0,1,.2-6.9c8.9-32.9,22-63.8,41-92.1,2.6-4,6.5-7.1,9.9-10.6Z"
          transform="translate(-1 -11)"/>
    <path d="M801.9,1831.6c-6.1,5.8-12.4,11.4-18.2,17.5-27.6,29.1-55,58.4-82.8,87.3-18.5,19.2-37.1,38.3-56.3,56.7-16.7,16-34.3,31.1-51.6,46.5a12.4,12.4,0,0,1-5.8,3c4.8-4,9.9-7.7,14.4-12,25.7-24.4,51.8-48.5,76.8-73.6s50.8-53.7,76.4-80.4c14.5-15.1,29.5-29.7,44.3-44.6l1.7-1.5Z"
          transform="translate(-1 -11)"/>
    <path d="M793.6,1024.7c-4.1,1.4-8.2,3.3-12.4,4.2-14.2,2.8-23.8,11.9-32.6,22.4-1.1,1.4-2,3.3-3.5,4.2s-4.2,1.3-6.4,1.9c-.3-2.1-1.6-4.7-.8-6.2,5-9.6,11.4-18,21.4-23S781.3,1020.8,793.6,1024.7Z"
          transform="translate(-1 -11)"/>
    <path d="M727.8,1115.8c-9.8,1.3-19,.8-24.6-8.7s-4-23.5,2.5-32.2,16.2-12.2,27-12.6c.9,0,1.9.9,2.9,1.3-.7.8-1.2,2-2.1,2.3-2.9,1.2-6,2.1-9,3.2-14.1,5.1-20.8,18.6-15.1,32.4,1.7,4.2,6.3,7.3,10.1,10.4S725,1114.5,727.8,1115.8Z"
          transform="translate(-1 -11)"/>
    <path d="M1070,662.4c-7.4-4.5-8.9-9.9-5.4-16.8,5.5-10.5,14.1-18.1,22.9-25.5,15.6-13,31.4-25.8,47.2-38.5,2-1.6,4.9-2.1,7.4-3.1-1.1,2.4-2.1,4.7-3.3,7-.2.4-1.2,3.6-1.8.1a7.4,7.4,0,0,0-2.4,1.1c-17.6,14.9-35.3,29.9-52.8,45a95.7,95.7,0,0,0-9.5,9.6C1066.6,647.6,1062.4,654.2,1070,662.4Z"
          transform="translate(-1 -11)"/>
    <path d="M801.3,66.4c-7.8-1-15.6-1.9-23.4-3.2-3.2-.5-5.1-.5-5.3,3.7-.6,8.2-1.6,16.5-2.7,24.7a66.4,66.4,0,0,1-1.8,7.4l-1.5-.2c0-1.4-.1-2.9,0-4.4.3-10.1.8-20.2,1-30.4a4.3,4.3,0,0,0-2.3-3.1c-3.9-1.3-7.9-2.3-12-3.3a16.2,16.2,0,0,0-2.2,0c0,3.4-1.8,2.1-2.9.9a20.2,20.2,0,0,1-2.2-4.1c1.5-.8,3.2-2.3,4.6-2.1A90,90,0,0,1,764,55.5c3.2,1,3.9.3,4.1-2.9.4-6.1,1.2-12.2,2.1-18.3a4.7,4.7,0,0,1,2.7-3c.8-.3,2.2.9,3.2,1.6a1.8,1.8,0,0,1,.3,1.7c-4.9,6.8-1.9,14.7-3.2,21.9-.1.6,1.8,2.1,3,2.4,7.7,1.9,15.5,3.5,23.2,5.2a16.6,16.6,0,0,1,2.1.6A9.9,9.9,0,0,1,801.3,66.4Z"
          transform="translate(-1 -11)"/>
    <path d="M424.7,744.9c-3.1,4.4-6.1,8.8-9.3,13.1-16.7,23-31,47.4-40.8,74.3a98.2,98.2,0,0,0-3.3,10.9c-.6,2.2-1.1,4.7,2.2,5.6.2.1.2,2.6-.3,2.9-3.1,1.6-6.7-.5-7-4.6a31.9,31.9,0,0,1,1.5-10.2c7.7-24.2,20.4-45.7,35.1-66.1,6.6-9.1,13.7-17.8,20.6-26.7Z"
          transform="translate(-1 -11)"/>
    <path d="M835.3,699.2c-3.4,5.8-7.1,6.7-11.7,5.1a43.6,43.6,0,0,1-25.5-21.9c-4.9-9.8-8.3-20.3-13.1-30.1-3.2-6.7-7.6-12.8-11.6-19-.8-1.3-2.7-1.8-3.9-2.8a19.9,19.9,0,0,1-2.1-2c1-.3,2.4-1.3,3-.9,3.3,2.1,7.5,3.8,9.4,6.9,5.2,8.6,9.4,17.8,14.1,26.8s9.3,18.7,15,27.3c2.9,4.4,8,7.4,12.5,10.5S829.6,703.7,835.3,699.2Z"
          transform="translate(-1 -11)"/>
    <path d="M867.1,1126.2c3.3-1.8,5.6-2.9,7.5-4.2,5.8-4.1,12.1-7.7,17.2-12.5,6.6-6.3,7.6-14.4,3.8-22.9-2.1-4.7-4.2-9.4-6-14.2-.4-1.2.3-2.9.5-4.3,1.1.7,2.8,1.2,3.4,2.3,3.3,6.2,7.3,12.4,9.4,19C909.1,1108.7,888.7,1130.5,867.1,1126.2Z"
          transform="translate(-1 -11)"/>
    <path d="M536.6,54c-8.6,3.1-16.7,5.4-24.3,8.8-12.2,5.7-12.2,7.6-1.5,15.4a56.3,56.3,0,0,1,8.1,6.5c4.8,5.1,4.3,10.8-1.3,15s-10.3,4.6-15.9,2.2-5.2-5.8-.6-9.9c-1.7,5.3,1.1,6.5,5,6.2a24.4,24.4,0,0,0,7.6-2c4.3-2.3,4.6-5.3,1-8.7s-6.1-4.6-9.1-7a49.5,49.5,0,0,1-5.8-5.4c-3-3.3-3-7.3.7-9.9C511,57.3,522.9,53.6,536.6,54Z"
          transform="translate(-1 -11)"/>
    <path d="M1117.3,968.6c6.9-3.6,12.4-6.6,18.1-9.3,1.1-.6,2.7-.3,4.1-.4-.7,1.1-1.2,2.7-2.2,3.3-7.8,4.7-15.7,9.4-23.6,13.9a6.2,6.2,0,0,1-5,0c-.7-.4-1-3.3-.3-4.4,10.7-17.5,21.7-34.8,33.3-53.4C1136.9,937.1,1126.8,951.9,1117.3,968.6Z"
          transform="translate(-1 -11)"/>
    <path d="M187.1,859.1l3.7-2.3c.1.6.2.9.1.9l-6,5.2c-.6-2.5-2.1-5.3-1.7-7.6a217.7,217.7,0,0,1,22.2-66.1,20,20,0,0,1,5.2-6c1.5-1.1,3.9-1,5.8-1.4-2.7,3-5.6,5.2-7,8.1-10,20.6-16.7,42.5-22.3,64.7A22.5,22.5,0,0,0,187.1,859.1Z"
          transform="translate(-1 -11)"/>
    <path d="M1244.8,1042.6l3.1-.7c.3,1.6,1.2,3.3.8,4.7a108.6,108.6,0,0,1-5.6,14.3c-13.8,28.4-27.8,56.6-41.8,84.9-.7,1.4-1.6,2.8-2.4,4.2l-1.3-.5c2.7-6.4,5-13,8-19.3,12.2-24.9,24.6-49.6,36.9-74.5a67.6,67.6,0,0,0,4.1-9.6C1246.9,1045.4,1245.6,1044.2,1244.8,1042.6Z"
          transform="translate(-1 -11)"/>
    <path d="M152.5,104.4c-8-2.5-16-4.8-23.9-7.4a33,33,0,0,1-7.5-3.8c-10-6.8-10.9-16.2-2.1-24.5a84.7,84.7,0,0,1,12.4-8.9c1-.6,3.6-.1,4.2.7s.3,3.5-.5,4.3c-3.6,2.8-7.2,5.9-11.3,7.8-5.8,2.6-7.9,8.6-3.7,13.4,6.2,7,14.8,9.9,23.1,13l10,3.7Z"
          transform="translate(-1 -11)"/>
    <path d="M1156.4,1040.2c3.1-6.3,7.6-7.2,10.2-1.8s5.8,13.9,6.5,21.1c1.5,15,1.5,30.2,2.1,45.3a14,14,0,0,1-.7,3.9c-.2.5-.5,1.1-.8,2-2.2-19.5-4.3-38.6-6.6-57.6a48.1,48.1,0,0,0-2.5-10.6C1162.8,1037.5,1161.7,1037.2,1156.4,1040.2Z"
          transform="translate(-1 -11)"/>
    <path d="M247,624.1c-2.1-7.5-2.8-8.3-10-6.2-16.7,4.9-33.4,10.3-50.1,15.5a13.4,13.4,0,0,1-1.8.7l-4-.2c.8-1.2,1.3-3,2.4-3.5,10.5-4.5,20.9-9.3,31.8-12.8,7.9-2.5,16.5-3.2,24.8-4.6C245.7,612,250.2,616.4,247,624.1Z"
          transform="translate(-1 -11)"/>
    <path d="M239.6,59.9l-15.7-2a11.1,11.1,0,0,0-4.4.5c-5.1,1.9-5.8,6-1.5,9.3s6.7,4.1,10,6.4c6.2,4.4,7.1,10.3,1.5,15.5-3.6,3.3-8.5,5.4-13.2,7.3-1.8.7-5.5-.2-6.4-1.6s0-4.6.7-6.7,2.3-2.8,4.2-3.7a37.9,37.9,0,0,0-1.8,4.2,14.9,14.9,0,0,0-.5,3.6,12.1,12.1,0,0,0,3.8,0,6.8,6.8,0,0,0,3.1-1.4c3.2-3,6.2-6.1,9.3-9.1-2.8-2.7-5.4-5.5-8.3-8.1s-4.2-2-5.3-3.7-3.8-5.8-3.4-8.5a7.8,7.8,0,0,1,8.6-6.7c6.5.6,13,2.1,19.4,3.2Z"
          transform="translate(-1 -11)"/>
    <path d="M599.6,95.9c-4.9-.4-6.3-4.2-6.5-8.2a137.3,137.3,0,0,1,8-54.6c.8-2.2,2.4-4.2,3.8-6.3.3-.5,1.4-.5,2.1-.7s.3,1.5,0,2.1c-7.2,19.3-8.8,39.5-9.1,59.9C597.9,90.5,599,93,599.6,95.9Z"
          transform="translate(-1 -11)"/>
    <path d="M577.1,90.5c-9.3,10-21.8,7.5-28.8-3.1-4-6-3.1-8.8.7-13.3,2.5-3,3.9-7,6.4-9.9,1.2-1.3,4.1-1.2,6.2-1.7.3,2.1,1.6,4.7.8,6.3-2.1,4.1-4.5,8.3-7.7,11.4s-2.4,5.9-.3,8.6a12.7,12.7,0,0,0,13.2,4.9C570.7,93.1,573.5,91.7,577.1,90.5Z"
          transform="translate(-1 -11)"/>
    <path d="M620.4,100.9a17.3,17.3,0,0,1-4.1-15.4c3-16.6,6.3-33.3,10-49.8,1-4.6,2.6-9.5,7.6-11.5-3.3,12.5-7.2,24.9-9.6,37.5S617.9,86.6,620.4,100.9Z"
          transform="translate(-1 -11)"/>
    <path d="M268,93.6c-6.4-3-6-9.5-7.8-17.1-2,2.7-3.2,4.8-4.9,6.4-4,3.8-8.3,2.7-10-2.4a17.6,17.6,0,0,1-1.2-6.3c.6-10.1,1.4-20.2,2.1-30.3a7,7,0,0,1,.6-1.9l2.2-2.7a8.9,8.9,0,0,1,.8,3.1c-.4,8.4-1.1,16.9-1.4,25.4a52.5,52.5,0,0,0,.7,10.4c.4,2.9,1.9,3.7,4.2,1.2a55.5,55.5,0,0,1,4.2-4.2c1.2-1,3-2.1,4.2-1.8s1.9,2.4,2.2,3.8.5,5.3,1.1,7.9S266.9,90.5,268,93.6Z"
          transform="translate(-1 -11)"/>
    <path d="M801.1,1111.1c-2.8-5.9-1.6-9,3-9.1s9.5,0,13.7,1.5c10.6,3.8,20.9,8.3,31.1,13,2.7,1.3,4.5,4.6,6.5,7.2.4.4-.4,1.7-.6,2.5a7,7,0,0,1-2-.8c-3.4-2.5-6.4-6-10.2-7.4-11.4-4.2-23.2-7.7-34.9-11.3C804.7,1105.7,801.8,1105.6,801.1,1111.1Z"
          transform="translate(-1 -11)"/>
    <path d="M330.2,73.7c-3,3.8-5.4,7.6-8.4,10.8s-9.7,4.4-12.4-.3-5.1-12.1-7.3-18.3c-.2-.7.8-1.9,1.2-2.9.8.6,2.2,1,2.5,1.9s.6,3.6,1.4,5.2A90.6,90.6,0,0,0,314,82.3c.4.6,4.3-.1,5.4-1.3,2.8-3.4,4.9-7.5,7.5-11.1,1-1.5,2.7-2.5,4.1-3.7,1,1.7,2.7,3.5,2.8,5.3a129.3,129.3,0,0,1-.4,18.6C332.4,84.8,331.3,79.5,330.2,73.7Z"
          transform="translate(-1 -11)"/>
    <path d="M238.9,657.8c-5.3.8-10.2,1.4-14.9,2.4-10.8,2.4-21.5,5.1-32.4,7.3-2.4.5-7.5-.5-7.5-.8,0-4.3,3.9-3,6.2-3.6,11.6-2.7,23.2-5.2,34.9-7.6a36.4,36.4,0,0,1,9.9-.3C236.6,655.3,237.9,657,238.9,657.8Z"
          transform="translate(-1 -11)"/>
    <path d="M1254.1,972.1c-5.8,4.4-8,9.4-5.5,16.7s1.4,11.2-1.5,16.7c-6.3,12.1-12.3,24.4-18.9,36.7.5-2.7.6-5.6,1.6-8.1,4.2-9.4,8.6-18.7,13-28,2.4-5.1,4.6-9.7,2.7-16-1.3-4.2.1-9.6,1.6-14C1247.8,974.2,1251.7,973.4,1254.1,972.1Z"
          transform="translate(-1 -11)"/>
    <path d="M298.1,70.4c.1,1.6.6,3.4.2,4.9-2.4,9.7-13.6,14.5-22.6,9.7-3.9-2.1-6.1-5.2-4.9-9.8s4.3-7.1,9.5-6.9a10.8,10.8,0,0,1,5.4,1.8c-2,.2-4.3-.1-5.9.8s-4.8,2.9-5.6,5.1,1.6,5.1,4.5,6c8.1,2.6,15.8-2.4,18.1-11.5Z"
          transform="translate(-1 -11)"/>
    <path d="M355.9,84.1c-5.1-4.7-6.6-10.9-6.7-17.1-.1-12.3.5-24.6.9-36.9.1-1.1,1.1-2.2,1.6-3.3.5,1.1,1.4,2.1,1.3,3.2-.1,7.8-.5,15.6-.8,23.5C351.8,63.8,350.9,74.3,355.9,84.1Z"
          transform="translate(-1 -11)"/>
    <path d="M1045.2,240.4c-1.3,4.1-2.2,8.4-3.8,12.4s-5.7,5.6-9.1,3.9-5.1-5.1-6.1-8.2,1-7.1,4.7-9a6.7,6.7,0,0,1,2.8.1c-.3.7-.4,1.5-.7,2.1s-1.7,2.2-1.5,3.1a27.5,27.5,0,0,0,2.1,6.1c1.6-.7,3.9-1,4.9-2.3s3.3-5.8,5-8.8Z"
          transform="translate(-1 -11)"/>
    <path d="M727.5,39.8a169.4,169.4,0,0,1-10,48.4c-.4,1.2-.2,2.6-.6,3.8a16.5,16.5,0,0,1-1.5,2.5c-.7-.8-2-1.6-1.9-2.4a11.3,11.3,0,0,1,1.3-4.2,145,145,0,0,0,9.4-44.5,7.5,7.5,0,0,1,.4-3,14.3,14.3,0,0,1,1.9-2.4Z"
          transform="translate(-1 -11)"/>
    <path d="M459.8,250.3c-.2,4.7-.5,9.6,6.1,9.8.6,0,1.2.9,1.9,1.3a7.8,7.8,0,0,1-2.1,1.6c-4,1.3-7.4.1-9.5-3.3a26.4,26.4,0,0,1-3.2-8.2c-.3-2,.4-4.3,1.1-6.3.1-.4,2.7-.7,3-.2S458.9,248.5,459.8,250.3Z"
          transform="translate(-1 -11)"/>
    <path d="M176.5,926c-1.1-2-2.7-3.9-3.2-6a73.2,73.2,0,0,1-2.2-13.1c-.1-1.7,1-4.9,2-5.1,3.2-.5,3.9,2.1,3.9,4.8,0,4.5,0,8.9.1,13.3a53.2,53.2,0,0,0,.6,5.6Z"
          transform="translate(-1 -11)"/>
    <path d="M260.9,899.9c-1.8.3-3.9,1.3-5.4.8-3.8-1.3-4-.2-2.7,3a14.2,14.2,0,0,1,.4,3.6l-1.7.6c-1.5-4.1-3.2-8.2-4.3-12.4-.3-.9,1.2-3.1,2.1-3.2a8.1,8.1,0,0,1,4.8,1.6C256.3,895.4,258.1,897.4,260.9,899.9Z"
          transform="translate(-1 -11)"/>
    <path d="M518.5,272.1c-5.6,4.5-11.1,9.3-17,13.6-1.1.8-3.6,0-5.4-.1,1.1-1.3,2.1-2.9,3.4-3.8,4.3-2.8,8.8-5.3,13.2-7.9l4.7-3.2Z"
          transform="translate(-1 -11)"/>
    <path d="M341.8,888.4c.8,2.9-4.1,4.5-.1,6.6-1.6,1.3-3,3.1-4.8,3.6s-3.6-.5-5.4-.9c.4-1.7.2-4.4,1.3-5.1S338.6,889.8,341.8,888.4Z"
          transform="translate(-1 -11)"/>
    <path d="M1097.3,2012c-1,2.5-1.8,4.7-2.7,6.8-12.1,29-28,55.9-45.4,81.9-13,19.3-27.7,37.5-41.6,56.1a19.4,19.4,0,0,1-5,4.9c-1.6,1-3.7,1.1-5.7,1.6.7-1.8.9-4,2-5.4,5.2-6.1,10.9-11.7,15.8-18a746.2,746.2,0,0,0,68.7-107.6c2.8-5.4,4.4-11.4,6.7-17a18.4,18.4,0,0,1,2.6-4.8,4.4,4.4,0,0,1,3.3-1.2C1096.5,2009.4,1096.9,2011.1,1097.3,2012Z"
          transform="translate(-1 -11)"/>
    <path d="M1403.9,1356.1c1.2-3.4,2.5-7.2,6.8-5.9s4.6,5.2,3.9,8.8c-1.5,7.5-6.5,12.9-12.3,17.6-11.8,9.5-25.8,14.7-39.7,20.3a46.6,46.6,0,0,0-9.9,5.1h13.2a6.1,6.1,0,0,0,.1,1.4,84.6,84.6,0,0,1-9.9,1.5c-18.5,1.5-36.3-2.4-54-7.2-1.5-.4-2.6-2.3-4-3.5a23.3,23.3,0,0,1,5-1,20.3,20.3,0,0,1,4.9,1l5.5,1.2c-6.1-8.6-13.8-12-23.1-12.3s-11-.2-14.6,10.1a138.5,138.5,0,0,0-6,20.9c-.9,4.4.1,9.2.2,13.8,0,8.9.6,17.9-.1,26.8-1,14.1,5.5,25.3,12.1,36.7,2.7,4.6,5.3,9.2,8,13.7a3.3,3.3,0,0,0,2.3,1.5,20.2,20.2,0,0,0,5.4-.8c4.7-1.2,8.5.2,11.4,5.3a87.6,87.6,0,0,1,5.2-8.9c3.5-5,7.9-9.5,10.8-14.9a87,87,0,0,0,8-19.5,84.5,84.5,0,0,0,2.8-21.2c.1-10.4-1.1-20.7-1.7-31.1a3,3,0,0,1,1-2.7c.9,3.3,2.2,6.5,2.7,9.9,1.1,7.5,1.8,15.1,2.9,22.6.1.8,1,1.5,1.9,2.8-4.7,5.7-2.2,14.5-3.9,22.4-.2.6,1.7,2.4,2.6,2.4,5,0,10.4.8,15-.7,19-5.9,33.3-18.2,44.3-34.5.7-1,1.2-2,1.8-3a2.1,2.1,0,0,1,1.7-.8,37.4,37.4,0,0,1-2.1,5.9c-10.4,18.7-25.8,31.1-46.4,36.6-4.7,1.2-10.1,0-15.1-.6-2.1-.3-2.7-.8-3.8,1.7a194.9,194.9,0,0,1-10.1,19.2c-3.5,6.1-7.3,11.9-11,17.8s-8.6,7.3-13.6.5a5.5,5.5,0,0,0-3.4-1.9,16.3,16.3,0,0,0-4.4.8c-9.4,2.4-9.3,2.4-11.8-6.8-.7-2.5-2.3-4.8-3.6-7.1-4.3-8-9-15.8-13.1-23.9s-2.5-19.9-2.7-30c0-6.2.3-12.6-.5-18.8-2.1-16.8,3-31.8,11.3-46,2.1-3.6,5.7-5.4,10.1-5.3,12.5.3,24.1,2.7,32.4,13.3a28.5,28.5,0,0,0,6.2,5.8c2.6,1.7,4.9,6,9.1,2.4.1-.1.7.3,1.1.5,6,3,11.9,4.2,18.5.6,9.9-5.3,20.4-9.6,30.4-14.8s19.1-10.2,25.5-19.5a25.3,25.3,0,0,0,2.9-7.2c.2-1.1-.5-2.4-.8-3.7l-3.4,1.4Z"
          transform="translate(-1 -11)"/>
    <path d="M1225.5,1339.5c-3.3,6.5-7.6,11.1-15.3,10.9s-12.9-3.9-16.1-10.7c-2.2-4.7-1.7-8.9,3.7-13-2.9.6-4.4,1.2-6,1.2a9.1,9.1,0,0,1-3-1.1c.5-1,.6-2.4,1.4-2.8,10.7-5.7,21.6-11.2,34.4-7.9,3,.8,5.7,2.5,8.4,4a26.7,26.7,0,0,1,4.3,2.8l-9.3,31.6c-.6,2.2-.8,4.5-1.5,6.7a19.5,19.5,0,0,1-2.1,3.7c-.6-1.4-2-3.1-1.7-4.4,2.2-8.8,4.5-17.6,7.1-26.3.8-3,.6-3.8-2.5-5.5-10.3-5.7-17.8.8-25.8,4.9-.6.2-.8,2.6-.3,3.6,2.5,5.3,9.2,7.3,16.1,5.2Z"
          transform="translate(-1 -11)"/>
    <path d="M1242.8,1355.3c-6.5,9.3-13.9,17.8-23.6,24.1-4.2,2.8-8.6,2-12.2-.8-9.7-7.4-19.1-15.2-28.7-22.9a4.8,4.8,0,0,1-1.6-1.9c-.4-1.5-.4-3.2-.7-4.8,1.5.7,3.2,1,4.4,2,3.2,2.5,6.1,5.5,9.4,8,5.6,4.4,11.5,8.4,17.2,12.7s7.6,4.4,12.9.6,11.7-9.3,17.5-13.9c1.6-1.3,3.1-2.7,4.6-4.1Z"
          transform="translate(-1 -11)"/>
    <path d="M1173.4,1287a13.3,13.3,0,0,0,1.9,1.4l2.9,1.6a12.5,12.5,0,0,0,.8-3.2c.1-4.6-.1-9.3.3-14,0-1.3,1.5-2.5,2.3-3.8.8,1.3,2.1,2.6,2.2,3.9a107,107,0,0,1-.4,15c-.3,2.1-2.4,4-3.6,6-2-1.3-4-2.5-5.8-3.9a8.6,8.6,0,0,1-1.4-2.5Z"
          transform="translate(-1 -11)"/>
    <path d="M1250.2,1262l-16,40.9C1237.2,1287.5,1241.9,1274,1250.2,1262Z" transform="translate(-1 -11)"/>
    <path d="M568.5,2106.4l17.4,5.8c-.1.4-.3.8-.4,1.3l-16.9-7.2Z" transform="translate(-1 -11)"/>
</svg>