<svg xmlns="http://www.w3.org/2000/svg" viewBox="0 0 512 512">
	<defs>
		<linearGradient id="linear-gradient" x1="104.74" y1="104.74" x2="466.78" y2="466.78" gradientUnits="userSpaceOnUse">
			<stop offset="0" stop-color="#369"/>
			<stop offset="0.97" stop-color="#246"/>
			<stop offset="1"/>
		</linearGradient>
	</defs>
	<circle cx="256" cy="256" r="256" style="fill:url(#linear-gradient)"/>
	<path
		d="M164,255.6v-5.4a88,88,0,0,0,9.7-2.3,54.9,54.9,0,0,0,6.3-2.5,13.3,13.3,0,0,0,3.4-2.2,2.7,2.7,0,0,0,1.1-2V109.4H147.1a9.3,9.3,0,0,0-3.4.6,8.6,8.6,0,0,0-3.1,3,37.5,37.5,0,0,0-3.6,6.6c-1.3,2.9-2.9,6.8-4.7,11.6l-5.4-2.3c.4-5,1-10.2,1.7-15.8s1.5-10.6,2.4-15H257.3l3.7,3.1c-.2,4.3-.6,8.9-1.2,14s-1.5,10.2-2.5,15.4h-5.7c-.8-3.8-1.5-7.1-2.2-9.8a32.2,32.2,0,0,0-2.1-6.6,9.7,9.7,0,0,0-3-3.7,7.1,7.1,0,0,0-4.3-1.1H204.5V241.2q0,1.7,4.5,4.2c3,1.6,8.3,3.3,16,4.8v5.4Z"
		style="fill:#fff"/>
	<path
		d="M305,255.6v-5.4a88,88,0,0,0,9.7-2.3,54.9,54.9,0,0,0,6.3-2.5,13.3,13.3,0,0,0,3.4-2.2,2.7,2.7,0,0,0,1.1-2V109.4H288.1a9.3,9.3,0,0,0-3.4.6,8.6,8.6,0,0,0-3.1,3,37.5,37.5,0,0,0-3.6,6.6c-1.3,2.9-2.9,6.8-4.7,11.6l-5.4-2.3c.4-5,1-10.2,1.7-15.8s1.5-10.6,2.4-15H398.3l3.7,3.1c-.2,4.3-.6,8.9-1.2,14s-1.5,10.2-2.5,15.4h-5.7c-.8-3.8-1.5-7.1-2.2-9.8a32.2,32.2,0,0,0-2.1-6.6,9.7,9.7,0,0,0-3-3.7,7.1,7.1,0,0,0-4.3-1.1H345.5V241.2q0,1.7,4.5,4.2c3,1.6,8.3,3.3,16,4.8v5.4Z"
		style="fill:#fff"/>
	<path
		d="M59.5,415.6v-5.4a64.5,64.5,0,0,0,13.3-3.8c3.2-1.4,4.8-2.6,4.8-3.8V267l-8.9,1.3-9.2,1.3-1.1-7.7L70.3,259c4-.8,8.1-1.6,12.5-2.3s8.9-1.3,13.6-1.7,10-.6,15.5-.6c9.7,0,18.1.9,25.2,2.8s13.2,4.6,17.9,8a33.5,33.5,0,0,1,10.6,12.1,31.7,31.7,0,0,1,3.5,14.9,48.9,48.9,0,0,1-2.5,16.3,42.4,42.4,0,0,1-7.3,13,45.5,45.5,0,0,1-11.2,9.6,59.2,59.2,0,0,1-14.2,6.4l37.9,60.7a17.3,17.3,0,0,0,4,4.4,14.9,14.9,0,0,0,4.9,2.4,18.9,18.9,0,0,0,6,.9,51.6,51.6,0,0,0,7.6-.3l1.3,5.4c-5.5,1.8-10.7,3.3-15.7,4.5a49.3,49.3,0,0,1-12.3,1.9,14.1,14.1,0,0,1-7-2,15.4,15.4,0,0,1-5.2-4.9l-37.9-70.1-3.2.2h-3.4c-2.2,0-4.3-.1-6.5-.3a59.9,59.9,0,0,1-6.8-1.1v63.4c0,1,1.5,2.2,4.5,3.7s7.6,2.8,13.7,3.9v5.4Zm47.8-150.7-9.7.3v64a37.2,37.2,0,0,0,5.9.8h5.3c13.1,0,23.3-2.9,30.3-8.7s10.7-14.2,10.7-25.3a32.2,32.2,0,0,0-2.5-12.6,24.9,24.9,0,0,0-7.6-9.9,38.3,38.3,0,0,0-13.3-6.4C121.1,265.6,114.7,264.9,107.3,264.9Z"
		style="fill:#fff"/>
	<path
		d="M203.1,415.6v-5.4a64.5,64.5,0,0,0,13.3-3.8c3.3-1.4,4.9-2.6,4.9-3.8V266.9l-9.2,1.3-9,1.4-1.1-7.7c4-1.1,8.4-2.1,13.1-3s9.6-1.7,14.7-2.4,10.2-1.2,15.4-1.6,10.4-.5,15.4-.5a96.2,96.2,0,0,1,24.4,2.8,58,58,0,0,1,18.6,8.5,38.4,38.4,0,0,1,11.8,13.9,41.2,41.2,0,0,1,4.2,19,49.4,49.4,0,0,1-2.4,15.8,46.9,46.9,0,0,1-6.5,12.6,45.2,45.2,0,0,1-9.3,9.7,60,60,0,0,1-11,6.7,54.5,54.5,0,0,1-11.3,4,45.7,45.7,0,0,1-10.6,1.3c-7.8,0-14.5-1.2-20.1-3.7l-2.9-9.4a38.7,38.7,0,0,0,10.1,3.1,74,74,0,0,0,9.2.7,35.8,35.8,0,0,0,12-2.3,37.2,37.2,0,0,0,11.5-6.7,36,36,0,0,0,8.6-11.2,34.1,34.1,0,0,0,3.4-15.5,39.7,39.7,0,0,0-3.7-17.6A34,34,0,0,0,286.5,274a43.5,43.5,0,0,0-14.9-6.9,70.1,70.1,0,0,0-18.1-2.2h-6.2l-6,.2V402.6a2.1,2.1,0,0,0,1,1.6,12.3,12.3,0,0,0,3.4,1.9,46.8,46.8,0,0,0,6.7,2c2.8.7,6.4,1.4,10.7,2.1v5.4Z"
		style="fill:#fff"/>
	<path
		d="M461,267.1c.6.4.5,1.2-.2,2.4a33.2,33.2,0,0,1-3.2,4.1,62.5,62.5,0,0,1-4.5,4.4l-4.1,3.7-4.1-.7a54.9,54.9,0,0,0-8.5-6.5,39.1,39.1,0,0,0-9.2-3.9,54.2,54.2,0,0,0-10.2-1.9,103.9,103.9,0,0,0-11.5-.6,29.3,29.3,0,0,0-7.8,1.4,43.9,43.9,0,0,0-9.9,4.7,57.7,57.7,0,0,0-10.3,8.3,61.2,61.2,0,0,0-9.3,12.8,76.9,76.9,0,0,0-6.8,17.6,94.5,94.5,0,0,0-2.5,23.1c0,11.6,1.5,21.7,4.6,30.2s7.1,15.7,12.1,21.3a49.5,49.5,0,0,0,16.9,12.7,46.2,46.2,0,0,0,18.9,4.2,68,68,0,0,0,16.8-1.9,56.4,56.4,0,0,0,13.8-5.1V355a4.1,4.1,0,0,0-1.2-2.7,12.1,12.1,0,0,0-4.1-2.6,76.1,76.1,0,0,0-7.9-2.5c-3.3-.8-7.5-1.6-12.5-2.5v-5.3h57.6v5.3c-4.8,1.2-8.1,2.7-10.1,4.6s-3,3.8-3,5.7v41.4a164.5,164.5,0,0,1-16.6,12.1,90.6,90.6,0,0,1-13.4,6.9,51.4,51.4,0,0,1-11.7,3.2,80.5,80.5,0,0,1-11.1.8,70,70,0,0,1-24.9-4.7,64.8,64.8,0,0,1-21.9-14.3,71.5,71.5,0,0,1-15.7-23.9q-6-14.2-6-33.6t6.6-37.2A80.2,80.2,0,0,1,364,277.8a76.7,76.7,0,0,1,26.6-17.4,87,87,0,0,1,32.3-6,59.9,59.9,0,0,1,9,.8,99.1,99.1,0,0,1,10.1,2.5,96.3,96.3,0,0,1,10.1,4A55.4,55.4,0,0,1,461,267.1Z"
		style="fill:#fff"/>
</svg>
